<svg width="72" height="12" viewBox="0 0 72 12" fill="none" xmlns="http://www.w3.org/2000/svg">
<path d="M6.42874 5.77626C6.29823 5.31016 6.03721 4.88134 5.70162 4.52711C5.06772 3.91185 4.21009 3.5949 3.33382 3.63219C2.47619 3.66948 1.76772 4.15423 1.63721 4.3966V0.798294H0.0338214V7.54744C0.0151773 8.12541 0.0897536 8.72202 0.238906 9.28134C0.369415 9.74744 0.630432 10.1949 0.966025 10.5491C1.24569 10.8288 1.59992 11.0525 1.9728 11.2017C2.40162 11.3695 2.86772 11.4441 3.31518 11.4441C3.78128 11.4441 4.24738 11.3695 4.67619 11.2017C5.04908 11.0525 5.40331 10.8288 5.68297 10.5491C6.03721 10.1949 6.27958 9.76609 6.41009 9.29999C6.55925 8.72202 6.61518 8.14405 6.61518 7.54744C6.65247 6.93219 6.57789 6.33558 6.42874 5.77626ZM4.93721 8.7966C4.88128 9.11355 4.73213 9.39321 4.48975 9.61694C4.1728 9.91524 3.76264 10.083 3.31518 10.0644C2.88636 10.083 2.45755 9.91524 2.15925 9.61694C1.93552 9.39321 1.78636 9.0949 1.71179 8.7966C1.63721 8.38643 1.59992 7.97626 1.59992 7.54744V7.43558C1.59992 7.04405 1.63721 6.65253 1.71179 6.27965C1.76772 5.9627 1.91687 5.68304 2.15925 5.45931C2.45755 5.16101 2.88636 5.01185 3.31518 5.01185C3.74399 4.99321 4.1728 5.16101 4.48975 5.45931C4.71348 5.68304 4.86264 5.98134 4.93721 6.27965C5.01179 6.68982 5.04908 7.11863 5.04908 7.54744C5.04908 7.95761 5.01179 8.36778 4.93721 8.7966ZM26.6576 7.41694C26.6389 8.01355 26.7135 8.59151 26.8626 9.16948C26.9931 9.63558 27.2542 10.0644 27.5898 10.4186C27.8881 10.6983 28.2237 10.922 28.5965 11.0712C29.4728 11.4068 30.4423 11.4068 31.2999 11.0712C31.6728 10.922 32.0084 10.6983 32.3067 10.4186C32.6609 10.0644 32.9033 9.63558 33.0338 9.16948C33.183 8.59151 33.2389 8.01355 33.2389 7.43558V0.667786H31.6542V4.26609C31.5237 4.02372 30.8152 3.53897 29.9576 3.50168C29.0626 3.4644 28.205 3.79999 27.5898 4.3966C27.2355 4.75084 26.9931 5.17965 26.8626 5.64575C26.7135 6.22372 26.6576 6.82033 26.6576 7.41694ZM28.2609 7.41694C28.2609 6.98812 28.2982 6.57795 28.3728 6.14914C28.4287 5.83219 28.5779 5.55253 28.8203 5.3288C29.4728 4.75084 30.4982 4.75084 31.1508 5.3288C31.3745 5.55253 31.5237 5.85084 31.5982 6.14914C31.6728 6.54067 31.7101 6.91355 31.7101 7.30507V7.41694C31.7101 7.82711 31.6728 8.25592 31.5982 8.66609C31.5423 8.98304 31.3931 9.2627 31.1508 9.50507C30.8525 9.80338 30.4237 9.97117 29.9948 9.95253C29.5474 9.97117 29.1372 9.80338 28.8203 9.50507C28.5965 9.28134 28.4474 8.98304 28.3728 8.68473C28.2796 8.25592 28.2423 7.82711 28.2609 7.41694ZM54.9593 5.75762C54.8287 5.29151 54.5677 4.8627 54.2321 4.50846C53.9338 4.2288 53.5982 4.00507 53.2067 3.85592C52.7779 3.66948 52.3118 3.5949 51.8457 3.61355C50.9881 3.65084 50.2796 4.13558 50.1491 4.37795V0.798294H48.5643V7.54744C48.5457 8.12541 48.6203 8.72202 48.7694 9.28134C49.0118 10.139 49.6457 10.8661 50.5033 11.2017C51.3796 11.5373 52.3491 11.5373 53.2067 11.2017C53.5796 11.0525 53.9338 10.8288 54.2135 10.5491C54.5677 10.1949 54.8101 9.76609 54.9406 9.29999C55.0898 8.72202 55.1457 8.14405 55.1457 7.54744C55.1643 6.93219 55.1084 6.35423 54.9593 5.75762ZM53.4677 8.77795C53.4118 9.0949 53.2626 9.37456 53.0203 9.59829C52.7033 9.8966 52.2931 10.0644 51.8457 10.0457C51.4169 10.0644 50.9881 9.8966 50.6898 9.59829C50.466 9.37456 50.3169 9.07626 50.2423 8.77795C50.1677 8.36778 50.1304 7.95761 50.1304 7.5288V7.41694C50.1304 7.02541 50.1677 6.63389 50.2423 6.261C50.2982 5.94406 50.4474 5.66439 50.6898 5.44067C50.9881 5.14236 51.4169 4.99321 51.8457 4.99321C52.2745 4.97456 52.7033 5.14236 53.0203 5.44067C53.244 5.66439 53.3932 5.9627 53.4677 6.261C53.5423 6.67117 53.5796 7.09999 53.5796 7.5288C53.5796 7.95761 53.5423 8.36778 53.4677 8.77795ZM12.4508 7.82711C12.4508 8.49829 12.6372 9.02033 12.9728 9.41185C13.3457 9.80338 13.905 10.0271 14.4457 9.98982C14.7999 10.0085 15.1728 9.93388 15.5084 9.80338C15.8253 9.65422 16.1237 9.44914 16.366 9.20677L17.3728 10.1203C16.9999 10.4932 16.5525 10.8102 16.0677 11.0339C15.5457 11.239 14.9864 11.3322 14.4084 11.3135C13.9237 11.3135 13.4389 11.239 12.9728 11.0898C12.544 10.9593 12.1711 10.7169 11.8542 10.4186C11.5186 10.0644 11.2576 9.65422 11.1084 9.18812C10.9033 8.61016 10.8101 7.97626 10.8287 7.361C10.8287 6.1305 11.127 5.16101 11.7423 4.47117C12.3576 3.78134 13.2525 3.40846 14.1847 3.42711C15.2287 3.42711 16.0677 3.7627 16.6457 4.43389C17.2237 5.10507 17.5406 5.99999 17.5406 7.09999V7.77117H12.4508V7.82711ZM15.9372 6.18643C15.8999 6.01863 15.844 5.85084 15.7694 5.70168C15.6389 5.42202 15.4338 5.16101 15.1728 4.99321C14.8931 4.80677 14.5576 4.71355 14.222 4.73219C13.8864 4.73219 13.5508 4.82541 13.2525 4.99321C12.9914 5.16101 12.7677 5.40338 12.6559 5.70168C12.5813 5.85084 12.544 5.99999 12.5067 6.14914C12.4694 6.33558 12.4508 6.54067 12.4508 6.72711H15.9931C15.9931 6.55931 15.9745 6.37287 15.9372 6.18643ZM23.7304 11.183V6.52202C23.7304 5.94406 23.5813 5.51524 23.3016 5.23558C23.0033 4.93728 22.5745 4.78812 22.1643 4.80677C21.7355 4.78812 21.3067 4.95592 21.0084 5.23558C20.7101 5.51524 20.5609 5.94406 20.5609 6.50338V11.1644H18.9762V3.52033H20.5237V4.30338C21.0643 3.72541 21.8101 3.42711 22.6118 3.44575C23.3203 3.40846 24.0101 3.66948 24.5508 4.13558C24.8304 4.3966 25.0355 4.71355 25.166 5.06778C25.2965 5.45931 25.3525 5.86948 25.3525 6.27965V11.1644H23.7304V11.183ZM36.0914 7.82711C36.0914 8.49829 36.2592 9.02033 36.6135 9.41185C36.9864 9.80338 37.5457 10.0271 38.105 9.98982C38.4592 10.0085 38.8321 9.93388 39.1677 9.80338C39.4847 9.65422 39.783 9.44914 40.0253 9.20677L41.0321 10.1203C40.6592 10.4932 40.2118 10.8102 39.727 11.0339C39.205 11.239 38.627 11.3322 38.0677 11.3135C37.583 11.3135 37.0982 11.239 36.6508 11.1085C36.222 10.978 35.8491 10.7356 35.5321 10.4373C35.1965 10.083 34.9355 9.67287 34.7677 9.20677C34.5813 8.61016 34.4881 7.9949 34.5067 7.37965C34.5067 6.14914 34.805 5.17965 35.4203 4.48982C36.0355 3.79999 36.9304 3.40846 37.8626 3.44575C38.9067 3.44575 39.7457 3.78134 40.3237 4.45253C40.9016 5.12372 41.2186 6.01863 41.2186 7.11863V7.78982H36.0914V7.82711ZM39.5779 6.18643C39.5406 6.01863 39.4847 5.85084 39.4101 5.70168C39.2796 5.42202 39.0745 5.16101 38.8135 4.99321C38.5338 4.80677 38.1982 4.73219 37.8626 4.73219C37.527 4.73219 37.1915 4.82541 36.9118 4.99321C36.6508 5.16101 36.427 5.40338 36.3152 5.70168C36.2406 5.85084 36.2033 5.99999 36.166 6.14914C36.1287 6.33558 36.1101 6.54067 36.1101 6.72711H39.6525C39.6338 6.55931 39.6152 6.37287 39.5779 6.18643ZM46.8491 5.3288C46.6999 5.17965 46.5135 5.04914 46.3084 4.93728C46.1033 4.84406 45.8796 4.80677 45.6559 4.80677C45.227 4.80677 44.8169 4.97456 44.5372 5.27287C44.2203 5.60846 44.0525 6.05592 44.0711 6.52202V11.1644H42.4677V3.52033H44.0338V4.35931C44.2762 4.06101 44.5745 3.83728 44.9287 3.68812C45.3203 3.52033 45.7304 3.42711 46.1592 3.42711C46.5135 3.42711 46.8677 3.48304 47.2033 3.5949C47.5389 3.72541 47.8186 3.91185 48.0609 4.15423L46.8491 5.3288ZM62.6592 9.15083C62.5287 9.61694 62.2677 10.0644 61.9321 10.4186C61.6338 10.6983 61.2982 10.922 60.9254 11.0712C60.0491 11.4068 59.0982 11.4068 58.222 11.0712C57.3643 10.7356 56.7118 10.0085 56.4881 9.15083C56.3389 8.57287 56.283 7.97626 56.283 7.37965C56.2643 6.78304 56.3389 6.18643 56.4881 5.60846C56.7304 4.75084 57.383 4.04236 58.222 3.68812C58.6508 3.52033 59.1169 3.44575 59.5643 3.44575C60.0304 3.44575 60.4965 3.52033 60.9254 3.68812C61.3169 3.83728 61.6525 4.07965 61.9321 4.35931C62.2864 4.71355 62.5287 5.14236 62.6592 5.60846C62.8084 6.18643 62.8643 6.78304 62.8643 7.37965C62.883 7.97626 62.8084 8.57287 62.6592 9.15083ZM61.1677 6.11185C61.1118 5.7949 60.9626 5.51524 60.7203 5.27287C60.0677 4.67626 59.0609 4.67626 58.3898 5.27287C58.166 5.4966 58.0169 5.7949 57.9609 6.11185C57.8864 6.54067 57.8491 6.95083 57.8491 7.37965C57.8491 7.80846 57.8864 8.23728 57.9609 8.64744C58.0169 8.96439 58.166 9.24405 58.3898 9.46778C59.0423 10.0644 60.0677 10.0644 60.7203 9.46778C60.944 9.24405 61.1118 8.94575 61.1677 8.6288C61.2423 8.19999 61.2796 7.78982 61.2796 7.361C61.2796 6.95083 61.2609 6.54067 61.1677 6.11185ZM68.1406 11.183L66.4813 8.59151L64.8033 11.183H62.8643L65.605 7.28643L62.9762 3.55762H64.9152L66.4813 6.03728L68.0287 3.55762H69.9677L67.3576 7.28643L70.0796 11.183H68.1406ZM7.99484 0.667786H9.61687V11.183H7.99484V0.667786ZM70.0237 1.65592H71.944V3.52033H70.0237V1.65592Z" fill="white"/>
</svg>
