<svg width="72" height="12" viewBox="0 0 72 12" fill="none" xmlns="http://www.w3.org/2000/svg">
<g clip-path="url(#clip0_2440_20422)">
<path d="M6.42886 5.77632C6.29835 5.31022 6.03733 4.8814 5.70174 4.52717C5.06784 3.91191 4.21022 3.59496 3.33394 3.63225C2.47632 3.66954 1.76784 4.15429 1.63733 4.39666V0.798355H0.0339435V7.54751C0.0152994 8.12547 0.0898757 8.72208 0.239028 9.2814C0.369537 9.74751 0.630554 10.195 0.966147 10.5492C1.24581 10.8289 1.60005 11.0526 1.97293 11.2017C2.40174 11.3695 2.86784 11.4441 3.3153 11.4441C3.7814 11.4441 4.2475 11.3695 4.67632 11.2017C5.0492 11.0526 5.40344 10.8289 5.6831 10.5492C6.03733 10.195 6.27971 9.76615 6.41022 9.30005C6.55937 8.72208 6.6153 8.14412 6.6153 7.54751C6.65259 6.93225 6.57801 6.33564 6.42886 5.77632ZM4.93733 8.79666C4.8814 9.11361 4.73225 9.39327 4.48988 9.617C4.17293 9.9153 3.76276 10.0831 3.3153 10.0645C2.88649 10.0831 2.45767 9.9153 2.15937 9.617C1.93564 9.39327 1.78649 9.09496 1.71191 8.79666C1.63733 8.38649 1.60005 7.97632 1.60005 7.54751V7.43564C1.60005 7.04412 1.63733 6.65259 1.71191 6.27971C1.76784 5.96276 1.91699 5.6831 2.15937 5.45937C2.45767 5.16107 2.88649 5.01191 3.3153 5.01191C3.74411 4.99327 4.17293 5.16107 4.48988 5.45937C4.7136 5.6831 4.86276 5.9814 4.93733 6.27971C5.01191 6.68988 5.0492 7.11869 5.0492 7.54751C5.0492 7.95767 5.01191 8.36784 4.93733 8.79666ZM26.6577 7.417C26.639 8.01361 26.7136 8.59157 26.8628 9.16954C26.9933 9.63564 27.2543 10.0645 27.5899 10.4187C27.8882 10.6984 28.2238 10.9221 28.5967 11.0712C29.4729 11.4068 30.4424 11.4068 31.3 11.0712C31.6729 10.9221 32.0085 10.6984 32.3068 10.4187C32.6611 10.0645 32.9034 9.63564 33.0339 9.16954C33.1831 8.59157 33.239 8.01361 33.239 7.43564V0.667847H31.6543V4.26615C31.5238 4.02378 30.8153 3.53903 29.9577 3.50174C29.0628 3.46446 28.2051 3.80005 27.5899 4.39666C27.2356 4.7509 26.9933 5.17971 26.8628 5.64581C26.7136 6.22378 26.6577 6.82039 26.6577 7.417ZM28.2611 7.417C28.2611 6.98818 28.2984 6.57801 28.3729 6.1492C28.4289 5.83225 28.578 5.55259 28.8204 5.32886C29.4729 4.7509 30.4984 4.7509 31.1509 5.32886C31.3746 5.55259 31.5238 5.8509 31.5984 6.1492C31.6729 6.54073 31.7102 6.91361 31.7102 7.30513V7.417C31.7102 7.82717 31.6729 8.25598 31.5984 8.66615C31.5424 8.9831 31.3933 9.26276 31.1509 9.50513C30.8526 9.80344 30.4238 9.97123 29.995 9.95259C29.5475 9.97123 29.1373 9.80344 28.8204 9.50513C28.5967 9.2814 28.4475 8.9831 28.3729 8.68479C28.2797 8.25598 28.2424 7.82717 28.2611 7.417ZM54.9594 5.75768C54.8289 5.29157 54.5678 4.86276 54.2323 4.50852C53.934 4.22886 53.5984 4.00513 53.2068 3.85598C52.778 3.66954 52.3119 3.59496 51.8458 3.61361C50.9882 3.6509 50.2797 4.13564 50.1492 4.37802V0.798355H48.5645V7.54751C48.5458 8.12547 48.6204 8.72208 48.7695 9.2814C49.0119 10.139 49.6458 10.8661 50.5034 11.2017C51.3797 11.5373 52.3492 11.5373 53.2068 11.2017C53.5797 11.0526 53.9339 10.8289 54.2136 10.5492C54.5678 10.195 54.8102 9.76615 54.9407 9.30005C55.0899 8.72208 55.1458 8.14412 55.1458 7.54751C55.1645 6.93225 55.1085 6.35429 54.9594 5.75768ZM53.4678 8.77801C53.4119 9.09496 53.2628 9.37462 53.0204 9.59835C52.7034 9.89666 52.2933 10.0645 51.8458 10.0458C51.417 10.0645 50.9882 9.89666 50.6899 9.59835C50.4662 9.37462 50.317 9.07632 50.2424 8.77801C50.1678 8.36784 50.1306 7.95768 50.1306 7.52886V7.417C50.1306 7.02547 50.1678 6.63395 50.2424 6.26107C50.2984 5.94412 50.4475 5.66446 50.6899 5.44073C50.9882 5.14242 51.417 4.99327 51.8458 4.99327C52.2746 4.97463 52.7034 5.14242 53.0204 5.44073C53.2441 5.66446 53.3933 5.96276 53.4678 6.26107C53.5424 6.67124 53.5797 7.10005 53.5797 7.52886C53.5797 7.95768 53.5424 8.36784 53.4678 8.77801ZM12.4509 7.82717C12.4509 8.49835 12.6373 9.02039 12.9729 9.41191C13.3458 9.80344 13.9051 10.0272 14.4458 9.98988C14.8 10.0085 15.1729 9.93395 15.5085 9.80344C15.8255 9.65429 16.1238 9.4492 16.3661 9.20683L17.3729 10.1204C17 10.4933 16.5526 10.8102 16.0678 11.0339C15.5458 11.239 14.9865 11.3323 14.4085 11.3136C13.9238 11.3136 13.439 11.239 12.9729 11.0899C12.5441 10.9594 12.1712 10.717 11.8543 10.4187C11.5187 10.0645 11.2577 9.65428 11.1085 9.18818C10.9034 8.61022 10.8102 7.97632 10.8289 7.36106C10.8289 6.13056 11.1272 5.16107 11.7424 4.47124C12.3577 3.78141 13.2526 3.40852 14.1848 3.42717C15.2289 3.42717 16.0678 3.76276 16.6458 4.43395C17.2238 5.10513 17.5407 6.00005 17.5407 7.10005V7.77123H12.4509V7.82717ZM15.9373 6.18649C15.9 6.01869 15.8441 5.8509 15.7695 5.70174C15.639 5.42208 15.4339 5.16107 15.1729 4.99327C14.8933 4.80683 14.5577 4.71361 14.2221 4.73225C13.8865 4.73225 13.5509 4.82547 13.2526 4.99327C12.9916 5.16107 12.7678 5.40344 12.656 5.70174C12.5814 5.8509 12.5441 6.00005 12.5068 6.1492C12.4695 6.33564 12.4509 6.54073 12.4509 6.72717H15.9933C15.9933 6.55937 15.9746 6.37293 15.9373 6.18649ZM23.7306 11.1831V6.52208C23.7306 5.94412 23.5814 5.5153 23.3017 5.23564C23.0034 4.93734 22.5746 4.78818 22.1645 4.80683C21.7356 4.78818 21.3068 4.95598 21.0085 5.23564C20.7102 5.5153 20.5611 5.94412 20.5611 6.50344V11.1645H18.9763V3.52039H20.5238V4.30344C21.0645 3.72547 21.8102 3.42717 22.6119 3.44581C23.3204 3.40852 24.0102 3.66954 24.5509 4.13564C24.8306 4.39666 25.0356 4.71361 25.1662 5.06785C25.2967 5.45937 25.3526 5.86954 25.3526 6.27971V11.1645H23.7306V11.1831ZM36.0916 7.82717C36.0916 8.49835 36.2594 9.02039 36.6136 9.41191C36.9865 9.80344 37.5458 10.0272 38.1051 9.98988C38.4594 10.0085 38.8323 9.93395 39.1678 9.80344C39.4848 9.65429 39.7831 9.4492 40.0255 9.20683L41.0322 10.1204C40.6594 10.4933 40.2119 10.8102 39.7272 11.0339C39.2051 11.239 38.6272 11.3323 38.0678 11.3136C37.5831 11.3136 37.0984 11.239 36.6509 11.1085C36.2221 10.978 35.8492 10.7356 35.5322 10.4373C35.1967 10.0831 34.9356 9.67293 34.7678 9.20683C34.5814 8.61022 34.4882 7.99496 34.5068 7.37971C34.5068 6.1492 34.8051 5.17971 35.4204 4.48988C36.0356 3.80005 36.9306 3.40852 37.8628 3.44581C38.9068 3.44581 39.7458 3.78141 40.3238 4.45259C40.9017 5.12378 41.2187 6.01869 41.2187 7.11869V7.78988H36.0916V7.82717ZM39.578 6.18649C39.5407 6.01869 39.4848 5.8509 39.4102 5.70174C39.2797 5.42208 39.0746 5.16107 38.8136 4.99327C38.5339 4.80683 38.1984 4.73225 37.8628 4.73225C37.5272 4.73225 37.1916 4.82547 36.9119 4.99327C36.6509 5.16107 36.4272 5.40344 36.3153 5.70174C36.2407 5.8509 36.2034 6.00005 36.1661 6.1492C36.1289 6.33564 36.1102 6.54073 36.1102 6.72717H39.6526C39.6339 6.55937 39.6153 6.37293 39.578 6.18649ZM46.8492 5.32886C46.7001 5.17971 46.5136 5.0492 46.3085 4.93734C46.1034 4.84412 45.8797 4.80683 45.656 4.80683C45.2272 4.80683 44.817 4.97463 44.5373 5.27293C44.2204 5.60852 44.0526 6.05598 44.0712 6.52208V11.1645H42.4678V3.52039H44.0339V4.35937C44.2763 4.06107 44.5746 3.83734 44.9289 3.68818C45.3204 3.52039 45.7306 3.42717 46.1594 3.42717C46.5136 3.42717 46.8678 3.4831 47.2034 3.59496C47.539 3.72547 47.8187 3.91191 48.0611 4.15429L46.8492 5.32886ZM62.6594 9.1509C62.5289 9.617 62.2678 10.0645 61.9323 10.4187C61.6339 10.6984 61.2984 10.9221 60.9255 11.0712C60.0492 11.4068 59.0984 11.4068 58.2221 11.0712C57.3645 10.7356 56.7119 10.0085 56.4882 9.1509C56.339 8.57293 56.2831 7.97632 56.2831 7.37971C56.2645 6.7831 56.339 6.18649 56.4882 5.60852C56.7306 4.7509 57.3831 4.04242 58.2221 3.68818C58.6509 3.52039 59.117 3.44581 59.5645 3.44581C60.0306 3.44581 60.4967 3.52039 60.9255 3.68818C61.317 3.83734 61.6526 4.07971 61.9323 4.35937C62.2865 4.71361 62.5289 5.14242 62.6594 5.60852C62.8085 6.18649 62.8645 6.7831 62.8645 7.37971C62.8831 7.97632 62.8085 8.57293 62.6594 9.1509ZM61.1678 6.11191C61.1119 5.79496 60.9628 5.5153 60.7204 5.27293C60.0678 4.67632 59.0611 4.67632 58.3899 5.27293C58.1662 5.49666 58.017 5.79496 57.9611 6.11191C57.8865 6.54073 57.8492 6.9509 57.8492 7.37971C57.8492 7.80852 57.8865 8.23734 57.9611 8.64751C58.017 8.96445 58.1662 9.24411 58.3899 9.46784C59.0424 10.0645 60.0678 10.0645 60.7204 9.46784C60.9441 9.24411 61.1119 8.94581 61.1678 8.62886C61.2424 8.20005 61.2797 7.78988 61.2797 7.36106C61.2797 6.9509 61.2611 6.54073 61.1678 6.11191ZM68.1407 11.1831L66.4814 8.59157L64.8034 11.1831H62.8645L65.6051 7.28649L62.9763 3.55768H64.9153L66.4814 6.03734L68.0289 3.55768H69.9678L67.3577 7.28649L70.0797 11.1831H68.1407ZM7.99496 0.667847H9.617V11.1831H7.99496V0.667847ZM70.0238 1.65598H71.9441V3.52039H70.0238V1.65598Z" fill="white"/>
</g>
<defs>
<clipPath id="clip0_2440_20422">
<rect width="71.9661" height="11" fill="white" transform="translate(0.0339355 0.5)"/>
</clipPath>
</defs>
</svg>
