<svg width="264" height="16" viewBox="0 0 264 16" fill="none" xmlns="http://www.w3.org/2000/svg">
<g clip-path="url(#clip0_2440_20362)">
<path d="M13.0933 10.2534L12.9333 9.94672L8.81998 3.00006L7.25998 5.59339L9.61332 9.53339L9.70665 9.74006C10.1266 10.3334 9.85998 10.7334 9.23332 10.6667H6.91998H6.76665H4.45331C3.89998 10.7334 3.69998 10.2601 3.97331 9.74006L4.06665 9.53339L8.73332 1.69339C8.84214 1.69777 8.94954 1.66741 9.03998 1.60672C9.11331 1.48006 8.57331 1.12672 7.87331 0.700057C7.17331 0.27339 6.50665 -0.0866097 6.42665 0.0333903C6.41895 0.137765 6.44214 0.242097 6.49331 0.33339L0.719981 10.0334L0.613315 10.2467C0.453097 10.5043 0.362702 10.7991 0.351026 11.1021C0.339351 11.4052 0.406797 11.7061 0.546727 11.9752C0.686656 12.2443 0.894245 12.4723 1.14906 12.6368C1.40388 12.8013 1.69714 12.8966 1.99998 12.9134H11.6866C11.9046 12.9143 12.1207 12.8722 12.3224 12.7896C12.5241 12.707 12.7076 12.5854 12.8624 12.4319C13.0172 12.2784 13.1402 12.0959 13.2244 11.8948C13.3086 11.6937 13.3524 11.4781 13.3533 11.2601C13.3435 10.9092 13.2546 10.5651 13.0933 10.2534Z" fill="#FC1921"/>
<path d="M5.38666 8.89321C5.37045 9.08159 5.39449 9.27127 5.45718 9.44965C5.51988 9.62803 5.6198 9.79104 5.75031 9.92786C5.88082 10.0647 6.03894 10.1722 6.21416 10.2432C6.38939 10.3142 6.57772 10.3472 6.76666 10.3399C6.95105 10.3556 7.13669 10.3328 7.31178 10.2729C7.48686 10.2129 7.64755 10.1172 7.78363 9.9918C7.9197 9.86638 8.02818 9.71402 8.10216 9.54439C8.17614 9.37476 8.214 9.1916 8.21333 9.00654C8.21188 8.74969 8.14537 8.49739 8.02 8.27321L7.87333 8.00654L6.8 6.20654L5.62666 8.07987C5.4718 8.32303 5.38861 8.60493 5.38666 8.89321Z" fill="#FC1921"/>
<path d="M19.0933 1.15991H21.6533L26.7 9.29325V1.15991H28.6333V12.0199H26.2133L21.06 3.63325H21.0267V12.0199H19.0933V1.15991Z" fill="white"/>
<path d="M37.9067 8.43333V8.68C37.9133 8.75986 37.9133 8.84014 37.9067 8.92H32.3C32.3114 9.17543 32.3773 9.42547 32.4933 9.65333C32.6088 9.87196 32.7676 10.0648 32.96 10.22C33.1597 10.381 33.3851 10.5072 33.6267 10.5933C33.8715 10.6865 34.1314 10.734 34.3933 10.7333C34.797 10.7446 35.1974 10.6577 35.56 10.48C35.8681 10.3211 36.1351 10.0929 36.34 9.81333L37.5733 10.7867C37.2086 11.2735 36.7294 11.6627 36.1781 11.9197C35.6269 12.1767 35.0206 12.2936 34.4133 12.26C33.8749 12.2671 33.3396 12.1767 32.8333 11.9933C32.372 11.824 31.9485 11.5658 31.5867 11.2333C31.2252 10.8973 30.9428 10.4851 30.76 10.0267C30.5606 9.50378 30.4699 8.94577 30.4933 8.38667C30.4781 7.84112 30.5686 7.29778 30.76 6.78667C30.9406 6.319 31.2204 5.89598 31.58 5.54667C31.9338 5.20062 32.3531 4.92864 32.8133 4.74667C33.3043 4.55673 33.8269 4.46172 34.3533 4.46667C34.8385 4.46001 35.3204 4.54599 35.7733 4.72C36.1973 4.88043 36.5816 5.13059 36.9 5.45333C37.23 5.81339 37.482 6.23784 37.64 6.7C37.8287 7.25795 37.9189 7.84447 37.9067 8.43333ZM36.0667 7.6C36.0654 7.37461 36.034 7.1504 35.9733 6.93334C35.9082 6.72381 35.7991 6.5306 35.6533 6.36667C35.5051 6.19836 35.3204 6.06611 35.1133 5.98C34.869 5.8765 34.6053 5.8265 34.34 5.83333C33.8266 5.82085 33.3264 5.99628 32.9333 6.32667C32.7472 6.48655 32.5952 6.68229 32.4864 6.90221C32.3776 7.12213 32.3142 7.36171 32.3 7.60667L36.0667 7.6Z" fill="white"/>
<path d="M38.5667 4.65991H40.5667L42.1 9.93325L43.68 4.65991H45.64L47.2333 9.93325L48.8 4.65991H50.7133L48.1667 11.9932H46.36L44.6867 6.83991H44.6533L43 11.9932H41.16L38.5667 4.65991Z" fill="white"/>
<path d="M57.9667 7.31325L53.8867 1.15991H56.2467L58.98 5.73324L61.74 1.15991H63.9733L59.9 7.31325V12.0199H57.9667V7.31325Z" fill="white"/>
<path d="M62.86 8.30659C62.8468 7.76245 62.949 7.22169 63.16 6.71992C63.3588 6.26127 63.6465 5.84661 64.0066 5.49992C64.3772 5.16074 64.8095 4.89593 65.28 4.71992C65.782 4.53707 66.3124 4.44453 66.8467 4.44659C67.3788 4.44391 67.9071 4.53648 68.4067 4.71992C68.8787 4.89283 69.3115 5.15798 69.68 5.49992C70.0443 5.84445 70.3346 6.25955 70.5333 6.71992C70.7447 7.22196 70.8513 7.76188 70.8467 8.30659C70.8532 8.85578 70.7465 9.40042 70.5333 9.90659C70.3349 10.371 70.0446 10.7905 69.68 11.1399C69.3126 11.4882 68.8798 11.7601 68.4067 11.9399C67.911 12.1394 67.3809 12.2391 66.8467 12.2333C66.3103 12.2384 65.7781 12.1387 65.28 11.9399C64.8088 11.7562 64.3767 11.4847 64.0066 11.1399C63.6462 10.7884 63.3585 10.3693 63.16 9.90659C62.9491 9.40012 62.8469 8.85504 62.86 8.30659ZM64.7267 8.30659C64.7286 8.59825 64.7735 8.88803 64.86 9.16659C64.9412 9.44353 65.0722 9.70334 65.2466 9.93326C65.4271 10.1629 65.6544 10.3515 65.9133 10.4866C66.2086 10.6354 66.5361 10.7087 66.8667 10.6999C67.1949 10.7076 67.5201 10.6343 67.8133 10.4866C68.0723 10.3515 68.2995 10.1629 68.48 9.93326C68.6565 9.70368 68.7898 9.44389 68.8733 9.16659C68.9598 8.88803 69.0047 8.59825 69.0066 8.30659C69.0053 8.01925 68.9603 7.73377 68.8733 7.45992C68.7883 7.18529 68.6551 6.92795 68.48 6.69992C68.3011 6.47048 68.0734 6.28374 67.8133 6.15325C67.5186 6.01032 67.1941 5.93949 66.8667 5.94659C66.5371 5.94019 66.2106 6.01096 65.9133 6.15325C65.6533 6.28374 65.4255 6.47048 65.2466 6.69992C65.0736 6.92822 64.9426 7.18559 64.86 7.45992C64.773 7.73377 64.728 8.01925 64.7267 8.30659Z" fill="white"/>
<path d="M72.56 4.66H74.3266V5.88667C74.5154 5.47148 74.8096 5.11293 75.18 4.84667C75.5571 4.57819 76.0105 4.43797 76.4733 4.44667H76.7C76.7724 4.45166 76.844 4.46508 76.9133 4.48667V6.17334C76.8103 6.14486 76.7057 6.12259 76.6 6.10667H76.3466C75.9942 6.09374 75.6446 6.17424 75.3333 6.34C75.097 6.47536 74.8942 6.66221 74.74 6.88667C74.6032 7.08964 74.5039 7.31541 74.4466 7.55334C74.4003 7.72988 74.3735 7.91095 74.3666 8.09334V12.0333H72.56V4.66Z" fill="white"/>
<path d="M78.1 0.426758H79.94V7.76009H79.9867L82.7734 4.66009H85.16L81.9734 7.99343L85.36 12.0268H82.9267L80.0134 8.25343H79.9667V12.0268H78.1267L78.1 0.426758Z" fill="white"/>
<path d="M90.8067 1.15991H95.04C95.4488 1.16215 95.8559 1.21136 96.2534 1.30658C96.6356 1.3991 96.9973 1.56187 97.32 1.78658C97.6313 2.01084 97.8905 2.29964 98.08 2.63325C98.282 3.02172 98.3807 3.45561 98.3667 3.89325C98.3872 4.44678 98.202 4.9883 97.8467 5.41325C97.4843 5.81869 97.0154 6.11433 96.4934 6.26658V6.29991C97.1295 6.36941 97.7237 6.65124 98.18 7.09991C98.405 7.33255 98.5801 7.6086 98.6947 7.91122C98.8093 8.21383 98.861 8.53664 98.8467 8.85991C98.8668 9.38055 98.7447 9.89683 98.4934 10.3532C98.2712 10.7504 97.9525 11.0852 97.5667 11.3266C97.1592 11.5855 96.707 11.7663 96.2334 11.8599C95.7383 11.9669 95.2332 12.0205 94.7267 12.0199H90.8133L90.8067 1.15991ZM92.74 5.57991H94.4934C95.0135 5.61492 95.5308 5.47915 95.9667 5.19325C96.1322 5.06653 96.2643 4.90129 96.3514 4.71191C96.4386 4.52253 96.4781 4.31473 96.4667 4.10658C96.485 3.90205 96.4461 3.69645 96.3543 3.51278C96.2624 3.32911 96.1213 3.17462 95.9467 3.06658C95.4396 2.82697 94.8795 2.72138 94.32 2.75991H92.7734L92.74 5.57991ZM92.74 10.3932H94.4934C94.7609 10.3941 95.0282 10.3763 95.2933 10.3399C95.5659 10.3102 95.8316 10.2359 96.08 10.1199C96.3177 10.0075 96.5238 9.838 96.68 9.62658C96.8382 9.37619 96.9129 9.0821 96.8934 8.78658C96.9172 8.55341 96.8756 8.3182 96.7731 8.10739C96.6707 7.89657 96.5115 7.71852 96.3133 7.59325C95.7651 7.33221 95.1594 7.2152 94.5533 7.25325H92.74V10.3932Z" fill="white"/>
<path d="M100.287 0.426758H102.127V12.0201H100.287V0.426758Z" fill="white"/>
<path d="M103.553 8.30659C103.544 7.76149 103.651 7.22069 103.867 6.71992C104.065 6.26127 104.353 5.84661 104.713 5.49992C105.084 5.16074 105.516 4.89593 105.987 4.71992C106.489 4.53707 107.019 4.44453 107.553 4.44659C108.086 4.44391 108.614 4.53648 109.113 4.71992C109.585 4.89283 110.018 5.15798 110.387 5.49992C110.751 5.84445 111.041 6.25955 111.24 6.71992C111.451 7.22196 111.558 7.76188 111.553 8.30659C111.56 8.85578 111.453 9.40042 111.24 9.90659C111.042 10.371 110.751 10.7905 110.387 11.1399C110.019 11.4882 109.587 11.7601 109.113 11.9399C108.618 12.1394 108.088 12.2391 107.553 12.2333C107.017 12.2384 106.485 12.1387 105.987 11.9399C105.516 11.7562 105.083 11.4847 104.713 11.1399C104.353 10.7884 104.065 10.3693 103.867 9.90659C103.651 9.40111 103.545 8.85599 103.553 8.30659ZM105.42 8.30659C105.422 8.59825 105.467 8.88803 105.553 9.16659C105.635 9.44353 105.766 9.70334 105.94 9.93326C106.121 10.1629 106.348 10.3515 106.607 10.4866C106.902 10.6354 107.23 10.7087 107.56 10.6999C107.888 10.7076 108.213 10.6343 108.507 10.4866C108.766 10.3515 108.993 10.1629 109.173 9.93326C109.35 9.70368 109.483 9.44389 109.567 9.16659C109.653 8.88803 109.698 8.59825 109.7 8.30659C109.699 8.01925 109.654 7.73377 109.567 7.45992C109.482 7.18529 109.348 6.92795 109.173 6.69992C108.994 6.47048 108.767 6.28374 108.507 6.15325C108.212 6.01032 107.888 5.93949 107.56 5.94659C107.231 5.94019 106.904 6.01096 106.607 6.15325C106.347 6.28374 106.119 6.47048 105.94 6.69992C105.767 6.92822 105.636 7.18559 105.553 7.45992C105.466 7.73377 105.421 8.01925 105.42 8.30659Z" fill="white"/>
<path d="M112.493 8.30658C112.489 7.76187 112.595 7.22195 112.807 6.71991C113.005 6.25826 113.296 5.84237 113.662 5.49825C114.027 5.15414 114.46 4.88917 114.933 4.71991C115.944 4.35541 117.05 4.35541 118.06 4.71991C118.531 4.8944 118.964 5.15937 119.333 5.49991C119.696 5.8447 119.984 6.25985 120.18 6.71991C120.398 7.22018 120.507 7.761 120.5 8.30658C120.507 8.85645 120.398 9.4016 120.18 9.90658C119.984 10.3706 119.696 10.7901 119.333 11.1399C118.965 11.4867 118.532 11.7584 118.06 11.9399C117.054 12.331 115.939 12.331 114.933 11.9399C114.463 11.7662 114.032 11.4996 113.667 11.156C113.301 10.8124 113.009 10.3988 112.807 9.93991C112.589 9.42343 112.482 8.86696 112.493 8.30658ZM114.367 8.30658C114.366 8.59792 114.409 8.88773 114.493 9.16658C114.577 9.44388 114.71 9.70367 114.887 9.93325C115.067 10.1629 115.294 10.3515 115.553 10.4866C115.85 10.6272 116.175 10.7001 116.503 10.7001C116.832 10.7001 117.156 10.6272 117.453 10.4866C117.712 10.3515 117.94 10.1629 118.12 9.93325C118.294 9.7021 118.427 9.44277 118.513 9.16658C118.598 8.88773 118.64 8.59792 118.64 8.30658C118.641 8.01957 118.598 7.73409 118.513 7.45991C118.426 7.1864 118.293 6.92952 118.12 6.69991C117.941 6.47047 117.713 6.28373 117.453 6.15325C117.155 6.01705 116.831 5.94657 116.503 5.94657C116.176 5.94657 115.852 6.01705 115.553 6.15325C115.293 6.28373 115.066 6.47047 114.887 6.69991C114.712 6.92593 114.579 7.18095 114.493 7.45325C114.417 7.73095 114.383 8.0187 114.393 8.30658H114.367Z" fill="white"/>
<path d="M129.4 12.0201H127.653V10.9134C127.401 11.3392 127.031 11.6821 126.587 11.9001C126.13 12.1215 125.628 12.2355 125.12 12.2334C124.599 12.2406 124.082 12.1337 123.607 11.9201C123.175 11.7183 122.789 11.4301 122.473 11.0734C122.158 10.7087 121.914 10.2881 121.753 9.83343C121.582 9.34272 121.497 8.82637 121.5 8.30676C121.496 7.79083 121.584 7.2783 121.76 6.79342C121.92 6.33979 122.17 5.92274 122.493 5.56676C122.807 5.21416 123.194 4.9343 123.627 4.74676C124.079 4.5441 124.571 4.44177 125.067 4.44676C125.373 4.44032 125.678 4.4785 125.973 4.56009C126.218 4.62639 126.453 4.72268 126.673 4.84676C126.858 4.94871 127.03 5.07175 127.187 5.21342C127.313 5.32955 127.429 5.45672 127.533 5.59342H127.58V0.426758H129.42L129.4 12.0201ZM123.347 8.30676C123.346 8.5981 123.389 8.88791 123.473 9.16676C123.557 9.44406 123.69 9.70385 123.867 9.93343C124.047 10.163 124.274 10.3517 124.533 10.4868C124.823 10.6324 125.143 10.7056 125.467 10.7001C125.781 10.7068 126.093 10.6358 126.373 10.4934C126.63 10.3574 126.856 10.1715 127.04 9.94676C127.231 9.72556 127.378 9.46986 127.473 9.19343C127.567 8.91858 127.617 8.63052 127.62 8.34009C127.617 8.04748 127.567 7.75723 127.473 7.48009C127.378 7.19955 127.231 6.93944 127.04 6.71342C126.855 6.48841 126.629 6.30064 126.373 6.16009C126.093 6.01538 125.782 5.9421 125.467 5.94676C125.144 5.94176 124.824 6.01254 124.533 6.15342C124.273 6.28391 124.046 6.47065 123.867 6.70009C123.692 6.92812 123.558 7.18546 123.473 7.46009C123.388 7.73427 123.346 8.01975 123.347 8.30676Z" fill="white"/>
<path d="M142.807 3.70676C142.522 3.32281 142.134 3.02887 141.687 2.86009C141.263 2.68761 140.811 2.59494 140.353 2.58676C139.827 2.58196 139.304 2.68638 138.82 2.89342C138.371 3.09193 137.967 3.38004 137.633 3.74009C137.299 4.10442 137.039 4.53005 136.867 4.99342C136.685 5.49554 136.595 6.02614 136.6 6.56009C136.594 7.11315 136.682 7.66325 136.86 8.18675C137.019 8.65444 137.271 9.08525 137.6 9.45342C137.925 9.80538 138.32 10.0848 138.76 10.2734C139.242 10.4718 139.759 10.5694 140.28 10.5601C140.815 10.5706 141.345 10.4541 141.827 10.2201C142.256 10.0057 142.628 9.69269 142.913 9.30675L144.467 10.3934C143.994 10.9917 143.389 11.4731 142.7 11.8001C141.933 12.1431 141.1 12.3116 140.26 12.2934C139.463 12.3027 138.671 12.1601 137.927 11.8734C137.24 11.6116 136.616 11.2097 136.093 10.6934C135.574 10.1797 135.165 9.56481 134.893 8.88676C134.601 8.14647 134.456 7.35605 134.467 6.56009C134.456 5.75296 134.61 4.95214 134.92 4.20676C135.204 3.53103 135.626 2.92237 136.16 2.42009C136.701 1.92277 137.336 1.53758 138.027 1.28675C138.772 1.01495 139.56 0.879461 140.353 0.886754C140.718 0.888187 141.081 0.921649 141.44 0.986754C141.814 1.05036 142.181 1.15315 142.533 1.29342C142.877 1.4297 143.206 1.60176 143.513 1.80675C143.814 2.00726 144.077 2.25752 144.293 2.54675L142.807 3.70676Z" fill="white"/>
<path d="M152.313 8.43341V8.68007C152.32 8.75994 152.32 8.84021 152.313 8.92007H146.72C146.736 9.1765 146.806 9.42659 146.927 9.65341C147.044 9.87064 147.203 10.0631 147.393 10.2201C147.593 10.381 147.818 10.5072 148.06 10.5934C148.305 10.6866 148.565 10.7341 148.827 10.7334C149.23 10.7447 149.631 10.6577 149.993 10.4801C150.301 10.3212 150.568 10.093 150.773 9.81341L151.973 10.7867C151.609 11.2735 151.129 11.6627 150.578 11.9198C150.027 12.1768 149.421 12.2937 148.813 12.2601C148.275 12.2671 147.74 12.1768 147.233 11.9934C146.772 11.8241 146.349 11.5659 145.987 11.2334C145.623 10.8885 145.341 10.4673 145.16 10.0001C144.953 9.48785 144.851 8.93919 144.86 8.38674C144.855 7.83901 144.957 7.29559 145.16 6.78674C145.346 6.32166 145.625 5.89962 145.98 5.54674C146.335 5.20206 146.754 4.93028 147.213 4.74674C147.704 4.5568 148.227 4.46179 148.753 4.46674C149.239 4.45942 149.721 4.54543 150.173 4.72007C150.597 4.88051 150.982 5.13066 151.3 5.45341C151.632 5.8118 151.885 6.23675 152.04 6.70007C152.231 7.25759 152.324 7.84414 152.313 8.43341ZM150.493 7.60007C150.493 7.37413 150.459 7.14947 150.393 6.93341C150.328 6.72388 150.219 6.53068 150.073 6.36674C149.925 6.19843 149.74 6.06618 149.533 5.98007C149.289 5.87658 149.025 5.82657 148.76 5.83341C148.247 5.82092 147.746 5.99636 147.353 6.32674C147.167 6.48662 147.015 6.68236 146.906 6.90228C146.798 7.1222 146.734 7.36178 146.72 7.60674L150.493 7.60007Z" fill="white"/>
<path d="M154.013 4.65996H155.76V5.83996C155.947 5.44337 156.24 5.10641 156.607 4.86663C157.03 4.58186 157.53 4.43514 158.04 4.44663C158.467 4.43339 158.892 4.52014 159.28 4.69996C159.607 4.85518 159.895 5.08323 160.12 5.36663C160.342 5.6478 160.507 5.96928 160.607 6.31329C160.708 6.67348 160.76 7.04581 160.76 7.41996V12.02H158.913V7.93996C158.912 7.71717 158.899 7.4946 158.873 7.27329C158.846 7.04109 158.779 6.81545 158.673 6.60663C158.568 6.42112 158.422 6.26164 158.247 6.13996C158.035 6.0101 157.788 5.94736 157.54 5.95996C157.283 5.9459 157.027 5.99579 156.794 6.10516C156.562 6.21454 156.36 6.37998 156.207 6.58663C156.065 6.78927 155.959 7.01477 155.893 7.25329C155.822 7.49119 155.786 7.73828 155.787 7.98663V12.0333H153.947L154.013 4.65996Z" fill="white"/>
<path d="M161.827 6.11994V4.65995H163.113V2.52661H164.927V4.65995H166.767V6.11994H164.927V9.53995C164.918 9.82106 164.978 10.1001 165.1 10.3533C165.22 10.5666 165.48 10.6733 165.893 10.6733C166.028 10.6719 166.161 10.6585 166.293 10.6333C166.424 10.6084 166.551 10.5705 166.673 10.5199L166.733 11.9599C166.545 12.0261 166.351 12.0752 166.153 12.1066C165.933 12.1411 165.71 12.1589 165.487 12.1599C165.079 12.1756 164.672 12.1052 164.293 11.9533C164.006 11.8312 163.755 11.6358 163.567 11.3866C163.384 11.1412 163.257 10.8592 163.193 10.5599C163.125 10.2288 163.091 9.89141 163.093 9.55328V6.11994H161.827Z" fill="white"/>
<path d="M175.02 8.43333V8.68C175.02 8.76 175.02 8.84 175.02 8.92H169.42C169.435 9.17099 169.502 9.41608 169.617 9.63983C169.732 9.86358 169.892 10.0611 170.087 10.22C170.286 10.381 170.512 10.5072 170.753 10.5933C170.998 10.6865 171.258 10.734 171.52 10.7333C171.924 10.7446 172.324 10.6577 172.687 10.48C172.997 10.3245 173.265 10.0957 173.467 9.81333L174.68 10.7867C174.316 11.2729 173.838 11.6619 173.288 11.9189C172.738 12.1759 172.133 12.2931 171.527 12.26C170.988 12.2671 170.453 12.1767 169.947 11.9933C169.483 11.8242 169.058 11.566 168.693 11.2333C168.333 10.8961 168.051 10.4843 167.867 10.0267C167.66 9.51444 167.557 8.96578 167.567 8.41333C167.559 7.85888 167.661 7.30842 167.867 6.79333C168.052 6.32825 168.331 5.90622 168.687 5.55333C169.042 5.20866 169.461 4.93687 169.92 4.75333C170.411 4.56402 170.934 4.46902 171.46 4.47333C171.945 4.46601 172.427 4.55202 172.88 4.72667C173.304 4.88342 173.689 5.13149 174.007 5.45333C174.341 5.81122 174.596 6.23619 174.753 6.7C174.939 7.25872 175.029 7.84469 175.02 8.43333ZM173.16 7.6C173.16 7.37406 173.126 7.14939 173.06 6.93333C172.995 6.72535 172.888 6.53265 172.747 6.36666C172.595 6.19973 172.408 6.0678 172.2 5.98C171.956 5.8765 171.692 5.82649 171.427 5.83333C170.915 5.81936 170.416 5.99508 170.027 6.32667C169.834 6.48275 169.675 6.67697 169.56 6.89721C169.445 7.11744 169.377 7.35895 169.36 7.60666L173.16 7.6Z" fill="white"/>
<path d="M176.72 4.66H178.493V5.88667C178.686 5.472 178.982 5.11386 179.353 4.84667C179.728 4.57827 180.179 4.43798 180.64 4.44667H180.873C180.946 4.45166 181.017 4.46508 181.087 4.48667V6.17334C180.984 6.14485 180.879 6.12259 180.773 6.10667H180.52C180.167 6.09112 179.817 6.17178 179.507 6.34C179.27 6.47705 179.065 6.66349 178.907 6.88667C178.771 7.08955 178.674 7.31549 178.62 7.55334C178.574 7.72988 178.547 7.91095 178.54 8.09333V12.0333H176.7L176.72 4.66Z" fill="white"/>
<path d="M186.073 1.15991H193.267V2.85325H188.007V5.61325H192.993V7.23324H188.007V10.2999H193.54V12.0199H186.073V1.15991Z" fill="white"/>
<path d="M195.26 4.6601H197.007V5.8401H197.04C197.227 5.44352 197.52 5.10655 197.887 4.86677C198.31 4.58201 198.81 4.43528 199.32 4.44677C199.745 4.43156 200.168 4.51842 200.553 4.7001C200.884 4.85343 201.173 5.0817 201.4 5.36677C201.622 5.64697 201.785 5.96891 201.88 6.31344C201.985 6.67294 202.036 7.04573 202.033 7.4201V12.0201H200.193V7.9401C200.192 7.71731 200.179 7.49474 200.153 7.27344C200.126 7.04123 200.058 6.81559 199.953 6.60677C199.848 6.42126 199.702 6.26179 199.527 6.1401C199.313 6.00932 199.064 5.94656 198.813 5.9601C198.563 5.95095 198.314 6.00328 198.089 6.11253C197.863 6.22177 197.668 6.3846 197.52 6.58677C197.375 6.78768 197.269 7.01373 197.207 7.25344C197.135 7.49133 197.099 7.73842 197.1 7.98677V12.0334H195.26V4.6601Z" fill="white"/>
<path d="M203.047 6.11994V4.65995H204.333V2.52661H206.147V4.65995H207.987V6.11994H206.147V9.53995C206.138 9.82106 206.198 10.1001 206.32 10.3533C206.44 10.5666 206.7 10.6733 207.113 10.6733C207.245 10.6722 207.377 10.6588 207.507 10.6333C207.639 10.6094 207.769 10.5714 207.893 10.5199L207.953 11.9599C207.765 12.0261 207.571 12.0752 207.373 12.1066C207.153 12.1411 206.93 12.1589 206.707 12.1599C206.299 12.1756 205.892 12.1052 205.513 11.9533C205.226 11.8312 204.975 11.6358 204.787 11.3866C204.604 11.1412 204.477 10.8592 204.413 10.5599C204.345 10.2288 204.311 9.89141 204.313 9.55328V6.11994H203.047Z" fill="white"/>
<path d="M216.267 8.43333V8.68C216.267 8.76 216.267 8.84 216.267 8.92H210.667C210.682 9.17099 210.749 9.41608 210.864 9.63983C210.979 9.86358 211.138 10.0611 211.333 10.22C211.533 10.381 211.758 10.5072 212 10.5933C212.245 10.6865 212.505 10.734 212.767 10.7333C213.17 10.7446 213.571 10.6577 213.933 10.48C214.244 10.3245 214.511 10.0957 214.713 9.81333L215.927 10.7867C215.563 11.2729 215.085 11.6619 214.535 11.9189C213.985 12.1759 213.38 12.2931 212.773 12.26C212.235 12.2671 211.7 12.1767 211.193 11.9933C210.73 11.8242 210.304 11.566 209.94 11.2333C209.58 10.8961 209.298 10.4843 209.113 10.0267C208.906 9.51444 208.804 8.96578 208.813 8.41333C208.806 7.85888 208.908 7.30842 209.113 6.79333C209.299 6.32825 209.578 5.90622 209.933 5.55333C210.288 5.20866 210.707 4.93687 211.167 4.75333C211.658 4.56402 212.18 4.46902 212.707 4.47333C213.192 4.46601 213.674 4.55202 214.127 4.72667C214.551 4.88342 214.936 5.13149 215.253 5.45333C215.588 5.81122 215.842 6.23619 216 6.7C216.185 7.25872 216.276 7.84469 216.267 8.43333ZM214.427 7.6C214.426 7.37406 214.393 7.14939 214.327 6.93333C214.261 6.72535 214.155 6.53265 214.013 6.36666C213.861 6.19973 213.675 6.0678 213.467 5.98C213.222 5.8765 212.959 5.82649 212.693 5.83333C212.182 5.81936 211.683 5.99508 211.293 6.32667C211.1 6.48275 210.941 6.67697 210.827 6.89721C210.712 7.11744 210.644 7.35895 210.627 7.60666L214.427 7.6Z" fill="white"/>
<path d="M217.967 4.66H219.733V5.88667C219.926 5.472 220.222 5.11386 220.593 4.84667C220.968 4.57827 221.419 4.43798 221.88 4.44667H222.113C222.186 4.45166 222.257 4.46508 222.327 4.48667V6.17334C222.224 6.14485 222.119 6.12259 222.013 6.10667H221.76C221.407 6.09112 221.057 6.17178 220.747 6.34C220.51 6.47705 220.305 6.66349 220.147 6.88667C220.011 7.08955 219.914 7.31549 219.86 7.55334C219.814 7.72988 219.787 7.91095 219.78 8.09333V12.0333H217.94L217.967 4.66Z" fill="white"/>
<path d="M225.233 4.66009V5.68676H225.28C225.387 5.52993 225.507 5.38271 225.64 5.24676C225.803 5.09107 225.987 4.95871 226.187 4.85342C226.689 4.57726 227.254 4.43708 227.827 4.44676C228.323 4.44177 228.814 4.5441 229.267 4.74676C229.7 4.9343 230.086 5.21416 230.4 5.56676C230.732 5.91842 230.991 6.3333 231.16 6.78676C231.336 7.27163 231.424 7.78417 231.42 8.30009C231.423 8.81971 231.338 9.33605 231.167 9.82676C231.011 10.2838 230.767 10.7054 230.447 11.0668C230.131 11.4235 229.745 11.7116 229.313 11.9134C228.838 12.127 228.321 12.234 227.8 12.2268C227.304 12.2324 226.813 12.1229 226.367 11.9068C225.958 11.7127 225.61 11.4107 225.36 11.0334V15.7001H223.52V4.66009H225.233ZM229.527 8.30676C229.528 8.01975 229.485 7.73427 229.4 7.46009C229.315 7.18546 229.182 6.92812 229.007 6.70009C228.828 6.47065 228.6 6.28391 228.34 6.15342C228.05 6.01183 227.73 5.94101 227.407 5.94676C227.091 5.9421 226.78 6.01538 226.5 6.16009C226.245 6.30064 226.019 6.48841 225.833 6.71342C225.644 6.93979 225.499 7.19992 225.407 7.48009C225.31 7.75642 225.26 8.0472 225.26 8.34009C225.26 8.63081 225.31 8.9194 225.407 9.19342C225.499 9.46955 225.644 9.7253 225.833 9.94676C226.017 10.1715 226.244 10.3574 226.5 10.4934C226.781 10.6358 227.092 10.7068 227.407 10.7001C227.73 10.7056 228.051 10.6324 228.34 10.4868C228.599 10.3517 228.826 10.163 229.007 9.93342C229.183 9.70385 229.316 9.44406 229.4 9.16676C229.484 8.88791 229.527 8.5981 229.527 8.30676Z" fill="white"/>
<path d="M233.1 4.66H234.867V5.88667C235.059 5.472 235.356 5.11386 235.727 4.84667C236.101 4.57827 236.553 4.43798 237.013 4.44667H237.247C237.319 4.45166 237.391 4.46508 237.46 4.48667V6.17334C237.361 6.14986 237.261 6.13205 237.16 6.12H236.907C236.554 6.10446 236.204 6.18511 235.893 6.35333C235.656 6.49038 235.452 6.67683 235.293 6.9C235.158 7.10288 235.061 7.32882 235.007 7.56667C234.96 7.74321 234.934 7.92429 234.927 8.10667V12.0467H233.087L233.1 4.66Z" fill="white"/>
<path d="M238.373 2.16006C238.374 2.01529 238.403 1.87206 238.46 1.73911C238.518 1.60616 238.602 1.48626 238.707 1.38673C238.816 1.27736 238.946 1.19137 239.089 1.13406C239.232 1.07674 239.386 1.04929 239.54 1.0534C239.855 1.04513 240.161 1.1599 240.393 1.3734C240.502 1.47333 240.59 1.59487 240.649 1.73031C240.709 1.86574 240.74 2.01209 240.74 2.16006C240.74 2.30804 240.709 2.45439 240.649 2.58982C240.59 2.72525 240.502 2.8468 240.393 2.94673C240.161 3.16023 239.855 3.275 239.54 3.26673C239.386 3.27084 239.232 3.24339 239.089 3.18607C238.946 3.12875 238.816 3.04277 238.707 2.9334C238.601 2.83435 238.517 2.71455 238.459 2.58149C238.402 2.44843 238.373 2.30496 238.373 2.16006ZM238.64 4.66006H240.493V11.9934H238.653L238.64 4.66006Z" fill="white"/>
<path d="M246.673 6.62011C246.489 6.39212 246.263 6.20194 246.007 6.06011C245.717 5.90649 245.394 5.82637 245.067 5.82678C244.785 5.82381 244.507 5.88539 244.253 6.00678C244.14 6.06367 244.046 6.15156 243.981 6.26017C243.916 6.36878 243.883 6.49362 243.887 6.62011C243.88 6.75147 243.917 6.88134 243.99 6.99057C244.063 7.0998 244.17 7.18261 244.293 7.22678C244.678 7.38151 245.075 7.50198 245.48 7.58678C245.765 7.65141 246.045 7.73379 246.32 7.83344C246.593 7.9327 246.851 8.06957 247.087 8.24011C247.314 8.40927 247.504 8.62239 247.647 8.86678C247.795 9.14789 247.868 9.46241 247.86 9.78011C247.872 10.1753 247.785 10.5673 247.607 10.9201C247.449 11.2235 247.22 11.4842 246.94 11.6801C246.643 11.8834 246.311 12.0282 245.96 12.1068C245.579 12.1931 245.19 12.2356 244.8 12.2334C244.228 12.2325 243.661 12.1263 243.127 11.9201C242.617 11.7302 242.16 11.4217 241.793 11.0201L243 9.88678C243.216 10.164 243.488 10.3914 243.8 10.5534C244.135 10.7284 244.509 10.8177 244.887 10.8134C245.024 10.8144 245.16 10.7987 245.293 10.7668C245.43 10.742 245.561 10.6923 245.68 10.6201C245.795 10.5566 245.891 10.4648 245.96 10.3534C246.036 10.2293 246.073 10.0854 246.067 9.94011C246.077 9.79878 246.041 9.65796 245.966 9.53809C245.89 9.41821 245.778 9.32552 245.647 9.27344C245.241 9.0991 244.819 8.96512 244.387 8.87344C244.113 8.81381 243.843 8.73585 243.58 8.64011C243.341 8.54335 243.116 8.41317 242.913 8.25344C242.708 8.09651 242.539 7.8962 242.42 7.66678C242.293 7.39375 242.231 7.09462 242.24 6.79344C242.23 6.42404 242.318 6.05855 242.493 5.73344C242.653 5.44066 242.882 5.19125 243.16 5.00678C243.443 4.81045 243.759 4.66598 244.093 4.58011C244.444 4.49196 244.805 4.44718 245.167 4.44678C245.698 4.44834 246.226 4.54078 246.727 4.72011C247.198 4.88445 247.614 5.1778 247.927 5.56677L246.673 6.62011Z" fill="white"/>
<path d="M256.393 8.43333V8.68C256.393 8.76 256.393 8.84 256.393 8.92H250.793C250.809 9.17099 250.876 9.41608 250.991 9.63983C251.105 9.86358 251.265 10.0611 251.46 10.22C251.66 10.381 251.885 10.5072 252.127 10.5933C252.372 10.6865 252.631 10.734 252.893 10.7333C253.297 10.7446 253.697 10.6577 254.06 10.48C254.37 10.3245 254.638 10.0957 254.84 9.81333L256.053 10.7867C255.69 11.2734 255.212 11.6626 254.662 11.9197C254.112 12.1768 253.506 12.2937 252.9 12.26C252.362 12.2671 251.826 12.1767 251.32 11.9933C250.857 11.8242 250.431 11.566 250.067 11.2333C249.707 10.8961 249.424 10.4843 249.24 10.0267C249.033 9.51444 248.931 8.96578 248.94 8.41333C248.933 7.85888 249.035 7.30842 249.24 6.79333C249.426 6.32825 249.705 5.90622 250.06 5.55333C250.415 5.20866 250.834 4.93687 251.293 4.75333C251.785 4.56463 252.307 4.46966 252.833 4.47333C253.319 4.46601 253.801 4.55202 254.253 4.72667C254.678 4.88342 255.062 5.13149 255.38 5.45333C255.715 5.81122 255.969 6.23619 256.127 6.7C256.315 7.25795 256.406 7.84446 256.393 8.43333ZM254.553 7.6C254.553 7.37406 254.519 7.14939 254.453 6.93333C254.388 6.72535 254.281 6.53265 254.14 6.36666C253.988 6.19973 253.801 6.0678 253.593 5.98C253.349 5.8765 253.085 5.82649 252.82 5.83333C252.308 5.81936 251.81 5.99508 251.42 6.32667C251.227 6.48275 251.068 6.67697 250.953 6.89721C250.839 7.11744 250.771 7.35895 250.753 7.60666L254.553 7.6Z" fill="white"/>
<path d="M262.127 6.61996C261.946 6.38905 261.719 6.19833 261.46 6.05996C261.173 5.90585 260.852 5.82566 260.527 5.82663C260.245 5.82294 259.967 5.88456 259.713 6.00663C259.599 6.06258 259.503 6.15006 259.437 6.25874C259.371 6.36742 259.337 6.49276 259.34 6.61996C259.334 6.75214 259.371 6.88263 259.446 6.99196C259.52 7.1013 259.628 7.18361 259.753 7.22663C260.137 7.38235 260.534 7.50284 260.94 7.58663C261.223 7.65128 261.501 7.73366 261.773 7.83329C262.047 7.93106 262.306 8.06804 262.54 8.23996C262.77 8.40542 262.961 8.61933 263.1 8.86663C263.248 9.14775 263.322 9.46226 263.313 9.77996C263.329 10.1755 263.242 10.5683 263.06 10.92C262.902 11.2233 262.674 11.4841 262.393 11.68C262.098 11.8856 261.765 12.0306 261.413 12.1066C261.033 12.193 260.644 12.2355 260.253 12.2333C259.683 12.2326 259.118 12.1263 258.587 11.92C258.078 11.7293 257.621 11.4209 257.253 11.02L258.467 9.88663C258.68 10.1635 258.951 10.391 259.26 10.5533C259.597 10.729 259.973 10.8184 260.353 10.8133C260.49 10.8139 260.627 10.7982 260.76 10.7666C260.895 10.7418 261.024 10.6921 261.14 10.62C261.262 10.5572 261.363 10.4613 261.433 10.3434C261.502 10.2254 261.537 10.0902 261.533 9.9533C261.543 9.81196 261.508 9.67115 261.432 9.55127C261.357 9.4314 261.245 9.3387 261.113 9.28663C260.705 9.11348 260.281 8.97955 259.847 8.88663C259.573 8.82699 259.303 8.74904 259.04 8.65329C258.801 8.55654 258.576 8.42636 258.373 8.26663C258.17 8.10945 258.004 7.90908 257.887 7.67996C257.754 7.4086 257.69 7.10865 257.7 6.80663C257.689 6.45515 257.767 6.10659 257.928 5.79394C258.089 5.48129 258.327 5.2149 258.62 5.01996C258.906 4.82353 259.224 4.6791 259.56 4.59329C259.911 4.50468 260.271 4.45989 260.633 4.45996C261.163 4.46136 261.688 4.55382 262.187 4.73329C262.661 4.89653 263.079 5.18997 263.393 5.57996L262.127 6.61996Z" fill="white"/>
</g>
<defs>
<clipPath id="clip0_2440_20362">
<rect width="262.987" height="15.7" fill="white" transform="translate(0.333328)"/>
</clipPath>
</defs>
</svg>
