<svg width="228" height="48" viewBox="0 0 228 48" fill="none" xmlns="http://www.w3.org/2000/svg">
<g clip-path="url(#clip0_2440_19185)">
<path d="M55.8871 1.3905H60.7982L70.3553 16.7884V1.3905H74.004V21.9673H69.358L59.6115 6.07682V21.9673H55.9502L55.8871 1.3905Z" fill="white"/>
<path d="M91.5149 15.1715V15.6263C91.5279 15.7818 91.5279 15.9381 91.5149 16.0937H80.8973C80.927 16.5755 81.0605 17.0452 81.2887 17.4705C81.5068 17.8887 81.8074 18.2582 82.1724 18.5568C82.5537 18.8571 82.9797 19.0958 83.4349 19.2642C83.8982 19.4419 84.3906 19.5318 84.8868 19.5294C85.6473 19.5523 86.4018 19.3875 87.0835 19.0494C87.6703 18.7481 88.18 18.3159 88.5733 17.7863L90.8963 19.6431C90.2057 20.5655 89.2981 21.3029 88.2541 21.7899C87.2102 22.2769 86.0621 22.4984 84.912 22.4347C83.8924 22.4481 82.8787 22.2769 81.9199 21.9294C81.0449 21.6117 80.2422 21.1221 79.559 20.4894C78.873 19.8513 78.3345 19.071 77.9809 18.2031C77.599 17.23 77.4103 16.1917 77.4254 15.1463C77.4138 14.0971 77.6023 13.0553 77.9809 12.0768C78.3324 11.1956 78.861 10.396 79.5338 9.72734C80.204 9.06583 81.0034 8.54981 81.882 8.21155C82.8037 7.83163 83.789 7.63017 84.7858 7.61786C85.7004 7.6053 86.609 7.76824 87.4623 8.09786C88.2782 8.41268 89.009 8.91453 89.5959 9.56313C90.2263 10.2387 90.708 11.0391 91.0099 11.9126C91.362 12.9624 91.5327 14.0644 91.5149 15.1715ZM88.0304 13.5926C88.0309 13.1644 87.9671 12.7386 87.841 12.3294C87.7222 11.9332 87.5199 11.5671 87.2477 11.2558C86.964 10.937 86.6153 10.6828 86.225 10.5105C85.7679 10.325 85.279 10.2306 84.7858 10.2326C83.8174 10.2085 82.8739 10.5412 82.1345 11.1673C81.7682 11.4626 81.467 11.8304 81.2497 12.2478C81.0324 12.6652 80.9038 13.1231 80.872 13.5926H88.0304Z" fill="white"/>
<path d="M92.7648 8.02197H96.5523L99.456 18.0135L102.461 8.02197H106.248L109.266 18.0135L112.232 8.02197H115.856L111.033 21.9167H107.511L104.342 12.1525L101.198 21.9672H97.6128L92.7648 8.02197Z" fill="white"/>
<path d="M129.503 13.0494L121.777 1.3905H126.246L131.422 10.0558L136.637 1.3905H140.879L133.152 13.0494V21.9673H129.503V13.0494Z" fill="white"/>
<path d="M138.758 14.9314C138.743 13.8976 138.95 12.8727 139.364 11.9251C139.734 11.0381 140.28 10.2347 140.967 9.56302C141.669 8.92035 142.487 8.41862 143.378 8.08512C145.292 7.39448 147.386 7.39448 149.3 8.08512C150.195 8.40582 151.015 8.90786 151.708 9.55988C152.401 10.2119 152.952 10.9999 153.327 11.8746C154.118 13.8051 154.118 15.9693 153.327 17.8999C152.949 18.8001 152.395 19.616 151.698 20.2999C151.003 20.9597 150.183 21.4749 149.287 21.8157C147.383 22.5566 145.27 22.5566 143.366 21.8157C142.473 21.4675 141.655 20.9531 140.954 20.2999C140.245 19.5989 139.684 18.7624 139.305 17.8402C138.925 16.9179 138.735 15.9288 138.745 14.9314H138.758ZM142.305 14.9314C142.303 15.4846 142.388 16.0346 142.558 16.5609C142.712 17.0856 142.96 17.5779 143.29 18.0135C143.632 18.4486 144.062 18.806 144.553 19.062C145.115 19.3284 145.729 19.4666 146.352 19.4666C146.974 19.4666 147.588 19.3284 148.151 19.062C148.641 18.806 149.071 18.4486 149.413 18.0135C149.747 17.5786 150 17.0863 150.158 16.5609C150.318 16.0326 150.399 15.4835 150.398 14.9314C150.4 14.3876 150.319 13.8467 150.158 13.3272C150.003 12.8046 149.75 12.3161 149.413 11.8872C149.074 11.4525 148.643 11.0987 148.151 10.8514C147.586 10.5934 146.972 10.4598 146.352 10.4598C145.731 10.4598 145.117 10.5934 144.553 10.8514C144.06 11.0987 143.629 11.4525 143.29 11.8872C142.957 12.3167 142.709 12.8053 142.558 13.3272C142.388 13.8448 142.302 14.3866 142.305 14.9314Z" fill="white"/>
<path d="M157.14 8.022H160.536V10.3462C160.902 9.55772 161.462 8.8753 162.164 8.36305C162.878 7.8638 163.73 7.60295 164.601 7.61779H165.043C165.18 7.61674 165.316 7.63807 165.447 7.68095V10.8767L164.853 10.7631H164.374C163.707 10.7304 163.044 10.8788 162.455 11.1925C162.03 11.4378 161.662 11.7689 161.373 12.1648C161.084 12.5606 160.88 13.0125 160.776 13.4915C160.688 13.826 160.637 14.1691 160.624 14.5146V21.9799H157.14V8.022Z" fill="white"/>
<path d="M167.631 0.000976562H171.115V13.8957H171.191L176.481 8.03466H180.95L174.916 14.3505L181.329 21.9926H176.708L171.191 14.8431H171.115V21.9926H167.631V0.000976562Z" fill="white"/>
<path d="M55.8871 26.6536H63.904C64.678 26.6578 65.449 26.751 66.2017 26.9315C66.9255 27.1068 67.6105 27.4152 68.2217 27.8409C68.8062 28.2641 69.2892 28.812 69.6357 29.4451C70.0287 30.1777 70.2204 31.0016 70.1912 31.8325C70.2331 32.8779 69.8817 33.901 69.2065 34.6999C68.5348 35.4699 67.6596 36.0347 66.6815 36.3294V36.3925C67.8833 36.5255 69.0069 37.0542 69.8756 37.8957C70.3019 38.3388 70.6337 38.8641 70.8507 39.4395C71.0678 40.015 71.1655 40.6286 71.1381 41.243C71.1762 42.2295 70.9449 43.2077 70.469 44.0725C70.0448 44.8225 69.442 45.456 68.7141 45.9167C67.9423 46.4073 67.0861 46.75 66.1891 46.9272C65.2514 47.1293 64.295 47.2309 63.3358 47.2304H55.8871V26.6536ZM59.5357 35.0283H62.793C63.7741 35.0965 64.7504 34.839 65.5705 34.2957C65.8812 34.0659 66.1318 33.7645 66.301 33.417C66.4703 33.0695 66.5532 32.6863 66.5426 32.2999C66.5788 31.9122 66.5058 31.5221 66.3317 31.1738C66.1577 30.8255 65.8896 30.533 65.5578 30.3294C64.5975 29.8753 63.5369 29.6753 62.4773 29.7483H59.5357V35.0283ZM59.5357 44.1483H62.8182C63.3247 44.1436 63.8306 44.1099 64.3332 44.0472C64.8544 43.9979 65.3651 43.8702 65.8482 43.6683C66.2982 43.4553 66.6886 43.1342 66.9845 42.7336C67.2994 42.2505 67.4541 41.6802 67.4263 41.1041C67.4716 40.6623 67.3927 40.2166 67.1987 39.8172C67.0047 39.4178 66.7031 39.0804 66.328 38.843C65.2852 38.3485 64.1341 38.1268 62.9823 38.1988H59.5357V44.1483Z" fill="white"/>
<path d="M73.8398 25.2642H77.3243V47.2305H73.8398V25.2642Z" fill="white"/>
<path d="M80.0261 40.1946C80.008 39.1616 80.2103 38.1367 80.6195 37.1882C81.0013 36.2979 81.5596 35.4943 82.2608 34.8261C82.9625 34.1835 83.7811 33.6817 84.6721 33.3482C85.6212 32.9959 86.6268 32.8204 87.639 32.8303C88.6473 32.8191 89.6489 32.9947 90.5933 33.3482C91.4889 33.6689 92.3088 34.171 93.0017 34.823C93.6947 35.475 94.2458 36.263 94.6206 37.1377C95.4113 39.0682 95.4113 41.2325 94.6206 43.163C94.2404 44.0442 93.6914 44.8424 93.0046 45.5125C92.309 46.1723 91.4893 46.6875 90.5933 47.0282C89.6529 47.4003 88.6502 47.589 87.639 47.584C86.6239 47.5878 85.6172 47.3992 84.6721 47.0282C83.7837 46.6952 82.9658 46.1982 82.2608 45.563C81.5504 44.8636 80.9894 44.0271 80.6118 43.1043C80.2342 42.1815 80.0478 41.1916 80.064 40.1946H80.0261ZM83.5611 40.1946C83.5648 40.7472 83.6499 41.2963 83.8136 41.824C83.9674 42.3488 84.2156 42.841 84.5459 43.2767C84.8877 43.7117 85.318 44.0691 85.8084 44.3251C86.3675 44.6071 86.9878 44.7459 87.6138 44.7293C88.2354 44.7439 88.8512 44.605 89.4065 44.3251C89.8969 44.0691 90.3272 43.7117 90.669 43.2767C91.0033 42.8417 91.2557 42.3495 91.4139 41.824C91.5777 41.2963 91.6627 40.7472 91.6664 40.1946C91.6638 39.6501 91.5787 39.1092 91.4139 38.5903C91.2584 38.0677 91.0057 37.5792 90.669 37.1503C90.3302 36.7156 89.899 36.3618 89.4065 36.1146C88.85 35.839 88.2344 35.7045 87.6138 35.723C86.9868 35.6925 86.3621 35.8183 85.7958 36.0893C85.3033 36.3365 84.872 36.6904 84.5333 37.1251C84.1993 37.5707 83.9549 38.0769 83.8136 38.6156C83.6385 39.1244 83.5406 39.6567 83.5233 40.1946H83.5611Z" fill="white"/>
<path d="M97.0067 40.1946C96.9946 39.1623 97.1966 38.1386 97.6001 37.1883C97.9749 36.3136 98.526 35.5256 99.219 34.8736C99.9119 34.2216 100.732 33.7195 101.627 33.3988C103.541 32.7082 105.635 32.7082 107.549 33.3988C108.437 33.7143 109.256 34.1991 109.96 34.8262C110.642 35.4831 111.187 36.2688 111.563 37.1378C112.167 38.5335 112.336 40.0786 112.05 41.5722C111.765 43.0657 111.036 44.4387 109.96 45.5125C109.255 46.1918 108.423 46.7242 107.511 47.0788C105.606 47.8198 103.494 47.8198 101.59 47.0788C100.693 46.7381 99.8739 46.2229 99.1782 45.5631C98.4914 44.893 97.9424 44.0948 97.5622 43.2136C97.1731 42.2557 96.9841 41.2283 97.0067 40.1946ZM100.554 40.1946C100.554 40.7467 100.634 41.2958 100.794 41.8241C100.952 42.3495 101.205 42.8418 101.539 43.2767C101.881 43.7118 102.311 44.0692 102.802 44.3252C103.357 44.6051 103.973 44.7439 104.594 44.7294C105.22 44.746 105.841 44.6071 106.4 44.3252C106.89 44.0692 107.32 43.7118 107.662 43.2767C107.993 42.8411 108.241 42.3488 108.394 41.8241C108.558 41.2963 108.643 40.7473 108.647 40.1946C108.644 39.6502 108.559 39.1093 108.394 38.5904C108.243 38.0685 107.995 37.5799 107.662 37.1504C107.323 36.7157 106.892 36.3619 106.4 36.1146C105.839 35.837 105.219 35.7025 104.594 35.7231C103.974 35.7046 103.358 35.8391 102.802 36.1146C102.309 36.3619 101.878 36.7157 101.539 37.1504C101.2 37.5868 100.947 38.0842 100.794 38.6157C100.636 39.1271 100.555 39.6593 100.554 40.1946Z" fill="white"/>
<path d="M128.973 47.2305H125.666V45.1336C125.2 45.9415 124.5 46.5889 123.658 46.9905C122.795 47.4187 121.844 47.6393 120.881 47.6347C119.929 47.663 118.983 47.4807 118.11 47.1007C117.237 46.7208 116.459 46.1526 115.831 45.4368C115.227 44.7501 114.764 43.9519 114.467 43.0873C114.145 42.1573 113.982 41.1791 113.987 40.1947C113.977 39.2273 114.135 38.2655 114.455 37.3526C114.768 36.4949 115.244 35.7057 115.856 35.0284C116.456 34.3678 117.187 33.8388 118.002 33.4747C118.862 33.1006 119.791 32.9113 120.729 32.9189C121.309 32.9067 121.887 32.979 122.446 33.1336C122.886 33.2621 123.309 33.4401 123.709 33.6642C124.062 33.8627 124.392 34.0999 124.693 34.3715C124.936 34.5886 125.156 34.8298 125.35 35.0915H125.438V25.2642H128.973V47.2305ZM117.51 40.1947C117.509 40.7467 117.59 41.2958 117.75 41.8242C117.908 42.3496 118.16 42.8418 118.495 43.2768C118.836 43.7119 119.267 44.0692 119.757 44.3252C120.305 44.6011 120.911 44.7398 121.525 44.7294C122.12 44.7422 122.71 44.6077 123.242 44.3378C123.727 44.0801 124.156 43.728 124.504 43.3021C124.869 42.8801 125.148 42.3909 125.325 41.8621C125.499 41.3451 125.589 40.8034 125.59 40.2578C125.588 39.7041 125.499 39.1541 125.325 38.6284C125.145 38.0968 124.867 37.604 124.504 37.1757C124.153 36.7494 123.725 36.3936 123.242 36.1273C122.711 35.8531 122.121 35.7143 121.525 35.7231C120.912 35.7088 120.306 35.8431 119.757 36.1147C119.265 36.3619 118.833 36.7157 118.495 37.1505C118.158 37.5793 117.905 38.0679 117.75 38.5905C117.589 39.11 117.508 39.6509 117.51 40.1947Z" fill="white"/>
<path d="M155.195 31.4789C154.658 30.7478 153.922 30.1866 153.074 29.8621C152.205 29.5154 151.276 29.3437 150.34 29.3567C149.404 29.3697 148.48 29.5672 147.62 29.9378C146.773 30.3123 146.012 30.8585 145.386 31.5421C144.743 32.2249 144.249 33.0335 143.934 33.9168C143.584 34.8671 143.409 35.8727 143.416 36.8852C143.404 37.9331 143.571 38.9754 143.909 39.9673C144.217 40.8529 144.697 41.6686 145.323 42.3673C145.939 43.0319 146.687 43.561 147.519 43.921C148.427 44.2969 149.403 44.4818 150.385 44.4642C151.403 44.4841 152.411 44.2634 153.327 43.8199C154.137 43.4093 154.841 42.8171 155.385 42.0894L158.314 44.1484C157.422 45.2779 156.281 46.1857 154.981 46.801C153.531 47.4602 151.952 47.7841 150.36 47.7484C148.846 47.7647 147.342 47.4947 145.929 46.9526C144.631 46.459 143.451 45.6995 142.464 44.7228C141.477 43.7461 140.705 42.5738 140.197 41.281C139.643 39.8827 139.368 38.3893 139.389 36.8852C139.365 35.3568 139.652 33.8395 140.235 32.4263C140.781 31.1473 141.584 29.9949 142.596 29.041C143.615 28.0972 144.812 27.367 146.118 26.8936C147.534 26.3793 149.03 26.1226 150.537 26.1357C151.227 26.139 151.915 26.2024 152.595 26.3252C153.299 26.4455 153.989 26.6403 154.652 26.9063C155.309 27.1617 155.935 27.4878 156.521 27.8789C157.094 28.2531 157.598 28.7231 158.011 29.2684L155.195 31.4789Z" fill="white"/>
<path d="M173.161 40.4347V40.8894C173.161 41.0537 173.161 41.2052 173.161 41.3568H162.556C162.585 41.8322 162.713 42.2963 162.93 42.7202C163.147 43.144 163.45 43.5184 163.818 43.82C164.201 44.1186 164.626 44.3571 165.081 44.5273C165.544 44.7039 166.037 44.7938 166.533 44.7926C167.297 44.8155 168.056 44.6507 168.742 44.3126C169.329 44.0113 169.838 43.5791 170.232 43.0494L172.542 44.9063C171.855 45.8293 170.95 46.5675 169.908 47.0546C168.866 47.5418 167.719 47.7628 166.571 47.6979C165.551 47.7113 164.537 47.5401 163.578 47.1926C162.701 46.8721 161.895 46.383 161.205 45.7526C160.523 45.1137 159.989 44.3334 159.639 43.4663C159.247 42.4958 159.054 41.4562 159.071 40.4094C159.058 39.3589 159.251 38.3159 159.639 37.34C159.991 36.4588 160.519 35.6591 161.192 34.9905C161.858 34.3293 162.653 33.8132 163.528 33.4747C164.458 33.1172 165.448 32.9372 166.444 32.9442C167.363 32.9303 168.276 33.0933 169.133 33.4242C169.946 33.7223 170.68 34.2018 171.28 34.8263C171.91 35.5019 172.392 36.3023 172.694 37.1758C173.033 38.2277 173.191 39.3298 173.161 40.4347ZM169.676 38.8558C169.677 38.4276 169.613 38.0018 169.487 37.5926C169.363 37.1985 169.161 36.8334 168.894 36.5189C168.605 36.1998 168.252 35.9458 167.858 35.7737C167.393 35.5869 166.895 35.4966 166.394 35.5084C165.425 35.4819 164.481 35.8149 163.743 36.4431C163.377 36.7389 163.076 37.1069 162.859 37.5242C162.641 37.9414 162.513 38.399 162.48 38.8684L169.676 38.8558Z" fill="white"/>
<path d="M175.837 33.2851H179.158V35.5209C179.516 34.769 180.075 34.1308 180.774 33.6767C181.573 33.1341 182.522 32.8558 183.488 32.8809C184.294 32.8521 185.095 33.0167 185.824 33.3609C186.447 33.6549 186.995 34.0869 187.427 34.6241C187.846 35.1559 188.155 35.7656 188.336 36.4178C188.528 37.1002 188.626 37.8057 188.626 38.5146V47.2304H185.142V39.4999C185.142 39.0773 185.112 38.6552 185.053 38.2367C185.002 37.7967 184.874 37.3692 184.675 36.9735C184.484 36.6197 184.211 36.3165 183.879 36.0893C183.472 35.8451 183.003 35.7265 182.528 35.7483C182.024 35.7297 181.524 35.8429 181.077 36.0767C180.685 36.2858 180.344 36.5791 180.079 36.9356C179.806 37.2953 179.6 37.702 179.473 38.1356C179.343 38.5876 179.276 39.055 179.271 39.5251V47.1925H175.787L175.837 33.2851Z" fill="white"/>
<path d="M190.596 36.0894V33.2851H193.032V29.243H196.454V33.2851H199.938V36.0894H196.454V42.5567C196.432 43.0913 196.55 43.6222 196.795 44.0978C197.009 44.5146 197.514 44.7167 198.284 44.7167C198.539 44.7153 198.792 44.6899 199.042 44.6409C199.293 44.5956 199.538 44.5236 199.774 44.4262L199.888 47.1546C199.526 47.2784 199.154 47.3714 198.777 47.4325C198.359 47.4985 197.937 47.5323 197.514 47.5336C196.738 47.5581 195.965 47.4249 195.242 47.142C194.699 46.9072 194.226 46.5376 193.866 46.0683C193.522 45.5991 193.285 45.0601 193.171 44.4894C193.041 43.8662 192.978 43.2311 192.982 42.5946V36.0894H190.596Z" fill="white"/>
<path d="M215.619 40.4346V40.8893C215.632 41.0448 215.632 41.2011 215.619 41.3567H205.026C205.056 41.8385 205.19 42.3082 205.418 42.7335C205.636 43.1517 205.936 43.5213 206.301 43.8198C206.683 44.1201 207.109 44.3588 207.564 44.5272C208.027 44.7049 208.52 44.7949 209.016 44.7925C209.776 44.8154 210.531 44.6505 211.213 44.3125C211.799 44.0111 212.309 43.579 212.702 43.0493L215.025 44.9061C214.335 45.8285 213.427 46.5659 212.383 47.0529C211.339 47.5399 210.191 47.7614 209.041 47.6977C208.021 47.7111 207.008 47.54 206.049 47.1925C205.174 46.8747 204.371 46.3851 203.688 45.7525C203.002 45.1143 202.463 44.334 202.11 43.4661C201.728 42.493 201.539 41.4547 201.554 40.4093C201.543 39.3601 201.731 38.3183 202.11 37.3398C202.461 36.4586 202.99 35.659 203.663 34.9904C204.331 34.326 205.131 33.8095 206.011 33.4746C206.941 33.1147 207.931 32.9347 208.927 32.944C209.842 32.9315 210.751 33.0944 211.604 33.424C212.4 33.7257 213.117 34.2053 213.7 34.8261C214.33 35.5017 214.812 36.3021 215.114 37.1756C215.466 38.2254 215.637 39.3274 215.619 40.4346ZM212.134 38.8556C212.135 38.4274 212.071 38.0016 211.945 37.5925C211.826 37.1962 211.624 36.8301 211.351 36.5188C211.068 36.2 210.719 35.9458 210.329 35.7735C209.859 35.5874 209.357 35.4972 208.852 35.5082C207.883 35.4842 206.94 35.8168 206.2 36.443C205.846 36.744 205.556 37.1144 205.35 37.5315C205.144 37.9486 205.025 38.4035 205.001 38.8682L212.134 38.8556Z" fill="white"/>
<path d="M218.851 33.2852H222.184V35.6094C222.543 34.8206 223.1 34.1376 223.8 33.6262C224.518 33.1268 225.374 32.8661 226.249 32.881H226.678C226.815 32.8799 226.952 32.9013 227.082 32.9441V36.1399L226.489 36.0262H226.009C225.346 35.9933 224.687 36.1418 224.103 36.4557C223.648 36.7132 223.26 37.0719 222.966 37.5041C222.703 37.8862 222.514 38.3148 222.411 38.7673C222.326 39.102 222.28 39.4453 222.272 39.7905V47.2557H218.787L218.851 33.2852Z" fill="white"/>
<path d="M22.9864 23.8872L26.7739 30.203L27.3041 31.1251C27.724 31.9017 27.9493 32.7686 27.9606 33.6514C27.9606 36.5693 25.827 38.3377 22.9106 38.3377C22.2535 38.3555 21.5999 38.2351 20.9922 37.9842C20.3845 37.7334 19.8362 37.3576 19.3828 36.8814C18.9294 36.4051 18.581 35.8389 18.3601 35.2194C18.1392 34.5999 18.0508 33.9409 18.1005 33.2851C18.0936 32.2765 18.3833 31.2881 18.9337 30.443L22.9864 23.8872Z" fill="#FC1921"/>
<path d="M44.9917 38.0725L44.3857 36.9989L30.0437 12.6957L24.6023 21.7652L32.8338 35.5589L33.162 36.2789C34.6139 38.3504 33.6797 39.7525 31.5082 39.5125H23.4029H22.86H14.7674C12.8232 39.7652 12.1414 38.0978 13.1009 36.2915L13.4292 35.5462L29.6523 8.07254C30.2204 8.07254 30.6244 7.90833 30.7128 7.75675C30.9905 7.31464 29.0968 6.10201 26.6475 4.58622C24.1983 3.07043 21.8753 1.83254 21.5975 2.28728C21.5092 2.42622 21.5975 2.8178 21.8248 3.32306L1.71317 37.3525L1.34704 38.0852C0.781395 38.987 0.460429 40.0208 0.415791 41.0846C0.371152 42.1484 0.604382 43.2054 1.09249 44.1515C1.58059 45.0977 2.30672 45.9002 3.19928 46.4799C4.09183 47.0597 5.12 47.3967 6.18242 47.4578H23.1378H40.0805C40.8426 47.4611 41.5978 47.314 42.303 47.0249C43.0081 46.7358 43.6494 46.3104 44.19 45.7731C44.7306 45.2357 45.16 44.5969 45.4535 43.8933C45.7471 43.1896 45.899 42.435 45.9007 41.6725C45.888 40.4173 45.5764 39.1832 44.9917 38.0725Z" fill="#FC1921"/>
</g>
<defs>
<clipPath id="clip0_2440_19185">
<rect width="226.783" height="47.7474" fill="white" transform="translate(0.375 0.000976562)"/>
</clipPath>
</defs>
</svg>
