<svg width="461" height="28" viewBox="0 0 461 28" fill="none" xmlns="http://www.w3.org/2000/svg">
<g clip-path="url(#clip0_2276_14230)">
<path d="M22.3301 17.9435L22.0501 17.4068L14.8517 5.25016L12.1217 9.78849L16.2401 16.6835L16.4034 17.0452C17.1384 18.0835 16.6717 18.7835 15.5751 18.6668H11.5267H11.2584H7.21008C6.24175 18.7835 5.89175 17.9552 6.37008 17.0452L6.53341 16.6835L14.7001 2.96349C14.8905 2.97115 15.0785 2.91803 15.2367 2.81183C15.3651 2.59016 14.4201 1.97183 13.1951 1.22516C11.9701 0.478494 10.8034 -0.151506 10.6634 0.058494C10.6499 0.24115 10.6905 0.42373 10.7801 0.583493L0.676746 17.5585L0.490079 17.9318C0.209699 18.3825 0.0515072 18.8984 0.0310746 19.4288C0.0106421 19.9592 0.128674 20.4858 0.37355 20.9567C0.618427 21.4276 0.981708 21.8266 1.42764 22.1145C1.87357 22.4024 2.38678 22.5692 2.91675 22.5985H19.8684C20.2499 22.6 20.628 22.5264 20.981 22.3818C21.334 22.2373 21.6551 22.0246 21.926 21.7559C22.1968 21.4872 22.4121 21.1678 22.5595 20.816C22.7069 20.4641 22.7836 20.0867 22.7851 19.7052C22.7678 19.0912 22.6123 18.489 22.3301 17.9435Z" fill="#FC1921"/>
<path d="M8.84356 15.5635C8.81518 15.8932 8.85725 16.2251 8.96697 16.5373C9.07668 16.8494 9.25154 17.1347 9.47993 17.3741C9.70833 17.6135 9.98503 17.8017 10.2917 17.926C10.5983 18.0503 10.9279 18.108 11.2586 18.0952C11.5812 18.1227 11.9061 18.0827 12.2125 17.9779C12.5189 17.873 12.8001 17.7055 13.0382 17.486C13.2764 17.2665 13.4662 16.9999 13.5957 16.703C13.7251 16.4062 13.7914 16.0857 13.7902 15.7618C13.7877 15.3123 13.6713 14.8708 13.4519 14.4785L13.1952 14.0118L11.3169 10.8618L9.26356 14.1401C8.99254 14.5657 8.84697 15.059 8.84356 15.5635Z" fill="#FC1921"/>
<path d="M32.8301 2.02979H37.3101L46.1417 16.2631V2.02979H49.5251V21.0348H45.2901L36.2717 6.35812H36.2134V21.0348H32.8301V2.02979Z" fill="black"/>
<path d="M65.7536 14.7582V15.1899C65.7652 15.3296 65.7652 15.4701 65.7536 15.6099H55.9419C55.9619 16.0569 56.0773 16.4944 56.2802 16.8932C56.4823 17.2758 56.7601 17.6132 57.0969 17.8849C57.4464 18.1665 57.8408 18.3874 58.2636 18.5382C58.692 18.7013 59.1468 18.7844 59.6052 18.7832C60.3116 18.8029 61.0123 18.6508 61.6469 18.3399C62.186 18.0618 62.6533 17.6625 63.0119 17.1732L65.1702 18.8765C64.5321 19.7284 63.6934 20.4095 62.7286 20.8593C61.7639 21.3091 60.703 21.5137 59.6402 21.4549C58.698 21.4673 57.7612 21.3092 56.8752 20.9882C56.068 20.692 55.3267 20.2401 54.6936 19.6582C54.061 19.0701 53.5668 18.3489 53.2469 17.5465C52.8981 16.6315 52.7393 15.655 52.7802 14.6765C52.7536 13.7218 52.912 12.771 53.2469 11.8765C53.563 11.0581 54.0526 10.3178 54.6819 9.70655C55.3011 9.10095 56.0348 8.62499 56.8402 8.30654C57.6995 7.97416 58.614 7.80788 59.5352 7.81655C60.3842 7.80489 61.2276 7.95536 62.0202 8.25988C62.7622 8.54064 63.4348 8.9784 63.9919 9.54321C64.5695 10.1733 65.0104 10.9161 65.2869 11.7249C65.6171 12.7013 65.775 13.7277 65.7536 14.7582ZM62.5336 13.2999C62.5314 12.9054 62.4765 12.5131 62.3702 12.1332C62.2563 11.7665 62.0654 11.4284 61.8102 11.1415C61.5508 10.847 61.2276 10.6156 60.8652 10.4649C60.4376 10.2838 59.9762 10.1962 59.5119 10.2082C58.6135 10.1864 57.7382 10.4934 57.0502 11.0715C56.7245 11.3513 56.4585 11.6939 56.2681 12.0787C56.0777 12.4636 55.9667 12.8829 55.9419 13.3115L62.5336 13.2999Z" fill="black"/>
<path d="M66.9082 8.15479H70.4082L73.0915 17.3831L75.8565 8.15479H79.2865L82.0749 17.3831L84.8165 8.15479H88.1649L83.7082 20.9881H80.5465L77.6182 11.9698H77.5599L74.6665 20.9881H71.4465L66.9082 8.15479Z" fill="black"/>
<path d="M100.858 12.7981L93.7183 2.02979H97.8483L102.632 10.0331L107.462 2.02979H111.37L104.242 12.7981V21.0348H100.858V12.7981Z" fill="black"/>
<path d="M109.422 14.5368C109.399 13.5846 109.578 12.6383 109.947 11.7602C110.295 10.9575 110.798 10.2319 111.429 9.62517C112.077 9.03159 112.834 8.56819 113.657 8.26017C114.535 7.94018 115.464 7.77824 116.399 7.78184C117.33 7.77714 118.254 7.93914 119.129 8.26017C119.955 8.56275 120.712 9.02677 121.357 9.62517C121.994 10.2281 122.503 10.9545 122.85 11.7602C123.22 12.6387 123.407 13.5836 123.399 14.5368C123.41 15.4979 123.223 16.451 122.85 17.3368C122.503 18.1496 121.995 18.8837 121.357 19.4952C120.714 20.1046 119.957 20.5805 119.129 20.8952C118.261 21.2442 117.333 21.4187 116.399 21.4085C115.46 21.4175 114.529 21.2431 113.657 20.8952C112.832 20.5736 112.076 20.0985 111.429 19.4952C110.798 18.88 110.294 18.1466 109.947 17.3368C109.578 16.4505 109.399 15.4966 109.422 14.5368ZM112.689 14.5368C112.692 15.0472 112.771 15.5544 112.922 16.0418C113.064 16.5265 113.293 16.9811 113.599 17.3835C113.914 17.7853 114.312 18.1154 114.765 18.3518C115.282 18.6123 115.855 18.7405 116.434 18.7252C117.008 18.7386 117.577 18.6104 118.09 18.3518C118.543 18.1154 118.941 17.7853 119.257 17.3835C119.566 16.9817 119.799 16.5271 119.945 16.0418C120.097 15.5544 120.175 15.0472 120.179 14.5368C120.176 14.034 120.098 13.5344 119.945 13.0552C119.796 12.5746 119.563 12.1242 119.257 11.7252C118.944 11.3236 118.545 10.9968 118.09 10.7685C117.574 10.5184 117.007 10.3944 116.434 10.4068C115.857 10.3956 115.286 10.5195 114.765 10.7685C114.31 10.9968 113.912 11.3236 113.599 11.7252C113.296 12.1247 113.066 12.5751 112.922 13.0552C112.77 13.5344 112.691 14.034 112.689 14.5368Z" fill="black"/>
<path d="M126.396 8.15476H129.488V10.3014C129.819 9.57484 130.333 8.94738 130.981 8.48143C131.641 8.01159 132.435 7.7662 133.245 7.78143H133.641C133.768 7.79016 133.894 7.81365 134.015 7.85143V10.8031C133.835 10.7533 133.651 10.7143 133.466 10.6864H133.023C132.406 10.6638 131.795 10.8047 131.25 11.0948C130.836 11.3316 130.481 11.6586 130.211 12.0514C129.972 12.4066 129.798 12.8017 129.698 13.2181C129.617 13.527 129.57 13.8439 129.558 14.1631V21.0581H126.396V8.15476Z" fill="black"/>
<path d="M136.092 0.746582H139.312V13.5799H139.393L144.27 8.15492H148.447L142.87 13.9883L148.797 21.0466H144.538L139.44 14.4433H139.358V21.0466H136.138L136.092 0.746582Z" fill="black"/>
<path d="M158.328 2.02979H165.736C166.452 2.03369 167.164 2.11982 167.86 2.28645C168.529 2.44837 169.162 2.73321 169.726 3.12645C170.271 3.51892 170.725 4.02431 171.056 4.60812C171.41 5.28795 171.583 6.04726 171.558 6.81312C171.594 7.7818 171.27 8.72946 170.648 9.47312C170.014 10.1826 169.193 10.7 168.28 10.9665V11.0248C169.393 11.1464 170.433 11.6396 171.231 12.4248C171.625 12.8319 171.932 13.315 172.132 13.8446C172.333 14.3741 172.423 14.9391 172.398 15.5048C172.433 16.4159 172.22 17.3194 171.78 18.1181C171.391 18.8132 170.833 19.399 170.158 19.8215C169.445 20.2746 168.654 20.591 167.825 20.7548C166.958 20.942 166.075 21.0359 165.188 21.0348H158.34L158.328 2.02979ZM161.711 9.76478H164.78C165.69 9.82604 166.595 9.58845 167.358 9.08812C167.648 8.86636 167.879 8.5772 168.031 8.24579C168.184 7.91437 168.253 7.55072 168.233 7.18645C168.265 6.82853 168.197 6.46873 168.036 6.14731C167.876 5.82589 167.629 5.55552 167.323 5.36645C166.436 4.94713 165.456 4.76236 164.476 4.82978H161.77L161.711 9.76478ZM161.711 18.1881H164.78C165.248 18.1896 165.716 18.1584 166.18 18.0948C166.657 18.0428 167.122 17.9127 167.556 17.7098C167.972 17.513 168.333 17.2164 168.606 16.8465C168.883 16.4083 169.014 15.8936 168.98 15.3765C169.022 14.9684 168.949 14.5568 168.769 14.1879C168.59 13.8189 168.311 13.5074 167.965 13.2881C167.005 12.8313 165.945 12.6265 164.885 12.6931H161.711V18.1881Z" fill="black"/>
<path d="M174.918 0.746582H178.138V21.0349H174.918V0.746582Z" fill="black"/>
<path d="M180.635 14.5368C180.619 13.5829 180.806 12.6365 181.184 11.7602C181.531 10.9575 182.035 10.2319 182.665 9.62517C183.314 9.03159 184.07 8.56819 184.894 8.26017C185.772 7.94018 186.7 7.77824 187.635 7.78184C188.566 7.77714 189.491 7.93914 190.365 8.26017C191.191 8.56275 191.949 9.02677 192.594 9.62517C193.231 10.2281 193.739 10.9545 194.087 11.7602C194.457 12.6387 194.643 13.5836 194.635 14.5368C194.647 15.4979 194.46 16.451 194.087 17.3368C193.74 18.1496 193.232 18.8837 192.594 19.4952C191.951 20.1046 191.193 20.5805 190.365 20.8952C189.498 21.2442 188.57 21.4187 187.635 21.4085C186.697 21.4175 185.765 21.2431 184.894 20.8952C184.069 20.5736 183.313 20.0985 182.665 19.4952C182.034 18.88 181.531 18.1466 181.184 17.3368C180.807 16.4522 180.62 15.4983 180.635 14.5368ZM183.902 14.5368C183.905 15.0472 183.984 15.5544 184.135 16.0418C184.277 16.5265 184.507 16.9811 184.812 17.3835C185.128 17.7853 185.525 18.1154 185.979 18.3518C186.495 18.6123 187.068 18.7405 187.647 18.7252C188.221 18.7386 188.79 18.6104 189.304 18.3518C189.757 18.1154 190.154 17.7853 190.47 17.3835C190.779 16.9817 191.012 16.5271 191.159 16.0418C191.31 15.5544 191.388 15.0472 191.392 14.5368C191.389 14.034 191.311 13.5344 191.159 13.0552C191.01 12.5746 190.777 12.1242 190.47 11.7252C190.157 11.3236 189.759 10.9968 189.304 10.7685C188.788 10.5184 188.22 10.3944 187.647 10.4068C187.07 10.3956 186.499 10.5195 185.979 10.7685C185.523 10.9968 185.125 11.3236 184.812 11.7252C184.509 12.1247 184.28 12.5751 184.135 13.0552C183.983 13.5344 183.904 14.034 183.902 14.5368Z" fill="black"/>
<path d="M196.28 14.5368C196.272 13.5836 196.459 12.6387 196.829 11.7602C197.175 10.9523 197.684 10.2245 198.325 9.62225C198.965 9.02004 199.723 8.55636 200.55 8.26015C202.318 7.62227 204.254 7.62227 206.022 8.26015C206.847 8.5655 207.604 9.02921 208.25 9.62515C208.884 10.2285 209.388 10.955 209.732 11.7602C210.113 12.6356 210.304 13.5821 210.292 14.5368C210.304 15.4991 210.113 16.4531 209.732 17.3368C209.389 18.1489 208.885 18.883 208.25 19.4952C207.605 20.102 206.848 20.5775 206.022 20.8952C204.262 21.5795 202.31 21.5795 200.55 20.8952C199.727 20.5911 198.973 20.1246 198.334 19.5233C197.694 18.922 197.183 18.1983 196.829 17.3952C196.448 16.4913 196.261 15.5175 196.28 14.5368ZM199.559 14.5368C199.558 15.0467 199.632 15.5538 199.78 16.0418C199.926 16.5271 200.16 16.9817 200.469 17.3835C200.784 17.7853 201.182 18.1154 201.635 18.3518C202.155 18.5979 202.723 18.7255 203.298 18.7255C203.873 18.7255 204.441 18.5979 204.96 18.3518C205.413 18.1154 205.811 17.7853 206.127 17.3835C206.431 16.979 206.664 16.5252 206.815 16.0418C206.963 15.5538 207.038 15.0467 207.037 14.5368C207.038 14.0346 206.964 13.535 206.815 13.0552C206.662 12.5765 206.429 12.127 206.127 11.7252C205.814 11.3236 205.415 10.9968 204.96 10.7685C204.438 10.5301 203.871 10.4068 203.298 10.4068C202.724 10.4068 202.157 10.5301 201.635 10.7685C201.18 10.9968 200.782 11.3236 200.469 11.7252C200.163 12.1207 199.93 12.567 199.78 13.0435C199.646 13.5295 199.587 14.033 199.605 14.5368H199.559Z" fill="black"/>
<path d="M225.867 21.0349H222.81V19.0982C222.369 19.8433 221.721 20.4434 220.943 20.8249C220.144 21.2124 219.266 21.4119 218.377 21.4082C217.465 21.4208 216.561 21.2337 215.728 20.8599C214.973 20.5067 214.298 20.0025 213.745 19.3783C213.193 18.74 212.766 18.0039 212.485 17.2082C212.186 16.3495 212.036 15.4459 212.042 14.5366C212.034 13.6337 212.188 12.7368 212.497 11.8882C212.777 11.0944 213.214 10.3646 213.78 9.74158C214.329 9.12453 215.006 8.63479 215.763 8.30658C216.556 7.95194 217.415 7.77285 218.283 7.78158C218.819 7.77031 219.354 7.83712 219.87 7.97992C220.298 8.09594 220.709 8.26445 221.095 8.48158C221.418 8.66 221.72 8.87532 221.993 9.12325C222.215 9.32646 222.418 9.54901 222.6 9.78825H222.682V0.746582H225.902L225.867 21.0349ZM215.273 14.5366C215.273 15.0464 215.347 15.5536 215.495 16.0416C215.641 16.5269 215.875 16.9815 216.183 17.3833C216.499 17.7851 216.897 18.1152 217.35 18.3516C217.856 18.6064 218.417 18.7345 218.983 18.7249C219.534 18.7367 220.079 18.6125 220.57 18.3633C221.019 18.1252 221.415 17.8 221.737 17.4066C222.071 17.0195 222.329 16.572 222.495 16.0883C222.659 15.6073 222.746 15.1032 222.752 14.5949C222.746 14.0829 222.66 13.5749 222.495 13.0899C222.329 12.599 222.072 12.1438 221.737 11.7482C221.413 11.3545 221.017 11.0259 220.57 10.7799C220.08 10.5267 219.535 10.3984 218.983 10.4066C218.418 10.3978 217.859 10.5217 217.35 10.7682C216.895 10.9966 216.497 11.3234 216.183 11.7249C215.877 12.124 215.644 12.5743 215.495 13.0549C215.347 13.5347 215.272 14.0343 215.273 14.5366Z" fill="black"/>
<path d="M249.328 6.48676C248.831 5.81485 248.151 5.30046 247.368 5.00509C246.627 4.70325 245.836 4.54108 245.035 4.52676C244.113 4.51837 243.2 4.7011 242.352 5.06343C241.566 5.41082 240.859 5.915 240.275 6.54509C239.69 7.18268 239.235 7.92752 238.933 8.73843C238.615 9.61714 238.457 10.5457 238.467 11.4801C238.456 12.4479 238.609 13.4106 238.922 14.3268C239.2 15.1452 239.64 15.8991 240.217 16.5434C240.785 17.1594 241.477 17.6484 242.247 17.9784C243.09 18.3256 243.995 18.4963 244.907 18.4801C245.843 18.4984 246.771 18.2945 247.613 17.8851C248.365 17.5099 249.016 16.9621 249.515 16.2868L252.233 18.1884C251.406 19.2355 250.348 20.0778 249.142 20.6501C247.8 21.2504 246.341 21.5453 244.872 21.5134C243.476 21.5296 242.091 21.2802 240.788 20.7784C239.587 20.3202 238.495 19.6169 237.58 18.7134C236.671 17.8145 235.956 16.7384 235.48 15.5518C234.968 14.2563 234.714 12.873 234.733 11.4801C234.715 10.0676 234.985 8.66619 235.527 7.36176C236.023 6.17925 236.763 5.11409 237.697 4.23509C238.644 3.36479 239.754 2.69071 240.963 2.25176C242.268 1.77611 243.647 1.53899 245.035 1.55176C245.673 1.55427 246.309 1.61282 246.937 1.72676C247.592 1.83808 248.233 2.01796 248.85 2.26343C249.452 2.50191 250.027 2.80301 250.565 3.16176C251.09 3.51264 251.552 3.95059 251.93 4.45676L249.328 6.48676Z" fill="black"/>
<path d="M265.965 14.7583V15.19C265.977 15.3298 265.977 15.4702 265.965 15.61H256.177C256.204 16.0588 256.327 16.4964 256.539 16.8933C256.744 17.2735 257.022 17.6103 257.355 17.885C257.705 18.1667 258.099 18.3875 258.522 18.5383C258.95 18.7014 259.405 18.7845 259.864 18.7833C260.57 18.8031 261.271 18.6509 261.905 18.34C262.444 18.062 262.912 17.6626 263.27 17.1733L265.37 18.8767C264.732 19.7286 263.893 20.4097 262.929 20.8595C261.964 21.3093 260.903 21.5138 259.84 21.455C258.898 21.4674 257.961 21.3093 257.075 20.9883C256.268 20.6921 255.527 20.2402 254.894 19.6583C254.258 19.0548 253.764 18.3176 253.447 17.5C253.084 16.6036 252.906 15.6435 252.922 14.6767C252.914 13.7181 253.092 12.7672 253.447 11.8767C253.772 11.0628 254.26 10.3242 254.882 9.70667C255.503 9.10349 256.236 8.62786 257.04 8.30667C257.899 7.97428 258.814 7.80801 259.735 7.81667C260.584 7.80386 261.428 7.95437 262.22 8.26001C262.962 8.54076 263.635 8.97853 264.192 9.54334C264.773 10.1705 265.215 10.9142 265.487 11.725C265.821 12.7007 265.983 13.7271 265.965 14.7583ZM262.78 13.3C262.78 12.9046 262.721 12.5114 262.605 12.1333C262.491 11.7667 262.3 11.4286 262.045 11.1417C261.786 10.8471 261.463 10.6157 261.1 10.465C260.673 10.2839 260.211 10.1964 259.747 10.2083C258.849 10.1865 257.973 10.4935 257.285 11.0717C256.96 11.3515 256.693 11.694 256.503 12.0789C256.313 12.4637 256.202 12.883 256.177 13.3117L262.78 13.3Z" fill="black"/>
<path d="M268.94 8.15493H271.997V10.2199C272.323 9.52591 272.836 8.93622 273.478 8.5166C274.218 8.01826 275.095 7.76149 275.987 7.7816C276.735 7.75844 277.478 7.91025 278.157 8.22493C278.729 8.49657 279.232 8.89565 279.627 9.3916C280.015 9.88365 280.304 10.4462 280.478 11.0483C280.656 11.6786 280.746 12.3302 280.747 12.9849V21.0349H277.515V13.8949C277.513 13.505 277.49 13.1156 277.445 12.7283C277.397 12.3219 277.279 11.927 277.095 11.5616C276.91 11.237 276.655 10.9579 276.348 10.7449C275.977 10.5177 275.546 10.4079 275.112 10.4299C274.662 10.4053 274.214 10.4926 273.807 10.684C273.399 10.8754 273.046 11.165 272.778 11.5266C272.53 11.8812 272.345 12.2758 272.23 12.6933C272.105 13.1096 272.042 13.542 272.043 13.9766V21.0583H268.823L268.94 8.15493Z" fill="black"/>
<path d="M282.613 10.7102V8.15521H284.865V4.42188H288.038V8.15521H291.258V10.7102H288.038V16.6952C288.023 17.1872 288.127 17.6754 288.342 18.1185C288.552 18.4919 289.007 18.6785 289.73 18.6785C289.965 18.6761 290.199 18.6527 290.43 18.6085C290.658 18.5651 290.881 18.4986 291.095 18.4102L291.2 20.9302C290.87 21.046 290.53 21.1319 290.185 21.1869C289.799 21.2472 289.409 21.2784 289.018 21.2802C288.304 21.3076 287.593 21.1844 286.93 20.9185C286.427 20.7049 285.988 20.3629 285.658 19.9269C285.339 19.4974 285.116 19.0039 285.005 18.4802C284.885 17.9008 284.826 17.3103 284.83 16.7185V10.7102H282.613Z" fill="black"/>
<path d="M305.702 14.7584V15.1901C305.702 15.3301 305.702 15.4701 305.702 15.6101H295.902C295.928 16.0493 296.046 16.4782 296.247 16.8698C296.447 17.2613 296.727 17.607 297.068 17.8851C297.418 18.1667 297.812 18.3876 298.235 18.5384C298.663 18.7015 299.118 18.7845 299.577 18.7834C300.283 18.8031 300.984 18.651 301.618 18.3401C302.161 18.068 302.63 17.6675 302.983 17.1734L305.107 18.8767C304.47 19.7277 303.634 20.4083 302.671 20.8581C301.708 21.3079 300.649 21.513 299.588 21.4551C298.646 21.4674 297.709 21.3093 296.823 20.9884C296.012 20.6924 295.267 20.2406 294.63 19.6584C294 19.0683 293.506 18.3476 293.183 17.5467C292.821 16.6503 292.642 15.6902 292.658 14.7234C292.646 13.7531 292.824 12.7898 293.183 11.8884C293.508 11.0745 293.997 10.3359 294.618 9.71839C295.239 9.11521 295.973 8.63959 296.777 8.31839C297.636 7.98709 298.55 7.82085 299.472 7.82839C300.321 7.81558 301.164 7.96609 301.957 8.27173C302.699 8.54604 303.372 8.98017 303.928 9.54339C304.514 10.1697 304.959 10.9134 305.235 11.7251C305.56 12.7028 305.717 13.7283 305.702 14.7584ZM302.447 13.3001C302.446 12.9047 302.387 12.5115 302.272 12.1334C302.157 11.7694 301.971 11.4322 301.723 11.1417C301.457 10.8496 301.131 10.6187 300.767 10.4651C300.339 10.2839 299.877 10.1964 299.413 10.2084C298.518 10.1839 297.645 10.4915 296.963 11.0717C296.625 11.3449 296.347 11.6848 296.147 12.0702C295.946 12.4556 295.827 12.8782 295.797 13.3117L302.447 13.3001Z" fill="black"/>
<path d="M308.677 8.15476H311.78V10.3014C312.117 9.57576 312.636 8.94902 313.285 8.48143C313.941 8.01173 314.73 7.76622 315.537 7.78143H315.945C316.072 7.79016 316.197 7.81365 316.318 7.85142V10.8031C316.138 10.7533 315.955 10.7143 315.77 10.6864H315.327C314.709 10.6592 314.096 10.8004 313.553 11.0948C313.139 11.3346 312.781 11.6609 312.503 12.0514C312.266 12.4065 312.096 12.8019 312.002 13.2181C311.921 13.527 311.874 13.8439 311.862 14.1631V21.0581H308.642L308.677 8.15476Z" fill="black"/>
<path d="M325.045 2.02979H337.633V4.99312H328.428V9.82312H337.155V12.6581H328.428V18.0248H338.112V21.0348H325.045V2.02979Z" fill="black"/>
<path d="M341.122 8.15512H344.178V10.2201H344.237C344.563 9.5261 345.076 8.93641 345.718 8.51679C346.458 8.01845 347.335 7.76168 348.227 7.78179C348.971 7.75517 349.711 7.90718 350.385 8.22512C350.963 8.49344 351.47 8.89292 351.867 9.39179C352.255 9.88214 352.54 10.4455 352.707 11.0485C352.889 11.6776 352.98 12.33 352.975 12.9851V21.0351H349.755V13.8951C349.753 13.5052 349.73 13.1157 349.685 12.7285C349.637 12.3221 349.519 11.9272 349.335 11.5618C349.15 11.2371 348.895 10.9581 348.588 10.7451C348.214 10.5163 347.778 10.4064 347.34 10.4301C346.902 10.4141 346.466 10.5057 346.072 10.6969C345.677 10.888 345.336 11.173 345.077 11.5268C344.823 11.8784 344.637 12.274 344.528 12.6935C344.403 13.1098 344.341 13.5422 344.342 13.9768V21.0585H341.122V8.15512Z" fill="black"/>
<path d="M354.749 10.7102V8.15521H357V4.42188H360.174V8.15521H363.394V10.7102H360.174V16.6952C360.159 17.1872 360.263 17.6754 360.477 18.1185C360.687 18.4919 361.142 18.6785 361.865 18.6785C362.096 18.6766 362.327 18.6532 362.554 18.6085C362.786 18.5667 363.012 18.5002 363.23 18.4102L363.335 20.9302C363.005 21.046 362.666 21.1319 362.32 21.1869C361.934 21.2472 361.544 21.2784 361.154 21.2802C360.44 21.3076 359.728 21.1844 359.065 20.9185C358.562 20.7049 358.123 20.3629 357.794 19.9269C357.474 19.4974 357.251 19.0039 357.14 18.4802C357.02 17.9008 356.962 17.3103 356.965 16.7185V10.7102H354.749Z" fill="black"/>
<path d="M377.883 14.7584V15.1901C377.883 15.3301 377.883 15.4701 377.883 15.6101H368.083C368.11 16.0493 368.227 16.4782 368.428 16.8698C368.629 17.2613 368.909 17.607 369.25 17.8851C369.599 18.1667 369.994 18.3876 370.417 18.5384C370.845 18.7015 371.3 18.7845 371.758 18.7834C372.465 18.8031 373.165 18.651 373.8 18.3401C374.343 18.068 374.812 17.6675 375.165 17.1734L377.288 18.8767C376.652 19.7277 375.815 20.4083 374.852 20.8581C373.89 21.3079 372.831 21.513 371.77 21.4551C370.828 21.4674 369.891 21.3093 369.005 20.9884C368.194 20.6924 367.449 20.2406 366.812 19.6584C366.181 19.0683 365.687 18.3476 365.365 17.5467C365.002 16.6503 364.824 15.6902 364.84 14.7234C364.827 13.7531 365.006 12.7898 365.365 11.8884C365.69 11.0745 366.178 10.3359 366.8 9.71839C367.421 9.11521 368.154 8.63959 368.958 8.31839C369.818 7.98709 370.732 7.82085 371.653 7.82839C372.502 7.81558 373.346 7.96609 374.138 8.27173C374.881 8.54604 375.554 8.98017 376.11 9.54339C376.695 10.1697 377.141 10.9134 377.417 11.7251C377.741 12.7028 377.899 13.7283 377.883 14.7584ZM374.663 13.3001C374.663 12.9047 374.604 12.5115 374.488 12.1334C374.374 11.7694 374.187 11.4322 373.94 11.1417C373.674 10.8496 373.347 10.6187 372.983 10.4651C372.556 10.2839 372.094 10.1964 371.63 10.2084C370.735 10.1839 369.862 10.4915 369.18 11.0717C368.842 11.3449 368.564 11.6848 368.363 12.0702C368.162 12.4556 368.043 12.8782 368.013 13.3117L374.663 13.3001Z" fill="black"/>
<path d="M380.858 8.15476H383.95V10.3014C384.287 9.57576 384.805 8.94902 385.455 8.48143C386.11 8.01173 386.9 7.76622 387.706 7.78143H388.115C388.242 7.79016 388.367 7.81365 388.488 7.85142V10.8031C388.308 10.7533 388.125 10.7143 387.94 10.6864H387.496C386.879 10.6592 386.266 10.8004 385.723 11.0948C385.309 11.3346 384.95 11.6609 384.673 12.0514C384.436 12.4065 384.266 12.8019 384.171 13.2181C384.09 13.527 384.044 13.8439 384.031 14.1631V21.0581H380.812L380.858 8.15476Z" fill="black"/>
<path d="M393.575 8.15492V9.95158H393.657C393.844 9.67713 394.055 9.41949 394.287 9.18158C394.572 8.90913 394.894 8.6775 395.243 8.49325C396.122 8.00997 397.111 7.76464 398.113 7.78158C398.981 7.77285 399.841 7.95194 400.633 8.30658C401.391 8.63479 402.068 9.12453 402.617 9.74158C403.198 10.357 403.651 11.083 403.947 11.8766C404.255 12.7251 404.409 13.6221 404.402 14.5249C404.407 15.4342 404.257 16.3378 403.958 17.1966C403.687 17.9964 403.258 18.7341 402.698 19.3666C402.145 19.9908 401.47 20.4951 400.715 20.8482C399.883 21.222 398.979 21.4092 398.067 21.3966C397.198 21.4065 396.34 21.2148 395.558 20.8366C394.843 20.4969 394.234 19.9685 393.797 19.3082V27.4749H390.577V8.15492H393.575ZM401.088 14.5366C401.09 14.0343 401.015 13.5347 400.867 13.0549C400.718 12.5743 400.485 12.124 400.178 11.7249C399.865 11.3234 399.467 10.9966 399.012 10.7682C398.503 10.5205 397.944 10.3965 397.378 10.4066C396.827 10.3984 396.282 10.5267 395.792 10.7799C395.345 11.0259 394.949 11.3545 394.625 11.7482C394.294 12.1444 394.04 12.5996 393.878 13.0899C393.708 13.5735 393.622 14.0824 393.622 14.5949C393.622 15.1037 393.708 15.6087 393.878 16.0882C394.04 16.5715 394.294 17.019 394.625 17.4066C394.946 17.8 395.343 18.1252 395.792 18.3633C396.283 18.6125 396.828 18.7367 397.378 18.7249C397.945 18.7345 398.505 18.6064 399.012 18.3516C399.465 18.1152 399.862 17.7851 400.178 17.3833C400.487 16.9815 400.72 16.5269 400.867 16.0416C401.014 15.5536 401.089 15.0464 401.088 14.5366Z" fill="black"/>
<path d="M407.342 8.15476H410.433V10.3014C410.771 9.57576 411.289 8.94902 411.938 8.48143C412.594 8.01173 413.384 7.76622 414.19 7.78143H414.598C414.725 7.79016 414.85 7.81365 414.972 7.85142V10.8031C414.799 10.762 414.623 10.7308 414.447 10.7098H414.003C413.386 10.6826 412.773 10.8237 412.23 11.1181C411.815 11.3579 411.457 11.6842 411.18 12.0748C410.943 12.4298 410.773 12.8252 410.678 13.2414C410.597 13.5504 410.55 13.8673 410.538 14.1864V21.0814H407.318L407.342 8.15476Z" fill="black"/>
<path d="M416.57 3.78017C416.57 3.52681 416.622 3.27617 416.722 3.0435C416.823 2.81084 416.969 2.60102 417.153 2.42684C417.344 2.23543 417.571 2.08497 417.822 1.98466C418.073 1.88435 418.342 1.83632 418.612 1.8435C419.163 1.82903 419.699 2.02988 420.105 2.4035C420.296 2.57839 420.448 2.79109 420.553 3.0281C420.657 3.2651 420.711 3.52122 420.711 3.78017C420.711 4.03912 420.657 4.29524 420.553 4.53225C420.448 4.76925 420.296 4.98196 420.105 5.15684C419.699 5.53046 419.163 5.73131 418.612 5.71684C418.342 5.72403 418.073 5.67599 417.822 5.57569C417.571 5.47538 417.344 5.32491 417.153 5.1335C416.968 4.96018 416.821 4.75053 416.72 4.51767C416.62 4.28481 416.569 4.03374 416.57 3.78017ZM417.036 8.15517H420.28V20.9885H417.06L417.036 8.15517Z" fill="black"/>
<path d="M431.095 11.5851C430.773 11.1861 430.377 10.8533 429.928 10.6051C429.422 10.3362 428.857 10.196 428.283 10.1967C427.791 10.1915 427.304 10.2993 426.86 10.5117C426.662 10.6113 426.497 10.7651 426.383 10.9552C426.27 11.1452 426.213 11.3637 426.218 11.5851C426.208 11.8149 426.271 12.0422 426.399 12.2334C426.527 12.4245 426.713 12.5694 426.93 12.6467C427.602 12.9175 428.297 13.1283 429.007 13.2767C429.505 13.3898 429.996 13.534 430.477 13.7084C430.955 13.8821 431.407 14.1216 431.819 14.4201C432.216 14.7161 432.549 15.0891 432.799 15.5167C433.058 16.0087 433.186 16.5591 433.172 17.1151C433.194 17.8067 433.041 18.4927 432.729 19.1101C432.453 19.641 432.052 20.0973 431.562 20.4401C431.043 20.7958 430.461 21.0492 429.847 21.1867C429.181 21.3378 428.5 21.4122 427.817 21.4084C426.815 21.4067 425.823 21.2209 424.889 20.8601C423.997 20.5277 423.197 19.9878 422.555 19.2851L424.667 17.3017C425.044 17.7868 425.522 18.1848 426.067 18.4684C426.654 18.7745 427.307 18.9308 427.969 18.9234C428.208 18.9251 428.447 18.8976 428.68 18.8417C428.92 18.7984 429.149 18.7114 429.357 18.5851C429.557 18.4739 429.726 18.3133 429.847 18.1184C429.979 17.9011 430.044 17.6494 430.033 17.3951C430.051 17.1477 429.989 16.9013 429.857 16.6915C429.725 16.4818 429.529 16.3195 429.299 16.2284C428.588 15.9233 427.85 15.6888 427.094 15.5284C426.614 15.424 426.143 15.2876 425.682 15.1201C425.263 14.9507 424.87 14.7229 424.515 14.4434C424.155 14.1688 423.861 13.8182 423.652 13.4167C423.429 12.9389 423.321 12.4155 423.337 11.8884C423.32 11.2419 423.473 10.6023 423.78 10.0334C424.06 9.52103 424.46 9.08456 424.947 8.76174C425.443 8.41816 425.996 8.16535 426.58 8.01507C427.194 7.86081 427.825 7.78245 428.459 7.78174C429.389 7.78447 430.312 7.94625 431.189 8.26007C432.013 8.54767 432.741 9.06102 433.289 9.74173L431.095 11.5851Z" fill="black"/>
<path d="M448.105 14.7584V15.1901C448.105 15.3301 448.105 15.4701 448.105 15.6101H438.305C438.332 16.0493 438.449 16.4782 438.65 16.8698C438.851 17.2613 439.13 17.607 439.472 17.8851C439.821 18.1667 440.215 18.3876 440.638 18.5384C441.067 18.7015 441.521 18.7845 441.98 18.7834C442.686 18.8031 443.387 18.651 444.022 18.3401C444.565 18.068 445.033 17.6675 445.387 17.1734L447.51 18.8767C446.874 19.7285 446.038 20.4096 445.075 20.8595C444.112 21.3094 443.053 21.514 441.992 21.4551C441.049 21.4674 440.113 21.3093 439.227 20.9884C438.416 20.6924 437.671 20.2406 437.033 19.6584C436.403 19.0683 435.909 18.3476 435.587 17.5467C435.224 16.6503 435.045 15.6902 435.062 14.7234C435.049 13.7531 435.227 12.7898 435.587 11.8884C435.911 11.0745 436.4 10.3359 437.022 9.71839C437.643 9.11521 438.376 8.63959 439.18 8.31839C440.04 7.98816 440.954 7.82196 441.875 7.82839C442.724 7.81558 443.568 7.96609 444.36 8.27173C445.102 8.54604 445.775 8.98017 446.331 9.54339C446.917 10.1697 447.362 10.9134 447.638 11.7251C447.968 12.7015 448.126 13.7279 448.105 14.7584ZM444.885 13.3001C444.884 12.9047 444.826 12.5115 444.71 12.1334C444.595 11.7694 444.409 11.4322 444.162 11.1417C443.895 10.8496 443.569 10.6187 443.205 10.4651C442.777 10.2839 442.316 10.1964 441.852 10.2084C440.956 10.1839 440.084 10.4915 439.402 11.0717C439.064 11.3449 438.786 11.6848 438.585 12.0702C438.384 12.4556 438.265 12.8782 438.235 13.3117L444.885 13.3001Z" fill="black"/>
<path d="M458.138 11.5852C457.822 11.1811 457.424 10.8473 456.972 10.6052C456.469 10.3355 455.908 10.1951 455.338 10.1968C454.846 10.1904 454.359 10.2982 453.915 10.5118C453.715 10.6098 453.547 10.7629 453.431 10.953C453.316 11.1432 453.257 11.3626 453.262 11.5852C453.251 11.8165 453.316 12.0448 453.447 12.2362C453.577 12.4275 453.766 12.5716 453.985 12.6468C454.657 12.9194 455.352 13.1302 456.062 13.2768C456.556 13.39 457.043 13.5342 457.52 13.7085C457.999 13.8796 458.451 14.1193 458.862 14.4202C459.264 14.7097 459.599 15.0841 459.842 15.5168C460.101 16.0088 460.23 16.5592 460.215 17.1152C460.242 17.8073 460.089 18.4948 459.772 19.1102C459.496 19.6411 459.095 20.0974 458.605 20.4402C458.088 20.8 457.505 21.0538 456.89 21.1868C456.224 21.338 455.543 21.4123 454.86 21.4085C453.862 21.4073 452.873 21.2214 451.943 20.8602C451.052 20.5266 450.253 19.9869 449.61 19.2852L451.733 17.3018C452.106 17.7864 452.58 18.1844 453.122 18.4685C453.712 18.7761 454.369 18.9324 455.035 18.9235C455.274 18.9245 455.513 18.8971 455.747 18.8418C455.982 18.7984 456.208 18.7114 456.412 18.5852C456.625 18.4753 456.802 18.3075 456.924 18.1011C457.046 17.8947 457.107 17.6581 457.1 17.4185C457.117 17.1712 457.055 16.9248 456.923 16.715C456.791 16.5052 456.595 16.343 456.365 16.2518C455.65 15.9488 454.908 15.7145 454.148 15.5518C453.669 15.4475 453.197 15.3111 452.737 15.1435C452.318 14.9742 451.925 14.7464 451.57 14.4668C451.214 14.1918 450.923 13.8411 450.718 13.4402C450.485 12.9653 450.373 12.4404 450.392 11.9118C450.372 11.2968 450.509 10.6868 450.791 10.1396C451.073 9.59251 451.489 9.12631 452.002 8.78518C452.502 8.44143 453.059 8.18866 453.647 8.03851C454.261 7.88343 454.891 7.80505 455.525 7.80518C456.452 7.80763 457.371 7.96943 458.243 8.28351C459.072 8.56918 459.804 9.08269 460.355 9.76518L458.138 11.5852Z" fill="black"/>
</g>
<defs>
<clipPath id="clip0_2276_14230">
<rect width="460.227" height="27.475" fill="white"/>
</clipPath>
</defs>
</svg>
