<svg width="248" height="18" viewBox="0 0 248 18" fill="none" xmlns="http://www.w3.org/2000/svg">
<g clip-path="url(#clip0_2276_18269)">
<path d="M25.6519 1.5752H29.1523L36.053 12.5462V1.5752H38.6875V16.2272H35.3784L28.341 4.9052V16.2272H25.6974L25.6519 1.5752Z" fill="black"/>
<path d="M51.3767 11.3849V11.7179C51.3767 11.8259 51.3767 11.9339 51.3767 12.0419H43.7194C43.7483 12.3879 43.8475 12.7246 44.0111 13.0319C44.169 13.3271 44.3861 13.5874 44.6492 13.7969C44.9223 14.0142 45.2305 14.1846 45.5608 14.3009C45.8954 14.4275 46.2509 14.4916 46.6091 14.4899C47.1583 14.5062 47.703 14.3888 48.1953 14.1479C48.6208 13.936 48.9894 13.6276 49.271 13.2479L50.9209 14.5619C50.4234 15.2203 49.7683 15.7466 49.0142 16.0937C48.2601 16.4408 47.4307 16.5979 46.6 16.5509C45.8638 16.5605 45.1319 16.4385 44.4396 16.1909C43.8078 15.9645 43.2282 15.6157 42.7349 15.1649C42.2396 14.7102 41.8507 14.1543 41.5954 13.5359C41.3122 12.8444 41.1727 12.1037 41.1852 11.3579C41.1741 10.6064 41.3135 9.8601 41.5954 9.16192C41.8493 8.53407 42.2309 7.96432 42.7167 7.48792C43.2013 7.01081 43.7778 6.6344 44.4122 6.38092C45.0836 6.12451 45.7982 5.99624 46.518 6.00292C47.1784 5.99397 47.8344 6.11006 48.4505 6.34492C49.0352 6.56487 49.5618 6.91254 49.9911 7.36192C50.4485 7.84508 50.7965 8.41878 51.0121 9.04492C51.2701 9.79815 51.3935 10.59 51.3767 11.3849ZM48.8607 10.2689C48.8602 9.96392 48.8141 9.66066 48.724 9.36892C48.6388 9.08217 48.4899 8.81781 48.288 8.59515C48.0861 8.37249 47.8365 8.19715 47.5572 8.08192C47.2201 7.94147 46.8564 7.87396 46.4906 7.88392C45.7914 7.86677 45.1102 8.10377 44.5763 8.54992C44.3128 8.7631 44.096 9.02708 43.9393 9.32572C43.7826 9.62437 43.6892 9.95143 43.6647 10.2869L48.8607 10.2689Z" fill="black"/>
<path d="M52.2792 6.29102H55.0139L57.1106 13.41L59.271 6.29102H61.9511L64.1297 13.41L66.2628 6.29102H68.8882L65.4059 16.191H62.8535L60.5655 9.23402L58.3047 16.191H55.7796L52.2792 6.29102Z" fill="black"/>
<path d="M78.8062 9.8732L73.2273 1.5752H76.4543L80.1827 7.74019L83.9566 1.5752H87.0195L81.4406 9.8732V16.2272H78.8062V9.8732Z" fill="black"/>
<path d="M85.4881 11.214C85.4817 10.4786 85.6274 9.74974 85.9165 9.07199C86.1914 8.45229 86.588 7.89251 87.0833 7.42499C87.5886 6.96526 88.1801 6.60755 88.8244 6.37199C90.206 5.87991 91.7182 5.87991 93.0998 6.37199C93.7441 6.60755 94.3356 6.96526 94.8409 7.42499C95.3362 7.89251 95.7328 8.45229 96.0077 9.07199C96.2968 9.74974 96.4426 10.4786 96.4362 11.214C96.4451 11.9554 96.2992 12.6907 96.0077 13.374C95.733 13.9991 95.3365 14.5648 94.8409 15.039C94.337 15.5071 93.7456 15.8739 93.0998 16.119C91.7248 16.6469 90.1994 16.6469 88.8244 16.119C88.1786 15.8739 87.5872 15.5071 87.0833 15.039C86.5877 14.5648 86.1912 13.9991 85.9165 13.374C85.625 12.6907 85.4792 11.9554 85.4881 11.214ZM88.0496 11.214C88.049 11.6073 88.1074 11.9985 88.2228 12.375C88.337 12.7494 88.5192 13.1001 88.7606 13.41C89.0074 13.72 89.3182 13.9746 89.6722 14.157C90.0783 14.3468 90.5219 14.4453 90.9712 14.4453C91.4205 14.4453 91.8642 14.3468 92.2702 14.157C92.6243 13.9746 92.935 13.72 93.1818 13.41C93.4232 13.1001 93.6054 12.7494 93.7196 12.375C93.8351 11.9985 93.8934 11.6073 93.8928 11.214C93.8941 10.8265 93.8357 10.4411 93.7196 10.071C93.6033 9.70024 93.4212 9.35284 93.1818 9.04499C92.9372 8.73524 92.6258 8.48315 92.2702 8.30699C91.8625 8.12313 91.4195 8.02797 90.9712 8.02797C90.523 8.02797 90.08 8.12313 89.6722 8.30699C89.3166 8.48315 89.0053 8.73524 88.7606 9.04499C88.5212 9.35284 88.3391 9.70024 88.2228 10.071C88.1068 10.4411 88.0484 10.8265 88.0496 11.214Z" fill="black"/>
<path d="M98.7607 6.29095H101.176V7.94695C101.44 7.38715 101.845 6.90367 102.352 6.54295C102.865 6.18062 103.482 5.99123 104.112 6.00296H104.431C104.53 6.00969 104.628 6.02781 104.722 6.05695V8.33396C104.582 8.29551 104.439 8.26545 104.294 8.24395H103.948C103.465 8.22297 102.986 8.33185 102.562 8.55895C102.238 8.74397 101.958 8.99567 101.742 9.29695C101.556 9.57085 101.424 9.87587 101.35 10.197C101.286 10.4353 101.25 10.6797 101.24 10.926V16.245H98.7242L98.7607 6.29095Z" fill="black"/>
<path d="M106.327 0.576172H108.843V10.4762H108.907L112.726 6.29117H115.953L111.596 10.7912L116.227 16.2362H112.89L108.907 11.1422H108.843V16.2362H106.327V0.576172Z" fill="black"/>
<path d="M123.72 1.48486H129.499C130.058 1.48788 130.615 1.55432 131.158 1.68286C131.68 1.80462 132.175 2.02131 132.617 2.32186C133.079 2.64058 133.454 3.06874 133.705 3.56716C133.957 4.06558 134.078 4.61834 134.057 5.17486C134.088 5.92143 133.831 6.65182 133.337 7.21786C132.851 7.76576 132.22 8.16803 131.514 8.37887C132.361 8.50304 133.144 8.89455 133.747 9.49486C134.053 9.80847 134.291 10.1798 134.448 10.5865C134.604 10.9933 134.676 11.4271 134.659 11.8619C134.682 12.5643 134.515 13.2603 134.176 13.8779C133.864 14.4084 133.43 14.8586 132.908 15.1919C132.348 15.5344 131.731 15.778 131.085 15.9119C130.405 16.0558 129.712 16.1282 129.016 16.1279H123.72V1.48486ZM126.354 7.45186H128.706C129.417 7.50045 130.125 7.31706 130.721 6.92986C130.947 6.75871 131.129 6.53588 131.25 6.28042C131.37 6.02495 131.426 5.74444 131.413 5.46286C131.438 5.18554 131.385 4.90686 131.259 4.65754C131.134 4.40822 130.941 4.19793 130.702 4.04986C130.006 3.7365 129.242 3.59741 128.478 3.64486H126.354V7.45186ZM126.354 13.9499H128.724C129.09 13.9465 129.455 13.9225 129.818 13.8779C130.189 13.8293 130.551 13.7294 130.894 13.5809C131.219 13.4291 131.501 13.2003 131.714 12.9149C131.949 12.5736 132.064 12.1659 132.042 11.7539C132.076 11.438 132.019 11.119 131.877 10.834C131.735 10.5489 131.514 10.3093 131.24 10.1429C130.491 9.79047 129.662 9.6325 128.834 9.68387H126.354V13.9499Z" fill="black"/>
<path d="M136.655 0.495117H139.217V16.1461H136.701L136.655 0.495117Z" fill="black"/>
<path d="M141.122 11.1328C141.113 10.3973 141.259 9.66789 141.55 8.99082C141.824 8.37575 142.221 7.82166 142.717 7.36182C143.221 6.9002 143.813 6.54224 144.458 6.30882C145.14 6.05689 145.863 5.93178 146.591 5.93982C147.322 5.93273 148.048 6.05779 148.734 6.30882C149.377 6.54643 149.968 6.90392 150.475 7.36182C150.967 7.82984 151.361 8.38965 151.632 9.00882C151.921 9.68858 152.07 10.4183 152.07 11.1553C152.07 11.8924 151.921 12.6221 151.632 13.3018C151.363 13.9277 150.969 14.4938 150.475 14.9668C149.972 15.4389 149.381 15.8089 148.734 16.0558C148.051 16.3201 147.324 16.4545 146.591 16.4518C145.861 16.4553 145.137 16.3209 144.458 16.0558C143.809 15.8132 143.217 15.4427 142.717 14.9668C142.217 14.4968 141.819 13.93 141.55 13.3018C141.258 12.6157 141.112 11.8772 141.122 11.1328ZM143.683 11.1328C143.683 11.5261 143.741 11.9174 143.857 12.2938C143.971 12.6682 144.153 13.0189 144.394 13.3288C144.641 13.6388 144.952 13.8934 145.306 14.0758C145.707 14.2753 146.152 14.3742 146.6 14.3638C147.052 14.3757 147.5 14.2767 147.904 14.0758C148.258 13.8934 148.569 13.6388 148.816 13.3288C149.054 13.0184 149.233 12.6677 149.344 12.2938C149.463 11.9178 149.524 11.5266 149.527 11.1328C149.524 10.742 149.463 10.3538 149.344 9.98082C149.233 9.61251 149.054 9.2677 148.816 8.96382C148.571 8.65407 148.26 8.40197 147.904 8.22582C147.499 8.02802 147.052 7.93217 146.6 7.94682C146.152 7.93366 145.708 8.02947 145.306 8.22582C144.95 8.40197 144.639 8.65407 144.394 8.96382C144.153 9.26723 143.971 9.61202 143.857 9.98082C143.741 10.3542 143.683 10.7425 143.683 11.1328Z" fill="black"/>
<path d="M153.383 11.133C153.372 10.3964 153.522 9.66612 153.82 8.99101C154.094 8.37826 154.487 7.82473 154.978 7.362C155.485 6.9041 156.076 6.54662 156.719 6.30901C158.101 5.81692 159.613 5.81692 160.994 6.30901C161.641 6.5375 162.233 6.8952 162.733 7.35977C163.234 7.82433 163.632 8.38577 163.902 9.00901C164.473 10.3845 164.473 11.9265 163.902 13.302C163.63 13.9284 163.233 14.4945 162.735 14.967C162.236 15.4429 161.644 15.8134 160.994 16.056C159.619 16.5839 158.094 16.5839 156.719 16.056C156.072 15.8091 155.48 15.4391 154.978 14.967C154.475 14.4904 154.075 13.9178 153.802 13.284C153.51 12.6044 153.367 11.8712 153.383 11.133ZM155.944 11.133C155.942 11.5271 156.004 11.919 156.127 12.294C156.238 12.6679 156.417 13.0186 156.655 13.329C156.902 13.639 157.213 13.8936 157.567 14.076C157.973 14.2658 158.417 14.3643 158.866 14.3643C159.315 14.3643 159.759 14.2658 160.165 14.076C160.519 13.8936 160.83 13.639 161.076 13.329C161.318 13.0191 161.5 12.6684 161.614 12.294C161.73 11.9176 161.788 11.5263 161.787 11.133C161.788 10.7426 161.73 10.3544 161.614 9.98101C161.5 9.6122 161.318 9.26742 161.076 8.964C160.832 8.65425 160.52 8.40216 160.165 8.226C159.757 8.04214 159.314 7.94699 158.866 7.94699C158.418 7.94699 157.975 8.04214 157.567 8.226C157.211 8.40216 156.9 8.65425 156.655 8.964C156.417 9.26789 156.238 9.6127 156.127 9.98101C156.004 10.3529 155.942 10.7419 155.944 11.133Z" fill="black"/>
<path d="M176.473 16.1461H174.076V14.6521C173.733 15.2262 173.225 15.6868 172.617 15.9751C171.995 16.2821 171.307 16.4394 170.612 16.4341C169.902 16.444 169.198 16.2996 168.551 16.0111C167.96 15.7402 167.432 15.351 167.002 14.8681C166.566 14.3788 166.232 13.8102 166.017 13.1941C165.551 11.8617 165.551 10.4135 166.017 9.08112C166.244 8.47221 166.584 7.91056 167.02 7.42512C167.455 6.95655 167.983 6.57997 168.57 6.31812C169.192 6.04663 169.867 5.91153 170.548 5.92212C170.963 5.91404 171.378 5.96558 171.778 6.07512C172.112 6.16177 172.433 6.28873 172.736 6.45312C172.988 6.59457 173.223 6.76363 173.437 6.95712C173.613 7.11415 173.775 7.28578 173.921 7.47012H173.984V0.495117H176.5L176.473 16.1461ZM168.187 11.1331C168.189 11.5269 168.251 11.9181 168.369 12.2941C168.48 12.668 168.659 13.0187 168.898 13.3291C169.145 13.6391 169.455 13.8937 169.809 14.0761C170.208 14.2741 170.649 14.373 171.095 14.3641C171.522 14.3721 171.944 14.2763 172.325 14.0851C172.674 13.8984 172.983 13.648 173.237 13.3471C173.494 13.0438 173.692 12.6959 173.82 12.3211C173.954 11.9545 174.022 11.5677 174.021 11.1781C174.028 10.7998 173.972 10.4229 173.857 10.0621C173.726 9.68547 173.529 9.33492 173.273 9.02712C173.018 8.72586 172.709 8.47279 172.362 8.28012C171.982 8.08585 171.559 7.98694 171.131 7.99212C170.686 7.98043 170.245 8.07621 169.846 8.27112C169.49 8.44727 169.179 8.69937 168.934 9.00912C168.696 9.313 168.517 9.65781 168.405 10.0261C168.279 10.3829 168.206 10.7557 168.187 11.1331Z" fill="black"/>
<path d="M195.407 4.92282C195.03 4.40398 194.511 4.0014 193.912 3.76182C192.64 3.26353 191.221 3.28295 189.964 3.81582C189.35 4.08381 188.798 4.47276 188.342 4.95883C187.881 5.44782 187.525 6.0232 187.294 6.65082C187.044 7.32849 186.921 8.04493 186.929 8.76583C186.92 9.51245 187.04 10.2551 187.284 10.9618C187.502 11.5905 187.846 12.1692 188.296 12.6628C188.742 13.1378 189.282 13.5177 189.882 13.7788C190.541 14.0467 191.249 14.1784 191.961 14.1658C192.694 14.18 193.419 14.0194 194.076 13.6978C194.664 13.4138 195.173 12.994 195.562 12.4738L197.686 13.9408C197.038 14.746 196.212 15.3928 195.27 15.8308C194.224 16.3014 193.083 16.5322 191.933 16.5058C190.843 16.5183 189.76 16.3259 188.743 15.9388C187.806 15.5858 186.953 15.0443 186.239 14.3486C185.525 13.653 184.965 12.8184 184.595 11.8978C184.199 10.9004 184.001 9.83709 184.012 8.76583C183.997 7.6762 184.208 6.5951 184.632 5.58882C185.02 4.6766 185.597 3.85491 186.327 3.17682C187.065 2.50233 187.933 1.98192 188.88 1.64682C189.899 1.27989 190.976 1.09698 192.061 1.10682C192.562 1.1091 193.063 1.15427 193.556 1.24182C194.065 1.32888 194.562 1.46762 195.042 1.65582C195.512 1.8398 195.961 2.07208 196.382 2.34882C196.792 2.61625 197.153 2.9511 197.449 3.33882L195.407 4.92282Z" fill="black"/>
<path d="M208.406 11.3042V11.6282C208.415 11.739 208.415 11.8504 208.406 11.9612H200.758C200.779 12.3045 200.875 12.6391 201.04 12.9422C201.196 13.2389 201.413 13.4997 201.678 13.7072C201.951 13.9272 202.259 14.1006 202.59 14.2202C202.925 14.3431 203.28 14.4041 203.638 14.4002C204.189 14.4182 204.737 14.3039 205.233 14.0672C205.657 13.8369 206.022 13.5136 206.3 13.1222L207.977 14.4452C207.479 15.1023 206.823 15.6278 206.069 15.9747C205.316 16.3217 204.487 16.4795 203.656 16.4342C202.92 16.4393 202.189 16.3175 201.496 16.0742C200.865 15.8456 200.286 15.497 199.791 15.0482C199.297 14.5945 198.911 14.0381 198.661 13.4192C198.378 12.7277 198.238 11.987 198.251 11.2412C198.241 10.4927 198.38 9.74955 198.661 9.05417C198.895 8.41963 199.265 7.84247 199.746 7.36217C200.225 6.889 200.799 6.52097 201.432 6.28217C202.103 6.02575 202.818 5.89748 203.538 5.90417C204.2 5.89656 204.858 6.00944 205.48 6.23717C206.061 6.46217 206.587 6.80915 207.02 7.25417C207.469 7.73822 207.814 8.30789 208.032 8.92817C208.296 9.69266 208.422 10.4967 208.406 11.3042ZM205.89 10.1792C205.89 9.8741 205.844 9.5707 205.753 9.27917C205.664 8.99631 205.515 8.73548 205.315 8.51417C205.111 8.28702 204.859 8.10594 204.577 7.98317C204.241 7.85174 203.881 7.7875 203.52 7.79417C202.817 7.77307 202.132 8.01042 201.596 8.46017C201.333 8.67197 201.117 8.93442 200.96 9.23152C200.803 9.52861 200.71 9.85411 200.685 10.1882L205.89 10.1792Z" fill="black"/>
<path d="M210.32 6.20979H212.708V7.80279H212.754C213.002 7.25864 213.4 6.79408 213.902 6.46179C214.48 6.07627 215.165 5.87808 215.862 5.89479C216.443 5.87745 217.02 5.99135 217.549 6.22779C217.998 6.43859 218.394 6.74613 218.706 7.12779C219.012 7.50456 219.236 7.93967 219.363 8.40579C219.506 8.89111 219.576 9.39438 219.572 9.89979V16.1098H217.057V10.6378C217.057 10.3367 217.035 10.0359 216.993 9.73779C216.965 9.42365 216.875 9.11793 216.728 8.83779C216.584 8.58735 216.385 8.37206 216.145 8.20779C215.852 8.03228 215.512 7.94763 215.17 7.96479C214.806 7.95357 214.445 8.0341 214.121 8.19879C213.84 8.35012 213.595 8.55872 213.401 8.81079C213.201 9.08102 213.056 9.38653 212.973 9.71079C212.874 10.0318 212.825 10.3655 212.827 10.7008V16.1638H210.32V6.20979Z" fill="black"/>
<path d="M220.958 8.19908V6.21008H222.717V3.33008H225.197V6.21008H227.713V8.19908H225.197V12.8071C225.183 13.1867 225.265 13.5638 225.434 13.9051C225.598 14.2021 225.954 14.3461 226.519 14.3461C226.699 14.3446 226.879 14.3265 227.057 14.2921C227.238 14.2598 227.415 14.2085 227.585 14.1391L227.667 16.0831C227.409 16.1714 227.144 16.2376 226.874 16.2811C226.573 16.3276 226.268 16.3517 225.963 16.3531C225.405 16.3698 224.85 16.2749 224.331 16.0741C223.938 15.9092 223.595 15.6455 223.337 15.3091C223.086 14.9754 222.912 14.5914 222.827 14.1841C222.733 13.7401 222.687 13.2876 222.69 12.8341V8.19908H220.958Z" fill="black"/>
<path d="M239.035 11.3038V11.6278C239.044 11.7386 239.044 11.85 239.035 11.9608H231.387C231.408 12.3041 231.505 12.6387 231.669 12.9418C231.828 13.2366 232.045 13.4968 232.307 13.7068C232.58 13.9268 232.888 14.1002 233.219 14.2198C233.554 14.3427 233.91 14.4037 234.267 14.3998C234.819 14.4178 235.366 14.3035 235.863 14.0668C236.287 13.8365 236.652 13.5132 236.929 13.1218L238.579 14.4448C238.08 15.1019 237.425 15.6274 236.671 15.9743C235.918 16.3213 235.089 16.4791 234.258 16.4338C233.522 16.4376 232.792 16.3158 232.098 16.0738C231.461 15.8473 230.875 15.4986 230.375 15.0478C229.882 14.5925 229.497 14.0366 229.244 13.4188C228.961 12.7273 228.822 11.9866 228.834 11.2408C228.824 10.4923 228.964 9.74914 229.244 9.05376C229.499 8.4187 229.884 7.84258 230.375 7.36176C230.855 6.89066 231.43 6.52294 232.061 6.28176C232.733 6.02534 233.447 5.89708 234.167 5.90376C234.83 5.89533 235.488 6.00823 236.109 6.23676C236.699 6.46472 237.231 6.81807 237.668 7.27176C238.12 7.75531 238.467 8.32495 238.688 8.94576C238.936 9.70731 239.053 10.5042 239.035 11.3038ZM236.519 10.1788C236.519 9.87369 236.473 9.57029 236.382 9.27876C236.293 8.99799 236.147 8.73783 235.954 8.51376C235.744 8.28838 235.489 8.10769 235.206 7.98276C234.87 7.85133 234.51 7.78709 234.149 7.79376C233.446 7.77266 232.761 8.01001 232.225 8.45976C231.971 8.6756 231.763 8.93985 231.614 9.23674C231.465 9.53363 231.379 9.85707 231.359 10.1878L236.519 10.1788Z" fill="black"/>
<path d="M241.359 6.20984H243.766V7.86584H243.812C244.069 7.31039 244.464 6.82766 244.96 6.46184C245.49 6.08564 246.131 5.89552 246.783 5.92184H247.102C247.201 5.92109 247.3 5.93629 247.394 5.96684V8.26184L246.966 8.18084H246.619C246.138 8.15755 245.659 8.26329 245.234 8.48684C244.927 8.65088 244.658 8.87533 244.443 9.14627C244.229 9.4172 244.072 9.72884 243.985 10.0618C243.921 10.3002 243.885 10.5446 243.875 10.7908V16.1098H241.359V6.20984Z" fill="black"/>
<path d="M17.4477 13.8417L17.2289 13.4277L11.5953 4.04975L9.46222 7.55075L12.6801 12.8697L12.8077 13.1487C13.382 13.9497 13.0174 14.4897 12.1605 14.3997H9.00643H8.79677H5.63358C4.86785 14.4897 4.6035 13.8507 4.97724 13.1487L5.10487 12.8697L11.4859 2.28575C11.7138 2.28575 11.8688 2.22275 11.9053 2.16875C11.9417 2.11475 11.2763 1.52075 10.3191 0.944747C9.36195 0.368747 8.49595 -0.117253 8.34098 0.0447473C8.18601 0.206747 8.34098 0.251746 8.43214 0.449746L0.519614 13.5447L0.382877 13.8327C0.163801 14.1804 0.0401967 14.5784 0.0242316 14.9876C0.00826646 15.3967 0.100489 15.8029 0.291825 16.1662C0.483161 16.5295 0.767013 16.8373 1.11544 17.0594C1.46387 17.2815 1.86487 17.4101 2.27897 17.4327H15.5242C15.8223 17.4339 16.1177 17.3771 16.3936 17.2656C16.6694 17.1541 16.9203 16.99 17.1319 16.7827C17.3435 16.5755 17.5117 16.3291 17.6269 16.0577C17.7421 15.7862 17.802 15.495 17.8032 15.2007C17.7897 14.7271 17.6682 14.2626 17.4477 13.8417Z" fill="#FC1921"/>
<path d="M6.90979 12.0061C6.88762 12.2604 6.92049 12.5165 7.00622 12.7573C7.09195 12.9981 7.22857 13.2182 7.40703 13.4029C7.58548 13.5876 7.80169 13.7327 8.04129 13.8286C8.28089 13.9245 8.53842 13.969 8.79676 13.9591C9.04816 13.979 9.30101 13.9472 9.53933 13.8658C9.77764 13.7843 9.99624 13.6548 10.1813 13.4857C10.3664 13.3165 10.5139 13.1112 10.6145 12.8829C10.7151 12.6546 10.7666 12.4081 10.7658 12.1591C10.7666 11.8132 10.6788 11.4726 10.5105 11.1691L10.31 10.8091L8.86057 8.37012L7.25619 10.9081C7.03374 11.2325 6.91323 11.6144 6.90979 12.0061Z" fill="#FC1921"/>
</g>
<defs>
<clipPath id="clip0_2276_18269">
<rect width="247.358" height="17.487" fill="white"/>
</clipPath>
</defs>
</svg>
