<svg width="16" height="16" viewBox="0 0 16 16" fill="none" xmlns="http://www.w3.org/2000/svg">
<path d="M13.335 2.00049H2.665C2.48904 2.0018 2.32065 2.07228 2.19622 2.19671C2.07179 2.32114 2.00131 2.48952 2 2.66549V13.3355C2.00131 13.5115 2.07179 13.6798 2.19622 13.8043C2.32065 13.9287 2.48904 13.9992 2.665 14.0005H8.41V9.36049H6.85V7.54549H8.41V6.21049C8.41 4.66049 9.355 3.81549 10.745 3.81549C11.21 3.81549 11.675 3.81549 12.14 3.88549V5.50049H11.185C10.43 5.50049 10.285 5.86049 10.285 6.38549V7.54049H12.085L11.85 9.35549H10.285V14.0005H13.335C13.511 13.9992 13.6794 13.9287 13.8038 13.8043C13.9282 13.6798 13.9987 13.5115 14 13.3355V2.66549C13.9987 2.48952 13.9282 2.32114 13.8038 2.19671C13.6794 2.07228 13.511 2.0018 13.335 2.00049V2.00049Z" fill="white"/>
</svg>