<svg width="24" height="24" viewBox="0 0 24 24" fill="none" xmlns="http://www.w3.org/2000/svg">
<path fill-rule="evenodd" clip-rule="evenodd" d="M14.6517 15.4017C13.9484 16.1049 12.9946 16.5 12 16.5C11.0054 16.5 10.0516 16.1049 9.34835 15.4017C8.64509 14.6984 8.25 13.7446 8.25 12.75V5.25C8.25 4.25544 8.64509 3.30161 9.34835 2.59835C10.0516 1.89509 11.0054 1.5 12 1.5C12.9946 1.5 13.9484 1.89509 14.6517 2.59835C15.3549 3.30161 15.75 4.25544 15.75 5.25V12.75C15.75 13.7446 15.3549 14.6984 14.6517 15.4017ZM10.409 3.65901C9.98705 4.08097 9.75 4.65326 9.75 5.25V12.75C9.75 13.3467 9.98705 13.919 10.409 14.341C10.831 14.7629 11.4033 15 12 15C12.5967 15 13.169 14.7629 13.591 14.341C14.0129 13.919 14.25 13.3467 14.25 12.75V5.25C14.25 4.65326 14.0129 4.08097 13.591 3.65901C13.169 3.23705 12.5967 3 12 3C11.4033 3 10.831 3.23705 10.409 3.65901ZM17.25 12.75V10.5H18.75V12.75C18.7492 14.4098 18.1369 16.0111 17.0301 17.248C15.9233 18.4849 14.3995 19.2706 12.75 19.455V21H15.75V22.5H8.25V21H11.25V19.455C9.60048 19.2706 8.07674 18.4849 6.96991 17.248C5.86309 16.0111 5.25079 14.4098 5.25 12.75V10.5H6.75V12.75C6.75 14.1424 7.30312 15.4777 8.28769 16.4623C9.27226 17.4469 10.6076 18 12 18C13.3924 18 14.7277 17.4469 15.7123 16.4623C16.6969 15.4777 17.25 14.1424 17.25 12.75Z" fill="#0C2D83"/>
</svg>
