<svg width="64" height="64" viewBox="0 0 64 64" fill="none" xmlns="http://www.w3.org/2000/svg">
<path d="M17.0027 12.832C16.1776 12.831 15.3707 13.0747 14.6841 13.5323C13.9975 13.99 13.4622 14.641 13.1457 15.403C12.8292 16.165 12.7458 17.0037 12.9062 17.8131C13.0665 18.6225 13.4633 19.3661 14.0463 19.9499C14.6294 20.5337 15.3725 20.9315 16.1817 21.0928C16.9909 21.2542 17.8297 21.1719 18.5921 20.8564C19.3545 20.5409 20.0062 20.0063 20.4647 19.3204C20.9233 18.6344 21.168 17.8278 21.168 17.0027C21.168 15.8975 20.7293 14.8375 19.9483 14.0555C19.1673 13.2735 18.1079 12.8334 17.0027 12.832ZM17.0027 19.4987C16.5075 19.4998 16.0231 19.3538 15.611 19.0794C15.1988 18.8049 14.8774 18.4143 14.6874 17.9571C14.4974 17.4998 14.4475 16.9964 14.5438 16.5107C14.6401 16.025 14.8785 15.5788 15.2286 15.2287C15.5788 14.8785 16.0249 14.6402 16.5107 14.5438C16.9964 14.4475 17.4997 14.4975 17.957 14.6875C18.4143 14.8774 18.8049 15.1989 19.0793 15.611C19.3538 16.0232 19.4997 16.5075 19.4987 17.0027C19.4973 17.6642 19.2338 18.2983 18.766 18.7661C18.2983 19.2339 17.6642 19.4973 17.0027 19.4987Z" fill="#1E2A3A"/>
<path d="M57.0027 17.8346V16.1653H54.4533C54.2928 14.76 53.7381 13.4288 52.8533 12.3253L55.088 10.0906L53.9093 8.91198L51.6747 11.1466C50.5712 10.2618 49.2399 9.70715 47.8347 9.54665V6.99731H46.1653V9.54665C44.76 9.70715 43.4288 10.2618 42.3253 11.1466L40.0907 8.91198L38.9333 10.0906L41.168 12.3253C40.2832 13.4288 39.7285 14.76 39.568 16.1653H37.0027V17.8346H39.5467C39.7072 19.2399 40.2618 20.5712 41.1467 21.6746L36.6773 26.1333C35.5732 25.2461 34.2396 24.6911 32.832 24.5333V22H31.168V24.5333C29.7604 24.6911 28.4267 25.2461 27.3227 26.1333L22.8533 21.664C23.7381 20.5605 24.2928 19.2293 24.4533 17.824H26.9973V16.1653H24.4533C24.2928 14.76 23.7381 13.4288 22.8533 12.3253L25.0667 10.0906L23.888 8.91198L21.6747 11.1466C20.5712 10.2618 19.2399 9.70715 17.8346 9.54665V6.99731H16.1653V9.54665C14.76 9.70715 13.4288 10.2618 12.3253 11.1466L10.0906 8.91198L8.91198 10.0906L11.1466 12.3253C10.2618 13.4288 9.70715 14.76 9.54665 16.1653H6.99731V17.8346H9.54665C9.70715 19.2399 10.2618 20.5712 11.1466 21.6746L8.91198 23.9093L10.0906 25.0666L12.3253 22.832C13.4288 23.7168 14.76 24.2715 16.1653 24.432V26.976H17.8346V24.4533C19.2399 24.2928 20.5712 23.7381 21.6747 22.8533L26.1333 27.3226C25.2461 28.4267 24.6911 29.7604 24.5333 31.168H22V32.832H24.5333C24.6911 34.2396 25.2461 35.5732 26.1333 36.6773L21.664 41.1466C20.5605 40.2618 19.2293 39.7072 17.824 39.5466V37.0026H16.1653V39.5466C14.76 39.7072 13.4288 40.2618 12.3253 41.1466L10.0906 38.9333L8.91198 40.112L11.1466 42.3466C10.2618 43.4501 9.70715 44.7814 9.54665 46.1866H6.99731V47.856H9.54665C9.70715 49.2613 10.2618 50.5925 11.1466 51.696L8.91198 53.9306L10.0906 55.1093L12.3253 52.8746C13.4288 53.7595 14.76 54.3141 16.1653 54.4746V57.024H17.8346V54.4533C19.2399 54.2928 20.5712 53.7381 21.6747 52.8533L23.9093 55.088L25.0667 53.9093L22.832 51.6746C23.7168 50.5712 24.2715 49.2399 24.432 47.8346H26.976V46.1653H24.4533C24.2928 44.76 23.7381 43.4288 22.8533 42.3253L27.3227 37.8666C28.4267 38.7539 29.7604 39.3088 31.168 39.4667V42.016H32.832V39.4667C34.2396 39.3088 35.5732 38.7539 36.6773 37.8666L41.1467 42.336C40.2618 43.4395 39.7072 44.7707 39.5467 46.176H37.0027V47.8453H39.5467C39.7072 49.2506 40.2618 50.5818 41.1467 51.6853L38.9333 53.9093L40.112 55.088L42.3467 52.8533C43.4501 53.7381 44.7814 54.2928 46.1867 54.4533V57.0026H47.856V54.4533C49.2613 54.2928 50.5925 53.7381 51.696 52.8533L53.9307 55.088L55.1093 53.9093L52.8533 51.6746C53.7381 50.5712 54.2928 49.2399 54.4533 47.8346H57.0027V46.1653H54.4533C54.2928 44.76 53.7381 43.4288 52.8533 42.3253L55.088 40.0906L53.9093 38.9333L51.6747 41.168C50.5712 40.2832 49.2399 39.7285 47.8347 39.568V37.0026H46.1653V39.5466C44.76 39.7072 43.4288 40.2618 42.3253 41.1466L37.8667 36.6773C38.7539 35.5732 39.3088 34.2396 39.4667 32.832H42.016V31.168H39.4667C39.3088 29.7604 38.7539 28.4267 37.8667 27.3226L42.336 22.8533C43.4395 23.7381 44.7707 24.2928 46.176 24.4533V26.9973H47.8453V24.4533C49.2506 24.2928 50.5818 23.7381 51.6853 22.8533L53.9093 25.0666L55.088 23.888L52.8533 21.6746C53.7381 20.5712 54.2928 19.2399 54.4533 17.8346H57.0027ZM17.0026 22.832C15.8482 22.833 14.7194 22.4916 13.7591 21.8509C12.7988 21.2102 12.0501 20.299 11.6078 19.2326C11.1655 18.1662 11.0495 16.9926 11.2745 15.8603C11.4995 14.728 12.0553 13.6879 12.8716 12.8716C13.6879 12.0553 14.728 11.4995 15.8603 11.2745C16.9927 11.0495 18.1662 11.1655 19.2326 11.6078C20.299 12.0501 21.2102 12.7988 21.8509 13.7591C22.4916 14.7194 22.833 15.8482 22.832 17.0026C22.832 18.5487 22.2178 20.0314 21.1246 21.1246C20.0314 22.2178 18.5487 22.832 17.0026 22.832ZM17.0026 52.832C15.8484 52.833 14.7198 52.4917 13.7596 51.8513C12.7994 51.2108 12.0507 50.2999 11.6083 49.2338C11.1659 48.1678 11.0496 46.9945 11.2741 45.8623C11.4986 44.7301 12.0539 43.69 12.8697 42.8735C13.6855 42.0569 14.7251 41.5007 15.8571 41.2752C16.989 41.0496 18.1625 41.1648 19.2289 41.6063C20.2954 42.0477 21.2069 42.7956 21.8483 43.7552C22.4897 44.7148 22.832 45.8431 22.832 46.9973C22.8327 47.7633 22.6824 48.5219 22.3898 49.2297C22.0971 49.9376 21.6679 50.5809 21.1265 51.1227C20.5851 51.6646 19.9423 52.0945 19.2347 52.3877C18.5271 52.681 17.7686 52.832 17.0026 52.832ZM46.9973 41.168C48.1518 41.1669 49.2806 41.5084 50.2409 42.1491C51.2012 42.7898 51.9499 43.701 52.3922 44.7674C52.8344 45.8337 52.9504 47.0073 52.7255 48.1396C52.5005 49.2719 51.9447 50.3121 51.1284 51.1284C50.3121 51.9447 49.2719 52.5005 48.1396 52.7255C47.0073 52.9504 45.8337 52.8344 44.7674 52.3922C43.701 51.9499 42.7898 51.2012 42.1491 50.2409C41.5084 49.2806 41.1669 48.1518 41.168 46.9973C41.168 45.4513 41.7821 43.9686 42.8754 42.8754C43.9686 41.7821 45.4513 41.168 46.9973 41.168ZM32 37.8347C30.846 37.8347 29.7179 37.4925 28.7584 36.8513C27.7989 36.2102 27.0511 35.299 26.6095 34.2328C26.1678 33.1667 26.0523 31.9935 26.2774 30.8617C26.5026 29.7299 27.0583 28.6902 27.8743 27.8743C28.6902 27.0583 29.7299 26.5026 30.8617 26.2774C31.9935 26.0523 33.1667 26.1678 34.2328 26.6095C35.299 27.0511 36.2102 27.7989 36.8513 28.7584C37.4925 29.7179 37.8347 30.846 37.8347 32C37.8347 33.5474 37.2199 35.0315 36.1257 36.1257C35.0315 37.2199 33.5474 37.8347 32 37.8347ZM46.9973 22.832C45.8431 22.832 44.7148 22.4896 43.7552 21.8483C42.7956 21.2069 42.0477 20.2954 41.6063 19.2289C41.1648 18.1625 41.0496 16.989 41.2752 15.8571C41.5007 14.7251 42.0569 13.6855 42.8735 12.8697C43.69 12.0539 44.7301 11.4986 45.8623 11.2741C46.9945 11.0496 48.1678 11.1659 49.2338 11.6083C50.2999 12.0507 51.2108 12.7994 51.8513 13.7596C52.4917 14.7198 52.833 15.8484 52.832 17.0026C52.832 17.7686 52.681 18.5271 52.3877 19.2347C52.0945 19.9423 51.6646 20.5851 51.1227 21.1265C50.5809 21.6679 49.9376 22.0971 49.2297 22.3898C48.5219 22.6824 47.7633 22.8327 46.9973 22.832Z" fill="#1E2A3A"/>
<path d="M19.4985 17.0026C19.4985 17.4975 19.3517 17.9813 19.0766 18.3928C18.8015 18.8042 18.4105 19.1248 17.9532 19.314C17.4958 19.5032 16.9926 19.5524 16.5072 19.4554C16.0219 19.3585 15.5762 19.1197 15.2266 18.7694C14.877 18.419 14.6392 17.9728 14.5433 17.4873C14.4474 17.0017 14.4976 16.4986 14.6878 16.0416C14.8779 15.5847 15.1994 15.1944 15.6114 14.9202C16.0234 14.646 16.5076 14.5002 17.0025 14.5012C17.665 14.5026 18.2998 14.7668 18.7678 15.2357C19.2357 15.7047 19.4985 16.3401 19.4985 17.0026Z" fill="#FE444A"/>
<path d="M46.9973 12.832C46.1725 12.832 45.3661 13.0766 44.6802 13.5349C43.9944 13.9932 43.4598 14.6446 43.1441 15.4067C42.8285 16.1687 42.7459 17.0073 42.9068 17.8164C43.0677 18.6254 43.4649 19.3685 44.0482 19.9518C44.6315 20.5351 45.3746 20.9323 46.1837 21.0932C46.9927 21.2542 47.8313 21.1716 48.5934 20.8559C49.3555 20.5402 50.0068 20.0057 50.4651 19.3198C50.9234 18.6339 51.168 17.8276 51.168 17.0027C51.168 15.8966 50.7286 14.8357 49.9464 14.0536C49.1643 13.2714 48.1035 12.832 46.9973 12.832ZM46.9973 19.4987C46.5024 19.4987 46.0186 19.3519 45.6071 19.0768C45.1957 18.8017 44.8751 18.4107 44.6859 17.9533C44.4967 17.496 44.4475 16.9928 44.5445 16.5074C44.6414 16.0221 44.8802 15.5764 45.2305 15.2268C45.5809 14.8772 46.0271 14.6394 46.5126 14.5434C46.9982 14.4475 47.5013 14.4978 47.9582 14.688C48.4152 14.8781 48.8055 15.1995 49.0797 15.6116C49.3539 16.0236 49.4997 16.5078 49.4987 17.0027C49.4973 17.6652 49.2331 18.3 48.7642 18.768C48.2952 19.2359 47.6598 19.4987 46.9973 19.4987Z" fill="#1E2A3A"/>
<path d="M49.4988 17.0026C49.4988 17.4973 49.3521 17.9809 49.0772 18.3922C48.8024 18.8036 48.4117 19.1242 47.9547 19.3135C47.4976 19.5028 46.9947 19.5523 46.5094 19.4558C46.0242 19.3593 45.5785 19.1211 45.2287 18.7713C44.8789 18.4214 44.6407 17.9758 44.5442 17.4905C44.4476 17.0053 44.4972 16.5024 44.6865 16.0453C44.8758 15.5883 45.1964 15.1976 45.6078 14.9228C46.0191 14.6479 46.5027 14.5012 46.9974 14.5012C47.6608 14.5012 48.2971 14.7648 48.7661 15.2338C49.2352 15.7029 49.4988 16.3392 49.4988 17.0026Z" fill="#FE444A"/>
<path d="M32.0001 27.8347C31.1762 27.8347 30.3709 28.079 29.6859 28.5367C29.0009 28.9944 28.467 29.6449 28.1518 30.406C27.8365 31.1672 27.754 32.0047 27.9148 32.8127C28.0755 33.6207 28.4722 34.3629 29.0547 34.9454C29.6372 35.5279 30.3794 35.9246 31.1874 36.0854C31.9954 36.2461 32.8329 36.1636 33.5941 35.8483C34.3552 35.5331 35.0057 34.9992 35.4634 34.3142C35.9211 33.6292 36.1654 32.8239 36.1654 32.0001C36.1654 31.4531 36.0576 30.9114 35.8483 30.406C35.639 29.9007 35.3322 29.4415 34.9454 29.0547C34.5586 28.6679 34.0994 28.3611 33.5941 28.1518C33.0887 27.9425 32.547 27.8347 32.0001 27.8347ZM32.0001 34.5014C31.5053 34.5014 31.0217 34.3547 30.6104 34.0798C30.199 33.805 29.8784 33.4143 29.6891 32.9573C29.4998 32.5002 29.4503 31.9973 29.5468 31.5121C29.6433 31.0269 29.8815 30.5812 30.2313 30.2313C30.5812 29.8815 31.0269 29.6433 31.5121 29.5468C31.9973 29.4503 32.5002 29.4998 32.9573 29.6891C33.4143 29.8784 33.805 30.199 34.0798 30.6104C34.3547 31.0217 34.5014 31.5053 34.5014 32.0001C34.5014 32.6634 34.2379 33.2997 33.7688 33.7688C33.2997 34.2379 32.6634 34.5014 32.0001 34.5014Z" fill="#1E2A3A"/>
<path d="M31.9999 34.5012C33.3813 34.5012 34.5012 33.3813 34.5012 31.9999C34.5012 30.6184 33.3813 29.4985 31.9999 29.4985C30.6184 29.4985 29.4985 30.6184 29.4985 31.9999C29.4985 33.3813 30.6184 34.5012 31.9999 34.5012Z" fill="#FE444A"/>
<path d="M17.0027 42.832C16.1773 42.831 15.3702 43.0748 14.6836 43.5327C13.9969 43.9906 13.4615 44.6419 13.1452 45.4042C12.8288 46.1665 12.7458 47.0055 12.9065 47.8151C13.0673 48.6246 13.4646 49.3682 14.0482 49.9518C14.6318 50.5354 15.3755 50.9327 16.185 51.0935C16.9945 51.2542 17.8335 51.1712 18.5958 50.8549C19.3581 50.5385 20.0095 50.0032 20.4673 49.3165C20.9252 48.6298 21.169 47.8227 21.168 46.9974C21.1666 45.8931 20.7273 44.8344 19.9464 44.0536C19.1656 43.2727 18.1069 42.8334 17.0027 42.832ZM17.0027 49.4987C16.5077 49.4998 16.0236 49.354 15.6115 49.0797C15.1995 48.8055 14.8781 48.4153 14.6879 47.9583C14.4978 47.5013 14.4475 46.9982 14.5434 46.5127C14.6393 46.0271 14.8771 45.5809 15.2267 45.2306C15.5763 44.8802 16.022 44.6414 16.5074 44.5445C16.9927 44.4475 17.4959 44.4968 17.9533 44.6859C18.4107 44.8751 18.8016 45.1957 19.0767 45.6071C19.3518 46.0186 19.4987 46.5024 19.4987 46.9974C19.4987 47.6598 19.2359 48.2953 18.7679 48.7642C18.3 49.2331 17.6651 49.4973 17.0027 49.4987Z" fill="#1E2A3A"/>
<path d="M19.4988 46.9972C19.4998 47.4924 19.3539 47.9767 19.0794 48.3889C18.805 48.8011 18.4144 49.1225 17.9571 49.3125C17.4998 49.5024 16.9965 49.5524 16.5107 49.4561C16.025 49.3597 15.5789 49.1214 15.2287 48.7713C14.8786 48.4211 14.6402 47.9749 14.5439 47.4892C14.4476 47.0035 14.4975 46.5002 14.6875 46.0429C14.8775 45.5856 15.1989 45.195 15.6111 44.9206C16.0232 44.6461 16.5076 44.5002 17.0028 44.5012C17.6643 44.5026 18.2984 44.7661 18.7661 45.2338C19.2339 45.7016 19.4973 46.3357 19.4988 46.9972Z" fill="#FE444A"/>
<path d="M46.9973 42.832C46.1722 42.832 45.3657 43.0768 44.6797 43.5353C43.9937 43.9938 43.4591 44.6455 43.1436 45.4079C42.8281 46.1703 42.7458 47.0091 42.9072 47.8183C43.0685 48.6275 43.4663 49.3706 44.0501 49.9537C44.6339 50.5368 45.3776 50.9336 46.1869 51.0939C46.9963 51.2542 47.8351 51.1709 48.5971 50.8544C49.3591 50.5379 50.0101 50.0025 50.4677 49.3159C50.9253 48.6294 51.1691 47.8225 51.168 46.9974C51.168 46.4499 51.0601 45.9078 50.8504 45.4021C50.6408 44.8964 50.3335 44.437 49.9461 44.0501C49.5588 43.6633 49.0989 43.3566 48.593 43.1476C48.087 42.9386 47.5448 42.8313 46.9973 42.832ZM46.9973 49.4987C46.5026 49.4987 46.019 49.352 45.6077 49.0772C45.1963 48.8023 44.8757 48.4116 44.6864 47.9546C44.4971 47.4975 44.4475 46.9946 44.5441 46.5094C44.6406 46.0242 44.8788 45.5785 45.2286 45.2287C45.5784 44.8788 46.0241 44.6406 46.5093 44.5441C46.9946 44.4476 47.4975 44.4971 47.9545 44.6864C48.4116 44.8758 48.8023 45.1964 49.0771 45.6077C49.352 46.019 49.4987 46.5027 49.4987 46.9974C49.4987 47.6608 49.2351 48.297 48.766 48.7661C48.2969 49.2352 47.6607 49.4987 46.9973 49.4987Z" fill="#1E2A3A"/>
<path d="M49.4988 46.9972C49.4998 47.4922 49.354 47.9763 49.0798 48.3883C48.8056 48.8004 48.4153 49.1218 47.9583 49.312C47.5014 49.5021 46.9983 49.5524 46.5127 49.4565C46.0272 49.3606 45.581 49.1228 45.2306 48.7732C44.8803 48.4235 44.6415 47.9779 44.5445 47.4925C44.4476 47.0071 44.4968 46.5039 44.686 46.0466C44.8751 45.5892 45.1957 45.1982 45.6072 44.9231C46.0187 44.6481 46.5025 44.5012 46.9974 44.5012C47.6599 44.5012 48.2953 44.764 48.7643 45.232C49.2332 45.6999 49.4973 46.3348 49.4988 46.9972Z" fill="#FE444A"/>
</svg>
