<svg width="64" height="64" viewBox="0 0 64 64" fill="none" xmlns="http://www.w3.org/2000/svg">
<path d="M29.4989 16.1654C28.9129 16.1701 28.3387 16.3303 27.8349 16.6294V11.1681C27.835 10.5628 27.6705 9.96898 27.3587 9.4502C27.047 8.93143 26.5999 8.50731 26.0655 8.22335C25.531 7.9394 24.9293 7.80631 24.3249 7.83838C23.7205 7.87045 23.1363 8.06647 22.6349 8.40539C22.4111 7.75216 21.9888 7.18517 21.427 6.78374C20.8652 6.38231 20.192 6.1665 19.5015 6.1665C18.811 6.1665 18.1378 6.38231 17.576 6.78374C17.0142 7.18517 16.5919 7.75216 16.3682 8.40539C15.8668 8.06647 15.2825 7.87045 14.6782 7.83838C14.0738 7.80631 13.4721 7.9394 12.9376 8.22335C12.4031 8.50731 11.956 8.93143 11.6443 9.4502C11.3326 9.96898 11.168 10.5628 11.1682 11.1681V11.6321C10.6641 11.3288 10.0871 11.1685 9.49886 11.1681C8.61481 11.1681 7.76696 11.5192 7.14184 12.1444C6.51672 12.7695 6.16553 13.6173 6.16553 14.5014V19.0827C6.17812 24.4005 7.90227 29.573 11.0829 33.8347C11.1378 33.9068 11.1678 33.9948 11.1682 34.0854V57.0187C11.1682 57.2394 11.2559 57.451 11.4119 57.607C11.5679 57.7631 11.7795 57.8507 12.0002 57.8507H26.9975C27.1072 57.8514 27.216 57.8304 27.3176 57.7889C27.4191 57.7474 27.5115 57.6863 27.5893 57.6089C27.6671 57.5316 27.7289 57.4396 27.771 57.3384C27.8132 57.2371 27.8349 57.1284 27.8349 57.0187V34.0854C27.8337 33.9954 27.8618 33.9074 27.9149 33.8347L28.1655 33.4987C31.1861 29.4553 32.8226 24.5458 32.8322 19.4987C32.8322 18.6147 32.481 17.7668 31.8559 17.1417C31.2308 16.5166 30.3829 16.1654 29.4989 16.1654V16.1654ZM26.8322 32.5014L26.5815 32.8321C26.3138 33.1953 26.1681 33.6341 26.1655 34.0854V56.1654H12.8322V34.0854C12.8334 33.6335 12.6873 33.1936 12.4162 32.8321C9.45023 28.8609 7.84365 24.0393 7.83486 19.0827V14.5014C7.82203 14.2746 7.85562 14.0476 7.93357 13.8342C8.01153 13.6208 8.13222 13.4256 8.28824 13.2605C8.44427 13.0954 8.63235 12.9639 8.84097 12.874C9.04959 12.7841 9.27436 12.7377 9.50153 12.7377C9.72869 12.7377 9.95346 12.7841 10.1621 12.874C10.3707 12.9639 10.5588 13.0954 10.7148 13.2605C10.8708 13.4256 10.9915 13.6208 11.0695 13.8342C11.1474 14.0476 11.181 14.2746 11.1682 14.5014V22.0001H12.8322V11.1681C12.8194 10.9413 12.8529 10.7142 12.9309 10.5009C13.0089 10.2875 13.1296 10.0923 13.2856 9.92718C13.4416 9.76207 13.6297 9.63055 13.8383 9.54066C14.0469 9.45077 14.2717 9.40441 14.4989 9.40441C14.726 9.40441 14.9508 9.45077 15.1594 9.54066C15.368 9.63055 15.5561 9.76207 15.7121 9.92718C15.8682 10.0923 15.9889 10.2875 16.0668 10.5009C16.1448 10.7142 16.1784 10.9413 16.1655 11.1681V22.0001H17.8349V9.49873C17.859 9.073 18.045 8.67263 18.355 8.37976C18.6649 8.08689 19.0751 7.92371 19.5015 7.92371C19.9279 7.92371 20.3382 8.08689 20.6481 8.37976C20.958 8.67263 21.1441 9.073 21.1682 9.49873V22.0001H22.8322V11.1681C22.8194 10.9413 22.853 10.7142 22.9309 10.5009C23.0089 10.2875 23.1296 10.0923 23.2856 9.92718C23.4416 9.76207 23.6297 9.63055 23.8383 9.54066C24.0469 9.45077 24.2717 9.40441 24.4989 9.40441C24.726 9.40441 24.9508 9.45077 25.1594 9.54066C25.368 9.63055 25.5561 9.76207 25.7121 9.92718C25.8682 10.0923 25.9889 10.2875 26.0668 10.5009C26.1448 10.7142 26.1784 10.9413 26.1655 11.1681V22.9014C24.7801 23.109 23.5148 23.8054 22.5982 24.8648C21.6816 25.9242 21.1744 27.2766 21.1682 28.6774V29.5094H22.8322V28.6667C22.8336 27.5624 23.2729 26.5038 24.0538 25.7229C24.8346 24.9421 25.8932 24.5028 26.9975 24.5014C27.1072 24.5021 27.216 24.4811 27.3176 24.4396C27.4191 24.3981 27.5115 24.3369 27.5893 24.2596C27.6671 24.1823 27.7289 24.0903 27.771 23.989C27.8132 23.8877 27.8349 23.7791 27.8349 23.6694V19.4987C27.859 19.073 28.045 18.6726 28.355 18.3798C28.6649 18.0869 29.0751 17.9237 29.5015 17.9237C29.9279 17.9237 30.3382 18.0869 30.6481 18.3798C30.958 18.6726 31.1441 19.073 31.1682 19.4987C31.1579 24.1863 29.6374 28.7458 26.8322 32.5014V32.5014Z" fill="#1E2A3A"/>
<path d="M43.6694 44.5014H42.832V25.3334C42.832 25.1127 42.7444 24.9011 42.5883 24.7451C42.4323 24.589 42.2207 24.5014 42 24.5014H41.168V22.0001C41.168 21.8903 41.1463 21.7817 41.1042 21.6804C41.062 21.5791 41.0003 21.4872 40.9225 21.4098C40.8446 21.3325 40.7523 21.2713 40.6507 21.2298C40.5492 21.1883 40.4404 21.1673 40.3307 21.1681H39.4987V17.8347H37.8347V21.1681H37.0027C36.893 21.1673 36.7842 21.1883 36.6827 21.2298C36.5811 21.2713 36.4888 21.3325 36.4109 21.4098C36.3331 21.4872 36.2713 21.5791 36.2292 21.6804C36.1871 21.7817 36.1654 21.8903 36.1654 22.0001V24.5014H35.3334C35.1127 24.5014 34.9011 24.589 34.745 24.7451C34.589 24.9011 34.5014 25.1127 34.5014 25.3334V44.5014H33.664C33.4434 44.5014 33.2317 44.589 33.0757 44.7451C32.9197 44.9011 32.832 45.1127 32.832 45.3334V48.6667C32.832 48.8874 32.9197 49.099 33.0757 49.255C33.2317 49.4111 33.4434 49.4987 33.664 49.4987H36.1654V52.832H35.3334C35.1127 52.832 34.9011 52.9197 34.745 53.0757C34.589 53.2318 34.5014 53.4434 34.5014 53.6641V57.0027C34.5014 57.2234 34.589 57.435 34.745 57.591C34.9011 57.7471 35.1127 57.8347 35.3334 57.8347H42C42.2207 57.8347 42.4323 57.7471 42.5883 57.591C42.7444 57.435 42.832 57.2234 42.832 57.0027V53.6641C42.832 53.4434 42.7444 53.2318 42.5883 53.0757C42.4323 52.9197 42.2207 52.832 42 52.832H41.168V49.4987H43.6694C43.89 49.4987 44.1016 49.4111 44.2577 49.255C44.4137 49.099 44.5014 48.8874 44.5014 48.6667V45.3334C44.5014 45.1127 44.4137 44.9011 44.2577 44.7451C44.1016 44.589 43.89 44.5014 43.6694 44.5014V44.5014ZM37.8347 22.8321H39.4987V24.5014H37.8347V22.8321ZM36.1654 26.1654H41.168V27.8347H37.8347V29.4987H41.168V31.1681H39.4987V32.8321H41.168V34.5014H37.8347V36.1654H41.168V37.8347H39.4987V39.4987H41.168V41.1681H37.8347V42.8321H41.168V44.5014H36.1654V26.1654ZM41.168 56.1654H36.1654V54.5014H41.168V56.1654ZM39.4987 52.832H37.8347V49.4987H39.4987V52.832ZM42.832 47.8347H34.5014V46.1654H42.832V47.8347Z" fill="#1E2A3A"/>
<path d="M23.6695 41.168H15.3335C15.1128 41.168 14.9012 41.2556 14.7452 41.4117C14.5891 41.5677 14.5015 41.7793 14.5015 42V46.9973C14.5008 47.107 14.5218 47.2158 14.5633 47.3173C14.6048 47.4189 14.6659 47.5112 14.7433 47.5891C14.8206 47.6669 14.9126 47.7287 15.0139 47.7708C15.1151 47.8129 15.2238 47.8346 15.3335 47.8346H23.6695C23.7792 47.8346 23.8878 47.8129 23.9891 47.7708C24.0904 47.7287 24.1824 47.6669 24.2597 47.5891C24.337 47.5112 24.3982 47.4189 24.4397 47.3173C24.4812 47.2158 24.5022 47.107 24.5015 46.9973V42C24.5015 41.7793 24.4138 41.5677 24.2578 41.4117C24.1018 41.2556 23.8901 41.168 23.6695 41.168V41.168ZM22.8322 46.1653H16.1655V42.832H22.8322V46.1653Z" fill="#1E2A3A"/>
<path d="M22.8322 42.832H16.1655V46.1654H22.8322V42.832Z" fill="#FE444A"/>
<path d="M57.0028 22.832H45.3335C45.2238 22.832 45.1151 22.8537 45.0139 22.8959C44.9126 22.938 44.8206 22.9998 44.7433 23.0776C44.6659 23.1554 44.6048 23.2478 44.5633 23.3493C44.5218 23.4509 44.5008 23.5597 44.5015 23.6694V26.9974C44.5008 27.1071 44.5218 27.2158 44.5633 27.3174C44.6048 27.419 44.6659 27.5113 44.7433 27.5891C44.8206 27.667 44.9126 27.7287 45.0139 27.7709C45.1151 27.813 45.2238 27.8347 45.3335 27.8347H46.1655V52.832C46.1436 53.5024 46.2567 54.1703 46.4981 54.796C46.7395 55.4218 47.1043 55.9926 47.5708 56.4745C48.0372 56.9565 48.5958 57.3397 49.2134 57.6014C49.8309 57.8631 50.4948 57.998 51.1655 57.998C51.8362 57.998 52.5 57.8631 53.1176 57.6014C53.7351 57.3397 54.2937 56.9565 54.7602 56.4745C55.2266 55.9926 55.5914 55.4218 55.8328 54.796C56.0743 54.1703 56.1874 53.5024 56.1655 52.832V27.8347H57.0028C57.1125 27.8347 57.2211 27.813 57.3224 27.7709C57.4237 27.7287 57.5157 27.667 57.593 27.5891C57.6704 27.5113 57.7315 27.419 57.773 27.3174C57.8145 27.2158 57.8355 27.1071 57.8348 26.9974V23.6694C57.8355 23.5597 57.8145 23.4509 57.773 23.3493C57.7315 23.2478 57.6704 23.1554 57.593 23.0776C57.5157 22.9998 57.4237 22.938 57.3224 22.8959C57.2211 22.8537 57.1125 22.832 57.0028 22.832V22.832ZM47.8348 46.1654H49.4988V44.5014H47.8348V42.832H49.4988V41.168H47.8348V39.4987H49.4988V37.8347H47.8348V36.1654H49.4988V34.5014H47.8348V32.832H51.1681V47.8347H47.8348V46.1654ZM54.5015 52.832C54.5015 53.7161 54.1503 54.5639 53.5252 55.1891C52.9001 55.8142 52.0522 56.1654 51.1681 56.1654C50.2841 56.1654 49.4362 55.8142 48.8111 55.1891C48.186 54.5639 47.8348 53.7161 47.8348 52.832V49.4987H52.0001C52.2208 49.4987 52.4324 49.411 52.5885 49.255C52.7445 49.099 52.8321 48.8874 52.8321 48.6667V32C52.8321 31.7794 52.7445 31.5677 52.5885 31.4117C52.4324 31.2557 52.2208 31.168 52.0001 31.168H47.8348V27.8347H54.5015V52.832ZM56.1655 26.1654H46.1655V24.5014H56.1655V26.1654Z" fill="#1E2A3A"/>
<path d="M54.7791 12.3628L51.9151 6.62944C51.8398 6.49873 51.7314 6.39017 51.6008 6.31469C51.4702 6.23921 51.322 6.19946 51.1711 6.19946C51.0203 6.19946 50.8721 6.23921 50.7415 6.31469C50.6109 6.39017 50.5024 6.49873 50.4271 6.62944L47.5578 12.3628C47.2036 13.0942 47.0211 13.8968 47.0245 14.7094V14.8321C47.025 15.8706 47.3331 16.8858 47.9098 17.7494C48.2717 18.2884 48.7607 18.7301 49.3337 19.0355C49.9066 19.3409 50.5459 19.5006 51.1951 19.5006C51.8444 19.5006 52.4836 19.3409 53.0566 19.0355C53.6295 18.7301 54.1185 18.2884 54.4805 17.7494C55.0525 16.8859 55.3585 15.8733 55.3605 14.8374V14.7201C55.3518 13.8999 55.1528 13.0929 54.7791 12.3628V12.3628ZM53.6645 14.8321C53.6677 15.5399 53.4597 16.2325 53.0671 16.8214C52.9014 17.0712 52.6881 17.2857 52.4394 17.4528C52.1906 17.6199 51.9113 17.7363 51.6175 17.7953C51.3237 17.8542 51.0212 17.8546 50.7272 17.7964C50.4332 17.7382 50.1536 17.6226 49.9045 17.4561C49.6536 17.2879 49.438 17.0723 49.2698 16.8214C48.8756 16.233 48.6658 15.5404 48.6671 14.8321V14.7094C48.6663 14.1538 48.796 13.6058 49.0458 13.1094L51.1791 8.84278L53.3125 13.1094C53.5623 13.6058 53.692 14.1538 53.6911 14.7094L53.6645 14.8321Z" fill="#1E2A3A"/>
<path d="M53.6643 14.7094V14.8321C53.6676 15.5399 53.4596 16.2325 53.067 16.8214C52.9013 17.0711 52.688 17.2857 52.4393 17.4528C52.1905 17.6199 51.9112 17.7363 51.6174 17.7952C51.3236 17.8542 51.021 17.8546 50.7271 17.7964C50.4331 17.7382 50.1535 17.6226 49.9043 17.4561C49.6535 17.2879 49.4379 17.0723 49.2697 16.8214C48.8755 16.233 48.6657 15.5404 48.667 14.8321V14.7094C48.6661 14.1538 48.7959 13.6057 49.0457 13.1094L51.179 8.84277L53.3123 13.1094C53.5529 13.608 53.6735 14.1559 53.6643 14.7094V14.7094Z" fill="#FE444A"/>
</svg>
