<svg width="80" height="80" viewBox="0 0 80 80" fill="none" xmlns="http://www.w3.org/2000/svg">
<path d="M71.2533 7.70665H44.1667C43.8908 7.70665 43.6263 7.81622 43.4313 8.01126C43.2362 8.2063 43.1267 8.47082 43.1267 8.74665V37.92C43.1267 38.1958 43.2362 38.4603 43.4313 38.6554C43.6263 38.8504 43.8908 38.96 44.1667 38.96H57.7067V62.92C57.6695 63.7234 57.3243 64.4816 56.7426 65.037C56.1609 65.5924 55.3876 65.9023 54.5833 65.9023C53.7791 65.9023 53.0058 65.5924 52.4241 65.037C51.8424 64.4816 51.4971 63.7234 51.46 62.92V54.5866C51.46 53.4816 51.021 52.4218 50.2396 51.6404C49.4582 50.859 48.3984 50.42 47.2933 50.42C46.1883 50.42 45.1285 50.859 44.3471 51.6404C43.5657 52.4218 43.1267 53.4816 43.1267 54.5866V58.7467C43.1267 59.3001 42.9068 59.8308 42.5155 60.2221C42.1242 60.6135 41.5934 60.8333 41.04 60.8333H36.8733V52.5C36.8733 52.2242 36.7638 51.9596 36.5687 51.7646C36.3737 51.5696 36.1092 51.46 35.8333 51.46H34.7933V42.6066C34.7919 42.4941 34.827 42.3842 34.8933 42.2933L35.2067 41.8733C38.9824 36.8191 41.0281 30.6822 41.04 24.3733C41.0461 23.6403 40.8572 22.9188 40.4925 22.2828C40.1279 21.6469 39.6007 21.1193 38.9649 20.7543C38.3292 20.3893 37.6078 20.1999 36.8747 20.2056C36.1417 20.2113 35.4233 20.4118 34.7933 20.7866V13.96C34.7936 13.2035 34.5878 12.4611 34.1982 11.8127C33.8085 11.1642 33.2497 10.634 32.5816 10.2791C31.9135 9.92415 31.1613 9.7578 30.4059 9.79789C29.6504 9.83798 28.9201 10.083 28.2933 10.5066C28.0137 9.6901 27.4858 8.98137 26.7836 8.47958C26.0813 7.9778 25.2398 7.70804 24.3767 7.70804C23.5136 7.70804 22.672 7.9778 21.9698 8.47958C21.2675 8.98137 20.7397 9.6901 20.46 10.5066C19.8332 10.083 19.1029 9.83798 18.3475 9.79789C17.592 9.7578 16.8399 9.92415 16.1718 10.2791C15.5037 10.634 14.9448 11.1642 14.5552 11.8127C14.1655 12.4611 13.9598 13.2035 13.96 13.96V14.54C13.3299 14.161 12.6086 13.9605 11.8733 13.96C10.7683 13.96 9.70846 14.399 8.92705 15.1804C8.14565 15.9618 7.70667 17.0216 7.70667 18.1266V23.8533C7.71909 30.5011 9.87462 36.9677 13.8533 42.2933C13.9221 42.3834 13.9595 42.4934 13.96 42.6066V51.46H12.92C12.7829 51.4591 12.6469 51.4854 12.52 51.5372C12.393 51.5891 12.2776 51.6656 12.1803 51.7622C12.083 51.8589 12.0058 51.9738 11.9531 52.1004C11.9004 52.2271 11.8733 52.3628 11.8733 52.5V55.6267H10.8333C10.5575 55.6267 10.293 55.7362 10.0979 55.9313C9.9029 56.1263 9.79333 56.3908 9.79333 56.6666V67.08C9.79245 67.2171 9.8187 67.3531 9.87057 67.48C9.92245 67.607 9.99891 67.7224 10.0956 67.8197C10.1922 67.917 10.3072 67.9942 10.4338 68.0469C10.5604 68.0995 10.6962 68.1267 10.8333 68.1266H11.8733V71.2533C11.8733 71.3904 11.9004 71.5262 11.9531 71.6528C12.0058 71.7795 12.083 71.8944 12.1803 71.9911C12.2776 72.0877 12.393 72.1642 12.52 72.2161C12.6469 72.2679 12.7829 72.2942 12.92 72.2933H35.8333C36.1092 72.2933 36.3737 72.1837 36.5687 71.9887C36.7638 71.7937 36.8733 71.5291 36.8733 71.2533V62.92H41.04C41.5877 62.92 42.1301 62.812 42.6361 62.6022C43.142 62.3924 43.6016 62.0849 43.9886 61.6972C44.3756 61.3096 44.6824 60.8495 44.8914 60.3432C45.1004 59.8369 45.2075 59.2944 45.2067 58.7467V54.5866C45.1906 54.3031 45.2326 54.0194 45.3301 53.7526C45.4275 53.4859 45.5784 53.2419 45.7734 53.0355C45.9684 52.8292 46.2035 52.6648 46.4643 52.5524C46.7251 52.44 47.006 52.3821 47.29 52.3821C47.574 52.3821 47.8549 52.44 48.1157 52.5524C48.3765 52.6648 48.6116 52.8292 48.8066 53.0355C49.0016 53.2419 49.1525 53.4859 49.2499 53.7526C49.3474 54.0194 49.3894 54.3031 49.3733 54.5866V62.92C49.4216 64.2695 49.9917 65.5476 50.9635 66.4853C51.9352 67.4229 53.2329 67.9469 54.5833 67.9469C55.9337 67.9469 57.2314 67.4229 58.2032 66.4853C59.175 65.5476 59.7451 64.2695 59.7933 62.92V38.96H71.2533C71.5292 38.96 71.7937 38.8504 71.9887 38.6554C72.1838 38.4603 72.2933 38.1958 72.2933 37.92V8.74665C72.2933 8.47082 72.1838 8.2063 71.9887 8.01126C71.7937 7.81622 71.5292 7.70665 71.2533 7.70665ZM9.79333 23.8533V18.1266C9.77729 17.8431 9.81928 17.5594 9.91672 17.2926C10.0142 17.0259 10.165 16.7819 10.3601 16.5755C10.5551 16.3692 10.7902 16.2048 11.051 16.0924C11.3117 15.98 11.5927 15.9221 11.8767 15.9221C12.1606 15.9221 12.4416 15.98 12.7024 16.0924C12.9631 16.2048 13.1982 16.3692 13.3933 16.5755C13.5883 16.7819 13.7392 17.0259 13.8366 17.2926C13.9341 17.5594 13.976 17.8431 13.96 18.1266V27.5H16.04V13.96C16.024 13.6765 16.0659 13.3927 16.1634 13.126C16.2608 12.8593 16.4117 12.6153 16.6067 12.4089C16.8018 12.2025 17.0369 12.0381 17.2976 11.9257C17.5584 11.8134 17.8394 11.7554 18.1233 11.7554C18.4073 11.7554 18.6883 11.8134 18.949 11.9257C19.2098 12.0381 19.4449 12.2025 19.6399 12.4089C19.835 12.6153 19.9858 12.8593 20.0833 13.126C20.1807 13.3927 20.2227 13.6765 20.2067 13.96V27.5H22.2933V11.8733C22.3234 11.3412 22.5561 10.8407 22.9435 10.4746C23.3309 10.1085 23.8437 9.90455 24.3767 9.90455C24.9097 9.90455 25.4225 10.1085 25.8099 10.4746C26.1973 10.8407 26.4299 11.3412 26.46 11.8733V27.5H28.54V13.96C28.524 13.6765 28.5659 13.3927 28.6634 13.126C28.7608 12.8593 28.9117 12.6153 29.1067 12.4089C29.3018 12.2025 29.5369 12.0381 29.7976 11.9257C30.0584 11.8134 30.3394 11.7554 30.6233 11.7554C30.9073 11.7554 31.1883 11.8134 31.449 11.9257C31.7098 12.0381 31.9449 12.2025 32.1399 12.4089C32.335 12.6153 32.4858 12.8593 32.5833 13.126C32.6807 13.3927 32.7227 13.6765 32.7067 13.96V28.6266C30.9749 28.8861 29.3932 29.7567 28.2475 31.0809C27.1018 32.4051 26.4677 34.0956 26.46 35.8466V36.8866H28.54V35.8333C28.5418 34.453 29.0909 33.1297 30.0669 32.1536C31.043 31.1775 32.3663 30.6284 33.7467 30.6266C33.8838 30.6275 34.0198 30.6013 34.1467 30.5494C34.2737 30.4975 34.3891 30.4211 34.4864 30.3244C34.5837 30.2277 34.6609 30.1128 34.7135 29.9862C34.7662 29.8596 34.7933 29.7238 34.7933 29.5866V24.3733C34.8234 23.8412 35.0561 23.3407 35.4435 22.9746C35.8309 22.6085 36.3437 22.4045 36.8767 22.4045C37.4097 22.4045 37.9225 22.6085 38.3099 22.9746C38.6973 23.3407 38.9299 23.8412 38.96 24.3733C38.9471 30.2328 37.0465 35.9322 33.54 40.6266L33.2267 41.04C32.892 41.4941 32.7099 42.0426 32.7067 42.6066V51.46H16.04V42.6066C16.0414 42.0418 15.8589 41.4919 15.52 41.04C11.8125 36.076 9.80432 30.049 9.79333 23.8533ZM11.8733 66.04V57.7066H13.96V66.04H11.8733ZM34.7933 70.2066H13.96V68.1266H31.6667C31.8038 68.1267 31.9396 68.0995 32.0662 68.0469C32.1928 67.9942 32.3078 67.917 32.4044 67.8197C32.5011 67.7224 32.5775 67.607 32.6294 67.48C32.6813 67.3531 32.7075 67.2171 32.7067 67.08V62.92H34.7933V70.2066ZM16.04 66.04V57.7066H18.1267V66.04H16.04ZM20.2067 66.04V57.7066H22.2933V66.04H20.2067ZM24.3733 66.04V57.7066H26.46V66.04H24.3733ZM28.54 66.04V57.7066H30.6267V66.04H28.54ZM34.7933 60.8333H32.7067V56.6666C32.7067 56.5301 32.6798 56.3948 32.6275 56.2687C32.5752 56.1425 32.4986 56.0278 32.4021 55.9313C32.3055 55.8347 32.1908 55.7581 32.0647 55.7058C31.9385 55.6535 31.8032 55.6267 31.6667 55.6267H13.96V53.54H34.7933V60.8333ZM70.2067 36.8733H45.2067V30.6266H70.2067V36.8733ZM70.2067 28.54H45.2067V9.79332H70.2067V28.54Z" fill="#1E2A3A"/>
<path d="M67.08 11.8733H48.3334C48.1962 11.8733 48.0604 11.9004 47.9338 11.9531C47.8072 12.0058 47.6923 12.083 47.5956 12.1803C47.4989 12.2776 47.4225 12.393 47.3706 12.5199C47.3187 12.6469 47.2925 12.7828 47.2934 12.92V25.4133C47.2925 25.5504 47.3187 25.6864 47.3706 25.8134C47.4225 25.9403 47.4989 26.0557 47.5956 26.153C47.6923 26.2503 47.8072 26.3275 47.9338 26.3802C48.0604 26.4329 48.1962 26.46 48.3334 26.46H67.08C67.2175 26.46 67.3536 26.4329 67.4806 26.3803C67.6075 26.3277 67.7229 26.2506 67.8201 26.1534C67.9173 26.0562 67.9944 25.9408 68.047 25.8139C68.0996 25.6869 68.1267 25.5508 68.1267 25.4133V12.92C68.1267 12.6424 68.0164 12.3762 67.8201 12.1799C67.6238 11.9836 67.3576 11.8733 67.08 11.8733ZM66.04 24.3733H49.3734V22.2933H52.5C52.7753 22.2915 53.0387 22.1813 53.2334 21.9866L56.6667 18.5533L60.1 22C60.2946 22.1947 60.5581 22.3048 60.8334 22.3066H66.04V24.3733ZM66.04 20.2066H61.2667L57.4 16.3466C57.304 16.2499 57.1897 16.1731 57.0639 16.1207C56.938 16.0683 56.803 16.0413 56.6667 16.0413C56.5304 16.0413 56.3954 16.0683 56.2695 16.1207C56.1437 16.1731 56.0294 16.2499 55.9334 16.3466L52.0667 20.2066H49.4V13.96H66.0667L66.04 20.2066Z" fill="#1E2A3A"/>
<path d="M66.04 22.2933V24.3733H49.3733V22.2933H52.5C52.7752 22.2915 53.0387 22.1813 53.2333 21.9866L56.6666 18.5533L60.1 22C60.2946 22.1947 60.558 22.3048 60.8333 22.3066L66.04 22.2933Z" fill="#FE444A"/>
<path d="M49.38 32.7066H47.2933V34.7933H49.38V32.7066Z" fill="#1E2A3A"/>
<path d="M53.5466 32.7066H51.46V34.7933H53.5466V32.7066Z" fill="#1E2A3A"/>
<path d="M68.1267 32.7066H66.04V34.7933H68.1267V32.7066Z" fill="#1E2A3A"/>
</svg>
