<svg width="80" height="80" viewBox="0 0 80 80" fill="none" xmlns="http://www.w3.org/2000/svg">
<path d="M71.2533 34.7933H61.2133C62.9851 32.7769 63.9615 30.1842 63.96 27.5C63.9597 25.2569 63.2938 23.0644 62.0467 21.2L53.38 8.17332C53.2947 8.05987 53.1879 7.96435 53.0656 7.89222C52.9434 7.82009 52.8081 7.77277 52.6676 7.75295C52.527 7.73314 52.3839 7.74123 52.2465 7.77675C52.1091 7.81227 51.98 7.87454 51.8667 7.95998C51.7824 8.01885 51.7081 8.09088 51.6467 8.17332L42.98 21.2C41.7328 23.0644 41.0669 25.2569 41.0667 27.5C41.0639 30.1844 42.0405 32.7776 43.8133 34.7933H33.7467C33.4708 34.7933 33.2063 34.9029 33.0113 35.0979C32.8162 35.293 32.7067 35.5575 32.7067 35.8333V38.96H28.54V35.8333C28.54 35.5575 28.4304 35.293 28.2354 35.0979C28.0404 34.9029 27.7758 34.7933 27.5 34.7933H26.46V32.7067C26.46 31.6016 26.021 30.5418 25.2396 29.7604C24.4582 28.979 23.3984 28.54 22.2933 28.54C21.1883 28.54 20.1285 28.979 19.3471 29.7604C18.5657 30.5418 18.1267 31.6016 18.1267 32.7067V34.7933H17.08C16.8042 34.7933 16.5396 34.9029 16.3446 35.0979C16.1496 35.293 16.04 35.5575 16.04 35.8333V38.96H15C13.0689 38.9705 11.2199 39.7423 9.85444 41.1078C8.48895 42.4733 7.71717 44.3222 7.70667 46.2533V62.92C7.70843 63.7481 8.03863 64.5416 8.6248 65.1266C9.21097 65.7115 10.0052 66.04 10.8333 66.04H16.1267C16.3747 67.7745 17.2401 69.3614 18.5639 70.5094C19.8877 71.6573 21.5811 72.2893 23.3333 72.2893C25.0855 72.2893 26.779 71.6573 28.1028 70.5094C29.4266 69.3614 30.2919 67.7745 30.54 66.04H51.54C51.7932 67.7715 52.661 69.354 53.9848 70.4983C55.3087 71.6427 57.0001 72.2724 58.75 72.2724C60.4999 72.2724 62.1913 71.6427 63.5152 70.4983C64.839 69.354 65.7068 67.7715 65.96 66.04H71.2533C71.5292 66.04 71.7937 65.9304 71.9887 65.7354C72.1838 65.5403 72.2933 65.2758 72.2933 65V35.8333C72.2933 35.5575 72.1838 35.293 71.9887 35.0979C71.7937 34.9029 71.5292 34.7933 71.2533 34.7933ZM20.2067 32.7067C20.2368 32.1745 20.4694 31.674 20.8568 31.3079C21.2442 30.9418 21.757 30.7379 22.29 30.7379C22.823 30.7379 23.3358 30.9418 23.7232 31.3079C24.1106 31.674 24.3432 32.1745 24.3733 32.7067V34.7933H20.2067V32.7067ZM18.1267 36.8733H26.46V38.96H18.1267V36.8733ZM23.3333 70.2067C22.3035 70.2067 21.2969 69.9013 20.4407 69.3292C19.5844 68.7571 18.9171 67.9439 18.523 66.9925C18.1289 66.0411 18.0258 64.9942 18.2267 63.9842C18.4276 62.9742 18.9235 62.0465 19.6517 61.3183C20.3798 60.5901 21.3076 60.0943 22.3176 59.8934C23.3276 59.6925 24.3744 59.7956 25.3258 60.1897C26.2772 60.5837 27.0904 61.2511 27.6625 62.1073C28.2346 62.9635 28.54 63.9702 28.54 65C28.54 66.3809 27.9914 67.7052 27.015 68.6817C26.0386 69.6581 24.7142 70.2067 23.3333 70.2067ZM32.7067 63.96H30.54C30.2919 62.2254 29.4266 60.6385 28.1028 59.4906C26.779 58.3427 25.0855 57.7107 23.3333 57.7107C21.5811 57.7107 19.8877 58.3427 18.5639 59.4906C17.2401 60.6385 16.3747 62.2254 16.1267 63.96H10.8333C10.5575 63.96 10.293 63.8504 10.0979 63.6554C9.9029 63.4603 9.79333 63.1958 9.79333 62.92V46.2533C9.79333 44.8718 10.3417 43.5468 11.3179 42.5693C12.2942 41.5918 13.6185 41.0418 15 41.04H32.7067V63.96ZM43.1267 27.5C43.1186 25.6697 43.6546 23.8783 44.6667 22.3533L52.5 10.6266L60.3133 22.3466C61.3316 23.8723 61.8744 25.6657 61.8733 27.5C61.8742 28.6862 61.6389 29.8606 61.181 30.9549C60.7232 32.0491 60.052 33.0412 59.2067 33.8733L58.8467 34.2333C57.1563 35.9236 54.8638 36.8732 52.4733 36.8732C50.0829 36.8732 47.7903 35.9236 46.1 34.2333L45.74 33.88C44.9041 33.0422 44.2427 32.047 43.7941 30.9518C43.3455 29.8567 43.1186 28.6834 43.1267 27.5ZM58.7467 70.2067C57.7172 70.2053 56.7112 69.8989 55.8558 69.3259C55.0005 68.753 54.3342 67.9394 53.9411 66.9879C53.548 66.0364 53.4459 64.9897 53.6475 63.9801C53.8492 62.9706 54.3456 62.0435 55.074 61.316C55.8025 60.5885 56.7302 60.0932 57.74 59.8929C58.7498 59.6925 59.7964 59.796 60.7474 60.1903C61.6984 60.5846 62.5112 61.2519 63.083 62.108C63.6548 62.9641 63.96 63.9705 63.96 65C63.96 65.6843 63.8251 66.3619 63.563 66.994C63.301 67.6262 62.9168 68.2004 62.4326 68.684C61.9485 69.1676 61.3737 69.551 60.7412 69.8122C60.1087 70.0735 59.431 70.2075 58.7467 70.2067ZM70.2067 63.96H65.96C65.7068 62.2285 64.839 60.646 63.5152 59.5016C62.1913 58.3573 60.4999 57.7276 58.75 57.7276C57.0001 57.7276 55.3087 58.3573 53.9848 59.5016C52.661 60.646 51.7932 62.2285 51.54 63.96H34.7933V36.8733H46.04C47.9214 38.2284 50.1814 38.9576 52.5 38.9576C54.8186 38.9576 57.0786 38.2284 58.96 36.8733H70.2067V63.96Z" fill="#1E2A3A"/>
<path d="M60.3134 22.3466L52.5 10.6266L44.6667 22.3533C43.6475 23.8761 43.1045 25.6676 43.1067 27.5C43.1057 28.6872 43.3409 29.8627 43.7987 30.958C44.2566 32.0534 44.9278 33.0467 45.7734 33.88L46.1334 34.2333C47.8237 35.9236 50.1162 36.8732 52.5067 36.8732C54.8971 36.8732 57.1897 35.9236 58.88 34.2333L59.24 33.8733C60.0854 33.0412 60.7566 32.0491 61.2144 30.9549C61.6722 29.8606 61.9076 28.6861 61.9067 27.5C61.8979 25.6623 61.3434 23.8686 60.3134 22.3466ZM59.7934 29.5866C59.7934 29.7238 59.7662 29.8596 59.7136 29.9862C59.6609 30.1128 59.5837 30.2277 59.4864 30.3244C59.3891 30.4211 59.2737 30.4975 59.1467 30.5494C59.0198 30.6013 58.8838 30.6275 58.7467 30.6266H55.6267V33.7466C55.6276 33.8838 55.6013 34.0197 55.5494 34.1467C55.4976 34.2736 55.4211 34.3891 55.3245 34.4864C55.2278 34.5836 55.1128 34.6608 54.9862 34.7135C54.8596 34.7662 54.7238 34.7933 54.5867 34.7933H50.4134C50.2762 34.7933 50.1404 34.7662 50.0138 34.7135C49.8872 34.6608 49.7723 34.5836 49.6756 34.4864C49.5789 34.3891 49.5025 34.2736 49.4506 34.1467C49.3987 34.0197 49.3725 33.8838 49.3734 33.7466V30.6266H46.2534C46.1162 30.6275 45.9803 30.6013 45.8533 30.5494C45.7264 30.4975 45.6109 30.4211 45.5137 30.3244C45.4164 30.2277 45.3392 30.1128 45.2865 29.9862C45.2338 29.8596 45.2067 29.7238 45.2067 29.5866V25.4133C45.2067 25.2762 45.2338 25.1404 45.2865 25.0138C45.3392 24.8872 45.4164 24.7722 45.5137 24.6756C45.6109 24.5789 45.7264 24.5024 45.8533 24.4506C45.9803 24.3987 46.1162 24.3724 46.2534 24.3733H49.3734V21.2533C49.3725 21.1162 49.3987 20.9802 49.4506 20.8533C49.5025 20.7263 49.5789 20.6109 49.6756 20.5136C49.7723 20.4163 49.8872 20.3391 50.0138 20.2864C50.1404 20.2338 50.2762 20.2066 50.4134 20.2066H54.5867C54.7238 20.2066 54.8596 20.2338 54.9862 20.2864C55.1128 20.3391 55.2278 20.4163 55.3245 20.5136C55.4211 20.6109 55.4976 20.7263 55.5494 20.8533C55.6013 20.9802 55.6276 21.1162 55.6267 21.2533V24.3733H58.7467C58.8838 24.3724 59.0198 24.3987 59.1467 24.4506C59.2737 24.5024 59.3891 24.5789 59.4864 24.6756C59.5837 24.7722 59.6609 24.8872 59.7136 25.0138C59.7662 25.1404 59.7934 25.2762 59.7934 25.4133V29.5866Z" fill="#FE444A"/>
<path d="M37.92 41.04C37.7828 41.0391 37.6469 41.0653 37.5199 41.1172C37.393 41.1691 37.2775 41.2456 37.1803 41.3422C37.083 41.4389 37.0058 41.5538 36.9531 41.6804C36.9004 41.807 36.8733 41.9428 36.8733 42.08V50.4133C36.8733 50.6909 36.9836 50.9571 37.1799 51.1534C37.3761 51.3497 37.6424 51.46 37.92 51.46H67.08C67.3576 51.46 67.6238 51.3497 67.8201 51.1534C68.0163 50.9571 68.1266 50.6909 68.1266 50.4133V42.08C68.1266 41.9428 68.0995 41.807 68.0468 41.6804C67.9941 41.5538 67.9169 41.4389 67.8197 41.3422C67.7224 41.2456 67.6069 41.1691 67.48 41.1172C67.353 41.0653 67.2171 41.0391 67.08 41.04H37.92ZM66.04 43.1266V45.2066H38.96V43.1266H66.04ZM38.96 49.3733V47.2933H66.04V49.3733H38.96Z" fill="#1E2A3A"/>
<path d="M23.3333 53.54C23.6091 53.54 23.8736 53.4304 24.0687 53.2354C24.2637 53.0403 24.3733 52.7758 24.3733 52.5V44.1666C24.3733 43.8908 24.2637 43.6263 24.0687 43.4313C23.8736 43.2362 23.6091 43.1266 23.3333 43.1266H15C14.1707 43.1266 13.3754 43.4561 12.7891 44.0424C12.2027 44.6288 11.8733 45.4241 11.8733 46.2533V52.5C11.8733 52.6371 11.9004 52.7729 11.9531 52.8995C12.0058 53.0261 12.083 53.1411 12.1803 53.2377C12.2775 53.3344 12.393 53.4109 12.5199 53.4627C12.6469 53.5146 12.7828 53.5409 12.92 53.54H23.3333ZM13.96 46.2533C13.9591 46.1162 13.9853 45.9802 14.0372 45.8533C14.0891 45.7263 14.1655 45.6109 14.2622 45.5136C14.3589 45.4163 14.4738 45.3391 14.6004 45.2864C14.727 45.2338 14.8628 45.2066 15 45.2066H22.2933V51.46H13.96V46.2533Z" fill="#1E2A3A"/>
<path d="M28.5466 43.1266H26.46V53.5466H28.5466V43.1266Z" fill="#1E2A3A"/>
<path d="M23.3333 61.8733C22.7149 61.8733 22.1104 62.0567 21.5962 62.4003C21.0821 62.7438 20.6813 63.2321 20.4447 63.8035C20.208 64.3748 20.1461 65.0034 20.2667 65.61C20.3874 66.2165 20.6852 66.7736 21.1224 67.2109C21.5597 67.6481 22.1168 67.9459 22.7234 68.0666C23.3299 68.1872 23.9585 68.1253 24.5299 67.8886C25.1012 67.652 25.5895 67.2512 25.9331 66.7371C26.2766 66.2229 26.46 65.6184 26.46 65C26.46 64.1707 26.1306 63.3755 25.5442 62.7891C24.9579 62.2027 24.1626 61.8733 23.3333 61.8733ZM23.3333 66.04C23.1276 66.04 22.9266 65.979 22.7555 65.8647C22.5845 65.7504 22.4512 65.588 22.3725 65.398C22.2938 65.2079 22.2732 64.9988 22.3133 64.7971C22.3534 64.5953 22.4525 64.41 22.5979 64.2646C22.7434 64.1191 22.9287 64.0201 23.1304 63.98C23.3322 63.9398 23.5413 63.9604 23.7313 64.0391C23.9214 64.1179 24.0838 64.2512 24.1981 64.4222C24.3123 64.5932 24.3733 64.7943 24.3733 65C24.3733 65.2758 24.2638 65.5403 24.0687 65.7354C23.8737 65.9304 23.6092 66.04 23.3333 66.04Z" fill="#1E2A3A"/>
<path d="M58.7467 61.8733C58.1283 61.8733 57.5238 62.0567 57.0096 62.4003C56.4954 62.7438 56.0946 63.2321 55.858 63.8035C55.6213 64.3748 55.5594 65.0034 55.6801 65.61C55.8007 66.2165 56.0985 66.7736 56.5358 67.2109C56.973 67.6481 57.5302 67.9459 58.1367 68.0666C58.7432 68.1872 59.3719 68.1253 59.9432 67.8886C60.5145 67.652 61.0028 67.2512 61.3464 66.7371C61.69 66.2229 61.8733 65.6184 61.8733 65C61.8733 64.1707 61.5439 63.3755 60.9575 62.7891C60.3712 62.2027 59.5759 61.8733 58.7467 61.8733ZM58.7467 66.04C58.5413 66.0387 58.3408 65.9766 58.1707 65.8615C58.0005 65.7464 57.8683 65.5835 57.7906 65.3934C57.7129 65.2032 57.6933 64.9943 57.7341 64.793C57.775 64.5917 57.8746 64.407 58.0203 64.2623C58.166 64.1175 58.3513 64.0191 58.5529 63.9795C58.7544 63.9399 58.9632 63.9609 59.1528 64.0398C59.3425 64.1187 59.5045 64.252 59.6185 64.4229C59.7325 64.5938 59.7933 64.7946 59.7933 65C59.7933 65.1371 59.7662 65.2729 59.7135 65.3995C59.6608 65.5261 59.5836 65.6411 59.4864 65.7377C59.3891 65.8344 59.2736 65.9109 59.1467 65.9627C59.0197 66.0146 58.8838 66.0409 58.7467 66.04Z" fill="#1E2A3A"/>
<path d="M58.7467 24.3733H55.6267V21.2533C55.6276 21.1162 55.6013 20.9802 55.5494 20.8533C55.4976 20.7263 55.4211 20.6109 55.3244 20.5136C55.2278 20.4163 55.1128 20.3391 54.9862 20.2864C54.8596 20.2338 54.7238 20.2066 54.5867 20.2066H50.4133C50.2762 20.2066 50.1404 20.2338 50.0138 20.2864C49.8872 20.3391 49.7722 20.4163 49.6756 20.5136C49.5789 20.6109 49.5024 20.7263 49.4506 20.8533C49.3987 20.9802 49.3725 21.1162 49.3733 21.2533V24.3733H46.2533C46.1162 24.3724 45.9802 24.3987 45.8533 24.4506C45.7263 24.5024 45.6109 24.5789 45.5136 24.6756C45.4164 24.7722 45.3391 24.8872 45.2865 25.0138C45.2338 25.1404 45.2067 25.2762 45.2067 25.4133V29.5866C45.2067 29.7238 45.2338 29.8596 45.2865 29.9862C45.3391 30.1128 45.4164 30.2277 45.5136 30.3244C45.6109 30.4211 45.7263 30.4975 45.8533 30.5494C45.9802 30.6013 46.1162 30.6275 46.2533 30.6266H49.3733V33.7466C49.3725 33.8838 49.3987 34.0197 49.4506 34.1467C49.5024 34.2736 49.5789 34.3891 49.6756 34.4864C49.7722 34.5836 49.8872 34.6608 50.0138 34.7135C50.1404 34.7662 50.2762 34.7933 50.4133 34.7933H54.5867C54.7238 34.7933 54.8596 34.7662 54.9862 34.7135C55.1128 34.6608 55.2278 34.5836 55.3244 34.4864C55.4211 34.3891 55.4976 34.2736 55.5494 34.1467C55.6013 34.0197 55.6276 33.8838 55.6267 33.7466V30.6266H58.7467C58.8838 30.6275 59.0198 30.6013 59.1467 30.5494C59.2737 30.4975 59.3891 30.4211 59.4864 30.3244C59.5837 30.2277 59.6609 30.1128 59.7135 29.9862C59.7662 29.8596 59.7933 29.7238 59.7933 29.5866V25.4133C59.7933 25.2762 59.7662 25.1404 59.7135 25.0138C59.6609 24.8872 59.5837 24.7722 59.4864 24.6756C59.3891 24.5789 59.2737 24.5024 59.1467 24.4506C59.0198 24.3987 58.8838 24.3724 58.7467 24.3733ZM57.7067 28.54H54.5867C54.3091 28.54 54.0429 28.6503 53.8466 28.8465C53.6503 29.0428 53.54 29.3091 53.54 29.5866V32.7066H51.46V29.5866C51.46 29.3091 51.3497 29.0428 51.1534 28.8465C50.9572 28.6503 50.6909 28.54 50.4133 28.54H47.2933V26.46H50.4133C50.6909 26.46 50.9572 26.3497 51.1534 26.1534C51.3497 25.9571 51.46 25.6909 51.46 25.4133V22.2933H53.54V25.4133C53.54 25.6909 53.6503 25.9571 53.8466 26.1534C54.0429 26.3497 54.3091 26.46 54.5867 26.46H57.7067V28.54Z" fill="#1E2A3A"/>
</svg>
