<?xml version="1.0" encoding="UTF-8"?><svg id="Layer_1" xmlns="http://www.w3.org/2000/svg" viewBox="0 0 79.2 79.2"><defs><style>.cls-1{stroke-linecap:round;}.cls-1,.cls-2{fill:none;stroke:#e30513;stroke-miterlimit:10;stroke-width:3px;}.cls-3{fill:#fff;}.cls-4{fill:#e30513;}</style></defs><rect class="cls-2" x="15.89" y="26.87" width="47.41" height="30.47" rx="2.6" ry="2.6"/><path class="cls-2" d="M32.76,20.61h13.68c1.03,0,1.86,.83,1.86,1.86v4.4H30.9v-4.4c0-1.03,.83-1.86,1.86-1.86Z"/><path class="cls-4" d="M54.86,22.42h4.78c.67,0,1.22,.54,1.22,1.22v2.46h-7.21v-2.46c0-.67,.54-1.22,1.22-1.22Z"/><path class="cls-4" d="M20.11,22.42h4.78c.67,0,1.22,.54,1.22,1.22v2.46h-7.21v-2.46c0-.67,.54-1.22,1.22-1.22Z"/><g><path class="cls-4" d="M44.59,39.94l-4.56-7.21c-.08-.12-.21-.19-.35-.22-.14-.02-.28,0-.4,.09-.05,.04-.09,.08-.12,.13l-4.56,7.21c-1.11,1.75-1.7,3.79-1.7,5.86,0,.82,.16,1.63,.47,2.38,.31,.76,.77,1.44,1.35,2.02,.58,.58,1.26,1.04,2.02,1.35,.76,.31,1.57,.48,2.38,.48h.92c.82,0,1.63-.16,2.38-.48,.76-.31,1.44-.77,2.02-1.35,.58-.58,1.04-1.27,1.35-2.02,.31-.76,.47-1.57,.47-2.38,0-2.07-.59-4.11-1.7-5.86h0Z"/><path class="cls-3" d="M40.18,49.32c-1.39,0-2.45-.5-3.33-1.38-.88-.88-1.39-2.14-1.39-3.33s1.67-1.19,1.89,0c.13,.72,.3,1.47,.83,2,.53,.53,1.12,.76,2,.83,1.35,.1,1.39,1.88,0,1.88Z"/></g><line class="cls-1" x1="49.66" y1="48.8" x2="58.14" y2="48.8"/><line class="cls-1" x1="49.66" y1="42.19" x2="58.14" y2="42.19"/><line class="cls-1" x1="47.58" y1="35.74" x2="58.14" y2="35.74"/><line class="cls-1" x1="29.31" y1="48.8" x2="20.83" y2="48.8"/><line class="cls-1" x1="29.31" y1="42.19" x2="20.83" y2="42.19"/><line class="cls-1" x1="31.38" y1="35.74" x2="20.83" y2="35.74"/></svg>