<?xml version="1.0" encoding="UTF-8"?><svg id="Layer_1" xmlns="http://www.w3.org/2000/svg" viewBox="0 0 79.2 79.2"><defs><style>.cls-1{fill:none;stroke:#e30513;stroke-linecap:round;stroke-miterlimit:10;stroke-width:3px;}.cls-2{fill:#fff;}.cls-3{fill:#e30513;}</style></defs><g><rect class="cls-3" x="20.44" y="56.57" width="15.67" height="6.98" rx=".84" ry=".84"/><path class="cls-1" d="M32.31,56.57v-10.08c0-.39-.16-.77-.45-1.04l-4.86-4.64c-.9-.86-2.32-.85-3.22,.02h0c-.9,.88-.94,2.32-.07,3.24l2.57,2.75"/><path class="cls-1" d="M23.76,56.57v-3.05c0-.39-.16-.77-.45-1.04l-4.77-4.55c-.29-.27-.45-.65-.45-1.04V30.49c0-1.66,1.35-3.01,3.01-3.01h0c1.66,0,3.01,1.35,3.01,3.01v10.01"/></g><g><rect class="cls-3" x="43.09" y="56.57" width="15.67" height="6.98" rx=".84" ry=".84" transform="translate(101.86 120.13) rotate(-180)"/><path class="cls-1" d="M46.89,56.57v-10.08c0-.39,.16-.77,.45-1.04l4.86-4.64c.9-.86,2.32-.85,3.22,.02h0c.9,.88,.94,2.32,.07,3.24l-2.57,2.75"/><path class="cls-1" d="M55.44,56.57v-3.05c0-.39,.16-.77,.45-1.04l4.77-4.55c.29-.27,.45-.65,.45-1.04V30.49c0-1.66-1.35-3.01-3.01-3.01h0c-1.66,0-3.01,1.35-3.01,3.01v10.01"/></g><g><path class="cls-3" d="M45.97,25.38l-5.97-9.44c-.11-.15-.27-.25-.46-.28-.18-.03-.37,.01-.52,.12-.06,.05-.11,.1-.16,.16l-5.97,9.44c-1.45,2.3-2.22,4.96-2.22,7.67,0,1.07,.21,2.13,.62,3.12,.41,.99,1.01,1.89,1.77,2.65,.76,.76,1.66,1.36,2.65,1.77,.99,.41,2.05,.62,3.12,.62h1.2c1.07,0,2.13-.21,3.12-.62,.99-.41,1.89-1.01,2.65-1.77,.76-.76,1.36-1.66,1.77-2.65,.41-.99,.62-2.05,.62-3.12,0-2.72-.77-5.38-2.22-7.67h0Z"/><path class="cls-2" d="M40.2,37.67c-1.82,0-3.21-.65-4.36-1.81-1.16-1.16-1.82-2.8-1.82-4.36s2.19-1.56,2.47,0c.17,.94,.39,1.93,1.09,2.62,.7,.7,1.47,1,2.62,1.09,1.77,.14,1.82,2.47,0,2.47Z"/></g></svg>