<?xml version="1.0" encoding="UTF-8"?><svg id="Layer_1" xmlns="http://www.w3.org/2000/svg" viewBox="0 0 79.2 79.2"><defs><style>.cls-1{fill:none;stroke:#fff;stroke-linecap:round;stroke-miterlimit:10;stroke-width:3px;}.cls-2{fill:#fff;}.cls-3{fill:#e30513;}</style></defs><g><circle class="cls-3" cx="43.34" cy="23.97" r="3.74"/><circle class="cls-3" cx="43.34" cy="35.1" r="3.74"/><circle class="cls-3" cx="43.34" cy="46.23" r="3.74"/><circle class="cls-3" cx="58.33" cy="23.97" r="3.74"/><circle class="cls-3" cx="58.33" cy="35.1" r="3.74"/><circle class="cls-3" cx="58.33" cy="46.23" r="3.74"/><g><path class="cls-3" d="M63.28,13h-25.45c-2.12,0-3.84,1.72-3.84,3.84v7.23h3v-7.23c0-.46,.38-.84,.84-.84h11.22V54.2h-7.32v3h21.54c2.12,0,3.84-1.72,3.84-3.84V16.84c0-2.12-1.72-3.84-3.84-3.84Zm.84,40.37c0,.46-.38,.84-.84,.84h-11.22V16h11.22c.46,0,.84,.38,.84,.84V53.37Z"/><circle class="cls-3" cx="43.34" cy="23.97" r="3.74"/><circle class="cls-3" cx="43.34" cy="35.1" r="3.74"/><circle class="cls-3" cx="43.34" cy="46.23" r="3.74"/><circle class="cls-3" cx="58.33" cy="23.97" r="3.74"/><circle class="cls-3" cx="58.33" cy="35.1" r="3.74"/><circle class="cls-3" cx="58.33" cy="46.23" r="3.74"/></g></g><g><path class="cls-3" d="M37.22,38.82l-3.69-3c-.32-.32-.1-.87,.36-.87h1.54c.7,0,1.27-.57,1.27-1.27v-4.58c0-.7-.57-1.27-1.27-1.27H16.75c-.7,0-1.27,.57-1.27,1.27v4.58c0,.7,.57,1.27,1.27,1.27h1.52c.45,0,.68,.55,.36,.87l-3.69,3c-.57,.56-.89,1.33-.89,2.13v20.76c0,1.65,1.34,2.99,2.99,2.99h18.05c1.65,0,2.99-1.34,2.99-2.99v-20.76c0-.8-.32-1.56-.89-2.13Z"/><line class="cls-1" x1="19.79" y1="31.49" x2="32.37" y2="31.49"/><g><g><path class="cls-3" d="M25.75,57.2c-.69,0-1.37-.13-2.01-.4-.64-.27-1.21-.65-1.7-1.14-.49-.49-.87-1.06-1.14-1.71-.27-.64-.4-1.32-.4-2.01,0-1.54,.43-3.03,1.25-4.33l2.75-4.35c.16-.22,.28-.35,.42-.46,.36-.26,.72-.37,1.1-.37h.12l.18,.02c.48,.08,.9,.34,1.18,.74l2.8,4.42c.82,1.3,1.25,2.8,1.25,4.33,0,.69-.13,1.37-.4,2.01-.27,.64-.65,1.22-1.14,1.71-.49,.49-1.06,.87-1.71,1.14-.64,.27-1.32,.4-2.01,.4h-.55Z"/><path class="cls-2" d="M26.03,43.93s.04,0,.05,0c.08,.01,.16,.06,.21,.13l2.75,4.35c.67,1.06,1.02,2.28,1.02,3.53,0,.49-.1,.98-.29,1.44-.19,.46-.47,.87-.81,1.22-.35,.35-.76,.63-1.22,.82-.46,.19-.94,.29-1.44,.29h-.55c-.49,0-.98-.1-1.44-.29-.46-.19-.87-.47-1.22-.82-.35-.35-.63-.76-.81-1.22-.19-.46-.29-.94-.29-1.44,0-1.25,.35-2.48,1.02-3.53l2.75-4.35s.05-.05,.07-.08c.06-.04,.12-.06,.19-.06m0-3c-.69,0-1.36,.21-1.92,.61l-.05,.04-.05,.04c-.25,.19-.47,.42-.66,.68l-.06,.08-.05,.08-2.75,4.35c-.97,1.54-1.49,3.32-1.49,5.14,0,.89,.17,1.76,.51,2.58,.34,.82,.83,1.56,1.46,2.19,.63,.63,1.37,1.12,2.19,1.47s1.69,.52,2.59,.52h.55c.89,0,1.76-.17,2.59-.52,.82-.34,1.56-.83,2.19-1.47,.63-.63,1.12-1.37,1.46-2.19,.34-.82,.51-1.69,.51-2.59,0-1.82-.51-3.59-1.49-5.13l-2.75-4.35-.05-.07-.05-.07c-.52-.72-1.28-1.2-2.15-1.34-.18-.03-.36-.05-.55-.05h0Z"/></g><path class="cls-2" d="M26.38,54.07c-.84,0-1.48-.3-2.01-.83-.53-.53-.84-1.29-.84-2.01s1.01-.72,1.14,0c.08,.43,.18,.89,.5,1.21,.32,.32,.68,.46,1.21,.5,.82,.06,.84,1.14,0,1.14Z"/></g></g></svg>