<?xml version="1.0" encoding="UTF-8"?><svg id="Layer_1" xmlns="http://www.w3.org/2000/svg" viewBox="0 0 79.2 79.2"><defs><style>.cls-1{stroke:#fff;stroke-linecap:round;}.cls-1,.cls-2{fill:none;stroke-miterlimit:10;stroke-width:3px;}.cls-2{stroke:#e30513;}.cls-3{fill:#fff;}.cls-4{fill:#e30513;}</style></defs><g><g><path class="cls-4" d="M39.19,44.8c-.67-.33-1.47-.21-2.03,.27-1.83,1.56-4.6,2.55-7.7,2.55s-5.87-.99-7.7-2.55c-.56-.48-1.37-.61-2.03-.27-3.47,1.74-5.84,5.22-5.84,9.24v8.45c0,1.28,1.08,2.33,2.41,2.33h26.31c1.33,0,2.41-1.04,2.41-2.33v-8.45c0-4.02-2.37-7.51-5.84-9.24Z"/><rect class="cls-4" x="19.01" y="20.89" width="20.9" height="22.84" rx="10.45" ry="10.45"/></g><g><rect class="cls-2" x="49.54" y="18.08" width="15.8" height="21.39" rx="2.01" ry="2.01"/><rect class="cls-4" x="49.54" y="22.71" width="15.8" height="12.15"/><g><path class="cls-3" d="M59.41,27.48l-1.79-2.84s-.08-.08-.14-.09c-.06,0-.11,0-.16,.04-.02,.01-.03,.03-.05,.05l-1.79,2.84c-.44,.69-.67,1.49-.67,2.31,0,.32,.06,.64,.19,.94,.12,.3,.3,.57,.53,.8,.23,.23,.5,.41,.8,.53,.3,.12,.62,.19,.94,.19h.36c.32,0,.64-.06,.94-.19,.3-.12,.57-.3,.8-.53,.23-.23,.41-.5,.53-.8,.12-.3,.19-.62,.19-.94,0-.82-.23-1.62-.67-2.31h0Z"/><path class="cls-4" d="M57.67,31.18c-.55,0-.96-.2-1.31-.54-.35-.35-.55-.84-.55-1.31s.66-.47,.74,0c.05,.28,.12,.58,.33,.79,.21,.21,.44,.3,.79,.33,.53,.04,.55,.74,0,.74Z"/></g><rect class="cls-4" x="55.29" y="14.2" width="4.3" height="4.3" rx="1.35" ry="1.35"/></g><path class="cls-2" d="M57.44,39.48v13.86c0,4.13-2.81,7.47-6.27,7.47h-7.47"/></g><path class="cls-1" d="M47.08,55.26h-6.62c-1.03,0-1.86,.69-1.86,1.55v10.14"/><path class="cls-1" d="M11.72,55.26h6.62c1.03,0,1.86,.69,1.86,1.55v10.14"/></svg>