<svg width="80" height="80" viewBox="0 0 80 80" fill="none" xmlns="http://www.w3.org/2000/svg">
<path d="M45.8519 14.9333L63.4224 30.2232C63.7414 30.5008 63.7749 30.9845 63.4973 31.3035L61.8093 33.2433C60.7815 34.4245 58.9756 34.5498 57.7945 33.522L43.3622 20.9629C42.1811 19.9351 42.0558 18.1292 43.0836 16.9481L44.7716 15.0083C45.0492 14.6893 45.5329 14.6557 45.8519 14.9333Z" fill="#E30513"/>
<path d="M54.039 32.6612L44.7365 24.5661C44.027 23.9488 42.9514 24.0234 42.334 24.7329L34.2389 34.0354C33.6216 34.7448 33.6962 35.8204 34.4057 36.4378L43.7082 44.5329C44.4176 45.1503 45.4933 45.0757 46.1106 44.3662L54.2057 35.0637C54.8231 34.3542 54.7485 33.2786 54.039 32.6612Z" fill="#E30513"/>
<path d="M41.6139 38.5062L40.3214 37.3168C34.9956 32.418 26.9289 33.0186 22.2939 38.6358C21.8594 39.1539 21.9151 39.9547 22.4053 40.4139L41.1794 57.6894C41.6696 58.1486 42.4272 58.0897 42.8618 57.5716C47.4968 51.9427 46.9286 43.4168 41.6139 38.518V38.5062ZM42.327 53.6973C42.1933 53.6973 42.0484 53.6737 41.9147 53.6149C41.3465 53.3793 41.0679 52.6963 41.2908 52.084C41.9593 50.3176 42.0819 48.3863 41.6585 46.5257C41.5136 45.8898 41.8813 45.2539 42.483 45.1008C43.0846 44.9477 43.6863 45.3363 43.8311 45.9722C44.3659 48.3156 44.1988 50.718 43.3632 52.9436C43.1849 53.4029 42.7726 53.6855 42.327 53.6855V53.6973Z" fill="#E30513"/>
<path d="M19.7125 64C19.3113 64 18.9101 63.8615 18.5891 63.5729C17.8784 62.9496 17.7981 61.853 18.4171 61.1258L30.9807 46.5932C31.5997 45.8775 32.6887 45.7967 33.4109 46.4201C34.1216 47.0434 34.2019 48.14 33.5829 48.8672L21.0193 63.3998C20.6754 63.7922 20.2054 64 19.7239 64H19.7125Z" fill="#E30513"/>
</svg>
