<svg width="80" height="80" viewBox="0 0 80 80" fill="none" xmlns="http://www.w3.org/2000/svg">
<path d="M42.6158 14.8016C38.0242 11.5909 31.7491 12.7889 28.5938 17.4612L12.7705 40.9301C9.61526 45.6024 10.7926 51.9877 15.3842 55.1984C19.9758 58.4091 26.2509 57.2111 29.4062 52.5388L45.2295 29.0699C48.3847 24.3976 47.2074 18.0123 42.6158 14.8016ZM26.7572 50.7059C24.6144 53.8926 20.3172 54.6952 17.1973 52.5149C15.6785 51.4486 14.666 49.8553 14.3246 48.0223C13.9832 46.1894 14.3717 44.3205 15.4195 42.7751L23.4842 30.819L34.8337 38.7378L26.769 50.6939L26.7572 50.7059ZM40.4495 31.4299C40.0021 32.1008 39.0956 32.2685 38.4363 31.8133C37.777 31.3581 37.6122 30.4356 38.0596 29.7647C38.5069 29.0938 39.4135 28.9261 40.0728 29.3813C40.7321 29.8366 40.8969 30.7591 40.4495 31.4299ZM42.6041 27.5724C42.4039 27.8719 42.0743 28.0276 41.7564 28.0276C41.5562 28.0276 41.3561 27.9677 41.1677 27.8479C40.6968 27.5244 40.579 26.8655 40.8969 26.3863C42.4628 24.0622 41.8859 20.8755 39.6019 19.2821C39.1662 18.9826 38.6835 18.743 38.1891 18.5993C37.6475 18.4316 37.3296 17.8445 37.4944 17.2935C37.6593 16.7424 38.2244 16.4189 38.7777 16.5866C39.4841 16.8023 40.167 17.1257 40.7792 17.557C44.0051 19.8093 44.8292 24.3138 42.6158 27.5843L42.6041 27.5724Z" fill="#E30513"/>
<path d="M37 57.0713C37 52.3877 40.2957 48.1322 45.0852 47.1753C47.2428 46.7472 49.3056 47.0998 51.2261 48.2706C51.3565 48.3588 51.4987 48.4469 51.6173 48.5476C52.0559 48.9128 52.1152 49.3282 51.807 49.8193C51.6647 50.0333 51.4987 50.2221 51.3209 50.411C47.5629 54.4021 43.8048 58.3807 40.0468 62.3718C39.1932 63.2783 38.7071 63.2153 38.1262 62.1074C37.3794 60.6973 37 59.1739 37.0237 57.0713H37Z" fill="#E30513"/>
<path d="M57 57.3651C57 62.181 53.2453 66.3698 48.4247 66.9378C46.3875 67.1744 44.5042 66.7248 42.7157 65.7782C42.5618 65.6954 42.4315 65.6007 42.3012 65.4942C41.9577 65.1865 41.9103 64.8789 42.1472 64.4884C42.2538 64.3228 42.3841 64.1808 42.5262 64.0388C46.3519 60.2168 50.1777 56.383 54.0034 52.561C54.0626 52.5019 54.1337 52.4309 54.1929 52.3717C54.8088 51.8156 55.2944 51.8747 55.6971 52.6084C56.5144 54.0875 57 55.6612 56.9882 57.3651H57Z" fill="#E30513"/>
<path d="M59.4937 47.9881C54.2327 47.9881 49.9881 43.7593 50 38.53C50 33.2649 54.3164 28.9527 59.6013 29.0004C64.9221 29.0361 69.0591 33.4316 68.9994 38.6372C68.9396 43.7832 64.7188 48 59.4937 48V47.9881ZM59.5655 45.9631C60.6535 45.9392 61.7535 45.6652 62.7818 45.1411C63.6905 44.6766 63.7503 44.2477 63.0329 43.533C60.0796 40.6265 57.1263 37.72 54.1729 34.8134C53.6708 34.325 53.4077 34.3608 53.0729 34.9683C52.2838 36.3858 52.0686 37.8867 52.2359 39.4829C52.6664 43.4854 56.3371 45.963 59.5655 45.9511V45.9631Z" fill="#E30513"/>
</svg>
