<svg width="80" height="80" viewBox="0 0 80 80" fill="none" xmlns="http://www.w3.org/2000/svg">
<path d="M52.959 15.023C47.7594 15.023 43.3222 19.1727 39.9886 23.1154C36.655 19.1727 32.2178 15.023 27.0183 15.023C17.7115 15.023 12 23.1729 12 29.8629C12 32.5527 12.5689 35.1966 13.5701 37.7829H17.8367C18.269 37.7829 18.6672 37.53 18.8492 37.1277L22.0008 30.1618C22.2056 29.702 22.6607 29.4031 23.1613 29.4031C23.6619 29.4031 24.117 29.6905 24.3218 30.1503L27.4734 36.9553C27.7123 37.4726 28.4518 37.4726 28.6908 36.9553L31.8423 30.1503C32.0471 29.7135 32.4681 29.4261 32.946 29.4031C33.4124 29.3801 33.8675 29.6215 34.1178 30.0353L40.2503 40.3693L43.4815 35.9322C43.7204 35.5989 44.1073 35.4035 44.5169 35.4035H48.59C49.2954 35.4035 49.8757 35.9897 49.8757 36.7024C49.8757 37.4151 49.2954 38.0013 48.59 38.0013H45.1654L41.1719 43.4729C40.933 43.8063 40.5461 44.0017 40.1365 44.0017H40.0796C39.6473 43.9787 39.2605 43.7488 39.0329 43.3694L33.731 34.4264C33.4807 34.0126 32.8777 34.0471 32.6729 34.4839L29.2483 41.8751C29.0321 42.3349 28.577 42.6223 28.0878 42.6223C27.5985 42.6223 27.1321 42.3349 26.9273 41.8751L23.6164 34.7138C23.4458 34.3459 22.9224 34.3459 22.7631 34.7138L21.0337 38.5301C20.7379 39.1853 19.9984 40.0014 19.384 40.3578H14.7306C19.2816 49.4847 28.7704 57.7266 36.9281 63.9568C38.7485 65.3477 41.2629 65.3477 43.0833 63.9568C54.2901 55.4046 68 43.0591 68 29.8399C68 23.1499 62.2885 15 52.9817 15L52.959 15.023ZM57.9992 43.6108L55.5416 46.4386C55.2117 46.8179 54.7566 47.0018 54.3015 47.0018C53.9147 47.0018 53.5278 46.8639 53.2206 46.588C52.538 45.9788 52.4697 44.9328 53.0727 44.2431L55.5303 41.4153C56.1219 40.7256 57.1686 40.6566 57.8513 41.2659C58.5339 41.8751 58.6022 42.9211 57.9992 43.6108ZM59.6262 40.1739C59.2393 40.1739 58.8525 40.0359 58.5339 39.76C57.8513 39.1508 57.7944 38.0933 58.3974 37.4151C62.0951 33.2079 61.0028 27.3455 60.9915 27.2881C60.8208 26.3915 61.3897 25.5178 62.2771 25.3339C63.1646 25.15 64.0293 25.7248 64.2113 26.6329C64.2682 26.9432 65.6676 34.162 60.8549 39.6336C60.525 40.0014 60.0813 40.1969 59.6262 40.1969V40.1739Z" fill="#E30513"/>
</svg>
