<svg width="80" height="80" viewBox="0 0 80 80" fill="none" xmlns="http://www.w3.org/2000/svg">
<path d="M55.0599 21.4084C55.6355 21.2405 56.1631 21.0726 56.6907 20.9407C59.1968 20.2932 61.6189 21.3604 62.83 23.6626C64.0171 25.9049 63.5255 28.447 61.6069 30.1857C60.5278 31.1569 59.2567 31.5646 57.8538 31.7085C56.5228 31.8524 55.1679 31.8884 53.8489 32.1162C52.1582 32.392 50.6833 33.1954 49.3643 34.2865C43.8005 38.903 39.4958 44.5627 35.8866 50.7739C34.7834 52.6685 34.5676 54.7789 34.7355 56.9252C34.8194 57.9924 34.9993 59.0476 35.0472 60.1148C35.1432 62.3091 34.4357 64.1677 32.5172 65.4027C29.4955 67.3692 24.2795 65.5706 24.1476 60.9421C24.1236 60.2467 24.3274 59.5392 24.4354 58.7718C23.9078 58.9037 23.4041 59.0116 22.8885 59.1435C21.3417 59.5512 19.8189 59.5272 18.4519 58.6159C16.5934 57.3809 15.802 55.5942 16.0418 53.3999C16.2696 51.3735 17.3248 49.8386 19.2913 49.1192C20.2146 48.7714 21.2218 48.5077 22.2051 48.4837C25.8862 48.3758 29.0039 46.9488 31.7977 44.6586C34.9873 42.0446 37.6013 38.951 39.7596 35.4496C40.8028 33.7709 41.942 32.1641 42.9732 30.4854C44.4361 28.1112 44.8438 25.4853 44.6399 22.7393C44.556 21.5163 44.3761 20.2932 44.4121 19.0702C44.484 16.5881 46.4865 14.4177 48.9086 14.058C51.3548 13.6863 53.9088 15.1372 54.7242 17.3914C55.1439 18.5426 55.036 19.7536 55.024 20.9527C55.024 21.0846 55.024 21.2045 55.024 21.3964L55.0599 21.4084Z" fill="#E30513"/>
</svg>
