<?xml version="1.0" encoding="UTF-8"?><svg id="Layer_1" xmlns="http://www.w3.org/2000/svg" viewBox="0 0 79.2 79.2"><defs><style>.cls-1{stroke-linecap:round;}.cls-1,.cls-2{stroke:#e30513;stroke-width:3px;}.cls-1,.cls-2,.cls-3{fill:none;stroke-miterlimit:10;}.cls-4{fill:#fff;}.cls-5{fill:#e30513;}.cls-3{stroke:#fff;stroke-width:2px;}</style></defs><rect class="cls-5" x="30.68" y="37.57" width="28.54" height="9.4"/><rect class="cls-2" x="30.68" y="15.55" width="28.54" height="31.59" rx="2.34" ry="2.34"/><circle class="cls-4" cx="35.87" cy="42.44" r="1.54"/><circle class="cls-4" cx="40.52" cy="42.44" r="1.54"/><circle class="cls-4" cx="53.86" cy="42.44" r="1.54"/><rect class="cls-5" x="35.55" y="19.87" width="18.79" height="13.95" rx="1.51" ry="1.51"/><path class="cls-3" d="M34.33,28.6h5.14c.38,0,.74-.18,.97-.48l2.33-3.01c.49-.63,1.44-.64,1.94-.01l2.4,3.03c.23,.3,.59,.47,.97,.47h7.63"/><path class="cls-1" d="M45.02,47.14v13.44c0,1.7-1.38,3.07-3.07,3.07h-1.46c-1.7,0-3.07-1.38-3.07-3.07v-4.16c0-1.7-1.38-3.07-3.07-3.07h0c-1.7,0-3.07,1.38-3.07,3.07v1.06c0,1.7-1.38,3.07-3.07,3.07h-8.2"/></svg>