<?xml version="1.0" encoding="UTF-8"?><svg id="Layer_1" xmlns="http://www.w3.org/2000/svg" viewBox="0 0 79.2 79.2"><defs><style>.cls-1{fill:none;stroke:#e30513;stroke-linecap:round;stroke-miterlimit:10;stroke-width:3px;}.cls-2{fill:#fff;}.cls-3{fill:#e30513;}</style></defs><path class="cls-1" d="M21.23,43.79H57.97c.87,0,1.58,.71,1.58,1.58v20.75H19.65v-20.75c0-.87,.71-1.58,1.58-1.58Z"/><line class="cls-1" x1="15.68" y1="66.12" x2="63.52" y2="66.12"/><path class="cls-1" d="M25.52,28.78h28.17c.61,0,1.1,.49,1.1,1.1v13.16H24.42v-13.16c0-.61,.49-1.1,1.1-1.1Z"/><path class="cls-3" d="M39.6,52.96h0c1.96,0,3.55,1.59,3.55,3.55v9.61h-7.09v-9.61c0-1.96,1.59-3.55,3.55-3.55Z"/><rect class="cls-3" x="28.89" y="33.18" width="21.42" height="5.47" rx=".81" ry=".81"/><g><g><path class="cls-3" d="M38.98,34.4c-.39-.28-9.66-6.88-9.66-14.29,0-5.8,4.72-10.52,10.52-10.52s10.52,4.72,10.52,10.52c0,7.41-9.27,14.01-9.66,14.29l-.86,.61-.86-.61Z"/><path class="cls-2" d="M39.84,11.09c4.98,0,9.02,4.04,9.02,9.02,0,6.72-9.02,13.06-9.02,13.06,0,0-9.02-6.34-9.02-13.06,0-4.98,4.04-9.02,9.02-9.02m0-3c-6.63,0-12.02,5.39-12.02,12.02,0,8.04,9.24,14.77,10.3,15.51l1.73,1.21,1.73-1.21c1.05-.74,10.3-7.47,10.3-15.51,0-6.63-5.39-12.02-12.02-12.02h0Z"/></g><circle class="cls-2" cx="39.84" cy="20" r="6.1"/><g><path class="cls-3" d="M42.18,18.76l-2.14-3.38c-.04-.05-.1-.09-.16-.1-.07-.01-.13,0-.19,.04-.02,.02-.04,.04-.06,.06l-2.14,3.38c-.52,.82-.79,1.78-.79,2.75,0,.38,.08,.76,.22,1.12,.15,.35,.36,.68,.63,.95,.27,.27,.59,.49,.95,.63,.35,.15,.73,.22,1.12,.22h.43c.38,0,.76-.08,1.12-.22,.35-.15,.68-.36,.95-.63,.27-.27,.49-.59,.63-.95,.15-.35,.22-.73,.22-1.12,0-.97-.28-1.93-.79-2.75h0Z"/><path class="cls-2" d="M40.11,23.16c-.65,0-1.15-.23-1.56-.65-.41-.41-.65-1-.65-1.56s.78-.56,.89,0c.06,.34,.14,.69,.39,.94,.25,.25,.53,.36,.94,.39,.63,.05,.65,.88,0,.88Z"/></g></g><g><rect class="cls-3" x="38.05" y="53.18" width="23.83" height="3" rx=".52" ry=".52" transform="translate(104.64 4.71) rotate(90)"/><rect class="cls-3" x="17.32" y="53.18" width="23.83" height="3" rx=".52" ry=".52" transform="translate(83.91 25.44) rotate(90)"/></g><rect class="cls-3" x="24.42" y="42.76" width="30.37" height="7.17" rx="2.34" ry="2.34"/></svg>