<svg width="80" height="80" viewBox="0 0 80 80" fill="none" xmlns="http://www.w3.org/2000/svg">
<path d="M71.2533 66.04H70.2067V48.3333C70.2067 48.0575 70.0971 47.793 69.9021 47.5979C69.707 47.4029 69.4425 47.2933 69.1667 47.2933H68.1267V25.4133C68.1267 25.2762 68.0996 25.1404 68.0469 25.0138C67.9942 24.8872 67.917 24.7722 67.8197 24.6756C67.7224 24.5789 67.607 24.5024 67.48 24.4506C67.3531 24.3987 67.2171 24.3724 67.08 24.3733H66.04V20.2066H67.08C67.2171 20.2075 67.3531 20.1813 67.48 20.1294C67.607 20.0775 67.7224 20.0011 67.8197 19.9044C67.917 19.8077 67.9942 19.6928 68.0469 19.5662C68.0996 19.4396 68.1267 19.3038 68.1267 19.1666V15C68.1267 14.8628 68.0996 14.7271 68.0469 14.6004C67.9942 14.4738 67.917 14.3589 67.8197 14.2622C67.7224 14.1656 67.607 14.0891 67.48 14.0372C67.3531 13.9854 67.2171 13.9591 67.08 13.96H53.54V8.74665C53.54 8.47082 53.4304 8.20629 53.2354 8.01126C53.0404 7.81622 52.7758 7.70665 52.5 7.70665H27.5C27.2242 7.70665 26.9596 7.81622 26.7646 8.01126C26.5696 8.20629 26.46 8.47082 26.46 8.74665V13.96H12.92C12.7829 13.9591 12.6469 13.9854 12.52 14.0372C12.393 14.0891 12.2776 14.1656 12.1803 14.2622C12.083 14.3589 12.0058 14.4738 11.9531 14.6004C11.9004 14.7271 11.8733 14.8628 11.8733 15V19.1666C11.8733 19.3038 11.9004 19.4396 11.9531 19.5662C12.0058 19.6928 12.083 19.8077 12.1803 19.9044C12.2776 20.0011 12.393 20.0775 12.52 20.1294C12.6469 20.1813 12.7829 20.2075 12.92 20.2066H13.96V24.3733H12.92C12.7829 24.3724 12.6469 24.3987 12.52 24.4506C12.393 24.5024 12.2776 24.5789 12.1803 24.6756C12.083 24.7722 12.0058 24.8872 11.9531 25.0138C11.9004 25.1404 11.8733 25.2762 11.8733 25.4133V47.2933H10.8333C10.5575 47.2933 10.293 47.4029 10.0979 47.5979C9.9029 47.793 9.79333 48.0575 9.79333 48.3333V66.04H8.74666C8.47084 66.04 8.20631 66.1496 8.01127 66.3446C7.81624 66.5396 7.70667 66.8042 7.70667 67.08V71.2533C7.70667 71.5291 7.81624 71.7937 8.01127 71.9887C8.20631 72.1837 8.47084 72.2933 8.74666 72.2933H71.2533C71.5292 72.2933 71.7937 72.1837 71.9887 71.9887C72.1838 71.7937 72.2933 71.5291 72.2933 71.2533V67.08C72.2933 66.8042 72.1838 66.5396 71.9887 66.3446C71.7937 66.1496 71.5292 66.04 71.2533 66.04ZM68.1267 49.3733V66.04H55.6267V51.46H56.6667C56.8038 51.46 56.9396 51.4329 57.0662 51.3802C57.1928 51.3275 57.3078 51.2503 57.4044 51.153C57.5011 51.0557 57.5776 50.9403 57.6294 50.8134C57.6813 50.6864 57.7075 50.5505 57.7067 50.4133V49.3733H68.1267ZM24.3733 49.3733V47.2933H55.6267V49.3733H24.3733ZM53.54 51.46V66.04H51.46V51.46H53.54ZM44.1667 55.6267H35.8333C35.5575 55.6267 35.293 55.7362 35.0979 55.9313C34.9029 56.1263 34.7933 56.3908 34.7933 56.6667V66.04H30.6267V51.46H49.3733V66.04H45.2067V56.6667C45.2067 56.3908 45.0971 56.1263 44.9021 55.9313C44.707 55.7362 44.4425 55.6267 44.1667 55.6267ZM43.1267 57.7066V66.04H36.8733V57.7066H43.1267ZM28.54 51.46V66.04H26.46V51.46H28.54ZM53.54 16.04H66.04V18.1266H53.54V16.04ZM53.54 20.2066H63.96V24.3733H53.54V20.2066ZM28.54 9.79331H51.46V26.46H28.54V9.79331ZM13.96 16.04H26.46V18.1266H13.96V16.04ZM26.46 20.2066V24.3733H16.04V20.2066H26.46ZM13.96 26.46H26.46V27.5C26.46 27.7758 26.5696 28.0403 26.7646 28.2354C26.9596 28.4304 27.2242 28.54 27.5 28.54H52.5C52.7758 28.54 53.0404 28.4304 53.2354 28.2354C53.4304 28.0403 53.54 27.7758 53.54 27.5V26.46H66.04V47.2933H57.7067V46.2533C57.7075 46.1162 57.6813 45.9802 57.6294 45.8533C57.5776 45.7263 57.5011 45.6109 57.4044 45.5136C57.3078 45.4163 57.1928 45.3391 57.0662 45.2864C56.9396 45.2338 56.8038 45.2066 56.6667 45.2066H23.3333C23.1962 45.2066 23.0604 45.2338 22.9338 45.2864C22.8072 45.3391 22.6922 45.4163 22.5956 45.5136C22.4989 45.6109 22.4224 45.7263 22.3706 45.8533C22.3187 45.9802 22.2925 46.1162 22.2933 46.2533V47.2933H13.96V26.46ZM11.8733 49.3733H22.2933V50.4133C22.2925 50.5505 22.3187 50.6864 22.3706 50.8134C22.4224 50.9403 22.4989 51.0557 22.5956 51.153C22.6922 51.2503 22.8072 51.3275 22.9338 51.3802C23.0604 51.4329 23.1962 51.46 23.3333 51.46H24.3733V66.04H11.8733V49.3733ZM70.2067 70.2066H9.79333V68.1267H70.2067V70.2066Z" fill="#1E2A3A"/>
<path d="M21.2533 53.54H15C14.8628 53.54 14.7271 53.5671 14.6004 53.6198C14.4738 53.6725 14.3589 53.7497 14.2622 53.847C14.1656 53.9442 14.0891 54.0597 14.0372 54.1866C13.9854 54.3136 13.9591 54.4495 13.96 54.5867V62.92C13.96 63.1958 14.0696 63.4603 14.2646 63.6554C14.4596 63.8504 14.7242 63.96 15 63.96H21.2533C21.3899 63.96 21.5251 63.9331 21.6513 63.8808C21.7775 63.8286 21.8921 63.7519 21.9887 63.6554C22.0853 63.5588 22.1619 63.4442 22.2142 63.318C22.2664 63.1918 22.2933 63.0566 22.2933 62.92V54.5867C22.2942 54.4495 22.2679 54.3136 22.2161 54.1866C22.1642 54.0597 22.0877 53.9442 21.9911 53.847C21.8944 53.7497 21.7795 53.6725 21.6529 53.6198C21.5262 53.5671 21.3905 53.54 21.2533 53.54ZM20.2067 61.8733H16.04V55.6267H20.2067V61.8733Z" fill="#1E2A3A"/>
<path d="M65 53.54H58.7467C58.6096 53.54 58.4738 53.5671 58.3472 53.6198C58.2205 53.6725 58.1056 53.7497 58.0089 53.847C57.9123 53.9442 57.8358 54.0597 57.7839 54.1866C57.7321 54.3136 57.7058 54.4495 57.7067 54.5867V62.92C57.7067 63.1958 57.8163 63.4603 58.0113 63.6554C58.2063 63.8504 58.4709 63.96 58.7467 63.96H65C65.2759 63.96 65.5404 63.8504 65.7354 63.6554C65.9305 63.4603 66.04 63.1958 66.04 62.92V54.5867C66.0409 54.4495 66.0147 54.3136 65.9628 54.1866C65.9109 54.0597 65.8344 53.9442 65.7378 53.847C65.6411 53.7497 65.5262 53.6725 65.3996 53.6198C65.273 53.5671 65.1372 53.54 65 53.54ZM63.96 61.8733H59.7934V55.6267H63.96V61.8733Z" fill="#1E2A3A"/>
<path d="M29.5866 43.1266C29.7237 43.1266 29.8595 43.0995 29.9861 43.0468C30.1128 42.9942 30.2277 42.917 30.3244 42.8197C30.421 42.7224 30.4975 42.607 30.5494 42.48C30.6012 42.3531 30.6275 42.2171 30.6266 42.08V31.6666C30.6266 31.3908 30.517 31.1263 30.322 30.9313C30.127 30.7362 29.8624 30.6266 29.5866 30.6266H17.0799C16.8041 30.6266 16.5396 30.7362 16.3445 30.9313C16.1495 31.1263 16.0399 31.3908 16.0399 31.6666V42.08C16.0391 42.2171 16.0653 42.3531 16.1172 42.48C16.1691 42.607 16.2455 42.7224 16.3422 42.8197C16.4388 42.917 16.5538 42.9942 16.6804 43.0468C16.807 43.0995 16.9428 43.1266 17.0799 43.1266H29.5866ZM18.1266 32.7066H28.5399V41.04H18.1266V32.7066Z" fill="#1E2A3A"/>
<path d="M33.7467 43.1266H46.2533C46.3905 43.1266 46.5263 43.0995 46.6529 43.0468C46.7795 42.9942 46.8945 42.917 46.9911 42.8197C47.0878 42.7224 47.1642 42.607 47.2161 42.48C47.268 42.3531 47.2942 42.2171 47.2934 42.08V31.6666C47.2934 31.3908 47.1838 31.1263 46.9887 30.9313C46.7937 30.7362 46.5292 30.6266 46.2533 30.6266H33.7467C33.4709 30.6266 33.2063 30.7362 33.0113 30.9313C32.8163 31.1263 32.7067 31.3908 32.7067 31.6666V42.08C32.7058 42.2171 32.7321 42.3531 32.7839 42.48C32.8358 42.607 32.9123 42.7224 33.0089 42.8197C33.1056 42.917 33.2205 42.9942 33.3471 43.0468C33.4738 43.0995 33.6095 43.1266 33.7467 43.1266ZM34.7934 32.7066H45.2067V41.04H34.7934V32.7066Z" fill="#1E2A3A"/>
<path d="M50.4133 43.1266H62.92C63.0571 43.1266 63.1929 43.0995 63.3195 43.0468C63.4461 42.9942 63.5611 42.917 63.6577 42.8197C63.7544 42.7224 63.8309 42.607 63.8827 42.48C63.9346 42.3531 63.9609 42.2171 63.96 42.08V31.6666C63.96 31.3908 63.8504 31.1263 63.6554 30.9313C63.4603 30.7362 63.1958 30.6266 62.92 30.6266H50.4133C50.1375 30.6266 49.873 30.7362 49.6779 30.9313C49.4829 31.1263 49.3733 31.3908 49.3733 31.6666V42.08C49.3724 42.2171 49.3987 42.3531 49.4506 42.48C49.5024 42.607 49.5789 42.7224 49.6756 42.8197C49.7722 42.917 49.8872 42.9942 50.0138 43.0468C50.1404 43.0995 50.2762 43.1266 50.4133 43.1266ZM51.46 32.7066H61.8733V41.04H51.46V32.7066Z" fill="#1E2A3A"/>
<path d="M43.9467 16.1867L40.8133 12.2667C40.7208 12.1594 40.608 12.0715 40.4814 12.008C40.3548 11.9445 40.2168 11.9067 40.0755 11.8968C39.9342 11.8869 39.7924 11.905 39.6581 11.9502C39.5239 11.9954 39.3999 12.0667 39.2933 12.16C39.2545 12.1921 39.2188 12.2278 39.1867 12.2667L36.0533 16.1867C35.2386 17.2072 34.7944 18.4741 34.7933 19.78C34.7933 20.9982 35.2773 22.1666 36.1387 23.028C37.0001 23.8894 38.1684 24.3733 39.3867 24.3733H40.6133C41.8316 24.3733 42.9999 23.8894 43.8613 23.028C44.7227 22.1666 45.2067 20.9982 45.2067 19.78C45.2056 18.4741 44.7614 17.2072 43.9467 16.1867ZM42.3867 21.52C42.1547 21.7545 41.8786 21.9407 41.5742 22.0677C41.2698 22.1947 40.9432 22.2601 40.6133 22.26H39.3867C39.0566 22.26 38.7298 22.195 38.4249 22.0687C38.1199 21.9424 37.8429 21.7572 37.6095 21.5239C37.3761 21.2905 37.191 21.0134 37.0647 20.7085C36.9383 20.4035 36.8733 20.0767 36.8733 19.7467C36.8747 18.9129 37.1591 18.1043 37.68 17.4533L40 14.58L42.32 17.4867C42.8404 18.1353 43.1249 18.9417 43.1267 19.7733C43.1276 20.1043 43.0627 20.4321 42.9357 20.7377C42.8086 21.0433 42.622 21.3206 42.3867 21.5533V21.52Z" fill="#1E2A3A"/>
<path d="M43.1266 19.7733C43.1249 20.4399 42.8597 21.0789 42.389 21.5509C41.9182 22.0229 41.2799 22.2898 40.6133 22.2933H39.3866C39.0566 22.2933 38.7297 22.2283 38.4248 22.102C38.1199 21.9757 37.8428 21.7905 37.6094 21.5572C37.376 21.3238 37.1909 21.0467 37.0646 20.7418C36.9383 20.4368 36.8733 20.11 36.8733 19.78C36.8746 18.9462 37.159 18.1376 37.68 17.4866L40 14.58L42.32 17.4866C42.8404 18.1353 43.1248 18.9416 43.1266 19.7733Z" fill="#FE444A"/>
</svg>
