<?xml version="1.0" encoding="UTF-8"?><svg id="Layer_1" xmlns="http://www.w3.org/2000/svg" viewBox="0 0 79.2 79.2"><defs><style>.cls-1{fill:#fff;}.cls-2{fill:#e30513;}</style></defs><rect class="cls-2" x="41.53" y="17.13" width="24.84" height="22.64" rx="1.88" ry="1.88"/><path class="cls-2" d="M45.18,37.99v6.33c0,.81,.98,1.22,1.56,.65l7.2-7.2-8.76,.23Z"/><path class="cls-1" d="M51.35,22.06c.71-.46,1.58-.68,2.61-.68,1.35,0,2.48,.32,3.37,.97,.9,.65,1.34,1.61,1.34,2.88,0,.78-.19,1.43-.58,1.97-.23,.32-.66,.74-1.31,1.24l-.64,.49c-.35,.27-.58,.58-.69,.94-.07,.23-.11,.58-.12,1.06h-2.44c.04-1.01,.13-1.71,.29-2.1,.16-.39,.56-.83,1.2-1.33l.65-.51c.21-.16,.39-.34,.52-.53,.24-.33,.36-.69,.36-1.09,0-.46-.13-.87-.4-1.24-.27-.37-.75-.56-1.46-.56s-1.15,.26-1.48,.69c-.38,.51-.31,1.44-.31,1.44h-2.72c.07-1.71,.67-2.92,1.79-3.63Zm2.79,10.1h.09c.72,0,1.3,.58,1.3,1.3h0c0,.72-.58,1.3-1.3,1.3h-.09c-.72,0-1.3-.58-1.3-1.3h0c0-.72,.58-1.3,1.3-1.3Z"/><g><path class="cls-2" d="M37.19,51c-.64-.33-1.41-.21-1.96,.27-1.77,1.56-4.43,2.55-7.41,2.55s-5.65-.99-7.41-2.55c-.54-.48-1.32-.61-1.96-.27-3.34,1.74-5.62,5.22-5.62,9.24v3.53c0,1.28,1.04,2.33,2.33,2.33h25.34c1.28,0,2.33-1.04,2.33-2.33v-3.53c0-4.02-2.28-7.51-5.62-9.24Z"/><rect class="cls-2" x="17.37" y="27.1" width="20.9" height="22.84" rx="10.45" ry="10.45"/></g></svg>