<svg width="80" height="80" viewBox="0 0 80 80" fill="none" xmlns="http://www.w3.org/2000/svg">
<path d="M19.1667 43.1267H25.4133C25.5508 43.1267 25.6869 43.0996 25.8139 43.047C25.9409 42.9944 26.0562 42.9173 26.1534 42.8201C26.2506 42.7229 26.3277 42.6075 26.3803 42.4806C26.4329 42.3536 26.46 42.2175 26.46 42.08V37.92C26.46 37.7826 26.4329 37.6465 26.3803 37.5195C26.3277 37.3925 26.2506 37.2771 26.1534 37.1799C26.0562 37.0827 25.9409 37.0056 25.8139 36.953C25.6869 36.9004 25.5508 36.8734 25.4133 36.8734H19.1667C19.0295 36.8734 18.8937 36.9005 18.7671 36.9532C18.6405 37.0058 18.5256 37.083 18.4289 37.1803C18.3322 37.2776 18.2558 37.393 18.2039 37.52C18.152 37.6469 18.1258 37.7829 18.1267 37.92V42.08C18.1258 42.2172 18.152 42.3531 18.2039 42.4801C18.2558 42.607 18.3322 42.7224 18.4289 42.8197C18.5256 42.917 18.6405 42.9942 18.7671 43.0469C18.8937 43.0996 19.0295 43.1267 19.1667 43.1267ZM20.2067 38.96H24.3733V41.04H20.2067V38.96Z" fill="#1E2A3A"/>
<path d="M29.5866 43.1267H35.8333C35.9704 43.1267 36.1062 43.0996 36.2328 43.0469C36.3595 42.9942 36.4744 42.917 36.5711 42.8197C36.6677 42.7224 36.7442 42.607 36.7961 42.4801C36.8479 42.3531 36.8742 42.2172 36.8733 42.08V37.92C36.8742 37.7829 36.8479 37.6469 36.7961 37.52C36.7442 37.393 36.6677 37.2776 36.5711 37.1803C36.4744 37.083 36.3595 37.0058 36.2328 36.9532C36.1062 36.9005 35.9704 36.8734 35.8333 36.8734H29.5866C29.3091 36.8734 29.0428 36.9836 28.8465 37.1799C28.6503 37.3762 28.54 37.6424 28.54 37.92V42.08C28.54 42.3576 28.6503 42.6238 28.8465 42.8201C29.0428 43.0164 29.3091 43.1267 29.5866 43.1267ZM30.6266 38.96H34.7933V41.04H30.6266V38.96Z" fill="#1E2A3A"/>
<path d="M36.88 28.54H26.46V30.6267H36.88V28.54Z" fill="#1E2A3A"/>
<path d="M69.08 34.9867C70.9338 32.4427 72.0366 29.4296 72.2629 26.2899C72.4891 23.1503 71.8299 20.0102 70.36 17.2267C68.8461 14.354 66.5766 11.9492 63.7964 10.2716C61.0161 8.59405 57.8305 7.70746 54.5833 7.70746C51.3362 7.70746 48.1506 8.59405 45.3703 10.2716C42.59 11.9492 40.3205 14.354 38.8067 17.2267C37.6543 19.4408 36.9991 21.8798 36.8867 24.3733H23.3333C23.1968 24.3733 23.0615 24.4002 22.9353 24.4525C22.8092 24.5048 22.6945 24.5814 22.5979 24.6779C22.5014 24.7745 22.4248 24.8892 22.3725 25.0154C22.3202 25.1415 22.2933 25.2768 22.2933 25.4133V28.54H12.92C12.6424 28.54 12.3762 28.6503 12.1799 28.8466C11.9836 29.0429 11.8733 29.3091 11.8733 29.5867V47.2933H10.8333C10.5575 47.2933 10.293 47.4029 10.0979 47.5979C9.9029 47.793 9.79333 48.0575 9.79333 48.3333V66.04H8.74666C8.47084 66.04 8.20631 66.1496 8.01127 66.3446C7.81624 66.5397 7.70667 66.8042 7.70667 67.08V71.2533C7.70667 71.5292 7.81624 71.7937 8.01127 71.9887C8.20631 72.1838 8.47084 72.2933 8.74666 72.2933H56.6667C56.9425 72.2933 57.207 72.1838 57.4021 71.9887C57.5971 71.7937 57.7067 71.5292 57.7067 71.2533V67.08C57.7067 66.8042 57.5971 66.5397 57.4021 66.3446C57.207 66.1496 56.9425 66.04 56.6667 66.04H55.6267V52.8467L69.08 34.9867ZM24.3733 26.46H36.9267C37.1122 28.6391 37.7213 30.761 38.72 32.7067H24.3733V26.46ZM13.96 30.6267H22.2933V33.7467C22.2925 33.8838 22.3187 34.0198 22.3706 34.1467C22.4224 34.2737 22.4989 34.3891 22.5956 34.4864C22.6922 34.5837 22.8072 34.6609 22.9338 34.7135C23.0604 34.7662 23.1962 34.7933 23.3333 34.7933H40C40.0467 34.86 40.0867 34.9333 40.14 35L41.5467 36.8733H40C39.8629 36.8733 39.7271 36.9005 39.6005 36.9531C39.4738 37.0058 39.3589 37.083 39.2622 37.1803C39.1656 37.2776 39.0891 37.393 39.0372 37.52C38.9854 37.6469 38.9591 37.7829 38.96 37.92V42.08C38.9591 42.2171 38.9854 42.3531 39.0372 42.48C39.0891 42.607 39.1656 42.7224 39.2622 42.8197C39.3589 42.917 39.4738 42.9942 39.6005 43.0469C39.7271 43.0996 39.8629 43.1267 40 43.1267H46.22L49.3333 47.2933H47.2667V46.2533C47.2675 46.1162 47.2413 45.9803 47.1894 45.8533C47.1376 45.7264 47.0611 45.6109 46.9644 45.5136C46.8678 45.4164 46.7528 45.3391 46.6262 45.2865C46.4996 45.2338 46.3638 45.2067 46.2267 45.2067H19.1667C19.0295 45.2067 18.8937 45.2338 18.7671 45.2865C18.6405 45.3391 18.5256 45.4164 18.4289 45.5136C18.3322 45.6109 18.2558 45.7264 18.2039 45.8533C18.152 45.9803 18.1258 46.1162 18.1267 46.2533V47.2933H13.96V30.6267ZM43.08 38.96L44.6667 41.04H41.04V38.96H43.08ZM20.2067 49.3733V47.2933H45.2067V49.3733H20.2067ZM43.1267 51.46V66.04H41.04V51.46H43.1267ZM32.7067 55.6267C31.6016 55.6267 30.5418 56.0657 29.7604 56.8471C28.979 57.6285 28.54 58.6883 28.54 59.7933V66.04H26.46V51.46H38.96V66.04H36.8733V59.7933C36.8733 58.6883 36.4343 57.6285 35.6529 56.8471C34.8715 56.0657 33.8117 55.6267 32.7067 55.6267ZM34.7933 59.7933V66.04H30.6267V59.7933C30.6106 59.5098 30.6526 59.226 30.7501 58.9593C30.8475 58.6926 30.9984 58.4486 31.1934 58.2422C31.3884 58.0359 31.6235 57.8715 31.8843 57.7591C32.1451 57.6467 32.426 57.5888 32.71 57.5888C32.994 57.5888 33.2749 57.6467 33.5357 57.7591C33.7965 57.8715 34.0316 58.0359 34.2266 58.2422C34.4216 58.4486 34.5725 58.6926 34.6699 58.9593C34.7674 59.226 34.8094 59.5098 34.7933 59.7933ZM24.3733 51.46V66.04H22.2933V51.46H24.3733ZM45.2067 51.46H46.2533C46.3905 51.46 46.5263 51.4329 46.6529 51.3802C46.7795 51.3275 46.8944 51.2503 46.9911 51.153C47.0878 51.0558 47.1642 50.9403 47.2161 50.8134C47.268 50.6864 47.2942 50.5505 47.2933 50.4133V49.3733H50.9267L53.54 52.8467V66.04H45.2067V51.46ZM11.8733 49.3733H18.1267V50.4133C18.1258 50.5505 18.152 50.6864 18.2039 50.8134C18.2558 50.9403 18.3322 51.0558 18.4289 51.153C18.5256 51.2503 18.6405 51.3275 18.7671 51.3802C18.8937 51.4329 19.0295 51.46 19.1667 51.46H20.2067V66.04H11.8733V49.3733ZM55.6267 70.2067H9.79333V68.1267H55.6267V70.2067ZM54.5867 50.7667L52.28 47.7067L41.7867 33.7733C40.1615 31.5398 39.1951 28.8953 38.9971 26.1402C38.7991 23.3851 39.3775 20.6296 40.6667 18.1867C42.0067 15.6542 44.0118 13.535 46.4662 12.0569C48.9206 10.5788 51.7315 9.79774 54.5967 9.79774C57.4618 9.79774 60.2727 10.5788 62.7271 12.0569C65.1816 13.535 67.1866 15.6542 68.5267 18.1867C69.8127 20.6258 70.3895 23.3765 70.1915 26.1268C69.9935 28.8771 69.0288 31.5169 67.4067 33.7467L54.5867 50.7667Z" fill="#1E2A3A"/>
<path d="M54.5867 11.8734C51.9068 11.872 49.2868 12.6656 47.058 14.1536C44.8293 15.6416 43.0919 17.7573 42.0658 20.2329C41.0396 22.7085 40.7708 25.4328 41.2933 28.0612C41.8158 30.6896 43.1061 33.104 45.0011 34.999C46.896 36.8939 49.3104 38.1842 51.9388 38.7067C54.5672 39.2292 57.2916 38.9604 59.7672 37.9342C62.2428 36.9081 64.3584 35.1707 65.8464 32.942C67.3344 30.7132 68.128 28.0932 68.1267 25.4134C68.1249 21.8229 66.6978 18.3799 64.1589 15.8411C61.6201 13.3022 58.1772 11.8751 54.5867 11.8734ZM54.5867 36.8734C52.3198 36.8747 50.1035 36.2037 48.218 34.9452C46.3326 33.6868 44.8627 31.8975 43.9943 29.8035C43.1259 27.7096 42.8979 25.4052 43.3394 23.1817C43.7808 20.9582 44.8718 18.9156 46.4742 17.3123C48.0766 15.7089 50.1186 14.6168 52.3418 14.174C54.565 13.7313 56.8696 13.9579 58.964 14.8251C61.0584 15.6922 62.8486 17.1611 64.1082 19.0458C65.3677 20.9306 66.04 23.1465 66.04 25.4134C66.0409 26.918 65.7453 28.408 65.1701 29.7984C64.5949 31.1888 63.7514 32.4521 62.6877 33.5164C61.6241 34.5806 60.3612 35.4249 58.9712 36.0009C57.5812 36.5769 56.0913 36.8734 54.5867 36.8734Z" fill="#1E2A3A"/>
<path d="M60 24.6667L55.4933 16.58C55.3376 16.3399 55.0934 16.1709 54.8138 16.1097C54.5342 16.0486 54.2418 16.1002 54 16.2534C53.871 16.3378 53.7618 16.4493 53.68 16.58L49.2533 24.58C48.6549 25.6543 48.3406 26.8636 48.34 28.0934V28.32C48.3367 29.1985 48.5084 30.0689 48.8449 30.8804C49.1814 31.6919 49.676 32.4283 50.3 33.0467C50.8629 33.6109 51.5316 34.0585 52.2677 34.3639C53.0039 34.6694 53.793 34.8266 54.59 34.8266C55.387 34.8266 56.1762 34.6694 56.9123 34.3639C57.6484 34.0585 58.3171 33.6109 58.88 33.0467C59.504 32.4283 59.9987 31.6919 60.3352 30.8804C60.6717 30.0689 60.8433 29.1985 60.84 28.32V27.9467C60.8443 26.7996 60.5551 25.6705 60 24.6667ZM58.7533 28.28C58.7578 28.8836 58.6423 29.4821 58.4134 30.0406C58.1845 30.5991 57.8468 31.1065 57.42 31.5334C56.6708 32.2763 55.6585 32.6932 54.6033 32.6932C53.5482 32.6932 52.5358 32.2763 51.7867 31.5334C51.3614 31.1054 51.0247 30.5978 50.7959 30.0395C50.5671 29.4813 50.4507 28.8833 50.4533 28.28V28.0534C50.4622 27.1773 50.6915 26.3175 51.12 25.5534L54.64 19.22L58.2267 25.68C58.6005 26.3628 58.7976 27.1283 58.8 27.9067L58.7533 28.28Z" fill="#1E2A3A"/>
<path d="M58.1733 25.6867L54.5867 19.2267L51.0667 25.56C50.6382 26.3242 50.4089 27.1839 50.4 28.06V28.2867C50.3974 28.89 50.5138 29.4879 50.7426 30.0462C50.9714 30.6044 51.308 31.1121 51.7333 31.54C52.4825 32.283 53.4949 32.6999 54.55 32.6999C55.6051 32.6999 56.6175 32.283 57.3667 31.54C57.7935 31.1132 58.1311 30.6057 58.36 30.0472C58.5889 29.4887 58.7045 28.8903 58.7 28.2867V27.9133C58.712 27.1389 58.531 26.3737 58.1733 25.6867ZM54.5867 31.6867V29.5867C54.7238 29.5867 54.8596 29.5596 54.9862 29.5069C55.1128 29.4542 55.2278 29.377 55.3244 29.2797C55.4211 29.1824 55.4976 29.067 55.5494 28.94C55.6013 28.8131 55.6276 28.6771 55.6267 28.54H57.7067C57.7067 29.3681 57.3782 30.1624 56.7933 30.7485C56.2083 31.3347 55.4148 31.6649 54.5867 31.6667V31.6867Z" fill="#FE444A"/>
<path d="M57.7067 28.54C57.7067 29.3681 57.3782 30.1624 56.7933 30.7486C56.2083 31.3347 55.4148 31.6649 54.5867 31.6667V29.5867C54.7238 29.5867 54.8596 29.5596 54.9862 29.5069C55.1128 29.4542 55.2278 29.377 55.3244 29.2797C55.4211 29.1824 55.4976 29.067 55.5494 28.9401C55.6013 28.8131 55.6276 28.6772 55.6267 28.54H57.7067Z" fill="#1E2A3A"/>
</svg>
