<svg width="80" height="80" viewBox="0 0 80 80" fill="none" xmlns="http://www.w3.org/2000/svg">
<path d="M25.4133 16.04H22.2933V12.92C22.2942 12.7828 22.2679 12.6469 22.216 12.5199C22.1642 12.393 22.0877 12.2776 21.991 12.1803C21.8944 12.083 21.7794 12.0058 21.6528 11.9531C21.5262 11.9004 21.3904 11.8733 21.2533 11.8733H17.08C16.9428 11.8733 16.807 11.9004 16.6804 11.9531C16.5538 12.0058 16.4389 12.083 16.3422 12.1803C16.2455 12.2776 16.1691 12.393 16.1172 12.5199C16.0653 12.6469 16.0391 12.7828 16.04 12.92V16.04H12.92C12.7828 16.0391 12.6469 16.0654 12.5199 16.1172C12.393 16.1691 12.2775 16.2456 12.1803 16.3422C12.083 16.4389 12.0058 16.5538 11.9531 16.6804C11.9004 16.8071 11.8733 16.9428 11.8733 17.08V21.2533C11.8733 21.3904 11.9004 21.5262 11.9531 21.6528C12.0058 21.7795 12.083 21.8944 12.1803 21.9911C12.2775 22.0877 12.393 22.1642 12.5199 22.2161C12.6469 22.2679 12.7828 22.2942 12.92 22.2933H16.04V25.4133C16.0391 25.5504 16.0653 25.6864 16.1172 25.8134C16.1691 25.9403 16.2455 26.0557 16.3422 26.153C16.4389 26.2503 16.5538 26.3275 16.6804 26.3802C16.807 26.4329 16.9428 26.46 17.08 26.46H21.2533C21.3904 26.46 21.5262 26.4329 21.6528 26.3802C21.7794 26.3275 21.8944 26.2503 21.991 26.153C22.0877 26.0557 22.1642 25.9403 22.216 25.8134C22.2679 25.6864 22.2942 25.5504 22.2933 25.4133V22.2933H25.4133C25.5504 22.2942 25.6864 22.2679 25.8133 22.2161C25.9403 22.1642 26.0557 22.0877 26.153 21.9911C26.2503 21.8944 26.3275 21.7795 26.3802 21.6528C26.4328 21.5262 26.46 21.3904 26.46 21.2533V17.08C26.46 16.9428 26.4328 16.8071 26.3802 16.6804C26.3275 16.5538 26.2503 16.4389 26.153 16.3422C26.0557 16.2456 25.9403 16.1691 25.8133 16.1172C25.6864 16.0654 25.5504 16.0391 25.4133 16.04ZM24.3733 20.2066H21.2533C20.9757 20.2066 20.7095 20.3169 20.5132 20.5132C20.3169 20.7095 20.2066 20.9757 20.2066 21.2533V24.3733H18.1266V21.2533C18.1266 20.9757 18.0164 20.7095 17.8201 20.5132C17.6238 20.3169 17.3576 20.2066 17.08 20.2066H13.96V18.1266H17.08C17.3576 18.1266 17.6238 18.0164 17.8201 17.8201C18.0164 17.6238 18.1266 17.3576 18.1266 17.08V13.96H20.2066V17.08C20.2066 17.3576 20.3169 17.6238 20.5132 17.8201C20.7095 18.0164 20.9757 18.1266 21.2533 18.1266H24.3733V20.2066Z" fill="#1E2A3A"/>
<path d="M29.5867 26.46H48.3334C48.4705 26.46 48.6063 26.4329 48.7329 26.3802C48.8595 26.3275 48.9745 26.2503 49.0711 26.153C49.1678 26.0557 49.2443 25.9403 49.2961 25.8134C49.348 25.6864 49.3742 25.5504 49.3734 25.4133V12.92C49.3742 12.7828 49.348 12.6469 49.2961 12.5199C49.2443 12.393 49.1678 12.2776 49.0711 12.1803C48.9745 12.083 48.8595 12.0058 48.7329 11.9531C48.6063 11.9004 48.4705 11.8733 48.3334 11.8733H29.5867C29.3091 11.8733 29.0429 11.9836 28.8466 12.1799C28.6503 12.3762 28.54 12.6424 28.54 12.92V25.4133C28.54 25.5508 28.5671 25.6869 28.6197 25.8139C28.6723 25.9408 28.7494 26.0562 28.8466 26.1534C28.9438 26.2506 29.0592 26.3277 29.1862 26.3803C29.3131 26.4329 29.4493 26.46 29.5867 26.46ZM30.6267 13.96H47.2934V24.3733H30.6267V13.96Z" fill="#1E2A3A"/>
<path d="M45.2067 16.04H32.7067V18.1266H45.2067V16.04Z" fill="#1E2A3A"/>
<path d="M45.2067 20.2066H32.7067V22.2933H45.2067V20.2066Z" fill="#1E2A3A"/>
<path d="M12.92 34.7933H48.3333C48.4704 34.7933 48.6062 34.7662 48.7328 34.7135C48.8594 34.6608 48.9744 34.5836 49.0711 34.4864C49.1677 34.3891 49.2442 34.2736 49.2961 34.1467C49.3479 34.0197 49.3742 33.8838 49.3733 33.7466V29.5867C49.3742 29.4495 49.3479 29.3136 49.2961 29.1866C49.2442 29.0597 49.1677 28.9442 49.0711 28.8469C48.9744 28.7497 48.8594 28.6725 48.7328 28.6198C48.6062 28.5671 48.4704 28.54 48.3333 28.54H12.92C12.6424 28.54 12.3761 28.6503 12.1799 28.8465C11.9836 29.0428 11.8733 29.3091 11.8733 29.5867V33.7466C11.8733 34.0242 11.9836 34.2905 12.1799 34.4868C12.3761 34.683 12.6424 34.7933 12.92 34.7933ZM13.96 30.6267H47.2933V32.7067H13.96V30.6267Z" fill="#1E2A3A"/>
<path d="M49.38 36.8733H30.6267V38.96H49.38V36.8733Z" fill="#1E2A3A"/>
<path d="M49.38 41.04H30.6267V43.1267H49.38V41.04Z" fill="#1E2A3A"/>
<path d="M43.1267 45.2066H30.6267V47.2933H43.1267V45.2066Z" fill="#1E2A3A"/>
<path d="M43.1267 49.3733H30.6267V51.46H43.1267V49.3733Z" fill="#1E2A3A"/>
<path d="M27.5 36.8733H12.92C12.6424 36.8733 12.3761 36.9836 12.1799 37.1799C11.9836 37.3762 11.8733 37.6424 11.8733 37.92V58.7467C11.8733 59.0242 11.9836 59.2905 12.1799 59.4868C12.3761 59.683 12.6424 59.7933 12.92 59.7933H27.5C27.6371 59.7933 27.7729 59.7662 27.8995 59.7135C28.0261 59.6608 28.1411 59.5836 28.2377 59.4864C28.3344 59.3891 28.4108 59.2736 28.4627 59.1467C28.5146 59.0197 28.5408 58.8838 28.54 58.7467V37.92C28.5408 37.7828 28.5146 37.6469 28.4627 37.5199C28.4108 37.393 28.3344 37.2776 28.2377 37.1803C28.1411 37.083 28.0261 37.0058 27.8995 36.9531C27.7729 36.9004 27.6371 36.8733 27.5 36.8733ZM26.46 57.7066H13.96V38.96H26.46V57.7066Z" fill="#1E2A3A"/>
<path d="M56.6667 45.2066H53.54V8.74665C53.54 8.47082 53.4304 8.2063 53.2354 8.01126C53.0404 7.81622 52.7758 7.70665 52.5 7.70665H8.74666C8.47084 7.70665 8.20631 7.81622 8.01127 8.01126C7.81624 8.2063 7.70667 8.47082 7.70667 8.74665V65C7.70667 65.2758 7.81624 65.5403 8.01127 65.7354C8.20631 65.9304 8.47084 66.04 8.74666 66.04H47.2933V68.1267C47.2933 69.2317 47.7323 70.2915 48.5137 71.0729C49.2951 71.8543 50.3549 72.2933 51.46 72.2933C52.5651 72.2933 53.6249 71.8543 54.4063 71.0729C55.1877 70.2915 55.6267 69.2317 55.6267 68.1267V51.46H56.6667C56.8038 51.46 56.9396 51.4329 57.0662 51.3802C57.1928 51.3275 57.3078 51.2503 57.4044 51.153C57.5011 51.0557 57.5776 50.9403 57.6294 50.8134C57.6813 50.6864 57.7075 50.5505 57.7067 50.4133V46.2533C57.7075 46.1162 57.6813 45.9802 57.6294 45.8533C57.5776 45.7263 57.5011 45.6109 57.4044 45.5136C57.3078 45.4163 57.1928 45.3391 57.0662 45.2864C56.9396 45.2338 56.8038 45.2066 56.6667 45.2066ZM47.2933 53.54H30.6267V55.6267H47.2933V57.7066H30.6267V59.7933H47.2933V63.96H9.79333V9.79332H51.46V45.2066H46.2533C45.9757 45.2066 45.7095 45.3169 45.5132 45.5132C45.3169 45.7095 45.2067 45.9757 45.2067 46.2533V50.4133C45.2067 50.6909 45.3169 50.9571 45.5132 51.1534C45.7095 51.3497 45.9757 51.46 46.2533 51.46H47.2933V53.54ZM53.54 68.1267C53.5099 68.6588 53.2773 69.1593 52.8899 69.5254C52.5025 69.8915 51.9897 70.0954 51.4567 70.0954C50.9237 70.0954 50.4109 69.8915 50.0235 69.5254C49.6361 69.1593 49.4034 68.6588 49.3733 68.1267V57.7066H53.54V68.1267ZM53.54 55.6267H49.3733V51.46H53.54V55.6267ZM55.6267 49.3733H47.2933V47.2933H55.6267V49.3733Z" fill="#1E2A3A"/>
<path d="M53.54 57.7066V68.1267C53.5098 68.6588 53.2772 69.1593 52.8898 69.5254C52.5024 69.8915 51.9896 70.0954 51.4566 70.0954C50.9236 70.0954 50.4108 69.8915 50.0234 69.5254C49.636 69.1593 49.4034 68.6588 49.3733 68.1267V57.7066H53.54Z" fill="#FE444A"/>
<path d="M24.3733 18.1267V20.2066H21.2533C20.9757 20.2066 20.7095 20.3169 20.5132 20.5132C20.3169 20.7095 20.2066 20.9757 20.2066 21.2533V24.3733H18.1266V21.2533C18.1266 20.9757 18.0164 20.7095 17.8201 20.5132C17.6238 20.3169 17.3576 20.2066 17.08 20.2066H13.96V18.1267H17.08C17.3576 18.1267 17.6238 18.0164 17.8201 17.8201C18.0164 17.6238 18.1266 17.3576 18.1266 17.08V13.96H20.2066V17.08C20.2066 17.3576 20.3169 17.6238 20.5132 17.8201C20.7095 18.0164 20.9757 18.1267 21.2533 18.1267H24.3733Z" fill="#FE444A"/>
<path d="M71.2533 45.2066H60.8334C60.6962 45.2066 60.5604 45.2338 60.4338 45.2864C60.3072 45.3391 60.1923 45.4163 60.0956 45.5136C59.9989 45.6109 59.9225 45.7263 59.8706 45.8533C59.8187 45.9802 59.7925 46.1162 59.7934 46.2533V50.4133C59.7925 50.5504 59.8187 50.6864 59.8706 50.8133C59.9225 50.9403 59.9989 51.0557 60.0956 51.153C60.1923 51.2503 60.3072 51.3275 60.4338 51.3802C60.5604 51.4329 60.6962 51.46 60.8334 51.46H61.8734V68.1266C61.8734 69.2317 62.3123 70.2915 63.0937 71.0729C63.8751 71.8543 64.9349 72.2933 66.04 72.2933C67.1451 72.2933 68.2049 71.8543 68.9863 71.0729C69.7677 70.2915 70.2067 69.2317 70.2067 68.1266V51.46H71.2533C71.3905 51.46 71.5263 51.4329 71.6529 51.3802C71.7795 51.3275 71.8945 51.2503 71.9911 51.153C72.0878 51.0557 72.1642 50.9403 72.2161 50.8133C72.268 50.6864 72.2942 50.5504 72.2934 50.4133V46.2533C72.2942 46.1162 72.268 45.9802 72.2161 45.8533C72.1642 45.7263 72.0878 45.6109 71.9911 45.5136C71.8945 45.4163 71.7795 45.3391 71.6529 45.2864C71.5263 45.2338 71.3905 45.2066 71.2533 45.2066ZM68.1267 68.1266C68.0966 68.6588 67.864 69.1593 67.4766 69.5254C67.0892 69.8914 66.5764 70.0954 66.0434 70.0954C65.5103 70.0954 64.9975 69.8914 64.6101 69.5254C64.2228 69.1593 63.9901 68.6588 63.96 68.1266V57.7066H68.1267V68.1266ZM68.1267 55.6266H63.96V51.46H68.1267V55.6266ZM70.2067 49.3733H61.8734V47.2933H70.2067V49.3733Z" fill="#1E2A3A"/>
<path d="M68.1266 57.7066V68.1267C68.0965 68.6588 67.8639 69.1593 67.4765 69.5254C67.0891 69.8915 66.5763 70.0954 66.0433 70.0954C65.5103 70.0954 64.9975 69.8915 64.6101 69.5254C64.2227 69.1593 63.9901 68.6588 63.96 68.1267V57.7066H68.1266Z" fill="#FE444A"/>
<path d="M59.7934 43.1266C60.6175 43.1266 61.423 42.8823 62.1082 42.4244C62.7935 41.9666 63.3275 41.3159 63.6429 40.5545C63.9582 39.7931 64.0407 38.9554 63.88 38.1471C63.7192 37.3388 63.3224 36.5964 62.7397 36.0137C62.1569 35.431 61.4145 35.0341 60.6063 34.8734C59.798 34.7126 58.9602 34.7951 58.1989 35.1105C57.4375 35.4258 56.7868 35.9599 56.3289 36.6451C55.8711 37.3303 55.6267 38.1359 55.6267 38.96C55.6267 40.065 56.0657 41.1249 56.8471 41.9063C57.6285 42.6877 58.6883 43.1266 59.7934 43.1266ZM59.7934 36.8733C60.2061 36.8733 60.6095 36.9957 60.9527 37.225C61.2958 37.4543 61.5633 37.7802 61.7212 38.1614C61.8791 38.5427 61.9205 38.9623 61.8399 39.3671C61.7594 39.7718 61.5607 40.1437 61.2689 40.4355C60.977 40.7273 60.6052 40.926 60.2005 41.0066C59.7957 41.0871 59.3761 41.0457 58.9948 40.8878C58.6136 40.7299 58.2877 40.4624 58.0584 40.1193C57.8291 39.7761 57.7067 39.3727 57.7067 38.96C57.7067 38.4066 57.9265 37.8758 58.3179 37.4845C58.7092 37.0932 59.24 36.8733 59.7934 36.8733Z" fill="#1E2A3A"/>
<path d="M68.1266 32.7067C68.9507 32.7067 69.7563 32.4623 70.4415 32.0044C71.1267 31.5466 71.6608 30.8959 71.9761 30.1345C72.2915 29.3731 72.374 28.5354 72.2132 27.7271C72.0525 26.9189 71.6556 26.1764 71.0729 25.5937C70.4902 25.011 69.7478 24.6141 68.9395 24.4534C68.1313 24.2926 67.2935 24.3751 66.5321 24.6905C65.7708 25.0058 65.12 25.5399 64.6622 26.2251C64.2043 26.9103 63.96 27.7159 63.96 28.54C63.96 29.6451 64.3989 30.7049 65.1803 31.4863C65.9618 32.2677 67.0216 32.7067 68.1266 32.7067ZM68.1266 26.46C68.5396 26.46 68.9433 26.5825 69.2866 26.8121C69.6299 27.0417 69.8973 27.368 70.0551 27.7497C70.2128 28.1313 70.2538 28.5512 70.1727 28.9562C70.0916 29.3612 69.8922 29.7329 69.5997 30.0245C69.3073 30.3161 68.9348 30.5143 68.5296 30.594C68.1244 30.6738 67.7046 30.6315 67.3235 30.4726C66.9423 30.3136 66.6169 30.0451 66.3884 29.7011C66.1599 29.3571 66.0386 28.953 66.04 28.54C66.04 28.2663 66.094 27.9953 66.1989 27.7425C66.3039 27.4897 66.4577 27.2601 66.6515 27.0668C66.8454 26.8736 67.0755 26.7205 67.3286 26.6164C67.5817 26.5123 67.8529 26.4591 68.1266 26.46Z" fill="#1E2A3A"/>
<path d="M59.7934 22.2933C60.6175 22.2933 61.423 22.0489 62.1082 21.5911C62.7935 21.1333 63.3275 20.4825 63.6429 19.7212C63.9582 18.9598 64.0407 18.122 63.88 17.3138C63.7192 16.5055 63.3224 15.7631 62.7397 15.1804C62.1569 14.5976 61.4145 14.2008 60.6063 14.04C59.798 13.8793 58.9602 13.9618 58.1989 14.2771C57.4375 14.5925 56.7868 15.1266 56.3289 15.8118C55.8711 16.497 55.6267 17.3026 55.6267 18.1266C55.6267 19.2317 56.0657 20.2915 56.8471 21.0729C57.6285 21.8543 58.6883 22.2933 59.7934 22.2933ZM59.7934 16.04C60.2061 16.04 60.6095 16.1624 60.9527 16.3916C61.2958 16.6209 61.5633 16.9468 61.7212 17.3281C61.8791 17.7094 61.9205 18.129 61.8399 18.5337C61.7594 18.9385 61.5607 19.3103 61.2689 19.6021C60.977 19.894 60.6052 20.0927 60.2005 20.1732C59.7957 20.2537 59.3761 20.2124 58.9948 20.0545C58.6136 19.8965 58.2877 19.6291 58.0584 19.2859C57.8291 18.9428 57.7067 18.5393 57.7067 18.1266C57.7067 17.5732 57.9265 17.0425 58.3179 16.6511C58.7092 16.2598 59.24 16.04 59.7934 16.04Z" fill="#1E2A3A"/>
</svg>
