<svg width="80" height="80" viewBox="0 0 80 80" fill="none" xmlns="http://www.w3.org/2000/svg">
<path d="M45.2067 44.1667C45.2067 44.8504 45.072 45.5275 44.8103 46.1592C44.5487 46.7909 44.1652 47.3648 43.6817 47.8483C43.1982 48.3318 42.6242 48.7153 41.9925 48.977C41.3608 49.2386 40.6837 49.3733 40 49.3733V47.2933C40.8292 47.2933 41.6245 46.9639 42.2109 46.3775C42.7973 45.7912 43.1267 44.9959 43.1267 44.1667H45.2067Z" fill="#1E2A3A"/>
<path d="M68.1267 25.4133H66.04C66.04 26.2414 65.7115 27.0357 65.1266 27.6219C64.5417 28.208 63.7481 28.5382 62.92 28.54V30.6267C64.301 30.6231 65.6243 30.0725 66.6002 29.0954C67.576 28.1183 68.125 26.7943 68.1267 25.4133Z" fill="#1E2A3A"/>
<path d="M62.92 66.04V68.1267C64.2999 68.1231 65.6222 67.5735 66.5978 66.5978C67.5735 65.6221 68.1232 64.2998 68.1267 62.92H66.04C66.0383 63.7469 65.709 64.5395 65.1243 65.1242C64.5395 65.709 63.747 66.0382 62.92 66.04Z" fill="#1E2A3A"/>
<path d="M17.0801 66.04V68.1267C18.461 68.1249 19.785 67.576 20.7622 66.6001C21.7393 65.6243 22.2899 64.301 22.2934 62.92H20.2067C20.205 63.7481 19.8748 64.5417 19.2886 65.1266C18.7024 65.7115 17.9082 66.04 17.0801 66.04Z" fill="#1E2A3A"/>
<path d="M22.2934 25.4133H20.2067C20.2067 26.2426 19.8773 27.0379 19.291 27.6242C18.7046 28.2106 17.9093 28.54 17.0801 28.54V30.6267C18.4622 30.6249 19.7872 30.0751 20.7645 29.0978C21.7418 28.1205 22.2916 26.7955 22.2934 25.4133Z" fill="#1E2A3A"/>
<path d="M70.88 30.5733C71.7992 29.1236 72.2892 27.4432 72.2934 25.7267C72.2921 23.2874 71.6135 20.8964 70.3334 18.82L63.8067 8.20667C63.7082 8.0623 63.576 7.94416 63.4214 7.86252C63.2669 7.78088 63.0948 7.7382 62.92 7.7382C62.7453 7.7382 62.5732 7.78088 62.4186 7.86252C62.2641 7.94416 62.1319 8.0623 62.0334 8.20667L58.6667 13.6733C53.217 9.79003 46.6918 7.70304 40 7.70304C33.3083 7.70304 26.7831 9.79003 21.3334 13.6733L18 8.20667C17.9015 8.0623 17.7693 7.94416 17.6148 7.86252C17.4602 7.78088 17.2881 7.7382 17.1134 7.7382C16.9386 7.7382 16.7665 7.78088 16.612 7.86252C16.4574 7.94416 16.3252 8.0623 16.2267 8.20667L9.66669 18.82C8.38651 20.8964 7.70798 23.2874 7.70669 25.7267C7.71182 27.4452 8.20169 29.1274 9.12003 30.58C6.72647 38.3942 7.39379 46.8262 10.9867 54.1667L9.65336 56.32C8.37318 58.3964 7.69464 60.7874 7.69336 63.2267C7.69336 65.6313 8.64859 67.9374 10.3489 69.6378C12.0493 71.3381 14.3554 72.2933 16.76 72.2933H17.38C18.7409 72.2977 20.0851 71.9935 21.3114 71.4034C22.5377 70.8133 23.6143 69.9528 24.46 68.8867C24.5667 68.7533 24.6667 68.6067 24.7734 68.4667C29.4523 70.9776 34.6799 72.2917 39.99 72.2917C45.3002 72.2917 50.5278 70.9776 55.2067 68.4667C55.3134 68.6133 55.4067 68.7533 55.52 68.8867C56.3671 69.9497 57.4429 70.8081 58.6676 71.3979C59.8922 71.9878 61.2341 72.2938 62.5934 72.2933H63.2134C65.618 72.2933 67.9241 71.3381 69.6245 69.6378C71.3248 67.9374 72.28 65.6313 72.28 63.2267C72.2784 60.7874 71.5999 58.3965 70.32 56.32L68.9867 54.1667C71.1619 49.7609 72.2934 44.9135 72.2934 40C72.2882 36.8054 71.812 33.629 70.88 30.5733ZM40 9.79333C46.3061 9.77948 52.4549 11.7606 57.5667 15.4533L55.5 18.82C54.3557 20.6744 53.6913 22.7845 53.5667 24.96L44.96 33.5667L40.8867 26.9533C40.807 26.8351 40.7047 26.7338 40.5856 26.6554C40.4666 26.5769 40.3332 26.5228 40.1931 26.4961C40.053 26.4695 39.909 26.4708 39.7695 26.5001C39.63 26.5294 39.4976 26.586 39.38 26.6667C39.2769 26.7374 39.1867 26.8254 39.1134 26.9267L35.0467 33.54L26.4334 24.96C26.3088 22.7845 25.6444 20.6744 24.5 18.82L22.4334 15.4533C27.5452 11.7606 33.694 9.77948 40 9.79333ZM45.6467 38.6667C46.7212 40.418 47.291 42.432 47.2934 44.4867C47.2898 46.3362 46.5531 48.1088 45.2447 49.416C43.9362 50.7232 42.1629 51.4582 40.3134 51.46H39.6867C38.6399 51.4628 37.6061 51.2285 36.6628 50.7747C35.7195 50.321 34.8912 49.6595 34.24 48.84C33.2514 47.6014 32.711 46.0647 32.7067 44.48C32.7103 42.4276 33.2801 40.416 34.3534 38.6667L40 29.4867L45.6467 38.6667ZM11.44 19.9133L17.08 10.74L22.7267 19.9133C23.8052 21.6604 24.3754 23.6735 24.3734 25.7267C24.3742 26.6435 24.1943 27.5516 23.8438 28.3988C23.4934 29.2461 22.9792 30.0159 22.3309 30.6642C21.6826 31.3126 20.9128 31.8267 20.0655 32.1771C19.2183 32.5276 18.3102 32.7075 17.3934 32.7067H16.7734C15.8565 32.7075 14.9484 32.5276 14.1012 32.1771C13.2539 31.8267 12.4841 31.3126 11.8358 30.6642C11.1875 30.0159 10.6734 29.2461 10.3229 28.3988C9.97243 27.5516 9.79248 26.6435 9.79336 25.7267C9.79134 23.6735 10.3616 21.6604 11.44 19.9133ZM22.8467 67.5867C22.1948 68.4071 21.3654 69.0691 20.4209 69.5229C19.4763 69.9767 18.4412 70.2104 17.3934 70.2067H16.7734C15.8565 70.2075 14.9484 70.0276 14.1012 69.6771C13.2539 69.3267 12.4841 68.8126 11.8358 68.1642C11.1875 67.5159 10.6734 66.7461 10.3229 65.8988C9.97243 65.0516 9.79248 64.1435 9.79336 63.2267C9.79134 61.1735 10.3616 59.1604 11.44 57.4133L17.08 48.24L22.7267 57.4133C23.8052 59.1604 24.3754 61.1735 24.3734 63.2267C24.3736 64.8111 23.8352 66.3485 22.8467 67.5867ZM23.6267 54.92L18 45.7C17.8337 45.465 17.5809 45.3057 17.2971 45.2569C17.0134 45.2082 16.7219 45.274 16.4867 45.44C16.3872 45.5128 16.2995 45.6005 16.2267 45.7L12.32 52.0467C9.63846 45.8812 9.09636 38.9958 10.78 32.4867C12.4269 33.9696 14.5639 34.7911 16.78 34.7933H17.4C19.4594 34.7949 21.4576 34.0933 23.0639 32.8046C24.6702 31.5159 25.7884 29.7174 26.2334 27.7067L33.92 35.4L32.5867 37.5733C31.3085 39.6502 30.6323 42.0413 30.6334 44.48C30.6335 45.4784 30.8002 46.4698 31.1267 47.4133L23.6267 54.92ZM53.54 63.2533C53.5397 64.4235 53.7661 65.5826 54.2067 66.6667C49.8326 69.0079 44.948 70.2329 39.9867 70.2329C35.0254 70.2329 30.1408 69.0079 25.7667 66.6667C26.2073 65.5826 26.4337 64.4235 26.4334 63.2533C26.4293 60.9768 25.8368 58.74 24.7134 56.76L32.0467 49.4267C32.2134 49.6867 32.3934 49.9333 32.58 50.1733C33.4264 51.2367 34.5023 52.0948 35.7272 52.6836C36.9521 53.2724 38.2943 53.5765 39.6534 53.5733H40.28C41.6391 53.5765 42.9813 53.2724 44.2062 52.6836C45.4311 52.0948 46.507 51.2367 47.3534 50.1733C47.5467 49.936 47.7249 49.6866 47.8867 49.4267L55.22 56.76C54.1181 58.7372 53.5398 60.9632 53.54 63.2267V63.2533ZM70.2067 63.2533C70.2076 64.1702 70.0276 65.0783 69.6772 65.9255C69.3267 66.7728 68.8126 67.5426 68.1643 68.1909C67.5159 68.8392 66.7461 69.3533 65.8989 69.7038C65.0516 70.0543 64.1436 70.2342 63.2267 70.2333H62.6067C61.6876 70.2342 60.7773 70.0534 59.9283 69.7013C59.0793 69.3491 58.3083 68.8326 57.6597 68.1815C57.011 67.5303 56.4974 66.7574 56.1485 65.907C55.7997 65.0567 55.6223 64.1458 55.6267 63.2267C55.6247 61.1735 56.1949 59.1604 57.2734 57.4133L62.92 48.24L68.56 57.4133C69.6385 59.1604 70.2087 61.1735 70.2067 63.2267V63.2533ZM67.7067 52.0733L63.8067 45.7333C63.7082 45.589 63.576 45.4708 63.4214 45.3892C63.2669 45.3075 63.0948 45.2649 62.92 45.2649C62.7453 45.2649 62.5732 45.3075 62.4186 45.3892C62.2641 45.4708 62.1319 45.589 62.0334 45.7333L56.3734 54.8933L48.88 47.4067C49.2065 46.4654 49.3733 45.4762 49.3734 44.48C49.3746 42.0392 48.6984 39.6459 47.42 37.5667L46.0867 35.3933L53.7667 27.7067C54.2119 29.7185 55.3311 31.5179 56.9388 32.8067C58.5465 34.0955 60.5462 34.7964 62.6067 34.7933H63.2267C65.4422 34.788 67.5782 33.9668 69.2267 32.4867C70.9026 38.9971 70.3583 45.8806 67.68 52.0467L67.7067 52.0733ZM63.2267 32.74H62.6067C61.687 32.7409 60.7762 32.5599 59.9268 32.2073C59.0774 31.8548 58.3061 31.3377 57.6573 30.6858C57.0085 30.0339 56.4951 29.2602 56.1466 28.4091C55.7981 27.558 55.6214 26.6463 55.6267 25.7267C55.6247 23.6735 56.1949 21.6604 57.2734 19.9133L62.92 10.74L68.56 19.9133C69.6385 21.6604 70.2087 23.6735 70.2067 25.7267C70.2076 26.6435 70.0276 27.5516 69.6772 28.3988C69.3267 29.2461 68.8126 30.0159 68.1643 30.6642C67.5159 31.3126 66.7461 31.8267 65.8989 32.1771C65.0516 32.5276 64.1436 32.7075 63.2267 32.7067V32.74Z" fill="#1E2A3A"/>
<path d="M45.6467 38.6667L40 29.4867L34.3533 38.6667C33.2788 40.418 32.709 42.432 32.7067 44.4867C32.711 46.0714 33.2514 47.6081 34.24 48.8467C34.8912 49.6662 35.7195 50.3277 36.6628 50.7814C37.6061 51.2352 38.6399 51.4694 39.6867 51.4667H40.3133C42.1652 51.4649 43.9405 50.728 45.2493 49.418C46.5582 48.1079 47.2933 46.3318 47.2933 44.48C47.2898 42.4276 46.72 40.416 45.6467 38.6667ZM40 49.3733V47.2933C40.8292 47.2933 41.6245 46.9639 42.2109 46.3776C42.7972 45.7912 43.1267 44.9959 43.1267 44.1667H45.2067C45.2067 44.8504 45.072 45.5275 44.8103 46.1592C44.5487 46.7909 44.1652 47.3649 43.6817 47.8483C43.1982 48.3318 42.6242 48.7153 41.9925 48.977C41.3608 49.2387 40.6837 49.3733 40 49.3733Z" fill="#FE444A"/>
</svg>
