<?xml version="1.0" encoding="UTF-8"?><svg id="Layer_1" xmlns="http://www.w3.org/2000/svg" viewBox="0 0 79.2 79.2"><defs><style>.cls-1{stroke-linecap:round;}.cls-1,.cls-2{fill:none;stroke:#e30513;stroke-miterlimit:10;stroke-width:3px;}.cls-3{fill:#fff;}.cls-4{fill:#e30513;}</style></defs><rect class="cls-4" x="22.62" y="16.35" width="33.96" height="5.19" rx=".97" ry=".97"/><rect class="cls-2" x="28.27" y="19.96" width="22.67" height="8.82" rx="1.52" ry="1.52"/><g><g><path class="cls-4" d="M39.27,25.75c-.66,0-1.3-.13-1.9-.38s-1.15-.61-1.61-1.08c-.46-.46-.83-1.01-1.08-1.62-.25-.61-.38-1.25-.38-1.9,0-1.59,.45-3.13,1.29-4.48l3.27-5.18c.07-.1,.13-.16,.2-.22,.17-.12,.35-.18,.53-.18h.15c.23,.05,.43,.18,.57,.37l3.29,5.21c.85,1.34,1.29,2.89,1.29,4.48,0,.66-.13,1.3-.38,1.9-.25,.61-.61,1.15-1.08,1.61-.46,.46-1.01,.83-1.61,1.08-.61,.25-1.25,.38-1.9,.38h-.66Z"/><path class="cls-3" d="M39.6,11.22s.04,0,.06,0c.1,.02,.19,.07,.25,.16l3.27,5.18c.8,1.26,1.22,2.72,1.22,4.21,0,.59-.12,1.17-.34,1.71-.22,.54-.55,1.04-.97,1.45s-.91,.75-1.45,.97c-.54,.23-1.12,.34-1.71,.34h-.66c-.59,0-1.17-.12-1.71-.34-.54-.23-1.04-.56-1.45-.97-.42-.42-.74-.91-.97-1.45-.22-.54-.34-1.13-.34-1.71,0-1.49,.42-2.95,1.22-4.21l3.27-5.18s.05-.06,.09-.09c.07-.05,.14-.07,.22-.07m0-1c-.29,0-.57,.09-.8,.26-.14,.11-.24,.21-.32,.31l-.02,.03-.02,.03-3.27,5.18c-.9,1.42-1.37,3.06-1.37,4.74,0,.72,.14,1.43,.42,2.1,.28,.67,.68,1.27,1.19,1.78,.51,.51,1.11,.91,1.78,1.19,.67,.28,1.37,.42,2.1,.42h.66c.72,0,1.43-.14,2.1-.42,.67-.28,1.27-.68,1.78-1.19,.51-.51,.91-1.11,1.19-1.78,.28-.67,.42-1.37,.42-2.1,0-1.68-.47-3.32-1.37-4.74l-3.27-5.18-.02-.02-.02-.02c-.21-.3-.53-.5-.9-.56-.08-.01-.15-.02-.23-.02h0Z"/></g><path class="cls-3" d="M40.02,23.31c-1,0-1.76-.36-2.39-.99-.64-.63-1-1.54-1-2.39s1.2-.86,1.36,0c.09,.51,.21,1.06,.6,1.44,.38,.38,.81,.55,1.44,.6,.97,.07,1,1.35,0,1.35Z"/></g><path class="cls-1" d="M21.23,43.79H57.97c.87,0,1.58,.71,1.58,1.58v20.75H19.65v-20.75c0-.87,.71-1.58,1.58-1.58Z"/><line class="cls-1" x1="15.68" y1="66.12" x2="63.52" y2="66.12"/><g><rect class="cls-4" x="38.05" y="53.18" width="23.83" height="3" rx=".52" ry=".52" transform="translate(104.64 4.71) rotate(90)"/><rect class="cls-4" x="17.32" y="53.18" width="23.83" height="3" rx=".52" ry=".52" transform="translate(83.91 25.44) rotate(90)"/></g><rect class="cls-4" x="24.42" y="42.76" width="30.37" height="7.17" rx="2.34" ry="2.34"/><path class="cls-1" d="M25.52,28.78h28.17c.61,0,1.1,.49,1.1,1.1v13.16H24.42v-13.16c0-.61,.49-1.1,1.1-1.1Z"/><path class="cls-4" d="M39.6,52.96h0c1.96,0,3.55,1.59,3.55,3.55v9.61h-7.09v-9.61c0-1.96,1.59-3.55,3.55-3.55Z"/><rect class="cls-4" x="28.89" y="33.18" width="21.42" height="5.47" rx=".81" ry=".81"/></svg>