<svg width="80" height="80" viewBox="0 0 80 80" fill="none" xmlns="http://www.w3.org/2000/svg">
<path d="M33.7467 38.96C33.8838 38.9609 34.0198 38.9346 34.1467 38.8827C34.2737 38.8309 34.3891 38.7544 34.4864 38.6577C34.5837 38.5611 34.6609 38.4461 34.7135 38.3195C34.7662 38.1929 34.7933 38.0571 34.7933 37.92V31.6666C34.7968 30.2086 34.511 28.7643 33.9526 27.4175C33.3941 26.0706 32.5741 24.8478 31.54 23.82L29.1 21.38C27.6626 19.9452 26.7552 18.0647 26.5267 16.0466H27.5C27.7758 16.0466 28.0404 15.9371 28.2354 15.742C28.4304 15.547 28.54 15.2825 28.54 15.0066V8.74665C28.54 8.47082 28.4304 8.2063 28.2354 8.01126C28.0404 7.81622 27.7758 7.70665 27.5 7.70665H15C14.7242 7.70665 14.4596 7.81622 14.2646 8.01126C14.0696 8.2063 13.96 8.47082 13.96 8.74665V15C13.96 15.2758 14.0696 15.5403 14.2646 15.7354C14.4596 15.9304 14.7242 16.04 15 16.04H16C15.7715 18.058 14.8641 19.9386 13.4267 21.3733L10.9867 23.8133C9.94692 24.8398 9.12153 26.0626 8.55845 27.4108C7.99537 28.759 7.70584 30.2056 7.70667 31.6666V37.92C7.70667 38.1958 7.81624 38.4603 8.01128 38.6554C8.20631 38.8504 8.47084 38.96 8.74667 38.96H9.79333V51.46H8.74667C8.47084 51.46 8.20631 51.5696 8.01128 51.7646C7.81624 51.9596 7.70667 52.2242 7.70667 52.5V69.1667C7.70667 69.9959 8.03608 70.7912 8.62245 71.3775C8.91278 71.6679 9.25746 71.8982 9.63681 72.0553C10.0162 72.2124 10.4227 72.2933 10.8333 72.2933H31.6667C32.4959 72.2933 33.2912 71.9639 33.8776 71.3775C34.4639 70.7912 34.7933 69.9959 34.7933 69.1667V52.5C34.7933 52.3629 34.7662 52.2271 34.7135 52.1004C34.6609 51.9738 34.5837 51.8589 34.4864 51.7622C34.3891 51.6656 34.2737 51.5891 34.1467 51.5372C34.0198 51.4854 33.8838 51.4591 33.7467 51.46H32.7067V38.96H33.7467ZM16.04 9.79332H26.46V13.96H16.04V9.79332ZM32.7067 69.1667C32.7067 69.3032 32.6798 69.4385 32.6275 69.5646C32.5752 69.6908 32.4986 69.8055 32.4021 69.902C32.3055 69.9986 32.1908 70.0752 32.0647 70.1275C31.9385 70.1798 31.8032 70.2066 31.6667 70.2066H10.8333C10.5575 70.2066 10.293 70.0971 10.0979 69.902C9.9029 69.707 9.79333 69.4425 9.79333 69.1667V53.54H32.7067V69.1667ZM11.8733 51.46V38.96H30.6267V51.46H11.8733ZM9.79333 36.8733V31.6666C9.79303 30.4796 10.0286 29.3043 10.4864 28.209C10.9442 27.1138 11.615 26.1204 12.46 25.2866L14.9 22.8533C16.7328 21.0279 17.8655 18.6161 18.1 16.04H24.4533C24.6865 18.6145 25.8195 21.0246 27.6533 22.8466L30.0933 25.2866C30.9383 26.1204 31.6091 27.1138 32.0669 28.209C32.5247 29.3043 32.7603 30.4796 32.76 31.6666V36.8733H9.79333Z" fill="#1E2A3A"/>
<path d="M27.5 41.04H15C14.7242 41.04 14.4597 41.1496 14.2646 41.3446C14.0696 41.5396 13.96 41.8042 13.96 42.08V48.3333C13.96 48.6091 14.0696 48.8737 14.2646 49.0687C14.4597 49.2637 14.7242 49.3733 15 49.3733H27.5C27.7758 49.3733 28.0404 49.2637 28.2354 49.0687C28.4305 48.8737 28.54 48.6091 28.54 48.3333V42.08C28.54 41.8042 28.4305 41.5396 28.2354 41.3446C28.0404 41.1496 27.7758 41.04 27.5 41.04ZM26.46 47.2933H16.04V43.1267H26.46V47.2933Z" fill="#1E2A3A"/>
<path d="M26.46 43.1266H16.04V47.2933H26.46V43.1266Z" fill="#FE444A"/>
<path d="M66.78 19.9L60.5266 26.1533C60.332 26.348 60.0686 26.4582 59.7933 26.46H59.6866C59.5337 26.4421 59.3864 26.3911 59.2552 26.3105C59.1239 26.2299 59.0118 26.1217 58.9266 25.9933L56.84 22.8667L58.5733 21.7133L59.9533 23.78L65.2866 18.4467L66.78 19.9Z" fill="#1E2A3A"/>
<path d="M61.8733 11.8733C59.8124 11.8733 57.7978 12.4844 56.0843 13.6294C54.3707 14.7744 53.0352 16.4017 52.2465 18.3058C51.4578 20.2098 51.2515 22.3049 51.6535 24.3262C52.0556 26.3474 53.048 28.2041 54.5053 29.6614C55.9625 31.1186 57.8192 32.111 59.8405 32.5131C61.8618 32.9152 63.9569 32.7088 65.8609 31.9201C67.7649 31.1315 69.3923 29.7959 70.5372 28.0824C71.6822 26.3688 72.2933 24.3542 72.2933 22.2933C72.2942 20.9247 72.0253 19.5693 71.5019 18.3047C70.9786 17.0401 70.2111 15.8911 69.2433 14.9233C68.2756 13.9555 67.1265 13.1881 65.8619 12.6647C64.5973 12.1414 63.2419 11.8724 61.8733 11.8733ZM61.8733 30.6266C60.2251 30.6266 58.614 30.1379 57.2436 29.2222C55.8732 28.3066 54.805 27.0051 54.1743 25.4823C53.5436 23.9596 53.3786 22.2841 53.7001 20.6676C54.0216 19.0511 54.8153 17.5662 55.9808 16.4008C57.1462 15.2353 58.6311 14.4416 60.2476 14.1201C61.8641 13.7986 63.5396 13.9636 65.0623 14.5943C66.5851 15.2251 67.8865 16.2932 68.8022 17.6636C69.7179 19.034 70.2066 20.6451 70.2066 22.2933C70.2066 23.3877 69.9911 24.4713 69.5723 25.4823C69.1535 26.4934 68.5397 27.4121 67.7659 28.1859C66.992 28.9597 66.0734 29.5735 65.0623 29.9923C64.0513 30.4111 62.9677 30.6266 61.8733 30.6266Z" fill="#1E2A3A"/>
<path d="M61.8733 13.96C60.2251 13.96 58.614 14.4487 57.2436 15.3644C55.8732 16.2801 54.805 17.5816 54.1743 19.1043C53.5436 20.627 53.3786 22.3026 53.7001 23.9191C54.0216 25.5356 54.8153 27.0204 55.9808 28.1859C57.1462 29.3513 58.6311 30.145 60.2476 30.4665C61.8641 30.7881 63.5396 30.623 65.0623 29.9923C66.5851 29.3616 67.8865 28.2935 68.8022 26.9231C69.7179 25.5527 70.2066 23.9415 70.2066 22.2933C70.2031 20.0843 69.324 17.9667 67.762 16.4047C66.1999 14.8426 64.0824 13.9635 61.8733 13.96ZM60.54 26.1533C60.3454 26.348 60.0819 26.4582 59.8066 26.46H59.7C59.547 26.4421 59.3998 26.3911 59.2685 26.3105C59.1373 26.2299 59.0252 26.1216 58.94 25.9933L56.84 22.8667L58.5733 21.7133L59.9533 23.78L65.2866 18.4467L66.76 19.9133L60.54 26.1533Z" fill="#FE444A"/>
<path d="M69.1667 66.04H68.1267C67.9896 66.0409 67.8536 66.0146 67.7266 65.9627C67.5997 65.9109 67.4843 65.8344 67.387 65.7377C67.2897 65.6411 67.2125 65.5261 67.1598 65.3995C67.1071 65.2729 67.08 65.1371 67.08 65C67.0809 64.5897 67.0008 64.1833 66.8444 63.804C66.688 63.4247 66.4584 63.0799 66.1686 62.7895C65.8787 62.4991 65.5345 62.2687 65.1555 62.1114C64.7766 61.9542 64.3703 61.8733 63.96 61.8733H57.7067V37.92C57.7076 37.7828 57.6813 37.6469 57.6294 37.5199C57.5776 37.393 57.5011 37.2776 57.4044 37.1803C57.3078 37.083 57.1928 37.0058 57.0662 36.9531C56.9396 36.9004 56.8038 36.8733 56.6667 36.8733H37.92C37.6424 36.8733 37.3762 36.9836 37.1799 37.1799C36.9836 37.3762 36.8734 37.6424 36.8734 37.92V71.2533C36.8733 71.3904 36.9005 71.5262 36.9532 71.6528C37.0058 71.7795 37.083 71.8944 37.1803 71.9911C37.2776 72.0877 37.393 72.1642 37.52 72.2161C37.6469 72.2679 37.7829 72.2942 37.92 72.2933H69.1667C69.9959 72.2933 70.7912 71.9639 71.3776 71.3775C71.9639 70.7912 72.2934 69.9959 72.2934 69.1666C72.2934 68.3374 71.9639 67.5421 71.3776 66.9558C70.7912 66.3694 69.9959 66.04 69.1667 66.04ZM38.96 38.96H55.6267V49.3733C55.4338 49.3741 55.2426 49.3368 55.0642 49.2636C54.8857 49.1904 54.7235 49.0827 54.5867 48.9466L54 48.3333C53.3221 47.6885 52.4223 47.3289 51.4867 47.3289C50.5511 47.3289 49.6513 47.6885 48.9734 48.3333L48.36 48.9466C48.079 49.2125 47.7069 49.3606 47.32 49.3606C46.9332 49.3606 46.561 49.2125 46.28 48.9466L45.6667 48.3333C44.9888 47.6885 44.089 47.3289 43.1534 47.3289C42.2177 47.3289 41.3179 47.6885 40.64 48.3333L40.0267 48.9466C39.7496 49.2201 39.376 49.3734 38.9867 49.3733L38.96 38.96ZM55.6267 70.2066H38.96V51.46C39.4274 51.4604 39.8901 51.3681 40.3215 51.1884C40.753 51.0088 41.1445 50.7453 41.4734 50.4133L42.08 49.8066C42.3621 49.5404 42.7354 49.392 43.1233 49.392C43.5113 49.392 43.8846 49.5404 44.1667 49.8066L44.78 50.4133C45.4564 51.0612 46.3568 51.4229 47.2934 51.4229C48.2299 51.4229 49.1303 51.0612 49.8067 50.4133L50.4134 49.8066C50.6955 49.5404 51.0687 49.392 51.4567 49.392C51.8446 49.392 52.2179 49.5404 52.5 49.8066L53.1133 50.4133C53.4416 50.7462 53.8329 51.0103 54.2645 51.19C54.6961 51.3697 55.1592 51.4615 55.6267 51.46V70.2066ZM69.1667 70.2066H57.7067V63.96H63.96C64.2358 63.96 64.5004 64.0695 64.6954 64.2646C64.8904 64.4596 65 64.7242 65 65C65 65.8292 65.3294 66.6245 65.9158 67.2109C66.5022 67.7972 67.2974 68.1266 68.1267 68.1266H69.1667C69.4425 68.1266 69.707 68.2362 69.9021 68.4313C70.0971 68.6263 70.2067 68.8908 70.2067 69.1666C70.2067 69.4425 70.0971 69.707 69.9021 69.902C69.707 70.0971 69.4425 70.2066 69.1667 70.2066Z" fill="#1E2A3A"/>
</svg>
