<svg width="80" height="80" viewBox="0 0 80 80" fill="none" xmlns="http://www.w3.org/2000/svg">
<path d="M21.2533 16.04C20.2219 16.0387 19.2133 16.3433 18.3551 16.9154C17.4969 17.4874 16.8277 18.3012 16.4321 19.2537C16.0365 20.2062 15.9323 21.2546 16.1327 22.2663C16.3331 23.2781 16.8291 24.2076 17.5579 24.9374C18.2868 25.6671 19.2157 26.1643 20.2271 26.366C21.2386 26.5677 22.2872 26.4649 23.2402 26.0705C24.1932 25.6761 25.0078 25.0079 25.5809 24.1504C26.1541 23.2929 26.46 22.2847 26.46 21.2534C26.46 19.8718 25.9116 18.5468 24.9354 17.5693C23.9592 16.5918 22.6348 16.0418 21.2533 16.04ZM21.2533 24.3734C20.6344 24.3747 20.0289 24.1923 19.5137 23.8492C18.9985 23.5061 18.5968 23.0179 18.3593 22.4463C18.1218 21.8747 18.0593 21.2455 18.1798 20.6383C18.3002 20.0312 18.5981 19.4735 19.0358 19.0358C19.4735 18.5981 20.0312 18.3002 20.6383 18.1798C21.2455 18.0594 21.8747 18.1218 22.4463 18.3593C23.0179 18.5968 23.5061 18.9986 23.8492 19.5138C24.1922 20.029 24.3746 20.6344 24.3733 21.2534C24.3716 22.0803 24.0423 22.8728 23.4576 23.4576C22.8728 24.0423 22.0803 24.3716 21.2533 24.3734Z" fill="#1E2A3A"/>
<path d="M71.2534 22.2933V20.2067H68.0667C67.8661 18.4501 67.1727 16.786 66.0667 15.4067L68.86 12.6133L67.3867 11.14L64.5934 13.9333C63.214 12.8273 61.55 12.134 59.7934 11.9333V8.74667H57.7067V11.9333C55.9501 12.134 54.2861 12.8273 52.9067 13.9333L50.1134 11.14L48.6667 12.6133L51.46 15.4067C50.354 16.786 49.6607 18.4501 49.46 20.2067H46.2534V22.2933H49.4334C49.634 24.0499 50.3274 25.714 51.4334 27.0933L45.8467 32.6667C44.4666 31.5576 42.7995 30.8639 41.04 30.6667V27.5H38.96V30.6667C37.2006 30.8639 35.5335 31.5576 34.1534 32.6667L28.5667 27.08C29.6727 25.7006 30.3661 24.0366 30.5667 22.28H33.7467V20.2067H30.5667C30.3661 18.4501 29.6727 16.786 28.5667 15.4067L31.3334 12.6133L29.86 11.14L27.0934 13.9333C25.714 12.8273 24.05 12.134 22.2934 11.9333V8.74667H20.2067V11.9333C18.4501 12.134 16.7861 12.8273 15.4067 13.9333L12.6134 11.14L11.14 12.6133L13.9334 15.4067C12.8274 16.786 12.134 18.4501 11.9334 20.2067H8.7467V22.2933H11.9334C12.134 24.0499 12.8274 25.714 13.9334 27.0933L11.14 29.8867L12.6134 31.3333L15.4067 28.54C16.7861 29.646 18.4501 30.3394 20.2067 30.54V33.72H22.2934V30.5667C24.05 30.366 25.714 29.6727 27.0934 28.5667L32.6667 34.1533C31.5576 35.5334 30.864 37.2005 30.6667 38.96H27.5V41.04H30.6667C30.864 42.7995 31.5576 44.4666 32.6667 45.8467L27.08 51.4333C25.7007 50.3273 24.0366 49.634 22.28 49.4333V46.2533H20.2067V49.4333C18.4501 49.634 16.7861 50.3273 15.4067 51.4333L12.6134 48.6667L11.14 50.14L13.9334 52.9333C12.8274 54.3127 12.134 55.9767 11.9334 57.7333H8.7467V59.82H11.9334C12.134 61.5766 12.8274 63.2406 13.9334 64.62L11.14 67.4133L12.6134 68.8867L15.4067 66.0933C16.7861 67.1994 18.4501 67.8927 20.2067 68.0933V71.28H22.2934V68.0667C24.05 67.866 25.714 67.1727 27.0934 66.0667L29.8867 68.86L31.3334 67.3867L28.54 64.5933C29.6461 63.214 30.3394 61.5499 30.54 59.7933H33.72V57.7067H30.5667C30.3661 55.9501 29.6727 54.286 28.5667 52.9067L34.1534 47.3333C35.5335 48.4424 37.2006 49.1361 38.96 49.3333V52.52H41.04V49.3333C42.7995 49.1361 44.4666 48.4424 45.8467 47.3333L51.4334 52.92C50.3274 54.2994 49.634 55.9634 49.4334 57.72H46.2534V59.8067H49.4334C49.634 61.5633 50.3274 63.2273 51.4334 64.6067L48.6667 67.3867L50.14 68.86L52.9334 66.0667C54.3127 67.1727 55.9768 67.866 57.7334 68.0667V71.2533H59.82V68.0667C61.5766 67.866 63.2407 67.1727 64.62 66.0667L67.4134 68.86L68.8867 67.3867L66.0667 64.5933C67.1727 63.214 67.8661 61.5499 68.0667 59.7933H71.2534V57.7067H68.0667C67.8661 55.9501 67.1727 54.286 66.0667 52.9067L68.86 50.1133L67.3867 48.6667L64.5934 51.46C63.214 50.354 61.55 49.6606 59.7934 49.46V46.2533H57.7067V49.4333C55.9501 49.634 54.2861 50.3273 52.9067 51.4333L47.3334 45.8467C48.4425 44.4666 49.1361 42.7995 49.3334 41.04H52.52V38.96H49.3334C49.1361 37.2005 48.4425 35.5334 47.3334 34.1533L52.92 28.5667C54.2994 29.6727 55.9634 30.366 57.72 30.5667V33.7467H59.8067V30.5667C61.5633 30.366 63.2274 29.6727 64.6067 28.5667L67.3867 31.3333L68.86 29.86L66.0667 27.0933C67.1727 25.714 67.8661 24.0499 68.0667 22.2933H71.2534ZM21.2534 28.54C19.8103 28.5413 18.3993 28.1145 17.1989 27.3136C15.9985 26.5127 15.0627 25.3737 14.5098 24.0408C13.957 22.7078 13.812 21.2408 14.0932 19.8254C14.3744 18.4101 15.0692 17.1099 16.0895 16.0895C17.1099 15.0691 18.4101 14.3744 19.8255 14.0932C21.2409 13.812 22.7079 13.9569 24.0408 14.5098C25.3738 15.0626 26.5128 15.9985 27.3137 17.1989C28.1146 18.3993 28.5414 19.8103 28.54 21.2533C28.54 23.1859 27.7723 25.0393 26.4058 26.4058C25.0393 27.7723 23.1859 28.54 21.2534 28.54ZM21.2534 66.04C19.8106 66.0413 18.3999 65.6147 17.1996 64.8141C15.9993 64.0135 15.0635 62.8749 14.5105 61.5423C13.9574 60.2098 13.812 58.7431 14.0927 57.3279C14.3734 55.9127 15.0675 54.6125 16.0872 53.5919C17.1069 52.5712 18.4064 51.8759 19.8214 51.594C21.2363 51.312 22.7031 51.456 24.0362 52.0079C25.3693 52.5597 26.5087 53.4945 27.3104 54.694C28.1121 55.8935 28.54 57.3039 28.54 58.7467C28.5409 59.7041 28.3531 60.6524 27.9873 61.5372C27.6215 62.422 27.0849 63.2261 26.4082 63.9034C25.7315 64.5808 24.9279 65.1181 24.0434 65.4847C23.1589 65.8513 22.2108 66.04 21.2534 66.04ZM58.7467 51.46C60.1898 51.4587 61.6008 51.8855 62.8012 52.6864C64.0016 53.4873 64.9374 54.6263 65.4903 55.9592C66.0431 57.2922 66.1881 58.7592 65.9069 60.1746C65.6257 61.5899 64.9309 62.8901 63.9105 63.9105C62.8901 64.9309 61.59 65.6257 60.1746 65.9069C58.7592 66.1881 57.2922 66.0431 55.9593 65.4902C54.6263 64.9374 53.4873 64.0015 52.6864 62.8011C51.8855 61.6007 51.4587 60.1897 51.46 58.7467C51.46 56.8141 52.2277 54.9607 53.5943 53.5942C54.9608 52.2277 56.8142 51.46 58.7467 51.46ZM40 47.2933C38.5576 47.2933 37.1475 46.8656 35.9481 46.0642C34.7487 45.2628 33.8139 44.1237 33.2619 42.791C32.7099 41.4584 32.5654 39.9919 32.8468 38.5771C33.1283 37.1624 33.8229 35.8628 34.8429 34.8428C35.8629 33.8228 37.1624 33.1282 38.5772 32.8468C39.992 32.5654 41.4584 32.7098 42.7911 33.2618C44.1238 33.8139 45.2628 34.7487 46.0642 35.948C46.8656 37.1474 47.2934 38.5575 47.2934 40C47.2934 41.9343 46.525 43.7894 45.1572 45.1572C43.7894 46.5249 41.9344 47.2933 40 47.2933ZM58.7467 28.54C57.3039 28.54 55.8936 28.1121 54.6941 27.3104C53.4945 26.5087 52.5597 25.3692 52.0079 24.0362C51.4561 22.7031 51.312 21.2363 51.594 19.8214C51.876 18.4064 52.5712 17.1069 53.5919 16.0871C54.6126 15.0674 55.9127 14.3733 57.3279 14.0927C58.7431 13.812 60.2098 13.9574 61.5424 14.5104C62.8749 15.0635 64.0135 15.9993 64.8141 17.1996C65.6147 18.3998 66.0414 19.8106 66.04 21.2533C66.04 22.2108 65.8513 23.1589 65.4847 24.0434C65.1181 24.9279 64.5808 25.7314 63.9035 26.4081C63.2261 27.0849 62.4221 27.6215 61.5372 27.9873C60.6524 28.3531 59.7042 28.5409 58.7467 28.54Z" fill="#1E2A3A"/>
<path d="M24.3733 21.2533C24.3733 21.872 24.1898 22.4768 23.8459 22.9911C23.5021 23.5054 23.0134 23.9062 22.4416 24.1426C21.8699 24.3791 21.2409 24.4406 20.6342 24.3194C20.0275 24.1983 19.4704 23.8998 19.0334 23.4619C18.5964 23.0239 18.2992 22.4662 18.1793 21.8592C18.0594 21.2523 18.1222 20.6234 18.3599 20.0522C18.5976 19.481 18.9994 18.9931 19.5144 18.6504C20.0295 18.3076 20.6346 18.1254 21.2533 18.1267C22.0814 18.1284 22.875 18.4586 23.4599 19.0448C24.0448 19.631 24.3733 20.4253 24.3733 21.2533Z" fill="#FE444A"/>
<path d="M58.7467 16.04C57.7156 16.04 56.7076 16.3458 55.8503 16.9186C54.993 17.4915 54.3248 18.3057 53.9302 19.2583C53.5356 20.2109 53.4323 21.2591 53.6335 22.2704C53.8347 23.2817 54.3312 24.2106 55.0603 24.9397C55.7894 25.6688 56.7183 26.1654 57.7296 26.3665C58.7409 26.5677 59.7891 26.4644 60.7417 26.0698C61.6943 25.6753 62.5085 25.0071 63.0814 24.1497C63.6542 23.2924 63.96 22.2845 63.96 21.2534C63.96 19.8707 63.4107 18.5447 62.433 17.567C61.4554 16.5893 60.1293 16.04 58.7467 16.04ZM58.7467 24.3734C58.128 24.3734 57.5232 24.1898 57.0089 23.846C56.4946 23.5021 56.0938 23.0134 55.8574 22.4417C55.6209 21.87 55.5594 21.2409 55.6806 20.6342C55.8018 20.0276 56.1002 19.4704 56.5381 19.0334C56.9761 18.5964 57.5338 18.2992 58.1408 18.1793C58.7477 18.0594 59.3766 18.1223 59.9478 18.3599C60.519 18.5976 61.0069 18.9994 61.3496 19.5145C61.6924 20.0295 61.8746 20.6347 61.8733 21.2534C61.8716 22.0814 61.5414 22.875 60.9552 23.4599C60.369 24.0449 59.5748 24.3734 58.7467 24.3734Z" fill="#1E2A3A"/>
<path d="M61.8735 21.2534C61.8735 21.8717 61.6901 22.4763 61.3465 22.9904C61.003 23.5046 60.5146 23.9054 59.9433 24.142C59.372 24.3787 58.7433 24.4406 58.1368 24.3199C57.5303 24.1993 56.9732 23.9015 56.5359 23.4642C56.0986 23.027 55.8008 22.4699 55.6802 21.8633C55.5596 21.2568 55.6215 20.6282 55.8581 20.0568C56.0948 19.4855 56.4955 18.9972 57.0097 18.6536C57.5239 18.3101 58.1284 18.1267 58.7468 18.1267C59.576 18.1267 60.3713 18.4561 60.9577 19.0425C61.544 19.6288 61.8735 20.4241 61.8735 21.2534Z" fill="#FE444A"/>
<path d="M40 34.7934C38.9702 34.7934 37.9636 35.0987 37.1073 35.6708C36.2511 36.2429 35.5837 37.0561 35.1897 38.0075C34.7956 38.9589 34.6925 40.0058 34.8934 41.0158C35.0943 42.0258 35.5902 42.9535 36.3183 43.6817C37.0465 44.4099 37.9742 44.9057 38.9842 45.1066C39.9942 45.3075 41.0411 45.2044 41.9925 44.8104C42.9439 44.4163 43.7571 43.7489 44.3292 42.8927C44.9013 42.0365 45.2067 41.0298 45.2067 40C45.2067 39.3163 45.072 38.6392 44.8103 38.0075C44.5487 37.3758 44.1652 36.8018 43.6817 36.3183C43.1982 35.8349 42.6242 35.4513 41.9925 35.1897C41.3608 34.928 40.6838 34.7934 40 34.7934ZM40 43.1267C39.3816 43.1267 38.7771 42.9433 38.2629 42.5997C37.7487 42.2562 37.348 41.7679 37.1113 41.1965C36.8747 40.6252 36.8128 39.9965 36.9334 39.39C37.0541 38.7835 37.3518 38.2264 37.7891 37.7891C38.2264 37.3519 38.7835 37.0541 39.39 36.9334C39.9965 36.8128 40.6252 36.8747 41.1965 37.1114C41.7678 37.348 42.2562 37.7488 42.5997 38.2629C42.9433 38.7771 43.1267 39.3816 43.1267 40C43.1267 40.8293 42.7973 41.6245 42.2109 42.2109C41.6245 42.7973 40.8292 43.1267 40 43.1267Z" fill="#1E2A3A"/>
<path d="M40 43.1266C41.7268 43.1266 43.1266 41.7268 43.1266 40C43.1266 38.2732 41.7268 36.8733 40 36.8733C38.2731 36.8733 36.8733 38.2732 36.8733 40C36.8733 41.7268 38.2731 43.1266 40 43.1266Z" fill="#FE444A"/>
<path d="M21.2533 53.54C20.2217 53.5387 19.2128 53.8435 18.3544 54.4158C17.4961 54.9882 16.8269 55.8023 16.4314 56.7552C16.036 57.7081 15.9322 58.7569 16.1332 59.7688C16.3341 60.7807 16.8308 61.7102 17.5603 62.4397C18.2898 63.1692 19.2193 63.6659 20.2312 63.8668C21.2431 64.0678 22.2919 63.964 23.2448 63.5686C24.1977 63.1731 25.0118 62.5039 25.5842 61.6456C26.1565 60.7872 26.4613 59.7783 26.46 58.7467C26.4582 57.3663 25.9091 56.043 24.933 55.067C23.957 54.0909 22.6337 53.5418 21.2533 53.54ZM21.2533 61.8733C20.6346 61.8747 20.0295 61.6924 19.5144 61.3497C18.9994 61.0069 18.5976 60.519 18.3599 59.9478C18.1222 59.3766 18.0594 58.7477 18.1793 58.1408C18.2991 57.5338 18.5964 56.9761 19.0334 56.5382C19.4704 56.1002 20.0275 55.8018 20.6342 55.6806C21.2409 55.5594 21.8699 55.6209 22.4416 55.8574C23.0133 56.0938 23.5021 56.4946 23.8459 57.0089C24.1898 57.5232 24.3733 58.128 24.3733 58.7467C24.3733 59.5748 24.0448 60.369 23.4599 60.9552C22.875 61.5414 22.0814 61.8716 21.2533 61.8733Z" fill="#1E2A3A"/>
<path d="M24.3733 58.7467C24.3746 59.3656 24.1922 59.9711 23.8492 60.4863C23.5061 61.0015 23.0179 61.4032 22.4463 61.6407C21.8747 61.8782 21.2454 61.9407 20.6383 61.8203C20.0312 61.6998 19.4734 61.4019 19.0358 60.9642C18.5981 60.5265 18.3002 59.9688 18.1798 59.3617C18.0593 58.7545 18.1218 58.1253 18.3593 57.5537C18.5968 56.9821 18.9985 56.4939 19.5137 56.1508C20.0289 55.8078 20.6344 55.6254 21.2533 55.6267C22.0803 55.6284 22.8728 55.9577 23.4575 56.5424C24.0423 57.1272 24.3716 57.9197 24.3733 58.7467Z" fill="#FE444A"/>
<path d="M58.7467 53.54C57.7153 53.54 56.7071 53.8459 55.8496 54.4191C54.9921 54.9922 54.3239 55.8068 53.9295 56.7598C53.5351 57.7128 53.4323 58.7614 53.634 59.7729C53.8357 60.7843 54.3329 61.7133 55.0626 62.4421C55.7924 63.1709 56.722 63.6669 57.7337 63.8673C58.7454 64.0677 59.7938 63.9635 60.7463 63.5679C61.6988 63.1723 62.5126 62.5031 63.0846 61.6449C63.6567 60.7867 63.9613 59.7781 63.96 58.7467C63.96 58.0624 63.8251 57.3848 63.563 56.7526C63.3009 56.1205 62.9168 55.5462 62.4326 55.0627C61.9485 54.5791 61.3737 54.1957 60.7412 53.9344C60.1087 53.6732 59.431 53.5391 58.7467 53.54ZM58.7467 61.8733C58.1283 61.8733 57.5238 61.69 57.0096 61.3464C56.4954 61.0028 56.0946 60.5145 55.858 59.9432C55.6213 59.3719 55.5594 58.7432 55.6801 58.1367C55.8007 57.5302 56.0985 56.9731 56.5358 56.5358C56.973 56.0985 57.5302 55.8007 58.1367 55.6801C58.7432 55.5595 59.3719 55.6214 59.9432 55.858C60.5145 56.0947 61.0028 56.4954 61.3464 57.0096C61.6899 57.5238 61.8733 58.1283 61.8733 58.7467C61.8733 59.5759 61.5439 60.3712 60.9575 60.9576C60.3712 61.5439 59.5759 61.8733 58.7467 61.8733Z" fill="#1E2A3A"/>
<path d="M61.8733 58.7467C61.8746 59.3654 61.6924 59.9705 61.3496 60.4856C61.0069 61.0006 60.519 61.4024 59.9478 61.6401C59.3766 61.8778 58.7477 61.9406 58.1408 61.8207C57.5338 61.7009 56.9761 61.4036 56.5381 60.9666C56.1002 60.5296 55.8017 59.9725 55.6806 59.3658C55.5594 58.7591 55.6209 58.1301 55.8574 57.5584C56.0938 56.9867 56.4946 56.4979 57.0089 56.1541C57.5232 55.8102 58.128 55.6267 58.7467 55.6267C59.5747 55.6267 60.369 55.9552 60.9552 56.5401C61.5414 57.125 61.8716 57.9186 61.8733 58.7467Z" fill="#FE444A"/>
</svg>
