<svg width="80" height="80" viewBox="0 0 80 80" fill="none" xmlns="http://www.w3.org/2000/svg">
<path d="M71.2533 63.96H70.2066V60.8333C70.2066 60.5575 70.0971 60.293 69.902 60.0979C69.707 59.9029 69.4425 59.7933 69.1666 59.7933H68.1266V38.3C68.3133 38.1333 68.5 37.9667 68.68 37.7867L69.04 37.4333C70.0729 36.4046 70.8921 35.1817 71.4505 33.835C72.0088 32.4883 72.2953 31.0445 72.2933 29.5867C72.2948 25.9842 71.2275 22.4623 69.2266 19.4667L61.7 8.17333C61.6152 8.05937 61.5087 7.96326 61.3867 7.89051C61.2647 7.81776 61.1295 7.76979 60.989 7.74935C60.8484 7.72892 60.7052 7.73642 60.5675 7.77142C60.4298 7.80642 60.3004 7.86823 60.1866 7.95333C60.1005 8.01267 60.026 8.08723 59.9666 8.17333L54.5666 16.2733L40.5666 7.85999C40.4062 7.76155 40.2216 7.70945 40.0333 7.70945C39.845 7.70945 39.6605 7.76155 39.5 7.85999L8.21331 26.6067C8.05944 26.697 7.93141 26.8254 7.84151 26.9795C7.75161 27.1336 7.70287 27.3083 7.69997 27.4867V33.7333C7.69909 33.8705 7.72535 34.0064 7.77722 34.1334C7.82909 34.2603 7.90555 34.3758 8.00221 34.473C8.09887 34.5703 8.21382 34.6475 8.34044 34.7002C8.46705 34.7529 8.60283 34.78 8.73997 34.78H9.78664V37.9067C9.78664 38.1825 9.89621 38.447 10.0912 38.642C10.2863 38.8371 10.5508 38.9467 10.8266 38.9467H11.8666V59.7933H10.8333C10.5575 59.7933 10.293 59.9029 10.0979 60.0979C9.90288 60.293 9.79331 60.5575 9.79331 60.8333V63.96H8.74664C8.47081 63.96 8.20629 64.0696 8.01125 64.2646C7.81621 64.4596 7.70664 64.7242 7.70664 65V71.2533C7.70664 71.5292 7.81621 71.7937 8.01125 71.9887C8.20629 72.1838 8.47081 72.2933 8.74664 72.2933H71.2533C71.5291 72.2933 71.7937 72.1838 71.9887 71.9887C72.1837 71.7937 72.2933 71.5292 72.2933 71.2533V65C72.2933 64.7242 72.1837 64.4596 71.9887 64.2646C71.7937 64.0696 71.5291 63.96 71.2533 63.96ZM60.8333 10.6267L67.5 20.6267C69.2696 23.2794 70.2117 26.3979 70.2066 29.5867C70.2068 30.7727 69.9711 31.947 69.5133 33.0411C69.0555 34.1353 68.3847 35.1275 67.54 35.96L67.1866 36.32C65.4952 38.0107 63.2015 38.9605 60.81 38.9605C58.4184 38.9605 56.1248 38.0107 54.4333 36.32L54.08 35.96C53.2352 35.1275 52.5644 34.1353 52.1066 33.0411C51.6488 31.947 51.4132 30.7727 51.4133 29.5867C51.4083 26.3979 52.3503 23.2794 54.12 20.6267L60.8333 10.6267ZM48.3333 45.2067H31.6666C31.5295 45.2067 31.3937 45.2338 31.2671 45.2865C31.1405 45.3391 31.0255 45.4163 30.9289 45.5136C30.8322 45.6109 30.7558 45.7263 30.7039 45.8533C30.652 45.9802 30.6258 46.1162 30.6266 46.2533V63.96H22.2933V60.8333C22.2933 60.5575 22.1837 60.293 21.9887 60.0979C21.7937 59.9029 21.5291 59.7933 21.2533 59.7933H20.2066V38.96H21.2533C21.5291 38.96 21.7937 38.8504 21.9887 38.6554C22.1837 38.4603 22.2933 38.1958 22.2933 37.92V34.7933H50.6666V34.7267C51.0737 35.498 51.5705 36.2186 52.1466 36.8733H27.5C27.3628 36.8733 27.2271 36.9004 27.1004 36.9531C26.9738 37.0058 26.8589 37.083 26.7622 37.1803C26.6656 37.2776 26.5891 37.393 26.5372 37.52C26.4853 37.6469 26.4591 37.7829 26.46 37.92V42.08C26.4591 42.2171 26.4853 42.3531 26.5372 42.48C26.5891 42.607 26.6656 42.7224 26.7622 42.8197C26.8589 42.917 26.9738 42.9942 27.1004 43.0469C27.2271 43.0995 27.3628 43.1267 27.5 43.1267H52.5C52.6371 43.1267 52.7729 43.0995 52.8995 43.0469C53.0261 42.9942 53.1411 42.917 53.2377 42.8197C53.3344 42.7224 53.4109 42.607 53.4627 42.48C53.5146 42.3531 53.5409 42.2171 53.54 42.08V38.3C55.2891 39.8292 57.4789 40.763 59.7933 40.9667V59.7667H58.7466C58.4708 59.7667 58.2063 59.8762 58.0113 60.0713C57.8162 60.2663 57.7066 60.5308 57.7066 60.8067V63.9333H49.3733V46.2533C49.3742 46.1162 49.3479 45.9802 49.2961 45.8533C49.2442 45.7263 49.1677 45.6109 49.0711 45.5136C48.9744 45.4163 48.8595 45.3391 48.7328 45.2865C48.6062 45.2338 48.4704 45.2067 48.3333 45.2067ZM47.2933 47.2933V63.96H41.04V47.2933H47.2933ZM38.96 47.2933V63.96H32.7066V47.2933H38.96ZM11.8733 36.8733V34.7933H20.2066V36.8733H11.8733ZM18.1266 38.96V59.7933H13.96V38.96H18.1266ZM51.46 38.96V41.04H28.54V38.96H51.46ZM59.7933 61.8733H68.1266V63.96H59.7933V61.8733ZM61.8733 59.7933V40.9933C63.3325 40.8605 64.7497 40.4342 66.04 39.74V59.7933H61.8733ZM40 9.99999L53.4066 18L52.44 19.4667C51.0347 21.5785 50.0856 23.9604 49.6533 26.46H12.5133L40 9.99999ZM9.79331 32.7067V28.54H49.4133C49.4133 28.8867 49.3733 29.2067 49.3733 29.5867C49.3739 30.643 49.5266 31.6938 49.8266 32.7067H9.79331ZM11.8733 61.8733H20.2066V63.96H11.8733V61.8733ZM70.2066 70.2067H9.79331V66.04H70.2066V70.2067Z" fill="#1E2A3A"/>
<path d="M67.5 20.6266L60.8333 10.6266L54.1666 20.6266C52.397 23.2794 51.455 26.3978 51.46 29.5866C51.4598 30.7727 51.6955 31.947 52.1533 33.0411C52.6111 34.1352 53.2819 35.1274 54.1266 35.96L54.48 36.32C56.1714 38.0107 58.4651 38.9604 60.8566 38.9604C63.2482 38.9604 65.5419 38.0107 67.2333 36.32L67.5866 35.96C68.4314 35.1274 69.1022 34.1352 69.56 33.0411C70.0178 31.947 70.2535 30.7727 70.2533 29.5866C70.2445 26.393 69.2861 23.2741 67.5 20.6266ZM67.08 32.7066H63.96V35.8333C63.96 36.1091 63.8504 36.3737 63.6554 36.5687C63.4603 36.7637 63.1958 36.8733 62.92 36.8733H58.7466C58.4708 36.8733 58.2063 36.7637 58.0113 36.5687C57.8162 36.3737 57.7066 36.1091 57.7066 35.8333V32.7066H54.5866C54.4495 32.7075 54.3136 32.6813 54.1866 32.6294C54.0597 32.5775 53.9442 32.5011 53.8469 32.4044C53.7497 32.3077 53.6725 32.1928 53.6198 32.0662C53.5671 31.9396 53.54 31.8038 53.54 31.6666V27.5C53.54 27.3628 53.5671 27.2271 53.6198 27.1004C53.6725 26.9738 53.7497 26.8589 53.8469 26.7622C53.9442 26.6656 54.0597 26.5891 54.1866 26.5372C54.3136 26.4854 54.4495 26.4591 54.5866 26.46H57.7066V23.3333C57.7066 23.1967 57.7335 23.0615 57.7858 22.9353C57.8381 22.8091 57.9147 22.6945 58.0113 22.5979C58.1078 22.5013 58.2225 22.4247 58.3487 22.3725C58.4748 22.3202 58.6101 22.2933 58.7466 22.2933H62.92C63.0566 22.2933 63.1918 22.3202 63.318 22.3725C63.4442 22.4247 63.5588 22.5013 63.6554 22.5979C63.7519 22.6945 63.8285 22.8091 63.8808 22.9353C63.9331 23.0615 63.96 23.1967 63.96 23.3333V26.46H67.08C67.2171 26.4591 67.3531 26.4854 67.48 26.5372C67.607 26.5891 67.7224 26.6656 67.8197 26.7622C67.917 26.8589 67.9942 26.9738 68.0469 27.1004C68.0995 27.2271 68.1267 27.3628 68.1266 27.5V31.6666C68.1267 31.8038 68.0995 31.9396 68.0469 32.0662C67.9942 32.1928 67.917 32.3077 67.8197 32.4044C67.7224 32.5011 67.607 32.5775 67.48 32.6294C67.3531 32.6813 67.2171 32.7075 67.08 32.7066Z" fill="#FE444A"/>
<path d="M40 24.3733C41.0298 24.3733 42.0364 24.0679 42.8927 23.4958C43.7489 22.9237 44.4163 22.1105 44.8103 21.1592C45.2044 20.2078 45.3075 19.1609 45.1066 18.1509C44.9057 17.1409 44.4098 16.2131 43.6817 15.485C42.9535 14.7568 42.0258 14.2609 41.0158 14.06C40.0058 13.8591 38.9589 13.9622 38.0075 14.3563C37.0561 14.7504 36.2429 15.4177 35.6708 16.274C35.0987 17.1302 34.7933 18.1369 34.7933 19.1666C34.7933 20.5475 35.3419 21.8719 36.3183 22.8483C37.2948 23.8248 38.6191 24.3733 40 24.3733ZM40 16.04C40.6184 16.04 41.2229 16.2234 41.7371 16.5669C42.2513 16.9105 42.652 17.3988 42.8887 17.9701C43.1253 18.5414 43.1872 19.1701 43.0666 19.7766C42.946 20.3831 42.6482 20.9403 42.2109 21.3775C41.7736 21.8148 41.2165 22.1126 40.61 22.2332C40.0035 22.3539 39.3748 22.292 38.8035 22.0553C38.2322 21.8187 37.7438 21.4179 37.4003 20.9037C37.0567 20.3896 36.8733 19.785 36.8733 19.1666C36.8733 18.3374 37.2028 17.5421 37.7891 16.9558C38.3755 16.3694 39.1708 16.04 40 16.04Z" fill="#1E2A3A"/>
<path d="M67.08 26.46H63.96V23.3333C63.96 23.1967 63.9331 23.0615 63.8808 22.9353C63.8285 22.8091 63.7519 22.6945 63.6554 22.5979C63.5588 22.5013 63.4442 22.4247 63.318 22.3725C63.1918 22.3202 63.0566 22.2933 62.92 22.2933H58.7466C58.6101 22.2933 58.4748 22.3202 58.3487 22.3725C58.2225 22.4247 58.1078 22.5013 58.0113 22.5979C57.9147 22.6945 57.8381 22.8091 57.7858 22.9353C57.7335 23.0615 57.7066 23.1967 57.7066 23.3333V26.46H54.5866C54.4495 26.4591 54.3136 26.4853 54.1866 26.5372C54.0597 26.5891 53.9442 26.6656 53.8469 26.7622C53.7497 26.8589 53.6725 26.9738 53.6198 27.1004C53.5671 27.2271 53.54 27.3628 53.54 27.5V31.6666C53.54 31.8038 53.5671 31.9396 53.6198 32.0662C53.6725 32.1928 53.7497 32.3077 53.8469 32.4044C53.9442 32.5011 54.0597 32.5775 54.1866 32.6294C54.3136 32.6813 54.4495 32.7075 54.5866 32.7066H57.7066V35.8333C57.7066 36.1091 57.8162 36.3737 58.0113 36.5687C58.2063 36.7637 58.4708 36.8733 58.7466 36.8733H62.92C63.1958 36.8733 63.4603 36.7637 63.6554 36.5687C63.8504 36.3737 63.96 36.1091 63.96 35.8333V32.7066H67.08C67.2171 32.7075 67.3531 32.6813 67.48 32.6294C67.607 32.5775 67.7224 32.5011 67.8197 32.4044C67.917 32.3077 67.9942 32.1928 68.0469 32.0662C68.0995 31.9396 68.1267 31.8038 68.1266 31.6666V27.5C68.1267 27.3628 68.0995 27.2271 68.0469 27.1004C67.9942 26.9738 67.917 26.8589 67.8197 26.7622C67.7224 26.6656 67.607 26.5891 67.48 26.5372C67.3531 26.4853 67.2171 26.4591 67.08 26.46ZM66.04 30.6266H62.92C62.7828 30.6258 62.6469 30.652 62.5199 30.7039C62.393 30.7558 62.2776 30.8322 62.1803 30.9289C62.083 31.0255 62.0058 31.1405 61.9531 31.2671C61.9004 31.3937 61.8733 31.5295 61.8733 31.6666V34.7933H59.7933V31.6666C59.7933 31.5295 59.7662 31.3937 59.7135 31.2671C59.6608 31.1405 59.5836 31.0255 59.4863 30.9289C59.3891 30.8322 59.2736 30.7558 59.1467 30.7039C59.0197 30.652 58.8838 30.6258 58.7466 30.6266H55.6266V28.54H58.7466C58.8838 28.5409 59.0197 28.5146 59.1467 28.4627C59.2736 28.4109 59.3891 28.3344 59.4863 28.2377C59.5836 28.1411 59.6608 28.0261 59.7135 27.8995C59.7662 27.7729 59.7933 27.6371 59.7933 27.5V24.3733H61.8733V27.5C61.8733 27.6371 61.9004 27.7729 61.9531 27.8995C62.0058 28.0261 62.083 28.1411 62.1803 28.2377C62.2776 28.3344 62.393 28.4109 62.5199 28.4627C62.6469 28.5146 62.7828 28.5409 62.92 28.54H66.04V30.6266Z" fill="#1E2A3A"/>
</svg>
