<svg width="80" height="80" viewBox="0 0 80 80" fill="none" xmlns="http://www.w3.org/2000/svg">
<path d="M25.42 25.42H23.3334V27.5067H25.42V25.42Z" fill="#1E2A3A"/>
<path d="M33.7533 25.42H31.6666V27.5067H33.7533V25.42Z" fill="#1E2A3A"/>
<path d="M32.7066 31.6667H30.6266C30.5965 32.1988 30.3639 32.6993 29.9765 33.0654C29.5891 33.4315 29.0763 33.6354 28.5433 33.6354C28.0103 33.6354 27.4975 33.4315 27.1101 33.0654C26.7227 32.6993 26.4901 32.1988 26.46 31.6667H24.3733C24.3733 32.7717 24.8123 33.8315 25.5937 34.6129C26.3751 35.3943 27.4349 35.8333 28.54 35.8333C29.645 35.8333 30.7048 35.3943 31.4862 34.6129C32.2676 33.8315 32.7066 32.7717 32.7066 31.6667Z" fill="#1E2A3A"/>
<path d="M69.1667 11.8734H66.04C66.04 10.7683 65.601 9.70848 64.8196 8.92708C64.0382 8.14567 62.9784 7.70669 61.8733 7.70669C60.7683 7.70669 59.7085 8.14567 58.9271 8.92708C58.1457 9.70848 57.7067 10.7683 57.7067 11.8734H54.5867C53.7574 11.8734 52.9621 12.2028 52.3758 12.7891C51.7894 13.3755 51.46 14.1708 51.46 15V35.8334C51.46 36.6626 51.7894 37.4579 52.3758 38.0442C52.9621 38.6306 53.7574 38.96 54.5867 38.96H60.8333V60.8334C60.8316 62.2137 60.2824 63.537 59.3064 64.5131C58.3303 65.4891 57.007 66.0383 55.6267 66.04H47.2933V57.7067H48.3333C48.6092 57.7067 48.8737 57.5971 49.0687 57.4021C49.2638 57.207 49.3733 56.9425 49.3733 56.6667V51.28C49.3742 50.2091 49.1639 49.1484 48.7545 48.1588C48.345 47.1692 47.7445 46.2701 46.9872 45.5128C46.2299 44.7555 45.3308 44.155 44.3412 43.7455C43.3516 43.3361 42.291 43.1258 41.22 43.1267H35.2533C34.2771 42.0235 33.7408 40.5998 33.7467 39.1267V38.7267C36.234 37.4549 38.1744 35.3226 39.2067 32.7267H40C40.7988 32.7326 41.5822 32.5073 42.2558 32.078C42.9294 31.6487 43.4644 31.0337 43.7963 30.3071C44.1283 29.5805 44.2429 28.7735 44.1264 27.9832C44.01 27.193 43.6674 26.4533 43.14 25.8534L43.3667 25.6267C44.281 24.7129 45.0063 23.6279 45.5012 22.4336C45.9961 21.2394 46.2508 19.9594 46.2508 18.6667C46.2508 17.374 45.9961 16.094 45.5012 14.8997C45.0063 13.7055 44.281 12.6205 43.3667 11.7067C42.1129 10.4424 40.6218 9.43824 38.979 8.75181C37.3361 8.06537 35.5738 7.7102 33.7933 7.70669H23.3333C21.5482 7.70558 19.7805 8.05855 18.1327 8.74515C16.4849 9.43174 14.9896 10.4383 13.7333 11.7067C11.8883 13.5531 10.852 16.0565 10.852 18.6667C10.852 21.2769 11.8883 23.7803 13.7333 25.6267L13.96 25.8534C13.3001 26.6007 12.9351 27.563 12.9333 28.56C12.9325 29.1069 13.0394 29.6485 13.2481 30.154C13.4567 30.6595 13.763 31.1189 14.1494 31.5059C14.5358 31.8929 14.9947 32.1999 15.4998 32.4094C16.005 32.6189 16.5465 32.7267 17.0933 32.7267H17.8933C18.9229 35.3221 20.8611 37.4546 23.3467 38.7267V39.1267C23.3488 40.5979 22.8156 42.0196 21.8467 43.1267H15.8667C14.7954 43.1258 13.7344 43.3361 12.7445 43.7454C11.7545 44.1548 10.8549 44.7552 10.0971 45.5124C9.33926 46.2696 8.7381 47.1687 8.32794 48.1583C7.91778 49.148 7.70666 50.2087 7.70667 51.28V56.6667C7.70667 56.9425 7.81624 57.207 8.01127 57.4021C8.20631 57.5971 8.47084 57.7067 8.74666 57.7067H9.79333V71.2534C9.79333 71.5292 9.9029 71.7937 10.0979 71.9887C10.293 72.1838 10.5575 72.2934 10.8333 72.2934H46.2533C46.5292 72.2934 46.7937 72.1838 46.9887 71.9887C47.1838 71.7937 47.2933 71.5292 47.2933 71.2534V68.1267H55.6267C57.5577 68.1162 59.4067 67.3444 60.7722 65.9789C62.1377 64.6134 62.9095 62.7644 62.92 60.8334V38.96H69.1667C69.9959 38.96 70.7912 38.6306 71.3776 38.0442C71.9639 37.4579 72.2933 36.6626 72.2933 35.8334V15C72.2933 14.1708 71.9639 13.3755 71.3776 12.7891C70.7912 12.2028 69.9959 11.8734 69.1667 11.8734ZM15 70.2067H11.8733V57.7067H15V70.2067ZM15 55.6267H9.79333V51.28C9.79324 49.8206 10.3198 48.4101 11.2764 47.3079C12.2329 46.2056 13.5551 45.4855 15 45.28V55.6267ZM40 30.6267H39.8C39.9332 29.9391 40.0002 29.2404 40 28.54V26.46C40.5322 26.4901 41.0326 26.7228 41.3987 27.1101C41.7648 27.4975 41.9688 28.0103 41.9688 28.5434C41.9688 29.0764 41.7648 29.5892 41.3987 29.9766C41.0326 30.364 40.5322 30.5966 40 30.6267ZM17.08 30.6267C16.5478 30.5966 16.0474 30.364 15.6813 29.9766C15.3152 29.5892 15.1112 29.0764 15.1112 28.5434C15.1112 28.0103 15.3152 27.4975 15.6813 27.1101C16.0474 26.7228 16.5478 26.4901 17.08 26.46V28.54C17.0864 29.24 17.1534 29.9382 17.28 30.6267H17.08ZM17.6067 17.2267C17.4474 17.3171 17.3149 17.4479 17.2224 17.6059C17.1299 17.7639 17.0808 17.9436 17.08 18.1267V24.3734C16.6041 24.3797 16.1328 24.4676 15.6867 24.6334L15.1867 24.1334C13.7333 22.6772 12.9171 20.704 12.9171 18.6467C12.9171 16.5894 13.7333 14.6161 15.1867 13.16C16.252 12.0982 17.5165 11.2571 18.9077 10.6851C20.2988 10.1131 21.7892 9.82139 23.2933 9.82669H33.7667C35.274 9.81985 36.7679 10.1108 38.1625 10.6828C39.5571 11.2549 40.8249 12.0967 41.8933 13.16C43.3467 14.6161 44.1629 16.5894 44.1629 18.6467C44.1629 20.704 43.3467 22.6772 41.8933 24.1334L41.3933 24.6334C40.9472 24.4676 40.4759 24.3797 40 24.3734V20.2067C39.9999 19.9881 39.9309 19.7752 39.8028 19.5981C39.6748 19.4209 39.4942 19.2887 39.2867 19.22L33.04 17.1334C32.9087 17.0886 32.7699 17.0703 32.6315 17.0796C32.4931 17.089 32.3579 17.1257 32.2339 17.1878C32.1098 17.2498 31.9993 17.3359 31.9088 17.441C31.8183 17.5461 31.7496 17.6681 31.7067 17.8C31.6722 17.9078 31.6543 18.0202 31.6533 18.1334V20.5067L25.9267 17.2267C25.6865 17.0904 25.4024 17.0538 25.1356 17.1249C24.8688 17.196 24.6405 17.369 24.5 17.6067C24.4073 17.7667 24.359 17.9485 24.36 18.1334V20.5067L18.6667 17.22C18.5058 17.1253 18.3224 17.0759 18.1357 17.0771C17.9491 17.0783 17.7663 17.13 17.6067 17.2267ZM19.1667 28.56V19.92L24.8933 23.1934C25.0515 23.2863 25.2315 23.3357 25.415 23.3366C25.5985 23.3374 25.779 23.2898 25.9381 23.1984C26.0972 23.107 26.2292 22.9751 26.3209 22.8162C26.4126 22.6572 26.4606 22.4768 26.46 22.2934V19.92L32.1867 23.1934C32.3052 23.2626 32.4362 23.3077 32.5722 23.3261C32.7082 23.3445 32.8465 23.3358 32.9791 23.3004C33.1117 23.2651 33.2361 23.2039 33.3449 23.1203C33.4538 23.0367 33.545 22.9324 33.6133 22.8134C33.7031 22.6549 33.7491 22.4754 33.7467 22.2934V19.5667L37.92 20.96V28.54C37.9534 29.7924 37.7356 31.0388 37.2794 32.2057C36.8232 33.3725 36.1378 34.4361 35.2638 35.3337C34.3898 36.2313 33.3448 36.9448 32.1906 37.4319C31.0363 37.9191 29.7962 38.1701 28.5433 38.1701C27.2905 38.1701 26.0503 37.9191 24.8961 37.4319C23.7418 36.9448 22.6969 36.2313 21.8228 35.3337C20.9488 34.4361 20.2635 33.3725 19.8073 32.2057C19.3511 31.0388 19.1333 29.7924 19.1667 28.54V28.56ZM27.5 70.2267H17.08V45.2067H21.3333C21.5601 46.7627 22.2836 48.2038 23.3961 49.315C24.5086 50.4263 25.9504 51.1483 27.5067 51.3734L27.5 70.2267ZM28.2133 49.3934C26.9542 49.3132 25.7675 48.7768 24.8753 47.8847C23.9832 46.9926 23.4468 45.8058 23.3667 44.5467C24.5905 43.1685 25.3078 41.4142 25.4 39.5734C27.4533 40.1687 29.6334 40.1687 31.6867 39.5734C31.7659 41.4109 32.4716 43.1659 33.6867 44.5467C33.5941 45.91 32.9673 47.1816 31.9424 48.0854C30.9176 48.9892 29.5775 49.452 28.2133 49.3734V49.3934ZM40 70.2067H29.5867V51.3734C31.1429 51.1483 32.5848 50.4263 33.6973 49.315C34.8097 48.2038 35.5333 46.7627 35.76 45.2067H40V70.2067ZM45.2067 70.2067H42.08V57.7067H45.2067V70.2067ZM42.08 55.6267V45.2734C43.5255 45.4787 44.8485 46.1985 45.8061 47.3007C46.7638 48.4028 47.2918 49.8133 47.2933 51.2734V55.62L42.08 55.6267ZM61.8733 9.79335C62.4256 9.79335 62.9553 10.0123 63.3465 10.4022C63.7376 10.792 63.9582 11.3211 63.96 11.8734H59.7933C59.7933 11.3217 60.0125 10.7926 60.4026 10.4026C60.7926 10.0125 61.3217 9.79335 61.8733 9.79335ZM70.2067 35.8334C70.2067 36.1092 70.0971 36.3737 69.9021 36.5687C69.707 36.7638 69.4425 36.8734 69.1667 36.8734H54.5867C54.4495 36.8742 54.3136 36.848 54.1866 36.7961C54.0597 36.7442 53.9442 36.6678 53.847 36.5711C53.7497 36.4744 53.6725 36.3595 53.6198 36.2329C53.5671 36.1063 53.54 35.9705 53.54 35.8334V32.7067H70.2067V35.8334ZM70.2067 30.6267H53.54V20.2067H70.2067V30.6267ZM70.2067 18.1267H53.54V15C53.54 14.8629 53.5671 14.7271 53.6198 14.6005C53.6725 14.4739 53.7497 14.3589 53.847 14.2623C53.9442 14.1656 54.0597 14.0891 54.1866 14.0373C54.3136 13.9854 54.4495 13.9591 54.5867 13.96H69.1667C69.4425 13.96 69.707 14.0696 69.9021 14.2646C70.0971 14.4597 70.2067 14.7242 70.2067 15V18.1267Z" fill="#1E2A3A"/>
<path d="M53.54 20.2067V30.6267H70.2067V20.2067H53.54ZM65 26.46H62.92V28.54H60.8334V26.46H58.7467V24.3734H60.8334V22.2934H62.92V24.3734H65V26.46Z" fill="#1E2A3A"/>
<path d="M65 24.3734V26.46H62.92V28.54H60.8334V26.46H58.7467V24.3734H60.8334V22.2934H62.92V24.3734H65Z" fill="#FE444A"/>
</svg>
