<?xml version="1.0" encoding="UTF-8"?><svg id="Layer_1" xmlns="http://www.w3.org/2000/svg" viewBox="0 0 79.2 79.2"><defs><style>.cls-1{fill:#e30513;}</style></defs><g><path class="cls-1" d="M51.56,12.24H16.36c-1.48,0-2.68,1.2-2.68,2.69v49.28c0,1.48,1.2,2.69,2.68,2.69H51.56c1.48,0,2.69-1.2,2.69-2.69V14.93c0-1.48-1.2-2.69-2.69-2.69Zm-24.65,4.2c0-.39,.32-.71,.71-.71h12.69c.39,0,.71,.32,.71,.71v3.87c0,.39-.32,.71-.71,.71h-12.69c-.39,0-.71-.32-.71-.71v-3.87Zm24.49,45.98c0,.9-.73,1.62-1.62,1.62H18.15c-.9,0-1.62-.73-1.62-1.62V22.65c0-.9,.73-1.62,1.62-1.62h7v.88c0,.12,.02,.23,.07,.34,.04,.11,.11,.21,.19,.29,.08,.08,.18,.15,.29,.19,.11,.04,.22,.07,.34,.07h15.86c.12,0,.23-.02,.34-.07,.11-.04,.2-.11,.29-.19,.08-.08,.15-.18,.19-.29,.04-.11,.07-.22,.07-.34v-.88h7c.9,0,1.62,.73,1.62,1.62V62.42Z"/><rect class="cls-1" x="37.05" y="46.04" width="10.76" height="14.27" rx=".75" ry=".75"/><path class="cls-1" d="M46.75,44.03H21.17c-.83,0-1.5-.67-1.5-1.5s.67-1.5,1.5-1.5h25.58c.83,0,1.5,.67,1.5,1.5s-.67,1.5-1.5,1.5Z"/><path class="cls-1" d="M32.8,49.15h-11.78c-.83,0-1.5-.67-1.5-1.5s.67-1.5,1.5-1.5h11.78c.83,0,1.5,.67,1.5,1.5s-.67,1.5-1.5,1.5Z"/><path class="cls-1" d="M46.75,32.87h-13.93c-.83,0-1.5-.67-1.5-1.5s.67-1.5,1.5-1.5h13.93c.83,0,1.5,.67,1.5,1.5s-.67,1.5-1.5,1.5Z"/><path class="cls-1" d="M46.75,37.77h-13.93c-.83,0-1.5-.67-1.5-1.5s.67-1.5,1.5-1.5h13.93c.83,0,1.5,.67,1.5,1.5s-.67,1.5-1.5,1.5Z"/><path class="cls-1" d="M32.8,54.51h-11.78c-.83,0-1.5-.67-1.5-1.5s.67-1.5,1.5-1.5h11.78c.83,0,1.5,.67,1.5,1.5s-.67,1.5-1.5,1.5Z"/><path class="cls-1" d="M32.8,60.17h-11.78c-.83,0-1.5-.67-1.5-1.5s.67-1.5,1.5-1.5h11.78c.83,0,1.5,.67,1.5,1.5s-.67,1.5-1.5,1.5Z"/><path class="cls-1" d="M27.43,30.32l-2.88-4.56c-.05-.07-.13-.12-.22-.14-.09-.01-.18,0-.25,.06-.03,.02-.06,.05-.08,.08l-2.88,4.56c-.7,1.11-1.07,2.39-1.07,3.7,0,.52,.1,1.03,.3,1.51,.2,.48,.49,.91,.85,1.28,.37,.37,.8,.66,1.28,.85,.48,.2,.99,.3,1.51,.3h.58c.52,0,1.03-.1,1.51-.3,.48-.2,.91-.49,1.28-.85,.37-.37,.66-.8,.85-1.28,.2-.48,.3-.99,.3-1.51,0-1.31-.37-2.59-1.07-3.7h0Z"/></g><g><path class="cls-1" d="M57.78,41.35v21.5c0,2.16,1.76,3.91,3.91,3.91s3.91-1.76,3.91-3.91v-21.5h-7.83Zm5.84,21.24c0,1.01-.82,1.83-1.83,1.83h-.15c-1.04,0-1.88-.84-1.88-1.88v-10.54c0-.11,.09-.2,.2-.2h3.45c.11,0,.2,.09,.2,.2v10.59Z"/><path class="cls-1" d="M60.16,37.28h3.06c.44,0,.8,.36,.8,.8v1.53c0,.18-.14,.32-.32,.32h-4.01c-.18,0-.32-.14-.32-.32v-1.53c0-.44,.36-.8,.8-.8Z"/><path class="cls-1" d="M65.91,43.6h-8.44c-.83,0-1.5-.67-1.5-1.5s.67-1.5,1.5-1.5h8.44c.83,0,1.5,.67,1.5,1.5s-.67,1.5-1.5,1.5Z"/></g></svg>