<svg width="80" height="80" viewBox="0 0 80 80" fill="none" xmlns="http://www.w3.org/2000/svg">
<path d="M61.8733 26.46C60.7683 26.46 59.7085 26.899 58.9271 27.6804C58.1457 28.4618 57.7067 29.5216 57.7067 30.6267V41.24C57.093 41.0533 56.4408 41.0327 55.8166 41.1802C55.1924 41.3278 54.6184 41.6383 54.1533 42.08L47.6 48.6667C47.5024 48.7622 47.425 48.8763 47.3723 49.0023C47.3196 49.1282 47.2928 49.2635 47.2933 49.4V61.8734H46.2533C45.9757 61.8734 45.7095 61.9836 45.5132 62.1799C45.3169 62.3762 45.2067 62.6424 45.2067 62.92V71.2534C45.2067 71.3905 45.2338 71.5263 45.2865 71.6529C45.3391 71.7795 45.4164 71.8945 45.5136 71.9911C45.6109 72.0878 45.7263 72.1642 45.8533 72.2161C45.9802 72.268 46.1162 72.2942 46.2533 72.2934H60.8333C61.1092 72.2934 61.3737 72.1838 61.5687 71.9888C61.7638 71.7937 61.8733 71.5292 61.8733 71.2534V62.92C61.8742 62.7829 61.848 62.6469 61.7961 62.52C61.7442 62.393 61.6678 62.2776 61.5711 62.1803C61.4744 62.083 61.3595 62.0058 61.2329 61.9532C61.1063 61.9005 60.9705 61.8734 60.8333 61.8734H59.7933V58.14L65.7333 52.1934C65.8309 52.0979 65.9084 51.9838 65.961 51.8578C66.0137 51.7318 66.0406 51.5966 66.04 51.46V30.6267C66.04 29.5216 65.601 28.4618 64.8196 27.6804C64.0382 26.899 62.9784 26.46 61.8733 26.46ZM59.7933 70.2067H47.2933V63.96H59.7933V70.2067ZM63.96 51.0267L58 56.9734C57.8053 57.168 57.6952 57.4314 57.6933 57.7067V61.8734H49.3733V49.8067L55.6267 43.5534C55.9077 43.2875 56.2798 43.1394 56.6667 43.1394C57.0535 43.1394 57.4257 43.2875 57.7067 43.5534L58.32 44.1667C58.5956 44.444 58.7503 44.8191 58.7503 45.21C58.7503 45.601 58.5956 45.9761 58.32 46.2534L54.8867 49.68L56.36 51.1534L59.7933 47.7267C60.459 47.0582 60.8327 46.1533 60.8327 45.21C60.8327 44.2667 60.459 43.3618 59.7933 42.6934V30.6267C59.7773 30.3432 59.8193 30.0594 59.9167 29.7927C60.0142 29.526 60.165 29.282 60.3601 29.0756C60.5551 28.8692 60.7902 28.7048 61.051 28.5924C61.3118 28.4801 61.5927 28.4221 61.8767 28.4221C62.1606 28.4221 62.4416 28.4801 62.7024 28.5924C62.9631 28.7048 63.1982 28.8692 63.3933 29.0756C63.5883 29.282 63.7392 29.526 63.8366 29.7927C63.9341 30.0594 63.976 30.3432 63.96 30.6267V51.0267Z" fill="#1E2A3A"/>
<path d="M50.1066 22.8L40.88 8.19333C40.7126 7.95943 40.4593 7.80142 40.1756 7.75393C39.892 7.70645 39.6011 7.77336 39.3666 7.94C39.273 8.0125 39.1899 8.09777 39.12 8.19333L29.8933 22.8C27.6505 26.3517 26.4601 30.4662 26.46 34.6667C26.4591 36.3239 26.7846 37.9652 27.4181 39.4966C28.0515 41.0281 28.9803 42.4198 30.1516 43.5923C31.3228 44.7648 32.7135 45.6951 34.2443 46.3301C35.7751 46.9652 37.416 47.2925 39.0733 47.2933H40.9266C42.5839 47.2925 44.2248 46.9652 45.7556 46.3301C47.2864 45.6951 48.6771 44.7648 49.8484 43.5923C51.0196 42.4198 51.9485 41.0281 52.5819 39.4966C53.2153 37.9652 53.5408 36.3239 53.54 34.6667C53.5398 30.4662 52.3494 26.3517 50.1066 22.8ZM47.78 42.6667C45.8706 44.3012 43.4401 45.1997 40.9266 45.2H39.0733C37.6898 45.2009 36.3197 44.929 35.0413 44.4C33.763 43.8709 32.6014 43.0951 31.6232 42.1168C30.6449 41.1385 29.869 39.977 29.34 38.6986C28.8109 37.4203 28.5391 36.0502 28.54 34.6667C28.543 32.7744 28.81 30.8918 29.3333 29.0733C29.8612 27.2521 30.6446 25.5148 31.66 23.9133L40 10.7L48.34 23.9133C50.3768 27.1302 51.4587 30.8592 51.46 34.6667C51.4601 36.1867 51.1313 37.6887 50.4961 39.0697C49.8608 40.4506 48.9343 41.6777 47.78 42.6667Z" fill="#1E2A3A"/>
<path d="M48.34 23.9133L40 10.7L31.66 23.9133C30.6447 25.5148 29.8613 27.2521 29.3334 29.0733C28.8101 30.8918 28.5431 32.7744 28.54 34.6667C28.54 36.0496 28.8125 37.419 29.342 38.6966C29.8714 39.9742 30.6474 41.1349 31.6256 42.1125C32.6038 43.0901 33.765 43.8653 35.0429 44.3939C36.3209 44.9226 37.6904 45.1942 39.0734 45.1933H40.9267C43.7192 45.1933 46.3974 44.0845 48.3725 42.1105C50.3477 40.1366 51.4583 37.4591 51.46 34.6667C51.4588 30.8591 50.3769 27.1302 48.34 23.9133ZM47.2934 35.8333C47.2934 36.1091 47.1838 36.3737 46.9888 36.5687C46.7937 36.7637 46.5292 36.8733 46.2534 36.8733H43.1267V40C43.1267 40.1371 43.0996 40.2729 43.0469 40.3995C42.9942 40.5261 42.917 40.6411 42.8197 40.7377C42.7225 40.8344 42.607 40.9109 42.4801 40.9627C42.3531 41.0146 42.2172 41.0409 42.08 41.04H37.92C37.7829 41.0409 37.6469 41.0146 37.52 40.9627C37.3931 40.9109 37.2776 40.8344 37.1803 40.7377C37.0831 40.6411 37.0059 40.5261 36.9532 40.3995C36.9005 40.2729 36.8734 40.1371 36.8734 40V36.8733H33.7467C33.4709 36.8733 33.2064 36.7637 33.0113 36.5687C32.8163 36.3737 32.7067 36.1091 32.7067 35.8333V31.6667C32.7067 31.3908 32.8163 31.1263 33.0113 30.9313C33.2064 30.7362 33.4709 30.6266 33.7467 30.6266H36.8734V27.5C36.8734 27.3628 36.9005 27.2271 36.9532 27.1004C37.0059 26.9738 37.0831 26.8589 37.1803 26.7622C37.2776 26.6656 37.3931 26.5891 37.52 26.5372C37.6469 26.4854 37.7829 26.4591 37.92 26.46H42.08C42.2172 26.4591 42.3531 26.4854 42.4801 26.5372C42.607 26.5891 42.7225 26.6656 42.8197 26.7622C42.917 26.8589 42.9942 26.9738 43.0469 27.1004C43.0996 27.2271 43.1267 27.3628 43.1267 27.5V30.6266H46.2534C46.5292 30.6266 46.7937 30.7362 46.9888 30.9313C47.1838 31.1263 47.2934 31.3908 47.2934 31.6667V35.8333Z" fill="#FE444A"/>
<path d="M46.2533 30.6267H43.1267V27.5C43.1267 27.3629 43.0995 27.2271 43.0469 27.1005C42.9942 26.9739 42.917 26.8589 42.8197 26.7623C42.7224 26.6656 42.607 26.5891 42.48 26.5373C42.3531 26.4854 42.2171 26.4591 42.08 26.46H37.92C37.7829 26.4591 37.6469 26.4854 37.52 26.5373C37.393 26.5891 37.2776 26.6656 37.1803 26.7623C37.083 26.8589 37.0058 26.9739 36.9531 27.1005C36.9004 27.2271 36.8733 27.3629 36.8733 27.5V30.6267H33.7467C33.4708 30.6267 33.2063 30.7362 33.0113 30.9313C32.8162 31.1263 32.7067 31.3909 32.7067 31.6667V35.8333C32.7067 36.1092 32.8162 36.3737 33.0113 36.5687C33.2063 36.7638 33.4708 36.8733 33.7467 36.8733H36.8733V40C36.8733 40.1371 36.9004 40.2729 36.9531 40.3995C37.0058 40.5262 37.083 40.6411 37.1803 40.7378C37.2776 40.8344 37.393 40.9109 37.52 40.9628C37.6469 41.0146 37.7829 41.0409 37.92 41.04H42.08C42.2171 41.0409 42.3531 41.0146 42.48 40.9628C42.607 40.9109 42.7224 40.8344 42.8197 40.7378C42.917 40.6411 42.9942 40.5262 43.0469 40.3995C43.0995 40.2729 43.1267 40.1371 43.1267 40V36.8733H46.2533C46.5292 36.8733 46.7937 36.7638 46.9887 36.5687C47.1838 36.3737 47.2933 36.1092 47.2933 35.8333V31.6667C47.2933 31.3909 47.1838 31.1263 46.9887 30.9313C46.7937 30.7362 46.5292 30.6267 46.2533 30.6267ZM45.2067 34.7933H42.08C41.8042 34.7933 41.5396 34.9029 41.3446 35.098C41.1496 35.293 41.04 35.5575 41.04 35.8333V38.96H38.96V35.8333C38.96 35.5575 38.8504 35.293 38.6554 35.098C38.4603 34.9029 38.1958 34.7933 37.92 34.7933H34.7933V32.7067H37.92C38.0566 32.7067 38.1918 32.6798 38.318 32.6275C38.4442 32.5752 38.5588 32.4986 38.6554 32.4021C38.752 32.3055 38.8286 32.1908 38.8808 32.0647C38.9331 31.9385 38.96 31.8033 38.96 31.6667V28.54H41.04V31.6667C41.04 31.8033 41.0669 31.9385 41.1192 32.0647C41.1714 32.1908 41.248 32.3055 41.3446 32.4021C41.4412 32.4986 41.5558 32.5752 41.682 32.6275C41.8082 32.6798 41.9434 32.7067 42.08 32.7067H45.2067V34.7933Z" fill="#1E2A3A"/>
<path d="M33.7466 61.8734H32.7066V49.3734C32.7007 49.1068 32.5906 48.8531 32.4 48.6667L25.8466 42.1067C25.3815 41.6649 24.8076 41.3545 24.1834 41.2069C23.5592 41.0593 22.907 41.08 22.2933 41.2667V30.6267C22.2933 30.0795 22.1855 29.5377 21.9761 29.0322C21.7667 28.5266 21.4598 28.0673 21.0729 27.6804C20.686 27.2935 20.2267 26.9866 19.7212 26.7772C19.2156 26.5678 18.6738 26.46 18.1266 26.46C17.5795 26.46 17.0376 26.5678 16.5321 26.7772C16.0266 26.9866 15.5673 27.2935 15.1804 27.6804C14.7934 28.0673 14.4865 28.5266 14.2771 29.0322C14.0677 29.5377 13.96 30.0795 13.96 30.6267V51.46C13.9594 51.5966 13.9863 51.7318 14.0389 51.8578C14.0916 51.9838 14.169 52.0979 14.2666 52.1934L20.2066 58.14V61.8734H19.1666C19.0295 61.8734 18.8937 61.9005 18.7671 61.9532C18.6405 62.0058 18.5255 62.083 18.4289 62.1803C18.3322 62.2776 18.2558 62.393 18.2039 62.52C18.152 62.6469 18.1258 62.7829 18.1266 62.92V71.2534C18.1266 71.5292 18.2362 71.7937 18.4312 71.9888C18.6263 72.1838 18.8908 72.2934 19.1666 72.2934H33.7466C33.8838 72.2942 34.0197 72.268 34.1467 72.2161C34.2736 72.1642 34.3891 72.0878 34.4863 71.9911C34.5836 71.8945 34.6608 71.7795 34.7135 71.6529C34.7662 71.5263 34.7933 71.3905 34.7933 71.2534V62.92C34.7933 62.6424 34.683 62.3762 34.4867 62.1799C34.2905 61.9836 34.0242 61.8734 33.7466 61.8734ZM22 56.9734L16.0533 51.0267V30.6267C16.0373 30.3432 16.0792 30.0594 16.1767 29.7927C16.2741 29.526 16.425 29.282 16.62 29.0756C16.8151 28.8692 17.0502 28.7048 17.3109 28.5924C17.5717 28.4801 17.8527 28.4221 18.1366 28.4221C18.4206 28.4221 18.7016 28.4801 18.9623 28.5924C19.2231 28.7048 19.4582 28.8692 19.6532 29.0756C19.8483 29.282 19.9991 29.526 20.0966 29.7927C20.194 30.0594 20.236 30.3432 20.22 30.6267V42.6667C19.5548 43.334 19.1812 44.2378 19.1812 45.18C19.1812 46.1222 19.5548 47.0261 20.22 47.6934L23.6533 51.1267L25.1266 49.6534L21.6933 46.2267C21.4177 45.9494 21.263 45.5743 21.263 45.1834C21.263 44.7924 21.4177 44.4173 21.6933 44.14L22.3066 43.5334C22.5861 43.2645 22.9588 43.1143 23.3466 43.1143C23.7344 43.1143 24.1072 43.2645 24.3866 43.5334L30.64 49.78V61.8467H22.2933V57.7067C22.295 57.4333 22.1898 57.1701 22 56.9734ZM32.72 70.2067H20.2066V63.96H32.7066L32.72 70.2067Z" fill="#1E2A3A"/>
</svg>
