<?xml version="1.0" encoding="UTF-8"?><svg id="Layer_1" xmlns="http://www.w3.org/2000/svg" viewBox="0 0 79.2 79.2"><defs><style>.cls-1{stroke-linecap:round;}.cls-1,.cls-2{fill:none;stroke:#e30513;stroke-miterlimit:10;stroke-width:3px;}.cls-3{fill:#fff;}.cls-4{fill:#e30513;}</style></defs><path class="cls-4" d="M40.5,15.99c.5-.32,1.2-.32,1.69,0l12.18,7.88,9.85,6.38c1.04,.67,.47,2.05-.85,2.05H19.31c-1.31,0-1.88-1.38-.85-2.05l9.85-6.38,12.18-7.88Z"/><circle class="cls-3" cx="41.35" cy="24.47" r="3.77"/><line class="cls-2" x1="57.62" y1="61.9" x2="57.62" y2="34.83"/><line class="cls-2" x1="24.84" y1="61.9" x2="24.84" y2="34.83"/><line class="cls-1" x1="19.45" y1="35.86" x2="63.25" y2="35.86"/><line class="cls-1" x1="19.45" y1="62.56" x2="63.25" y2="62.56"/><g><g><path class="cls-4" d="M60.9,38.64c-.99,0-1.96-.19-2.88-.57-.92-.38-1.74-.93-2.44-1.63-.7-.7-1.25-1.52-1.63-2.44-.38-.92-.57-1.89-.57-2.88,0-2.29,.65-4.53,1.87-6.47l4.44-7.02,.03-.04c.12-.16,.25-.3,.41-.42,.39-.28,.79-.41,1.22-.41h.13l.21,.03c.53,.09,.99,.38,1.3,.81l4.46,7.05c1.22,1.94,1.87,4.18,1.87,6.47,0,.99-.19,1.96-.57,2.88-.38,.92-.93,1.74-1.63,2.44-.7,.7-1.52,1.25-2.44,1.63-.92,.38-1.89,.57-2.88,.57h-.88Z"/><path class="cls-3" d="M61.34,18.25s.06,0,.09,0c.14,.02,.26,.1,.34,.21l4.41,6.98c1.07,1.7,1.64,3.66,1.64,5.67,0,.79-.16,1.58-.46,2.31-.3,.73-.75,1.4-1.31,1.96-.56,.56-1.22,1-1.95,1.31-.73,.3-1.51,.46-2.31,.46h-.89c-.79,0-1.58-.16-2.31-.46-.73-.3-1.4-.75-1.95-1.31-.56-.56-1-1.22-1.31-1.96-.3-.73-.46-1.52-.46-2.31,0-2.01,.57-3.97,1.64-5.67l4.41-6.98s.07-.09,.12-.12c.09-.06,.19-.1,.3-.1m0-3c-.73,0-1.44,.23-2.04,.65l-.05,.03-.05,.04c-.27,.21-.51,.45-.71,.73l-.06,.08-.05,.09-4.41,6.98c-1.38,2.18-2.1,4.69-2.1,7.27,0,1.19,.23,2.35,.69,3.45,.46,1.1,1.11,2.09,1.96,2.93,.84,.84,1.83,1.5,2.93,1.96,1.1,.46,2.26,.69,3.45,.69h.89c1.19,0,2.36-.23,3.46-.69,1.1-.46,2.09-1.12,2.93-1.96,.84-.84,1.5-1.83,1.96-2.93,.46-1.1,.69-2.26,.69-3.45,0-2.58-.73-5.09-2.1-7.27l-4.41-6.98-.05-.07-.05-.07c-.55-.76-1.36-1.27-2.28-1.42-.19-.03-.39-.05-.58-.05h0Z"/></g><path class="cls-3" d="M61.91,34.52c-1.35,0-2.37-.48-3.22-1.34-.86-.85-1.34-2.07-1.34-3.22s1.62-1.15,1.83,0c.13,.69,.29,1.42,.8,1.94,.51,.51,1.09,.74,1.94,.8,1.31,.1,1.35,1.82,0,1.82Z"/></g><path class="cls-4" d="M36.07,44.81h4.14c.23,0,.42,.19,.42,.42v13.18c0,.23-.19,.42-.42,.42h-6.48c-.23,0-.42-.19-.42-.42v-10.84c0-1.52,1.24-2.76,2.76-2.76Z"/><path class="cls-4" d="M42.27,44.81h4.14c1.52,0,2.76,1.24,2.76,2.76v10.84c0,.23-.19,.42-.42,.42h-6.48c-.23,0-.42-.19-.42-.42v-13.18c0-.23,.19-.42,.42-.42Z"/><rect class="cls-4" x="29.05" y="39.45" width="24.4" height="3" rx=".48" ry=".48"/></svg>