<svg width="80" height="80" viewBox="0 0 80 80" fill="none" xmlns="http://www.w3.org/2000/svg">
<path d="M27 27.8578C27 24.0703 23.866 21 20 21C16.134 21 13 24.0703 13 27.8578V29.1422C13 32.9297 16.134 36 20 36C23.866 36 27 32.9297 27 29.1422V27.8578Z" fill="#E30513"/>
<path d="M66 27.8578C66 24.0703 63.0899 21 59.5 21C55.9101 21 53 24.0703 53 27.8578V29.1422C53 32.9297 55.9101 36 59.5 36C63.0899 36 66 32.9297 66 29.1422V27.8578Z" fill="#E30513"/>
<path d="M40.0054 38.7927C37.3462 38.7927 34.8915 37.852 32.9429 36.2805C32.566 35.9706 32.06 35.9153 31.6294 36.1255C28.8948 37.4757 27 40.342 27 43.651V59.4767C27 60.8712 28.0981 62 29.4547 62H50.5453C51.9019 62 53 60.8712 53 59.4767V43.651C53 39.7666 50.9114 37.3872 49.2857 36.4022C49.0273 36.2473 48.2737 35.7603 47.6062 36.2694C46.4865 37.1216 43.935 38.7927 39.9946 38.7927H40.0054Z" fill="#E30513"/>
<path d="M13.8267 37C10.9918 38.2467 9 41.1162 9 44.4585V55.5496C9 56.9038 10.0749 58 11.4028 58H20.4555C21.7833 58 22.8583 56.9038 22.8583 55.5496V43.8782C22.8583 43.3193 22.9004 42.7605 22.9742 42.2231C23.1955 40.7078 21.9625 39.4289 20.4555 39.4289H20.4133C17.9051 39.4289 15.6077 38.5154 13.8161 37H13.8267Z" fill="#E30513"/>
<path d="M66.1839 37.0107C64.3923 38.5261 62.0843 39.4289 59.5867 39.4289H59.5445C58.0375 39.4289 56.8045 40.7078 57.0258 42.2231C57.1101 42.7605 57.1417 43.3193 57.1417 43.8782V55.5496C57.1417 56.9038 58.2167 58 59.5445 58H68.5972C69.9251 58 71 56.9038 71 55.5496V44.4585C71 41.1162 69.0082 38.2467 66.1733 37L66.1839 37.0107Z" fill="#E30513"/>
<path d="M48 26.2337C48 21.6863 44.4183 18 40 18C35.5817 18 32 21.6863 32 26.2337V27.7663C32 32.3137 35.5817 36 40 36C44.4183 36 48 32.3137 48 27.7663V26.2337Z" fill="#E30513"/>
</svg>
