<svg width="80" height="80" viewBox="0 0 80 80" fill="none" xmlns="http://www.w3.org/2000/svg">
<path d="M58.053 21.0873H21.8763V59.5886C21.8763 61.9133 23.7651 63.802 26.0897 63.802H53.8518C56.1764 63.802 58.0652 61.9133 58.0652 59.5886V21.0873H58.053Z" fill="#E30513"/>
<path d="M51.7088 25.6518H28.2569C27.2606 25.6518 26.4529 26.4595 26.4529 27.4558V57.4215C26.4529 58.4178 27.2606 59.2254 28.2569 59.2254H51.7088C52.7051 59.2254 53.5128 58.4178 53.5128 57.4215V27.4558C53.5128 26.4595 52.7051 25.6518 51.7088 25.6518Z" fill="white"/>
<path d="M58.8521 16.2081H21.1378C19.3992 16.2081 17.9899 17.6175 17.9899 19.356V19.9008C17.9899 21.6394 19.3992 23.0487 21.1378 23.0487H58.8521C60.5906 23.0487 62 21.6394 62 19.9008V19.356C62 17.6175 60.5906 16.2081 58.8521 16.2081Z" fill="#E30513"/>
<path d="M49.2026 31.4512H30.8115C30.0246 31.4512 29.3829 32.0929 29.3829 32.8799V37.6865H37.0105C37.6885 37.6865 38.2333 38.2313 38.2333 38.9093C38.2333 39.5874 37.6885 40.1322 37.0105 40.1322H29.3829V42.8079H37.0105C37.6885 42.8079 38.2333 43.3527 38.2333 44.0307C38.2333 44.7088 37.6885 45.2536 37.0105 45.2536H29.3829V47.9293H37.0105C37.6885 47.9293 38.2333 48.4741 38.2333 49.1521C38.2333 49.8302 37.6885 50.375 37.0105 50.375H29.3829V55.1816C29.3829 55.9686 30.0246 56.6103 30.8115 56.6103H49.2026C49.9895 56.6103 50.6312 55.9686 50.6312 55.1816V32.892C50.6312 32.105 49.9895 31.4633 49.2026 31.4633V31.4512Z" fill="#E30513"/>
</svg>
