<svg width="80" height="80" viewBox="0 0 80 80" fill="none" xmlns="http://www.w3.org/2000/svg">
<path d="M23.34 28.54H21.2533V32.7067H23.34V28.54Z" fill="#1E2A3A"/>
<path d="M33.7533 28.54H31.6666V32.7067H33.7533V28.54Z" fill="#1E2A3A"/>
<path d="M29.5867 37.92C29.5867 38.0572 29.5596 38.1929 29.5069 38.3196C29.4542 38.4462 29.377 38.5611 29.2797 38.6578C29.1825 38.7544 29.067 38.8309 28.9401 38.8828C28.8131 38.9346 28.6772 38.9609 28.54 38.96H26.46C26.3229 38.9609 26.187 38.9346 26.06 38.8828C25.9331 38.8309 25.8176 38.7544 25.7203 38.6578C25.6231 38.5611 25.5459 38.4462 25.4932 38.3196C25.4405 38.1929 25.4134 38.0572 25.4134 37.92V36.8734H23.3334V37.92C23.3351 38.7481 23.6653 39.5417 24.2515 40.1266C24.8377 40.7115 25.632 41.04 26.46 41.04H28.54C29.3681 41.04 30.1624 40.7115 30.7486 40.1266C31.3347 39.5417 31.6649 38.7481 31.6667 37.92V36.8734H29.5867V37.92Z" fill="#1E2A3A"/>
<path d="M39.1333 45.2067C40.2046 45.2075 41.2655 44.9973 42.2555 44.5879C43.2455 44.1786 44.1451 43.5782 44.9029 42.821C45.6607 42.0638 46.2619 41.1647 46.6721 40.175C47.0822 39.1854 47.2933 38.1246 47.2933 37.0533V29.2267C47.2976 25.4653 45.9027 21.8367 43.38 19.0467L44.1467 15.2067C44.1918 14.9639 44.1497 14.7129 44.0277 14.4982C43.9057 14.2835 43.7117 14.1188 43.48 14.0333L27.8867 7.78667C27.6386 7.68658 27.3614 7.68658 27.1133 7.78667L11.4867 14.0333C11.2612 14.1248 11.0746 14.292 10.959 14.5061C10.8434 14.7202 10.806 14.968 10.8533 15.2067L11.62 19.0467C9.10061 21.8387 7.70626 25.466 7.70667 29.2267V37.0533C7.70666 38.1246 7.91778 39.1854 8.32794 40.175C8.7381 41.1647 9.33926 42.0638 10.0971 42.821C10.8549 43.5782 11.7545 44.1786 12.7445 44.5879C13.7344 44.9973 14.7954 45.2075 15.8667 45.2067H22.2933V47.2933H15.8667C14.7954 47.2925 13.7344 47.5027 12.7445 47.9121C11.7545 48.3214 10.8549 48.9218 10.0971 49.679C9.33926 50.4362 8.7381 51.3353 8.32794 52.325C7.91778 53.3146 7.70666 54.3754 7.70667 55.4467V71.2533C7.70667 71.5292 7.81624 71.7937 8.01127 71.9887C8.20631 72.1838 8.47084 72.2933 8.74666 72.2933H46.2533C46.5292 72.2933 46.7937 72.1838 46.9887 71.9887C47.1838 71.7937 47.2933 71.5292 47.2933 71.2533V55.4467C47.2933 54.3754 47.0822 53.3146 46.6721 52.325C46.2619 51.3353 45.6607 50.4362 44.9029 49.679C44.1451 48.9218 43.2455 48.3214 42.2555 47.9121C41.2655 47.5027 40.2046 47.2925 39.1333 47.2933H32.7067V45.2067H39.1333ZM42.8467 21.7133C44.3881 23.9151 45.2123 26.539 45.2067 29.2267V37.0533C45.2075 37.8506 45.0513 38.6402 44.7468 39.377C44.4423 40.1138 43.9956 40.7834 43.4321 41.3474C42.8687 41.9115 42.1996 42.3589 41.4632 42.6642C40.7267 42.9695 39.9372 43.1267 39.14 43.1267H35.1067C36.6176 42.073 37.8516 40.6699 38.7035 39.0367C39.5555 37.4035 40.0003 35.5887 40 33.7467V26.46H41.04C41.2804 26.4614 41.5138 26.379 41.7 26.2269C41.8862 26.0748 42.0135 25.8625 42.06 25.6267L42.8467 21.7133ZM14.8467 24.38L14.4267 22.3H40.6067L40.1867 24.38H14.8467ZM27.5133 9.88L41.9333 15.6467L41.02 20.2067H14L13.0667 15.6467L27.5133 9.88ZM15.8667 43.1267C15.0672 43.1251 14.2759 42.9659 13.5381 42.6582C12.8002 42.3505 12.1303 41.9003 11.5667 41.3333C11.0006 40.7715 10.5521 40.1024 10.2477 39.3652C9.94318 38.6281 9.78872 37.8376 9.79333 37.04V29.2267C9.78767 26.5369 10.6118 23.9109 12.1533 21.7067L12.94 25.6267C12.9865 25.8625 13.1138 26.0748 13.3 26.2269C13.4862 26.379 13.7196 26.4614 13.96 26.46H15V33.7467C15.0025 35.5882 15.4485 37.402 16.3002 39.0347C17.152 40.6674 18.3844 42.071 19.8933 43.1267H15.8667ZM9.79333 70.2067V55.4467C9.79246 54.6494 9.94873 53.8598 10.2532 53.123C10.5577 52.3862 11.0044 51.7166 11.5679 51.1526C12.1313 50.5885 12.8004 50.1411 13.5368 49.8358C14.2733 49.5305 15.0628 49.3733 15.86 49.3733H20.82L16.3467 53.8467C16.2497 53.9433 16.1728 54.0581 16.1203 54.1845C16.0678 54.3109 16.0408 54.4465 16.0408 54.5833C16.0408 54.7202 16.0678 54.8557 16.1203 54.9822C16.1728 55.1086 16.2497 55.2234 16.3467 55.32L20.06 59.0333L19.2267 61.5467C19.1722 61.709 19.1589 61.8823 19.188 62.051C19.2171 62.2198 19.2876 62.3786 19.3933 62.5133L25.3933 70.2067H9.79333ZM21.3733 61.6733L22.24 59.08C22.3041 58.8954 22.3156 58.6967 22.2732 58.506C22.2308 58.3152 22.1362 58.14 22 58L18.5667 54.5733L22.6667 50.4733L25.7133 67.26L21.3733 61.6733ZM24.5867 49.3733H30.42L27.5 65.4267L24.5867 49.3733ZM24.3733 47.2933V45.0067C25.0609 45.1399 25.7596 45.2069 26.46 45.2067H28.54C29.2404 45.2069 29.9391 45.1399 30.6267 45.0067V47.2933H24.3733ZM39.1333 49.3733C39.9318 49.3731 40.7226 49.5302 41.4604 49.8356C42.1982 50.141 42.8686 50.5888 43.4333 51.1533C43.9994 51.7152 44.4478 52.3842 44.7523 53.1214C45.0568 53.8586 45.2113 54.6491 45.2067 55.4467V70.2067H29.6333L35.6333 62.5133C35.739 62.3786 35.8096 62.2198 35.8387 62.051C35.8678 61.8823 35.8545 61.709 35.8 61.5467L34.96 59.0333L38.6667 55.3333C38.7636 55.2367 38.8406 55.1219 38.893 54.9955C38.9455 54.8691 38.9726 54.7335 38.9726 54.5967C38.9726 54.4598 38.9455 54.3243 38.893 54.1978C38.8406 54.0714 38.7636 53.9566 38.6667 53.86L34.1933 49.3867L39.1333 49.3733ZM36.4667 54.5867L33.0133 58C32.8773 58.1374 32.7816 58.3096 32.737 58.4978C32.6923 58.6859 32.7002 58.8827 32.76 59.0667L33.6267 61.66L29.2867 67.2467L32.3333 50.4733L36.4667 54.5867ZM28.54 43.1267H26.46C23.9728 43.1249 21.588 42.1361 19.8293 40.3774C18.0706 38.6187 17.0818 36.2339 17.08 33.7467V26.46H37.92V33.7467C37.9182 36.2339 36.9294 38.6187 35.1707 40.3774C33.412 42.1361 31.0272 43.1249 28.54 43.1267Z" fill="#1E2A3A"/>
<path d="M40.6066 22.2934L40.1866 24.3734H14.8133L14.3933 22.2934H40.6066Z" fill="#FE444A"/>
<path d="M24.3733 16.04H26.46V18.1267H28.54V16.04H30.6266V13.96H28.54V11.8734H26.46V13.96H24.3733V16.04Z" fill="#1E2A3A"/>
<path d="M71.7934 25.26C71.4642 24.0864 70.9728 22.9644 70.3334 21.9267L63.8067 11.3333C63.6404 11.0984 63.3876 10.939 63.1038 10.8903C62.8201 10.8415 62.5286 10.9074 62.2934 11.0733C62.1939 11.1461 62.1062 11.2338 62.0334 11.3333L55.5 21.9533C54.2189 24.0293 53.5403 26.4206 53.54 28.86C53.54 30.0506 53.7746 31.2296 54.2302 32.3297C54.6858 33.4297 55.3537 34.4292 56.1956 35.2711C57.8959 36.9714 60.2021 37.9267 62.6067 37.9267H63.2267C64.4174 37.9267 65.5964 37.6922 66.6964 37.2365C67.7964 36.7809 68.7959 36.113 69.6378 35.2711C70.4797 34.4292 71.1476 33.4297 71.6032 32.3297C72.0589 31.2296 72.2934 30.0506 72.2934 28.86C72.2918 27.6428 72.1236 26.4316 71.7934 25.26ZM63.2267 35.8333H62.6067C60.7555 35.8333 58.9801 35.0979 57.6711 33.7889C56.3621 32.4799 55.6267 30.7045 55.6267 28.8533C55.6256 26.7982 56.1957 24.7832 57.2734 23.0333L62.92 13.86L68.56 23.0333C69.6377 24.7832 70.2078 26.7982 70.2067 28.8533C70.2067 30.7045 69.4713 32.4799 68.1623 33.7889C66.8533 35.0979 65.0779 35.8333 63.2267 35.8333Z" fill="#1E2A3A"/>
<path d="M68.56 23.0333L62.92 13.86L57.2734 23.0333C56.1957 24.7832 55.6256 26.7982 55.6267 28.8533C55.6267 30.7045 56.3621 32.4799 57.6711 33.7889C58.9801 35.0979 60.7555 35.8333 62.6067 35.8333H63.2267C65.0779 35.8333 66.8533 35.0979 68.1623 33.7889C69.4713 32.4799 70.2067 30.7045 70.2067 28.8533C70.2078 26.7982 69.6377 24.7832 68.56 23.0333ZM62.92 33.7466V31.6667C63.7481 31.6649 64.5417 31.3347 65.1266 30.7485C65.7115 30.1623 66.04 29.3681 66.04 28.54H68.1267C68.1267 29.9209 67.5781 31.2452 66.6017 32.2217C65.6253 33.1981 64.3009 33.7466 62.92 33.7466Z" fill="#FE444A"/>
<path d="M68.1267 28.54C68.1267 29.9209 67.5782 31.2453 66.6017 32.2217C65.6253 33.1981 64.3009 33.7467 62.92 33.7467V31.6667C63.7481 31.6649 64.5417 31.3347 65.1266 30.7486C65.7115 30.1624 66.04 29.3681 66.04 28.54H68.1267Z" fill="#1E2A3A"/>
<path d="M71.7934 56.5133C71.4636 55.3399 70.9722 54.2181 70.3334 53.18L63.8067 42.58C63.6403 42.3454 63.3881 42.1859 63.1048 42.136C62.8215 42.0861 62.53 42.1498 62.2934 42.3133C62.1937 42.3885 62.106 42.4785 62.0334 42.58L55.5 53.1933C54.2196 55.272 53.5411 57.6653 53.54 60.1067C53.5418 62.5101 54.4978 64.8146 56.198 66.5135C57.8981 68.2123 60.2032 69.1667 62.6067 69.1667H63.2267C65.6302 69.1667 67.9353 68.2123 69.6355 66.5135C71.3356 64.8146 72.2916 62.5101 72.2934 60.1067C72.2912 58.8917 72.123 57.6827 71.7934 56.5133ZM68.6667 64.46C68.0148 65.2804 67.1854 65.9424 66.2409 66.3962C65.2964 66.85 64.2613 67.0838 63.2134 67.08H62.5934C60.7451 67.0782 58.9731 66.3428 57.6668 65.0352C56.3605 63.7276 55.6267 61.955 55.6267 60.1067C55.6249 58.0514 56.195 56.0363 57.2734 54.2867L62.92 45.1133L68.56 54.2867C69.6394 56.0358 70.2096 58.0513 70.2067 60.1067C70.2021 61.6905 69.6591 63.2256 68.6667 64.46Z" fill="#1E2A3A"/>
<path d="M68.56 54.2866L62.92 45.1133L57.2734 54.2866C56.195 56.0362 55.6249 58.0514 55.6267 60.1066C55.6267 61.023 55.8073 61.9303 56.1582 62.7768C56.509 63.6232 57.0233 64.3923 57.6715 65.0399C58.3197 65.6875 59.0893 66.201 59.9361 66.5511C60.7829 66.9011 61.6904 67.0809 62.6067 67.08H63.2267C64.143 67.0809 65.0505 66.9011 65.8973 66.5511C66.7442 66.201 67.5137 65.6875 68.1619 65.0399C68.8102 64.3923 69.3244 63.6232 69.6753 62.7768C70.0261 61.9303 70.2067 61.023 70.2067 60.1066C70.2096 58.0513 69.6394 56.0358 68.56 54.2866ZM62.92 65V62.92C63.7481 62.9182 64.5417 62.588 65.1266 62.0018C65.7115 61.4157 66.04 60.6214 66.04 59.7933H68.1267C68.1232 61.1731 67.5735 62.4954 66.5978 63.4711C65.6222 64.4468 64.2999 64.9965 62.92 65Z" fill="#FE444A"/>
<path d="M68.1267 59.7934C68.1232 61.1732 67.5735 62.4955 66.5978 63.4711C65.6221 64.4468 64.2999 64.9965 62.92 65V62.92C63.7481 62.9182 64.5417 62.5881 65.1266 62.0019C65.7115 61.4157 66.04 60.6214 66.04 59.7934H68.1267Z" fill="#1E2A3A"/>
</svg>
