<svg width="80" height="80" viewBox="0 0 80 80" fill="none" xmlns="http://www.w3.org/2000/svg">
<path d="M50.7338 26H29.2662C26.9049 26 25 27.9428 25 30.3249V61.6751C25 64.0688 26.9163 66 29.2662 66H50.7338C53.0951 66 55 64.0572 55 61.6751V30.3365C55 27.9428 53.0836 26.0116 50.7338 26.0116V26ZM50.8935 58.9691C50.8935 60.5533 49.6274 61.8485 48.0532 61.8485H31.9468C30.384 61.8485 29.1065 60.5649 29.1065 58.9691V33.0425C29.1065 31.4582 30.3726 30.1631 31.9468 30.1631H48.0532C49.616 30.1631 50.8935 31.4467 50.8935 33.0425V58.9575V58.9691Z" fill="#E30513"/>
<path d="M45.5221 14H34.4779C33.1091 14 32 15.0994 32 16.4561V21.5439C32 22.9006 33.1091 24 34.4779 24H45.5221C46.8909 24 48 22.9006 48 21.5439V16.4561C48 15.0994 46.8909 14 45.5221 14ZM44.0472 18.4444H35.9528C35.233 18.4444 34.6549 17.8713 34.6549 17.1579C34.6549 16.4444 35.233 15.8713 35.9528 15.8713H44.0472C44.767 15.8713 45.3451 16.4444 45.3451 17.1579C45.3451 17.8713 44.767 18.4444 44.0472 18.4444Z" fill="#E30513"/>
<path d="M46.5668 33H33.4332C32.6382 33 32 33.6558 32 34.4726V39.4425H39.6809C40.3639 39.4425 40.9125 40.0062 40.9125 40.708C40.9125 41.4097 40.3639 41.9735 39.6809 41.9735H32V44.7345H39.6809C40.3639 44.7345 40.9125 45.2982 40.9125 46C40.9125 46.7018 40.3639 47.2655 39.6809 47.2655H32V50.0265H39.6809C40.3639 50.0265 40.9125 50.5903 40.9125 51.292C40.9125 51.9938 40.3639 52.5575 39.6809 52.5575H32V57.5274C32 58.3442 32.6382 59 33.4332 59H46.5668C47.3618 59 48 58.3442 48 57.5274V34.4841C48 33.6673 47.3618 33.0115 46.5668 33.0115V33Z" fill="#E30513"/>
</svg>
