<svg width="80" height="80" viewBox="0 0 80 80" fill="none" xmlns="http://www.w3.org/2000/svg">
<path d="M32.7067 50.4133H30.6267V48.3333C30.6267 48.0575 30.5171 47.793 30.3221 47.5979C30.1271 47.4029 29.8625 47.2933 29.5867 47.2933H25.4134C25.1376 47.2933 24.873 47.4029 24.678 47.5979C24.483 47.793 24.3734 48.0575 24.3734 48.3333V50.4133H22.2934C22.1562 50.4133 22.0205 50.4404 21.8938 50.4931C21.7672 50.5458 21.6523 50.623 21.5556 50.7203C21.459 50.8176 21.3825 50.933 21.3306 51.0599C21.2788 51.1869 21.2525 51.3229 21.2534 51.46V55.6267C21.2534 55.9025 21.363 56.167 21.558 56.362C21.753 56.5571 22.0176 56.6667 22.2934 56.6667H24.3734V58.7467C24.3725 58.8838 24.3988 59.0197 24.4506 59.1467C24.5025 59.2736 24.579 59.3891 24.6756 59.4864C24.7723 59.5836 24.8872 59.6608 25.0138 59.7135C25.1405 59.7662 25.2762 59.7933 25.4134 59.7933H29.5867C29.7239 59.7933 29.8596 59.7662 29.9862 59.7135C30.1129 59.6608 30.2278 59.5836 30.3245 59.4864C30.4211 59.3891 30.4976 59.2736 30.5495 59.1467C30.6013 59.0197 30.6276 58.8838 30.6267 58.7467V56.6667H32.7067C32.9825 56.6667 33.2471 56.5571 33.4421 56.362C33.6371 56.167 33.7467 55.9025 33.7467 55.6267V51.46C33.7476 51.3229 33.7213 51.1869 33.6695 51.0599C33.6176 50.933 33.5411 50.8176 33.4445 50.7203C33.3478 50.623 33.2329 50.5458 33.1062 50.4931C32.9796 50.4404 32.8439 50.4133 32.7067 50.4133ZM31.6667 54.5866H29.5867C29.4496 54.5858 29.3136 54.612 29.1867 54.6639C29.0597 54.7158 28.9443 54.7922 28.847 54.8889C28.7497 54.9856 28.6725 55.1005 28.6198 55.2271C28.5672 55.3537 28.54 55.4895 28.54 55.6267V57.7066H26.46V55.6267C26.46 55.4895 26.4329 55.3537 26.3802 55.2271C26.3276 55.1005 26.2504 54.9856 26.1531 54.8889C26.0558 54.7922 25.9404 54.7158 25.8134 54.6639C25.6865 54.612 25.5505 54.5858 25.4134 54.5866H23.3334V52.5H25.4134C25.5505 52.5009 25.6865 52.4746 25.8134 52.4227C25.9404 52.3709 26.0558 52.2944 26.1531 52.1977C26.2504 52.1011 26.3276 51.9861 26.3802 51.8595C26.4329 51.7329 26.46 51.5971 26.46 51.46V49.3733H28.54V51.46C28.54 51.5971 28.5672 51.7329 28.6198 51.8595C28.6725 51.9861 28.7497 52.1011 28.847 52.1977C28.9443 52.2944 29.0597 52.3709 29.1867 52.4227C29.3136 52.4746 29.4496 52.5009 29.5867 52.5H31.6667V54.5866Z" fill="#1E2A3A"/>
<path d="M66.04 7.70665H36.8734C36.0441 7.70665 35.2488 8.03607 34.6625 8.62243C34.0761 9.20879 33.7467 10.0041 33.7467 10.8333V22.2933H13.96C13.8234 22.2933 13.6882 22.3202 13.562 22.3725C13.4358 22.4247 13.3212 22.5014 13.2246 22.5979C13.1281 22.6945 13.0514 22.8091 12.9992 22.9353C12.9469 23.0615 12.92 23.1967 12.92 23.3333V31.6666C12.92 31.8032 12.9469 31.9385 12.9992 32.0646C13.0514 32.1908 13.1281 32.3055 13.2246 32.402C13.3212 32.4986 13.4358 32.5752 13.562 32.6275C13.6882 32.6798 13.8234 32.7066 13.96 32.7066H14.9334C14.7534 34.0078 14.1515 35.2139 13.22 36.14C12.4606 36.8956 11.8587 37.7944 11.449 38.7842C11.0393 39.7741 10.8301 40.8354 10.8334 41.9067V69.1667C10.8334 69.9959 11.1628 70.7912 11.7491 71.3775C12.3355 71.9639 13.1308 72.2933 13.96 72.2933H41.04C41.8693 72.2933 42.6645 71.9639 43.2509 71.3775C43.8373 70.7912 44.1667 69.9959 44.1667 69.1667V63.96H66.04C66.8693 63.96 67.6645 63.6306 68.2509 63.0442C68.8373 62.4578 69.1667 61.6626 69.1667 60.8333V10.8333C69.1667 10.0041 68.8373 9.20879 68.2509 8.62243C67.6645 8.03607 66.8693 7.70665 66.04 7.70665ZM15 24.3733H40V30.6266H15V24.3733ZM42.08 69.1667C42.08 69.4425 41.9704 69.707 41.7754 69.902C41.5804 70.0971 41.3158 70.2066 41.04 70.2066H13.96C13.6842 70.2066 13.4197 70.0971 13.2246 69.902C13.0296 69.707 12.92 69.4425 12.92 69.1667V63.96H42.08V69.1667ZM42.08 61.8733H12.92V45.2066H42.08V61.8733ZM42.08 43.1267H12.92V41.9067C12.9119 41.111 13.0622 40.3216 13.362 39.5845C13.6619 38.8474 14.1054 38.1774 14.6667 37.6133C15.99 36.2971 16.8168 34.5634 17.0067 32.7066H38C38.1899 34.5634 39.0167 36.2971 40.34 37.6133C40.9061 38.1752 41.3545 38.8442 41.659 39.5814C41.9635 40.3186 42.118 41.1091 42.1133 41.9067L42.08 43.1267ZM43.6334 39.0066C44.3121 39.1214 44.9338 39.4578 45.401 39.9634C45.8683 40.4689 46.1548 41.1151 46.2157 41.8008C46.2767 42.4865 46.1086 43.1731 45.7379 43.7531C45.3671 44.3332 44.8146 44.774 44.1667 45.0067V41.9067C44.1672 40.9156 43.9865 39.9327 43.6334 39.0066ZM44.1667 51.6733C44.7754 51.8857 45.303 52.2821 45.6763 52.8077C46.0496 53.3333 46.2502 53.962 46.2502 54.6067C46.2502 55.2513 46.0496 55.88 45.6763 56.4056C45.303 56.9312 44.7754 57.3277 44.1667 57.54V51.6733ZM50.4134 61.9H44.1667V59.6867C45.3446 59.4484 46.4038 58.8101 47.1646 57.8799C47.9255 56.9498 48.3412 55.785 48.3412 54.5833C48.3412 53.3816 47.9255 52.2169 47.1646 51.2867C46.4038 50.3565 45.3446 49.7182 44.1667 49.48V47.1866C45.4366 46.9342 46.5668 46.2177 47.3369 45.1769C48.107 44.1361 48.4617 42.8457 48.3318 41.5575C48.2019 40.2693 47.5967 39.0758 46.6343 38.2097C45.6719 37.3436 44.4214 36.8672 43.1267 36.8733C42.9037 36.8754 42.6811 36.8909 42.46 36.92C42.252 36.6482 42.0295 36.3878 41.7934 36.14C40.8618 35.2139 40.2599 34.0078 40.08 32.7066H41.0534C41.1899 32.7066 41.3252 32.6798 41.4513 32.6275C41.5775 32.5752 41.6922 32.4986 41.7887 32.402C41.8853 32.3055 41.9619 32.1908 42.0142 32.0646C42.0665 31.9385 42.0934 31.8032 42.0934 31.6666V26.6666C42.8605 26.4303 43.6892 26.4987 44.4072 26.8576C45.1252 27.2165 45.6772 27.8384 45.9485 28.5939C46.2198 29.3494 46.1895 30.1803 45.8638 30.914C45.5382 31.6477 44.9423 32.2277 44.2 32.5333C43.8594 32.6528 43.501 32.7137 43.14 32.7133V34.8C44.4914 34.7675 45.7773 34.2114 46.7265 33.249C47.6757 32.2866 48.214 30.9932 48.2278 29.6415C48.2417 28.2899 47.7299 26.9857 46.8006 26.004C45.8713 25.0224 44.5971 24.4401 43.2467 24.38C42.8591 24.38 42.4726 24.4202 42.0934 24.5V23.3333C42.0934 23.1967 42.0665 23.0615 42.0142 22.9353C41.9619 22.8091 41.8853 22.6945 41.7887 22.5979C41.6922 22.5014 41.5775 22.4247 41.4513 22.3725C41.3252 22.3202 41.1899 22.2933 41.0534 22.2933H35.8334V10.8333C35.8334 10.5575 35.9429 10.293 36.138 10.0979C36.333 9.90289 36.5975 9.79332 36.8734 9.79332H50.4134V61.9ZM67.08 60.86C67.08 60.9966 67.0531 61.1318 67.0009 61.258C66.9486 61.3842 66.872 61.4988 66.7754 61.5954C66.6788 61.692 66.5642 61.7686 66.438 61.8208C66.3118 61.8731 66.1766 61.9 66.04 61.9H52.5V9.79332H66.04C66.1766 9.79332 66.3118 9.82022 66.438 9.87248C66.5642 9.92475 66.6788 10.0014 66.7754 10.0979C66.872 10.1945 66.9486 10.3091 67.0009 10.4353C67.0531 10.5615 67.08 10.6967 67.08 10.8333V60.86Z" fill="#1E2A3A"/>
<path d="M31.6667 52.5V54.5867H29.5867C29.4496 54.5858 29.3136 54.612 29.1867 54.6639C29.0597 54.7158 28.9443 54.7922 28.847 54.8889C28.7497 54.9856 28.6725 55.1005 28.6198 55.2271C28.5672 55.3537 28.54 55.4895 28.54 55.6267V57.7066H26.46V55.6267C26.46 55.4895 26.4329 55.3537 26.3802 55.2271C26.3276 55.1005 26.2504 54.9856 26.1531 54.8889C26.0558 54.7922 25.9404 54.7158 25.8134 54.6639C25.6865 54.612 25.5505 54.5858 25.4134 54.5867H23.3334V52.5H25.4134C25.5505 52.5009 25.6865 52.4746 25.8134 52.4227C25.9404 52.3709 26.0558 52.2944 26.1531 52.1977C26.2504 52.1011 26.3276 51.9861 26.3802 51.8595C26.4329 51.7329 26.46 51.5971 26.46 51.46V49.3733H28.54V51.46C28.54 51.5971 28.5672 51.7329 28.6198 51.8595C28.6725 51.9861 28.7497 52.1011 28.847 52.1977C28.9443 52.2944 29.0597 52.3709 29.1867 52.4227C29.3136 52.4746 29.4496 52.5009 29.5867 52.5H31.6667Z" fill="#FE444A"/>
<path d="M43.1267 11.8733C42.095 11.872 41.0861 12.1768 40.2278 12.7491C39.3694 13.3215 38.7002 14.1356 38.3048 15.0885C37.9094 16.0414 37.8056 17.0902 38.0065 18.1021C38.2075 19.114 38.7041 20.0435 39.4336 20.773C40.1631 21.5025 41.0927 21.9992 42.1046 22.2001C43.1165 22.4011 44.1653 22.2973 45.1182 21.9019C46.071 21.5064 46.8852 20.8372 47.4575 19.9789C48.0299 19.1205 48.3347 18.1116 48.3333 17.08C48.3333 15.6991 47.7848 14.3747 46.8083 13.3983C45.8319 12.4219 44.5076 11.8733 43.1267 11.8733ZM43.1267 20.2066C42.5083 20.2066 41.9038 20.0233 41.3896 19.6797C40.8754 19.3361 40.4747 18.8478 40.238 18.2765C40.0014 17.7052 39.9394 17.0765 40.0601 16.47C40.1807 15.8635 40.4785 15.3064 40.9158 14.8691C41.3531 14.4318 41.9102 14.134 42.5167 14.0134C43.1232 13.8927 43.7519 13.9547 44.3232 14.1913C44.8945 14.428 45.3828 14.8287 45.7264 15.3429C46.07 15.8571 46.2533 16.4616 46.2533 17.08C46.2533 17.9092 45.9239 18.7045 45.3376 19.2909C44.7512 19.8772 43.9559 20.2066 43.1267 20.2066Z" fill="#1E2A3A"/>
<path d="M59.7934 11.8733C58.7617 11.872 57.7528 12.1768 56.8945 12.7491C56.0361 13.3215 55.3669 14.1356 54.9715 15.0885C54.5761 16.0414 54.4723 17.0902 54.6732 18.1021C54.8742 19.114 55.3708 20.0435 56.1003 20.773C56.8298 21.5025 57.7594 21.9992 58.7713 22.2001C59.7832 22.4011 60.832 22.2973 61.7848 21.9019C62.7377 21.5064 63.5519 20.8372 64.1242 19.9789C64.6965 19.1205 65.0014 18.1116 65 17.08C65 15.6991 64.4515 14.3747 63.475 13.3983C62.4986 12.4219 61.1743 11.8733 59.7934 11.8733ZM59.7934 20.2066C59.175 20.2066 58.5705 20.0233 58.0563 19.6797C57.5421 19.3361 57.1413 18.8478 56.9047 18.2765C56.668 17.7052 56.6061 17.0765 56.7268 16.47C56.8474 15.8635 57.1452 15.3064 57.5825 14.8691C58.0198 14.4318 58.5769 14.134 59.1834 14.0134C59.7899 13.8927 60.4186 13.9547 60.9899 14.1913C61.5612 14.428 62.0495 14.8287 62.3931 15.3429C62.7367 15.8571 62.92 16.4616 62.92 17.08C62.92 17.9092 62.5906 18.7045 62.0043 19.2909C61.4179 19.8772 60.6226 20.2066 59.7934 20.2066Z" fill="#1E2A3A"/>
<path d="M59.7934 24.3733C58.762 24.372 57.7534 24.6766 56.8952 25.2487C56.037 25.8207 55.3677 26.6345 54.9721 27.587C54.5765 28.5395 54.4723 29.5879 54.6727 30.5996C54.8731 31.6113 55.3691 32.5409 56.098 33.2707C56.8268 34.0004 57.7557 34.4976 58.7672 34.6993C59.7786 34.901 60.8272 34.7982 61.7802 34.4038C62.7332 34.0094 63.5478 33.3412 64.121 32.4837C64.6941 31.6262 65 30.618 65 29.5866C65.0009 28.9023 64.8669 28.2246 64.6056 27.5921C64.3443 26.9596 63.961 26.3849 63.4774 25.9007C62.9938 25.4165 62.4195 25.0324 61.7874 24.7703C61.1553 24.5082 60.4777 24.3733 59.7934 24.3733ZM59.7934 32.7066C59.1747 32.7066 58.5699 32.5231 58.0556 32.1792C57.5413 31.8354 57.1405 31.3467 56.9041 30.775C56.6676 30.2032 56.6061 29.5742 56.7273 28.9675C56.8485 28.3608 57.1469 27.8037 57.5848 27.3667C58.0228 26.9297 58.5805 26.6325 59.1875 26.5126C59.7944 26.3927 60.4233 26.4556 60.9945 26.6932C61.5657 26.9309 62.0536 27.3327 62.3963 27.8477C62.7391 28.3628 62.9214 28.968 62.92 29.5866C62.9183 30.4147 62.5881 31.2083 62.0019 31.7932C61.4157 32.3781 60.6215 32.7066 59.7934 32.7066Z" fill="#1E2A3A"/>
<path d="M59.7934 36.8733C58.7617 36.872 57.7528 37.1768 56.8945 37.7491C56.0361 38.3215 55.3669 39.1356 54.9715 40.0885C54.5761 41.0414 54.4723 42.0902 54.6732 43.1021C54.8742 44.114 55.3708 45.0435 56.1003 45.773C56.8298 46.5025 57.7594 46.9992 58.7713 47.2001C59.7832 47.4011 60.832 47.2973 61.7848 46.9019C62.7377 46.5064 63.5519 45.8372 64.1242 44.9789C64.6965 44.1205 65.0014 43.1116 65 42.08C65 40.6991 64.4515 39.3747 63.475 38.3983C62.4986 37.4219 61.1743 36.8733 59.7934 36.8733ZM59.7934 45.2066C59.175 45.2066 58.5705 45.0233 58.0563 44.6797C57.5421 44.3361 57.1413 43.8478 56.9047 43.2765C56.668 42.7052 56.6061 42.0765 56.7268 41.47C56.8474 40.8635 57.1452 40.3064 57.5825 39.8691C58.0198 39.4318 58.5769 39.134 59.1834 39.0134C59.7899 38.8927 60.4186 38.9547 60.9899 39.1913C61.5612 39.428 62.0495 39.8287 62.3931 40.3429C62.7367 40.8571 62.92 41.4616 62.92 42.08C62.92 42.9092 62.5906 43.7045 62.0043 44.2909C61.4179 44.8772 60.6226 45.2066 59.7934 45.2066Z" fill="#1E2A3A"/>
<path d="M59.7934 49.3733C58.762 49.372 57.7534 49.6766 56.8952 50.2487C56.037 50.8207 55.3677 51.6345 54.9721 52.587C54.5765 53.5395 54.4723 54.5879 54.6727 55.5996C54.8731 56.6113 55.3691 57.5409 56.098 58.2707C56.8268 59.0004 57.7557 59.4976 58.7672 59.6993C59.7786 59.901 60.8272 59.7982 61.7802 59.4038C62.7332 59.0094 63.5478 58.3412 64.121 57.4837C64.6941 56.6262 65 55.618 65 54.5866C65.0009 53.9023 64.8669 53.2246 64.6056 52.5921C64.3443 51.9596 63.961 51.3849 63.4774 50.9007C62.9938 50.4165 62.4195 50.0324 61.7874 49.7703C61.1553 49.5082 60.4777 49.3733 59.7934 49.3733ZM59.7934 57.7066C59.1747 57.7066 58.5699 57.5231 58.0556 57.1792C57.5413 56.8354 57.1405 56.3467 56.9041 55.775C56.6676 55.2032 56.6061 54.5742 56.7273 53.9675C56.8485 53.3608 57.1469 52.8037 57.5848 52.3667C58.0228 51.9297 58.5805 51.6325 59.1875 51.5126C59.7944 51.3927 60.4233 51.4556 60.9945 51.6932C61.5657 51.9309 62.0536 52.3327 62.3963 52.8478C62.7391 53.3628 62.9214 53.968 62.92 54.5866C62.9183 55.4147 62.5881 56.2083 62.0019 56.7932C61.4157 57.3781 60.6215 57.7066 59.7934 57.7066Z" fill="#1E2A3A"/>
</svg>
