<?xml version="1.0" encoding="UTF-8"?><svg id="Layer_1" xmlns="http://www.w3.org/2000/svg" viewBox="0 0 79.2 79.2"><defs><style>.cls-1{fill:#e30513;}</style></defs><path class="cls-1" d="M61.5,34.12h-17.17c-1.89,0-3.42,1.53-3.42,3.42v24.74c0,1.89,1.53,3.42,3.42,3.42h17.17c1.89,0,3.42-1.53,3.42-3.42v-24.74c0-1.89-1.53-3.42-3.42-3.42Zm.13,26.01c0,1.25-1.02,2.27-2.27,2.27h-12.88c-1.25,0-2.27-1.02-2.27-2.27v-20.45c0-1.25,1.02-2.27,2.27-2.27h12.88c1.25,0,2.27,1.02,2.27,2.27v20.45Z"/><path class="cls-1" d="M57.18,24.36h-8.54c-1.06,0-1.91,.86-1.91,1.91v3.97c0,1.06,.86,1.91,1.91,1.91h8.54c1.06,0,1.91-.86,1.91-1.91v-3.97c0-1.06-.86-1.91-1.91-1.91Zm-1.14,3.46h-6.26c-.55,0-1-.45-1-1s.45-1,1-1h6.26c.55,0,1,.45,1,1s-.45,1-1,1Z"/><path class="cls-1" d="M58.26,39.6h-10.7c-.65,0-1.17,.52-1.17,1.17v3.94h6.26c.55,0,1,.45,1,1s-.45,1-1,1h-6.26v2.19h6.26c.55,0,1,.45,1,1s-.45,1-1,1h-6.26v2.19h6.26c.55,0,1,.45,1,1s-.45,1-1,1h-6.26v3.94c0,.65,.52,1.17,1.17,1.17h10.7c.65,0,1.17-.52,1.17-1.17v-18.27c0-.65-.52-1.17-1.17-1.17Z"/><path class="cls-1" d="M35.34,38.76c.11,0,.22-.02,.32-.06,.1-.04,.2-.1,.27-.18,.08-.08,.14-.17,.18-.27s.06-.21,.06-.32v-5.06c0-1.18-.23-2.35-.68-3.44-.45-1.09-1.11-2.08-1.95-2.91l-1.97-1.97c-1.16-1.16-1.9-2.68-2.08-4.31h.79c.22,0,.44-.09,.59-.25,.16-.16,.25-.37,.25-.59v-5.06c0-.22-.09-.44-.25-.59-.16-.16-.37-.25-.59-.25h-10.11c-.22,0-.44,.09-.59,.25-.16,.16-.25,.37-.25,.59v5.06c0,.22,.09,.44,.25,.59s.37,.25,.59,.25h.81c-.18,1.63-.92,3.15-2.08,4.31l-1.97,1.97c-.84,.83-1.51,1.82-1.96,2.91-.46,1.09-.69,2.26-.69,3.44v5.06c0,.22,.09,.44,.25,.59,.16,.16,.37,.25,.59,.25h.85v15.3h-.85c-.22,0-.44,.09-.59,.25-.16,.16-.25,.37-.25,.59v8.28c0,.67,.27,1.31,.74,1.79,.23,.23,.51,.42,.82,.55,.31,.13,.64,.19,.97,.19h16.84c.67,0,1.31-.27,1.79-.74,.47-.47,.74-1.12,.74-1.79v-8.28c0-.11-.02-.22-.06-.32-.04-.1-.11-.2-.18-.27-.08-.08-.17-.14-.27-.18-.1-.04-.21-.06-.32-.06h-.84v-15.3h.84ZM21.02,15.61c0-.24,.19-.43,.43-.43h7.57c.24,0,.43,.19,.43,.43v2.51c0,.24-.19,.43-.43,.43h-7.57c-.24,0-.43-.19-.43-.43v-2.51Zm9.88,38.45h-11.33c-.56,0-1.02-.46-1.02-1.02v-13.26c0-.56,.46-1.02,1.02-1.02h11.33c.56,0,1.02,.46,1.02,1.02v13.26c0,.56-.46,1.02-1.02,1.02Z"/><rect class="cls-1" x="20.99" y="41.11" width="8.52" height="10.6" rx="1.13" ry="1.13"/></svg>