<svg width="80" height="80" viewBox="0 0 80 80" fill="none" xmlns="http://www.w3.org/2000/svg">
<path d="M71.2533 16.04H68.1267V15C68.1267 14.1707 67.7973 13.3755 67.2109 12.7891C66.6245 12.2027 65.8292 11.8733 65 11.8733H58.7467C57.9186 11.8751 57.125 12.2053 56.5401 12.7914C55.9552 13.3776 55.6267 14.1719 55.6267 15V16.04H51.46V12.92C51.4582 11.539 50.9093 10.215 49.9335 9.2379C48.9576 8.26078 47.6343 7.71018 46.2533 7.70665H33.7467C32.3657 7.71018 31.0424 8.26078 30.0665 9.2379C29.0907 10.215 28.5418 11.539 28.54 12.92V16.04H24.3733V15C24.3733 14.1719 24.0448 13.3776 23.4599 12.7914C22.875 12.2053 22.0814 11.8751 21.2533 11.8733H15C14.1708 11.8733 13.3755 12.2027 12.7891 12.7891C12.2027 13.3755 11.8733 14.1707 11.8733 15V16.04H8.74666C8.47084 16.04 8.20631 16.1496 8.01127 16.3446C7.81624 16.5396 7.70667 16.8042 7.70667 17.08V54.5866C7.70667 54.8625 7.81624 55.127 8.01127 55.322C8.20631 55.5171 8.47084 55.6267 8.74666 55.6267H51.76L51.3333 56.2933C50.0532 58.3697 49.3746 60.7607 49.3733 63.2C49.3733 65.6046 50.3286 67.9108 52.0289 69.6111C53.7292 71.3114 56.0354 72.2666 58.44 72.2666H59.06C61.4646 72.2666 63.7708 71.3114 65.4711 69.6111C67.1714 67.9108 68.1267 65.6046 68.1267 63.2C68.1284 61.9869 67.9601 60.7796 67.6267 59.6133C67.294 58.4409 66.8028 57.3195 66.1667 56.28L65.74 55.6133H71.2533C71.5292 55.6133 71.7937 55.5037 71.9887 55.3087C72.1838 55.1137 72.2933 54.8491 72.2933 54.5733V17.08C72.2933 16.8042 72.1838 16.5396 71.9887 16.3446C71.7937 16.1496 71.5292 16.04 71.2533 16.04ZM57.7067 15C57.7067 14.7242 57.8162 14.4596 58.0113 14.2646C58.2063 14.0696 58.4708 13.96 58.7467 13.96H65C65.2758 13.96 65.5404 14.0696 65.7354 14.2646C65.9304 14.4596 66.04 14.7242 66.04 15V16.04H57.7067V15ZM30.6267 12.92C30.6267 12.0919 30.9552 11.2976 31.5401 10.7114C32.125 10.1253 32.9186 9.79508 33.7467 9.79332H46.2533C47.0814 9.79508 47.875 10.1253 48.4599 10.7114C49.0448 11.2976 49.3733 12.0919 49.3733 12.92V16.04H47.2933V12.92C47.2942 12.7828 47.268 12.6469 47.2161 12.5199C47.1642 12.393 47.0878 12.2776 46.9911 12.1803C46.8944 12.083 46.7795 12.0058 46.6529 11.9531C46.5263 11.9004 46.3905 11.8733 46.2533 11.8733H33.7467C33.6095 11.8733 33.4737 11.9004 33.3471 11.9531C33.2205 12.0058 33.1056 12.083 33.0089 12.1803C32.9122 12.2776 32.8358 12.393 32.7839 12.5199C32.732 12.6469 32.7058 12.7828 32.7067 12.92V16.04H30.6267V12.92ZM45.2067 13.96V16.04H34.7933V13.96H45.2067ZM13.96 15C13.96 14.7242 14.0696 14.4596 14.2646 14.2646C14.4596 14.0696 14.7242 13.96 15 13.96H21.2533C21.3899 13.96 21.5251 13.9869 21.6513 14.0391C21.7775 14.0914 21.8921 14.168 21.9887 14.2646C22.0853 14.3612 22.1619 14.4758 22.2142 14.602C22.2664 14.7282 22.2933 14.8634 22.2933 15V16.04H13.96V15ZM66.04 63.2266C66.0409 64.1435 65.8609 65.0516 65.5105 65.8988C65.16 66.7461 64.6459 67.5159 63.9976 68.1642C63.3492 68.8125 62.5794 69.3266 61.7322 69.6771C60.8849 70.0276 59.9769 70.2075 59.06 70.2066H58.44C57.5231 70.2075 56.6151 70.0276 55.7678 69.6771C54.9206 69.3266 54.1508 68.8125 53.5024 68.1642C52.8541 67.5159 52.34 66.7461 51.9895 65.8988C51.6391 65.0516 51.4591 64.1435 51.46 63.2266C51.458 61.1735 52.0282 59.1604 53.1067 57.4133L58.7467 48.24L64.3933 57.4133C65.4718 59.1604 66.042 61.1735 66.04 63.2266ZM70.2067 53.54H64.46L59.64 45.7066C59.5415 45.5623 59.4093 45.4441 59.2547 45.3625C59.1002 45.2809 58.9281 45.2382 58.7533 45.2382C58.5786 45.2382 58.4065 45.2809 58.2519 45.3625C58.0974 45.4441 57.9652 45.5623 57.8667 45.7066L53.04 53.54H9.79333V18.1266H70.2067V53.54Z" fill="#1E2A3A"/>
<path d="M64.3933 57.4133L58.7466 48.24L53.1066 57.4133C52.0282 59.1604 51.458 61.1735 51.46 63.2266C51.4591 64.1435 51.639 65.0515 51.9895 65.8988C52.34 66.746 52.8541 67.5159 53.5024 68.1642C54.1507 68.8125 54.9205 69.3266 55.7678 69.6771C56.615 70.0276 57.5231 70.2075 58.44 70.2066H59.06C59.9768 70.2075 60.8849 70.0276 61.7321 69.6771C62.5794 69.3266 63.3492 68.8125 63.9975 68.1642C64.6459 67.5159 65.16 66.746 65.5104 65.8988C65.8609 65.0515 66.0408 64.1435 66.04 63.2266C66.042 61.1735 65.4718 59.1604 64.3933 57.4133ZM58.7466 68.1266V66.04C59.5747 66.04 60.369 65.7115 60.9552 65.1265C61.5413 64.5416 61.8715 63.748 61.8733 62.92H63.96C63.9564 64.3009 63.4058 65.6242 62.4287 66.6001C61.4516 67.576 60.1276 68.1249 58.7466 68.1266Z" fill="#FE444A"/>
<path d="M46.2533 32.7067H43.1267V29.5867C43.1267 29.3091 43.0164 29.0428 42.8201 28.8465C42.6238 28.6503 42.3576 28.54 42.08 28.54H37.92C37.6424 28.54 37.3762 28.6503 37.1799 28.8465C36.9836 29.0428 36.8733 29.3091 36.8733 29.5867V32.7067H33.7467C33.4708 32.7067 33.2063 32.8162 33.0113 33.0113C32.8162 33.2063 32.7067 33.4708 32.7067 33.7467V37.92C32.7067 38.1958 32.8162 38.4603 33.0113 38.6554C33.2063 38.8504 33.4708 38.96 33.7467 38.96H36.8733V42.08C36.8733 42.3576 36.9836 42.6238 37.1799 42.8201C37.3762 43.0164 37.6424 43.1267 37.92 43.1267H42.08C42.3576 43.1267 42.6238 43.0164 42.8201 42.8201C43.0164 42.6238 43.1267 42.3576 43.1267 42.08V38.96H46.2533C46.5292 38.96 46.7937 38.8504 46.9887 38.6554C47.1838 38.4603 47.2933 38.1958 47.2933 37.92V33.7467C47.2933 33.4708 47.1838 33.2063 46.9887 33.0113C46.7937 32.8162 46.5292 32.7067 46.2533 32.7067ZM45.2067 36.8733H42.08C41.9429 36.8733 41.8071 36.9004 41.6805 36.9531C41.5538 37.0058 41.4389 37.083 41.3422 37.1803C41.2456 37.2776 41.1691 37.393 41.1172 37.5199C41.0654 37.6469 41.0391 37.7829 41.04 37.92V41.04H38.96V37.92C38.9609 37.7829 38.9346 37.6469 38.8828 37.5199C38.8309 37.393 38.7544 37.2776 38.6578 37.1803C38.5611 37.083 38.4462 37.0058 38.3195 36.9531C38.1929 36.9004 38.0571 36.8733 37.92 36.8733H34.7933V34.7933H37.92C38.0571 34.7933 38.1929 34.7662 38.3195 34.7135C38.4462 34.6608 38.5611 34.5836 38.6578 34.4864C38.7544 34.3891 38.8309 34.2736 38.8828 34.1467C38.9346 34.0197 38.9609 33.8838 38.96 33.7467V30.6267H41.04V33.7467C41.0391 33.8838 41.0654 34.0197 41.1172 34.1467C41.1691 34.2736 41.2456 34.3891 41.3422 34.4864C41.4389 34.5836 41.5538 34.6608 41.6805 34.7135C41.8071 34.7662 41.9429 34.7933 42.08 34.7933H45.2067V36.8733Z" fill="#1E2A3A"/>
<path d="M40 24.3733C37.7335 24.3733 35.5178 25.0454 33.6332 26.3047C31.7486 27.5639 30.2798 29.3537 29.4124 31.4478C28.545 33.5418 28.3181 35.846 28.7602 38.069C29.2024 40.2921 30.2939 42.334 31.8966 43.9368C33.4993 45.5395 35.5413 46.6309 37.7643 47.0731C39.9873 47.5153 42.2916 47.2884 44.3856 46.421C46.4796 45.5536 48.2694 44.0847 49.5287 42.2001C50.7879 40.3156 51.46 38.0999 51.46 35.8333C51.46 32.7939 50.2527 29.879 48.1035 27.7299C45.9543 25.5807 43.0394 24.3733 40 24.3733ZM40 45.2066C38.1462 45.2066 36.3339 44.6569 34.7925 43.627C33.2511 42.597 32.0497 41.1331 31.3402 39.4203C30.6308 37.7076 30.4451 35.8229 30.8068 34.0047C31.1685 32.1864 32.0612 30.5163 33.3721 29.2054C34.683 27.8945 36.3531 27.0018 38.1714 26.6401C39.9896 26.2784 41.8743 26.464 43.5871 27.1735C45.2998 27.8829 46.7637 29.0843 47.7937 30.6258C48.8236 32.1672 49.3734 33.9794 49.3734 35.8333C49.3743 37.0645 49.1324 38.2837 48.6617 39.4214C48.1909 40.559 47.5005 41.5926 46.6299 42.4632C45.7594 43.3338 44.7257 44.0242 43.5881 44.4949C42.4505 44.9657 41.2312 45.2075 40 45.2066Z" fill="#1E2A3A"/>
<path d="M40 26.46C38.1462 26.46 36.3339 27.0097 34.7925 28.0397C33.2511 29.0696 32.0497 30.5335 31.3402 32.2463C30.6308 33.959 30.4451 35.8437 30.8068 37.662C31.1685 39.4802 32.0612 41.1504 33.3721 42.4613C34.683 43.7721 36.3532 44.6649 38.1714 45.0265C39.9896 45.3882 41.8743 45.2026 43.5871 44.4931C45.2998 43.7837 46.7637 42.5823 47.7937 41.0409C48.8236 39.4994 49.3734 37.6872 49.3734 35.8333C49.3699 33.3484 48.3812 30.9663 46.6241 29.2093C44.867 27.4522 42.4849 26.4635 40 26.46ZM46.2534 38.96H43.1267V42.08C43.1267 42.3576 43.0164 42.6238 42.8202 42.8201C42.6239 43.0164 42.3576 43.1266 42.08 43.1266H37.92C37.6425 43.1266 37.3762 43.0164 37.1799 42.8201C36.9837 42.6238 36.8734 42.3576 36.8734 42.08V38.96H33.7467C33.4709 38.96 33.2064 38.8504 33.0113 38.6554C32.8163 38.4603 32.7067 38.1958 32.7067 37.92V33.7466C32.7067 33.4708 32.8163 33.2063 33.0113 33.0113C33.2064 32.8162 33.4709 32.7066 33.7467 32.7066H36.8734V29.5866C36.8734 29.3091 36.9837 29.0428 37.1799 28.8465C37.3762 28.6503 37.6425 28.54 37.92 28.54H42.08C42.3576 28.54 42.6239 28.6503 42.8202 28.8465C43.0164 29.0428 43.1267 29.3091 43.1267 29.5866V32.7066H46.2534C46.5292 32.7066 46.7937 32.8162 46.9888 33.0113C47.1838 33.2063 47.2934 33.4708 47.2934 33.7466V37.92C47.2934 38.1958 47.1838 38.4603 46.9888 38.6554C46.7937 38.8504 46.5292 38.96 46.2534 38.96Z" fill="#FE444A"/>
<path d="M63.96 62.92C63.9565 64.301 63.4059 65.6243 62.4288 66.6001C61.4517 67.576 60.1277 68.1249 58.7467 68.1267V66.04C59.5748 66.04 60.3691 65.7115 60.9552 65.1266C61.5414 64.5417 61.8716 63.7481 61.8734 62.92H63.96Z" fill="#1E2A3A"/>
<path d="M44.1666 66.04H40C39.7241 66.04 39.4596 65.9304 39.2646 65.7354C39.0695 65.5403 38.96 65.2758 38.96 65C38.96 64.1707 38.6305 63.3755 38.0442 62.7891C37.4578 62.2027 36.6625 61.8733 35.8333 61.8733H15C14.1707 61.8733 13.3754 62.2027 12.7891 62.7891C12.2027 63.3755 11.8733 64.1707 11.8733 65C11.8733 65.8292 12.2027 66.6245 12.7891 67.2109C13.3754 67.7972 14.1707 68.1267 15 68.1267H19.1666C19.4425 68.1267 19.707 68.2362 19.902 68.4313C20.0971 68.6263 20.2066 68.8908 20.2066 69.1667C20.2066 69.9959 20.536 70.7912 21.1224 71.3775C21.7088 71.9639 22.504 72.2933 23.3333 72.2933H44.1666C44.9959 72.2933 45.7911 71.9639 46.3775 71.3775C46.9639 70.7912 47.2933 69.9959 47.2933 69.1667C47.2933 68.3374 46.9639 67.5421 46.3775 66.9558C45.7911 66.3694 44.9959 66.04 44.1666 66.04ZM44.1666 70.2067H23.3333C23.1967 70.2067 23.0615 70.1798 22.9353 70.1275C22.8091 70.0752 22.6945 69.9986 22.5979 69.902C22.5013 69.8055 22.4247 69.6908 22.3725 69.5646C22.3202 69.4385 22.2933 69.3032 22.2933 69.1667C22.2933 68.3374 21.9639 67.5421 21.3775 66.9558C20.7911 66.3694 19.9959 66.04 19.1666 66.04H15C14.7241 66.04 14.4596 65.9304 14.2646 65.7354C14.0695 65.5403 13.96 65.2758 13.96 65C13.96 64.7242 14.0695 64.4596 14.2646 64.2646C14.4596 64.0696 14.7241 63.96 15 63.96H35.8333C36.1091 63.96 36.3736 64.0696 36.5687 64.2646C36.7637 64.4596 36.8733 64.7242 36.8733 65C36.8733 65.8292 37.2027 66.6245 37.7891 67.2109C38.3754 67.7972 39.1707 68.1267 40 68.1267H44.1666C44.4425 68.1267 44.707 68.2362 44.902 68.4313C45.0971 68.6263 45.2066 68.8908 45.2066 69.1667C45.2066 69.4425 45.0971 69.707 44.902 69.902C44.707 70.0971 44.4425 70.2067 44.1666 70.2067Z" fill="#1E2A3A"/>
<path d="M35.8333 57.7066H19.1666V59.7933H35.8333V57.7066Z" fill="#1E2A3A"/>
<path d="M17.0867 57.7066H15V59.7933H17.0867V57.7066Z" fill="#1E2A3A"/>
</svg>
