<svg width="80" height="80" viewBox="0 0 80 80" fill="none" xmlns="http://www.w3.org/2000/svg">
<path d="M40 55C52.7025 55 63 47.165 63 37.5C63 27.835 52.7025 20 40 20C27.2974 20 17 27.835 17 37.5C17 47.165 27.2974 55 40 55Z" stroke="#E30513" stroke-width="2.9" stroke-miterlimit="10"/>
<path d="M20 36C27.5317 21.3462 52.4683 21.3241 60 35.989C49.3715 25.5472 30.607 25.5362 20 36Z" fill="#E30513"/>
<path d="M64.3834 41C66.6078 46.7328 62.4607 53.3061 57.5871 56.6681C45.2241 65.4397 23.8069 63.5755 16.2953 49.6854C14.9427 46.9052 14.5403 43.6509 15.6134 41.0108C19.6711 50.2565 30.6815 52.3901 40.004 52.6272C49.3265 52.4117 60.3481 50.2673 64.3946 41.0108L64.3834 41Z" fill="#E30513"/>
<path d="M48 43C52.4183 43 56 40.7614 56 38C56 35.2386 52.4183 33 48 33C43.5817 33 40 35.2386 40 38C40 40.7614 43.5817 43 48 43Z" fill="#E30513"/>
<path d="M37.5 39C41.0899 39 44 36.9853 44 34.5C44 32.0147 41.0899 30 37.5 30C33.9102 30 31 32.0147 31 34.5C31 36.9853 33.9102 39 37.5 39Z" fill="#E30513"/>
<path d="M31.5 47C34.5376 47 37 45.433 37 43.5C37 41.567 34.5376 40 31.5 40C28.4624 40 26 41.567 26 43.5C26 45.433 28.4624 47 31.5 47Z" fill="#E30513"/>
</svg>
