<svg width="80" height="80" viewBox="0 0 80 80" fill="none" xmlns="http://www.w3.org/2000/svg">
<path d="M72.2134 33.3333C72.1807 33.2639 72.1428 33.197 72.1 33.1333L59.6 15.44C59.5706 15.3886 59.5371 15.3395 59.5 15.2933C58.0802 13.8687 56.3912 12.7408 54.5314 11.9751C52.6715 11.2094 50.678 10.8213 48.6667 10.8333H48.3334C48.0575 10.8333 47.793 10.9429 47.598 11.1379C47.4029 11.333 47.2934 11.5975 47.2934 11.8733C47.2934 13.8076 46.525 15.6627 45.1572 17.0305C43.7894 18.3982 41.9343 19.1667 40 19.1667C38.0657 19.1667 36.2106 18.3982 34.8429 17.0305C33.4751 15.6627 32.7067 13.8076 32.7067 11.8733C32.7067 11.7367 32.6798 11.6015 32.6275 11.4753C32.5753 11.3491 32.4987 11.2345 32.4021 11.1379C32.3055 11.0414 32.1909 10.9647 32.0647 10.9125C31.9385 10.8602 31.8033 10.8333 31.6667 10.8333H31.3334C29.3215 10.8283 27.3288 11.2235 25.4712 11.9961C23.6136 12.7687 21.9283 13.9031 20.5134 15.3333C20.4762 15.3795 20.4428 15.4286 20.4134 15.48L7.90003 33.1467C7.74114 33.3725 7.67791 33.6519 7.72411 33.9241C7.77031 34.1963 7.9222 34.4392 8.14669 34.6C8.2104 34.6428 8.27726 34.6806 8.34669 34.7133L20.2067 39.6533V68.1267C20.2067 68.2638 20.2338 68.3996 20.2865 68.5262C20.3392 68.6528 20.4164 68.7677 20.5137 68.8644C20.6109 68.9611 20.7264 69.0375 20.8533 69.0894C20.9803 69.1413 21.1162 69.1675 21.2534 69.1666H58.7467C58.8838 69.1675 59.0198 69.1413 59.1467 69.0894C59.2737 69.0375 59.3891 68.9611 59.4864 68.8644C59.5837 68.7677 59.6609 68.6528 59.7136 68.5262C59.7663 68.3996 59.7934 68.2638 59.7934 68.1267V39.6533L71.6534 34.7133C71.7813 34.6602 71.8974 34.5822 71.995 34.4838C72.0925 34.3854 72.1696 34.2687 72.2217 34.1403C72.2738 34.0119 72.2999 33.8745 72.2984 33.736C72.297 33.5975 72.2681 33.4606 72.2134 33.3333ZM20.2134 37.38L10.3534 33.2933L12.0934 30.8267L20.2067 34.4266L20.2134 37.38ZM20.2134 32.1333L13.3334 29.0867L20.2067 19.3333L20.2134 32.1333ZM57.7134 67.0667H22.2934V62.92H57.7067L57.7134 67.0667ZM57.7134 60.82H22.2934V16.48C24.5714 14.3359 27.5416 13.0778 30.6667 12.9333C30.8823 15.2596 31.9588 17.4214 33.6853 18.9953C35.4118 20.5692 37.6638 21.4416 40 21.4416C42.3362 21.4416 44.5882 20.5692 46.3147 18.9953C48.0412 17.4214 49.1178 15.2596 49.3334 12.9333C52.4654 13.0731 55.4435 14.3315 57.7267 16.48L57.7134 60.82ZM59.7934 19.3333L66.6667 29.0867L59.7934 32.1467V19.3333ZM59.7934 37.4V34.4266L67.9067 30.82L69.6467 33.2866L59.7934 37.4Z" fill="#1E2A3A"/>
<path d="M49.5467 38.9067L40.88 25.8867C40.795 25.7679 40.6869 25.6676 40.562 25.5918C40.4372 25.5161 40.2983 25.4664 40.1537 25.4458C40.0092 25.4253 39.8619 25.4342 39.7209 25.4722C39.5799 25.5101 39.4481 25.5763 39.3333 25.6667C39.2472 25.726 39.1727 25.8006 39.1133 25.8867L30.4467 38.9067C29.1995 40.7711 28.5336 42.9636 28.5333 45.2067C28.5305 46.6656 28.8165 48.1107 29.3749 49.4586C29.9333 50.8065 30.7529 52.0305 31.7867 53.06L32.1467 53.4133C33.1769 54.4442 34.4001 55.262 35.7465 55.8199C37.0928 56.3778 38.536 56.665 39.9933 56.665C41.4507 56.665 42.8938 56.3778 44.2402 55.8199C45.5866 55.262 46.8098 54.4442 47.84 53.4133L48.2 53.06C49.2337 52.0305 50.0534 50.8065 50.6118 49.4586C51.1702 48.1107 51.4562 46.6656 51.4533 45.2067C51.455 42.9643 50.7915 40.7718 49.5467 38.9067ZM46.7333 51.5733L46.3733 51.9267C44.683 53.617 42.3905 54.5666 40 54.5666C37.6096 54.5666 35.317 53.617 33.6267 51.9267L33.2667 51.5733C32.4211 50.74 31.7499 49.7467 31.292 48.6514C30.8342 47.556 30.599 46.3805 30.6 45.1933C30.599 43.3612 31.142 41.57 32.16 40.0467L40 28.3333L47.8133 40.06C48.8325 41.5828 49.3755 43.3743 49.3733 45.2067C49.3779 46.392 49.1468 47.5664 48.6936 48.6616C48.2404 49.7569 47.5741 50.7511 46.7333 51.5867V51.5733Z" fill="#1E2A3A"/>
<path d="M47.8134 40.06L40 28.3333L32.1867 40.06C31.1687 41.5833 30.6257 43.3745 30.6267 45.2067C30.6257 46.3938 30.8609 47.5694 31.3187 48.6647C31.7766 49.7601 32.4478 50.7533 33.2934 51.5867L33.6534 51.94C35.3437 53.6303 37.6363 54.5799 40.0267 54.5799C42.4172 54.5799 44.7097 53.6303 46.4 51.94L46.76 51.5867C47.6056 50.7533 48.2769 49.7601 48.7347 48.6647C49.1925 47.5694 49.4278 46.3938 49.4267 45.2067C49.4132 43.3688 48.8514 41.5767 47.8134 40.06ZM47.2934 47.2933C47.2934 47.5692 47.1838 47.8337 46.9888 48.0287C46.7937 48.2238 46.5292 48.3333 46.2534 48.3333H43.1267V51.46C43.1267 51.5971 43.0996 51.7329 43.0469 51.8595C42.9942 51.9862 42.917 52.1011 42.8197 52.1978C42.7225 52.2944 42.607 52.3709 42.4801 52.4228C42.3531 52.4746 42.2172 52.5009 42.08 52.5H37.92C37.7829 52.5009 37.647 52.4746 37.52 52.4228C37.3931 52.3709 37.2776 52.2944 37.1803 52.1978C37.0831 52.1011 37.0059 51.9862 36.9532 51.8595C36.9005 51.7329 36.8734 51.5971 36.8734 51.46V48.3333H33.7467C33.4709 48.3333 33.2064 48.2238 33.0113 48.0287C32.8163 47.8337 32.7067 47.5692 32.7067 47.2933V43.1267C32.7058 42.9895 32.7321 42.8536 32.784 42.7266C32.8358 42.5997 32.9123 42.4842 33.009 42.387C33.1056 42.2897 33.2206 42.2125 33.3472 42.1598C33.4738 42.1071 33.6096 42.08 33.7467 42.08H36.8734V38.96C36.8734 38.8229 36.9005 38.6871 36.9532 38.5605C37.0059 38.4338 37.0831 38.3189 37.1803 38.2222C37.2776 38.1256 37.3931 38.0491 37.52 37.9972C37.647 37.9454 37.7829 37.9191 37.92 37.92H42.08C42.2172 37.9191 42.3531 37.9454 42.4801 37.9972C42.607 38.0491 42.7225 38.1256 42.8197 38.2222C42.917 38.3189 42.9942 38.4338 43.0469 38.5605C43.0996 38.6871 43.1267 38.8229 43.1267 38.96V42.08H46.2534C46.3905 42.08 46.5263 42.1071 46.6529 42.1598C46.7795 42.2125 46.8945 42.2897 46.9911 42.387C47.0878 42.4842 47.1643 42.5997 47.2161 42.7266C47.268 42.8536 47.2943 42.9895 47.2934 43.1267V47.2933Z" fill="#FE444A"/>
<path d="M46.2533 42.08H43.1267V38.96C43.1267 38.8228 43.0996 38.6871 43.0469 38.5605C42.9942 38.4338 42.917 38.3189 42.8197 38.2222C42.7224 38.1256 42.607 38.0491 42.4801 37.9972C42.3531 37.9454 42.2172 37.9191 42.08 37.92H37.92C37.7829 37.9191 37.6469 37.9454 37.52 37.9972C37.393 38.0491 37.2776 38.1256 37.1803 38.2222C37.083 38.3189 37.0058 38.4338 36.9532 38.5605C36.9005 38.6871 36.8733 38.8228 36.8734 38.96V42.08H33.7467C33.6095 42.08 33.4738 42.1071 33.3471 42.1598C33.2205 42.2125 33.1056 42.2897 33.0089 42.387C32.9123 42.4842 32.8358 42.5997 32.7839 42.7266C32.7321 42.8536 32.7058 42.9895 32.7067 43.1267V47.2933C32.7067 47.5691 32.8163 47.8337 33.0113 48.0287C33.2063 48.2238 33.4709 48.3333 33.7467 48.3333H36.8734V51.46C36.8733 51.5971 36.9005 51.7329 36.9532 51.8595C37.0058 51.9861 37.083 52.1011 37.1803 52.1977C37.2776 52.2944 37.393 52.3709 37.52 52.4227C37.6469 52.4746 37.7829 52.5009 37.92 52.5H42.08C42.2172 52.5009 42.3531 52.4746 42.4801 52.4227C42.607 52.3709 42.7224 52.2944 42.8197 52.1977C42.917 52.1011 42.9942 51.9861 43.0469 51.8595C43.0996 51.7329 43.1267 51.5971 43.1267 51.46V48.3333H46.2533C46.5292 48.3333 46.7937 48.2238 46.9887 48.0287C47.1838 47.8337 47.2934 47.5691 47.2934 47.2933V43.1267C47.2942 42.9895 47.268 42.8536 47.2161 42.7266C47.1642 42.5997 47.0878 42.4842 46.9911 42.387C46.8945 42.2897 46.7795 42.2125 46.6529 42.1598C46.5263 42.1071 46.3905 42.08 46.2533 42.08ZM45.2067 46.2533H42.08C41.8042 46.2533 41.5397 46.3629 41.3446 46.5579C41.1496 46.753 41.04 47.0175 41.04 47.2933V50.4133H38.96V47.2933C38.96 47.0175 38.8504 46.753 38.6554 46.5579C38.4604 46.3629 38.1958 46.2533 37.92 46.2533H34.7934V44.1667H37.92C38.1958 44.1667 38.4604 44.0571 38.6554 43.862C38.8504 43.667 38.96 43.4025 38.96 43.1267V40H41.04V43.1267C41.04 43.4025 41.1496 43.667 41.3446 43.862C41.5397 44.0571 41.8042 44.1667 42.08 44.1667H45.2067V46.2533Z" fill="#1E2A3A"/>
</svg>
