<?xml version="1.0" encoding="UTF-8"?><svg id="Layer_1" xmlns="http://www.w3.org/2000/svg" viewBox="0 0 79.2 79.2"><defs><style>.cls-1{stroke-linecap:round;}.cls-1,.cls-2{fill:none;stroke:#e30513;stroke-miterlimit:10;stroke-width:3px;}.cls-3{fill:#fff;}.cls-4{fill:#e30513;}</style></defs><g><rect class="cls-2" x="45.62" y="20.52" width="17.3" height="23.44" rx="2.2" ry="2.2"/><path class="cls-4" d="M62.92,43.49h-17.3V25.59s5.15-1.32,10.14,2.17c4.37,3.06,7.16-2.17,7.16-2.17v17.91Z"/><rect class="cls-4" x="51.91" y="16.26" width="4.71" height="4.71" rx="1.48" ry="1.48"/><g><path class="cls-3" d="M47.26,34.51h4.85c.57,0,1.02,.46,1.02,1.02h0c0,.57-.46,1.02-1.02,1.02h-4.85v-2.05h0Z"/><path class="cls-3" d="M47.26,30.46h4.85c.57,0,1.02,.46,1.02,1.02h0c0,.57-.46,1.02-1.02,1.02h-4.85v-2.05h0Z"/><path class="cls-3" d="M47.26,38.34h4.85c.57,0,1.02,.46,1.02,1.02h0c0,.57-.46,1.02-1.02,1.02h-4.85v-2.05h0Z"/></g></g><path class="cls-1" d="M54.27,43.95v4.11c0,4.88-3.96,8.84-8.84,8.84h0c-4.88,0-8.84-3.96-8.84-8.84v-14.84c0-4.16-3.37-7.53-7.53-7.53h0c-4.16,0-7.53,3.37-7.53,7.53v10.26"/><g><path class="cls-4" d="M25.46,53.43l-3.58-5.67c-.06-.09-.16-.15-.27-.17-.11-.02-.22,0-.31,.07-.04,.03-.07,.06-.1,.1l-3.58,5.67c-.87,1.38-1.33,2.98-1.33,4.61,0,.64,.13,1.28,.37,1.87,.25,.59,.61,1.13,1.06,1.59,.45,.46,.99,.82,1.59,1.06,.59,.25,1.23,.37,1.87,.37h.72c.64,0,1.28-.13,1.87-.37,.59-.25,1.13-.61,1.59-1.06,.45-.46,.82-1,1.06-1.59,.25-.59,.37-1.23,.37-1.87,0-1.63-.46-3.23-1.33-4.61h0Z"/><path class="cls-3" d="M22,60.81c-1.09,0-1.93-.39-2.62-1.09-.7-.69-1.09-1.68-1.09-2.62s1.32-.94,1.49,0c.1,.56,.23,1.16,.65,1.57,.42,.42,.88,.6,1.57,.65,1.06,.08,1.09,1.48,0,1.48Z"/></g></svg>