<svg width="80" height="80" viewBox="0 0 80 80" fill="none" xmlns="http://www.w3.org/2000/svg">
<path d="M55.8927 17.0493C50.5368 13.4026 43.2147 14.7536 39.5356 20.0624L21.0675 46.7375C17.3884 52.0463 18.7515 59.3039 24.1073 62.9507C29.4632 66.5974 36.7853 65.2463 40.4644 59.9376L58.9325 33.2625C62.6116 27.9537 61.2485 20.6961 55.8927 17.0493ZM37.3884 57.8452C34.8794 61.4561 29.8854 62.3887 26.2304 59.9018C24.4571 58.6941 23.275 56.8887 22.8769 54.7963C22.4789 52.7039 22.9372 50.5876 24.1556 48.8419L33.5645 35.2473L46.7974 44.2506L37.3884 57.8452ZM53.3595 35.9407C52.8287 36.706 51.7793 36.8973 51.0073 36.3712C50.2352 35.8451 50.0422 34.8049 50.573 34.0396C51.1038 33.2744 52.1532 33.0831 52.9252 33.6092C53.6973 34.1353 53.8903 35.1755 53.3595 35.9407ZM55.8806 31.5646C55.6514 31.8994 55.2654 32.0788 54.8794 32.0788C54.6381 32.0788 54.409 32.007 54.2039 31.8635C53.649 31.4929 53.5163 30.7396 53.8903 30.2016C55.7117 27.5592 55.0362 23.9363 52.3703 22.1309C51.8637 21.7841 51.3088 21.5211 50.7178 21.3537C50.0784 21.1624 49.7165 20.5048 49.8975 19.8711C50.0905 19.2374 50.7539 18.8787 51.3933 19.058C52.2256 19.2972 53.0097 19.6678 53.7334 20.158C57.497 22.7167 58.45 27.8342 55.8685 31.5527L55.8806 31.5646Z" fill="#E30513"/>
</svg>
