<svg width="80" height="80" viewBox="0 0 80 80" fill="none" xmlns="http://www.w3.org/2000/svg">
<path d="M69.1667 38.96C68.3386 38.96 67.5443 39.2885 66.9581 39.8734C66.372 40.4584 66.0418 41.2519 66.04 42.08V49.3734H61.8733V34.7934H62.92C63.0571 34.7934 63.1929 34.7662 63.3195 34.7136C63.4462 34.6609 63.5611 34.5837 63.6578 34.4864C63.7544 34.3891 63.8309 34.2737 63.8828 34.1467C63.9346 34.0198 63.9609 33.8838 63.96 33.7467V29.5867C63.9609 29.4496 63.9346 29.3136 63.8828 29.1867C63.8309 29.0597 63.7544 28.9443 63.6578 28.847C63.5611 28.7497 63.4462 28.6725 63.3195 28.6198C63.1929 28.5671 63.0571 28.54 62.92 28.54H50.4133C50.2762 28.54 50.1404 28.5671 50.0138 28.6198C49.8872 28.6725 49.7722 28.7497 49.6756 28.847C49.5789 28.9443 49.5024 29.0597 49.4506 29.1867C49.3987 29.3136 49.3725 29.4496 49.3733 29.5867V33.7467C49.3725 33.8838 49.3987 34.0198 49.4506 34.1467C49.5024 34.2737 49.5789 34.3891 49.6756 34.4864C49.7722 34.5837 49.8872 34.6609 50.0138 34.7136C50.1404 34.7662 50.2762 34.7934 50.4133 34.7934H51.46V49.3734H45.2067V34.7934H46.2533C46.3905 34.7934 46.5263 34.7662 46.6529 34.7136C46.7795 34.6609 46.8944 34.5837 46.9911 34.4864C47.0878 34.3891 47.1642 34.2737 47.2161 34.1467C47.268 34.0198 47.2942 33.8838 47.2933 33.7467V29.5867C47.2942 29.4496 47.268 29.3136 47.2161 29.1867C47.1642 29.0597 47.0878 28.9443 46.9911 28.847C46.8944 28.7497 46.7795 28.6725 46.6529 28.6198C46.5263 28.5671 46.3905 28.54 46.2533 28.54H33.7467C33.6095 28.54 33.4737 28.5671 33.3471 28.6198C33.2205 28.6725 33.1056 28.7497 33.0089 28.847C32.9122 28.9443 32.8358 29.0597 32.7839 29.1867C32.732 29.3136 32.7058 29.4496 32.7067 29.5867V33.7467C32.7058 33.8838 32.732 34.0198 32.7839 34.1467C32.8358 34.2737 32.9122 34.3891 33.0089 34.4864C33.1056 34.5837 33.2205 34.6609 33.3471 34.7136C33.4737 34.7662 33.6095 34.7934 33.7467 34.7934H34.7933V49.3734H28.54V34.7934H29.5867C29.7238 34.7934 29.8596 34.7662 29.9862 34.7136C30.1128 34.6609 30.2278 34.5837 30.3244 34.4864C30.4211 34.3891 30.4976 34.2737 30.5494 34.1467C30.6013 34.0198 30.6275 33.8838 30.6267 33.7467V29.5867C30.6275 29.4496 30.6013 29.3136 30.5494 29.1867C30.4976 29.0597 30.4211 28.9443 30.3244 28.847C30.2278 28.7497 30.1128 28.6725 29.9862 28.6198C29.8596 28.5671 29.7238 28.54 29.5867 28.54H17.08C16.9429 28.54 16.8071 28.5671 16.6805 28.6198C16.5538 28.6725 16.4389 28.7497 16.3422 28.847C16.2456 28.9443 16.1691 29.0597 16.1172 29.1867C16.0654 29.3136 16.0391 29.4496 16.04 29.5867V33.7467C16.0391 33.8838 16.0654 34.0198 16.1172 34.1467C16.1691 34.2737 16.2456 34.3891 16.3422 34.4864C16.4389 34.5837 16.5538 34.6609 16.6805 34.7136C16.8071 34.7662 16.9429 34.7934 17.08 34.7934H18.1267V49.3734H13.96V42.08C13.96 41.2508 13.6306 40.4555 13.0442 39.8691C12.4579 39.2828 11.6626 38.9534 10.8333 38.9534C10.0041 38.9534 9.20881 39.2828 8.62244 39.8691C8.03608 40.4555 7.70667 41.2508 7.70667 42.08V71.2534C7.70667 71.5292 7.81624 71.7937 8.01127 71.9888C8.20631 72.1838 8.47084 72.2934 8.74666 72.2934H71.2533C71.5292 72.2934 71.7937 72.1838 71.9887 71.9888C72.1838 71.7937 72.2933 71.5292 72.2933 71.2534V42.08C72.2916 41.2519 71.9614 40.4584 71.3752 39.8734C70.789 39.2885 69.9948 38.96 69.1667 38.96ZM51.46 30.6267H61.8733V32.7067H51.46V30.6267ZM59.7933 34.7934V49.3734H57.7067V37.92C57.7075 37.7829 57.6813 37.6469 57.6294 37.52C57.5776 37.393 57.5011 37.2776 57.4044 37.1803C57.3078 37.083 57.1928 37.0058 57.0662 36.9532C56.9396 36.9005 56.8038 36.8734 56.6667 36.8734H53.54V34.7934H59.7933ZM53.54 38.96H55.6267V41.04H53.54V38.96ZM53.54 43.1267H55.6267V45.2067H53.54V43.1267ZM53.54 47.2934H55.6267V49.3734H53.54V47.2934ZM34.7933 30.6267H45.2067V32.7067H34.7933V30.6267ZM43.1267 34.7934V49.3734H41.04V37.92C41.0409 37.7829 41.0146 37.6469 40.9628 37.52C40.9109 37.393 40.8344 37.2776 40.7378 37.1803C40.6411 37.083 40.5261 37.0058 40.3995 36.9532C40.2729 36.9005 40.1371 36.8734 40 36.8734H36.8733V34.7934H43.1267ZM36.8733 38.96H38.96V41.04H36.8733V38.96ZM36.8733 43.1267H38.96V45.2067H36.8733V43.1267ZM36.8733 47.2934H38.96V49.3734H36.8733V47.2934ZM18.1267 30.6267H28.54V32.7067H18.1267V30.6267ZM26.46 34.7934V49.3734H24.3733V37.92C24.3742 37.7829 24.348 37.6469 24.2961 37.52C24.2442 37.393 24.1677 37.2776 24.0711 37.1803C23.9744 37.083 23.8595 37.0058 23.7329 36.9532C23.6063 36.9005 23.4705 36.8734 23.3333 36.8734H20.2067V34.7934H26.46ZM20.2067 38.96H22.2933V41.04H20.2067V38.96ZM20.2067 43.1267H22.2933V45.2067H20.2067V43.1267ZM20.2067 47.2934H22.2933V49.3734H20.2067V47.2934ZM70.2067 70.2067H9.79333V42.08C9.79333 41.8042 9.9029 41.5397 10.0979 41.3446C10.293 41.1496 10.5575 41.04 10.8333 41.04C11.1092 41.04 11.3737 41.1496 11.5687 41.3446C11.7638 41.5397 11.8733 41.8042 11.8733 42.08V50.4134C11.8733 50.691 11.9836 50.9572 12.1799 51.1535C12.3762 51.3498 12.6424 51.46 12.92 51.46H67.08C67.3576 51.46 67.6238 51.3498 67.8201 51.1535C68.0164 50.9572 68.1267 50.691 68.1267 50.4134V42.08C68.1267 41.8042 68.2362 41.5397 68.4313 41.3446C68.6263 41.1496 68.8908 41.04 69.1667 41.04C69.4425 41.04 69.707 41.1496 69.9021 41.3446C70.0971 41.5397 70.2067 41.8042 70.2067 42.08V70.2067Z" fill="#1E2A3A"/>
<path d="M67.08 53.54H12.92C12.6424 53.54 12.3762 53.6503 12.1799 53.8466C11.9836 54.0429 11.8734 54.3091 11.8734 54.5867V67.08C11.8734 67.3576 11.9836 67.6238 12.1799 67.8201C12.3762 68.0164 12.6424 68.1267 12.92 68.1267H67.08C67.3576 68.1267 67.6238 68.0164 67.8201 67.8201C68.0164 67.6238 68.1267 67.3576 68.1267 67.08V54.5867C68.1267 54.3091 68.0164 54.0429 67.8201 53.8466C67.6238 53.6503 67.3576 53.54 67.08 53.54ZM53.54 55.6267H59.7934V58.7467C59.7934 59.5759 59.4639 60.3712 58.8776 60.9576C58.2912 61.5439 57.4959 61.8734 56.6667 61.8734C55.8374 61.8734 55.0422 61.5439 54.4558 60.9576C53.8694 60.3712 53.54 59.5759 53.54 58.7467V55.6267ZM36.8734 55.6267H43.1267V58.7467C43.1267 59.5759 42.7973 60.3712 42.2109 60.9576C41.6245 61.5439 40.8293 61.8734 40 61.8734C39.1708 61.8734 38.3755 61.5439 37.7891 60.9576C37.2028 60.3712 36.8734 59.5759 36.8734 58.7467V55.6267ZM20.2067 55.6267H26.46V58.7467C26.46 59.1573 26.3791 59.5639 26.222 59.9432C26.0649 60.3226 25.8346 60.6672 25.5442 60.9576C25.2539 61.2479 24.9092 61.4782 24.5299 61.6354C24.1505 61.7925 23.744 61.8734 23.3334 61.8734C22.9228 61.8734 22.5162 61.7925 22.1368 61.6354C21.7575 61.4782 21.4128 61.2479 21.1225 60.9576C20.8321 60.6672 20.6018 60.3226 20.4447 59.9432C20.2876 59.5639 20.2067 59.1573 20.2067 58.7467V55.6267ZM66.04 66.04H13.96V55.6267H18.1267V58.7467C18.1267 60.1276 18.6752 61.4519 19.6517 62.4284C20.6281 63.4048 21.9525 63.9534 23.3334 63.9534C24.7142 63.9534 26.0386 63.4048 27.015 62.4284C27.9915 61.4519 28.54 60.1276 28.54 58.7467V55.6267H34.7934V58.7467C34.7934 60.1276 35.3419 61.4519 36.3183 62.4284C37.2948 63.4048 38.6191 63.9534 40 63.9534C41.3809 63.9534 42.7053 63.4048 43.6817 62.4284C44.6581 61.4519 45.2067 60.1276 45.2067 58.7467V55.6267H51.46V58.7467C51.46 60.1276 52.0086 61.4519 52.985 62.4284C53.9615 63.4048 55.2858 63.9534 56.6667 63.9534C58.0476 63.9534 59.3719 63.4048 60.3484 62.4284C61.3248 61.4519 61.8734 60.1276 61.8734 58.7467V55.6267H66.04V66.04Z" fill="#1E2A3A"/>
<path d="M44.5133 15.4534L40.94 8.28669C40.8672 8.1634 40.7707 8.05571 40.6561 7.96982C40.5415 7.88394 40.4111 7.82154 40.2723 7.78623C40.1335 7.75092 39.9892 7.74338 39.8475 7.76405C39.7058 7.78473 39.5696 7.8332 39.4467 7.90669C39.2923 7.99997 39.1639 8.13067 39.0733 8.28669L35.4933 15.4534C35.0328 16.3626 34.793 17.3675 34.7933 18.3867V18.54C34.7884 19.838 35.1715 21.1079 35.8933 22.1867C36.3458 22.8604 36.957 23.4125 37.6732 23.7943C38.3893 24.176 39.1884 24.3757 40 24.3757C40.8115 24.3757 41.6106 24.176 42.3268 23.7943C43.043 23.4125 43.6542 22.8604 44.1067 22.1867C44.8247 21.1086 45.2074 19.842 45.2067 18.5467V18.4C45.2062 17.3774 44.9689 16.3688 44.5133 15.4534ZM43.1267 18.54C43.1283 19.4254 42.866 20.2911 42.3733 21.0267C42.1662 21.3388 41.8996 21.607 41.5886 21.8159C41.2777 22.0248 40.9286 22.1702 40.5613 22.2439C40.1941 22.3177 39.8159 22.3181 39.4484 22.2454C39.081 22.1727 38.7315 22.0281 38.42 21.82C38.1079 21.6079 37.8387 21.3388 37.6267 21.0267C37.1339 20.2911 36.8717 19.4254 36.8733 18.54V18.3867C36.8757 17.6926 37.0376 17.0082 37.3467 16.3867L40.0133 11.0534L42.68 16.3867C42.989 17.0082 43.151 17.6926 43.1533 18.3867L43.1267 18.54Z" fill="#1E2A3A"/>
<path d="M43.1266 18.3867V18.54C43.1283 19.4254 42.866 20.2911 42.3733 21.0267C42.1662 21.3388 41.8996 21.607 41.5886 21.8159C41.2777 22.0248 40.9286 22.1702 40.5613 22.244C40.194 22.3177 39.8158 22.3181 39.4484 22.2454C39.0809 22.1727 38.7314 22.0281 38.42 21.82C38.1079 21.6079 37.8387 21.3388 37.6266 21.0267C37.1339 20.2911 36.8716 19.4254 36.8733 18.54V18.3867C36.8756 17.6926 37.0376 17.0082 37.3466 16.3867L40.0133 11.0534L42.68 16.3867C42.9798 17.0104 43.1326 17.6946 43.1266 18.3867Z" fill="#FE444A"/>
<path d="M17.4334 17.54L13.8534 10.3667C13.7041 10.1217 13.4641 9.9457 13.1856 9.87702C12.9071 9.80833 12.6127 9.85254 12.3667 10C12.2122 10.0925 12.0819 10.2205 11.9867 10.3733L8.4067 17.5333C7.96447 18.4501 7.7365 19.4555 7.74003 20.4733V20.6267C7.74153 21.9247 8.12654 23.1934 8.8467 24.2733C9.29732 24.9485 9.90757 25.502 10.6233 25.8849C11.3391 26.2677 12.1383 26.468 12.95 26.468C13.7618 26.468 14.5609 26.2677 15.2767 25.8849C15.9925 25.502 16.6027 24.9485 17.0534 24.2733C17.7743 23.1987 18.1595 21.934 18.16 20.64V20.4867C18.1495 19.4614 17.9007 18.4526 17.4334 17.54ZM16.04 20.6267C16.0397 21.5117 15.7776 22.3769 15.2867 23.1133C14.8662 23.7412 14.2139 24.1767 13.4727 24.3242C12.7316 24.4717 11.9622 24.3191 11.3334 23.9C11.0205 23.6939 10.7528 23.4262 10.5467 23.1133C10.0558 22.3769 9.79372 21.5117 9.79336 20.6267V20.4733C9.79255 19.7788 9.95467 19.0938 10.2667 18.4733L12.9334 13.14L15.6 18.4733C15.9121 19.0938 16.0742 19.7788 16.0734 20.4733L16.04 20.6267Z" fill="#1E2A3A"/>
<path d="M16.04 20.4733V20.6267C16.0397 21.5117 15.7775 22.3769 15.2867 23.1133C14.8662 23.7412 14.2138 24.1767 13.4727 24.3242C12.7315 24.4717 11.9621 24.3191 11.3333 23.9C11.0204 23.6939 10.7528 23.4262 10.5467 23.1133C10.0558 22.3769 9.79369 21.5117 9.79334 20.6267V20.4733C9.79252 19.7788 9.95464 19.0938 10.2667 18.4733L12.9333 13.14L15.6 18.4733C15.9005 19.0966 16.0512 19.7815 16.04 20.4733Z" fill="#FE444A"/>
<path d="M71.6 17.5333L68 10.3667C67.8509 10.1271 67.6146 9.95493 67.3409 9.8865C67.0672 9.81807 66.7776 9.85878 66.5333 10C66.3788 10.0925 66.2485 10.2205 66.1533 10.3734L62.5733 17.5333C62.1311 18.4501 61.9031 19.4555 61.9067 20.4733V20.6267C61.9082 21.9247 62.2932 23.1934 63.0133 24.2733C63.4639 24.9485 64.0742 25.502 64.79 25.8849C65.5057 26.2677 66.3049 26.468 67.1167 26.468C67.9284 26.468 68.7276 26.2677 69.4433 25.8849C70.1591 25.502 70.7694 24.9485 71.22 24.2733C71.9401 23.1934 72.3251 21.9247 72.3266 20.6267V20.4733C72.3149 19.4504 72.0661 18.444 71.6 17.5333ZM70.2066 20.6267C70.2063 21.5117 69.9442 22.3769 69.4533 23.1133C69.0329 23.7412 68.3805 24.1767 67.6393 24.3242C66.8982 24.4717 66.1288 24.3191 65.5 23.9C65.1871 23.6939 64.9194 23.4262 64.7133 23.1133C64.2224 22.3769 63.9603 21.5117 63.96 20.6267V20.4733C63.9589 19.7788 64.1211 19.0937 64.4333 18.4733L67.1 13.14L69.7667 18.4733C70.0787 19.0938 70.2408 19.7788 70.24 20.4733L70.2066 20.6267Z" fill="#1E2A3A"/>
<path d="M70.2067 20.4733V20.6267C70.2063 21.5117 69.9442 22.3769 69.4533 23.1133C69.0329 23.7412 68.3805 24.1767 67.6394 24.3242C66.8982 24.4717 66.1288 24.3191 65.5 23.9C65.1871 23.6939 64.9195 23.4262 64.7134 23.1133C64.2225 22.3769 63.9604 21.5117 63.96 20.6267V20.4733C63.959 19.7788 64.1211 19.0937 64.4334 18.4733L67.1 13.14L69.7667 18.4733C70.0672 19.0966 70.2179 19.7815 70.2067 20.4733Z" fill="#FE444A"/>
</svg>
