<?xml version="1.0" encoding="UTF-8"?><svg id="Layer_1" xmlns="http://www.w3.org/2000/svg" viewBox="0 0 79.2 79.2"><defs><style>.cls-1{fill:#fff;}.cls-2{fill:#e30513;}.cls-3{fill:none;stroke:#fff;stroke-linecap:round;stroke-miterlimit:10;stroke-width:.5px;}</style></defs><g><path class="cls-2" d="M68.11,38.52l-11.84-12.85c-.7-.68-1.64-1.06-2.62-1.06H16.48c-2.08,0-3.76,1.68-3.76,3.76v13.35h-1.29c-1.81,0-3.28,1.47-3.28,3.28v1.57c0,1.81,1.47,3.28,3.28,3.28h1.33c.18,1.91,1.77,3.41,3.72,3.41h.91c0-.1-.01-.19-.01-.29,0-3.97,3.22-7.19,7.19-7.19s7.19,3.22,7.19,7.19c0,.1-.01,.2-.01,.29h17.35c0-.1-.01-.19-.01-.29,0-3.97,3.22-7.19,7.19-7.19s7.19,3.22,7.19,7.19c0,.1-.01,.2-.01,.29h2.05c2.08,0,3.76-1.68,3.76-3.76v-8.28c0-1.02-.41-1.99-1.15-2.7ZM11.15,46.57v-1.57c0-.15,.12-.28,.28-.28h1.29v2.13h-1.29c-.15,0-.28-.12-.28-.28Zm49.21-9.91h-14.24c-1.05,0-1.89-.85-1.89-1.89v-6.19c0-1.05,.85-1.89,1.89-1.89h5.33c1.59,0,3.12,.64,4.24,1.77l5.55,6.09c.77,.78,.22,2.11-.88,2.11Z"/><path class="cls-2" d="M56.27,47.2c-3.18,0-5.77,2.58-5.77,5.77s2.58,5.77,5.77,5.77,5.77-2.58,5.77-5.77-2.58-5.77-5.77-5.77Zm0,8.49c-1.51,0-2.73-1.22-2.73-2.73s1.22-2.73,2.73-2.73,2.73,1.22,2.73,2.73-1.22,2.73-2.73,2.73Z"/><circle class="cls-2" cx="56.27" cy="52.97" r="1.68"/><path class="cls-2" d="M24.51,47.2c-3.18,0-5.77,2.58-5.77,5.77s2.58,5.77,5.77,5.77,5.77-2.58,5.77-5.77-2.58-5.77-5.77-5.77Zm0,8.49c-1.51,0-2.73-1.22-2.73-2.73s1.22-2.73,2.73-2.73,2.73,1.22,2.73,2.73-1.22,2.73-2.73,2.73Z"/><circle class="cls-2" cx="24.51" cy="52.97" r="1.68"/><g><g><path class="cls-2" d="M27.31,38.05c-1,0-1.96-.19-2.88-.58-.92-.38-1.74-.93-2.44-1.63-.7-.7-1.25-1.52-1.63-2.44-.38-.92-.57-1.89-.57-2.88,0-2.29,.65-4.53,1.87-6.47l4.44-7.02,.03-.04c.11-.15,.25-.29,.4-.41,.4-.28,.8-.41,1.22-.41h.13l.21,.03c.53,.09,.99,.38,1.3,.81l4.46,7.05c1.22,1.94,1.87,4.18,1.87,6.47,0,.99-.19,1.96-.57,2.88-.38,.92-.93,1.74-1.63,2.44-.7,.7-1.52,1.25-2.44,1.63-.92,.38-1.89,.57-2.88,.57h-.89Z"/><path class="cls-1" d="M27.75,17.66s.06,0,.09,0c.14,.02,.26,.1,.34,.21l4.41,6.98c1.07,1.7,1.64,3.66,1.64,5.67,0,.79-.16,1.58-.46,2.31-.3,.73-.75,1.4-1.31,1.96-.56,.56-1.22,1-1.96,1.31-.73,.3-1.51,.46-2.31,.46h-.89c-.79,0-1.58-.16-2.31-.46-.73-.3-1.4-.75-1.95-1.31-.56-.56-1-1.22-1.31-1.96-.3-.73-.46-1.52-.46-2.31,0-2.01,.57-3.97,1.64-5.67l4.41-6.98s.07-.09,.12-.12c.09-.06,.19-.1,.3-.1m0-3c-.73,0-1.44,.22-2.04,.65l-.05,.04-.05,.04c-.27,.21-.5,.45-.7,.72l-.06,.08-.06,.09-4.41,6.98c-1.38,2.18-2.1,4.69-2.1,7.27,0,1.19,.23,2.35,.69,3.45,.46,1.1,1.11,2.09,1.96,2.93,.84,.84,1.83,1.5,2.93,1.96,1.1,.46,2.26,.69,3.45,.69h.89c1.19,0,2.36-.23,3.46-.69,1.1-.46,2.09-1.12,2.93-1.96,.84-.84,1.5-1.83,1.96-2.93,.46-1.1,.69-2.26,.69-3.46,0-2.58-.73-5.09-2.1-7.27l-4.41-6.98-.05-.07-.05-.07c-.55-.76-1.36-1.27-2.28-1.42-.19-.03-.39-.05-.58-.05h0Z"/></g><path class="cls-1" d="M28.31,33.93c-1.35,0-2.37-.48-3.22-1.34-.86-.85-1.34-2.07-1.34-3.22s1.62-1.15,1.83,0c.13,.69,.29,1.42,.8,1.94,.51,.51,1.09,.74,1.94,.8,1.31,.1,1.35,1.82,0,1.82Z"/></g></g><path class="cls-2" d="M45.33,22.33h5.88c.36,0,.65,.29,.65,.65v1.6c0,.21-.17,.37-.37,.37h-6.43c-.21,0-.37-.17-.37-.37v-1.6c0-.36,.29-.65,.65-.65Z"/><path class="cls-2" d="M48.22,18.58h.1c1.09,0,1.98,.89,1.98,1.98v1.69c0,.21-.17,.39-.39,.39h-3.28c-.21,0-.39-.17-.39-.39v-1.69c0-1.09,.89-1.98,1.98-1.98Z"/><path class="cls-3" d="M48.27,19.39s-1.12,0-1.12,1.16"/></svg>