<svg width="80" height="80" viewBox="0 0 80 80" fill="none" xmlns="http://www.w3.org/2000/svg">
<path d="M66.4933 33.7733L53.5399 20.82V8.74665C53.5399 8.47082 53.4304 8.20629 53.2353 8.01126C53.0403 7.81622 52.7758 7.70665 52.5 7.70665H48.3333C48.0575 7.70665 47.7929 7.81622 47.5979 8.01126C47.4029 8.20629 47.2933 8.47082 47.2933 8.74665V10.8333H32.7066V8.74665C32.7066 8.61007 32.6797 8.47484 32.6275 8.34866C32.5752 8.22248 32.4986 8.10783 32.402 8.01126C32.3054 7.91468 32.1908 7.83808 32.0646 7.78581C31.9384 7.73355 31.8032 7.70665 31.6666 7.70665H27.4999C27.2241 7.70665 26.9596 7.81622 26.7646 8.01126C26.5695 8.20629 26.4599 8.47082 26.4599 8.74665V20.82L13.5066 33.7733C11.9256 33.8768 10.4432 34.5779 9.36011 35.7342C8.277 36.8906 7.67432 38.4156 7.67432 40C7.67432 41.5844 8.277 43.1094 9.36011 44.2657C10.4432 45.4221 11.9256 46.1231 13.5066 46.2266L26.4599 59.18V71.2533C26.4599 71.5291 26.5695 71.7937 26.7646 71.9887C26.9596 72.1837 27.2241 72.2933 27.4999 72.2933H31.6666C31.8032 72.2933 31.9384 72.2664 32.0646 72.2142C32.1908 72.1619 32.3054 72.0853 32.402 71.9887C32.4986 71.8921 32.5752 71.7775 32.6275 71.6513C32.6797 71.5251 32.7066 71.3899 32.7066 71.2533V69.1667H47.2933V71.2533C47.2933 71.5291 47.4029 71.7937 47.5979 71.9887C47.7929 72.1837 48.0575 72.2933 48.3333 72.2933H52.5C52.7758 72.2933 53.0403 72.1837 53.2353 71.9887C53.4304 71.7937 53.5399 71.5291 53.5399 71.2533V59.18L66.4933 46.2266C68.0743 46.1231 69.5567 45.4221 70.6398 44.2657C71.7229 43.1094 72.3256 41.5844 72.3256 40C72.3256 38.4156 71.7229 36.8906 70.6398 35.7342C69.5567 34.5779 68.0743 33.8768 66.4933 33.7733ZM49.3733 24.3733V9.79331H51.4599V24.3733C51.4615 25.4785 51.2106 26.5695 50.7265 27.5631C50.2425 28.5567 49.5379 29.4267 48.6666 30.1066C48.0646 29.6379 47.4195 29.2271 46.74 28.88C47.5367 28.427 48.1998 27.7718 48.6621 26.9805C49.1245 26.1891 49.3698 25.2898 49.3733 24.3733ZM44.1666 27.5H35.8333C35.1889 27.4968 34.5613 27.2947 34.0362 26.9211C33.5111 26.5476 33.1143 26.021 32.8999 25.4133H47.1C46.8856 26.021 46.4888 26.5476 45.9637 26.9211C45.4386 27.2947 44.811 27.4968 44.1666 27.5ZM32.7066 12.92H47.2933V15H32.7066V12.92ZM32.7066 17.08H47.2933V19.1666H32.7066V17.08ZM32.7066 21.2533H47.2933V23.3333H32.7066V21.2533ZM9.79328 40C9.79328 39.1759 10.0377 38.3703 10.4955 37.6851C10.9533 36.9999 11.6041 36.4658 12.3654 36.1505C13.1268 35.8351 13.9646 35.7526 14.7728 35.9134C15.5811 36.0741 16.3235 36.471 16.9062 37.0537C17.4889 37.6364 17.8858 38.3789 18.0466 39.1871C18.2073 39.9954 18.1248 40.8331 17.8094 41.5945C17.4941 42.3559 16.96 43.0066 16.2748 43.4644C15.5896 43.9223 14.784 44.1666 13.9599 44.1666C12.8549 44.1666 11.7951 43.7277 11.0137 42.9463C10.2323 42.1649 9.79328 41.1051 9.79328 40ZM26.4599 55.6267V56.2333L16.0933 45.8667C17.2986 45.4298 18.3402 44.6324 19.0763 43.5827C19.8124 42.533 20.2073 41.282 20.2073 40C20.2073 38.7179 19.8124 37.467 19.0763 36.4173C18.3402 35.3676 17.2986 34.5701 16.0933 34.1333L26.4599 23.7666V24.3733C26.4603 25.7356 26.7589 27.0814 27.3348 28.316C27.9106 29.5506 28.7498 30.6442 29.7933 31.52C27.6581 33.8277 26.4721 36.856 26.4721 40C26.4721 43.144 27.6581 46.1722 29.7933 48.48C28.7498 49.3558 27.9106 50.4494 27.3348 51.684C26.7589 52.9186 26.4603 54.2643 26.4599 55.6267ZM32.7999 41.04C32.6799 40.3518 32.6799 39.6481 32.7999 38.96H47.2C47.32 39.6481 47.32 40.3518 47.2 41.04H32.7999ZM46.4466 43.1266C45.8975 44.0751 45.1093 44.8629 44.1606 45.4115C43.2119 45.9602 42.1359 46.2504 41.04 46.2533H38.9599C37.864 46.2504 36.788 45.9602 35.8393 45.4115C34.8906 44.8629 34.1024 44.0751 33.5533 43.1266H46.4466ZM33.5533 36.8733C34.1024 35.9249 34.8906 35.1371 35.8393 34.5884C36.788 34.0398 37.864 33.7495 38.9599 33.7466H41.04C42.1359 33.7495 43.2119 34.0398 44.1606 34.5884C45.1093 35.1371 45.8975 35.9249 46.4466 36.8733H33.5533ZM30.6266 40C30.6264 41.247 30.9066 42.4781 31.4467 43.6022C31.9868 44.7262 32.7728 45.7143 33.7466 46.4933C32.9809 46.6798 32.2418 46.962 31.5466 47.3333C29.6242 45.39 28.5459 42.7668 28.5459 40.0333C28.5459 37.2998 29.6242 34.6766 31.5466 32.7333C32.2433 33.0931 32.9824 33.3641 33.7466 33.54C32.7772 34.3155 31.9938 35.2982 31.4539 36.4161C30.914 37.534 30.6313 38.7586 30.6266 40ZM30.6266 55.6267V70.2066H28.5399V55.6267C28.5505 53.6956 29.3222 51.8466 30.6877 50.4811C32.0532 49.1156 33.9022 48.3438 35.8333 48.3333H41.04C43.2501 48.3333 45.3697 47.4553 46.9325 45.8925C48.4953 44.3297 49.3733 42.2101 49.3733 40C49.3733 37.7898 48.4953 35.6702 46.9325 34.1074C45.3697 32.5446 43.2501 31.6666 41.04 31.6666H35.8333C33.9022 31.6561 32.0532 30.8844 30.6877 29.5189C29.3222 28.1534 28.5505 26.3044 28.5399 24.3733V9.79331H30.6266V24.3733C30.6266 25.7548 31.175 27.0798 32.1512 28.0573C33.1275 29.0348 34.4518 29.5849 35.8333 29.5866H41.04C43.8017 29.5866 46.4504 30.6838 48.4033 32.6366C50.3562 34.5895 51.4533 37.2382 51.4533 40C51.4533 42.7618 50.3562 45.4104 48.4033 47.3633C46.4504 49.3162 43.8017 50.4133 41.04 50.4133H35.8333C34.4518 50.4151 33.1275 50.9651 32.1512 51.9426C31.175 52.9201 30.6266 54.2451 30.6266 55.6267ZM47.1 54.5866H32.8999C33.1143 53.979 33.5111 53.4523 34.0362 53.0788C34.5613 52.7053 35.1889 52.5031 35.8333 52.5H44.1666C44.811 52.5031 45.4386 52.7053 45.9637 53.0788C46.4888 53.4523 46.8856 53.979 47.1 54.5866ZM47.2933 67.08H32.7066V65H47.2933V67.08ZM47.2933 62.92H32.7066V60.8333H47.2933V62.92ZM47.2933 58.7467H32.7066V56.6667H47.2933V58.7467ZM51.4599 70.2066H49.3733V55.6267C49.3699 54.7061 49.121 53.8032 48.6523 53.011C48.1835 52.2188 47.5119 51.566 46.7066 51.12C47.3976 50.7747 48.054 50.3639 48.6666 49.8933C49.5404 50.5719 50.2475 51.4413 50.7339 52.435C51.2203 53.4286 51.4732 54.5203 51.4733 55.6267L51.4599 70.2066ZM53.5399 56.2066V55.6C53.5415 54.2354 53.2439 52.8871 52.6679 51.65C52.092 50.413 51.2519 49.3172 50.2066 48.44C52.3472 46.1403 53.5373 43.1151 53.5373 39.9733C53.5373 36.8315 52.3472 33.8064 50.2066 31.5066C51.2519 30.6294 52.092 29.5337 52.6679 28.2966C53.2439 27.0595 53.5415 25.7112 53.5399 24.3466V23.74L63.9066 34.1333C62.7013 34.5701 61.6597 35.3676 60.9236 36.4173C60.1875 37.467 59.7926 38.7179 59.7926 40C59.7926 41.282 60.1875 42.533 60.9236 43.5827C61.6597 44.6324 62.7013 45.4298 63.9066 45.8667L53.5399 56.2066ZM66.0399 44.14C65.2147 44.14 64.4081 43.8949 63.7223 43.4359C63.0366 42.9769 62.5025 42.3245 62.188 41.5616C61.8734 40.7987 61.7925 39.9596 61.9554 39.1506C62.1184 38.3416 62.5178 37.5992 63.1032 37.0176C63.6886 36.4359 64.4335 36.0412 65.2435 35.8835C66.0535 35.7257 66.8921 35.8121 67.653 36.1315C68.4139 36.451 69.0628 36.9892 69.5174 37.6779C69.972 38.3666 70.2119 39.1748 70.2066 40C70.2066 40.5472 70.0988 41.089 69.8894 41.5945C69.6801 42.1 69.3731 42.5594 68.9862 42.9463C68.5993 43.3332 68.14 43.6401 67.6345 43.8495C67.1289 44.0589 66.5871 44.1666 66.0399 44.1666V44.14Z" fill="#1E2A3A"/>
<path d="M13.9599 44.1667C16.2611 44.1667 18.1265 42.3012 18.1265 40C18.1265 37.6988 16.2611 35.8333 13.9599 35.8333C11.6587 35.8333 9.79321 37.6988 9.79321 40C9.79321 42.3012 11.6587 44.1667 13.9599 44.1667Z" fill="#FE444A"/>
<path d="M66.04 44.1667C68.3411 44.1667 70.2066 42.3012 70.2066 40C70.2066 37.6988 68.3411 35.8333 66.04 35.8333C63.7388 35.8333 61.8733 37.6988 61.8733 40C61.8733 42.3012 63.7388 44.1667 66.04 44.1667Z" fill="#FE444A"/>
</svg>
