<svg width="80" height="80" viewBox="0 0 80 80" fill="none" xmlns="http://www.w3.org/2000/svg">
<path d="M51 48C60.9411 48 69 39.9411 69 30C69 20.0589 60.9411 12 51 12C41.0589 12 33 20.0589 33 30C33 39.9411 41.0589 48 51 48Z" fill="#E30513"/>
<path d="M11.0101 42.7185L11.0101 62.1937C11.0101 62.8401 11.5342 63.3642 12.1806 63.3642H19.5648C20.2112 63.3642 20.7353 62.8401 20.7353 62.1937V42.7185C20.7353 42.072 20.2112 41.548 19.5648 41.548H12.1806C11.5342 41.548 11.0101 42.072 11.0101 42.7185Z" fill="#E30513"/>
<path d="M20.7228 46.8401H34.7564C35.3043 46.8401 35.8273 47.0643 36.2133 47.4628L42.6635 54.2243C43.859 55.482 43.8465 57.4619 42.6386 58.7071C41.4183 59.9648 39.4135 60.0146 38.1309 58.8067L34.3081 55.2329" stroke="#E30513" stroke-width="3" stroke-miterlimit="10" stroke-linecap="round"/>
<path d="M20.7228 58.732H24.969C25.5169 58.732 26.0399 58.9561 26.4259 59.3546L32.7516 65.9916C33.1252 66.3901 33.6606 66.6142 34.2085 66.6142H57.0334C59.3495 66.6142 61.2298 64.734 61.2298 62.4179C61.2298 60.1018 59.3495 58.2215 57.0334 58.2215H43.0994" stroke="#E30513" stroke-width="3" stroke-miterlimit="10" stroke-linecap="round"/>
<path d="M52.2695 39.2773V40.6513C52.2695 41.395 51.6946 42 50.988 42C50.2814 42 49.7066 41.395 49.7066 40.6513V39.2773C48.0659 39 46.6168 38.0168 45.6946 36.5672C45.515 36.2647 45.4551 35.8992 45.5269 35.5588C45.5988 35.2059 45.8024 34.9034 46.0898 34.7143C46.3772 34.5252 46.7245 34.4622 47.0599 34.5378C47.3952 34.6134 47.6707 34.8403 47.8503 35.1429C48.5808 36.1765 49.7545 36.7815 50.976 36.7311C52.8563 36.7311 54.4251 35.4958 54.4251 34.0336C54.4251 32.7227 53.1916 31.9664 52.6647 31.7017C52.0659 31.4622 51.4311 31.3361 50.7844 31.3109C49.8144 31.2605 48.8683 31.021 47.994 30.6176C47.1317 30.2143 46.3892 29.5714 45.8623 28.7521C45.3353 27.9328 45.0359 26.9622 45 25.979C45.0838 24.6681 45.5988 23.4202 46.4611 22.4622C47.3234 21.5042 48.4731 20.8992 49.7186 20.7353V19.3487C49.7186 18.605 50.2934 18 51 18C51.7066 18 52.2814 18.605 52.2814 19.3487V20.7353C53.8742 21.0126 55.3114 21.9454 56.2335 23.3445C56.4251 23.6471 56.497 24 56.4251 24.3529C56.3533 24.7059 56.1617 25.0084 55.8742 25.2101C55.2754 25.6134 54.485 25.437 54.1018 24.8193C53.3593 23.8109 52.2096 23.2437 51 23.2815C49.1317 23.2815 47.5629 24.5168 47.5629 25.9664C47.5988 26.458 47.7665 26.9244 48.0419 27.3277C48.3174 27.7185 48.7006 28.0336 49.1317 28.2101C49.7545 28.4622 50.4012 28.6134 51.0719 28.6387C51.994 28.6765 52.9042 28.8908 53.7665 29.2689C54.6886 29.6471 55.479 30.3025 56.0539 31.1471C56.6287 31.9916 56.9521 33 57 34.0336C56.9162 35.3571 56.4012 36.5924 55.5389 37.5504C54.6766 38.5084 53.5269 39.1261 52.2814 39.2773H52.2695Z" fill="white"/>
</svg>
