<svg width="80" height="80" viewBox="0 0 80 80" fill="none" xmlns="http://www.w3.org/2000/svg">
<path d="M36.8733 20.2066C36.1409 20.2126 35.4232 20.4127 34.7933 20.7867V13.96C34.7936 13.2035 34.5878 12.4611 34.1982 11.8127C33.8085 11.1642 33.2497 10.634 32.5816 10.2791C31.9135 9.92416 31.1614 9.7578 30.4059 9.79789C29.6504 9.83798 28.9201 10.083 28.2933 10.5067C28.0137 9.6901 27.4858 8.98138 26.7836 8.47959C26.0813 7.9778 25.2398 7.70804 24.3767 7.70804C23.5136 7.70804 22.672 7.9778 21.9698 8.47959C21.2675 8.98138 20.7397 9.6901 20.46 10.5067C19.8332 10.083 19.1029 9.83798 18.3475 9.79789C17.592 9.7578 16.8399 9.92416 16.1718 10.2791C15.5037 10.634 14.9448 11.1642 14.5552 11.8127C14.1655 12.4611 13.9598 13.2035 13.96 13.96V14.54C13.3299 14.161 12.6086 13.9605 11.8733 13.96C10.7683 13.96 9.70846 14.399 8.92705 15.1804C8.14565 15.9618 7.70667 17.0216 7.70667 18.1267V23.8533C7.72241 30.5005 9.8776 36.9661 13.8533 42.2933C13.9221 42.3834 13.9595 42.4934 13.96 42.6067V71.2733C13.96 71.5491 14.0696 71.8137 14.2646 72.0087C14.4596 72.2038 14.7242 72.3133 15 72.3133H33.7467C33.8838 72.3142 34.0198 72.2879 34.1467 72.2361C34.2737 72.1842 34.3891 72.1077 34.4864 72.0111C34.5837 71.9144 34.6609 71.7995 34.7135 71.6729C34.7662 71.5462 34.7933 71.4105 34.7933 71.2733V42.6067C34.7919 42.4941 34.827 42.3842 34.8933 42.2933L35.2067 41.8733C38.9824 36.8191 41.0281 30.6822 41.04 24.3733C41.04 23.2682 40.601 22.2084 39.8196 21.427C39.0382 20.6456 37.9784 20.2066 36.8733 20.2066ZM33.54 40.6266L33.2267 41.04C32.892 41.4941 32.7099 42.0426 32.7067 42.6067V70.2066H16.04V42.6067C16.0414 42.0418 15.8589 41.4919 15.52 41.04C11.8125 36.076 9.80432 30.049 9.79333 23.8533V18.1267C9.77729 17.8432 9.81928 17.5594 9.91672 17.2926C10.0142 17.0259 10.165 16.7819 10.3601 16.5755C10.5551 16.3692 10.7902 16.2048 11.051 16.0924C11.3117 15.98 11.5927 15.9221 11.8767 15.9221C12.1606 15.9221 12.4416 15.98 12.7024 16.0924C12.9631 16.2048 13.1982 16.3692 13.3933 16.5755C13.5883 16.7819 13.7392 17.0259 13.8366 17.2926C13.9341 17.5594 13.976 17.8432 13.96 18.1267V27.5H16.04V13.96C16.024 13.6765 16.0659 13.3927 16.1634 13.126C16.2608 12.8593 16.4117 12.6153 16.6067 12.4089C16.8018 12.2025 17.0369 12.0381 17.2976 11.9257C17.5584 11.8134 17.8394 11.7554 18.1233 11.7554C18.4073 11.7554 18.6883 11.8134 18.949 11.9257C19.2098 12.0381 19.4449 12.2025 19.6399 12.4089C19.835 12.6153 19.9858 12.8593 20.0833 13.126C20.1807 13.3927 20.2227 13.6765 20.2067 13.96V27.5H22.2933V11.8733C22.3234 11.3412 22.5561 10.8407 22.9435 10.4746C23.3309 10.1085 23.8437 9.90455 24.3767 9.90455C24.9097 9.90455 25.4225 10.1085 25.8099 10.4746C26.1973 10.8407 26.4299 11.3412 26.46 11.8733V27.5H28.54V13.96C28.524 13.6765 28.5659 13.3927 28.6634 13.126C28.7608 12.8593 28.9117 12.6153 29.1067 12.4089C29.3018 12.2025 29.5369 12.0381 29.7976 11.9257C30.0584 11.8134 30.3394 11.7554 30.6233 11.7554C30.9073 11.7554 31.1883 11.8134 31.449 11.9257C31.7098 12.0381 31.9449 12.2025 32.1399 12.4089C32.335 12.6153 32.4858 12.8593 32.5833 13.126C32.6807 13.3927 32.7227 13.6765 32.7067 13.96V28.6266C30.9749 28.8861 29.3932 29.7567 28.2475 31.0809C27.1018 32.4051 26.4677 34.0956 26.46 35.8466V36.8867H28.54V35.8333C28.5418 34.453 29.0909 33.1297 30.0669 32.1536C31.043 31.1775 32.3663 30.6284 33.7467 30.6266C33.8838 30.6275 34.0198 30.6013 34.1467 30.5494C34.2737 30.4975 34.3891 30.4211 34.4864 30.3244C34.5837 30.2277 34.6609 30.1128 34.7135 29.9862C34.7662 29.8596 34.7933 29.7238 34.7933 29.5867V24.3733C34.8234 23.8412 35.0561 23.3407 35.4435 22.9746C35.8309 22.6085 36.3437 22.4045 36.8767 22.4045C37.4097 22.4045 37.9225 22.6085 38.3099 22.9746C38.6973 23.3407 38.9299 23.8412 38.96 24.3733C38.9471 30.2328 37.0465 35.9322 33.54 40.6266Z" fill="#1E2A3A"/>
<path d="M54.5867 55.6267H53.54V31.6666C53.54 31.3908 53.4305 31.1263 53.2354 30.9313C53.0404 30.7362 52.7759 30.6266 52.5 30.6266H51.46V27.5C51.46 27.3628 51.4329 27.2271 51.3802 27.1004C51.3276 26.9738 51.2504 26.8589 51.1531 26.7622C51.0558 26.6656 50.9404 26.5891 50.8134 26.5372C50.6865 26.4854 50.5505 26.4591 50.4134 26.46H49.3734V22.2933H47.2934V26.46H46.2534C46.1162 26.4591 45.9803 26.4854 45.8533 26.5372C45.7264 26.5891 45.6109 26.6656 45.5137 26.7622C45.4164 26.8589 45.3392 26.9738 45.2865 27.1004C45.2338 27.2271 45.2067 27.3628 45.2067 27.5V30.6266H44.1667C43.8909 30.6266 43.6264 30.7362 43.4313 30.9313C43.2363 31.1263 43.1267 31.3908 43.1267 31.6666V55.6267H42.08C41.8042 55.6267 41.5397 55.7362 41.3446 55.9313C41.1496 56.1263 41.04 56.3908 41.04 56.6666V60.8333C41.04 61.1091 41.1496 61.3737 41.3446 61.5687C41.5397 61.7637 41.8042 61.8733 42.08 61.8733H45.2067V66.04H44.1667C43.8909 66.04 43.6264 66.1496 43.4313 66.3446C43.2363 66.5396 43.1267 66.8042 43.1267 67.08V71.2533C43.1267 71.5291 43.2363 71.7937 43.4313 71.9887C43.6264 72.1838 43.8909 72.2933 44.1667 72.2933H52.5C52.7759 72.2933 53.0404 72.1838 53.2354 71.9887C53.4305 71.7937 53.54 71.5291 53.54 71.2533V67.08C53.54 66.8042 53.4305 66.5396 53.2354 66.3446C53.0404 66.1496 52.7759 66.04 52.5 66.04H51.46V61.8733H54.5867C54.8625 61.8733 55.1271 61.7637 55.3221 61.5687C55.5171 61.3737 55.6267 61.1091 55.6267 60.8333V56.6666C55.6267 56.3908 55.5171 56.1263 55.3221 55.9313C55.1271 55.7362 54.8625 55.6267 54.5867 55.6267ZM47.2934 28.54H49.3734V30.6266H47.2934V28.54ZM45.2067 32.7066H51.46V34.7933H47.2934V36.8733H51.46V38.96H49.3734V41.04H51.46V43.1266H47.2934V45.2066H51.46V47.2933H49.3734V49.3733H51.46V51.46H47.2934V53.54H51.46V55.6267H45.2067V32.7066ZM51.46 70.2066H45.2067V68.1267H51.46V70.2066ZM49.3734 66.04H47.2934V61.8733H49.3734V66.04ZM53.54 59.7933H43.1267V57.7066H53.54V59.7933Z" fill="#1E2A3A"/>
<path d="M29.5866 51.46H19.1666C18.8908 51.46 18.6263 51.5696 18.4312 51.7646C18.2362 51.9596 18.1266 52.2242 18.1266 52.5V58.7467C18.1257 58.8838 18.152 59.0197 18.2039 59.1467C18.2557 59.2736 18.3322 59.3891 18.4288 59.4864C18.5255 59.5836 18.6405 59.6608 18.7671 59.7135C18.8937 59.7662 19.0295 59.7933 19.1666 59.7933H29.5866C29.7237 59.7933 29.8595 59.7662 29.9861 59.7135C30.1128 59.6608 30.2277 59.5836 30.3244 59.4864C30.421 59.3891 30.4975 59.2736 30.5494 59.1467C30.6012 59.0197 30.6275 58.8838 30.6266 58.7467V52.5C30.6266 52.2242 30.517 51.9596 30.322 51.7646C30.127 51.5696 29.8624 51.46 29.5866 51.46ZM28.5399 57.7067H20.2066V53.54H28.5399V57.7067Z" fill="#1E2A3A"/>
<path d="M28.54 53.54H20.2067V57.7066H28.54V53.54Z" fill="#FE444A"/>
<path d="M71.2533 28.54H56.6666C56.5295 28.54 56.3937 28.5671 56.2671 28.6198C56.1405 28.6725 56.0255 28.7497 55.9288 28.8469C55.8322 28.9442 55.7557 29.0597 55.7038 29.1866C55.652 29.3136 55.6257 29.4495 55.6266 29.5866V33.7466C55.6257 33.8838 55.652 34.0197 55.7038 34.1467C55.7557 34.2736 55.8322 34.3891 55.9288 34.4863C56.0255 34.5836 56.1405 34.6608 56.2671 34.7135C56.3937 34.7662 56.5295 34.7933 56.6666 34.7933H57.7066V66.04C57.6792 66.8779 57.8206 67.7128 58.1224 68.495C58.4242 69.2772 58.8802 69.9907 59.4632 70.5931C60.0463 71.1956 60.7446 71.6746 61.5165 72.0017C62.2884 72.3289 63.1182 72.4975 63.9566 72.4975C64.795 72.4975 65.6248 72.3289 66.3967 72.0017C67.1687 71.6746 67.8669 71.1956 68.45 70.5931C69.033 69.9907 69.489 69.2772 69.7908 68.495C70.0926 67.7128 70.234 66.8779 70.2066 66.04V34.7933H71.2533C71.3904 34.7933 71.5262 34.7662 71.6528 34.7135C71.7794 34.6608 71.8944 34.5836 71.991 34.4863C72.0877 34.3891 72.1642 34.2736 72.216 34.1467C72.2679 34.0197 72.2941 33.8838 72.2933 33.7466V29.5866C72.2941 29.4495 72.2679 29.3136 72.216 29.1866C72.1642 29.0597 72.0877 28.9442 71.991 28.8469C71.8944 28.7497 71.7794 28.6725 71.6528 28.6198C71.5262 28.5671 71.3904 28.54 71.2533 28.54ZM59.7933 57.7066H61.8733V55.6266H59.7933V53.54H61.8733V51.46H59.7933V49.3733H61.8733V47.2933H59.7933V45.2066H61.8733V43.1266H59.7933V41.04H63.9599V59.7933H59.7933V57.7066ZM68.1266 66.04C68.1266 67.145 67.6876 68.2049 66.9062 68.9863C66.1248 69.7677 65.065 70.2066 63.9599 70.2066C62.8549 70.2066 61.7951 69.7677 61.0137 68.9863C60.2323 68.2049 59.7933 67.145 59.7933 66.04V61.8733H64.9999C65.2758 61.8733 65.5403 61.7637 65.7353 61.5687C65.9304 61.3737 66.0399 61.1091 66.0399 60.8333V40C66.0399 39.7242 65.9304 39.4596 65.7353 39.2646C65.5403 39.0695 65.2758 38.96 64.9999 38.96H59.7933V34.7933H68.1266V66.04ZM70.2066 32.7066H57.7066V30.6266H70.2066V32.7066Z" fill="#1E2A3A"/>
<path d="M68.4733 15.4533L64.8933 8.28667C64.7991 8.12328 64.6636 7.98758 64.5004 7.89322C64.3371 7.79887 64.1519 7.74919 63.9633 7.74919C63.7747 7.74919 63.5895 7.79887 63.4262 7.89322C63.263 7.98758 63.1274 8.12328 63.0333 8.28667L59.4466 15.4533C59.0038 16.3676 58.7758 17.3709 58.78 18.3867V18.54C58.7807 19.8382 59.1657 21.1071 59.8866 22.1867C60.3391 22.8604 60.9503 23.4125 61.6665 23.7942C62.3826 24.176 63.1817 24.3757 63.9933 24.3757C64.8048 24.3757 65.6039 24.176 66.3201 23.7942C67.0363 23.4125 67.6475 22.8604 68.1 22.1867C68.8151 21.1072 69.1975 19.8415 69.2 18.5467V18.4C69.1892 17.3748 68.9404 16.366 68.4733 15.4533ZM67.08 18.54C67.084 19.4247 66.824 20.2905 66.3333 21.0267C66.1262 21.3388 65.8595 21.607 65.5486 21.8159C65.2377 22.0248 64.8886 22.1702 64.5213 22.2439C64.154 22.3176 63.7758 22.3181 63.4084 22.2454C63.0409 22.1726 62.6914 22.0281 62.38 21.82C62.0664 21.6097 61.7969 21.3402 61.5866 21.0267C61.0939 20.2911 60.8316 19.4253 60.8333 18.54V18.3867C60.8322 17.6921 60.9944 17.0071 61.3066 16.3867L63.9733 11.0533L66.64 16.3867C66.9522 17.0071 67.1144 17.6921 67.1133 18.3867L67.08 18.54Z" fill="#1E2A3A"/>
<path d="M67.08 18.3866V18.54C67.0841 19.4247 66.8241 20.2905 66.3334 21.0266C66.1263 21.3388 65.8596 21.607 65.5487 21.8159C65.2378 22.0247 64.8886 22.1702 64.5214 22.2439C64.1541 22.3176 63.7759 22.3181 63.4085 22.2453C63.041 22.1726 62.6915 22.028 62.38 21.82C62.0665 21.6097 61.797 21.3402 61.5867 21.0266C61.094 20.2911 60.8317 19.4253 60.8334 18.54V18.3866C60.8323 17.6921 60.9945 17.007 61.3067 16.3866L63.9734 11.0533L66.64 16.3866C66.9408 17.0098 67.0915 17.6948 67.08 18.3866Z" fill="#FE444A"/>
</svg>
