<svg width="80" height="80" viewBox="0 0 80 80" fill="none" xmlns="http://www.w3.org/2000/svg">
<path d="M30.6267 40C30.6267 39.1708 30.2973 38.3755 29.7109 37.7891C29.1246 37.2028 28.3293 36.8734 27.5 36.8734C27.1448 36.8775 26.793 36.9429 26.46 37.0667V29.5867C26.4644 29.0739 26.3422 28.5679 26.1044 28.1135C25.8666 27.6592 25.5205 27.2704 25.0966 26.9817C24.6728 26.693 24.1843 26.5132 23.6744 26.4583C23.1646 26.4033 22.649 26.4749 22.1734 26.6667C21.9914 26.0108 21.5995 25.4327 21.0577 25.0207C20.5159 24.6088 19.854 24.3857 19.1734 24.3857C18.4927 24.3857 17.8309 24.6088 17.289 25.0207C16.7472 25.4327 16.3554 26.0108 16.1734 26.6667C15.4172 26.3654 14.5726 26.3749 13.8235 26.6933C13.0743 27.0117 12.4812 27.6131 12.1734 28.3667C12.1191 28.492 12.0745 28.6212 12.04 28.7534C11.662 28.5979 11.2569 28.5188 10.8482 28.5205C10.4394 28.5223 10.0351 28.6048 9.65833 28.7634C9.2816 28.9221 8.93997 29.1536 8.65308 29.4448C8.3662 29.736 8.13973 30.081 7.98671 30.46C7.83326 30.8369 7.75403 31.2398 7.75338 31.6467V43.48C7.72338 47.3859 9.19882 51.1533 11.8734 54V71.2867C11.8734 71.4238 11.9005 71.5596 11.9532 71.6862C12.0059 71.8128 12.0831 71.9278 12.1803 72.0244C12.2776 72.1211 12.3931 72.1976 12.52 72.2495C12.647 72.3013 12.7829 72.3276 12.92 72.3267H25.4134C25.5505 72.3276 25.6865 72.3013 25.8134 72.2495C25.9404 72.1976 26.0558 72.1211 26.1531 72.0244C26.2504 71.9278 26.3276 71.8128 26.3802 71.6862C26.4329 71.5596 26.46 71.4238 26.46 71.2867V54C29.1436 51.169 30.6355 47.4142 30.6267 43.5134V40ZM24.3734 61.8734H18.1267V59.7934H24.3734V61.8734ZM28.54 43.48C28.547 45.2139 28.2094 46.9318 27.5467 48.5341C26.8841 50.1363 25.9097 51.5909 24.68 52.8134C24.4854 53.008 24.3752 53.2714 24.3734 53.5467V57.7134H17.08C16.8042 57.7134 16.5397 57.8229 16.3447 58.018C16.1496 58.213 16.04 58.4775 16.04 58.7534V62.9267C16.04 63.2025 16.1496 63.467 16.3447 63.6621C16.5397 63.8571 16.8042 63.9667 17.08 63.9667H24.3734V70.2134H13.96V53.5467C13.9582 53.2714 13.8481 53.008 13.6534 52.8134C12.4238 51.5909 11.4493 50.1363 10.7867 48.5341C10.124 46.9318 9.7864 45.2139 9.79338 43.48V31.6667C9.79338 31.3909 9.90295 31.1263 10.098 30.9313C10.293 30.7363 10.5576 30.6267 10.8334 30.6267C11.1092 30.6267 11.3737 30.7363 11.5688 30.9313C11.7638 31.1263 11.8734 31.3909 11.8734 31.6667V40H13.96V29.5867C13.96 29.3109 14.0696 29.0463 14.2647 28.8513C14.4597 28.6563 14.7242 28.5467 15 28.5467C15.2759 28.5467 15.5404 28.6563 15.7354 28.8513C15.9305 29.0463 16.04 29.3109 16.04 29.5867V40H18.1267V27.5C18.1267 27.2242 18.2363 26.9597 18.4313 26.7646C18.6264 26.5696 18.8909 26.46 19.1667 26.46C19.4425 26.46 19.7071 26.5696 19.9021 26.7646C20.0971 26.9597 20.2067 27.2242 20.2067 27.5V40H22.2934V29.5867C22.2934 29.4501 22.3203 29.3149 22.3725 29.1887C22.4248 29.0625 22.5014 28.9479 22.598 28.8513C22.6946 28.7547 22.8092 28.6781 22.9354 28.6259C23.0616 28.5736 23.1968 28.5467 23.3334 28.5467C23.47 28.5467 23.6052 28.5736 23.7314 28.6259C23.8575 28.6781 23.9722 28.7547 24.0688 28.8513C24.1653 28.9479 24.2419 29.0625 24.2942 29.1887C24.3465 29.3149 24.3734 29.4501 24.3734 29.5867V43.2267C23.1981 43.4701 22.1424 44.1106 21.3837 45.0405C20.6249 45.9704 20.2093 47.1332 20.2067 48.3334H22.2934C22.2934 47.5053 22.6219 46.711 23.2068 46.1248C23.7917 45.5387 24.5853 45.2085 25.4134 45.2067C25.5505 45.2076 25.6865 45.1813 25.8134 45.1294C25.9404 45.0776 26.0558 45.0011 26.1531 44.9044C26.2504 44.8078 26.3276 44.6928 26.3802 44.5662C26.4329 44.4396 26.46 44.3038 26.46 44.1667V40C26.46 39.7242 26.5696 39.4597 26.7647 39.2646C26.9597 39.0696 27.2242 38.96 27.5 38.96C27.7759 38.96 28.0404 39.0696 28.2354 39.2646C28.4305 39.4597 28.54 39.7242 28.54 40V43.48Z" fill="#1E2A3A"/>
<path d="M55.5 53.8467C56.0635 54.4111 56.7327 54.8589 57.4694 55.1644C58.2061 55.4699 58.9958 55.6271 59.7934 55.6271C60.5909 55.6271 61.3806 55.4699 62.1173 55.1644C62.854 54.8589 63.5232 54.4111 64.0867 53.8467L70.5134 47.42C71.0778 46.8565 71.5255 46.1873 71.831 45.4506C72.1365 44.7139 72.2938 43.9242 72.2938 43.1267C72.2938 42.3292 72.1365 41.5394 71.831 40.8028C71.5255 40.0661 71.0778 39.3968 70.5134 38.8334L41.5334 9.85335C40.1585 8.48142 38.2956 7.71091 36.3534 7.71091C34.4111 7.71091 32.5482 8.48142 31.1734 9.85335L26.5067 14.52C25.1348 15.8948 24.3643 17.7578 24.3643 19.7C24.3643 21.6423 25.1348 23.5052 26.5067 24.88L55.5 53.8467ZM41.5 26.46H55.1934L59.3334 30.6267H37.3334L41.5 26.46ZM43.58 24.3734L48.3334 19.6L53.1134 24.3734H43.58ZM55.1934 36.8734H41.4734L37.3334 32.7067H59.3334L55.1934 36.8734ZM53.1134 38.96L48.3334 43.7334L43.5534 38.96H53.1134ZM70.2067 43.1267C70.2058 44.1839 69.7863 45.1978 69.04 45.9467L62.6134 52.3734C61.8533 53.098 60.8435 53.5022 59.7934 53.5022C58.7432 53.5022 57.7334 53.098 56.9734 52.3734L49.8067 45.2067L61.8734 33.14L69.04 40.3067C69.7863 41.0556 70.2058 42.0694 70.2067 43.1267ZM28 16L32.6667 11.3334C33.6507 10.3571 34.9806 9.8093 36.3667 9.8093C37.7528 9.8093 39.0827 10.3571 40.0667 11.3334L46.86 18.1334L34.7934 30.2L28 23.4C27.0238 22.416 26.476 21.0861 26.476 19.7C26.476 18.3139 27.0238 16.984 28 16Z" fill="#1E2A3A"/>
<path d="M43.1267 62.92C43.1232 64.2999 42.5735 65.6222 41.5978 66.5978C40.6221 67.5735 39.2999 68.1232 37.92 68.1267V66.04C38.747 66.0383 39.5395 65.709 40.1243 65.1243C40.709 64.5395 41.0383 63.747 41.04 62.92H43.1267Z" fill="#1E2A3A"/>
<path d="M69.1668 66.04H65.0001C64.7243 66.04 64.4598 65.9305 64.2647 65.7354C64.0697 65.5404 63.9601 65.2759 63.9601 65C63.9601 64.1708 63.6307 63.3755 63.0443 62.7891C62.458 62.2028 61.6627 61.8734 60.8335 61.8734H47.2134C47.0114 59.9046 46.3689 58.0066 45.3334 56.32L38.8001 45.7067C38.7189 45.5901 38.6154 45.4906 38.4956 45.414C38.3758 45.3375 38.2421 45.2853 38.1021 45.2605C37.9622 45.2358 37.8187 45.2389 37.6799 45.2697C37.5411 45.3005 37.4098 45.3584 37.2934 45.44C37.1902 45.5133 37.1001 45.6035 37.0268 45.7067L30.4934 56.32C29.2133 58.3964 28.5347 60.7874 28.5334 63.2267C28.5334 65.6313 29.4887 67.9375 31.189 69.6378C32.8893 71.3381 35.1955 72.2934 37.6001 72.2934H69.1601C69.9894 72.2934 70.7846 71.9639 71.371 71.3776C71.9574 70.7912 72.2868 69.9959 72.2868 69.1667C72.2868 68.3375 71.9574 67.5422 71.371 66.9558C70.7846 66.3694 69.9894 66.04 69.1601 66.04H69.1668ZM38.2268 70.2067H37.6068C36.6899 70.2076 35.7819 70.0276 34.9346 69.6772C34.0874 69.3267 33.3175 68.8126 32.6692 68.1643C32.0209 67.5159 31.5068 66.7461 31.1563 65.8989C30.8058 65.0516 30.6259 64.1436 30.6268 63.2267C30.6248 61.1735 31.195 59.1605 32.2734 57.4134L37.9201 48.24L43.5601 57.4134C44.6386 59.1605 45.2088 61.1735 45.2068 63.2267C45.2077 64.1436 45.0277 65.0516 44.6772 65.8989C44.3268 66.7461 43.8127 67.5159 43.1643 68.1643C42.516 68.8126 41.7462 69.3267 40.8989 69.6772C40.0517 70.0276 39.1437 70.2076 38.2268 70.2067ZM69.1668 70.2067H44.0001C44.9372 69.4396 45.7091 68.4906 46.2694 67.417C46.8297 66.3434 47.1667 65.1674 47.2601 63.96H60.8335C61.1093 63.96 61.3738 64.0696 61.5688 64.2646C61.7639 64.4597 61.8734 64.7242 61.8734 65C61.8734 65.8293 62.2029 66.6246 62.7892 67.2109C63.3756 67.7973 64.1709 68.1267 65.0001 68.1267H69.1668C69.4426 68.1267 69.7071 68.2363 69.9022 68.4313C70.0972 68.6263 70.2068 68.8909 70.2068 69.1667C70.2068 69.4425 70.0972 69.7071 69.9022 69.9021C69.7071 70.0971 69.4426 70.2067 69.1668 70.2067Z" fill="#1E2A3A"/>
<path d="M43.56 57.4133L37.92 48.24L32.2734 57.4133C31.1949 59.1604 30.6247 61.1735 30.6267 63.2267C30.6258 64.1435 30.8058 65.0516 31.1563 65.8988C31.5067 66.7461 32.0208 67.5159 32.6692 68.1642C33.3175 68.8126 34.0873 69.3267 34.9345 69.6771C35.7818 70.0276 36.6898 70.2075 37.6067 70.2067H38.2267C39.1436 70.2075 40.0516 70.0276 40.8989 69.6771C41.7461 69.3267 42.5159 68.8126 43.1643 68.1642C43.8126 67.5159 44.3267 66.7461 44.6772 65.8988C45.0276 65.0516 45.2076 64.1435 45.2067 63.2267C45.2087 61.1735 44.6385 59.1604 43.56 57.4133ZM37.92 68.1267V66.04C38.747 66.0382 39.5395 65.709 40.1243 65.1242C40.709 64.5395 41.0383 63.7469 41.04 62.92H43.1267C43.1232 64.2998 42.5735 65.6221 41.5978 66.5978C40.6221 67.5735 39.2999 68.1232 37.92 68.1267Z" fill="#FE444A"/>
</svg>
