<svg width="80" height="80" viewBox="0 0 80 80" fill="none" xmlns="http://www.w3.org/2000/svg">
<path d="M71.2534 20.2066H12.92C12.6424 20.2066 12.3762 20.3169 12.1799 20.5132C11.9836 20.7095 11.8734 20.9757 11.8734 21.2533V24.3733H8.74669C8.47086 24.3733 8.20633 24.4829 8.0113 24.6779C7.81626 24.873 7.70669 25.1375 7.70669 25.4133V58.7467C7.70581 58.8838 7.73206 59.0197 7.78393 59.1467C7.8358 59.2736 7.91227 59.3891 8.00893 59.4864C8.10559 59.5836 8.22053 59.6608 8.34715 59.7135C8.47376 59.7662 8.60955 59.7933 8.74669 59.7933H67.08C67.3576 59.7933 67.6238 59.683 67.8201 59.4868C68.0164 59.2905 68.1267 59.0242 68.1267 58.7467V55.6267H71.2534C71.5292 55.6267 71.7937 55.5171 71.9888 55.322C72.1838 55.127 72.2934 54.8625 72.2934 54.5867V21.2533C72.2942 21.1162 72.268 20.9802 72.2161 20.8533C72.1642 20.7263 72.0878 20.6109 71.9911 20.5136C71.8945 20.4163 71.7795 20.3391 71.6529 20.2864C71.5263 20.2338 71.3905 20.2066 71.2534 20.2066ZM66.04 57.7066H9.79335V26.46H66.04V57.7066ZM70.2067 53.54H68.1267V25.4133C68.1267 25.2762 68.0996 25.1404 68.0469 25.0138C67.9942 24.8872 67.917 24.7722 67.8197 24.6756C67.7225 24.5789 67.607 24.5024 67.4801 24.4506C67.3531 24.3987 67.2172 24.3724 67.08 24.3733H13.96V22.2933H70.2067V53.54Z" fill="#1E2A3A"/>
<path d="M12.92 53.54H31.6667C31.8033 53.54 31.9385 53.5131 32.0647 53.4608C32.1909 53.4085 32.3055 53.3319 32.4021 53.2354C32.4987 53.1388 32.5753 53.0241 32.6275 52.898C32.6798 52.7718 32.7067 52.6365 32.7067 52.5V31.6666C32.7067 31.5301 32.6798 31.3948 32.6275 31.2686C32.5753 31.1425 32.4987 31.0278 32.4021 30.9312C32.3055 30.8347 32.1909 30.7581 32.0647 30.7058C31.9385 30.6535 31.8033 30.6266 31.6667 30.6266H12.92C12.7829 30.6258 12.6469 30.652 12.52 30.7039C12.393 30.7558 12.2776 30.8322 12.1803 30.9289C12.083 31.0255 12.0058 31.1405 11.9532 31.2671C11.9005 31.3937 11.8733 31.5295 11.8734 31.6666V52.5C11.8733 52.6371 11.9005 52.7729 11.9532 52.8995C12.0058 53.0261 12.083 53.1411 12.1803 53.2377C12.2776 53.3344 12.393 53.4109 12.52 53.4627C12.6469 53.5146 12.7829 53.5408 12.92 53.54ZM20.2067 38.96C20.2054 38.547 20.3266 38.1429 20.5551 37.7989C20.7836 37.4548 21.109 37.1864 21.4902 37.0274C21.8714 36.8684 22.2911 36.8262 22.6963 36.9059C23.1016 36.9857 23.474 37.1839 23.7665 37.4754C24.059 37.767 24.2584 38.1388 24.3394 38.5438C24.4205 38.9487 24.3795 39.3686 24.2218 39.7503C24.0641 40.132 23.7966 40.4583 23.4533 40.6878C23.11 40.9174 22.7063 41.04 22.2934 41.04C21.7411 41.04 21.2113 40.821 20.8202 40.4312C20.4291 40.0413 20.2085 39.5122 20.2067 38.96ZM22.2934 43.1266C23.3984 43.1266 24.4582 43.5656 25.2396 44.347C26.021 45.1284 26.46 46.1882 26.46 47.2933V51.46H18.1267V47.2933C18.1267 46.1882 18.5657 45.1284 19.3471 44.347C20.1285 43.5656 21.1883 43.1266 22.2934 43.1266ZM13.96 32.7066H30.6267V51.46H28.54V47.2933C28.5429 46.1778 28.2471 45.0818 27.6832 44.1193C27.1192 43.1568 26.3079 42.3629 25.3334 41.82C25.9007 41.2313 26.2824 40.4888 26.4308 39.6848C26.5792 38.8808 26.4878 38.051 26.168 37.2985C25.8482 36.5461 25.3141 35.9044 24.6323 35.4533C23.9504 35.0023 23.1509 34.7617 22.3334 34.7617C21.5158 34.7617 20.7163 35.0023 20.0344 35.4533C19.3526 35.9044 18.8185 36.5461 18.4987 37.2985C18.1789 38.051 18.0875 38.8808 18.2359 39.6848C18.3843 40.4888 18.766 41.2313 19.3334 41.82C18.3522 42.358 17.5337 43.1499 16.9636 44.1128C16.3936 45.0758 16.093 46.1743 16.0934 47.2933V51.46H13.96V32.7066Z" fill="#1E2A3A"/>
<path d="M62.92 34.7933H59.7934V31.6666C59.7934 31.5295 59.7662 31.3937 59.7136 31.2671C59.6609 31.1405 59.5837 31.0255 59.4864 30.9289C59.3891 30.8322 59.2737 30.7558 59.1467 30.7039C59.0198 30.652 58.8838 30.6258 58.7467 30.6266H54.5867C54.4495 30.6258 54.3136 30.652 54.1866 30.7039C54.0597 30.7558 53.9443 30.8322 53.847 30.9289C53.7497 31.0255 53.6725 31.1405 53.6198 31.2671C53.5671 31.3937 53.54 31.5295 53.54 31.6666V34.7933H50.4134C50.1375 34.7933 49.873 34.9029 49.678 35.0979C49.4829 35.2929 49.3734 35.5575 49.3734 35.8333V40C49.3734 40.2758 49.4829 40.5403 49.678 40.7354C49.873 40.9304 50.1375 41.04 50.4134 41.04H53.54V44.1666C53.54 44.3038 53.5671 44.4396 53.6198 44.5662C53.6725 44.6928 53.7497 44.8077 53.847 44.9044C53.9443 45.0011 54.0597 45.0775 54.1866 45.1294C54.3136 45.1813 54.4495 45.2075 54.5867 45.2066H58.7467C58.8838 45.2075 59.0198 45.1813 59.1467 45.1294C59.2737 45.0775 59.3891 45.0011 59.4864 44.9044C59.5837 44.8077 59.6609 44.6928 59.7136 44.5662C59.7662 44.4396 59.7934 44.3038 59.7934 44.1666V41.04H62.92C63.1958 41.04 63.4604 40.9304 63.6554 40.7354C63.8504 40.5403 63.96 40.2758 63.96 40V35.8333C63.96 35.5575 63.8504 35.2929 63.6554 35.0979C63.4604 34.9029 63.1958 34.7933 62.92 34.7933ZM61.8733 38.96H58.7467C58.4709 38.96 58.2063 39.0695 58.0113 39.2646C57.8163 39.4596 57.7067 39.7241 57.7067 40V43.1266H55.6267V40C55.6267 39.7241 55.5171 39.4596 55.3221 39.2646C55.127 39.0695 54.8625 38.96 54.5867 38.96H51.46V36.8733H54.5867C54.8625 36.8733 55.127 36.7637 55.3221 36.5687C55.5171 36.3737 55.6267 36.1091 55.6267 35.8333V32.7066H57.7067V35.8333C57.7067 36.1091 57.8163 36.3737 58.0113 36.5687C58.2063 36.7637 58.4709 36.8733 58.7467 36.8733H61.8733V38.96Z" fill="#1E2A3A"/>
<path d="M61.8734 36.8733V38.96H58.7467C58.4709 38.96 58.2063 39.0696 58.0113 39.2646C57.8163 39.4596 57.7067 39.7242 57.7067 40V43.1266H55.6267V40C55.6267 39.7242 55.5171 39.4596 55.3221 39.2646C55.127 39.0696 54.8625 38.96 54.5867 38.96H51.46V36.8733H54.5867C54.8625 36.8733 55.127 36.7637 55.3221 36.5687C55.5171 36.3737 55.6267 36.1091 55.6267 35.8333V32.7066H57.7067V35.8333C57.7067 36.1091 57.8163 36.3737 58.0113 36.5687C58.2063 36.7637 58.4709 36.8733 58.7467 36.8733H61.8734Z" fill="#FE444A"/>
<path d="M35.8333 53.54H62.92C63.1958 53.54 63.4604 53.4304 63.6554 53.2354C63.8504 53.0403 63.96 52.7758 63.96 52.5V48.3333C63.96 48.0575 63.8504 47.793 63.6554 47.5979C63.4604 47.4029 63.1958 47.2933 62.92 47.2933H35.8333C35.5575 47.2933 35.293 47.4029 35.0979 47.5979C34.9029 47.793 34.7933 48.0575 34.7933 48.3333V52.5C34.7933 52.7758 34.9029 53.0403 35.0979 53.2354C35.293 53.4304 35.5575 53.54 35.8333 53.54ZM36.8733 49.3733H61.8733V51.46H36.8733V49.3733Z" fill="#1E2A3A"/>
<path d="M47.2933 30.6266H34.7933V32.7133H47.2933V30.6266Z" fill="#1E2A3A"/>
<path d="M47.2933 34.7933H34.7933V36.88H47.2933V34.7933Z" fill="#1E2A3A"/>
<path d="M47.2933 38.96H34.7933V41.0466H47.2933V38.96Z" fill="#1E2A3A"/>
<path d="M47.2933 43.1266H34.7933V45.2133H47.2933V43.1266Z" fill="#1E2A3A"/>
</svg>
