<svg width="80" height="80" viewBox="0 0 80 80" fill="none" xmlns="http://www.w3.org/2000/svg">
<path d="M43.6667 22.14C43.3405 20.9664 42.8513 19.8443 42.2133 18.8067L35.68 8.19334C35.5987 8.07669 35.4953 7.97724 35.3755 7.90068C35.2557 7.82411 35.122 7.77195 34.982 7.74717C34.8421 7.7224 34.6986 7.7255 34.5598 7.7563C34.421 7.78711 34.2897 7.845 34.1733 7.92667C34.0685 7.99809 33.9781 8.08855 33.9067 8.19334L27.3733 18.8067C26.0932 20.883 25.4146 23.2741 25.4133 25.7133C25.4133 28.118 26.3686 30.4241 28.0689 32.1244C29.7692 33.8248 32.0754 34.78 34.48 34.78H35.1067C37.5101 34.7782 39.8146 33.8222 41.5135 32.1221C43.2123 30.4219 44.1667 28.1168 44.1667 25.7133C44.1672 24.5048 43.9989 23.302 43.6667 22.14ZM35.1067 32.7067H34.48C33.5631 32.7075 32.6551 32.5276 31.8078 32.1771C30.9606 31.8267 30.1908 31.3126 29.5424 30.6642C28.8941 30.0159 28.38 29.2461 28.0295 28.3988C27.6791 27.5516 27.4991 26.6435 27.5 25.7267C27.498 23.6735 28.0682 21.6604 29.1467 19.9133L34.7933 10.74L40.44 19.9133C41.5132 21.6624 42.0809 23.6746 42.08 25.7267C42.0809 26.643 41.9011 27.5505 41.5511 28.3973C41.201 29.2441 40.6875 30.0136 40.0399 30.6619C39.3923 31.3101 38.6233 31.8244 37.7768 32.1752C36.9303 32.5261 36.023 32.7067 35.1067 32.7067Z" fill="#1E2A3A"/>
<path d="M40.44 19.9133L34.7933 10.74L29.1467 19.9133C28.0682 21.6604 27.498 23.6735 27.5 25.7267C27.4991 26.6435 27.6791 27.5516 28.0295 28.3988C28.38 29.2461 28.8941 30.0159 29.5424 30.6642C30.1908 31.3126 30.9606 31.8267 31.8078 32.1771C32.6551 32.5276 33.5631 32.7075 34.48 32.7067H35.1067C36.023 32.7067 36.9303 32.5261 37.7768 32.1752C38.6233 31.8244 39.3923 31.3101 40.0399 30.6619C40.6875 30.0136 41.2011 29.2441 41.5511 28.3973C41.9012 27.5505 42.0809 26.643 42.08 25.7267C42.0809 23.6746 41.5132 21.6624 40.44 19.9133ZM34.7933 30.6267V28.54C35.6226 28.54 36.4179 28.2106 37.0042 27.6242C37.5906 27.0379 37.92 26.2426 37.92 25.4133H40C39.9982 26.7943 39.4493 28.1183 38.4735 29.0954C37.4976 30.0725 36.1743 30.6231 34.7933 30.6267Z" fill="#FE444A"/>
<path d="M40 25.4133C39.9982 26.7943 39.4493 28.1183 38.4735 29.0954C37.4976 30.0725 36.1743 30.6231 34.7933 30.6267V28.54C35.6226 28.54 36.4179 28.2106 37.0042 27.6242C37.5906 27.0379 37.92 26.2426 37.92 25.4133H40Z" fill="#1E2A3A"/>
<path d="M27.5 57.7067H22.2933V52.5C22.2933 52.2242 22.1838 51.9597 21.9887 51.7646C21.7937 51.5696 21.5292 51.46 21.2533 51.46H15C14.7242 51.46 14.4596 51.5696 14.2646 51.7646C14.0696 51.9597 13.96 52.2242 13.96 52.5V57.7067H8.74666C8.47084 57.7067 8.20631 57.8163 8.01127 58.0113C7.81624 58.2063 7.70667 58.4709 7.70667 58.7467V65C7.70667 65.2758 7.81624 65.5404 8.01127 65.7354C8.20631 65.9305 8.47084 66.04 8.74666 66.04H13.96V71.2534C13.96 71.5292 14.0696 71.7937 14.2646 71.9887C14.4596 72.1838 14.7242 72.2934 15 72.2934H21.2533C21.5292 72.2934 21.7937 72.1838 21.9887 71.9887C22.1838 71.7937 22.2933 71.5292 22.2933 71.2534V66.04H27.5C27.7758 66.04 28.0403 65.9305 28.2354 65.7354C28.4304 65.5404 28.54 65.2758 28.54 65V58.7467C28.54 58.4709 28.4304 58.2063 28.2354 58.0113C28.0403 57.8163 27.7758 57.7067 27.5 57.7067ZM26.46 63.96H21.2533C21.1162 63.9591 20.9802 63.9854 20.8533 64.0373C20.7263 64.0891 20.6109 64.1656 20.5136 64.2623C20.4163 64.3589 20.3391 64.4739 20.2865 64.6005C20.2338 64.7271 20.2067 64.8629 20.2067 65V70.2067H16.04V65C16.04 64.7242 15.9304 64.4597 15.7354 64.2646C15.5404 64.0696 15.2758 63.96 15 63.96H9.79333V59.7934H15C15.1371 59.7934 15.2729 59.7662 15.3995 59.7136C15.5261 59.6609 15.6411 59.5837 15.7378 59.4864C15.8344 59.3891 15.9109 59.2737 15.9628 59.1467C16.0146 59.0198 16.0409 58.8838 16.04 58.7467V53.54H20.2067V58.7467C20.2067 59.0243 20.3169 59.2905 20.5132 59.4868C20.7095 59.6831 20.9757 59.7934 21.2533 59.7934H26.46V63.96Z" fill="#1E2A3A"/>
<path d="M63.96 55.6267C61.9314 55.6287 59.9732 56.3706 58.4525 57.7133C56.9318 59.056 55.9532 60.9073 55.7 62.92H49.3733C49.2362 62.92 49.1004 62.8929 48.9738 62.8402C48.8472 62.7875 48.7322 62.7103 48.6356 62.613C48.5389 62.5158 48.4624 62.4003 48.4106 62.2734C48.3587 62.1464 48.3325 62.0105 48.3333 61.8733V59.7933C48.3333 58.6883 47.8943 57.6285 47.1129 56.8471C46.3315 56.0657 45.2717 55.6267 44.1667 55.6267C43.0616 55.6267 42.0018 56.0657 41.2204 56.8471C40.439 57.6285 40 58.6883 40 59.7933V68.1267C39.9699 68.6588 39.7373 69.1593 39.3499 69.5254C38.9625 69.8915 38.4497 70.0954 37.9167 70.0954C37.3837 70.0954 36.8708 69.8915 36.4835 69.5254C36.0961 69.1593 35.8634 68.6588 35.8333 68.1267V51.46H36.8733C37.1509 51.46 37.4171 51.3497 37.6134 51.1534C37.8097 50.9572 37.92 50.6909 37.92 50.4133V45.02C44.5038 44.2257 50.571 41.0546 54.9817 36.1025C59.3924 31.1504 61.8431 24.7582 61.8733 18.1267V15C61.8733 14.3163 61.7387 13.6392 61.477 13.0075C61.2153 12.3758 60.8318 11.8018 60.3483 11.3183C59.8648 10.8349 59.2909 10.4513 58.6592 10.1897C58.0275 9.92802 57.3504 9.79334 56.6667 9.79334H51.46V8.74668C51.46 8.60954 51.4329 8.47375 51.3802 8.34714C51.3275 8.22052 51.2503 8.10558 51.153 8.00892C51.0558 7.91226 50.9403 7.83579 50.8134 7.78392C50.6864 7.73205 50.5505 7.7058 50.4133 7.70668H46.2533C46.1162 7.7058 45.9802 7.73205 45.8533 7.78392C45.7263 7.83579 45.6109 7.91226 45.5136 8.00892C45.4163 8.10558 45.3391 8.22052 45.2865 8.34714C45.2338 8.47375 45.2067 8.60954 45.2067 8.74668V17.08C45.2067 17.3576 45.3169 17.6238 45.5132 17.8201C45.7095 18.0164 45.9757 18.1267 46.2533 18.1267H50.4133C50.6909 18.1267 50.9571 18.0164 51.1534 17.8201C51.3497 17.6238 51.46 17.3576 51.46 17.08V16.04H55.6267V18.1267C55.6267 23.652 53.4317 28.9511 49.5247 32.8581C45.6177 36.7651 40.3187 38.96 34.7933 38.96C29.268 38.96 23.9689 36.7651 20.0619 32.8581C16.1549 28.9511 13.96 23.652 13.96 18.1267V16.04H18.1267V17.08C18.1258 17.2171 18.152 17.3531 18.2039 17.48C18.2558 17.607 18.3322 17.7224 18.4289 17.8197C18.5256 17.917 18.6405 17.9942 18.7671 18.0469C18.8937 18.0996 19.0295 18.1267 19.1667 18.1267H23.3333C23.4705 18.1267 23.6063 18.0996 23.7329 18.0469C23.8595 17.9942 23.9744 17.917 24.0711 17.8197C24.1677 17.7224 24.2442 17.607 24.2961 17.48C24.348 17.3531 24.3742 17.2171 24.3733 17.08V8.74668C24.3733 8.47085 24.2638 8.20632 24.0687 8.01129C23.8737 7.81625 23.6092 7.70668 23.3333 7.70668H19.1667C18.8908 7.70668 18.6263 7.81625 18.4313 8.01129C18.2362 8.20632 18.1267 8.47085 18.1267 8.74668V9.79334H12.92C11.5385 9.79334 10.2135 10.3417 9.23597 11.3179C8.25847 12.2942 7.70843 13.6185 7.70667 15V18.1267C7.7371 24.7592 10.1887 31.1523 14.6008 36.1045C19.0129 41.0567 25.0816 44.2272 31.6667 45.02V50.4133C31.6658 50.5505 31.692 50.6864 31.7439 50.8134C31.7958 50.9403 31.8722 51.0558 31.9689 51.153C32.0656 51.2503 32.1805 51.3275 32.3071 51.3802C32.4337 51.4329 32.5695 51.46 32.7067 51.46H33.7467V68.1267C33.7467 69.2317 34.1856 70.2916 34.9671 71.073C35.7485 71.8544 36.8083 72.2933 37.9133 72.2933C39.0184 72.2933 40.0782 71.8544 40.8596 71.073C41.641 70.2916 42.08 69.2317 42.08 68.1267V59.7933C42.08 59.2399 42.2998 58.7092 42.6912 58.3178C43.0825 57.9265 43.6132 57.7067 44.1667 57.7067C44.7201 57.7067 45.2508 57.9265 45.6422 58.3178C46.0335 58.7092 46.2533 59.2399 46.2533 59.7933V61.8733C46.2524 62.2836 46.3325 62.6901 46.4889 63.0694C46.6453 63.4487 46.875 63.7934 47.1648 64.0838C47.4546 64.3743 47.7988 64.6047 48.1778 64.7619C48.5568 64.9191 48.963 65 49.3733 65H55.7C55.9002 66.5916 56.5555 68.0916 57.5873 69.3199C58.6191 70.5482 59.9834 71.4526 61.5166 71.9246C63.0497 72.3965 64.6865 72.4159 66.2304 71.9804C67.7744 71.5449 69.1598 70.6731 70.2203 69.4695C71.2809 68.266 71.9716 66.782 72.2094 65.1955C72.4472 63.6091 72.2221 61.9878 71.5611 60.5261C70.9001 59.0645 69.8313 57.8247 68.483 56.9556C67.1347 56.0866 65.5641 55.6251 63.96 55.6267ZM49.3733 16.04H47.2933V9.79334H49.3733V16.04ZM20.2067 9.79334H22.2933V16.04H20.2067V9.79334ZM32.7933 43.04C26.5395 42.5135 20.7096 39.6638 16.4524 35.0524C12.1953 30.4411 9.81953 24.4026 9.79333 18.1267V15C9.79333 14.1708 10.1227 13.3755 10.7091 12.7891C11.2955 12.2028 12.0908 11.8733 12.92 11.8733H18.1267V13.96H13.96C13.4077 13.96 12.878 14.1789 12.4869 14.5688C12.0957 14.9587 11.8751 15.4877 11.8733 16.04V18.1267C11.9758 24.1369 14.4353 29.8662 18.7219 34.0803C23.0085 38.2944 28.7789 40.6558 34.79 40.6558C40.8011 40.6558 46.5715 38.2944 50.8581 34.0803C55.1446 29.8662 57.6041 24.1369 57.7067 18.1267V16.04C57.7067 15.7669 57.6529 15.4964 57.5483 15.244C57.4438 14.9917 57.2906 14.7624 57.0974 14.5692C56.9043 14.3761 56.675 14.2229 56.4226 14.1183C56.1703 14.0138 55.8998 13.96 55.6267 13.96H51.46V11.8733H56.6667C57.4959 11.8733 58.2912 12.2028 58.8776 12.7891C59.4639 13.3755 59.7933 14.1708 59.7933 15V18.1267C59.7656 24.4021 57.3893 30.4398 53.1325 35.0508C48.8756 39.6618 43.0466 42.512 36.7933 43.04C36.531 43.0587 36.2857 43.1766 36.1073 43.3699C35.929 43.5631 35.831 43.817 35.8333 44.08V49.3733H33.7467V44.04C33.7407 43.7846 33.6397 43.5406 33.4634 43.3557C33.2871 43.1707 33.0482 43.0582 32.7933 43.04ZM63.96 70.2067C62.7226 70.208 61.5127 69.8422 60.4833 69.1556C59.4539 68.469 58.6514 67.4924 58.1773 66.3495C57.7032 65.2065 57.5788 63.9487 57.8198 62.735C58.0609 61.5214 58.6566 60.4065 59.5316 59.5316C60.4065 58.6566 61.5214 58.0609 62.735 57.8198C63.9487 57.5788 65.2065 57.7032 66.3495 58.1773C67.4924 58.6514 68.4689 59.454 69.1556 60.4833C69.8422 61.5127 70.208 62.7227 70.2067 63.96C70.2067 64.7803 70.0451 65.5926 69.7312 66.3505C69.4172 67.1084 68.9571 67.797 68.3771 68.3771C67.797 68.9571 67.1084 69.4172 66.3505 69.7312C65.5926 70.0451 64.7803 70.2067 63.96 70.2067Z" fill="#1E2A3A"/>
<path d="M63.96 59.7934C63.1359 59.7934 62.3303 60.0377 61.6451 60.4956C60.9599 60.9534 60.4259 61.6041 60.1105 62.3655C59.7951 63.1269 59.7126 63.9646 59.8734 64.7729C60.0342 65.5812 60.431 66.3236 61.0137 66.9063C61.5964 67.489 62.3389 67.8859 63.1471 68.0466C63.9554 68.2074 64.7932 68.1249 65.5545 67.8095C66.3159 67.4942 66.9666 66.9601 67.4245 66.2749C67.8823 65.5897 68.1267 64.7841 68.1267 63.96C68.1267 62.855 67.6877 61.7951 66.9063 61.0137C66.1249 60.2323 65.0651 59.7934 63.96 59.7934ZM63.96 66.04C63.5467 66.0413 63.1424 65.9199 62.7982 65.6911C62.454 65.4624 62.1856 65.1365 62.0268 64.755C61.868 64.3734 61.8261 63.9533 61.9065 63.5479C61.9868 63.1425 62.1856 62.7701 62.4779 62.4779C62.7701 62.1856 63.1425 61.9868 63.5479 61.9065C63.9533 61.8262 64.3734 61.8681 64.755 62.0268C65.1365 62.1856 65.4623 62.4541 65.6911 62.7982C65.9199 63.1424 66.0413 63.5468 66.04 63.96C66.0382 64.5111 65.8185 65.0392 65.4288 65.4289C65.0391 65.8186 64.5111 66.0383 63.96 66.04Z" fill="#1E2A3A"/>
</svg>
