<svg width="80" height="80" viewBox="0 0 80 80" fill="none" xmlns="http://www.w3.org/2000/svg">
<path d="M69.1666 26.46C68.7681 26.4539 68.3721 26.524 68 26.6667C67.7901 25.8718 67.2737 25.1925 66.5639 24.7776C65.8542 24.3627 65.0089 24.2461 64.2133 24.4533C64.084 24.4897 63.957 24.5342 63.8333 24.5867C63.6558 23.9268 63.2656 23.3438 62.7233 22.9281C62.1809 22.5124 61.5167 22.2871 60.8333 22.2871C60.15 22.2871 59.4857 22.5124 58.9433 22.9281C58.401 23.3438 58.0108 23.9268 57.8333 24.5867C57.4553 24.4312 57.0502 24.3521 56.6414 24.3538C56.2327 24.3556 55.8283 24.4381 55.4516 24.5967C55.0749 24.7554 54.7332 24.9869 54.4463 25.2781C54.1595 25.5693 53.933 25.9143 53.78 26.2933C53.6265 26.6702 53.5473 27.0731 53.5466 27.48V34.9867C53.2146 34.8597 52.8622 34.7942 52.5066 34.7933C51.6774 34.7933 50.8821 35.1227 50.2958 35.7091C49.7094 36.2955 49.38 37.0907 49.38 37.92V41.4C49.3701 45.299 50.8623 49.0521 53.5466 51.88V57.7066H50.4133C49.5852 57.7084 48.7917 58.0386 48.2067 58.6248C47.6218 59.211 47.2933 60.0052 47.2933 60.8333V62.92C47.2723 63.1823 47.1533 63.4271 46.96 63.6056C46.7666 63.7841 46.5131 63.8832 46.25 63.8832C45.9868 63.8832 45.7333 63.7841 45.54 63.6056C45.3466 63.4271 45.2276 63.1823 45.2066 62.92V60.8333C45.2262 60.411 45.1598 59.9891 45.0117 59.5932C44.8635 59.1973 44.6366 58.8355 44.3447 58.5297C44.0527 58.224 43.7018 57.9806 43.3131 57.8143C42.9244 57.648 42.5061 57.5623 42.0833 57.5623C41.6606 57.5623 41.2422 57.648 40.8535 57.8143C40.4648 57.9806 40.1139 58.224 39.822 58.5297C39.53 58.8355 39.3031 59.1973 39.1549 59.5932C39.0068 59.9891 38.9405 60.411 38.96 60.8333V69.1666C38.939 69.429 38.82 69.6737 38.6266 69.8522C38.4333 70.0307 38.1798 70.1298 37.9166 70.1298C37.6535 70.1298 37.4 70.0307 37.2067 69.8522C37.0133 69.6737 36.8943 69.429 36.8733 69.1666V54.5866C36.8928 54.1643 36.8265 53.7425 36.6783 53.3465C36.5302 52.9506 36.3033 52.5888 36.0113 52.2831C35.7194 51.9773 35.3684 51.7339 34.9798 51.5677C34.5911 51.4014 34.1727 51.3156 33.75 51.3156C33.3272 51.3156 32.9089 51.4014 32.5202 51.5677C32.1315 51.7339 31.7806 51.9773 31.4886 52.2831C31.1967 52.5888 30.9698 52.9506 30.8216 53.3465C30.6734 53.7425 30.6071 54.1643 30.6266 54.5866V56.6666C30.6266 56.9425 30.5171 57.207 30.322 57.402C30.127 57.5971 29.8625 57.7066 29.5866 57.7066H26.46V51.88C29.1443 49.0521 30.6365 45.299 30.6266 41.4V37.92C30.6266 37.0907 30.2972 36.2955 29.7109 35.7091C29.1245 35.1227 28.3292 34.7933 27.5 34.7933C27.1445 34.7942 26.7921 34.8597 26.46 34.9867V27.5C26.4632 26.9883 26.3399 26.4837 26.1012 26.031C25.8624 25.5784 25.5156 25.1918 25.0914 24.9055C24.6672 24.6192 24.1789 24.4421 23.6698 24.39C23.1608 24.3378 22.6467 24.4123 22.1733 24.6067C21.9958 23.9468 21.6056 23.3638 21.0633 22.9481C20.5209 22.5324 19.8567 22.3071 19.1733 22.3071C18.49 22.3071 17.8257 22.5324 17.2833 22.9481C16.741 23.3638 16.3508 23.9468 16.1733 24.6067C15.4171 24.3053 14.5725 24.3149 13.8234 24.6333C13.0742 24.9517 12.4812 25.5531 12.1733 26.3067C12.1063 26.422 12.0483 26.5423 12 26.6667C11.5259 26.4755 11.0122 26.4038 10.5039 26.4577C9.99563 26.5117 9.5084 26.6897 9.08505 26.9761C8.6617 27.2625 8.3152 27.6486 8.07601 28.1003C7.83682 28.552 7.71227 29.0555 7.71331 29.5666V41.4C7.70346 45.299 9.19561 49.0521 11.88 51.88V71.2533C11.88 71.3904 11.9071 71.5262 11.9598 71.6529C12.0125 71.7795 12.0897 71.8944 12.1869 71.9911C12.2842 72.0877 12.3997 72.1642 12.5266 72.2161C12.6535 72.2679 12.7895 72.2942 12.9266 72.2933H25.4133C25.5504 72.2942 25.6864 72.2679 25.8133 72.2161C25.9403 72.1642 26.0557 72.0877 26.153 71.9911C26.2503 71.8944 26.3275 71.7795 26.3802 71.6529C26.4329 71.5262 26.46 71.3904 26.46 71.2533V59.7933H29.5866C30.4147 59.7916 31.2083 59.4614 31.7932 58.8752C32.3781 58.289 32.7066 57.4947 32.7066 56.6666V54.5866C32.6951 54.4426 32.7135 54.2978 32.7607 54.1612C32.808 54.0247 32.8829 53.8994 32.9809 53.7932C33.0789 53.687 33.1979 53.6023 33.3302 53.5444C33.4626 53.4864 33.6055 53.4565 33.75 53.4565C33.8945 53.4565 34.0374 53.4864 34.1697 53.5444C34.3021 53.6023 34.421 53.687 34.519 53.7932C34.617 53.8994 34.692 54.0247 34.7392 54.1612C34.7864 54.2978 34.8048 54.4426 34.7933 54.5866V69.1666C34.7738 69.589 34.8401 70.0108 34.9883 70.4068C35.1364 70.8027 35.3633 71.1645 35.6553 71.4702C35.9472 71.776 36.2982 72.0194 36.6868 72.1856C37.0755 72.3519 37.4939 72.4377 37.9166 72.4377C38.3394 72.4377 38.7578 72.3519 39.1464 72.1856C39.5351 72.0194 39.886 71.776 40.178 71.4702C40.4699 71.1645 40.6968 70.8027 40.845 70.4068C40.9932 70.0108 41.0595 69.589 41.04 69.1666V60.8333C41.061 60.571 41.18 60.3262 41.3733 60.1477C41.5667 59.9692 41.8202 59.8701 42.0833 59.8701C42.3465 59.8701 42.5999 59.9692 42.7933 60.1477C42.9866 60.3262 43.1057 60.571 43.1266 60.8333V62.92C43.1638 63.7234 43.509 64.4816 44.0907 65.037C44.6724 65.5924 45.4457 65.9023 46.25 65.9023C47.0542 65.9023 47.8276 65.5924 48.4092 65.037C48.9909 64.4816 49.3362 63.7234 49.3733 62.92V60.8333C49.3733 60.5575 49.4829 60.293 49.6779 60.0979C49.873 59.9029 50.1375 59.7933 50.4133 59.7933H53.54V71.2533C53.54 71.3904 53.5671 71.5262 53.6198 71.6529C53.6725 71.7795 53.7497 71.8944 53.8469 71.9911C53.9442 72.0877 54.0597 72.1642 54.1866 72.2161C54.3136 72.2679 54.4495 72.2942 54.5866 72.2933H67.08C67.2171 72.2942 67.3531 72.2679 67.48 72.2161C67.607 72.1642 67.7224 72.0877 67.8197 71.9911C67.917 71.8944 67.9942 71.7795 68.0468 71.6529C68.0995 71.5262 68.1266 71.3904 68.1266 71.2533V51.88C70.811 49.0521 72.3032 45.299 72.2933 41.4V29.5867C72.2933 28.7574 71.9639 27.9621 71.3775 27.3758C70.7912 26.7894 69.9959 26.46 69.1666 26.46ZM24.3733 70.2066H13.96V51.46C13.9585 51.1827 13.8484 50.917 13.6533 50.72C12.4231 49.498 11.4483 48.0435 10.7856 46.4411C10.1229 44.8388 9.78559 43.1206 9.79331 41.3867V29.5867C9.79331 29.3108 9.90288 29.0463 10.0979 28.8513C10.293 28.6562 10.5575 28.5467 10.8333 28.5467C11.1091 28.5467 11.3737 28.6562 11.5687 28.8513C11.7637 29.0463 11.8733 29.3108 11.8733 29.5867V37.92H13.96V27.5C13.96 27.2242 14.0695 26.9596 14.2646 26.7646C14.4596 26.5696 14.7241 26.46 15 26.46C15.2758 26.46 15.5403 26.5696 15.7354 26.7646C15.9304 26.9596 16.04 27.2242 16.04 27.5V37.92H18.1266V25.4133C18.1266 25.1375 18.2362 24.873 18.4312 24.6779C18.6263 24.4829 18.8908 24.3733 19.1666 24.3733C19.4425 24.3733 19.707 24.4829 19.902 24.6779C20.0971 24.873 20.2066 25.1375 20.2066 25.4133V37.92H22.2933V27.5C22.2933 27.2242 22.4029 26.9596 22.5979 26.7646C22.793 26.5696 23.0575 26.46 23.3333 26.46C23.6091 26.46 23.8737 26.5696 24.0687 26.7646C24.2637 26.9596 24.3733 27.2242 24.3733 27.5V41.1467C23.198 41.3901 22.1424 42.0305 21.3836 42.9605C20.6248 43.8904 20.2093 45.0531 20.2066 46.2533H22.2933C22.2933 45.4252 22.6218 44.631 23.2067 44.0448C23.7916 43.4586 24.5852 43.1284 25.4133 43.1267C25.6909 43.1267 25.9571 43.0164 26.1534 42.8201C26.3497 42.6238 26.46 42.3576 26.46 42.08V37.92C26.46 37.7834 26.4869 37.6482 26.5391 37.522C26.5914 37.3958 26.668 37.2812 26.7646 37.1846C26.8612 37.088 26.9758 37.0114 27.102 36.9591C27.2282 36.9069 27.3634 36.88 27.5 36.88C27.6365 36.88 27.7718 36.9069 27.898 36.9591C28.0241 37.0114 28.1388 37.088 28.2354 37.1846C28.3319 37.2812 28.4085 37.3958 28.4608 37.522C28.5131 37.6482 28.54 37.7834 28.54 37.92V41.4C28.5477 43.1339 28.2104 44.8521 27.5477 46.4545C26.885 48.0568 25.9102 49.5113 24.68 50.7333C24.4849 50.9304 24.3748 51.196 24.3733 51.4733V57.72H22.2933V56.6666C22.2933 56.3908 22.1837 56.1263 21.9887 55.9313C21.7937 55.7362 21.5291 55.6267 21.2533 55.6267H17.08C16.8041 55.6267 16.5396 55.7362 16.3446 55.9313C16.1495 56.1263 16.04 56.3908 16.04 56.6666V60.8333C16.04 61.1091 16.1495 61.3737 16.3446 61.5687C16.5396 61.7637 16.8041 61.8733 17.08 61.8733H21.2533C21.5291 61.8733 21.7937 61.7637 21.9887 61.5687C22.1837 61.3737 22.2933 61.1091 22.2933 60.8333V59.7933H24.3733V70.2066ZM20.2066 57.7066V59.7933H18.1266V57.7066H20.2066ZM70.2066 41.4C70.2144 43.1339 69.8771 44.8521 69.2144 46.4545C68.5517 48.0568 67.5769 49.5113 66.3466 50.7333C66.1516 50.9304 66.0415 51.196 66.04 51.4733V70.22H55.6266V59.7933H57.7066V60.8333C57.7066 61.1091 57.8162 61.3737 58.0113 61.5687C58.2063 61.7637 58.4708 61.8733 58.7466 61.8733H62.92C63.1958 61.8733 63.4603 61.7637 63.6554 61.5687C63.8504 61.3737 63.96 61.1091 63.96 60.8333V56.6666C63.96 56.3908 63.8504 56.1263 63.6554 55.9313C63.4603 55.7362 63.1958 55.6267 62.92 55.6267H58.7466C58.4708 55.6267 58.2063 55.7362 58.0113 55.9313C57.8162 56.1263 57.7066 56.3908 57.7066 56.6666V57.7066H55.6266V51.46C55.6287 51.1846 55.5235 50.9192 55.3333 50.72C54.1031 49.498 53.1283 48.0435 52.4656 46.4411C51.8029 44.8388 51.4656 43.1206 51.4733 41.3867V37.92C51.4733 37.6442 51.5829 37.3796 51.7779 37.1846C51.973 36.9896 52.2375 36.88 52.5133 36.88C52.7891 36.88 53.0537 36.9896 53.2487 37.1846C53.4437 37.3796 53.5533 37.6442 53.5533 37.92V42.08C53.5533 42.3576 53.6636 42.6238 53.8599 42.8201C54.0562 43.0164 54.3224 43.1267 54.6 43.1267C55.4281 43.1284 56.2216 43.4586 56.8066 44.0448C57.3915 44.631 57.72 45.4252 57.72 46.2533H59.8066C59.804 45.0531 59.3884 43.8904 58.6297 42.9605C57.8709 42.0305 56.8152 41.3901 55.64 41.1467V27.5C55.64 27.2242 55.7495 26.9596 55.9446 26.7646C56.1396 26.5696 56.4041 26.46 56.68 26.46C56.9558 26.46 57.2203 26.5696 57.4154 26.7646C57.6104 26.9596 57.72 27.2242 57.72 27.5V37.92H59.8066V25.4133C59.8066 25.1375 59.9162 24.873 60.1113 24.6779C60.3063 24.4829 60.5708 24.3733 60.8466 24.3733C61.1225 24.3733 61.387 24.4829 61.582 24.6779C61.7771 24.873 61.8866 25.1375 61.8866 25.4133V37.92H63.9733V27.5C63.9733 27.2242 64.0829 26.9596 64.2779 26.7646C64.473 26.5696 64.7375 26.46 65.0133 26.46C65.2891 26.46 65.5537 26.5696 65.7487 26.7646C65.9437 26.9596 66.0533 27.2242 66.0533 27.5V37.92H68.14V29.5867C68.14 29.3108 68.2495 29.0463 68.4446 28.8513C68.6396 28.6562 68.9041 28.5467 69.18 28.5467C69.4558 28.5467 69.7203 28.6562 69.9154 28.8513C70.1104 29.0463 70.22 29.3108 70.22 29.5867L70.2066 41.4ZM59.7933 59.7933V57.7066H61.8733V59.7933H59.7933Z" fill="#1E2A3A"/>
<path d="M49.5467 21.2L40.88 8.17332C40.7945 8.05506 40.686 7.95535 40.5609 7.8802C40.4358 7.80506 40.2968 7.75603 40.1523 7.7361C40.0077 7.71616 39.8606 7.72572 39.7199 7.7642C39.5791 7.80268 39.4476 7.86928 39.3333 7.95999C39.249 8.01886 39.1748 8.09089 39.1133 8.17332L30.4467 21.2C29.1995 23.0644 28.5336 25.2569 28.5333 27.5C28.534 28.956 28.8223 30.3976 29.3818 31.7419C29.9412 33.0862 30.7608 34.3067 31.7933 35.3333L32.1533 35.6867C34.2348 37.767 37.0572 38.9356 40 38.9356C42.9428 38.9356 45.7652 37.767 47.8467 35.6867L48.2067 35.3267C49.2408 34.2988 50.0608 33.076 50.6192 31.7292C51.1777 30.3823 51.4634 28.938 51.46 27.48C51.4558 25.2437 50.79 23.0587 49.5467 21.2ZM46.7333 33.8667L46.3733 34.2267C44.683 35.917 42.3904 36.8665 40 36.8665C37.6095 36.8665 35.317 35.917 33.6267 34.2267L33.2667 33.8733C32.4211 33.04 31.7499 32.0467 31.292 30.9514C30.8342 29.856 30.599 28.6805 30.6 27.4933C30.5978 25.661 31.1408 23.8694 32.16 22.3467L40 10.6267L47.8133 22.3467C48.8315 23.8723 49.3744 25.6657 49.3733 27.5C49.3777 28.6843 49.1466 29.8576 48.6933 30.9518C48.2401 32.0459 47.5739 33.039 46.7333 33.8733V33.8667Z" fill="#1E2A3A"/>
<path d="M47.8133 22.3467L40 10.6266L32.1867 22.3533C31.1675 23.8761 30.6245 25.6676 30.6267 27.5C30.6256 28.6872 30.8609 29.8627 31.3187 30.958C31.7765 32.0534 32.4478 33.0467 33.2933 33.88L33.6533 34.2333C35.3436 35.9236 37.6362 36.8732 40.0267 36.8732C42.4171 36.8732 44.7097 35.9236 46.4 34.2333L46.76 33.8733C47.6053 33.0412 48.2765 32.0491 48.7344 30.9549C49.1922 29.8606 49.4275 28.6862 49.4267 27.5C49.412 25.6602 48.8504 23.8663 47.8133 22.3467ZM47.2933 29.5867C47.2933 29.8625 47.1837 30.127 46.9887 30.322C46.7937 30.5171 46.5291 30.6266 46.2533 30.6266H43.1267V33.7467C43.1267 34.0242 43.0164 34.2905 42.8201 34.4868C42.6238 34.683 42.3576 34.7933 42.08 34.7933H37.92C37.6424 34.7933 37.3762 34.683 37.1799 34.4868C36.9836 34.2905 36.8733 34.0242 36.8733 33.7467V30.6266H33.7467C33.4708 30.6266 33.2063 30.5171 33.0113 30.322C32.8162 30.127 32.7067 29.8625 32.7067 29.5867V25.4133C32.7067 25.1375 32.8162 24.873 33.0113 24.6779C33.2063 24.4829 33.4708 24.3733 33.7467 24.3733H36.8733V21.2533C36.8733 20.9757 36.9836 20.7095 37.1799 20.5132C37.3762 20.3169 37.6424 20.2066 37.92 20.2066H42.08C42.3576 20.2066 42.6238 20.3169 42.8201 20.5132C43.0164 20.7095 43.1267 20.9757 43.1267 21.2533V24.3733H46.2533C46.5291 24.3733 46.7937 24.4829 46.9887 24.6779C47.1837 24.873 47.2933 25.1375 47.2933 25.4133V29.5867Z" fill="#FE444A"/>
<path d="M46.2533 24.3733H43.1267V21.2533C43.1267 20.9757 43.0164 20.7095 42.8201 20.5132C42.6238 20.3169 42.3576 20.2066 42.08 20.2066H37.92C37.6424 20.2066 37.3762 20.3169 37.1799 20.5132C36.9836 20.7095 36.8733 20.9757 36.8733 21.2533V24.3733H33.7467C33.4708 24.3733 33.2063 24.4829 33.0113 24.6779C32.8162 24.873 32.7067 25.1375 32.7067 25.4133V29.5867C32.7067 29.8625 32.8162 30.127 33.0113 30.322C33.2063 30.5171 33.4708 30.6266 33.7467 30.6266H36.8733V33.7466C36.8733 34.0242 36.9836 34.2905 37.1799 34.4868C37.3762 34.683 37.6424 34.7933 37.92 34.7933H42.08C42.3576 34.7933 42.6238 34.683 42.8201 34.4868C43.0164 34.2905 43.1267 34.0242 43.1267 33.7466V30.6266H46.2533C46.5292 30.6266 46.7937 30.5171 46.9887 30.322C47.1838 30.127 47.2933 29.8625 47.2933 29.5867V25.4133C47.2933 25.1375 47.1838 24.873 46.9887 24.6779C46.7937 24.4829 46.5292 24.3733 46.2533 24.3733ZM45.2067 28.54H42.08C41.9429 28.54 41.8071 28.5671 41.6805 28.6198C41.5538 28.6725 41.4389 28.7497 41.3422 28.8469C41.2456 28.9442 41.1691 29.0597 41.1172 29.1866C41.0654 29.3136 41.0391 29.4495 41.04 29.5867V32.7067H38.96V29.5867C38.9609 29.4495 38.9346 29.3136 38.8828 29.1866C38.8309 29.0597 38.7544 28.9442 38.6578 28.8469C38.5611 28.7497 38.4461 28.6725 38.3195 28.6198C38.1929 28.5671 38.0571 28.54 37.92 28.54H34.7933V26.46H37.92C38.0571 26.46 38.1929 26.4329 38.3195 26.3802C38.4461 26.3275 38.5611 26.2503 38.6578 26.153C38.7544 26.0557 38.8309 25.9403 38.8828 25.8134C38.9346 25.6864 38.9609 25.5505 38.96 25.4133V22.2933H41.04V25.4133C41.0391 25.5505 41.0654 25.6864 41.1172 25.8134C41.1691 25.9403 41.2456 26.0557 41.3422 26.153C41.4389 26.2503 41.5538 26.3275 41.6805 26.3802C41.8071 26.4329 41.9429 26.46 42.08 26.46H45.2067V28.54Z" fill="#1E2A3A"/>
</svg>
