<?xml version="1.0" encoding="UTF-8"?><svg id="Layer_1" xmlns="http://www.w3.org/2000/svg" viewBox="0 0 79.2 79.2"><defs><style>.cls-1{fill:none;stroke:#e30513;stroke-miterlimit:10;stroke-width:3px;}.cls-2{fill:#fff;}.cls-3{fill:#e30513;}</style></defs><circle class="cls-1" cx="39.6" cy="39.6" r="23.6"/><g><path class="cls-3" d="M54.56,31.56c-.79,0-1.56-.15-2.29-.46-.73-.3-1.38-.74-1.94-1.3-.56-.56-.99-1.21-1.3-1.94-.3-.73-.45-1.5-.45-2.29,0-1.78,.5-3.51,1.45-5.02l3.28-5.19c.16-.23,.29-.36,.43-.47,.38-.27,.75-.39,1.15-.39h.12l.18,.03c.5,.08,.93,.35,1.23,.76l3.33,5.26c.95,1.5,1.45,3.24,1.45,5.02,0,.79-.15,1.56-.45,2.29s-.74,1.38-1.3,1.94c-.56,.56-1.21,1-1.94,1.3-.73,.3-1.5,.46-2.29,.46h-.66Z"/><path class="cls-2" d="M54.89,16s.04,0,.06,0c.1,.02,.19,.07,.25,.16l3.28,5.19c.8,1.26,1.22,2.72,1.22,4.22,0,.59-.12,1.17-.34,1.72-.23,.54-.56,1.04-.97,1.46-.42,.42-.91,.75-1.45,.97-.54,.23-1.13,.34-1.72,.34h-.66c-.59,0-1.17-.12-1.72-.34-.54-.23-1.04-.56-1.45-.97-.42-.42-.75-.91-.97-1.46-.23-.54-.34-1.13-.34-1.72,0-1.49,.42-2.95,1.22-4.22l3.28-5.19s.05-.06,.09-.09c.07-.05,.14-.07,.22-.07m0-3c-.71,0-1.38,.22-1.96,.63l-.05,.04-.05,.04c-.26,.2-.48,.43-.67,.69l-.06,.08-.05,.09-3.28,5.19c-1.1,1.74-1.68,3.76-1.68,5.82,0,.99,.19,1.95,.57,2.86,.38,.91,.92,1.73,1.62,2.43,.7,.7,1.51,1.25,2.43,1.62,.91,.38,1.88,.57,2.86,.57h.66c.99,0,1.95-.19,2.87-.57,.91-.38,1.73-.92,2.43-1.62,.7-.7,1.24-1.52,1.62-2.43,.38-.91,.57-1.88,.57-2.86,0-2.06-.58-4.07-1.68-5.82l-3.28-5.19-.05-.07-.05-.07c-.53-.73-1.3-1.22-2.2-1.37-.18-.03-.37-.05-.56-.05h0Z"/></g><g><path class="cls-3" d="M45.15,36.29l-5.07-8.02c-.09-.13-.23-.22-.39-.24-.16-.03-.32,.01-.44,.1-.05,.04-.1,.09-.14,.14l-5.07,8.02c-1.23,1.95-1.89,4.21-1.89,6.52,0,.91,.18,1.81,.53,2.65,.35,.84,.86,1.61,1.5,2.25,.64,.64,1.41,1.16,2.25,1.5,.84,.35,1.74,.53,2.65,.53h1.02c.91,0,1.81-.18,2.65-.53,.84-.35,1.6-.86,2.25-1.5,.64-.64,1.15-1.41,1.5-2.25,.35-.84,.53-1.74,.53-2.65,0-2.31-.65-4.57-1.89-6.52h0Z"/><path class="cls-2" d="M40.25,46.73c-1.55,0-2.72-.55-3.71-1.54-.98-.98-1.54-2.38-1.54-3.71s1.86-1.32,2.1,0c.14,.8,.33,1.64,.92,2.23,.59,.59,1.25,.85,2.23,.92,1.5,.12,1.55,2.09,0,2.09Z"/></g><g><path class="cls-3" d="M54.56,62.09c-.79,0-1.56-.15-2.29-.46-.73-.3-1.38-.74-1.94-1.3s-1-1.21-1.3-1.94c-.3-.73-.45-1.5-.45-2.29,0-1.78,.5-3.51,1.45-5.02l3.28-5.19c.16-.23,.29-.36,.43-.47,.38-.27,.75-.39,1.15-.39h.13l.19,.03c.48,.08,.93,.36,1.22,.76l3.33,5.26c.95,1.5,1.45,3.24,1.45,5.02,0,.79-.15,1.56-.45,2.29s-.74,1.38-1.3,1.94-1.21,1-1.94,1.3c-.73,.3-1.5,.46-2.29,.46h-.66Z"/><path class="cls-2" d="M54.89,46.53s.04,0,.06,0c.1,.02,.19,.07,.25,.16l3.28,5.19c.8,1.26,1.22,2.72,1.22,4.22,0,.59-.12,1.17-.34,1.72-.23,.54-.56,1.04-.97,1.46-.42,.42-.91,.75-1.45,.97-.54,.23-1.13,.34-1.72,.34h-.66c-.59,0-1.17-.12-1.72-.34-.54-.23-1.04-.56-1.45-.97-.42-.42-.75-.91-.97-1.46-.23-.54-.34-1.13-.34-1.72,0-1.49,.42-2.95,1.22-4.22l3.28-5.19s.05-.06,.09-.09c.07-.05,.14-.07,.22-.07m0-3c-.71,0-1.38,.22-1.96,.63l-.05,.04-.05,.04c-.26,.2-.48,.43-.67,.69l-.06,.08-.05,.08-3.28,5.19c-1.1,1.74-1.68,3.76-1.68,5.82,0,.99,.19,1.95,.57,2.86,.38,.91,.92,1.73,1.62,2.43,.7,.7,1.51,1.25,2.43,1.62,.91,.38,1.88,.57,2.86,.57h.66c.99,0,1.95-.19,2.87-.57,.91-.38,1.73-.92,2.43-1.62,.7-.7,1.24-1.52,1.62-2.43,.38-.91,.57-1.88,.57-2.86,0-2.06-.58-4.07-1.68-5.82l-3.28-5.19-.05-.07-.05-.07c-.53-.73-1.3-1.22-2.2-1.37-.18-.03-.37-.05-.56-.05h0Z"/></g><g><path class="cls-3" d="M23.08,31.56c-.79,0-1.56-.15-2.29-.46-.73-.3-1.38-.74-1.94-1.3-.56-.56-.99-1.21-1.3-1.94-.3-.73-.45-1.5-.45-2.29,0-1.78,.5-3.51,1.45-5.02l3.28-5.19c.16-.23,.29-.36,.43-.47,.38-.27,.75-.39,1.15-.39h.12l.18,.03c.5,.08,.93,.35,1.23,.76l3.33,5.26c.95,1.5,1.45,3.24,1.45,5.02,0,.79-.15,1.56-.45,2.29s-.74,1.38-1.3,1.94c-.56,.56-1.21,1-1.94,1.3-.73,.3-1.5,.46-2.29,.46h-.66Z"/><path class="cls-2" d="M23.4,16s.04,0,.06,0c.1,.02,.19,.07,.25,.16l3.28,5.19c.8,1.26,1.22,2.72,1.22,4.22,0,.59-.12,1.17-.34,1.72-.23,.54-.56,1.04-.97,1.46-.42,.42-.91,.75-1.45,.97-.54,.23-1.13,.34-1.72,.34h-.66c-.59,0-1.17-.12-1.72-.34-.54-.23-1.04-.56-1.45-.97-.42-.42-.75-.91-.97-1.46-.23-.54-.34-1.13-.34-1.72,0-1.49,.42-2.95,1.22-4.22l3.28-5.19s.05-.06,.09-.09c.07-.05,.14-.07,.22-.07m0-3c-.71,0-1.38,.22-1.96,.63l-.05,.04-.05,.04c-.25,.2-.48,.43-.67,.69l-.06,.08-.06,.09-3.28,5.19c-1.1,1.74-1.68,3.76-1.68,5.82,0,.99,.19,1.95,.57,2.86,.38,.91,.92,1.73,1.62,2.43,.7,.7,1.51,1.25,2.43,1.62,.91,.38,1.88,.57,2.86,.57h.66c.99,0,1.95-.19,2.87-.57,.91-.38,1.73-.92,2.43-1.62,.7-.7,1.24-1.52,1.62-2.43,.38-.91,.57-1.88,.57-2.86,0-2.06-.58-4.07-1.68-5.82l-3.28-5.19-.05-.07-.05-.07c-.53-.73-1.3-1.22-2.19-1.37-.18-.03-.37-.05-.56-.05h0Z"/></g><g><path class="cls-3" d="M23.08,62.09c-.79,0-1.56-.15-2.29-.46-.73-.3-1.38-.74-1.94-1.3-.56-.56-.99-1.21-1.3-1.94-.3-.73-.45-1.5-.45-2.29,0-1.78,.5-3.51,1.45-5.02l3.28-5.19c.16-.23,.29-.36,.43-.47,.38-.27,.75-.39,1.15-.39h.13l.19,.03c.49,.08,.93,.35,1.22,.76l3.33,5.26c.95,1.5,1.45,3.24,1.45,5.02,0,.79-.15,1.56-.45,2.29s-.74,1.38-1.3,1.94c-.56,.56-1.21,1-1.94,1.3-.73,.3-1.5,.46-2.29,.46h-.66Z"/><path class="cls-2" d="M23.4,46.53s.04,0,.06,0c.1,.02,.19,.07,.25,.16l3.28,5.19c.8,1.26,1.22,2.72,1.22,4.22,0,.59-.12,1.17-.34,1.72-.23,.54-.56,1.04-.97,1.46-.42,.42-.91,.75-1.45,.97-.54,.23-1.13,.34-1.72,.34h-.66c-.59,0-1.17-.12-1.72-.34-.54-.23-1.04-.56-1.45-.97-.42-.42-.75-.91-.97-1.46-.23-.54-.34-1.13-.34-1.72,0-1.49,.42-2.95,1.22-4.22l3.28-5.19s.05-.06,.09-.09c.07-.05,.14-.07,.22-.07m0-3c-.71,0-1.38,.22-1.96,.63l-.05,.04-.05,.04c-.25,.2-.48,.43-.67,.69l-.06,.08-.06,.09-3.28,5.19c-1.1,1.74-1.68,3.76-1.68,5.82,0,.99,.19,1.95,.57,2.86,.38,.91,.92,1.73,1.62,2.43,.7,.7,1.51,1.25,2.43,1.62,.91,.38,1.88,.57,2.86,.57h.66c.99,0,1.95-.19,2.87-.57,.91-.38,1.73-.92,2.43-1.62,.7-.7,1.24-1.52,1.62-2.43,.38-.91,.57-1.88,.57-2.86,0-2.06-.58-4.07-1.68-5.82l-3.28-5.19-.05-.07-.05-.07c-.52-.73-1.3-1.22-2.19-1.37-.18-.03-.37-.05-.56-.05h0Z"/></g></svg>