<?xml version="1.0" encoding="UTF-8"?><svg id="Layer_1" xmlns="http://www.w3.org/2000/svg" viewBox="0 0 79.2 79.2"><defs><style>.cls-1{fill:#fff;}.cls-2{fill:#e30513;}</style></defs><path class="cls-2" d="M27.53,68.85c-4.25,0-7.71-3.46-7.71-7.71V18.78h15.42V61.14c0,4.25-3.46,7.71-7.71,7.71Z"/><path class="cls-2" d="M37.37,21.7H17.68c-.81,0-1.46-.65-1.46-1.46s.65-1.46,1.46-1.46h19.69c.81,0,1.46,.65,1.46,1.46s-.65,1.46-1.46,1.46Z"/><path class="cls-2" d="M51.67,68.85c-4.25,0-7.71-3.46-7.71-7.71V31.19h15.42v29.95c0,4.25-3.46,7.71-7.71,7.71Z"/><path class="cls-2" d="M61.52,31.19h-19.69c-.81,0-1.46-.65-1.46-1.46s.65-1.46,1.46-1.46h19.69c.81,0,1.46,.65,1.46,1.46s-.65,1.46-1.46,1.46Z"/><path class="cls-1" d="M23.28,21.7h8.54c.28,0,.5,.22,.5,.5v8.43c0,.81-.66,1.48-1.48,1.48h-8.06v-9.91c0-.28,.22-.5,.5-.5Z"/><rect class="cls-1" x="46.9" y="31.19" width="9.54" height="11.65" rx=".61" ry=".61"/><path class="cls-1" d="M24.24,62.64c-.81,0-1.46-.65-1.46-1.46V28.82c0-.81,.65-1.46,1.46-1.46s1.46,.65,1.46,1.46V61.18c0,.81-.65,1.46-1.46,1.46Z"/><path class="cls-1" d="M48.36,62.64c-.81,0-1.46-.65-1.46-1.46v-12.4c0-.81,.65-1.46,1.46-1.46s1.46,.65,1.46,1.46v12.4c0,.81-.65,1.46-1.46,1.46Z"/><path class="cls-2" d="M24.51,10.75h6.03c.87,0,1.57,.7,1.57,1.57v3.01c0,.35-.28,.64-.64,.64h-7.9c-.35,0-.64-.28-.64-.64v-3.01c0-.87,.7-1.57,1.57-1.57Z"/><circle class="cls-2" cx="51.25" cy="22.86" r="2.35"/><circle class="cls-2" cx="56.23" cy="16.46" r="1.73"/><circle class="cls-2" cx="50.28" cy="11.98" r="1.62"/></svg>