<svg width="64" height="64" viewBox="0 0 64 64" fill="none" xmlns="http://www.w3.org/2000/svg">
<path d="M26.1654 40.3307H24.5014V38.6667C24.5014 38.4461 24.4137 38.2344 24.2577 38.0784C24.1017 37.9224 23.89 37.8347 23.6694 37.8347H20.3307C20.11 37.8347 19.8984 37.9224 19.7424 38.0784C19.5864 38.2344 19.4987 38.4461 19.4987 38.6667V40.3307H17.8347C17.725 40.3307 17.6164 40.3524 17.5151 40.3946C17.4138 40.4367 17.3218 40.4985 17.2445 40.5763C17.1672 40.6541 17.106 40.7465 17.0645 40.848C17.023 40.9496 17.002 41.0583 17.0027 41.1681V44.5014C17.0027 44.722 17.0904 44.9337 17.2464 45.0897C17.4024 45.2457 17.614 45.3334 17.8347 45.3334H19.4987V46.9974C19.498 47.1071 19.519 47.2159 19.5605 47.3174C19.602 47.419 19.6632 47.5113 19.7405 47.5891C19.8178 47.667 19.9098 47.7287 20.0111 47.7709C20.1124 47.813 20.221 47.8347 20.3307 47.8347H23.6694C23.7791 47.8347 23.8877 47.813 23.989 47.7709C24.0903 47.7287 24.1822 47.667 24.2596 47.5891C24.3369 47.5113 24.3981 47.419 24.4396 47.3174C24.4811 47.2159 24.5021 47.1071 24.5014 46.9974V45.3334H26.1654C26.386 45.3334 26.5977 45.2457 26.7537 45.0897C26.9097 44.9337 26.9974 44.722 26.9974 44.5014V41.1681C26.9981 41.0583 26.9771 40.9496 26.9356 40.848C26.8941 40.7465 26.8329 40.6541 26.7556 40.5763C26.6782 40.4985 26.5863 40.4367 26.485 40.3946C26.3837 40.3524 26.2751 40.3307 26.1654 40.3307ZM25.3334 43.6694H23.6694C23.5597 43.6687 23.4509 43.6897 23.3493 43.7312C23.2478 43.7727 23.1554 43.8338 23.0776 43.9112C22.9998 43.9885 22.938 44.0805 22.8959 44.1818C22.8537 44.283 22.832 44.3917 22.832 44.5014V46.1654H21.168V44.5014C21.168 44.3917 21.1463 44.283 21.1042 44.1818C21.0621 44.0805 21.0003 43.9885 20.9225 43.9112C20.8446 43.8338 20.7523 43.7727 20.6507 43.7312C20.5492 43.6897 20.4404 43.6687 20.3307 43.6694H18.6667V42H20.3307C20.4404 42.0008 20.5492 41.9798 20.6507 41.9383C20.7523 41.8968 20.8446 41.8356 20.9225 41.7583C21.0003 41.6809 21.0621 41.589 21.1042 41.4877C21.1463 41.3864 21.168 41.2778 21.168 41.1681V39.4987H22.832V41.1681C22.832 41.2778 22.8537 41.3864 22.8959 41.4877C22.938 41.589 22.9998 41.6809 23.0776 41.7583C23.1554 41.8356 23.2478 41.8968 23.3493 41.9383C23.4509 41.9798 23.5597 42.0008 23.6694 42H25.3334V43.6694Z" fill="#1E2A3A"/>
<path d="M52.8321 6.16528H29.4988C28.8354 6.16528 28.1992 6.42882 27.7301 6.89791C27.261 7.367 26.9974 8.00322 26.9974 8.66662V17.8346H11.1681C11.0589 17.8346 10.9507 17.8561 10.8497 17.8979C10.7488 17.9398 10.6571 18.001 10.5798 18.0783C10.5025 18.1556 10.4413 18.2473 10.3994 18.3482C10.3576 18.4492 10.3361 18.5574 10.3361 18.6666V25.3333C10.3361 25.4425 10.3576 25.5507 10.3994 25.6517C10.4413 25.7526 10.5025 25.8443 10.5798 25.9216C10.6571 25.9989 10.7488 26.0601 10.8497 26.102C10.9507 26.1438 11.0589 26.1653 11.1681 26.1653H11.9468C11.8029 27.2062 11.3213 28.1711 10.5761 28.9119C9.9686 29.5165 9.48703 30.2355 9.15929 31.0273C8.83155 31.8192 8.66415 32.6683 8.66678 33.5253V55.3333C8.66678 55.9967 8.93031 56.6329 9.3994 57.102C9.86849 57.5711 10.5047 57.8346 11.1681 57.8346H32.8321C33.4955 57.8346 34.1317 57.5711 34.6008 57.102C35.0699 56.6329 35.3334 55.9967 35.3334 55.3333V51.168H52.8321C53.4955 51.168 54.1317 50.9044 54.6008 50.4353C55.0699 49.9662 55.3335 49.33 55.3335 48.6666V8.66662C55.3335 8.00322 55.0699 7.367 54.6008 6.89791C54.1317 6.42882 53.4955 6.16528 52.8321 6.16528ZM12.0001 19.4986H32.0001V24.5013H12.0001V19.4986ZM33.6641 55.3333C33.6641 55.5539 33.5765 55.7656 33.4204 55.9216C33.2644 56.0776 33.0528 56.1653 32.8321 56.1653H11.1681C10.9475 56.1653 10.7358 56.0776 10.5798 55.9216C10.4238 55.7656 10.3361 55.5539 10.3361 55.3333V51.168H33.6641V55.3333ZM33.6641 49.4986H10.3361V36.1653H33.6641V49.4986ZM33.6641 34.5013H10.3361V33.5253C10.3296 32.8887 10.4498 32.2572 10.6897 31.6676C10.9296 31.0779 11.2844 30.5419 11.7334 30.0906C12.7921 29.0377 13.4535 27.6507 13.6054 26.1653H30.4001C30.552 27.6507 31.2135 29.0377 32.2721 30.0906C32.725 30.5401 33.0837 31.0753 33.3273 31.6651C33.5709 32.2548 33.6945 32.8872 33.6908 33.5253L33.6641 34.5013ZM34.9068 31.2053C35.4498 31.297 35.9471 31.5662 36.3209 31.9707C36.6947 32.3751 36.9239 32.892 36.9727 33.4406C37.0214 33.9892 36.887 34.5384 36.5904 35.0025C36.2938 35.4665 35.8518 35.8192 35.3334 36.0053V33.5253C35.3339 32.7324 35.1893 31.9461 34.9068 31.2053ZM35.3334 41.3386C35.8204 41.5085 36.2425 41.8256 36.5411 42.2461C36.8398 42.6666 37.0002 43.1695 37.0002 43.6853C37.0002 44.201 36.8398 44.704 36.5411 45.1245C36.2425 45.5449 35.8204 45.8621 35.3334 46.032V41.3386ZM40.3308 49.52H35.3334V47.7493C36.2757 47.5587 37.1231 47.048 37.7318 46.3039C38.3405 45.5598 38.673 44.628 38.673 43.6666C38.673 42.7052 38.3405 41.7735 37.7318 41.0293C37.1231 40.2852 36.2757 39.7745 35.3334 39.584V37.7493C36.3493 37.5473 37.2535 36.9741 37.8696 36.1415C38.4857 35.3088 38.7695 34.2765 38.6656 33.246C38.5616 32.2154 38.0775 31.2606 37.3076 30.5677C36.5377 29.8748 35.5372 29.4937 34.5014 29.4986C34.3231 29.5003 34.145 29.5127 33.9681 29.536C33.8017 29.3185 33.6237 29.1102 33.4348 28.9119C32.6896 28.1711 32.208 27.2062 32.0641 26.1653H32.8428C32.952 26.1653 33.0602 26.1438 33.1612 26.102C33.2621 26.0601 33.3538 25.9989 33.4311 25.9216C33.5084 25.8443 33.5696 25.7526 33.6114 25.6517C33.6533 25.5507 33.6748 25.4425 33.6748 25.3333V21.3333C34.2885 21.1442 34.9515 21.1989 35.5259 21.486C36.1003 21.7732 36.5419 22.2707 36.7589 22.8751C36.976 23.4794 36.9517 24.1442 36.6912 24.7312C36.4306 25.3182 35.9539 25.7821 35.3601 26.0266C35.0876 26.1222 34.8009 26.1709 34.5121 26.1706V27.84C35.5932 27.814 36.6219 27.3691 37.3813 26.5992C38.1406 25.8293 38.5713 24.7945 38.5824 23.7132C38.5934 22.6318 38.1841 21.5885 37.4406 20.8032C36.6972 20.0179 35.6778 19.5521 34.5974 19.504C34.2874 19.5039 33.9782 19.5361 33.6748 19.5999V18.6666C33.6748 18.5574 33.6533 18.4492 33.6114 18.3482C33.5696 18.2473 33.5084 18.1556 33.4311 18.0783C33.3538 18.001 33.2621 17.9398 33.1612 17.8979C33.0602 17.8561 32.952 17.8346 32.8428 17.8346H28.6668V8.66662C28.6668 8.44596 28.7544 8.23433 28.9105 8.0783C29.0665 7.92227 29.2781 7.83462 29.4988 7.83462H40.3308V49.52ZM53.6641 48.688C53.6641 48.7972 53.6426 48.9054 53.6008 49.0063C53.559 49.1073 53.4977 49.199 53.4204 49.2763C53.3432 49.3535 53.2514 49.4148 53.1505 49.4566C53.0496 49.4984 52.9414 49.52 52.8321 49.52H42.0001V7.83462H52.8321C52.9414 7.83462 53.0496 7.85614 53.1505 7.89795C53.2514 7.93976 53.3432 8.00105 53.4204 8.0783C53.4977 8.15556 53.559 8.24728 53.6008 8.34822C53.6426 8.44917 53.6641 8.55736 53.6641 8.66662V48.688Z" fill="#1E2A3A"/>
<path d="M25.3334 41.9999V43.6692H23.6694C23.5597 43.6685 23.4509 43.6895 23.3494 43.731C23.2478 43.7725 23.1555 43.8337 23.0777 43.911C22.9998 43.9883 22.9381 44.0803 22.8959 44.1816C22.8538 44.2829 22.8321 44.3915 22.8321 44.5012V46.1652H21.1681V44.5012C21.1681 44.3915 21.1464 44.2829 21.1042 44.1816C21.0621 44.0803 21.0003 43.9883 20.9225 43.911C20.8447 43.8337 20.7523 43.7725 20.6508 43.731C20.5492 43.6895 20.4405 43.6685 20.3307 43.6692H18.6667V41.9999H20.3307C20.4405 42.0006 20.5492 41.9796 20.6508 41.9381C20.7523 41.8966 20.8447 41.8354 20.9225 41.7581C21.0003 41.6807 21.0621 41.5888 21.1042 41.4875C21.1464 41.3862 21.1681 41.2776 21.1681 41.1679V39.4985H22.8321V41.1679C22.8321 41.2776 22.8538 41.3862 22.8959 41.4875C22.9381 41.5888 22.9998 41.6807 23.0777 41.7581C23.1555 41.8354 23.2478 41.8966 23.3494 41.9381C23.4509 41.9796 23.5597 42.0006 23.6694 41.9999H25.3334Z" fill="#FE444A"/>
<path d="M34.5014 9.49854C33.6761 9.49748 32.869 9.74133 32.1823 10.1992C31.4957 10.6571 30.9603 11.3084 30.6439 12.0707C30.3276 12.833 30.2446 13.672 30.4053 14.4816C30.5661 15.2911 30.9634 16.0347 31.547 16.6183C32.1306 17.2019 32.8742 17.5992 33.6838 17.76C34.4933 17.9207 35.3323 17.8377 36.0946 17.5214C36.8569 17.205 37.5082 16.6697 37.9661 15.983C38.424 15.2963 38.6678 14.4892 38.6668 13.6639C38.6668 12.5592 38.2279 11.4997 37.4468 10.7185C36.6656 9.93739 35.6062 9.49854 34.5014 9.49854ZM34.5014 16.1652C34.0067 16.1652 33.5231 16.0185 33.1118 15.7437C32.7004 15.4688 32.3798 15.0781 32.1905 14.6211C32.0012 14.164 31.9517 13.6611 32.0482 13.1759C32.1447 12.6907 32.3829 12.245 32.7327 11.8952C33.0825 11.5453 33.5282 11.3071 34.0135 11.2106C34.4987 11.1141 35.0016 11.1636 35.4587 11.3529C35.9157 11.5423 36.3064 11.8629 36.5812 12.2742C36.8561 12.6855 37.0028 13.1692 37.0028 13.6639C37.0028 14.3273 36.7392 14.9635 36.2701 15.4326C35.8011 15.9017 35.1648 16.1652 34.5014 16.1652Z" fill="#1E2A3A"/>
<path d="M47.8347 9.49854C47.0094 9.49748 46.2023 9.74133 45.5156 10.1992C44.8289 10.6571 44.2935 11.3084 43.9772 12.0707C43.6609 12.833 43.5778 13.672 43.7386 14.4816C43.8993 15.2911 44.2967 16.0347 44.8803 16.6183C45.4639 17.2019 46.2075 17.5992 47.017 17.76C47.8265 17.9207 48.6656 17.8377 49.4279 17.5214C50.1902 17.205 50.8415 16.6697 51.2994 15.983C51.7572 15.2963 52.0011 14.4892 52 13.6639C52 12.5592 51.5612 11.4997 50.78 10.7185C49.9989 9.93739 48.9394 9.49854 47.8347 9.49854ZM47.8347 16.1652C47.34 16.1652 46.8564 16.0185 46.445 15.7437C46.0337 15.4688 45.7131 15.0781 45.5238 14.6211C45.3344 14.164 45.2849 13.6611 45.3814 13.1759C45.4779 12.6907 45.7162 12.245 46.066 11.8952C46.4158 11.5453 46.8615 11.3071 47.3467 11.2106C47.8319 11.1141 48.3349 11.1636 48.7919 11.3529C49.249 11.5423 49.6396 11.8629 49.9145 12.2742C50.1893 12.6855 50.336 13.1692 50.336 13.6639C50.336 14.3273 50.0725 14.9635 49.6034 15.4326C49.1343 15.9017 48.4981 16.1652 47.8347 16.1652Z" fill="#1E2A3A"/>
<path d="M47.8347 19.4985C47.0096 19.4975 46.2027 19.7412 45.5161 20.1988C44.8296 20.6565 44.2942 21.3075 43.9777 22.0695C43.6612 22.8315 43.5779 23.6702 43.7382 24.4796C43.8985 25.289 44.2953 26.0326 44.8784 26.6164C45.4614 27.2002 46.2046 27.598 47.0137 27.7593C47.8229 27.9207 48.6618 27.8384 49.4242 27.5229C50.1866 27.2074 50.8383 26.6728 51.2968 25.9869C51.7553 25.3009 52 24.4943 52 23.6692C52.0007 23.1218 51.8935 22.5795 51.6845 22.0736C51.4755 21.5676 51.1688 21.1078 50.7819 20.7204C50.3951 20.3331 49.9356 20.0258 49.4299 19.8161C48.9242 19.6065 48.3821 19.4985 47.8347 19.4985ZM47.8347 26.1652C47.3398 26.1652 46.8559 26.0184 46.4445 25.7433C46.033 25.4682 45.7124 25.0772 45.5233 24.6199C45.3341 24.1625 45.2849 23.6593 45.3818 23.1739C45.4788 22.6886 45.7175 22.2429 46.0679 21.8933C46.4182 21.5437 46.8644 21.3059 47.35 21.21C47.8355 21.114 48.3386 21.1643 48.7956 21.3545C49.2526 21.5446 49.6429 21.866 49.9171 22.2781C50.1913 22.6901 50.3371 23.1743 50.336 23.6692C50.3346 24.3317 50.0705 24.9665 49.6015 25.4345C49.1326 25.9024 48.4972 26.1652 47.8347 26.1652Z" fill="#1E2A3A"/>
<path d="M47.8347 29.4985C47.0094 29.4975 46.2023 29.7413 45.5156 30.1992C44.8289 30.6571 44.2935 31.3084 43.9772 32.0707C43.6609 32.833 43.5778 33.672 43.7386 34.4816C43.8993 35.2911 44.2967 36.0347 44.8803 36.6183C45.4639 37.2019 46.2075 37.5992 47.017 37.76C47.8265 37.9207 48.6656 37.8377 49.4279 37.5214C50.1902 37.205 50.8415 36.6696 51.2994 35.983C51.7572 35.2963 52.0011 34.4892 52 33.6639C52 32.5592 51.5612 31.4997 50.78 30.7185C49.9989 29.9374 48.9394 29.4985 47.8347 29.4985ZM47.8347 36.1652C47.34 36.1652 46.8564 36.0185 46.445 35.7437C46.0337 35.4688 45.7131 35.0781 45.5238 34.6211C45.3344 34.164 45.2849 33.6611 45.3814 33.1759C45.4779 32.6907 45.7162 32.245 46.066 31.8952C46.4158 31.5453 46.8615 31.3071 47.3467 31.2106C47.8319 31.1141 48.3349 31.1636 48.7919 31.3529C49.249 31.5423 49.6396 31.8629 49.9145 32.2742C50.1893 32.6855 50.336 33.1692 50.336 33.6639C50.336 34.3273 50.0725 34.9635 49.6034 35.4326C49.1343 35.9017 48.4981 36.1652 47.8347 36.1652Z" fill="#1E2A3A"/>
<path d="M47.8347 39.4985C47.0096 39.4975 46.2027 39.7412 45.5161 40.1988C44.8296 40.6565 44.2942 41.3075 43.9777 42.0695C43.6612 42.8315 43.5779 43.6702 43.7382 44.4796C43.8985 45.289 44.2953 46.0326 44.8784 46.6164C45.4614 47.2002 46.2046 47.598 47.0137 47.7593C47.8229 47.9207 48.6618 47.8384 49.4242 47.5229C50.1866 47.2074 50.8383 46.6728 51.2968 45.9869C51.7553 45.3009 52 44.4943 52 43.6692C52.0007 43.1218 51.8935 42.5795 51.6845 42.0736C51.4755 41.5676 51.1688 41.1078 50.7819 40.7204C50.3951 40.3331 49.9356 40.0258 49.4299 39.8161C48.9242 39.6065 48.3821 39.4985 47.8347 39.4985ZM47.8347 46.1652C47.3398 46.1652 46.8559 46.0184 46.4445 45.7433C46.033 45.4682 45.7124 45.0772 45.5233 44.6199C45.3341 44.1625 45.2849 43.6593 45.3818 43.1739C45.4788 42.6886 45.7175 42.2429 46.0679 41.8933C46.4182 41.5437 46.8644 41.3059 47.35 41.21C47.8355 41.114 48.3386 41.1643 48.7956 41.3545C49.2526 41.5446 49.6429 41.866 49.9171 42.2781C50.1913 42.6901 50.3371 43.1743 50.336 43.6692C50.3346 44.3317 50.0705 44.9665 49.6015 45.4345C49.1326 45.9024 48.4972 46.1652 47.8347 46.1652Z" fill="#1E2A3A"/>
</svg>
