<svg width="16" height="16" viewBox="0 0 16 16" fill="none" xmlns="http://www.w3.org/2000/svg">
<path d="M5.96 12.4706C6.80457 12.476 7.64179 12.3135 8.4231 11.9928C9.20441 11.672 9.91425 11.1993 10.5115 10.6021C11.1087 10.0049 11.5814 9.29505 11.9021 8.51374C12.2229 7.73243 12.3853 6.89521 12.38 6.05064C12.38 5.95064 12.38 5.85564 12.38 5.75564C12.8178 5.43489 13.1967 5.04073 13.5 4.59064C13.0878 4.77094 12.6516 4.89052 12.205 4.94564C12.6785 4.66353 13.0337 4.21948 13.205 3.69564C12.7638 3.96036 12.2799 4.14646 11.775 4.24564C11.435 3.88333 10.985 3.64317 10.4947 3.56234C10.0045 3.4815 9.50122 3.56449 9.06287 3.79847C8.62452 4.03245 8.27549 4.40437 8.0698 4.85668C7.86411 5.309 7.81322 5.81649 7.925 6.30064C7.02801 6.25662 6.15036 6.02415 5.34918 5.6184C4.548 5.21264 3.84127 4.64268 3.275 3.94564C2.98946 4.44123 2.90291 5.02681 3.03288 5.5838C3.16285 6.1408 3.49962 6.6276 3.975 6.94564C3.62431 6.93212 3.28173 6.8362 2.975 6.66564V6.69064C2.97188 7.20856 3.14636 7.7119 3.46935 8.11678C3.79234 8.52165 4.24434 8.80361 4.75 8.91564C4.42382 9.00337 4.08215 9.01704 3.75 8.95564C3.89639 9.39734 4.17584 9.78293 4.55002 10.0595C4.9242 10.3361 5.3748 10.4902 5.84 10.5006C5.04461 11.1409 4.05605 11.4933 3.035 11.5006C2.85598 11.4955 2.67737 11.4804 2.5 11.4556C3.53348 12.1141 4.7346 12.4612 5.96 12.4556" fill="white"/>
</svg>