<svg width="16" height="16" viewBox="0 0 16 16" fill="none" xmlns="http://www.w3.org/2000/svg">
<path fill-rule="evenodd" clip-rule="evenodd" d="M13.6507 2.72692C14.0153 2.87833 14.3465 3.10024 14.6252 3.37992C15.1884 3.9411 15.5057 4.70285 15.5076 5.49785C15.5095 6.29286 15.1957 7.0561 14.6352 7.61992L10.6352 11.6199C10.3551 11.9004 10.0222 12.1225 9.65579 12.2736C9.28934 12.4246 8.89658 12.5016 8.50023 12.4999C7.70526 12.5045 6.94097 12.1934 6.37522 11.6349C6.09554 11.3562 5.87363 11.025 5.72222 10.6604C5.5708 10.2957 5.49286 9.90477 5.49286 9.50992C5.49286 9.11508 5.5708 8.72412 5.72222 8.35947C5.87363 7.99481 6.09554 7.66363 6.37522 7.38492L7.08522 6.67492L7.79023 7.38492L7.08522 8.09492C6.70994 8.47087 6.49938 8.98049 6.49984 9.51169C6.50031 10.0429 6.71178 10.5521 7.08772 10.9274C7.46367 11.3027 7.9733 11.5133 8.50449 11.5128C9.03569 11.5123 9.54494 11.3009 9.92023 10.9249L13.9202 6.92492C14.1064 6.73878 14.254 6.51778 14.3548 6.27457C14.4555 6.03135 14.5074 5.77068 14.5074 5.50742C14.5074 5.24417 14.4555 4.98349 14.3548 4.74028C14.254 4.49706 14.1064 4.27607 13.9202 4.08992C13.7341 3.90378 13.5131 3.75611 13.2699 3.65537C13.0267 3.55463 12.766 3.50278 12.5027 3.50278C12.2395 3.50278 11.9788 3.55463 11.7356 3.65537C11.4924 3.75611 11.2714 3.90378 11.0852 4.08992L10.3752 3.37992C10.6539 3.10024 10.9851 2.87833 11.3498 2.72692C11.7144 2.5755 12.1054 2.49756 12.5002 2.49756C12.8951 2.49756 13.286 2.5755 13.6507 2.72692ZM1.65928 11.7599C1.76037 12.0032 1.90853 12.2241 2.09523 12.4099C2.28107 12.5966 2.50196 12.7448 2.74521 12.8459C2.98847 12.947 3.2493 12.999 3.51273 12.999C3.77616 12.999 4.03699 12.947 4.28024 12.8459C4.5235 12.7448 4.74439 12.5966 4.93023 12.4099L5.64023 13.1199C5.07109 13.6843 4.30178 14.0007 3.50023 13.9999C2.70568 14.0098 1.93964 13.7042 1.37023 13.1499C1.0898 12.8711 0.867251 12.5396 0.715391 12.1745C0.56353 11.8094 0.485352 11.4178 0.485352 11.0224C0.485352 10.627 0.56353 10.2354 0.715391 9.87032C0.867251 9.5052 1.0898 9.17371 1.37023 8.89491L5.37023 4.89491C5.93448 4.33066 6.69976 4.01367 7.49773 4.01367C8.2957 4.01367 9.06098 4.33066 9.62523 4.89491C10.1895 5.45916 10.5065 6.22444 10.5065 7.02241C10.5065 7.82038 10.1895 8.58566 9.62523 9.14991L8.56523 10.2099L7.85523 9.49991L8.91523 8.42491C9.10209 8.23785 9.25001 8.01559 9.35042 7.77099C9.45084 7.52639 9.50175 7.26431 9.50023 6.99991C9.5054 6.73633 9.45762 6.47439 9.35971 6.22962C9.2618 5.98485 9.11575 5.76221 8.93023 5.57491C8.74439 5.38821 8.5235 5.24006 8.28024 5.13896C8.03699 5.03787 7.77616 4.98583 7.51273 4.98583C7.2493 4.98583 6.98847 5.03787 6.74521 5.13896C6.50196 5.24006 6.28107 5.38821 6.09523 5.57491L2.09523 9.57491C1.90853 9.76075 1.76037 9.98164 1.65928 10.2249C1.55819 10.4682 1.50615 10.729 1.50615 10.9924C1.50615 11.2558 1.55819 11.5167 1.65928 11.7599Z" fill="white"/>
</svg>