<svg width="16" height="16" viewBox="0 0 16 16" fill="none" xmlns="http://www.w3.org/2000/svg">
<path d="M13.105 2.0005H2.895C2.66236 1.99911 2.43842 2.08885 2.27114 2.25053C2.10386 2.4122 2.00653 2.63295 2 2.8655V13.1005C2.00525 13.3335 2.10218 13.555 2.26974 13.7169C2.43731 13.8789 2.66198 13.9682 2.895 13.9655H13.105C13.338 13.9682 13.5627 13.8789 13.7303 13.7169C13.8978 13.555 13.9947 13.3335 14 13.1005V2.8655C13.9935 2.63295 13.8961 2.4122 13.7289 2.25053C13.5616 2.08885 13.3376 1.99911 13.105 2.0005ZM5.555 12.2055H3.795V6.5005H5.555V12.2055ZM4.695 5.7055C4.42478 5.70558 4.16524 5.59998 3.97184 5.41125C3.77845 5.22253 3.66653 4.96565 3.66 4.6955C3.65511 4.55827 3.67853 4.4215 3.72881 4.29371C3.77909 4.16592 3.85516 4.04986 3.95226 3.95276C4.04936 3.85566 4.16542 3.7796 4.29321 3.72932C4.42099 3.67903 4.55776 3.65561 4.695 3.6605C4.95642 3.67871 5.20121 3.7954 5.37995 3.98702C5.5587 4.17865 5.65811 4.43095 5.65811 4.693C5.65811 4.95506 5.5587 5.20736 5.37995 5.39898C5.20121 5.59061 4.95642 5.7073 4.695 5.7255V5.7055ZM12.24 12.1705H10.5V9.3805C10.5 8.7155 10.5 7.8505 9.57 7.8505C8.64 7.8505 8.5 8.5805 8.5 9.3155V12.1405H6.72V6.5005H8.38V7.2505H8.415C8.58514 6.95502 8.83324 6.71199 9.13217 6.54797C9.4311 6.38396 9.76937 6.30527 10.11 6.3205C11.905 6.3205 12.24 7.5205 12.24 9.0455V12.1705Z" fill="white"/>
</svg>