<svg width="136" height="43" viewBox="0 0 136 43" fill="none" xmlns="http://www.w3.org/2000/svg">
<path d="M40.7845 16.8381C40.4503 16.4005 40.0151 16.0761 39.4789 15.8725C38.9426 15.6688 38.4142 15.5707 37.909 15.5707C37.2562 15.5707 36.6578 15.6839 36.1216 15.9177C35.5854 16.1516 35.1269 16.4684 34.7383 16.8758C34.3497 17.2832 34.0544 17.7584 33.8446 18.3016C33.6348 18.8447 33.5337 19.4332 33.5337 20.0744C33.5337 20.7458 33.6348 21.3568 33.8368 21.9151C34.0389 22.4733 34.3264 22.9486 34.7072 23.3484C35.0802 23.7482 35.531 24.0575 36.0594 24.2763C36.5801 24.4951 37.1708 24.6082 37.8313 24.6082C38.5074 24.6082 39.1136 24.48 39.6343 24.216C40.155 23.9595 40.5824 23.6125 40.901 23.1825L42.704 24.4121C42.1445 25.0911 41.4606 25.6267 40.6446 25.9963C39.8364 26.3735 38.8882 26.5621 37.8002 26.5621C36.8133 26.5621 35.904 26.4037 35.0725 26.0868C34.2409 25.77 33.5337 25.3249 32.9353 24.7516C32.3369 24.1782 31.8706 23.4993 31.5442 22.7072C31.2101 21.9151 31.0469 21.04 31.0469 20.0819C31.0469 19.1012 31.2256 18.2111 31.5753 17.419C31.925 16.6268 32.4069 15.9554 33.0208 15.3972C33.6348 14.839 34.3575 14.4165 35.189 14.1147C36.0206 13.813 36.9298 13.6621 37.909 13.6621C38.3132 13.6621 38.7406 13.6998 39.1758 13.7753C39.6188 13.8507 40.0384 13.9639 40.4425 14.1223C40.8466 14.2807 41.2274 14.4693 41.5849 14.7032C41.9424 14.937 42.2455 15.2086 42.4942 15.533L40.7845 16.8381Z" fill="white"/>
<path d="M43.1782 22.0437C43.1782 21.3874 43.3026 20.7839 43.5435 20.2482C43.7844 19.7126 44.1186 19.2524 44.5382 18.8677C44.9579 18.483 45.4475 18.1888 46.0226 17.9851C46.5977 17.7739 47.2038 17.6758 47.8489 17.6758C48.4939 17.6758 49.1001 17.7814 49.6751 17.9851C50.2502 18.1963 50.7398 18.4905 51.1595 18.8677C51.5791 19.2524 51.9055 19.7126 52.1542 20.2482C52.3951 20.7839 52.5195 21.3874 52.5195 22.0437C52.5195 22.7 52.3951 23.3035 52.1542 23.8467C51.9133 24.3898 51.5791 24.8575 51.1595 25.2423C50.7398 25.627 50.2502 25.9363 49.6751 26.1551C49.1001 26.3738 48.4939 26.487 47.8489 26.487C47.2038 26.487 46.5977 26.3738 46.0226 26.1551C45.4475 25.9363 44.9579 25.6346 44.5382 25.2423C44.1186 24.85 43.7922 24.3898 43.5435 23.8467C43.2948 23.3035 43.1782 22.7 43.1782 22.0437ZM45.3542 22.0437C45.3542 22.3681 45.4009 22.6924 45.5097 23.0168C45.6107 23.3412 45.7661 23.6279 45.9682 23.8844C46.1702 24.1409 46.4267 24.3446 46.7375 24.5105C47.0484 24.6689 47.4137 24.7519 47.8489 24.7519C48.2763 24.7519 48.6493 24.6689 48.9602 24.5105C49.271 24.3521 49.5275 24.1409 49.7295 23.8844C49.9316 23.6279 50.087 23.3412 50.1881 23.0168C50.2891 22.6924 50.3435 22.3681 50.3435 22.0437C50.3435 21.7193 50.2891 21.4024 50.1881 21.0781C50.087 20.7612 49.9316 20.4746 49.7295 20.2181C49.5275 19.9616 49.271 19.7579 48.9602 19.5995C48.6493 19.441 48.2841 19.3656 47.8489 19.3656C47.4214 19.3656 47.0484 19.441 46.7375 19.5995C46.4267 19.7579 46.1702 19.9616 45.9682 20.2181C45.7661 20.4746 45.6107 20.7612 45.5097 21.0781C45.4086 21.4024 45.3542 21.7193 45.3542 22.0437Z" fill="white"/>
<path d="M64.7359 17.668C65.2955 17.668 65.7773 17.766 66.1736 17.9546C66.57 18.1432 66.9041 18.3997 67.1606 18.709C67.417 19.0183 67.6036 19.3804 67.7201 19.7878C67.8367 20.1952 67.8989 20.6101 67.8989 21.0401V26.2453H65.754V21.6285C65.754 21.3871 65.7384 21.1306 65.6996 20.8666C65.6607 20.6025 65.583 20.3611 65.4664 20.1499C65.3498 19.9387 65.1866 19.7576 64.9768 19.6218C64.767 19.486 64.495 19.4106 64.1453 19.4106C63.8111 19.4106 63.5236 19.4785 63.2904 19.6218C63.0495 19.7576 62.8552 19.9387 62.6998 20.1574C62.5444 20.3762 62.4356 20.6252 62.3578 20.8967C62.2879 21.1683 62.249 21.4399 62.249 21.7039V26.2529H60.1041V21.2211C60.1041 20.7006 59.972 20.2706 59.7233 19.9311C59.4746 19.5917 59.0628 19.4181 58.5188 19.4181C58.2001 19.4181 57.9204 19.486 57.6794 19.6143C57.4385 19.7501 57.2442 19.916 57.0966 20.1273C56.9489 20.3385 56.8324 20.5724 56.7546 20.8439C56.6769 21.1155 56.6381 21.3871 56.6381 21.6662V26.2453H54.4932V17.9169H56.5293V19.2522H56.5681C56.6614 19.041 56.7935 18.8448 56.9489 18.6638C57.1044 18.4827 57.2986 18.3092 57.524 18.1583C57.7416 18.0074 57.9981 17.8867 58.2856 17.8038C58.5732 17.7132 58.884 17.6755 59.2337 17.6755C59.9021 17.6755 60.4538 17.8188 60.8968 18.1055C61.3398 18.3922 61.674 18.7769 61.9149 19.2522C62.2024 18.7467 62.5832 18.3545 63.0573 18.0829C63.5313 17.8113 64.0909 17.668 64.7359 17.668Z" fill="white"/>
<path d="M80.5508 17.668C81.1104 17.668 81.5922 17.766 81.9886 17.9546C82.3849 18.1432 82.7191 18.3997 82.9755 18.709C83.232 19.0183 83.4185 19.3804 83.5351 19.7878C83.6517 20.1952 83.7138 20.6101 83.7138 21.0401V26.2453H81.5689V21.6285C81.5689 21.3871 81.5534 21.1306 81.5145 20.8666C81.4756 20.6025 81.3979 20.3611 81.2814 20.1499C81.1648 19.9387 81.0016 19.7576 80.7918 19.6218C80.5819 19.486 80.3099 19.4106 79.9602 19.4106C79.626 19.4106 79.3385 19.4785 79.1054 19.6218C78.8644 19.7576 78.6702 19.9387 78.5147 20.1574C78.3593 20.3762 78.2505 20.6252 78.1728 20.8967C78.1028 21.1683 78.064 21.4399 78.064 21.7039V26.2529H75.9191V21.2211C75.9191 20.7006 75.787 20.2706 75.5383 19.9311C75.2896 19.5917 74.8777 19.4181 74.3337 19.4181C74.0151 19.4181 73.7353 19.486 73.4944 19.6143C73.2535 19.7501 73.0592 19.916 72.9115 20.1273C72.7639 20.3385 72.6473 20.5724 72.5696 20.8439C72.4919 21.1155 72.453 21.3871 72.453 21.6662V26.2453H70.3081V17.9169H72.3442V19.2522H72.3831C72.4763 19.041 72.6084 18.8448 72.7639 18.6638C72.9193 18.4827 73.1136 18.3092 73.339 18.1583C73.5566 18.0074 73.813 17.8867 74.1006 17.8038C74.3881 17.7132 74.699 17.6755 75.0487 17.6755C75.717 17.6755 76.2688 17.8188 76.7118 18.1055C77.1547 18.3922 77.4889 18.7769 77.7298 19.2522C78.0174 18.7467 78.3982 18.3545 78.8722 18.0829C79.3463 17.8113 79.9058 17.668 80.5508 17.668Z" fill="white"/>
<path d="M93.9568 26.2461H91.9206V24.9109H91.8818C91.6875 25.3258 91.3611 25.6954 90.887 26.0123C90.413 26.3291 89.8612 26.4875 89.2162 26.4875C88.6567 26.4875 88.1748 26.3895 87.7785 26.2009C87.3821 26.0123 87.048 25.7558 86.7915 25.4465C86.535 25.1372 86.3485 24.7751 86.232 24.3677C86.1154 23.9603 86.0532 23.5454 86.0532 23.1154V17.9102H88.1981V22.527C88.1981 22.7684 88.2137 23.0249 88.2525 23.2889C88.2914 23.553 88.3691 23.7944 88.4857 24.0056C88.6023 24.2168 88.7655 24.3979 88.9753 24.5337C89.1851 24.6695 89.4571 24.7449 89.8068 24.7449C90.141 24.7449 90.4363 24.677 90.6928 24.5488C90.9492 24.413 91.159 24.247 91.3145 24.0358C91.4699 23.8245 91.5943 23.5907 91.6797 23.3191C91.7652 23.0475 91.8041 22.7759 91.8041 22.4968V17.9177H93.949V26.2461H93.9568Z" fill="white"/>
<path d="M96.4434 17.9172H98.4795V19.2524H98.5183C98.7126 18.8375 99.039 18.4679 99.5131 18.151C99.9871 17.8342 100.539 17.6758 101.184 17.6758C101.743 17.6758 102.225 17.7739 102.622 17.9624C103.018 18.151 103.352 18.4075 103.609 18.7168C103.865 19.0261 104.052 19.3882 104.168 19.7956C104.285 20.203 104.347 20.6179 104.347 21.0479V26.2531H102.202V21.6363C102.202 21.3949 102.186 21.1384 102.148 20.8744C102.109 20.6103 102.031 20.3689 101.914 20.1577C101.798 19.9465 101.635 19.7654 101.425 19.6296C101.215 19.4939 100.943 19.4184 100.593 19.4184C100.244 19.4184 99.9483 19.4863 99.6996 19.6146C99.4509 19.7503 99.2411 19.9163 99.0856 20.1275C98.9224 20.3388 98.8059 20.5726 98.7204 20.8442C98.6349 21.1158 98.596 21.3874 98.596 21.6665V26.2456H96.4511V17.9172H96.4434Z" fill="white"/>
<path d="M106.484 15.0885C106.484 14.7566 106.608 14.4623 106.865 14.2134C107.121 13.9645 107.448 13.8438 107.836 13.8438C108.225 13.8438 108.559 13.9645 108.831 14.1983C109.103 14.4322 109.235 14.7339 109.235 15.0885C109.235 15.4506 109.103 15.7448 108.831 15.9787C108.567 16.2125 108.232 16.3332 107.836 16.3332C107.44 16.3332 107.121 16.2125 106.865 15.9636C106.616 15.7146 106.484 15.4204 106.484 15.0885ZM106.787 17.9174H108.932V26.2459H106.787V17.9174Z" fill="white"/>
<path d="M110.222 19.5773V17.9101H111.722V15.4961H113.828V17.9101H115.973V19.5773H113.828V23.4473C113.828 23.817 113.898 24.1263 114.03 24.3677C114.17 24.6091 114.473 24.7298 114.947 24.7298C115.087 24.7298 115.243 24.7147 115.413 24.6845C115.577 24.6543 115.732 24.6091 115.856 24.5563L115.926 26.1857C115.732 26.2536 115.507 26.3064 115.25 26.3517C114.986 26.3894 114.737 26.4121 114.496 26.4121C113.921 26.4121 113.463 26.3366 113.105 26.1782C112.748 26.0198 112.468 25.8085 112.258 25.537C112.048 25.2654 111.909 24.9561 111.831 24.6015C111.753 24.247 111.714 23.8698 111.714 23.4624V19.5773H110.222Z" fill="white"/>
<path d="M116.696 17.916H119.074L121.467 23.9737H121.506L123.636 17.916H125.874L121.817 28.0323C121.662 28.4171 121.499 28.749 121.32 29.0508C121.141 29.345 120.923 29.5939 120.675 29.7976C120.426 30.0013 120.131 30.1522 119.789 30.2578C119.447 30.3634 119.043 30.4162 118.561 30.4162C118.382 30.4162 118.203 30.4086 118.017 30.3936C117.83 30.3785 117.644 30.3408 117.457 30.2955L117.636 28.4925C117.776 28.5378 117.916 28.5679 118.056 28.5906C118.196 28.6057 118.32 28.6132 118.437 28.6132C118.662 28.6132 118.856 28.5906 119.012 28.5378C119.167 28.485 119.299 28.402 119.408 28.2964C119.517 28.1832 119.61 28.0474 119.696 27.889C119.781 27.7306 119.867 27.5344 119.968 27.3157L120.395 26.2595L116.696 17.916Z" fill="white"/>
<path d="M31.6455 29.7988H36.5804C37.0544 29.7988 37.5285 29.8516 37.9948 29.9648C38.4611 30.078 38.8729 30.2515 39.2382 30.5004C39.6034 30.7494 39.8988 31.0737 40.1241 31.466C40.3495 31.8583 40.4661 32.3336 40.4661 32.8918C40.4661 33.5858 40.264 34.1592 39.8599 34.6118C39.4558 35.0644 38.9273 35.3888 38.2668 35.585V35.6227C39.0672 35.7283 39.72 36.0301 40.2329 36.5279C40.7458 37.0258 41.0023 37.6897 41.0023 38.5271C41.0023 39.1985 40.8624 39.7643 40.5904 40.2169C40.3184 40.6771 39.9532 41.0392 39.5102 41.3183C39.0672 41.5974 38.5543 41.7936 37.9715 41.9143C37.3964 42.035 36.8057 42.0953 36.2073 42.0953H31.6455V29.7988ZM33.8992 34.8004H35.9042C36.6581 34.8004 37.2254 34.6571 37.6217 34.3704C38.0181 34.0837 38.2124 33.6688 38.2124 33.1408C38.2124 32.5825 38.0103 32.1902 37.6062 31.9639C37.2021 31.7301 36.5726 31.6169 35.71 31.6169H33.907V34.8004H33.8992ZM33.8992 40.2471H35.9198C36.2073 40.2471 36.5182 40.2244 36.8524 40.1867C37.1865 40.149 37.4896 40.066 37.7694 39.9378C38.0492 39.8095 38.2823 39.6285 38.4688 39.3795C38.6553 39.1381 38.7486 38.8137 38.7486 38.4064C38.7486 37.7576 38.5232 37.305 38.0725 37.056C37.6217 36.7995 36.9378 36.6713 36.013 36.6713H33.907V40.2471H33.8992Z" fill="white"/>
<path d="M42.6963 28.9688H44.8412V42.0875H42.6963V28.9688Z" fill="white"/>
<path d="M46.5044 37.8855C46.5044 37.2292 46.6287 36.6256 46.8697 36.09C47.1106 35.5544 47.4447 35.0942 47.8644 34.7095C48.2841 34.3248 48.7737 34.0306 49.3487 33.8269C49.9238 33.6156 50.53 33.5176 51.175 33.5176C51.8201 33.5176 52.4262 33.6232 53.0013 33.8269C53.5764 34.0381 54.066 34.3323 54.4857 34.7095C54.9053 35.0942 55.2317 35.5544 55.4804 36.09C55.7213 36.6256 55.8457 37.2292 55.8457 37.8855C55.8457 38.5418 55.7213 39.1453 55.4804 39.6885C55.2395 40.2316 54.9053 40.6993 54.4857 41.0841C54.066 41.4688 53.5764 41.7781 53.0013 41.9969C52.4262 42.2156 51.8201 42.3288 51.175 42.3288C50.53 42.3288 49.9238 42.2156 49.3487 41.9969C48.7737 41.7781 48.2841 41.4764 47.8644 41.0841C47.4447 40.6918 47.1183 40.2316 46.8697 39.6885C46.621 39.1453 46.5044 38.5418 46.5044 37.8855ZM48.6804 37.8855C48.6804 38.2099 48.727 38.5342 48.8358 38.8586C48.9369 39.183 49.0923 39.4697 49.2943 39.7262C49.4964 39.9827 49.7529 40.1864 50.0637 40.3523C50.3746 40.5107 50.7398 40.5937 51.175 40.5937C51.6025 40.5937 51.9755 40.5107 52.2863 40.3523C52.5972 40.1939 52.8537 39.9827 53.0557 39.7262C53.2578 39.4697 53.4132 39.183 53.5142 38.8586C53.6153 38.5342 53.6697 38.2099 53.6697 37.8855C53.6697 37.5611 53.6153 37.2442 53.5142 36.9199C53.4132 36.603 53.2578 36.3163 53.0557 36.0599C52.8537 35.8034 52.5972 35.5997 52.2863 35.4413C51.9755 35.2828 51.6102 35.2074 51.175 35.2074C50.7476 35.2074 50.3746 35.2828 50.0637 35.4413C49.7529 35.5997 49.4964 35.8034 49.2943 36.0599C49.0923 36.3163 48.9369 36.603 48.8358 36.9199C48.7348 37.2442 48.6804 37.5611 48.6804 37.8855Z" fill="white"/>
<path d="M56.957 37.8855C56.957 37.2292 57.0814 36.6256 57.3223 36.09C57.5632 35.5544 57.8974 35.0942 58.317 34.7095C58.7367 34.3248 59.2263 34.0306 59.8014 33.8269C60.3765 33.6156 60.9826 33.5176 61.6277 33.5176C62.2727 33.5176 62.8789 33.6232 63.4539 33.8269C64.029 34.0381 64.5186 34.3323 64.9383 34.7095C65.3579 35.0942 65.6843 35.5544 65.933 36.09C66.1739 36.6256 66.2983 37.2292 66.2983 37.8855C66.2983 38.5418 66.1739 39.1453 65.933 39.6885C65.6921 40.2316 65.3579 40.6993 64.9383 41.0841C64.5186 41.4688 64.029 41.7781 63.4539 41.9969C62.8789 42.2156 62.2727 42.3288 61.6277 42.3288C60.9826 42.3288 60.3765 42.2156 59.8014 41.9969C59.2263 41.7781 58.7367 41.4764 58.317 41.0841C57.8974 40.6918 57.571 40.2316 57.3223 39.6885C57.0814 39.1453 56.957 38.5418 56.957 37.8855ZM59.1408 37.8855C59.1408 38.2099 59.1874 38.5342 59.2962 38.8586C59.3973 39.183 59.5527 39.4697 59.7547 39.7262C59.9568 39.9827 60.2133 40.1864 60.5241 40.3523C60.835 40.5107 61.2002 40.5937 61.6354 40.5937C62.0629 40.5937 62.4359 40.5107 62.7467 40.3523C63.0576 40.1939 63.3141 39.9827 63.5161 39.7262C63.7182 39.4697 63.8736 39.183 63.9746 38.8586C64.0757 38.5342 64.1301 38.2099 64.1301 37.8855C64.1301 37.5611 64.0757 37.2442 63.9746 36.9199C63.8736 36.603 63.7182 36.3163 63.5161 36.0599C63.3141 35.8034 63.0576 35.5997 62.7467 35.4413C62.4359 35.2828 62.0706 35.2074 61.6354 35.2074C61.208 35.2074 60.835 35.2828 60.5241 35.4413C60.2133 35.5997 59.9568 35.8034 59.7547 36.0599C59.5527 36.3163 59.3973 36.603 59.2962 36.9199C59.1874 37.2442 59.1408 37.5611 59.1408 37.8855Z" fill="white"/>
<path d="M76.6342 42.0875H74.5981V40.8352H74.5593C74.2639 41.318 73.8443 41.6877 73.3158 41.9442C72.7874 42.2007 72.2201 42.3289 71.6061 42.3289C70.9533 42.3289 70.3627 42.2082 69.842 41.9744C69.3213 41.7405 68.8861 41.4161 68.5209 41.0163C68.1556 40.6165 67.8758 40.1487 67.6815 39.6131C67.4873 39.0775 67.3862 38.4966 67.3862 37.8856C67.3862 37.2745 67.4873 36.7012 67.6893 36.1656C67.8914 35.63 68.1789 35.1698 68.5442 34.7775C68.9172 34.3852 69.3524 34.0759 69.8653 33.8496C70.3782 33.6233 70.9378 33.5101 71.5439 33.5101C71.9403 33.5101 72.29 33.5554 72.6009 33.6384C72.9117 33.7214 73.1837 33.8345 73.4169 33.9628C73.65 34.091 73.8521 34.2268 74.0153 34.3777C74.1785 34.5286 74.3183 34.6719 74.4271 34.8077H74.4815V28.9688H76.6265V42.0875H76.6342ZM69.5778 37.8856C69.5778 38.21 69.6244 38.5344 69.7332 38.8587C69.8342 39.1831 69.9897 39.4698 70.1917 39.7263C70.3938 39.9828 70.6502 40.1865 70.9611 40.3524C71.2719 40.5109 71.6372 40.5938 72.0491 40.5938C72.4454 40.5938 72.7951 40.5184 73.106 40.36C73.4169 40.2016 73.6811 39.9979 73.8987 39.7414C74.1163 39.4849 74.2873 39.1982 74.3961 38.8814C74.5126 38.5645 74.567 38.2401 74.567 37.9158C74.567 37.5914 74.5126 37.267 74.3961 36.9426C74.2795 36.6182 74.1163 36.3316 73.8987 36.0751C73.6811 35.8186 73.4169 35.6149 73.106 35.4489C72.7951 35.2905 72.4454 35.2075 72.0491 35.2075C71.6294 35.2075 71.2719 35.283 70.9611 35.4414C70.6502 35.5998 70.3938 35.8035 70.1917 36.06C69.9897 36.3165 69.8342 36.6031 69.7332 36.92C69.6244 37.2444 69.5778 37.5612 69.5778 37.8856Z" fill="white"/>
<path d="M92.4568 32.6799C92.1227 32.2423 91.6875 31.9179 91.1512 31.7143C90.615 31.5106 90.0866 31.4125 89.5814 31.4125C88.9286 31.4125 88.3302 31.5257 87.794 31.7595C87.2578 31.9934 86.7992 32.3102 86.4107 32.7176C86.0221 33.125 85.7268 33.6002 85.5169 34.1434C85.3071 34.6865 85.2061 35.275 85.2061 35.9162C85.2061 36.5876 85.3071 37.1986 85.5092 37.7569C85.7112 38.3151 85.9988 38.7904 86.3796 39.1902C86.7526 39.59 87.2034 39.8993 87.7318 40.1181C88.2525 40.3369 88.8431 40.45 89.5037 40.45C90.1798 40.45 90.786 40.3218 91.3067 40.0578C91.8274 39.8013 92.2548 39.4543 92.5734 39.0243L94.3764 40.2539C93.8168 40.9329 93.133 41.4685 92.317 41.8381C91.5087 42.2153 90.5606 42.4039 89.4726 42.4039C88.4856 42.4039 87.5764 42.2455 86.7448 41.9286C85.9133 41.6118 85.2061 41.1667 84.6077 40.5934C84.0093 40.02 83.543 39.3411 83.2166 38.549C82.8824 37.7569 82.7192 36.8818 82.7192 35.9237C82.7192 34.943 82.898 34.0529 83.2477 33.2607C83.5974 32.4686 84.0792 31.7972 84.6932 31.239C85.3071 30.6807 86.0299 30.2583 86.8614 29.9565C87.693 29.6548 88.6022 29.5039 89.5814 29.5039C89.9855 29.5039 90.413 29.5416 90.8482 29.6171C91.2911 29.6925 91.7108 29.8057 92.1149 29.9641C92.519 30.1225 92.8998 30.3111 93.2573 30.545C93.6148 30.7788 93.9179 31.0504 94.1666 31.3748L92.4568 32.6799Z" fill="white"/>
<path d="M103.181 38.0205C103.181 38.111 103.181 38.2091 103.181 38.2996C103.181 38.3901 103.173 38.4882 103.166 38.5787H96.6376C96.6609 38.8805 96.7386 39.152 96.8785 39.401C97.0184 39.6499 97.1971 39.8612 97.4225 40.0422C97.6479 40.2233 97.9043 40.3666 98.1919 40.4647C98.4794 40.5703 98.7747 40.6231 99.0856 40.6231C99.6218 40.6231 100.073 40.525 100.446 40.3364C100.819 40.1478 101.122 39.8838 101.355 39.5443L102.785 40.6533C101.938 41.7622 100.71 42.3205 99.1011 42.3205C98.4328 42.3205 97.8188 42.2224 97.2593 42.0187C96.6998 41.815 96.2102 41.5284 95.806 41.1587C95.3942 40.7891 95.0755 40.3364 94.8424 39.7933C94.6092 39.2501 94.4927 38.6466 94.4927 37.9601C94.4927 37.2887 94.6092 36.6776 94.8424 36.1269C95.0755 35.5762 95.3942 35.1085 95.7983 34.7238C96.2024 34.3391 96.6842 34.0373 97.236 33.8185C97.7878 33.5998 98.3862 33.4941 99.0312 33.4941C99.6296 33.4941 100.181 33.5922 100.687 33.7808C101.192 33.9694 101.635 34.2561 102 34.6333C102.373 35.0105 102.66 35.4782 102.87 36.0364C103.072 36.6173 103.181 37.2736 103.181 38.0205ZM101.036 37.085C101.036 36.821 100.997 36.5645 100.92 36.3231C100.842 36.0817 100.718 35.8629 100.554 35.6819C100.391 35.4933 100.174 35.3499 99.9171 35.2368C99.6607 35.1236 99.3576 35.0708 99.0157 35.0708C98.3706 35.0708 97.8266 35.2594 97.3836 35.6366C96.9329 36.0138 96.692 36.4966 96.6454 37.085H101.036Z" fill="white"/>
<path d="M104.806 33.759H106.842V35.0942H106.881C107.075 34.6793 107.401 34.3097 107.875 33.9928C108.349 33.676 108.901 33.5176 109.546 33.5176C110.106 33.5176 110.588 33.6156 110.984 33.8042C111.38 33.9928 111.714 34.2493 111.971 34.5586C112.227 34.8679 112.414 35.23 112.53 35.6374C112.647 36.0448 112.709 36.4597 112.709 36.8897V42.0949H110.564V37.4781C110.564 37.2367 110.549 36.9802 110.51 36.7162C110.471 36.4521 110.393 36.2107 110.277 35.9995C110.16 35.7883 109.997 35.6072 109.787 35.4714C109.577 35.3356 109.305 35.2602 108.956 35.2602C108.606 35.2602 108.311 35.3281 108.062 35.4564C107.813 35.5921 107.603 35.7581 107.448 35.9693C107.285 36.1806 107.168 36.4144 107.083 36.686C106.997 36.9576 106.958 37.2292 106.958 37.5083V42.0874H104.813V33.759H104.806Z" fill="white"/>
<path d="M113.727 35.4191V33.7519H115.227V31.3379H117.333V33.7519H119.478V35.4191H117.333V39.2891C117.333 39.6588 117.403 39.9681 117.535 40.2095C117.675 40.4509 117.978 40.5716 118.452 40.5716C118.592 40.5716 118.747 40.5565 118.918 40.5263C119.082 40.4961 119.237 40.4509 119.361 40.3981L119.431 42.0275C119.237 42.0954 119.012 42.1482 118.755 42.1935C118.491 42.2312 118.242 42.2539 118.001 42.2539C117.426 42.2539 116.968 42.1784 116.61 42.02C116.253 41.8616 115.973 41.6503 115.763 41.3788C115.553 41.1072 115.413 40.7979 115.336 40.4433C115.258 40.0888 115.219 39.7116 115.219 39.3042V35.4191H113.727Z" fill="white"/>
<path d="M128.975 38.0205C128.975 38.111 128.975 38.2091 128.975 38.2996C128.975 38.3901 128.967 38.4882 128.959 38.5787H122.431C122.454 38.8805 122.532 39.152 122.672 39.401C122.812 39.6499 122.991 39.8612 123.216 40.0422C123.441 40.2233 123.698 40.3666 123.985 40.4647C124.273 40.5703 124.568 40.6231 124.879 40.6231C125.415 40.6231 125.866 40.525 126.239 40.3364C126.612 40.1478 126.915 39.8838 127.148 39.5443L128.578 40.6533C127.731 41.7622 126.503 42.3205 124.895 42.3205C124.226 42.3205 123.612 42.2224 123.053 42.0187C122.493 41.815 122.004 41.5284 121.6 41.1587C121.188 40.7891 120.869 40.3364 120.636 39.7933C120.403 39.2501 120.286 38.6466 120.286 37.9601C120.286 37.2887 120.403 36.6776 120.636 36.1269C120.869 35.5762 121.188 35.1085 121.592 34.7238C121.996 34.3391 122.478 34.0373 123.029 33.8185C123.581 33.5998 124.18 33.4941 124.825 33.4941C125.423 33.4941 125.975 33.5922 126.48 33.7808C126.985 33.9694 127.428 34.2561 127.793 34.6333C128.166 35.0105 128.454 35.4782 128.664 36.0364C128.866 36.6173 128.975 37.2736 128.975 38.0205ZM126.83 37.085C126.83 36.821 126.791 36.5645 126.713 36.3231C126.635 36.0817 126.511 35.8629 126.348 35.6819C126.185 35.4933 125.967 35.3499 125.711 35.2368C125.454 35.1236 125.151 35.0708 124.809 35.0708C124.164 35.0708 123.62 35.2594 123.177 35.6366C122.726 36.0138 122.485 36.4966 122.439 37.085H126.83Z" fill="white"/>
<path d="M130.793 33.759H132.852V35.1471H132.891C133.132 34.6642 133.466 34.2644 133.894 33.9702C134.321 33.6685 134.826 33.5176 135.394 33.5176C135.479 33.5176 135.565 33.5176 135.666 33.5251C135.759 33.5327 135.844 33.5478 135.914 33.5704V35.479C135.774 35.4413 135.65 35.4186 135.549 35.4111C135.448 35.396 135.347 35.396 135.254 35.396C134.764 35.396 134.376 35.479 134.073 35.6525C133.777 35.826 133.544 36.0372 133.373 36.2786C133.21 36.52 133.093 36.769 133.031 37.0255C132.969 37.282 132.946 37.4857 132.946 37.629V42.0874H130.801V33.759H130.793Z" fill="white"/>
<path d="M23.7806 23.3103C23.2988 22.4126 22.6538 21.447 21.9233 20.4286C22.4129 23.7856 21.8922 26.788 20.5244 30.0319C16.9495 36.7459 11.1132 37.2061 7.76372 30.658C5.19915 25.1812 6.71458 19.9835 7.57721 16.5359C8.61081 12.3868 10.9811 5.7105 12.7219 0.35436C12.7996 -0.0303772 4.63961 16.2493 2.33149 22.6314C1.02589 26.2298 -1.28999 31.6463 2.86772 37.4173C8.28441 44.3275 17.5324 43.9428 23.0812 36.9723C25.8945 32.4761 26.3297 28.41 23.7806 23.3103Z" fill="#FC1921"/>
<path d="M13.9964 32.5675C16.8678 32.5675 19.1955 29.4805 19.1955 25.6724C19.1955 21.8644 16.8678 18.7773 13.9964 18.7773C11.1251 18.7773 8.79736 21.8644 8.79736 25.6724C8.79736 29.4805 11.1251 32.5675 13.9964 32.5675Z" fill="#FC1921"/>
</svg>
