<?xml version="1.0" encoding="utf-8"?>
<!-- Generator: Adobe Illustrator 27.0.1, SVG Export Plug-In . SVG Version: 6.00 Build 0)  -->
<svg version="1.1" id="Layer_1" xmlns="http://www.w3.org/2000/svg" xmlns:xlink="http://www.w3.org/1999/xlink" x="0px" y="0px"
	 width="176" height="60" viewBox="0 0 176 60" style="enable-background:new 0 0 174.73 43;" xml:space="preserve">
<style type="text/css">
	.st0{fill:#EF3E42;}
	.st1{fill:#FFFFFF;}
</style>
<g>
	<g>
		<path class="st0" d="M1.16,33.96c1.07,2.63,2.87,4.93,5.32,6.55c0.05,0.03,0.1,0.07,0.15,0.1c2.32,1.49,5.2,2.39,8.59,2.39
			c0.13,0,0.25-0.01,0.38-0.02c0.12,0.01,0.25,0.02,0.38,0.02c3.39,0,6.27-0.89,8.59-2.39c0.05-0.03,0.1-0.07,0.15-0.1
			c2.45-1.62,4.24-3.92,5.32-6.55H1.16z"/>
		<path class="st0" d="M30.28,33.29c0.59-1.67,0.9-3.46,0.9-5.28c0-0.35-0.01-0.7-0.04-1.05H0.04C0.01,27.3,0,27.65,0,28.01
			c0,1.82,0.31,3.61,0.9,5.28H30.28z"/>
		<path class="st0" d="M28.95,20.18H2.23c-1.07,1.73-1.8,3.69-2.09,5.79h30.9C30.75,23.87,30.02,21.91,28.95,20.18z"/>
		<polygon class="st0" points="24.51,13.4 6.67,13.4 3.78,17.74 3.2,18.65 27.98,18.65 		"/>
		<polygon class="st0" points="27.4,17.74 24.51,13.4 27.98,18.65 		"/>
		<polygon class="st0" points="20,6.62 11.18,6.62 8.05,11.33 23.13,11.33 		"/>
		<polygon class="st0" points="15.59,0 12.92,4.01 18.26,4.01 		"/>
	</g>
</g>
<g>
	<g>
		<path class="st1" d="M51.29,7.99c-0.43-0.58-0.99-1.01-1.68-1.28s-1.37-0.4-2.02-0.4c-0.84,0-1.61,0.15-2.3,0.46
			S44,7.5,43.51,8.04c-0.5,0.54-0.88,1.17-1.15,1.89c-0.27,0.72-0.4,1.5-0.4,2.35c0,0.89,0.13,1.7,0.39,2.44
			c0.26,0.74,0.63,1.37,1.12,1.9c0.48,0.53,1.06,0.94,1.74,1.23c0.67,0.29,1.43,0.44,2.28,0.44c0.87,0,1.65-0.17,2.32-0.52
			s1.22-0.8,1.63-1.37l2.32,1.63c-0.72,0.9-1.6,1.61-2.65,2.1c-1.04,0.5-2.26,0.75-3.66,0.75c-1.27,0-2.44-0.21-3.51-0.63
			c-1.07-0.42-1.98-1.01-2.75-1.77c-0.77-0.76-1.37-1.66-1.79-2.71c-0.43-1.05-0.64-2.21-0.64-3.48c0-1.3,0.23-2.48,0.68-3.53
			c0.45-1.05,1.07-1.94,1.86-2.68c0.79-0.74,1.72-1.3,2.79-1.7c1.07-0.4,2.24-0.6,3.5-0.6c0.52,0,1.07,0.05,1.63,0.15
			c0.57,0.1,1.11,0.25,1.63,0.46c0.52,0.21,1.01,0.46,1.47,0.77s0.85,0.67,1.17,1.1L51.29,7.99z"/>
		<path class="st1" d="M54.37,14.89c0-0.87,0.16-1.67,0.47-2.38c0.31-0.71,0.74-1.32,1.28-1.83s1.17-0.9,1.91-1.17
			c0.74-0.28,1.52-0.41,2.35-0.41c0.83,0,1.61,0.14,2.35,0.41c0.74,0.28,1.37,0.67,1.91,1.17c0.54,0.51,0.96,1.12,1.28,1.83
			c0.31,0.71,0.47,1.51,0.47,2.38s-0.16,1.67-0.47,2.39c-0.31,0.72-0.74,1.34-1.28,1.85c-0.54,0.51-1.17,0.92-1.91,1.21
			c-0.74,0.29-1.52,0.44-2.35,0.44c-0.83,0-1.61-0.15-2.35-0.44c-0.74-0.29-1.37-0.69-1.91-1.21s-0.96-1.13-1.28-1.85
			C54.53,16.57,54.37,15.77,54.37,14.89z M57.18,14.89c0,0.43,0.06,0.86,0.2,1.29c0.13,0.43,0.33,0.81,0.59,1.15
			c0.26,0.34,0.59,0.61,0.99,0.83c0.4,0.21,0.87,0.32,1.43,0.32c0.55,0,1.03-0.11,1.43-0.32c0.4-0.21,0.73-0.49,0.99-0.83
			c0.26-0.34,0.46-0.72,0.59-1.15c0.13-0.43,0.2-0.86,0.2-1.29c0-0.43-0.07-0.85-0.2-1.28c-0.13-0.42-0.33-0.8-0.59-1.14
			c-0.26-0.34-0.59-0.61-0.99-0.82c-0.4-0.21-0.87-0.31-1.43-0.31c-0.55,0-1.03,0.1-1.43,0.31c-0.4,0.21-0.73,0.48-0.99,0.82
			c-0.26,0.34-0.46,0.72-0.59,1.14C57.24,14.04,57.18,14.46,57.18,14.89z"/>
		<path class="st1" d="M68.93,9.42h2.62v1.77h0.05c0.25-0.55,0.67-1.04,1.28-1.46c0.61-0.42,1.32-0.63,2.15-0.63
			c0.72,0,1.34,0.13,1.85,0.38c0.51,0.25,0.94,0.59,1.27,1c0.33,0.41,0.57,0.89,0.72,1.43s0.23,1.09,0.23,1.66v6.9h-2.76v-6.12
			c0-0.32-0.02-0.66-0.07-1.01c-0.05-0.35-0.15-0.67-0.3-0.95c-0.15-0.28-0.36-0.52-0.63-0.7c-0.27-0.18-0.62-0.28-1.07-0.28
			c-0.45,0-0.83,0.09-1.15,0.26c-0.32,0.18-0.59,0.4-0.79,0.68c-0.21,0.28-0.36,0.59-0.47,0.96c-0.11,0.36-0.16,0.72-0.16,1.09v6.07
			h-2.76V9.42z"/>
		<path class="st1" d="M82.2,9.42h2.62v1.77h0.05c0.25-0.55,0.67-1.04,1.28-1.46c0.61-0.42,1.32-0.63,2.15-0.63
			c0.72,0,1.34,0.13,1.85,0.38c0.51,0.25,0.94,0.59,1.27,1c0.33,0.41,0.57,0.89,0.72,1.43s0.23,1.09,0.23,1.66v6.9h-2.76v-6.12
			c0-0.32-0.02-0.66-0.07-1.01c-0.05-0.35-0.15-0.67-0.3-0.95c-0.15-0.28-0.36-0.52-0.63-0.7c-0.27-0.18-0.62-0.28-1.07-0.28
			c-0.45,0-0.83,0.09-1.15,0.26c-0.32,0.18-0.59,0.4-0.79,0.68c-0.21,0.28-0.36,0.59-0.47,0.96c-0.11,0.36-0.16,0.72-0.16,1.09v6.07
			H82.2V9.42z"/>
		<path class="st1" d="M106.01,15.08c0,0.12,0,0.25,0,0.37s-0.01,0.25-0.02,0.37h-8.4c0.03,0.4,0.13,0.76,0.31,1.09
			c0.18,0.33,0.41,0.61,0.7,0.85c0.29,0.24,0.62,0.43,0.99,0.56s0.75,0.21,1.15,0.21c0.69,0,1.27-0.13,1.75-0.38
			c0.48-0.25,0.87-0.6,1.17-1.05l1.84,1.47c-1.09,1.47-2.67,2.21-4.74,2.21c-0.86,0-1.65-0.13-2.37-0.4
			c-0.72-0.27-1.35-0.65-1.87-1.14c-0.53-0.49-0.94-1.09-1.24-1.81s-0.45-1.52-0.45-2.43c0-0.89,0.15-1.7,0.45-2.43
			s0.71-1.35,1.23-1.86c0.52-0.51,1.14-0.91,1.85-1.2c0.71-0.28,1.48-0.42,2.31-0.42c0.77,0,1.48,0.13,2.13,0.38
			c0.65,0.25,1.22,0.63,1.69,1.13c0.48,0.5,0.85,1.12,1.12,1.86C105.87,13.21,106.01,14.08,106.01,15.08z M103.25,13.84
			c0-0.35-0.05-0.69-0.15-1.01s-0.26-0.61-0.47-0.85c-0.21-0.25-0.49-0.44-0.82-0.59c-0.33-0.15-0.72-0.22-1.16-0.22
			c-0.83,0-1.53,0.25-2.1,0.75c-0.58,0.5-0.89,1.14-0.95,1.92H103.25z"/>
		<path class="st1" d="M116.1,12.48c-0.22-0.31-0.54-0.56-0.97-0.77s-0.87-0.31-1.31-0.31c-0.51,0-0.95,0.1-1.33,0.31
			s-0.7,0.48-0.95,0.82c-0.25,0.34-0.44,0.72-0.56,1.14s-0.18,0.85-0.18,1.28s0.06,0.85,0.2,1.28c0.13,0.42,0.33,0.8,0.59,1.14
			s0.59,0.61,0.98,0.82s0.85,0.31,1.37,0.31c0.43,0,0.86-0.08,1.29-0.25c0.43-0.17,0.77-0.41,1.03-0.74l1.73,1.75
			c-0.46,0.49-1.05,0.87-1.76,1.14c-0.71,0.27-1.48,0.4-2.31,0.4c-0.81,0-1.58-0.13-2.31-0.39c-0.73-0.26-1.37-0.64-1.91-1.15
			c-0.54-0.51-0.97-1.12-1.29-1.84c-0.31-0.72-0.47-1.54-0.47-2.46c0-0.89,0.16-1.69,0.47-2.42c0.31-0.72,0.74-1.33,1.28-1.84
			s1.16-0.9,1.87-1.17c0.71-0.28,1.48-0.41,2.29-0.41c0.81,0,1.6,0.15,2.36,0.46c0.76,0.31,1.36,0.73,1.81,1.26L116.1,12.48z"/>
		<path class="st1" d="M118.77,11.63V9.42h1.93v-3.2h2.71v3.2h2.76v2.21h-2.76v5.13c0,0.49,0.09,0.9,0.26,1.22
			c0.18,0.32,0.57,0.48,1.18,0.48c0.18,0,0.38-0.02,0.6-0.06c0.21-0.04,0.41-0.1,0.57-0.17l0.09,2.16
			c-0.25,0.09-0.54,0.16-0.87,0.22c-0.34,0.05-0.66,0.08-0.97,0.08c-0.74,0-1.33-0.1-1.79-0.31s-0.82-0.49-1.09-0.85
			c-0.27-0.36-0.45-0.77-0.55-1.24s-0.15-0.97-0.15-1.51v-5.15H118.77z"/>
		<path class="st1" d="M127.72,5.67c0-0.44,0.16-0.83,0.49-1.16c0.33-0.33,0.75-0.49,1.25-0.49s0.93,0.16,1.28,0.47
			c0.35,0.31,0.52,0.71,0.52,1.18c0,0.48-0.17,0.87-0.52,1.18c-0.34,0.31-0.77,0.47-1.28,0.47s-0.92-0.16-1.25-0.49
			C127.88,6.5,127.72,6.12,127.72,5.67z M128.11,9.42h2.76v11.04h-2.76V9.42z"/>
		<path class="st1" d="M141.66,12.48c-0.22-0.31-0.54-0.56-0.97-0.77s-0.87-0.31-1.31-0.31c-0.51,0-0.95,0.1-1.33,0.31
			s-0.7,0.48-0.95,0.82c-0.25,0.34-0.44,0.72-0.56,1.14s-0.18,0.85-0.18,1.28s0.06,0.85,0.2,1.28c0.13,0.42,0.33,0.8,0.59,1.14
			s0.59,0.61,0.98,0.82s0.85,0.31,1.37,0.31c0.43,0,0.86-0.08,1.29-0.25c0.43-0.17,0.77-0.41,1.03-0.74l1.73,1.75
			c-0.46,0.49-1.05,0.87-1.76,1.14c-0.71,0.27-1.48,0.4-2.31,0.4c-0.81,0-1.58-0.13-2.31-0.39c-0.73-0.26-1.37-0.64-1.91-1.15
			c-0.54-0.51-0.97-1.12-1.29-1.84c-0.31-0.72-0.47-1.54-0.47-2.46c0-0.89,0.16-1.69,0.47-2.42c0.31-0.72,0.74-1.33,1.28-1.84
			s1.16-0.9,1.87-1.17c0.71-0.28,1.48-0.41,2.29-0.41c0.81,0,1.6,0.15,2.36,0.46c0.76,0.31,1.36,0.73,1.81,1.26L141.66,12.48z"/>
		<path class="st1" d="M155.29,20.46h-2.62v-1.77h-0.05c-0.25,0.55-0.67,1.04-1.28,1.46c-0.61,0.42-1.32,0.63-2.15,0.63
			c-0.72,0-1.34-0.13-1.85-0.38c-0.51-0.25-0.94-0.59-1.27-1c-0.33-0.41-0.57-0.89-0.72-1.43c-0.15-0.54-0.23-1.09-0.23-1.66v-6.9
			h2.76v6.12c0,0.32,0.02,0.66,0.07,1.01c0.05,0.35,0.15,0.67,0.3,0.96s0.36,0.52,0.63,0.7c0.27,0.18,0.62,0.28,1.07,0.28
			c0.43,0,0.81-0.09,1.14-0.26c0.33-0.18,0.6-0.4,0.8-0.68c0.21-0.28,0.36-0.59,0.47-0.95c0.11-0.36,0.16-0.72,0.16-1.09V9.42h2.76
			V20.46z"/>
		<path class="st1" d="M156.9,11.63V9.42h1.93v-3.2h2.71v3.2h2.76v2.21h-2.76v5.13c0,0.49,0.09,0.9,0.26,1.22
			c0.18,0.32,0.57,0.48,1.18,0.48c0.18,0,0.38-0.02,0.6-0.06c0.21-0.04,0.41-0.1,0.57-0.17l0.09,2.16
			c-0.25,0.09-0.54,0.16-0.87,0.22c-0.34,0.05-0.66,0.08-0.97,0.08c-0.74,0-1.33-0.1-1.79-0.31s-0.82-0.49-1.09-0.85
			c-0.27-0.36-0.45-0.77-0.55-1.24s-0.15-0.97-0.15-1.51v-5.15H156.9z"/>
		<path class="st1" d="M39.54,24.18h6.35c0.61,0,1.22,0.07,1.82,0.22c0.6,0.15,1.13,0.38,1.6,0.71c0.47,0.33,0.85,0.76,1.14,1.28
			c0.29,0.52,0.44,1.15,0.44,1.89c0,0.92-0.26,1.68-0.78,2.28c-0.52,0.6-1.2,1.03-2.05,1.29v0.05c1.03,0.14,1.87,0.54,2.53,1.2
			c0.66,0.66,0.99,1.54,0.99,2.65c0,0.89-0.18,1.64-0.53,2.24c-0.35,0.61-0.82,1.09-1.39,1.46c-0.57,0.37-1.23,0.63-1.98,0.79
			s-1.5,0.24-2.27,0.24h-5.87V24.18z M42.44,30.8h2.58c0.97,0,1.7-0.19,2.21-0.57c0.51-0.38,0.76-0.93,0.76-1.63
			c0-0.74-0.26-1.26-0.78-1.56c-0.52-0.31-1.33-0.46-2.44-0.46h-2.32V30.8z M42.44,38.02h2.6c0.37,0,0.77-0.03,1.2-0.08
			c0.43-0.05,0.82-0.16,1.18-0.33s0.66-0.41,0.9-0.74s0.36-0.75,0.36-1.29c0-0.86-0.29-1.46-0.87-1.79
			c-0.58-0.34-1.46-0.51-2.65-0.51h-2.71V38.02z"/>
		<path class="st1" d="M53.75,23.07h2.76v17.39h-2.76V23.07z"/>
		<path class="st1" d="M58.65,34.89c0-0.87,0.16-1.67,0.47-2.38c0.31-0.71,0.74-1.32,1.28-1.83s1.17-0.9,1.91-1.17
			c0.74-0.28,1.52-0.41,2.35-0.41c0.83,0,1.61,0.14,2.35,0.41c0.74,0.28,1.37,0.67,1.91,1.17c0.54,0.51,0.96,1.12,1.28,1.83
			c0.31,0.71,0.47,1.51,0.47,2.38s-0.16,1.67-0.47,2.39c-0.31,0.72-0.74,1.34-1.28,1.85c-0.54,0.51-1.17,0.92-1.91,1.21
			c-0.74,0.29-1.52,0.44-2.35,0.44c-0.83,0-1.61-0.15-2.35-0.44c-0.74-0.29-1.37-0.69-1.91-1.21s-0.96-1.13-1.28-1.85
			C58.81,36.57,58.65,35.77,58.65,34.89z M61.46,34.89c0,0.43,0.06,0.86,0.2,1.29c0.13,0.43,0.33,0.81,0.59,1.15
			c0.26,0.34,0.59,0.61,0.99,0.83c0.4,0.21,0.87,0.32,1.43,0.32c0.55,0,1.03-0.11,1.43-0.32c0.4-0.21,0.73-0.49,0.99-0.83
			c0.26-0.34,0.46-0.72,0.59-1.15c0.13-0.43,0.2-0.86,0.2-1.29c0-0.43-0.07-0.85-0.2-1.28c-0.13-0.42-0.33-0.8-0.59-1.14
			c-0.26-0.34-0.59-0.61-0.99-0.82c-0.4-0.21-0.87-0.31-1.43-0.31c-0.55,0-1.03,0.1-1.43,0.31c-0.4,0.21-0.73,0.48-0.99,0.82
			c-0.26,0.34-0.46,0.72-0.59,1.14C61.52,34.04,61.46,34.46,61.46,34.89z"/>
		<path class="st1" d="M72.1,34.89c0-0.87,0.16-1.67,0.47-2.38c0.31-0.71,0.74-1.32,1.28-1.83s1.17-0.9,1.91-1.17
			c0.74-0.28,1.52-0.41,2.35-0.41c0.83,0,1.61,0.14,2.35,0.41c0.74,0.28,1.37,0.67,1.91,1.17c0.54,0.51,0.96,1.12,1.28,1.83
			c0.31,0.71,0.47,1.51,0.47,2.38s-0.16,1.67-0.47,2.39c-0.31,0.72-0.74,1.34-1.28,1.85c-0.54,0.51-1.17,0.92-1.91,1.21
			c-0.74,0.29-1.52,0.44-2.35,0.44c-0.83,0-1.61-0.15-2.35-0.44c-0.74-0.29-1.37-0.69-1.91-1.21s-0.96-1.13-1.28-1.85
			C72.26,36.57,72.1,35.77,72.1,34.89z M74.91,34.89c0,0.43,0.06,0.86,0.2,1.29c0.13,0.43,0.33,0.81,0.59,1.15
			c0.26,0.34,0.59,0.61,0.99,0.83c0.4,0.21,0.87,0.32,1.43,0.32c0.55,0,1.03-0.11,1.43-0.32c0.4-0.21,0.73-0.49,0.99-0.83
			c0.26-0.34,0.46-0.72,0.59-1.15c0.13-0.43,0.2-0.86,0.2-1.29c0-0.43-0.07-0.85-0.2-1.28c-0.13-0.42-0.33-0.8-0.59-1.14
			c-0.26-0.34-0.59-0.61-0.99-0.82c-0.4-0.21-0.87-0.31-1.43-0.31c-0.55,0-1.03,0.1-1.43,0.31c-0.4,0.21-0.73,0.48-0.99,0.82
			c-0.26,0.34-0.46,0.72-0.59,1.14C74.98,34.04,74.91,34.46,74.91,34.89z"/>
		<path class="st1" d="M97.43,40.46h-2.62V38.8h-0.05c-0.38,0.64-0.92,1.13-1.6,1.47s-1.41,0.51-2.2,0.51
			c-0.84,0-1.6-0.16-2.27-0.47c-0.67-0.31-1.23-0.74-1.7-1.26c-0.47-0.53-0.83-1.15-1.08-1.86s-0.38-1.48-0.38-2.29
			s0.13-1.57,0.39-2.28s0.63-1.32,1.1-1.84s1.04-0.93,1.7-1.23c0.66-0.3,1.38-0.45,2.16-0.45c0.51,0,0.96,0.06,1.36,0.17
			c0.4,0.12,0.75,0.26,1.05,0.43s0.56,0.35,0.77,0.55c0.21,0.2,0.39,0.39,0.53,0.58h0.07v-7.75h2.76V40.46z M88.34,34.89
			c0,0.43,0.06,0.86,0.2,1.29c0.13,0.43,0.33,0.81,0.59,1.15c0.26,0.34,0.59,0.61,0.99,0.83c0.4,0.21,0.87,0.32,1.4,0.32
			c0.51,0,0.96-0.1,1.36-0.31c0.4-0.21,0.74-0.48,1.02-0.82c0.28-0.34,0.5-0.72,0.64-1.14c0.15-0.42,0.22-0.85,0.22-1.28
			s-0.07-0.86-0.22-1.29c-0.15-0.43-0.36-0.81-0.64-1.15c-0.28-0.34-0.62-0.61-1.02-0.83c-0.4-0.21-0.85-0.32-1.36-0.32
			c-0.54,0-1,0.1-1.4,0.31c-0.4,0.21-0.73,0.48-0.99,0.82c-0.26,0.34-0.46,0.72-0.59,1.14C88.41,34.04,88.34,34.46,88.34,34.89z"/>
		<path class="st1" d="M117.74,27.99c-0.43-0.58-0.99-1.01-1.68-1.28s-1.37-0.4-2.02-0.4c-0.84,0-1.61,0.15-2.3,0.46
			s-1.28,0.73-1.78,1.26c-0.5,0.54-0.88,1.17-1.15,1.89c-0.27,0.72-0.4,1.5-0.4,2.35c0,0.89,0.13,1.7,0.39,2.44
			c0.26,0.74,0.63,1.37,1.12,1.9c0.48,0.53,1.06,0.94,1.74,1.23c0.67,0.29,1.43,0.44,2.28,0.44c0.87,0,1.65-0.17,2.32-0.52
			s1.22-0.8,1.63-1.37l2.32,1.63c-0.72,0.9-1.6,1.61-2.65,2.1c-1.04,0.5-2.26,0.75-3.66,0.75c-1.27,0-2.44-0.21-3.51-0.63
			c-1.07-0.42-1.98-1.01-2.75-1.77c-0.77-0.76-1.37-1.66-1.79-2.71c-0.43-1.05-0.64-2.21-0.64-3.48c0-1.3,0.23-2.48,0.68-3.53
			c0.45-1.05,1.07-1.94,1.86-2.68c0.79-0.74,1.72-1.3,2.79-1.7c1.07-0.4,2.24-0.6,3.5-0.6c0.52,0,1.07,0.05,1.63,0.15
			c0.57,0.1,1.11,0.25,1.63,0.46c0.52,0.21,1.01,0.46,1.47,0.77s0.85,0.67,1.17,1.1L117.74,27.99z"/>
		<path class="st1" d="M132,35.08c0,0.12,0,0.25,0,0.37s-0.01,0.25-0.02,0.37h-8.4c0.03,0.4,0.13,0.76,0.31,1.09
			c0.18,0.33,0.41,0.61,0.7,0.85c0.29,0.24,0.62,0.43,0.99,0.56s0.75,0.21,1.15,0.21c0.69,0,1.27-0.13,1.75-0.38
			c0.48-0.25,0.87-0.6,1.17-1.05l1.84,1.47c-1.09,1.47-2.67,2.21-4.74,2.21c-0.86,0-1.65-0.13-2.37-0.4
			c-0.72-0.27-1.35-0.65-1.87-1.14c-0.53-0.49-0.94-1.09-1.24-1.81s-0.45-1.52-0.45-2.43c0-0.89,0.15-1.7,0.45-2.43
			s0.71-1.35,1.23-1.86c0.52-0.51,1.14-0.91,1.85-1.2c0.71-0.28,1.48-0.42,2.31-0.42c0.77,0,1.48,0.13,2.13,0.38
			c0.65,0.25,1.22,0.63,1.69,1.13c0.48,0.5,0.85,1.12,1.12,1.86C131.86,33.21,132,34.08,132,35.08z M129.24,33.84
			c0-0.35-0.05-0.69-0.15-1.01s-0.26-0.61-0.47-0.85c-0.21-0.25-0.49-0.44-0.82-0.59c-0.33-0.15-0.72-0.22-1.16-0.22
			c-0.83,0-1.53,0.25-2.1,0.75c-0.58,0.5-0.89,1.14-0.95,1.92H129.24z"/>
		<path class="st1" d="M134.09,29.42h2.62v1.77h0.05c0.25-0.55,0.67-1.04,1.28-1.46c0.61-0.42,1.32-0.63,2.15-0.63
			c0.72,0,1.34,0.13,1.85,0.38c0.51,0.25,0.94,0.59,1.27,1c0.33,0.41,0.57,0.89,0.72,1.43s0.23,1.09,0.23,1.66v6.9h-2.76v-6.12
			c0-0.32-0.02-0.66-0.07-1.01c-0.05-0.35-0.15-0.67-0.3-0.95c-0.15-0.28-0.36-0.52-0.63-0.7c-0.27-0.18-0.62-0.28-1.07-0.28
			c-0.45,0-0.83,0.09-1.15,0.26c-0.32,0.18-0.59,0.4-0.79,0.68c-0.21,0.28-0.36,0.59-0.47,0.96c-0.11,0.36-0.16,0.72-0.16,1.09v6.07
			h-2.76V29.42z"/>
		<path class="st1" d="M145.77,31.63v-2.21h1.93v-3.2h2.71v3.2h2.76v2.21h-2.76v5.13c0,0.49,0.09,0.9,0.26,1.22
			c0.18,0.32,0.57,0.48,1.18,0.48c0.18,0,0.38-0.02,0.6-0.06c0.21-0.04,0.41-0.1,0.57-0.17l0.09,2.16
			c-0.25,0.09-0.54,0.16-0.87,0.22c-0.34,0.05-0.66,0.08-0.97,0.08c-0.74,0-1.33-0.1-1.79-0.31s-0.82-0.49-1.09-0.85
			c-0.27-0.36-0.45-0.77-0.55-1.24s-0.15-0.97-0.15-1.51v-5.15H145.77z"/>
		<path class="st1" d="M165.6,35.08c0,0.12,0,0.25,0,0.37s-0.01,0.25-0.02,0.37h-8.4c0.03,0.4,0.13,0.76,0.31,1.09
			c0.18,0.33,0.41,0.61,0.7,0.85c0.29,0.24,0.62,0.43,0.99,0.56s0.75,0.21,1.15,0.21c0.69,0,1.27-0.13,1.75-0.38
			c0.48-0.25,0.87-0.6,1.17-1.05l1.84,1.47c-1.09,1.47-2.67,2.21-4.74,2.21c-0.86,0-1.65-0.13-2.37-0.4
			c-0.72-0.27-1.35-0.65-1.87-1.14c-0.53-0.49-0.94-1.09-1.24-1.81s-0.45-1.52-0.45-2.43c0-0.89,0.15-1.7,0.45-2.43
			s0.71-1.35,1.23-1.86c0.52-0.51,1.14-0.91,1.85-1.2c0.71-0.28,1.48-0.42,2.31-0.42c0.77,0,1.48,0.13,2.13,0.38
			c0.65,0.25,1.22,0.63,1.69,1.13c0.48,0.5,0.85,1.12,1.12,1.86C165.46,33.21,165.6,34.08,165.6,35.08z M162.84,33.84
			c0-0.35-0.05-0.69-0.15-1.01s-0.26-0.61-0.47-0.85c-0.21-0.25-0.49-0.44-0.82-0.59c-0.33-0.15-0.72-0.22-1.16-0.22
			c-0.83,0-1.53,0.25-2.1,0.75c-0.58,0.5-0.89,1.14-0.95,1.92H162.84z"/>
		<path class="st1" d="M168.15,29.42h2.65v1.84h0.05c0.31-0.64,0.74-1.17,1.29-1.56c0.55-0.4,1.2-0.6,1.93-0.6
			c0.11,0,0.22,0,0.35,0.01c0.12,0.01,0.23,0.03,0.32,0.06v2.53c-0.18-0.05-0.34-0.08-0.47-0.09c-0.13-0.02-0.26-0.02-0.38-0.02
			c-0.63,0-1.13,0.12-1.52,0.34c-0.38,0.23-0.68,0.51-0.9,0.83c-0.21,0.32-0.36,0.65-0.44,0.99c-0.08,0.34-0.11,0.61-0.11,0.8v5.91
			h-2.76V29.42z"/>
	</g>
</g>
</svg>
