<svg width="129" height="35" viewBox="0 0 129 35" fill="none" xmlns="http://www.w3.org/2000/svg">
<g clip-path="url(#clip0_5527_6018)">
<path d="M31.5781 3.03711H36.555C37.033 3.04007 37.509 3.10251 37.9737 3.22319C38.4226 3.33761 38.8478 3.54126 39.2277 3.82372C39.596 4.10885 39.9012 4.47861 40.1212 4.90637C40.3485 5.4021 40.4538 5.95262 40.4268 6.50497C40.451 7.20725 40.2332 7.8943 39.8155 8.43344C39.398 8.94835 38.8548 9.3264 38.248 9.52454C38.9877 9.62696 39.6746 9.99312 40.1995 10.5649C40.464 10.86 40.6699 11.2103 40.8046 11.5942C40.9394 11.9782 41.0002 12.3877 40.9833 12.7979C41.007 13.4584 40.8634 14.1134 40.5679 14.6925C40.3046 15.1947 39.9304 15.6189 39.4785 15.9274C38.9986 16.2526 38.4672 16.4791 37.911 16.5956C37.3262 16.7309 36.7298 16.7989 36.1318 16.7986H31.5781V3.03711ZM33.851 8.63643H35.8653C36.4609 8.68559 37.0558 8.53175 37.5661 8.19661C37.7611 8.03576 37.9172 7.82634 38.0209 7.58625C38.1246 7.34617 38.173 7.08255 38.1618 6.81792C38.183 6.55729 38.1372 6.29539 38.0293 6.06108C37.9214 5.82676 37.7557 5.62914 37.5504 5.48998C36.9525 5.19192 36.2955 5.05825 35.638 5.10091H33.8197L33.851 8.63643ZM33.851 14.7432H35.881C36.1954 14.7401 36.5095 14.7175 36.8215 14.6756C37.1417 14.6317 37.4536 14.5347 37.7464 14.388C38.0268 14.2512 38.2698 14.0385 38.4517 13.7706C38.6536 13.4498 38.7527 13.0666 38.7339 12.6794C38.7603 12.3829 38.7097 12.0843 38.588 11.8169C38.4662 11.5496 38.2779 11.324 38.0442 11.1654C37.3902 10.8285 36.6666 10.6799 35.9437 10.7341H33.8197L33.851 14.7432Z" fill="white"/>
<path d="M42.6763 2.10547H44.8395V16.7973H42.6763V2.10547Z" fill="white"/>
<path d="M46.5164 12.0953C46.5109 11.4043 46.6362 10.7192 46.8847 10.0823C47.1186 9.49874 47.4602 8.97276 47.8887 8.53648C48.3172 8.1002 48.8237 7.76278 49.3771 7.54483C49.9658 7.30602 50.5901 7.18562 51.219 7.18958C51.8454 7.18493 52.4672 7.30537 53.053 7.54483C53.6099 7.75973 54.1196 8.09666 54.55 8.53444C54.9774 8.96907 55.3187 9.49276 55.5532 10.0738C56.044 11.3665 56.044 12.8157 55.5532 14.1084C55.3186 14.6987 54.9764 15.2321 54.5469 15.6768C54.1174 16.1214 53.6093 16.4683 53.053 16.6966C52.4692 16.9457 51.8467 17.072 51.219 17.0688C50.5887 17.0713 49.9638 16.945 49.3771 16.6966C48.8223 16.4664 48.3159 16.1183 47.8879 15.6732C47.4584 15.2339 47.117 14.7042 46.8847 14.1168C46.6352 13.4773 46.5098 12.7893 46.5164 12.0953ZM48.7109 12.0953C48.7132 12.4654 48.766 12.833 48.8677 13.1864C48.9626 13.5397 49.1196 13.8699 49.3301 14.1591C49.5407 14.4521 49.8082 14.6918 50.1138 14.8612C50.461 15.05 50.846 15.143 51.2346 15.1318C51.6206 15.1416 52.0028 15.0486 52.3476 14.8612C52.652 14.6898 52.9192 14.4505 53.1313 14.1591C53.3389 13.8679 53.4956 13.5383 53.5938 13.1864C53.693 12.8327 53.7432 12.465 53.7427 12.0953C53.7437 11.7312 53.6935 11.369 53.5938 11.0211C53.4938 10.6727 53.3372 10.3462 53.1313 10.0569C52.921 9.76581 52.6533 9.52889 52.3476 9.36334C52.0008 9.18291 51.6195 9.09308 51.2346 9.10113C50.8472 9.09302 50.4634 9.18281 50.1138 9.36334C49.8062 9.52563 49.5378 9.76311 49.3301 10.0569C49.1212 10.3442 48.9644 10.6713 48.8677 11.0211C48.7654 11.3686 48.7125 11.7308 48.7109 12.0953Z" fill="white"/>
<path d="M57.0504 12.0947C57.0472 11.4013 57.1808 10.7151 57.4423 10.0816C57.6711 9.49931 58.0101 8.97498 58.4376 8.54225C58.868 8.10448 59.3777 7.76754 59.9346 7.55264C60.5204 7.31318 61.1422 7.19274 61.7686 7.1974C62.3975 7.19344 63.0218 7.31384 63.6105 7.55264C64.1651 7.76748 64.6722 8.10449 65.0996 8.54225C65.513 8.98079 65.8408 9.50421 66.0637 10.0816C66.5545 11.3743 66.5545 12.8235 66.0637 14.1162C65.8289 14.705 65.4875 15.2372 65.0595 15.6817C64.6315 16.1261 64.1255 16.4739 63.5713 16.7044C62.9846 16.9528 62.3597 17.0791 61.7295 17.0766C61.1017 17.0799 60.4792 16.9535 59.8954 16.7044C59.3382 16.4744 58.8292 16.1264 58.3984 15.681C57.9846 15.2348 57.6593 14.7024 57.4423 14.1162C57.1802 13.48 57.0466 12.7909 57.0504 12.0947ZM59.2528 12.0947C59.2522 12.4643 59.3024 12.832 59.4017 13.1858C59.4998 13.5376 59.6565 13.8672 59.8641 14.1585C60.0763 14.4498 60.3434 14.6891 60.6479 14.8605C60.9926 15.048 61.3749 15.1409 61.7608 15.1312C62.1494 15.1423 62.5345 15.0493 62.8816 14.8605C63.1832 14.6845 63.4495 14.4459 63.6654 14.1585C63.8704 13.8668 64.0245 13.5372 64.1199 13.1858C64.2216 12.8324 64.2744 12.4647 64.2767 12.0947C64.2751 11.7301 64.2222 11.3679 64.1199 11.0205C64.0228 10.6724 63.8689 10.3459 63.6654 10.0563C63.3032 9.60107 62.8127 9.2867 62.269 9.16141C61.7253 9.03612 61.1585 9.10683 60.6557 9.36269C60.35 9.52824 60.0822 9.76516 59.8719 10.0563C59.6661 10.3456 59.5095 10.6721 59.4095 11.0205C59.3071 11.3679 59.2542 11.7301 59.2528 12.0947Z" fill="white"/>
<path d="M76.8876 16.7973H74.8341V15.4017C74.5397 15.9413 74.1031 16.3741 73.5801 16.6451C73.0473 16.9326 72.4592 17.0804 71.8636 17.0765C71.2732 17.0931 70.6865 16.97 70.1449 16.7157C69.6033 16.4614 69.1198 16.0822 68.7286 15.6047C68.3595 15.1407 68.0725 14.6075 67.8821 14.0315C67.6838 13.4084 67.5857 12.7534 67.5921 12.0946C67.5869 11.44 67.6904 10.7898 67.8978 10.1746C68.0859 9.59885 68.379 9.06966 68.7599 8.61828C69.2724 8.03339 69.9207 7.60726 70.6374 7.38415C71.3541 7.16104 72.1131 7.14909 72.8355 7.34955C73.1077 7.44109 73.3704 7.56298 73.6193 7.71325C73.8372 7.84131 74.0398 7.99752 74.2228 8.17845C74.3739 8.32585 74.5129 8.48716 74.6382 8.66057H74.693V2.10547H76.8562L76.8876 16.7973ZM69.771 12.0946C69.7705 12.4642 69.8206 12.8319 69.9199 13.1857C70.0181 13.5375 70.1748 13.8671 70.3823 14.1584C70.5945 14.4497 70.8617 14.689 71.1661 14.8604C71.5061 15.0452 71.8827 15.1381 72.2633 15.1311C72.6328 15.1353 72.998 15.0454 73.3293 14.8689C73.6307 14.6963 73.8972 14.4605 74.113 14.1753C74.3371 13.8924 74.5076 13.5648 74.6146 13.2111C74.7294 12.8665 74.7878 12.503 74.7871 12.1369C74.7871 11.7653 74.7288 11.3964 74.6146 11.0458C74.5058 10.6903 74.3356 10.3603 74.113 10.0731C73.895 9.79021 73.629 9.55481 73.3293 9.37951C73.0019 9.18955 72.6349 9.09344 72.2633 9.10039C71.8835 9.0931 71.5075 9.18295 71.1661 9.3626C70.8604 9.52815 70.5926 9.76507 70.3823 10.0562C70.1764 10.3455 70.0199 10.672 69.9199 11.0204C69.8201 11.3683 69.7699 11.7305 69.771 12.0946Z" fill="white"/>
<path d="M83.228 3.03711H88.1971C88.6751 3.03954 89.1511 3.10198 89.6157 3.22319C90.0647 3.33761 90.4899 3.54126 90.8697 3.82372C91.2674 4.12325 91.5892 4.52563 91.8055 4.99405C92.0219 5.46246 92.1259 5.98195 92.1081 6.50497C92.1323 7.20725 91.9145 7.8943 91.4968 8.43344C91.077 8.94563 90.5347 9.32314 89.9292 9.52454C90.6771 9.61272 91.3757 9.97028 91.9122 10.5395C92.1766 10.8347 92.3825 11.1849 92.5173 11.5689C92.652 11.9528 92.7128 12.3623 92.6959 12.7725C92.7161 13.4327 92.5727 14.0867 92.2805 14.6671C92.0024 15.1808 91.6123 15.6134 91.1441 15.9274C90.6631 16.2502 90.1321 16.4765 89.5765 16.5956C88.9944 16.7309 88.4007 16.7989 87.8052 16.7986H83.228V3.03711ZM85.4931 8.63643H87.5152C88.1231 8.68025 88.7278 8.51116 89.2395 8.15432C89.4356 7.99446 89.5923 7.78522 89.6962 7.54489C89.8 7.30456 89.8477 7.04045 89.8352 6.77563C89.8564 6.515 89.8106 6.2531 89.7027 6.01879C89.5949 5.78447 89.4291 5.58685 89.2238 5.44769C88.6268 5.14654 87.9691 5.01272 87.3115 5.05862H85.4931V8.63643ZM85.4931 14.7432H87.5309C87.8427 14.7401 88.1542 14.7175 88.4636 14.6756C88.7862 14.6311 89.1006 14.5341 89.3963 14.388C89.6758 14.2533 89.9168 14.0401 90.0938 13.7706C90.2902 13.4478 90.3837 13.0647 90.3603 12.6794C90.3884 12.3836 90.3394 12.0852 90.219 11.8177C90.0985 11.5503 89.9113 11.3244 89.6784 11.1654C89.0355 10.8381 88.3268 10.6898 87.6171 10.7341H85.4931V14.7432Z" fill="white"/>
<path d="M99.6869 15.6142H99.6321C99.3922 16.0686 99.0282 16.432 98.5897 16.6546C98.0806 16.9256 97.5191 17.0618 96.9516 17.0521C96.5846 17.0486 96.2191 17.0004 95.8622 16.9083C95.4889 16.8101 95.1337 16.6442 94.8119 16.4177C94.4942 16.1864 94.2268 15.8834 94.0281 15.5296C93.811 15.1117 93.7027 14.6383 93.7146 14.1594C93.6834 13.5395 93.8806 12.9314 94.2633 12.4678C94.6593 12.0323 95.1455 11.7047 95.6819 11.512C96.3001 11.2822 96.9426 11.1372 97.5943 11.0806C98.2997 11.0045 98.9894 10.9707 99.6634 10.9707V10.7338C99.679 10.4826 99.6329 10.2315 99.5297 10.0057C99.4264 9.77997 99.2698 9.58763 99.0756 9.44818C98.6602 9.15978 98.1743 9.01247 97.6805 9.02527C97.2257 9.02529 96.7765 9.13208 96.3638 9.33822C95.9743 9.51744 95.6204 9.77588 95.3214 10.0995L94.2006 8.67848C94.6914 8.18765 95.2703 7.81056 95.9014 7.57046C96.5299 7.32619 97.1927 7.2003 97.8608 7.1983C98.5089 7.1743 99.1547 7.29525 99.7575 7.55354C100.194 7.73719 100.583 8.03004 100.894 8.40798C101.204 8.78591 101.427 9.2381 101.544 9.7273C101.656 10.1829 101.714 10.6518 101.717 11.1229V16.7983H99.6869V15.6142ZM99.6869 12.5439H99.201C98.8457 12.5439 98.4773 12.5608 98.0959 12.5946C97.737 12.622 97.382 12.6929 97.0378 12.8061C96.7514 12.9056 96.4853 13.0635 96.254 13.2713C96.1453 13.3773 96.0599 13.5084 96.0043 13.6548C95.9487 13.8012 95.9242 13.9592 95.9327 14.1171C95.9268 14.3104 95.9731 14.5014 96.0659 14.6669C96.1571 14.8148 96.2776 14.939 96.4186 15.0306C96.5695 15.1241 96.7337 15.1898 96.9046 15.2251C97.0823 15.2657 97.2637 15.2856 97.4454 15.2843C97.7476 15.3222 98.0538 15.2868 98.3418 15.1808C98.6297 15.0747 98.8921 14.9007 99.1098 14.6714C99.3276 14.4421 99.4952 14.1633 99.6004 13.8552C99.7057 13.5471 99.746 13.2176 99.7183 12.8907L99.6869 12.5439Z" fill="white"/>
<path d="M103.778 7.46906H105.832V8.96616C106.079 8.42673 106.462 7.97411 106.938 7.66111C107.414 7.34811 107.963 7.18763 108.52 7.1984C109.02 7.18475 109.516 7.2947 109.97 7.51981C110.353 7.71971 110.69 8.00855 110.958 8.36563C111.218 8.72236 111.413 9.13023 111.53 9.56669C111.649 10.0237 111.71 10.4961 111.71 10.9708V16.7984H109.547V11.6305C109.547 11.3475 109.529 11.0649 109.492 10.7847C109.458 10.504 109.378 10.2321 109.257 9.98114C109.137 9.71412 108.946 9.49137 108.709 9.34087C108.472 9.19038 108.199 9.11887 107.925 9.13532C107.612 9.12801 107.302 9.20352 107.023 9.35524C106.783 9.50008 106.572 9.6957 106.404 9.93039C106.232 10.1839 106.107 10.4712 106.036 10.7762C105.951 11.075 105.909 11.3858 105.91 11.6982V16.8238H103.747L103.778 7.46906Z" fill="white"/>
<path d="M113.874 2.10547H116.029V11.4095H116.084L119.36 7.46796H122.134L118.388 11.6971L122.37 16.772H119.509L116.084 11.9931H116.029V16.772H113.874V2.10547Z" fill="white"/>
<path d="M30.9354 29.0031C30.9272 28.3117 31.0527 27.6261 31.3038 26.9901C31.5365 26.4057 31.8777 25.879 32.3063 25.4426C32.735 25.0062 33.2421 24.6692 33.7962 24.4526C34.3854 24.2167 35.0096 24.0991 35.638 24.1058C36.264 24.0983 36.8858 24.2158 37.472 24.4526C38.0261 24.674 38.5346 25.0102 38.969 25.4422C39.3949 25.8816 39.7359 26.4077 39.9723 26.9901C40.2234 27.6261 40.3488 28.3117 40.3406 29.0031C40.3483 29.6999 40.2229 30.3909 39.9723 31.0331C39.736 31.6205 39.3952 32.1522 38.969 32.5978C38.5324 33.0226 38.0242 33.3529 37.472 33.5705C36.8883 33.8197 36.2658 33.946 35.638 33.9427C35.0078 33.9452 34.3829 33.8189 33.7962 33.5705C33.245 33.3483 32.7405 33.0093 32.3125 32.5735C31.8844 32.1378 31.5415 31.614 31.3038 31.0331C31.0532 30.3909 30.9278 29.6999 30.9354 29.0031ZM33.13 29.0031C33.1316 29.3704 33.1845 29.7354 33.2867 30.0858C33.3828 30.4308 33.5398 30.7525 33.7492 31.0331C33.9597 31.3261 34.2273 31.5657 34.5329 31.7351C34.8792 31.9263 35.2649 32.0194 35.6537 32.0058C36.0401 32.0203 36.4234 31.927 36.7667 31.7351C37.0723 31.5657 37.3398 31.3261 37.5504 31.0331C37.7595 30.7428 37.9163 30.4129 38.0128 30.0604C38.2112 29.3545 38.2112 28.601 38.0128 27.8951C37.9128 27.5466 37.7563 27.2202 37.5504 26.9308C37.3382 26.644 37.0708 26.4102 36.7667 26.2457C36.4212 26.0612 36.039 25.9712 35.6537 25.9835C35.2658 25.9698 34.8807 26.0598 34.5329 26.2457C34.2303 26.4126 33.9633 26.646 33.7492 26.9308C33.5403 27.2181 33.3834 27.5452 33.2867 27.8951C33.1874 28.2544 33.1398 28.6281 33.1457 29.0031H33.13Z" fill="white"/>
<path d="M42.3232 26.2382H40.6772V24.3774H42.3232V22.9987C42.3215 22.458 42.3767 21.9189 42.4877 21.3916C42.592 20.902 42.7895 20.4411 43.0677 20.0383C43.3421 19.6424 43.7029 19.3257 44.118 19.1164C44.6444 18.8716 45.2146 18.7561 45.7874 18.778C46.0304 18.778 46.2341 18.778 46.3909 18.778C46.5601 18.8033 46.7276 18.84 46.8925 18.888L46.7671 20.8841L46.3831 20.7911C46.2344 20.7778 46.085 20.7778 45.9363 20.7911C45.6632 20.7735 45.3911 20.841 45.1526 20.9856C44.9678 21.1107 44.8166 21.2856 44.7136 21.4931C44.6107 21.7053 44.5392 21.9336 44.502 22.1698C44.4688 22.4107 44.4505 22.6537 44.4472 22.8972V24.4112H46.4693V26.272H44.4785V33.7406H42.3232V26.2382Z" fill="white"/>
<path d="M51.9561 19.9453H56.4784C57.3219 19.9488 58.1617 20.0653 58.9786 20.2921C59.7992 20.5142 60.5714 20.9079 61.2515 21.4509C61.9413 22.01 62.5019 22.7337 62.8896 23.5654C63.3379 24.5808 63.5529 25.6978 63.5166 26.8218C63.546 27.899 63.3307 28.9676 62.8896 29.9344C62.496 30.769 61.9367 31.4997 61.2515 32.0744C60.5714 32.6346 59.8006 33.0533 58.9786 33.3093C58.1668 33.5688 57.325 33.7027 56.4784 33.7068H51.9561V19.9453ZM56.1178 31.5669C56.7114 31.5647 57.3029 31.491 57.8813 31.347C58.4424 31.1984 58.9737 30.9404 59.4488 30.5857C59.9355 30.2087 60.3329 29.7132 60.6088 29.1394C60.9299 28.4175 61.0832 27.622 61.0556 26.8218C61.0848 25.9915 60.9318 25.1655 60.6088 24.4112C60.3373 23.8319 59.9392 23.3326 59.4488 22.9564C58.975 22.6084 58.4424 22.3642 57.8813 22.2375C57.3009 22.11 56.7102 22.0448 56.1178 22.0429H54.229V31.5669H56.1178Z" fill="white"/>
<path d="M73.7682 29.1555V29.4684C73.7682 29.5699 73.7682 29.6714 73.7682 29.7814H67.1924C67.2109 30.104 67.2937 30.4185 67.4354 30.7033C67.5735 30.9789 67.7599 31.2231 67.984 31.4223C68.2188 31.6265 68.4838 31.7866 68.7678 31.8959C69.0556 32.0142 69.3611 32.0744 69.6691 32.0735C70.1437 32.0878 70.6144 31.9776 71.0407 31.7521C71.4088 31.541 71.7235 31.2361 71.9577 30.864L73.3998 32.1074C72.9721 32.7261 72.4088 33.2207 71.7605 33.5469C71.1121 33.8732 70.399 34.0208 69.6848 33.9766C69.0518 33.9856 68.4225 33.871 67.8273 33.6383C67.2849 33.4235 66.787 33.0959 66.3616 32.6741C65.9401 32.2478 65.6086 31.7285 65.3898 31.1516C64.9196 29.8313 64.9196 28.3697 65.3898 27.0494C65.608 26.4593 65.9361 25.9239 66.3538 25.4762C66.767 25.0334 67.2607 24.6878 67.8038 24.4612C68.381 24.2202 68.9954 24.0996 69.6143 24.1059C70.1846 24.0975 70.7512 24.2066 71.2837 24.4273C71.7838 24.6306 72.2342 24.9546 72.6004 25.3747C72.9918 25.827 73.2908 26.363 73.4782 26.9479C73.6918 27.6603 73.7899 28.4071 73.7682 29.1555ZM71.605 28.1066C71.6054 27.8199 71.5657 27.5348 71.4875 27.2608C71.4128 26.9911 71.2842 26.7423 71.1109 26.5319C70.9376 26.3214 70.7237 26.1545 70.4842 26.0428C70.1956 25.9164 69.8866 25.8532 69.5751 25.8568C68.9701 25.8401 68.3808 26.0661 67.9213 26.4911C67.6953 26.6902 67.5093 26.9368 67.3745 27.216C67.2398 27.4953 67.1591 27.8012 67.1376 28.1151L71.605 28.1066Z" fill="white"/>
<path d="M75.4688 19.0059H77.6319V33.7062H75.4688V19.0059Z" fill="white"/>
<path d="M90.1097 24.1062C90.6097 24.0891 91.1064 24.1992 91.5597 24.4276C91.9431 24.6268 92.2804 24.9157 92.5472 25.2734C92.809 25.6314 93.0009 26.0428 93.1116 26.4829C93.2339 26.9363 93.2946 27.4064 93.2918 27.8785V33.7147H91.1443V28.5383C91.143 28.2556 91.1273 27.9732 91.0973 27.6924C91.0677 27.3973 90.988 27.1106 90.8622 26.8466C90.7408 26.6118 90.572 26.4095 90.3684 26.2546C90.1166 26.0881 89.8248 26.0057 89.5298 26.0177C89.2254 26.0116 88.925 26.0934 88.6598 26.2546C88.4237 26.4064 88.2206 26.6112 88.0641 26.8551C87.908 27.1143 87.794 27.4003 87.7271 27.7009C87.6565 27.9966 87.6196 28.3006 87.6174 28.6059V33.6808H85.4542V28.0646C85.4747 27.5503 85.3399 27.0428 85.0701 26.6183C84.9269 26.4222 84.7411 26.2673 84.5293 26.167C84.3174 26.0667 84.086 26.0241 83.8553 26.0431C83.5591 26.0339 83.2662 26.113 83.0088 26.2715C82.7731 26.4097 82.5715 26.6069 82.421 26.8466C82.2603 27.1041 82.1435 27.3906 82.0761 27.6924C81.9978 27.9925 81.9582 28.3027 81.9586 28.6144V33.7485H79.8032V24.4445H81.8567V25.8739C81.9549 25.6335 82.0871 25.4109 82.2486 25.2142C82.4142 24.9978 82.6068 24.8071 82.8207 24.6475C83.0594 24.4684 83.3244 24.334 83.6045 24.25C83.9142 24.1478 84.2369 24.0993 84.5607 24.1062C85.1175 24.0809 85.6686 24.2357 86.1434 24.5507C86.6181 24.8656 86.9949 25.3264 87.2255 25.8739C87.49 25.3305 87.8888 24.8767 88.3776 24.5629C88.9057 24.2432 89.5046 24.0853 90.1097 24.1062Z" fill="white"/>
<path d="M101.09 32.5225H101.043C100.794 32.9654 100.428 33.3186 99.9927 33.5375C99.4849 33.8123 98.9225 33.9487 98.3546 33.935C97.9874 33.9352 97.6215 33.8869 97.2652 33.7912C96.8931 33.7013 96.5397 33.5379 96.2228 33.3091C95.9013 33.079 95.6331 32.7723 95.439 32.4125C95.2138 31.9978 95.1024 31.5227 95.1177 31.0423C95.1015 30.7345 95.1424 30.4264 95.238 30.136C95.3335 29.8455 95.4818 29.5785 95.6742 29.3506C96.0662 28.916 96.5504 28.5909 97.0849 28.4033C97.7065 28.1746 98.3511 28.0269 99.0052 27.9635C99.7027 27.8958 100.392 27.8535 101.066 27.8535V27.6505C101.083 27.3981 101.037 27.1455 100.934 26.9183C100.83 26.6911 100.673 26.4973 100.479 26.3564C100.062 26.071 99.5765 25.9267 99.0835 25.942C98.6296 25.9417 98.1808 26.0455 97.7668 26.2465C97.3815 26.434 97.0289 26.6915 96.7244 27.0077L95.6115 25.5868C96.1011 25.0942 96.6803 24.7168 97.3122 24.4787C97.9387 24.2378 98.5988 24.1148 99.2638 24.115C99.9114 24.0883 100.557 24.2064 101.161 24.4618C101.616 24.6619 102.021 24.9749 102.344 25.3753C102.628 25.7426 102.834 26.1728 102.948 26.6356C103.062 27.0934 103.12 27.5655 103.12 28.0396V33.7151H101.098L101.09 32.5225ZM101.09 29.4521H100.549C100.196 29.4521 99.836 29.4521 99.4519 29.4521C99.0901 29.4822 98.7326 29.556 98.386 29.6721C98.098 29.7676 97.8312 29.926 97.6022 30.1373C97.4902 30.2409 97.402 30.3713 97.3449 30.5181C97.2878 30.665 97.2632 30.8242 97.273 30.9831C97.2674 31.179 97.3136 31.3727 97.4063 31.5413C97.4956 31.6887 97.6166 31.8106 97.759 31.8966C97.9088 31.9924 98.0734 32.0583 98.2449 32.0911C98.4227 32.1317 98.604 32.1516 98.7857 32.1503C99.0875 32.1895 99.3936 32.1554 99.6816 32.0504C99.9696 31.9455 100.232 31.7723 100.45 31.5436C100.668 31.3149 100.836 31.0365 100.941 30.7287C101.046 30.421 101.087 30.0918 101.059 29.7651L101.09 29.4521Z" fill="white"/>
<path d="M105.456 24.3769H107.525V25.9586C107.752 25.4306 108.1 24.9737 108.536 24.6307C108.977 24.2926 109.508 24.1176 110.049 24.1316H110.323C110.408 24.1337 110.493 24.1508 110.574 24.1824V26.2969L110.205 26.2208H109.907C109.494 26.1989 109.082 26.2983 108.716 26.5084C108.438 26.6833 108.2 26.9231 108.019 27.2104C107.855 27.4662 107.738 27.7533 107.674 28.0562C107.619 28.2774 107.588 28.5043 107.58 28.7329V33.7317H105.424L105.456 24.3769Z" fill="white"/>
<path d="M111.162 24.377H113.513L115.786 31.1435L118.074 24.377H120.363L116.922 33.681H114.657L111.162 24.377Z" fill="white"/>
<path d="M126.978 32.5225H126.923C126.677 32.9651 126.314 33.3185 125.88 33.5375C125.372 33.8113 124.81 33.9477 124.242 33.935C123.875 33.9357 123.509 33.8874 123.153 33.7912C122.778 33.7012 122.422 33.5378 122.103 33.3091C121.785 33.0745 121.517 32.7687 121.319 32.4125C121.096 31.997 120.988 31.5218 121.005 31.0423C120.988 30.7351 121.028 30.4274 121.122 30.1369C121.216 29.8465 121.363 29.5792 121.554 29.3506C121.949 28.9197 122.432 28.5951 122.965 28.4033C123.587 28.1755 124.231 28.0279 124.885 27.9635C125.59 27.8958 126.272 27.8535 126.946 27.8535V27.6505C126.962 27.3991 126.916 27.1476 126.815 26.9208C126.713 26.6939 126.559 26.4995 126.366 26.3564C125.95 26.071 125.464 25.9267 124.971 25.942C124.517 25.9394 124.068 26.0433 123.654 26.2465C123.267 26.4339 122.912 26.6913 122.604 27.0077L121.491 25.5868C121.982 25.0959 122.561 24.7188 123.192 24.4787C123.821 24.2372 124.484 24.1141 125.151 24.115C125.799 24.0883 126.445 24.2064 127.048 24.4618C127.502 24.6608 127.905 24.974 128.224 25.3753C128.511 25.7405 128.717 26.1715 128.827 26.6356C128.942 27.0934 129 27.5655 129 28.0396V33.7151H126.986L126.978 32.5225ZM126.938 29.4521H126.453C126.108 29.4521 125.739 29.4521 125.355 29.4521C124.996 29.4822 124.641 29.556 124.297 29.6721C124.01 29.7687 123.743 29.9269 123.513 30.1373C123.402 30.2413 123.315 30.372 123.26 30.5189C123.204 30.6658 123.181 30.8248 123.192 30.9831C123.184 31.1694 123.226 31.3544 123.312 31.5162C123.398 31.678 123.525 31.8099 123.678 31.8966C123.827 31.9938 123.992 32.0598 124.164 32.0911C124.342 32.1317 124.523 32.1516 124.705 32.1503C125.012 32.1744 125.321 32.1306 125.612 32.0215C125.903 31.9124 126.17 31.7404 126.398 31.5159C126.595 31.2791 126.747 31.0026 126.846 30.7021C126.944 30.4017 126.986 30.0832 126.97 29.7651L126.938 29.4521Z" fill="white"/>
<path d="M4.54603 10.3613H12.1015L7.17165 17.8383C6.51107 18.8916 6.14123 20.1257 6.10516 21.397C6.06908 22.6682 6.36826 23.9244 6.96787 25.0193C7.59506 26.0435 8.44775 26.884 9.44964 27.4654C10.4515 28.0469 11.5714 28.3512 12.709 28.3512C13.8465 28.3512 14.9664 28.0469 15.9683 27.4654C16.9702 26.884 17.8228 26.0435 18.45 25.0193C19.0454 23.9232 19.3427 22.6684 19.3081 21.3984C19.2734 20.1285 18.9082 18.8947 18.2541 17.8383L6.64652 0H14.155L23.4818 14.3789L23.6699 14.7088C26.0212 19.3354 26.0212 24.3427 23.7405 28.4534C22.5676 30.4664 20.9408 32.1254 19.0122 33.2753C17.0836 34.4252 14.9163 35.0284 12.7129 35.0284C10.5095 35.0284 8.34211 34.4252 6.4135 33.2753C4.4849 32.1254 2.8581 30.4664 1.68529 28.4534C-0.556284 24.3173 -0.556285 19.3101 1.79501 14.6834L1.98312 14.3451L4.58522 10.3613" fill="#FC1921"/>
<path d="M16.9763 18.8195L12.7674 12.332L8.4489 18.8195C7.93065 19.627 7.64072 20.5796 7.61429 21.5615C7.58786 22.5434 7.82605 23.5124 8.29998 24.3511C8.61132 24.9139 9.02769 25.4007 9.52266 25.7806C10.0002 26.1506 10.5294 26.4361 11.0902 26.6264C11.8567 26.9542 12.6895 27.0587 13.5053 26.9296C14.321 26.8004 15.091 26.4421 15.7379 25.8905L16.0671 25.6283C16.9804 24.8189 17.5779 23.6681 17.7406 22.4048C17.9032 21.1415 17.6192 19.8585 16.9449 18.811L16.9763 18.8195Z" fill="#E30513"/>
</g>
<defs>
<clipPath id="clip0_5527_6018">
<rect width="129" height="35" fill="white"/>
</clipPath>
</defs>
</svg>
