<svg width="156" height="29" viewBox="0 0 156 29" fill="none" xmlns="http://www.w3.org/2000/svg">
<path d="M41.7969 0.921875H45.4763L48.9114 10.0187H48.9666L52.3623 0.921875H56.0575V13.7277H53.7254V3.4403H53.686L49.6757 13.7277H48.029L44.0738 3.4403H44.0423V13.7277H41.8048V0.921875H41.7969Z" fill="white"/>
<path d="M66.9459 9.49225C66.9459 9.59146 66.9459 9.68304 66.9459 9.78225C66.9459 9.88146 66.938 9.97304 66.9302 10.0722H60.115C60.1387 10.3851 60.2253 10.6751 60.3671 10.9346C60.509 11.1941 60.698 11.4154 60.9344 11.6062C61.1708 11.7894 61.4387 11.942 61.738 12.0488C62.0374 12.1557 62.3447 12.2091 62.6756 12.2091C63.235 12.2091 63.7077 12.1099 64.0938 11.9115C64.4799 11.713 64.795 11.4383 65.0471 11.0872L66.5362 12.2472C65.6538 13.4072 64.3696 13.9796 62.6914 13.9796C61.998 13.9796 61.352 13.8728 60.769 13.6667C60.1859 13.453 59.6738 13.1554 59.2483 12.7738C58.8229 12.3846 58.4841 11.9115 58.2399 11.3544C57.9956 10.7972 57.8774 10.1562 57.8774 9.44646C57.8774 8.74435 57.9956 8.11093 58.2399 7.53856C58.4841 6.9662 58.815 6.47777 59.2405 6.0733C59.6659 5.66883 60.1623 5.35593 60.7453 5.13462C61.3205 4.9133 61.9508 4.79883 62.6205 4.79883C63.2429 4.79883 63.818 4.89804 64.3459 5.09646C64.8738 5.29488 65.3308 5.59251 65.7168 5.98172C66.1029 6.37093 66.4023 6.85935 66.6229 7.44699C66.8356 8.02699 66.9459 8.71383 66.9459 9.49225ZM64.7005 8.51541C64.7005 8.24067 64.6611 7.97356 64.5823 7.72172C64.5035 7.46988 64.3774 7.24856 64.1962 7.05014C64.0229 6.85935 63.8023 6.70672 63.5344 6.59225C63.2665 6.47777 62.9514 6.41672 62.589 6.41672C61.9193 6.41672 61.352 6.61514 60.8793 7.00435C60.4144 7.39356 60.1544 7.89725 60.1071 8.51541H64.7005Z" fill="white"/>
<path d="M79.3393 4.79261C79.9224 4.79261 80.4266 4.89182 80.8442 5.09024C81.2618 5.28866 81.6005 5.54813 81.8684 5.87629C82.1363 6.20445 82.3333 6.5784 82.4593 6.99813C82.5854 7.41787 82.6484 7.85287 82.6484 8.30313V13.7292H80.4108V8.92129C80.4108 8.66945 80.3951 8.40234 80.3557 8.12761C80.3163 7.85287 80.2375 7.60103 80.1115 7.37971C79.9854 7.1584 79.8121 6.97524 79.5993 6.83024C79.3787 6.68524 79.0951 6.61655 78.7327 6.61655C78.386 6.61655 78.0866 6.69287 77.8345 6.83024C77.5824 6.97524 77.3775 7.1584 77.2199 7.38734C77.0545 7.61629 76.9363 7.87577 76.8654 8.15813C76.7866 8.4405 76.7551 8.72287 76.7551 8.99761V13.7368H74.5175V8.49392C74.5175 7.95208 74.3836 7.50182 74.1157 7.15077C73.8478 6.79208 73.4302 6.61655 72.8551 6.61655C72.5163 6.61655 72.2248 6.68524 71.9805 6.82261C71.7284 6.95998 71.5314 7.1355 71.3739 7.35682C71.2163 7.5705 71.0981 7.82234 71.0193 8.10471C70.9405 8.38708 70.9011 8.67708 70.9011 8.96708V13.7368H68.6636V5.04445H70.7908V6.4334H70.8302C70.9327 6.21971 71.0666 6.01366 71.2321 5.81524C71.3975 5.62445 71.6024 5.44892 71.8308 5.28866C72.0593 5.1284 72.3272 5.00629 72.6266 4.91471C72.926 4.82313 73.2569 4.77734 73.6115 4.77734C74.3048 4.77734 74.8878 4.92998 75.3448 5.22761C75.8096 5.53287 76.1563 5.92971 76.4084 6.41813C76.7078 5.89155 77.1018 5.47945 77.606 5.19708C78.0866 4.93761 78.6696 4.79261 79.3393 4.79261Z" fill="white"/>
<path d="M84.2637 9.34707C84.2637 8.66023 84.3897 8.03444 84.6497 7.47733C84.9019 6.92023 85.2485 6.43944 85.6819 6.04259C86.1152 5.64575 86.6352 5.34049 87.234 5.11917C87.8328 4.90549 88.4631 4.79102 89.1406 4.79102C89.8103 4.79102 90.4485 4.89786 91.0473 5.11917C91.6461 5.33286 92.1582 5.64575 92.5994 6.04259C93.0328 6.43944 93.3794 6.92023 93.6316 7.47733C93.8837 8.03444 94.0176 8.66023 94.0176 9.34707C94.0176 10.0339 93.8916 10.6597 93.6316 11.2244C93.3794 11.7892 93.0328 12.2776 92.5994 12.6821C92.1661 13.0865 91.6461 13.3994 91.0473 13.6284C90.4485 13.8573 89.8182 13.9718 89.1406 13.9718C88.4709 13.9718 87.8328 13.8573 87.234 13.6284C86.6352 13.3994 86.1231 13.0865 85.6819 12.6821C85.2485 12.2776 84.9019 11.7968 84.6497 11.2244C84.3976 10.6597 84.2637 10.0339 84.2637 9.34707ZM86.5485 9.34707C86.5485 9.68286 86.6037 10.0186 86.7061 10.3621C86.8085 10.6979 86.9661 11.0031 87.1788 11.2626C87.3916 11.5297 87.6594 11.7434 87.9825 11.9113C88.3055 12.0792 88.6916 12.1631 89.1406 12.1631C89.5897 12.1631 89.9758 12.0792 90.2988 11.9113C90.6219 11.7434 90.8897 11.5297 91.1025 11.2626C91.3152 10.9955 91.4728 10.6979 91.5752 10.3621C91.6776 10.0263 91.7328 9.69049 91.7328 9.34707C91.7328 9.00365 91.6776 8.67549 91.5752 8.3397C91.4728 8.01154 91.3073 7.71391 91.1025 7.4468C90.8897 7.1797 90.6219 6.96602 90.2988 6.80575C89.9758 6.64549 89.5897 6.56154 89.1406 6.56154C88.6916 6.56154 88.3055 6.64549 87.9825 6.80575C87.6594 6.96602 87.3916 7.1797 87.1788 7.4468C86.9661 7.71391 86.8085 8.01154 86.7061 8.3397C86.5958 8.67549 86.5485 9.01128 86.5485 9.34707Z" fill="white"/>
<path d="M95.7114 5.04286H97.8545V6.49286H97.8939C98.146 5.98917 98.4926 5.57707 98.9417 5.26417C99.3908 4.95128 99.9108 4.79102 100.51 4.79102C100.596 4.79102 100.691 4.79102 100.793 4.79865C100.896 4.80628 100.982 4.82154 101.053 4.84444V6.83628C100.904 6.79812 100.777 6.77523 100.667 6.76759C100.557 6.75996 100.462 6.75233 100.36 6.75233C99.8478 6.75233 99.4381 6.84391 99.1308 7.02707C98.8236 7.21022 98.5793 7.42391 98.406 7.67575C98.2326 7.92759 98.1145 8.18707 98.0514 8.45417C97.9884 8.72128 97.9569 8.92733 97.9569 9.08759V13.7352H95.7193V5.04286H95.7114Z" fill="white"/>
<path d="M101.762 2.09797C101.762 1.74692 101.896 1.44165 102.164 1.18218C102.432 0.922704 102.771 0.792969 103.18 0.792969C103.59 0.792969 103.937 0.915074 104.213 1.16692C104.496 1.41113 104.63 1.72402 104.63 2.09797C104.63 2.47192 104.488 2.78481 104.213 3.02902C103.929 3.27323 103.59 3.40297 103.18 3.40297C102.771 3.40297 102.432 3.27323 102.164 3.01376C101.896 2.75428 101.762 2.44902 101.762 2.09797ZM102.077 5.04376H104.315V13.7209H102.077V5.04376Z" fill="white"/>
<path d="M112.138 12.621H112.083C111.863 13.0102 111.5 13.3231 111.004 13.5673C110.508 13.8115 109.94 13.9413 109.302 13.9413C108.94 13.9413 108.561 13.8955 108.175 13.8039C107.781 13.7123 107.419 13.5597 107.096 13.3536C106.765 13.14 106.489 12.8652 106.277 12.5218C106.056 12.1784 105.954 11.751 105.954 11.2473C105.954 10.5986 106.143 10.0797 106.521 9.69049C106.899 9.30128 107.388 9.01128 107.986 8.80523C108.585 8.59917 109.247 8.4618 109.972 8.40075C110.697 8.3397 111.414 8.30154 112.107 8.30154V8.08786C112.107 7.54602 111.902 7.14154 111.5 6.88207C111.098 6.62259 110.618 6.49286 110.051 6.49286C109.578 6.49286 109.121 6.59207 108.688 6.78286C108.254 6.97365 107.892 7.21023 107.608 7.48496L106.45 6.1647C106.962 5.7068 107.545 5.36338 108.215 5.13444C108.877 4.90549 109.554 4.79102 110.24 4.79102C111.035 4.79102 111.689 4.89786 112.209 5.11917C112.721 5.33286 113.131 5.62286 113.431 5.96628C113.73 6.31733 113.935 6.70654 114.053 7.14154C114.171 7.57654 114.234 8.01154 114.234 8.44654V13.7276H112.146V12.621H112.138ZM112.099 9.7668H111.595C111.232 9.7668 110.854 9.78207 110.452 9.81259C110.058 9.84312 109.688 9.91181 109.349 10.011C109.011 10.1102 108.735 10.2552 108.506 10.446C108.286 10.6292 108.168 10.8886 108.168 11.2168C108.168 11.4229 108.215 11.5908 108.309 11.7358C108.404 11.8731 108.522 11.9876 108.672 12.0715C108.821 12.1555 108.987 12.2165 109.176 12.2547C109.365 12.2929 109.554 12.3081 109.735 12.3081C110.508 12.3081 111.091 12.1097 111.492 11.7129C111.894 11.316 112.091 10.7742 112.091 10.0873V9.7668H112.099Z" fill="white"/>
<path d="M116.409 0.0527344H118.647V13.7209H116.409V0.0527344Z" fill="white"/>
<path d="M41.7969 15.8125H46.9496C47.446 15.8125 47.9423 15.8736 48.4229 15.988C48.9114 16.1025 49.3369 16.2857 49.7229 16.5451C50.1011 16.8046 50.4084 17.1404 50.6448 17.5525C50.8811 17.9646 50.9993 18.453 50.9993 19.033C50.9993 19.758 50.7866 20.3533 50.3611 20.8264C49.9357 21.2996 49.3842 21.6354 48.6987 21.8414V21.8796C49.5338 21.9864 50.2193 22.2993 50.7551 22.8183C51.2908 23.3372 51.5587 24.0317 51.5587 24.8941C51.5587 25.5962 51.4169 26.1838 51.1332 26.657C50.8496 27.1301 50.4714 27.5193 50.0066 27.8017C49.5417 28.0917 49.006 28.2978 48.3993 28.4275C47.7926 28.5572 47.186 28.6183 46.5635 28.6183H41.8048V15.8125H41.7969ZM44.1526 21.0249H46.2405C47.0205 21.0249 47.6193 20.8722 48.029 20.5746C48.4387 20.277 48.6435 19.842 48.6435 19.2925C48.6435 18.7125 48.4308 18.3004 48.0054 18.0638C47.5799 17.8196 46.926 17.7051 46.0278 17.7051H44.1448V21.0249H44.1526ZM44.1526 26.7028H46.2642C46.5635 26.7028 46.8866 26.6799 47.2332 26.6417C47.5799 26.5959 47.9029 26.512 48.1945 26.3822C48.486 26.2525 48.7302 26.0541 48.9193 25.8022C49.1084 25.5504 49.2108 25.2146 49.2108 24.7872C49.2108 24.1157 48.9745 23.6425 48.5017 23.3754C48.029 23.1083 47.312 22.9786 46.3587 22.9786H44.1526V26.7028Z" fill="white"/>
<path d="M53.3394 14.9492H55.5769V28.6174H53.3394V14.9492Z" fill="white"/>
<path d="M56.8452 24.2455C56.8452 23.5587 56.9713 22.9329 57.2313 22.3758C57.4834 21.8187 57.8301 21.3379 58.2634 20.941C58.6967 20.5442 59.2167 20.2389 59.8155 20.0176C60.4143 19.8039 61.0446 19.6895 61.7222 19.6895C62.3919 19.6895 63.0301 19.7963 63.6289 20.0176C64.2276 20.2313 64.7398 20.5442 65.181 20.941C65.6143 21.3379 65.961 21.8187 66.2131 22.3758C66.4652 22.9329 66.5992 23.5587 66.5992 24.2455C66.5992 24.9323 66.4731 25.5581 66.2131 26.1229C65.961 26.6876 65.6143 27.176 65.181 27.5805C64.7476 27.985 64.2276 28.2979 63.6289 28.5268C63.0301 28.7558 62.3998 28.8702 61.7222 28.8702C61.0525 28.8702 60.4143 28.7558 59.8155 28.5268C59.2167 28.2979 58.7046 27.985 58.2634 27.5805C57.8301 27.176 57.4834 26.6952 57.2313 26.1229C56.9713 25.5581 56.8452 24.9323 56.8452 24.2455ZM59.1222 24.2455C59.1222 24.5813 59.1773 24.9171 59.2798 25.2605C59.3822 25.5963 59.5398 25.9016 59.7525 26.161C59.9652 26.4281 60.2331 26.6418 60.5561 26.8097C60.8792 26.9776 61.2652 27.0616 61.7143 27.0616C62.1634 27.0616 62.5495 26.9776 62.8725 26.8097C63.1955 26.6418 63.4634 26.4281 63.6761 26.161C63.8888 25.8939 64.0464 25.5963 64.1488 25.2605C64.2513 24.9247 64.3064 24.5889 64.3064 24.2455C64.3064 23.9021 64.2513 23.5739 64.1488 23.2381C64.0464 22.91 63.881 22.6123 63.6761 22.3452C63.4634 22.0781 63.1955 21.8645 62.8725 21.7042C62.5495 21.5439 62.1634 21.46 61.7143 21.46C61.2652 21.46 60.8792 21.5439 60.5561 21.7042C60.2331 21.8645 59.9652 22.0781 59.7525 22.3452C59.5398 22.6123 59.3822 22.91 59.2798 23.2381C59.1773 23.5663 59.1222 23.9021 59.1222 24.2455Z" fill="white"/>
<path d="M67.3716 24.2455C67.3716 23.5587 67.4976 22.9329 67.7576 22.3758C68.0098 21.8187 68.3564 21.3379 68.7898 20.941C69.2231 20.5442 69.7431 20.2389 70.3419 20.0176C70.9407 19.8039 71.571 19.6895 72.2485 19.6895C72.9182 19.6895 73.5564 19.7963 74.1552 20.0176C74.754 20.2313 75.2661 20.5442 75.7073 20.941C76.1407 21.3379 76.4873 21.8187 76.7395 22.3758C76.9916 22.9329 77.1255 23.5587 77.1255 24.2455C77.1255 24.9323 76.9995 25.5581 76.7395 26.1229C76.4873 26.6876 76.1407 27.176 75.7073 27.5805C75.274 27.985 74.754 28.2979 74.1552 28.5268C73.5564 28.7558 72.9261 28.8702 72.2485 28.8702C71.5789 28.8702 70.9407 28.7558 70.3419 28.5268C69.7431 28.2979 69.231 27.985 68.7898 27.5805C68.3564 27.176 68.0098 26.6952 67.7576 26.1229C67.5055 25.5581 67.3716 24.9323 67.3716 24.2455ZM69.6486 24.2455C69.6486 24.5813 69.7037 24.9171 69.8061 25.2605C69.9085 25.5963 70.0661 25.9016 70.2789 26.161C70.4916 26.4281 70.7595 26.6418 71.0825 26.8097C71.4055 26.9776 71.7916 27.0616 72.2407 27.0616C72.6898 27.0616 73.0758 26.9776 73.3989 26.8097C73.7219 26.6418 73.9898 26.4281 74.2025 26.161C74.4152 25.8939 74.5728 25.5963 74.6752 25.2605C74.7776 24.9247 74.8328 24.5889 74.8328 24.2455C74.8328 23.9021 74.7776 23.5739 74.6752 23.2381C74.5728 22.91 74.4073 22.6123 74.2025 22.3452C73.9898 22.0781 73.7219 21.8645 73.3989 21.7042C73.0758 21.5439 72.6898 21.46 72.2407 21.46C71.7916 21.46 71.4055 21.5439 71.0825 21.7042C70.7595 21.8645 70.4916 22.0781 70.2789 22.3452C70.0661 22.6123 69.9085 22.91 69.8061 23.2381C69.7037 23.5663 69.6486 23.9021 69.6486 24.2455Z" fill="white"/>
<path d="M87.9273 28.6172H85.8001V27.3122H85.7607C85.4534 27.8159 85.02 28.2051 84.4607 28.4722C83.9091 28.7393 83.3104 28.869 82.6801 28.869C81.9946 28.869 81.3801 28.7469 80.8443 28.4951C80.3007 28.2509 79.8437 27.9151 79.4655 27.503C79.0873 27.0909 78.7958 26.6025 78.591 26.0377C78.3861 25.4806 78.2837 24.8777 78.2837 24.2367C78.2837 23.5956 78.3861 23.0004 78.5988 22.4432C78.8116 21.8861 79.111 21.4054 79.497 20.9932C79.8831 20.5811 80.3401 20.2606 80.8758 20.024C81.4116 19.7875 81.9946 19.673 82.6328 19.673C83.0425 19.673 83.4128 19.7188 83.7358 19.8104C84.0588 19.9019 84.3425 20.0088 84.5867 20.1461C84.831 20.2759 85.0358 20.4209 85.2091 20.5811C85.3825 20.7414 85.5243 20.8864 85.6346 21.0314H85.6898V14.9414H87.9273V28.6172ZM80.5528 24.2443C80.5528 24.5801 80.6079 24.9159 80.7104 25.2593C80.8128 25.5951 80.9782 25.9004 81.1831 26.1598C81.3958 26.4269 81.6637 26.6406 81.9867 26.8085C82.3097 26.9764 82.6879 27.0604 83.1291 27.0604C83.5388 27.0604 83.9091 26.9764 84.2322 26.8161C84.5552 26.6559 84.831 26.4422 85.0594 26.1751C85.2879 25.908 85.4613 25.6104 85.5794 25.2822C85.6976 24.954 85.7528 24.6182 85.7528 24.2825C85.7528 23.9467 85.6976 23.6109 85.5794 23.2675C85.4613 22.9317 85.2879 22.6264 85.0594 22.3669C84.831 22.0998 84.5552 21.8861 84.2322 21.7182C83.9091 21.5504 83.5388 21.4664 83.1291 21.4664C82.6958 21.4664 82.3097 21.5504 81.9867 21.7106C81.6637 21.8709 81.3958 22.0846 81.1831 22.3517C80.9704 22.6188 80.8128 22.9164 80.7104 23.2446C80.6079 23.5651 80.5528 23.9009 80.5528 24.2443Z" fill="white"/>
<path d="M103.567 18.8194C103.22 18.3615 102.763 18.0257 102.204 17.812C101.644 17.5983 101.093 17.4991 100.557 17.4991C99.8714 17.4991 99.249 17.6212 98.6896 17.8578C98.1302 18.102 97.6496 18.4302 97.2399 18.8499C96.8381 19.2696 96.523 19.7657 96.3024 20.3304C96.0817 20.8952 95.9793 21.5133 95.9793 22.1773C95.9793 22.8794 96.0818 23.5128 96.2945 24.0928C96.5072 24.6728 96.8066 25.1688 97.2005 25.581C97.5945 26.0007 98.0593 26.3212 98.6108 26.5502C99.1624 26.7791 99.7769 26.8936 100.462 26.8936C101.171 26.8936 101.802 26.7562 102.345 26.4891C102.889 26.2144 103.33 25.8633 103.669 25.4131L105.552 26.6952C104.969 27.4049 104.252 27.9544 103.409 28.3512C102.566 28.7481 101.573 28.9388 100.439 28.9388C99.4066 28.9388 98.4533 28.771 97.5945 28.4428C96.7278 28.1146 95.9872 27.6491 95.3648 27.0538C94.7424 26.4586 94.2539 25.7488 93.9072 24.917C93.5605 24.0928 93.3872 23.177 93.3872 22.1773C93.3872 21.1546 93.5684 20.2236 93.9387 19.3994C94.309 18.5752 94.8133 17.8731 95.4514 17.2931C96.0896 16.7131 96.846 16.2704 97.7205 15.9575C98.5951 15.6446 99.5405 15.4844 100.557 15.4844C100.982 15.4844 101.424 15.5225 101.881 15.5988C102.338 15.6752 102.779 15.7973 103.204 15.9575C103.63 16.1178 104.024 16.3238 104.402 16.5604C104.772 16.8046 105.095 17.087 105.355 17.4304L103.567 18.8194Z" fill="white"/>
<path d="M115.054 24.3829C115.054 24.4821 115.054 24.5737 115.054 24.6729C115.054 24.7721 115.046 24.8637 115.038 24.9629H108.223C108.247 25.2758 108.333 25.5658 108.475 25.8252C108.617 26.0847 108.806 26.306 109.042 26.4968C109.279 26.68 109.547 26.8326 109.846 26.9395C110.145 27.0463 110.453 27.0997 110.784 27.0997C111.343 27.0997 111.816 27.0005 112.202 26.8021C112.588 26.6037 112.903 26.3289 113.155 25.9779L114.644 27.1379C113.762 28.2979 112.477 28.8702 110.799 28.8702C110.106 28.8702 109.46 28.7634 108.877 28.5573C108.294 28.3437 107.782 28.046 107.356 27.6645C106.931 27.2752 106.592 26.8021 106.348 26.245C106.104 25.6879 105.985 25.0468 105.985 24.3371C105.985 23.635 106.104 23.0016 106.348 22.4292C106.592 21.8568 106.923 21.3684 107.348 20.9639C107.774 20.5595 108.27 20.2466 108.853 20.0252C109.428 19.8039 110.059 19.6895 110.728 19.6895C111.351 19.6895 111.926 19.7887 112.454 19.9871C112.982 20.1855 113.439 20.4831 113.825 20.8723C114.211 21.2616 114.51 21.75 114.731 22.3376C114.944 22.9176 115.054 23.6045 115.054 24.3829ZM112.808 23.4137C112.808 23.1389 112.769 22.8718 112.69 22.62C112.611 22.3681 112.485 22.1468 112.304 21.9484C112.131 21.7576 111.91 21.605 111.642 21.4905C111.374 21.376 111.059 21.315 110.697 21.315C110.027 21.315 109.46 21.5134 108.987 21.9026C108.522 22.2918 108.262 22.7955 108.215 23.4137H112.808Z" fill="white"/>
<path d="M116.283 19.9413H118.41V21.3302H118.449C118.646 20.8952 118.993 20.5137 119.481 20.1855C119.97 19.8573 120.553 19.6895 121.223 19.6895C121.806 19.6895 122.31 19.7887 122.728 19.9871C123.145 20.1855 123.484 20.445 123.752 20.7731C124.02 21.1013 124.217 21.4752 124.343 21.895C124.469 22.3147 124.532 22.7497 124.532 23.2V28.626H122.294V23.8181C122.294 23.5663 122.278 23.2992 122.239 23.0245C122.2 22.7497 122.121 22.4979 121.995 22.2766C121.869 22.0552 121.695 21.8721 121.483 21.7271C121.262 21.5821 120.971 21.5134 120.616 21.5134C120.254 21.5134 119.946 21.5821 119.686 21.7195C119.426 21.8568 119.214 22.0323 119.04 22.2537C118.875 22.4673 118.741 22.7192 118.654 23.0016C118.568 23.2839 118.52 23.5739 118.52 23.8639V28.6337H116.283V19.9413Z" fill="white"/>
<path d="M125.391 21.6727V19.9327H126.959V17.4219H129.165V19.9327H131.402V21.6727H129.165V25.7021C129.165 26.0913 129.235 26.4042 129.377 26.6637C129.519 26.9156 129.842 27.0453 130.339 27.0453C130.488 27.0453 130.646 27.03 130.827 26.9995C131 26.969 131.158 26.9232 131.292 26.8621L131.371 28.564C131.174 28.6327 130.937 28.6937 130.662 28.7319C130.386 28.7777 130.126 28.7929 129.882 28.7929C129.283 28.7929 128.802 28.709 128.424 28.5487C128.054 28.3885 127.754 28.1671 127.534 27.8771C127.313 27.5948 127.163 27.2666 127.085 26.9003C127.006 26.534 126.959 26.1371 126.959 25.7174V21.6727H125.391Z" fill="white"/>
<path d="M141.109 24.3829C141.109 24.4821 141.109 24.5737 141.109 24.6729C141.109 24.7721 141.101 24.8637 141.093 24.9629H134.278C134.302 25.2758 134.388 25.5658 134.53 25.8252C134.672 26.0847 134.861 26.306 135.098 26.4968C135.334 26.68 135.602 26.8326 135.901 26.9395C136.201 27.0463 136.508 27.0997 136.839 27.0997C137.398 27.0997 137.871 27.0005 138.257 26.8021C138.643 26.6037 138.958 26.3289 139.21 25.9779L140.699 27.1379C139.817 28.2979 138.533 28.8702 136.854 28.8702C136.161 28.8702 135.515 28.7634 134.932 28.5573C134.349 28.3437 133.837 28.046 133.411 27.6645C132.986 27.2752 132.647 26.8021 132.403 26.245C132.159 25.6879 132.041 25.0468 132.041 24.3371C132.041 23.635 132.159 23.0016 132.403 22.4292C132.647 21.8568 132.978 21.3684 133.404 20.9639C133.829 20.5595 134.325 20.2466 134.908 20.0252C135.484 19.8039 136.114 19.6895 136.784 19.6895C137.406 19.6895 137.981 19.7887 138.509 19.9871C139.037 20.1855 139.494 20.4831 139.88 20.8723C140.266 21.2616 140.565 21.75 140.786 22.3376C140.999 22.9176 141.109 23.6045 141.109 24.3829ZM138.871 23.4137C138.871 23.1389 138.832 22.8718 138.753 22.62C138.674 22.3681 138.548 22.1468 138.367 21.9484C138.194 21.7576 137.973 21.605 137.705 21.4905C137.438 21.376 137.122 21.315 136.76 21.315C136.09 21.315 135.523 21.5134 135.05 21.9026C134.585 22.2918 134.325 22.7955 134.278 23.4137H138.871Z" fill="white"/>
<path d="M142.811 19.9413H144.954V21.3913H144.993C145.246 20.8876 145.592 20.4755 146.041 20.1626C146.49 19.8497 147.01 19.6895 147.609 19.6895C147.696 19.6895 147.79 19.6895 147.893 19.6971C147.995 19.7047 148.082 19.72 148.153 19.7429V21.7347C148.003 21.6966 147.877 21.6737 147.767 21.666C147.664 21.6508 147.562 21.6508 147.46 21.6508C146.947 21.6508 146.538 21.7423 146.23 21.9255C145.923 22.1087 145.679 22.3224 145.506 22.5742C145.332 22.826 145.214 23.0855 145.151 23.3526C145.088 23.6197 145.056 23.8258 145.056 23.986V28.6337H142.819V19.9413H142.811Z" fill="white"/>
<path d="M154.33 22.2537C154.133 22.0018 153.857 21.7805 153.51 21.5973C153.164 21.4142 152.785 21.315 152.368 21.315C152.005 21.315 151.675 21.3913 151.375 21.5287C151.076 21.6737 150.926 21.9179 150.926 22.2537C150.926 22.5895 151.091 22.826 151.422 22.971C151.753 23.1084 152.234 23.2534 152.872 23.3984C153.211 23.4671 153.55 23.5663 153.888 23.6884C154.227 23.8105 154.542 23.9708 154.818 24.1692C155.102 24.3676 155.322 24.6118 155.496 24.9095C155.669 25.2071 155.756 25.5658 155.756 25.9855C155.756 26.5121 155.653 26.9623 155.448 27.3363C155.244 27.7026 154.968 28.0002 154.629 28.2292C154.29 28.4581 153.888 28.626 153.431 28.7252C152.975 28.8245 152.51 28.8779 152.021 28.8779C151.328 28.8779 150.65 28.7558 149.988 28.5039C149.327 28.2597 148.783 27.901 148.342 27.4431L149.815 26.1076C150.067 26.4205 150.39 26.68 150.784 26.886C151.178 27.0921 151.627 27.1913 152.108 27.1913C152.265 27.1913 152.431 27.176 152.604 27.1379C152.778 27.0997 152.927 27.0463 153.069 26.9624C153.211 26.886 153.329 26.7792 153.416 26.6495C153.502 26.5197 153.55 26.3518 153.55 26.161C153.55 25.8023 153.376 25.5429 153.038 25.3826C152.699 25.23 152.179 25.0697 151.501 24.9095C151.162 24.8331 150.839 24.7416 150.524 24.6271C150.209 24.5126 149.925 24.36 149.673 24.1768C149.421 23.9937 149.224 23.7571 149.075 23.4823C148.925 23.2076 148.854 22.8642 148.854 22.4521C148.854 21.9713 148.956 21.5516 149.161 21.2005C149.366 20.8495 149.634 20.5671 149.973 20.3458C150.311 20.1245 150.69 19.9566 151.115 19.8497C151.541 19.7429 151.974 19.6895 152.423 19.6895C153.069 19.6895 153.699 19.7963 154.314 20.0176C154.928 20.2313 155.417 20.5671 155.779 21.0097L154.33 22.2537Z" fill="white"/>
<path d="M18.0031 28.9452C13.394 24.0381 18.3498 15.2465 18.9801 10.431C19.3819 6.43202 17.7667 3.61597 14.7492 1.91412C8.92675 -0.932456 2.2219 0.983071 0.362505 7.46991C-0.669616 11.6368 1.98554 15.2694 4.03402 17.0704C7.64251 20.2375 15.2534 26.4115 18.0031 28.9452Z" fill="#FC1921"/>
<path d="M20.7053 10.5915C20.7053 10.6067 20.7053 10.622 20.6975 10.6372C20.5084 12.0796 19.9963 13.7586 19.4526 15.5367C18.1053 19.9401 16.5769 24.9312 19.2793 27.8083C19.4053 27.9457 19.5078 28.0601 19.6181 28.1822C23.652 24.4428 33.4138 15.3688 34.7847 11.7972C37.6999 4.19619 26.4805 -2.67986 19.3187 3.88329C20.4926 5.73777 20.9653 8.00435 20.7053 10.5915Z" fill="#E30513"/>
</svg>
