<?xml version="1.0" encoding="UTF-8" standalone="no"?>
<svg
   width="156"
   height="46"
   viewBox="0 0 156 46"
   fill="none"
   version="1.1"
   id="svg46"
   sodipodi:docname="memorial.svg"
   inkscape:version="1.1.2 (b8e25be8, 2022-02-05)"
   xmlns:inkscape="http://www.inkscape.org/namespaces/inkscape"
   xmlns:sodipodi="http://sodipodi.sourceforge.net/DTD/sodipodi-0.dtd"
   xmlns="http://www.w3.org/2000/svg"
   xmlns:svg="http://www.w3.org/2000/svg">
  <defs
     id="defs50" />
  <sodipodi:namedview
     id="namedview48"
     pagecolor="#505050"
     bordercolor="#ffffff"
     borderopacity="1"
     inkscape:pageshadow="0"
     inkscape:pageopacity="0"
     inkscape:pagecheckerboard="1"
     showgrid="false"
     height="46px"
     inkscape:zoom="7.224359"
     inkscape:cx="78"
     inkscape:cy="14.534161"
     inkscape:window-width="1296"
     inkscape:window-height="966"
     inkscape:window-x="0"
     inkscape:window-y="38"
     inkscape:window-maximized="0"
     inkscape:current-layer="svg46" />
  <path
     d="m 41.7969,0.921875 h 3.6794 l 3.4351,9.096825 h 0.0552 l 3.3957,-9.096825 h 3.6952 V 13.7277 H 53.7254 V 3.4403 H 53.686 L 49.6757,13.7277 H 48.029 L 44.0738,3.4403 H 44.0423 V 13.7277 H 41.8048 V 0.921875 Z"
     fill="#ffffff"
     id="path2" />
  <path
     d="m 66.9459,9.49225 c 0,0.09921 0,0.19079 0,0.29 0,0.09921 -0.0079,0.19079 -0.0157,0.28995 H 60.115 c 0.0237,0.3129 0.1103,0.6029 0.2521,0.8624 0.1419,0.2595 0.3309,0.4808 0.5673,0.6716 0.2364,0.1832 0.5043,0.3358 0.8036,0.4426 0.2994,0.1069 0.6067,0.1603 0.9376,0.1603 0.5594,0 1.0321,-0.0992 1.4182,-0.2976 0.3861,-0.1985 0.7012,-0.4732 0.9533,-0.8243 l 1.4891,1.16 c -0.8824,1.16 -2.1666,1.7324 -3.8448,1.7324 -0.6934,0 -1.3394,-0.1068 -1.9224,-0.3129 -0.5831,-0.2137 -1.0952,-0.5113 -1.5207,-0.8929 -0.4254,-0.3892 -0.7642,-0.8623 -1.0084,-1.4194 -0.2443,-0.5572 -0.3625,-1.1982 -0.3625,-1.90794 0,-0.70211 0.1182,-1.33553 0.3625,-1.9079 0.2442,-0.57236 0.5751,-1.06079 1.0006,-1.46526 0.4254,-0.40447 0.9218,-0.71737 1.5048,-0.93868 0.5752,-0.22132 1.2055,-0.33579 1.8752,-0.33579 0.6224,0 1.1975,0.09921 1.7254,0.29763 0.5279,0.19842 0.9849,0.49605 1.3709,0.88526 0.3861,0.38921 0.6855,0.87763 0.9061,1.46527 0.2127,0.58 0.323,1.26684 0.323,2.04526 z M 64.7005,8.51541 c 0,-0.27474 -0.0394,-0.54185 -0.1182,-0.79369 C 64.5035,7.46988 64.3774,7.24856 64.1962,7.05014 64.0229,6.85935 63.8023,6.70672 63.5344,6.59225 63.2665,6.47777 62.9514,6.41672 62.589,6.41672 c -0.6697,0 -1.237,0.19842 -1.7097,0.58763 -0.4649,0.38921 -0.7249,0.8929 -0.7722,1.51106 z"
     fill="#ffffff"
     id="path4" />
  <path
     d="m 79.3393,4.79261 c 0.5831,0 1.0873,0.09921 1.5049,0.29763 0.4176,0.19842 0.7563,0.45789 1.0242,0.78605 0.2679,0.32816 0.4649,0.70211 0.5909,1.12184 0.1261,0.41974 0.1891,0.85474 0.1891,1.305 V 13.7292 H 80.4108 V 8.92129 c 0,-0.25184 -0.0157,-0.51895 -0.0551,-0.79368 C 80.3163,7.85287 80.2375,7.60103 80.1115,7.37971 79.9854,7.1584 79.8121,6.97524 79.5993,6.83024 79.3787,6.68524 79.0951,6.61655 78.7327,6.61655 c -0.3467,0 -0.6461,0.07632 -0.8982,0.21369 -0.2521,0.145 -0.457,0.32816 -0.6146,0.5571 -0.1654,0.22895 -0.2836,0.48843 -0.3545,0.77079 -0.0788,0.28237 -0.1103,0.56474 -0.1103,0.83948 V 13.7368 H 74.5175 V 8.49392 c 0,-0.54184 -0.1339,-0.9921 -0.4018,-1.34315 -0.2679,-0.35869 -0.6855,-0.53422 -1.2606,-0.53422 -0.3388,0 -0.6303,0.06869 -0.8746,0.20606 C 71.7284,6.95998 71.5314,7.1355 71.3739,7.35682 71.2163,7.5705 71.0981,7.82234 71.0193,8.10471 70.9405,8.38708 70.9011,8.67708 70.9011,8.96708 V 13.7368 H 68.6636 V 5.04445 h 2.1272 V 6.4334 h 0.0394 c 0.1025,-0.21369 0.2364,-0.41974 0.4019,-0.61816 0.1654,-0.19079 0.3703,-0.36632 0.5987,-0.52658 0.2285,-0.16026 0.4964,-0.28237 0.7958,-0.37395 0.2994,-0.09158 0.6303,-0.13737 0.9849,-0.13737 0.6933,0 1.2763,0.15264 1.7333,0.45027 0.4648,0.30526 0.8115,0.7021 1.0636,1.19052 0.2994,-0.52658 0.6934,-0.93868 1.1976,-1.22105 0.4806,-0.25947 1.0636,-0.40447 1.7333,-0.40447 z"
     fill="#ffffff"
     id="path6" />
  <path
     d="m 84.2637,9.34707 c 0,-0.68684 0.126,-1.31263 0.386,-1.86974 0.2522,-0.5571 0.5988,-1.03789 1.0322,-1.43474 0.4333,-0.39684 0.9533,-0.7021 1.5521,-0.92342 0.5988,-0.21368 1.2291,-0.32815 1.9066,-0.32815 0.6697,0 1.3079,0.10684 1.9067,0.32815 0.5988,0.21369 1.1109,0.52658 1.5521,0.92342 0.4334,0.39685 0.78,0.87764 1.0322,1.43474 0.2521,0.55711 0.386,1.1829 0.386,1.86974 0,0.68683 -0.126,1.31263 -0.386,1.87733 -0.2522,0.5648 -0.5988,1.0532 -1.0322,1.4577 -0.4333,0.4044 -0.9533,0.7173 -1.5521,0.9463 -0.5988,0.2289 -1.2291,0.3434 -1.9067,0.3434 -0.6697,0 -1.3078,-0.1145 -1.9066,-0.3434 -0.5988,-0.229 -1.1109,-0.5419 -1.5521,-0.9463 -0.4334,-0.4045 -0.78,-0.8853 -1.0322,-1.4577 -0.2521,-0.5647 -0.386,-1.1905 -0.386,-1.87733 z m 2.2848,0 c 0,0.33579 0.0552,0.67153 0.1576,1.01503 0.1024,0.3358 0.26,0.641 0.4727,0.9005 0.2128,0.2671 0.4806,0.4808 0.8037,0.6487 0.323,0.1679 0.7091,0.2518 1.1581,0.2518 0.4491,0 0.8352,-0.0839 1.1582,-0.2518 0.3231,-0.1679 0.5909,-0.3816 0.8037,-0.6487 0.2127,-0.2671 0.3703,-0.5647 0.4727,-0.9005 0.1024,-0.3358 0.1576,-0.67161 0.1576,-1.01503 0,-0.34342 -0.0552,-0.67158 -0.1576,-1.00737 C 91.4728,8.01154 91.3073,7.71391 91.1025,7.4468 90.8897,7.1797 90.6219,6.96602 90.2988,6.80575 89.9758,6.64549 89.5897,6.56154 89.1406,6.56154 c -0.449,0 -0.8351,0.08395 -1.1581,0.24421 -0.3231,0.16027 -0.5909,0.37395 -0.8037,0.64105 -0.2127,0.26711 -0.3703,0.56474 -0.4727,0.8929 -0.1103,0.33579 -0.1576,0.67158 -0.1576,1.00737 z"
     fill="#ffffff"
     id="path8" />
  <path
     d="m 95.7114,5.04286 h 2.1431 v 1.45 h 0.0394 c 0.2521,-0.50369 0.5987,-0.91579 1.0478,-1.22869 0.4491,-0.31289 0.9691,-0.47315 1.5683,-0.47315 0.086,0 0.181,0 0.283,0.00763 0.103,0.00763 0.189,0.02289 0.26,0.04579 v 1.99184 c -0.149,-0.03816 -0.276,-0.06105 -0.386,-0.06869 -0.11,-0.00763 -0.205,-0.01526 -0.307,-0.01526 -0.5122,0 -0.9219,0.09158 -1.2292,0.27474 -0.3072,0.18315 -0.5515,0.39684 -0.7248,0.64868 -0.1734,0.25184 -0.2915,0.51132 -0.3546,0.77842 -0.063,0.26711 -0.0945,0.47316 -0.0945,0.63342 V 13.7352 H 95.7193 V 5.04286 Z"
     fill="#ffffff"
     id="path10" />
  <path
     d="m 101.762,2.09797 c 0,-0.35105 0.134,-0.65632 0.402,-0.91579 0.268,-0.259476 0.607,-0.389211 1.016,-0.389211 0.41,0 0.757,0.122105 1.033,0.373951 0.283,0.24421 0.417,0.5571 0.417,0.93105 0,0.37395 -0.142,0.68684 -0.417,0.93105 -0.284,0.24421 -0.623,0.37395 -1.033,0.37395 -0.409,0 -0.748,-0.12974 -1.016,-0.38921 -0.268,-0.25948 -0.402,-0.56474 -0.402,-0.91579 z m 0.315,2.94579 h 2.238 v 8.67714 h -2.238 z"
     fill="#ffffff"
     id="path12" />
  <path
     d="m 112.138,12.621 h -0.055 c -0.22,0.3892 -0.583,0.7021 -1.079,0.9463 -0.496,0.2442 -1.064,0.374 -1.702,0.374 -0.362,0 -0.741,-0.0458 -1.127,-0.1374 -0.394,-0.0916 -0.756,-0.2442 -1.079,-0.4503 -0.331,-0.2136 -0.607,-0.4884 -0.819,-0.8318 -0.221,-0.3434 -0.323,-0.7708 -0.323,-1.2745 0,-0.6487 0.189,-1.1676 0.567,-1.55681 0.378,-0.38921 0.867,-0.67921 1.465,-0.88526 0.599,-0.20606 1.261,-0.34343 1.986,-0.40448 0.725,-0.06105 1.442,-0.09921 2.135,-0.09921 V 8.08786 c 0,-0.54184 -0.205,-0.94632 -0.607,-1.20579 -0.402,-0.25948 -0.882,-0.38921 -1.449,-0.38921 -0.473,0 -0.93,0.09921 -1.363,0.29 -0.434,0.19079 -0.796,0.42737 -1.08,0.7021 L 106.45,6.1647 c 0.512,-0.4579 1.095,-0.80132 1.765,-1.03026 0.662,-0.22895 1.339,-0.34342 2.025,-0.34342 0.795,0 1.449,0.10684 1.969,0.32815 0.512,0.21369 0.922,0.50369 1.222,0.84711 0.299,0.35105 0.504,0.74026 0.622,1.17526 0.118,0.435 0.181,0.87 0.181,1.305 v 5.28106 h -2.088 V 12.621 Z m -0.039,-2.8542 h -0.504 c -0.363,0 -0.741,0.01527 -1.143,0.04579 -0.394,0.03053 -0.764,0.09922 -1.103,0.19841 -0.338,0.0992 -0.614,0.2442 -0.843,0.435 -0.22,0.1832 -0.338,0.4426 -0.338,0.7708 0,0.2061 0.047,0.374 0.141,0.519 0.095,0.1373 0.213,0.2518 0.363,0.3357 0.149,0.084 0.315,0.145 0.504,0.1832 0.189,0.0382 0.378,0.0534 0.559,0.0534 0.773,0 1.356,-0.1984 1.757,-0.5952 0.402,-0.3969 0.599,-0.9387 0.599,-1.6256 V 9.7668 Z"
     fill="#ffffff"
     id="path14" />
  <path
     d="m 116.409,0.0527344 h 2.238 V 13.7209 h -2.238 z"
     fill="#ffffff"
     id="path16" />
  <path
     d="m 41.7969,15.8125 h 5.1527 c 0.4964,0 0.9927,0.0611 1.4733,0.1755 0.4885,0.1145 0.914,0.2977 1.3,0.5571 0.3782,0.2595 0.6855,0.5953 0.9219,1.0074 0.2363,0.4121 0.3545,0.9005 0.3545,1.4805 0,0.725 -0.2127,1.3203 -0.6382,1.7934 -0.4254,0.4732 -0.9769,0.809 -1.6624,1.015 v 0.0382 c 0.8351,0.1068 1.5206,0.4197 2.0564,0.9387 0.5357,0.5189 0.8036,1.2134 0.8036,2.0758 0,0.7021 -0.1418,1.2897 -0.4255,1.7629 -0.2836,0.4731 -0.6618,0.8623 -1.1266,1.1447 -0.4649,0.29 -1.0006,0.4961 -1.6073,0.6258 -0.6067,0.1297 -1.2133,0.1908 -1.8358,0.1908 H 41.8048 V 15.8125 Z m 2.3557,5.2124 h 2.0879 c 0.78,0 1.3788,-0.1527 1.7885,-0.4503 0.4097,-0.2976 0.6145,-0.7326 0.6145,-1.2821 0,-0.58 -0.2127,-0.9921 -0.6381,-1.2287 -0.4255,-0.2442 -1.0794,-0.3587 -1.9776,-0.3587 h -1.883 v 3.3198 z m 0,5.6779 h 2.1116 c 0.2993,0 0.6224,-0.0229 0.969,-0.0611 0.3467,-0.0458 0.6697,-0.1297 0.9613,-0.2595 0.2915,-0.1297 0.5357,-0.3281 0.7248,-0.58 0.1891,-0.2518 0.2915,-0.5876 0.2915,-1.015 0,-0.6715 -0.2363,-1.1447 -0.7091,-1.4118 -0.4727,-0.2671 -1.1897,-0.3968 -2.143,-0.3968 h -2.2061 z"
     fill="#ffffff"
     id="path18" />
  <path
     d="m 53.3394,14.9492 h 2.2375 v 13.6682 h -2.2375 z"
     fill="#ffffff"
     id="path20" />
  <path
     d="m 56.8452,24.2455 c 0,-0.6868 0.1261,-1.3126 0.3861,-1.8697 0.2521,-0.5571 0.5988,-1.0379 1.0321,-1.4348 0.4333,-0.3968 0.9533,-0.7021 1.5521,-0.9234 0.5988,-0.2137 1.2291,-0.3281 1.9067,-0.3281 0.6697,0 1.3079,0.1068 1.9067,0.3281 0.5987,0.2137 1.1109,0.5266 1.5521,0.9234 0.4333,0.3969 0.78,0.8777 1.0321,1.4348 0.2521,0.5571 0.3861,1.1829 0.3861,1.8697 0,0.6868 -0.1261,1.3126 -0.3861,1.8774 -0.2521,0.5647 -0.5988,1.0531 -1.0321,1.4576 -0.4334,0.4045 -0.9534,0.7174 -1.5521,0.9463 -0.5988,0.229 -1.2291,0.3434 -1.9067,0.3434 -0.6697,0 -1.3079,-0.1144 -1.9067,-0.3434 -0.5988,-0.2289 -1.1109,-0.5418 -1.5521,-0.9463 -0.4333,-0.4045 -0.78,-0.8853 -1.0321,-1.4576 -0.26,-0.5648 -0.3861,-1.1906 -0.3861,-1.8774 z m 2.277,0 c 0,0.3358 0.0551,0.6716 0.1576,1.015 0.1024,0.3358 0.26,0.6411 0.4727,0.9005 0.2127,0.2671 0.4806,0.4808 0.8036,0.6487 0.3231,0.1679 0.7091,0.2519 1.1582,0.2519 0.4491,0 0.8352,-0.084 1.1582,-0.2519 0.323,-0.1679 0.5909,-0.3816 0.8036,-0.6487 0.2127,-0.2671 0.3703,-0.5647 0.4727,-0.9005 0.1025,-0.3358 0.1576,-0.6716 0.1576,-1.015 0,-0.3434 -0.0551,-0.6716 -0.1576,-1.0074 C 64.0464,22.91 63.881,22.6123 63.6761,22.3452 63.4634,22.0781 63.1955,21.8645 62.8725,21.7042 62.5495,21.5439 62.1634,21.46 61.7143,21.46 c -0.4491,0 -0.8351,0.0839 -1.1582,0.2442 -0.323,0.1603 -0.5909,0.3739 -0.8036,0.641 -0.2127,0.2671 -0.3703,0.5648 -0.4727,0.8929 -0.1025,0.3282 -0.1576,0.664 -0.1576,1.0074 z"
     fill="#ffffff"
     id="path22" />
  <path
     d="m 67.3716,24.2455 c 0,-0.6868 0.126,-1.3126 0.386,-1.8697 0.2522,-0.5571 0.5988,-1.0379 1.0322,-1.4348 0.4333,-0.3968 0.9533,-0.7021 1.5521,-0.9234 0.5988,-0.2137 1.2291,-0.3281 1.9066,-0.3281 0.6697,0 1.3079,0.1068 1.9067,0.3281 0.5988,0.2137 1.1109,0.5266 1.5521,0.9234 0.4334,0.3969 0.78,0.8777 1.0322,1.4348 0.2521,0.5571 0.386,1.1829 0.386,1.8697 0,0.6868 -0.126,1.3126 -0.386,1.8774 -0.2522,0.5647 -0.5988,1.0531 -1.0322,1.4576 -0.4333,0.4045 -0.9533,0.7174 -1.5521,0.9463 -0.5988,0.229 -1.2291,0.3434 -1.9067,0.3434 -0.6696,0 -1.3078,-0.1144 -1.9066,-0.3434 -0.5988,-0.2289 -1.1109,-0.5418 -1.5521,-0.9463 -0.4334,-0.4045 -0.78,-0.8853 -1.0322,-1.4576 -0.2521,-0.5648 -0.386,-1.1906 -0.386,-1.8774 z m 2.277,0 c 0,0.3358 0.0551,0.6716 0.1575,1.015 0.1024,0.3358 0.26,0.6411 0.4728,0.9005 0.2127,0.2671 0.4806,0.4808 0.8036,0.6487 0.323,0.1679 0.7091,0.2519 1.1582,0.2519 0.4491,0 0.8351,-0.084 1.1582,-0.2519 0.323,-0.1679 0.5909,-0.3816 0.8036,-0.6487 0.2127,-0.2671 0.3703,-0.5647 0.4727,-0.9005 0.1024,-0.3358 0.1576,-0.6716 0.1576,-1.015 0,-0.3434 -0.0552,-0.6716 -0.1576,-1.0074 C 74.5728,22.91 74.4073,22.6123 74.2025,22.3452 73.9898,22.0781 73.7219,21.8645 73.3989,21.7042 73.0758,21.5439 72.6898,21.46 72.2407,21.46 c -0.4491,0 -0.8352,0.0839 -1.1582,0.2442 -0.323,0.1603 -0.5909,0.3739 -0.8036,0.641 -0.2128,0.2671 -0.3704,0.5648 -0.4728,0.8929 -0.1024,0.3282 -0.1575,0.664 -0.1575,1.0074 z"
     fill="#ffffff"
     id="path24" />
  <path
     d="m 87.9273,28.6172 h -2.1272 v -1.305 h -0.0394 c -0.3073,0.5037 -0.7407,0.8929 -1.3,1.16 -0.5516,0.2671 -1.1503,0.3968 -1.7806,0.3968 -0.6855,0 -1.3,-0.1221 -1.8358,-0.3739 -0.5436,-0.2442 -1.0006,-0.58 -1.3788,-0.9921 -0.3782,-0.4121 -0.6697,-0.9005 -0.8745,-1.4653 -0.2049,-0.5571 -0.3073,-1.16 -0.3073,-1.801 0,-0.6411 0.1024,-1.2363 0.3151,-1.7935 0.2128,-0.5571 0.5122,-1.0378 0.8982,-1.45 0.3861,-0.4121 0.8431,-0.7326 1.3788,-0.9692 0.5358,-0.2365 1.1188,-0.351 1.757,-0.351 0.4097,0 0.78,0.0458 1.103,0.1374 0.323,0.0915 0.6067,0.1984 0.8509,0.3357 0.2443,0.1298 0.4491,0.2748 0.6224,0.435 0.1734,0.1603 0.3152,0.3053 0.4255,0.4503 h 0.0552 v -6.09 h 2.2375 v 13.6758 m -7.3745,-4.3729 c 0,0.3358 0.0551,0.6716 0.1576,1.015 0.1024,0.3358 0.2678,0.6411 0.4727,0.9005 0.2127,0.2671 0.4806,0.4808 0.8036,0.6487 0.323,0.1679 0.7012,0.2519 1.1424,0.2519 0.4097,0 0.78,-0.084 1.1031,-0.2443 0.323,-0.1602 0.5988,-0.3739 0.8272,-0.641 0.2285,-0.2671 0.4019,-0.5647 0.52,-0.8929 0.1182,-0.3282 0.1734,-0.664 0.1734,-0.9997 0,-0.3358 -0.0552,-0.6716 -0.1734,-1.015 -0.1181,-0.3358 -0.2915,-0.6411 -0.52,-0.9006 -0.2284,-0.2671 -0.5042,-0.4808 -0.8272,-0.6487 -0.3231,-0.1678 -0.6934,-0.2518 -1.1031,-0.2518 -0.4333,0 -0.8194,0.084 -1.1424,0.2442 -0.323,0.1603 -0.5909,0.374 -0.8036,0.6411 -0.2127,0.2671 -0.3703,0.5647 -0.4727,0.8929 -0.1025,0.3205 -0.1576,0.6563 -0.1576,0.9997"
     fill="#ffffff"
     id="path26" />
  <path
     d="m 103.567,18.8194 c -0.347,-0.4579 -0.804,-0.7937 -1.363,-1.0074 -0.56,-0.2137 -1.111,-0.3129 -1.647,-0.3129 -0.6856,0 -1.308,0.1221 -1.8674,0.3587 -0.5594,0.2442 -1.04,0.5724 -1.4497,0.9921 -0.4018,0.4197 -0.7169,0.9158 -0.9375,1.4805 -0.2207,0.5648 -0.3231,1.1829 -0.3231,1.8469 0,0.7021 0.1025,1.3355 0.3152,1.9155 0.2127,0.58 0.5121,1.076 0.906,1.4882 0.394,0.4197 0.8588,0.7402 1.4103,0.9692 0.5516,0.2289 1.1661,0.3434 1.8512,0.3434 0.709,0 1.34,-0.1374 1.883,-0.4045 0.544,-0.2747 0.985,-0.6258 1.324,-1.076 l 1.883,1.2821 c -0.583,0.7097 -1.3,1.2592 -2.143,1.656 -0.843,0.3969 -1.836,0.5876 -2.97,0.5876 -1.0324,0 -1.9857,-0.1678 -2.8445,-0.496 -0.8667,-0.3282 -1.6073,-0.7937 -2.2297,-1.389 -0.6224,-0.5952 -1.1109,-1.305 -1.4576,-2.1368 -0.3467,-0.8242 -0.52,-1.74 -0.52,-2.7397 0,-1.0227 0.1812,-1.9537 0.5515,-2.7779 0.3703,-0.8242 0.8746,-1.5263 1.5127,-2.1063 0.6382,-0.58 1.3946,-1.0227 2.2691,-1.3356 0.8746,-0.3129 1.82,-0.4731 2.8365,-0.4731 0.425,0 0.867,0.0381 1.324,0.1144 0.457,0.0764 0.898,0.1985 1.323,0.3587 0.426,0.1603 0.82,0.3663 1.198,0.6029 0.37,0.2442 0.693,0.5266 0.953,0.87 z"
     fill="#ffffff"
     id="path28" />
  <path
     d="m 115.054,24.3829 c 0,0.0992 0,0.1908 0,0.29 0,0.0992 -0.008,0.1908 -0.016,0.29 h -6.815 c 0.024,0.3129 0.11,0.6029 0.252,0.8623 0.142,0.2595 0.331,0.4808 0.567,0.6716 0.237,0.1832 0.505,0.3358 0.804,0.4427 0.299,0.1068 0.607,0.1602 0.938,0.1602 0.559,0 1.032,-0.0992 1.418,-0.2976 0.386,-0.1984 0.701,-0.4732 0.953,-0.8242 l 1.489,1.16 c -0.882,1.16 -2.167,1.7323 -3.845,1.7323 -0.693,0 -1.339,-0.1068 -1.922,-0.3129 -0.583,-0.2136 -1.095,-0.5113 -1.521,-0.8928 -0.425,-0.3893 -0.764,-0.8624 -1.008,-1.4195 -0.244,-0.5571 -0.363,-1.1982 -0.363,-1.9079 0,-0.7021 0.119,-1.3355 0.363,-1.9079 0.244,-0.5724 0.575,-1.0608 1,-1.4653 0.426,-0.4044 0.922,-0.7173 1.505,-0.9387 0.575,-0.2213 1.206,-0.3357 1.875,-0.3357 0.623,0 1.198,0.0992 1.726,0.2976 0.528,0.1984 0.985,0.496 1.371,0.8852 0.386,0.3893 0.685,0.8777 0.906,1.4653 0.213,0.58 0.323,1.2669 0.323,2.0453 z m -2.246,-0.9692 c 0,-0.2748 -0.039,-0.5419 -0.118,-0.7937 -0.079,-0.2519 -0.205,-0.4732 -0.386,-0.6716 -0.173,-0.1908 -0.394,-0.3434 -0.662,-0.4579 -0.268,-0.1145 -0.583,-0.1755 -0.945,-0.1755 -0.67,0 -1.237,0.1984 -1.71,0.5876 -0.465,0.3892 -0.725,0.8929 -0.772,1.5111 z"
     fill="#ffffff"
     id="path30" />
  <path
     d="m 116.283,19.9413 h 2.127 v 1.3889 h 0.039 c 0.197,-0.435 0.544,-0.8165 1.032,-1.1447 0.489,-0.3282 1.072,-0.496 1.742,-0.496 0.583,0 1.087,0.0992 1.505,0.2976 0.417,0.1984 0.756,0.4579 1.024,0.786 0.268,0.3282 0.465,0.7021 0.591,1.1219 0.126,0.4197 0.189,0.8547 0.189,1.305 v 5.426 h -2.238 v -4.8079 c 0,-0.2518 -0.016,-0.5189 -0.055,-0.7936 -0.039,-0.2748 -0.118,-0.5266 -0.244,-0.7479 -0.126,-0.2214 -0.3,-0.4045 -0.512,-0.5495 -0.221,-0.145 -0.512,-0.2137 -0.867,-0.2137 -0.362,0 -0.67,0.0687 -0.93,0.2061 -0.26,0.1373 -0.472,0.3128 -0.646,0.5342 -0.165,0.2136 -0.299,0.4655 -0.386,0.7479 -0.086,0.2823 -0.134,0.5723 -0.134,0.8623 v 4.7698 h -2.237 z"
     fill="#ffffff"
     id="path32" />
  <path
     d="m 125.391,21.6727 v -1.74 h 1.568 v -2.5108 h 2.206 v 2.5108 h 2.237 v 1.74 h -2.237 v 4.0294 c 0,0.3892 0.07,0.7021 0.212,0.9616 0.142,0.2519 0.465,0.3816 0.962,0.3816 0.149,0 0.307,-0.0153 0.488,-0.0458 0.173,-0.0305 0.331,-0.0763 0.465,-0.1374 l 0.079,1.7019 c -0.197,0.0687 -0.434,0.1297 -0.709,0.1679 -0.276,0.0458 -0.536,0.061 -0.78,0.061 -0.599,0 -1.08,-0.0839 -1.458,-0.2442 -0.37,-0.1602 -0.67,-0.3816 -0.89,-0.6716 -0.221,-0.2823 -0.371,-0.6105 -0.449,-0.9768 -0.079,-0.3663 -0.126,-0.7632 -0.126,-1.1829 v -4.0447 z"
     fill="#ffffff"
     id="path34" />
  <path
     d="m 141.109,24.3829 c 0,0.0992 0,0.1908 0,0.29 0,0.0992 -0.008,0.1908 -0.016,0.29 h -6.815 c 0.024,0.3129 0.11,0.6029 0.252,0.8623 0.142,0.2595 0.331,0.4808 0.568,0.6716 0.236,0.1832 0.504,0.3358 0.803,0.4427 0.3,0.1068 0.607,0.1602 0.938,0.1602 0.559,0 1.032,-0.0992 1.418,-0.2976 0.386,-0.1984 0.701,-0.4732 0.953,-0.8242 l 1.489,1.16 c -0.882,1.16 -2.166,1.7323 -3.845,1.7323 -0.693,0 -1.339,-0.1068 -1.922,-0.3129 -0.583,-0.2136 -1.095,-0.5113 -1.521,-0.8928 -0.425,-0.3893 -0.764,-0.8624 -1.008,-1.4195 -0.244,-0.5571 -0.362,-1.1982 -0.362,-1.9079 0,-0.7021 0.118,-1.3355 0.362,-1.9079 0.244,-0.5724 0.575,-1.0608 1.001,-1.4653 0.425,-0.4044 0.921,-0.7173 1.504,-0.9387 0.576,-0.2213 1.206,-0.3357 1.876,-0.3357 0.622,0 1.197,0.0992 1.725,0.2976 0.528,0.1984 0.985,0.496 1.371,0.8852 0.386,0.3893 0.685,0.8777 0.906,1.4653 0.213,0.58 0.323,1.2669 0.323,2.0453 z m -2.238,-0.9692 c 0,-0.2748 -0.039,-0.5419 -0.118,-0.7937 -0.079,-0.2519 -0.205,-0.4732 -0.386,-0.6716 -0.173,-0.1908 -0.394,-0.3434 -0.662,-0.4579 -0.267,-0.1145 -0.583,-0.1755 -0.945,-0.1755 -0.67,0 -1.237,0.1984 -1.71,0.5876 -0.465,0.3892 -0.725,0.8929 -0.772,1.5111 z"
     fill="#ffffff"
     id="path36" />
  <path
     d="m 142.811,19.9413 h 2.143 v 1.45 h 0.039 c 0.253,-0.5037 0.599,-0.9158 1.048,-1.2287 0.449,-0.3129 0.969,-0.4731 1.568,-0.4731 0.087,0 0.181,0 0.284,0.0076 0.102,0.0076 0.189,0.0229 0.26,0.0458 v 1.9918 c -0.15,-0.0381 -0.276,-0.061 -0.386,-0.0687 -0.103,-0.0152 -0.205,-0.0152 -0.307,-0.0152 -0.513,0 -0.922,0.0915 -1.23,0.2747 -0.307,0.1832 -0.551,0.3969 -0.724,0.6487 -0.174,0.2518 -0.292,0.5113 -0.355,0.7784 -0.063,0.2671 -0.095,0.4732 -0.095,0.6334 v 4.6477 h -2.237 v -8.6924 z"
     fill="#ffffff"
     id="path38" />
  <path
     d="m 154.33,22.2537 c -0.197,-0.2519 -0.473,-0.4732 -0.82,-0.6564 -0.346,-0.1831 -0.725,-0.2823 -1.142,-0.2823 -0.363,0 -0.693,0.0763 -0.993,0.2137 -0.299,0.145 -0.449,0.3892 -0.449,0.725 0,0.3358 0.165,0.5723 0.496,0.7173 0.331,0.1374 0.812,0.2824 1.45,0.4274 0.339,0.0687 0.678,0.1679 1.016,0.29 0.339,0.1221 0.654,0.2824 0.93,0.4808 0.284,0.1984 0.504,0.4426 0.678,0.7403 0.173,0.2976 0.26,0.6563 0.26,1.076 0,0.5266 -0.103,0.9768 -0.308,1.3508 -0.204,0.3663 -0.48,0.6639 -0.819,0.8929 -0.339,0.2289 -0.741,0.3968 -1.198,0.496 -0.456,0.0993 -0.921,0.1527 -1.41,0.1527 -0.693,0 -1.371,-0.1221 -2.033,-0.374 -0.661,-0.2442 -1.205,-0.6029 -1.646,-1.0608 l 1.473,-1.3355 c 0.252,0.3129 0.575,0.5724 0.969,0.7784 0.394,0.2061 0.843,0.3053 1.324,0.3053 0.157,0 0.323,-0.0153 0.496,-0.0534 0.174,-0.0382 0.323,-0.0916 0.465,-0.1755 0.142,-0.0764 0.26,-0.1832 0.347,-0.3129 0.086,-0.1298 0.134,-0.2977 0.134,-0.4885 0,-0.3587 -0.174,-0.6181 -0.512,-0.7784 -0.339,-0.1526 -0.859,-0.3129 -1.537,-0.4731 -0.339,-0.0764 -0.662,-0.1679 -0.977,-0.2824 -0.315,-0.1145 -0.599,-0.2671 -0.851,-0.4503 -0.252,-0.1831 -0.449,-0.4197 -0.598,-0.6945 -0.15,-0.2747 -0.221,-0.6181 -0.221,-1.0302 0,-0.4808 0.102,-0.9005 0.307,-1.2516 0.205,-0.351 0.473,-0.6334 0.812,-0.8547 0.338,-0.2213 0.717,-0.3892 1.142,-0.4961 0.426,-0.1068 0.859,-0.1602 1.308,-0.1602 0.646,0 1.276,0.1068 1.891,0.3281 0.614,0.2137 1.103,0.5495 1.465,0.9921 z"
     fill="#ffffff"
     id="path40" />
  <path
     d="M 18.0031,28.9452 C 13.394,24.0381 18.3498,15.2465 18.9801,10.431 19.3819,6.43202 17.7667,3.61597 14.7492,1.91412 8.92675,-0.932456 2.2219,0.983071 0.362505,7.46991 -0.669616,11.6368 1.98554,15.2694 4.03402,17.0704 7.64251,20.2375 15.2534,26.4115 18.0031,28.9452 Z"
     fill="#fc1921"
     id="path42" />
  <path
     d="m 20.7053,10.5915 c 0,0.0152 0,0.0305 -0.0078,0.0457 -0.1891,1.4424 -0.7012,3.1214 -1.2449,4.8995 -1.3473,4.4034 -2.8757,9.3945 -0.1733,12.2716 0.126,0.1374 0.2285,0.2518 0.3388,0.3739 4.0339,-3.7394 13.7957,-12.8134 15.1666,-16.385 2.9152,-7.60101 -8.3042,-14.47706 -15.466,-7.91391 1.1739,1.85448 1.6466,4.12106 1.3866,6.70821"
     fill="#e30513"
     id="path44" />
</svg>
