<svg width="138" height="47" viewBox="0 0 138 47" fill="none" xmlns="http://www.w3.org/2000/svg">
<path d="M41.3608 1.02539H44.4894L50.6523 10.9502H50.6915V1.02539H53.0516V14.2794H50.0564L43.7602 4.04122H43.721V14.2794H41.3608V1.02539Z" fill="white"/>
<path d="M63.9817 9.89382C63.9817 9.99565 63.9817 10.0975 63.9817 10.1915C63.9817 10.2933 63.9738 10.3952 63.966 10.4892H57.1287C57.1523 10.8103 57.2385 11.108 57.3796 11.3822C57.5208 11.6485 57.7168 11.8835 57.952 12.0715C58.1873 12.2673 58.4617 12.4162 58.7596 12.5337C59.0576 12.6433 59.3712 12.6982 59.7005 12.6982C60.2651 12.6982 60.7355 12.5963 61.1276 12.3927C61.5118 12.189 61.8333 11.8992 62.0842 11.5388L63.5818 12.7373C62.6958 13.9358 61.4099 14.5312 59.7241 14.5312C59.0262 14.5312 58.3833 14.4215 57.7952 14.2022C57.2071 13.9828 56.6975 13.6773 56.2662 13.2778C55.835 12.8783 55.4978 12.3848 55.2548 11.8052C55.0117 11.2255 54.8862 10.5675 54.8862 9.83115C54.8862 9.11048 55.0117 8.45249 55.2548 7.85715C55.4978 7.26182 55.835 6.76048 56.2584 6.33748C56.6818 5.92232 57.1836 5.59332 57.7638 5.36615C58.3441 5.13898 58.9713 5.02148 59.6457 5.02148C60.2729 5.02148 60.8453 5.12332 61.3785 5.32698C61.9117 5.53065 62.3665 5.83615 62.7585 6.24348C63.1427 6.65082 63.4485 7.15215 63.668 7.76315C63.8719 8.37415 63.9817 9.08698 63.9817 9.89382ZM61.7313 8.88332C61.7313 8.59348 61.6921 8.31932 61.6059 8.06082C61.5275 7.80232 61.3942 7.56732 61.2217 7.37148C61.0492 7.17565 60.8218 7.01115 60.5552 6.89365C60.2886 6.77615 59.975 6.71348 59.6065 6.71348C58.9321 6.71348 58.3598 6.91715 57.8893 7.32448C57.4188 7.73182 57.1601 8.24882 57.113 8.89115H61.7313V8.88332Z" fill="white"/>
<path d="M67.9729 0.125V6.43083H68.0278C68.1376 6.282 68.2866 6.12533 68.4591 5.96083C68.6316 5.79633 68.8433 5.6475 69.0864 5.51433C69.3294 5.37333 69.6117 5.26367 69.941 5.16967C70.2625 5.07567 70.631 5.02867 71.0466 5.02867C71.6817 5.02867 72.2698 5.154 72.8108 5.39683C73.3518 5.63967 73.8144 5.9765 74.1986 6.3995C74.5828 6.8225 74.8886 7.32383 75.1003 7.89567C75.312 8.4675 75.4218 9.08633 75.4218 9.75217C75.4218 10.418 75.3199 11.0368 75.116 11.6165C74.9121 12.1962 74.6142 12.7053 74.2378 13.1362C73.8536 13.567 73.391 13.9117 72.85 14.1623C72.309 14.4208 71.6895 14.5462 71.0074 14.5462C70.3723 14.5462 69.7764 14.4052 69.2196 14.131C68.6629 13.8568 68.2317 13.4573 67.9181 12.9325H67.8789V14.2798H65.7383V0.125H67.9729ZM73.1244 9.74433C73.1244 9.39183 73.0695 9.04717 72.9676 8.7025C72.8657 8.35783 72.701 8.05233 72.4893 7.77817C72.2776 7.504 72.011 7.28467 71.6817 7.11233C71.3602 6.94783 70.976 6.86167 70.5369 6.86167C70.1214 6.86167 69.7528 6.94783 69.4314 7.12017C69.1099 7.2925 68.8276 7.51967 68.6002 7.79383C68.365 8.068 68.1925 8.38133 68.0749 8.726C67.9573 9.0785 67.8945 9.42317 67.8945 9.77567C67.8945 10.1282 67.9494 10.4728 68.0749 10.8175C68.1925 11.1622 68.365 11.4677 68.6002 11.7418C68.8354 12.016 69.1099 12.2353 69.4314 12.4077C69.7528 12.5722 70.1214 12.6583 70.5369 12.6583C70.976 12.6583 71.3524 12.5722 71.6817 12.3998C72.0032 12.2275 72.2776 12.0003 72.4893 11.7262C72.701 11.452 72.8657 11.1387 72.9676 10.7862C73.0695 10.4493 73.1244 10.0968 73.1244 9.74433Z" fill="white"/>
<path d="M77.1152 5.28782H79.2715V6.78398H79.3107C79.5616 6.25915 79.9066 5.83615 80.3614 5.50715C80.8083 5.18599 81.3336 5.02148 81.9374 5.02148C82.0236 5.02148 82.1177 5.02148 82.2197 5.02932C82.3216 5.03715 82.4079 5.05282 82.4784 5.07632V7.13648C82.3294 7.09732 82.204 7.07382 82.0942 7.05815C81.9844 7.04248 81.8825 7.04248 81.7884 7.04248C81.2788 7.04248 80.8632 7.13648 80.5496 7.32448C80.2359 7.51248 79.9929 7.73965 79.8204 7.99815C79.6479 8.25665 79.5302 8.53082 79.4675 8.80498C79.4048 9.07915 79.3734 9.29848 79.3734 9.46298V14.2727H77.1231V5.28782H77.1152Z" fill="white"/>
<path d="M88.8062 13.1368H88.7514C88.524 13.5363 88.1633 13.8653 87.6615 14.116C87.1597 14.3745 86.5951 14.4998 85.96 14.4998C85.5993 14.4998 85.2229 14.4528 84.8231 14.3588C84.431 14.2648 84.0625 14.1082 83.7332 13.8888C83.4039 13.6695 83.1294 13.3797 82.9099 13.0272C82.6903 12.6747 82.5806 12.2282 82.5806 11.7033C82.5806 11.0297 82.7688 10.4892 83.153 10.0897C83.5372 9.69015 84.0233 9.38465 84.627 9.17315C85.223 8.96165 85.8894 8.82065 86.6265 8.75015C87.3557 8.67965 88.0692 8.64832 88.7749 8.64832V8.42115C88.7749 7.85715 88.571 7.44198 88.1633 7.17565C87.7556 6.90932 87.2773 6.77615 86.7127 6.77615C86.2344 6.77615 85.7797 6.87799 85.3484 7.07382C84.9093 7.26965 84.5486 7.52032 84.2585 7.80232L83.0981 6.43932C83.6077 5.96148 84.2036 5.60899 84.8701 5.37398C85.5366 5.13898 86.2188 5.02148 86.9009 5.02148C87.7007 5.02148 88.3593 5.13115 88.8768 5.35832C89.3943 5.58548 89.802 5.87532 90.1078 6.23565C90.4058 6.59598 90.6175 7.00332 90.7351 7.44982C90.8527 7.89632 90.9155 8.35065 90.9155 8.79715V14.2648H88.8141V13.1368H88.8062ZM88.7749 10.1758H88.2652C87.9046 10.1758 87.5203 10.1915 87.1205 10.2228C86.7206 10.2542 86.352 10.3247 86.0149 10.4265C85.6777 10.5362 85.3955 10.685 85.1759 10.873C84.9485 11.0688 84.8387 11.3352 84.8387 11.672C84.8387 11.8835 84.8858 12.0637 84.9799 12.2047C85.074 12.3457 85.1916 12.4632 85.3484 12.5493C85.4974 12.6355 85.6699 12.6982 85.8581 12.7373C86.0462 12.7765 86.2344 12.7922 86.4226 12.7922C87.1989 12.7922 87.7869 12.5885 88.1868 12.1733C88.5867 11.7582 88.7827 11.202 88.7827 10.4892V10.1758H88.7749Z" fill="white"/>
<path d="M97.9959 7.68482C97.792 7.42632 97.5176 7.19132 97.1726 7.00332C96.8197 6.80748 96.4434 6.71348 96.0278 6.71348C95.6671 6.71348 95.3378 6.79182 95.032 6.94065C94.7341 7.08948 94.5851 7.34015 94.5851 7.69265C94.5851 8.04515 94.7497 8.28798 95.0791 8.42898C95.4084 8.56998 95.8945 8.71882 96.5296 8.86765C96.8668 8.94598 97.2039 9.03999 97.5489 9.16532C97.8939 9.29065 98.2076 9.45515 98.482 9.65882C98.7565 9.86248 98.9917 10.121 99.1642 10.4265C99.3367 10.732 99.4229 11.1002 99.4229 11.5388C99.4229 12.0872 99.321 12.5493 99.1171 12.9332C98.9133 13.317 98.6388 13.6225 98.2938 13.8575C97.9488 14.0925 97.5489 14.2648 97.0942 14.3745C96.6394 14.4841 96.1689 14.5312 95.675 14.5312C94.9771 14.5312 94.295 14.4058 93.6363 14.1473C92.9777 13.8888 92.421 13.5285 91.9897 13.0507L93.4717 11.6642C93.7226 11.9853 94.0441 12.2595 94.4439 12.471C94.8438 12.6825 95.2829 12.7922 95.7769 12.7922C95.9416 12.7922 96.1062 12.7765 96.2709 12.7373C96.4434 12.6982 96.5924 12.6433 96.7413 12.5572C96.8825 12.4788 97.0001 12.3692 97.0863 12.2282C97.1726 12.0872 97.2196 11.9227 97.2196 11.719C97.2196 11.343 97.0471 11.0767 96.7021 10.9122C96.3571 10.7477 95.8396 10.591 95.1575 10.4265C94.8203 10.3482 94.491 10.2542 94.1774 10.1367C93.8559 10.0192 93.5736 9.86248 93.3227 9.66665C93.0718 9.47082 92.8758 9.23582 92.7268 8.94598C92.5778 8.65615 92.4994 8.30365 92.4994 7.88065C92.4994 7.37932 92.6013 6.94848 92.8052 6.58815C93.0091 6.22782 93.2835 5.93015 93.6206 5.70299C93.9578 5.46799 94.342 5.30349 94.7654 5.18599C95.1888 5.07632 95.6279 5.02148 96.0749 5.02148C96.7256 5.02148 97.3608 5.13115 97.9802 5.35832C98.5996 5.58548 99.0858 5.92232 99.4543 6.38448L97.9959 7.68482Z" fill="white"/>
<path d="M100.952 0.125H103.202V9.07067H103.257L106.668 5.28717H109.553L105.656 9.35267L109.796 14.2798H106.817L103.257 9.67383H103.202V14.2798H100.952V0.125Z" fill="white"/>
<path d="M116.092 13.1368H116.037C115.81 13.5363 115.449 13.8653 114.948 14.116C114.446 14.3745 113.881 14.4998 113.246 14.4998C112.885 14.4998 112.509 14.4528 112.109 14.3588C111.717 14.2648 111.349 14.1082 111.019 13.8888C110.69 13.6695 110.416 13.3797 110.196 13.0272C109.976 12.6747 109.867 12.2282 109.867 11.7033C109.867 11.0297 110.055 10.4892 110.439 10.0897C110.823 9.69015 111.309 9.38465 111.913 9.17315C112.509 8.96165 113.176 8.82065 113.913 8.75015C114.642 8.67965 115.355 8.64832 116.061 8.64832V8.42115C116.061 7.85715 115.857 7.44198 115.449 7.17565C115.042 6.90932 114.563 6.77615 113.999 6.77615C113.521 6.77615 113.066 6.87799 112.635 7.07382C112.195 7.26965 111.835 7.52032 111.545 7.80232L110.384 6.43932C110.894 5.96148 111.49 5.60899 112.156 5.37398C112.823 5.13898 113.505 5.02148 114.187 5.02148C114.987 5.02148 115.645 5.13115 116.163 5.35832C116.68 5.58548 117.088 5.87532 117.394 6.23565C117.692 6.59598 117.904 7.00332 118.021 7.44982C118.139 7.89632 118.202 8.35065 118.202 8.79715V14.2648H116.1V13.1368H116.092ZM116.061 10.1758H115.551C115.191 10.1758 114.806 10.1915 114.407 10.2228C114.007 10.2542 113.638 10.3247 113.301 10.4265C112.964 10.5362 112.682 10.685 112.462 10.873C112.235 11.0688 112.125 11.3352 112.125 11.672C112.125 11.8835 112.172 12.0637 112.266 12.2047C112.36 12.3457 112.478 12.4632 112.635 12.5493C112.784 12.6355 112.956 12.6982 113.144 12.7373C113.332 12.7765 113.521 12.7922 113.709 12.7922C114.485 12.7922 115.073 12.5885 115.473 12.1733C115.873 11.7582 116.069 11.202 116.069 10.4892V10.1758H116.061Z" fill="white"/>
<path d="M50.9345 19.5443C50.5816 19.0665 50.1269 18.7218 49.5702 18.5025C49.0056 18.2832 48.4568 18.1735 47.9236 18.1735C47.2336 18.1735 46.6141 18.2988 46.0496 18.5495C45.485 18.8002 45.0067 19.1448 44.599 19.5757C44.1913 20.0143 43.8777 20.5235 43.6581 21.111C43.4386 21.6985 43.3288 22.333 43.3288 23.0223C43.3288 23.743 43.4307 24.4088 43.6503 25.0042C43.862 25.5995 44.1678 26.1165 44.5598 26.5473C44.9519 26.9782 45.4223 27.315 45.9712 27.55C46.52 27.785 47.1395 27.9025 47.8295 27.9025C48.543 27.9025 49.1703 27.7615 49.7191 27.4795C50.268 27.1975 50.7149 26.8293 51.0521 26.3672L52.9417 27.6988C52.3537 28.4352 51.6323 29.007 50.7855 29.4143C49.9387 29.8217 48.9429 30.0253 47.806 30.0253C46.771 30.0253 45.8144 29.853 44.944 29.5083C44.0737 29.1637 43.3288 28.6858 42.7015 28.067C42.0742 27.4482 41.5881 26.7118 41.2431 25.858C40.8903 25.0042 40.7178 24.0563 40.7178 23.0223C40.7178 21.9648 40.8981 21.0013 41.2666 20.1475C41.6352 19.2937 42.1448 18.5652 42.7878 17.9698C43.4307 17.3745 44.1913 16.9123 45.0616 16.5833C45.932 16.2622 46.8886 16.0977 47.9079 16.0977C48.3313 16.0977 48.7782 16.1368 49.2408 16.223C49.7035 16.3013 50.1425 16.4267 50.5738 16.599C50.9972 16.7713 51.3971 16.975 51.7735 17.2257C52.1498 17.4763 52.4635 17.774 52.73 18.1265L50.9345 19.5443Z" fill="white"/>
<path d="M53.0752 25.161C53.0752 24.4481 53.2006 23.8058 53.4594 23.2261C53.7181 22.6465 54.0631 22.153 54.5022 21.7378C54.9413 21.3226 55.4588 21.0093 56.0547 20.7821C56.6506 20.555 57.2936 20.4453 57.9679 20.4453C58.6422 20.4453 59.2774 20.555 59.8811 20.7821C60.477 21.0093 61.0024 21.3226 61.4336 21.7378C61.8727 22.153 62.2177 22.6465 62.4764 23.2261C62.7352 23.8058 62.8606 24.456 62.8606 25.161C62.8606 25.866 62.7352 26.524 62.4764 27.1036C62.2177 27.6911 61.8727 28.1925 61.4336 28.6076C60.9945 29.0228 60.477 29.3518 59.8811 29.5868C59.2852 29.8218 58.6422 29.9393 57.9679 29.9393C57.2936 29.9393 56.6585 29.8218 56.0547 29.5868C55.451 29.3518 54.9335 29.0228 54.5022 28.6076C54.0631 28.1925 53.7181 27.6911 53.4594 27.1036C53.2006 26.524 53.0752 25.8738 53.0752 25.161ZM55.3647 25.161C55.3647 25.5135 55.4196 25.8581 55.5216 26.2106C55.6235 26.5631 55.7881 26.8765 55.9999 27.1506C56.2116 27.4248 56.4781 27.652 56.8075 27.8243C57.1289 27.9966 57.521 28.0828 57.9679 28.0828C58.4149 28.0828 58.8069 27.9966 59.1284 27.8243C59.4499 27.652 59.7243 27.4248 59.936 27.1506C60.1477 26.8765 60.3045 26.5631 60.4143 26.2106C60.5241 25.8581 60.5711 25.5135 60.5711 25.161C60.5711 24.8085 60.5162 24.4638 60.4143 24.1191C60.3045 23.7745 60.1477 23.469 59.936 23.1948C59.7243 22.9206 59.4577 22.7013 59.1284 22.529C58.8069 22.3645 58.4149 22.2783 57.9679 22.2783C57.521 22.2783 57.1289 22.3645 56.8075 22.529C56.486 22.6935 56.2116 22.9206 55.9999 23.1948C55.7881 23.469 55.6235 23.7745 55.5216 24.1191C55.4118 24.4716 55.3647 24.8163 55.3647 25.161Z" fill="white"/>
<path d="M75.2962 20.4453C75.8843 20.4453 76.3861 20.5471 76.8017 20.7508C77.2173 20.9545 77.5623 21.2286 77.8289 21.5655C78.0954 21.9023 78.2915 22.2861 78.4169 22.7248C78.5424 23.1635 78.6051 23.61 78.6051 24.0721V29.6887H76.3548V24.7066C76.3548 24.4481 76.3391 24.1661 76.2999 23.8841C76.2607 23.6021 76.1823 23.3358 76.0568 23.1086C75.9314 22.8815 75.7589 22.6856 75.5393 22.5368C75.3198 22.388 75.0297 22.3096 74.669 22.3096C74.3161 22.3096 74.0182 22.388 73.7673 22.5368C73.5164 22.6856 73.3125 22.8815 73.1478 23.1165C72.9832 23.3515 72.8656 23.6178 72.795 23.9155C72.7166 24.2053 72.6852 24.503 72.6852 24.785V29.6887H70.4349V24.2601C70.4349 23.6961 70.3016 23.234 70.035 22.8658C69.7684 22.4976 69.345 22.3096 68.7726 22.3096C68.4354 22.3096 68.1453 22.3801 67.8944 22.529C67.6435 22.67 67.4396 22.858 67.2828 23.0773C67.126 23.3045 67.0084 23.563 66.93 23.8528C66.8516 24.1426 66.8045 24.4403 66.8045 24.7458V29.6887H64.5542V20.7116H66.6948V22.153H66.734C66.8359 21.9258 66.9692 21.7143 67.1339 21.5185C67.3064 21.3226 67.5024 21.1346 67.7298 20.978C67.965 20.8135 68.2237 20.6881 68.5295 20.5941C68.8275 20.5001 69.1568 20.4531 69.5253 20.4531C70.2232 20.4531 70.8034 20.6098 71.266 20.9231C71.7286 21.2365 72.0815 21.6438 72.3324 22.1608C72.6303 21.6125 73.0302 21.1895 73.532 20.8996C74.0417 20.5941 74.6219 20.4453 75.2962 20.4453Z" fill="white"/>
<path d="M91.5111 20.4453C92.0992 20.4453 92.601 20.5471 93.0165 20.7508C93.4321 20.9545 93.7771 21.2286 94.0437 21.5655C94.3103 21.9023 94.5063 22.2861 94.6318 22.7248C94.7572 23.1635 94.8199 23.61 94.8199 24.0721V29.6887H92.5696V24.7066C92.5696 24.4481 92.5539 24.1661 92.5147 23.8841C92.4755 23.6021 92.3971 23.3358 92.2717 23.1086C92.1462 22.8815 91.9737 22.6856 91.7542 22.5368C91.5346 22.388 91.2445 22.3096 90.8838 22.3096C90.531 22.3096 90.233 22.388 89.9821 22.5368C89.7312 22.6856 89.5273 22.8815 89.3627 23.1165C89.198 23.3515 89.0804 23.6178 89.0098 23.9155C88.9314 24.2053 88.9001 24.503 88.9001 24.785V29.6887H86.6497V24.2601C86.6497 23.6961 86.5164 23.234 86.2498 22.8658C85.9832 22.4976 85.5598 22.3096 84.9875 22.3096C84.6503 22.3096 84.3602 22.3801 84.1093 22.529C83.8584 22.6778 83.6545 22.858 83.4977 23.0773C83.3409 23.3045 83.2232 23.563 83.1448 23.8528C83.0664 24.1426 83.0194 24.4403 83.0194 24.7458V29.6887H80.769V20.7116H82.9096V22.153H82.9488C83.0507 21.9258 83.184 21.7143 83.3487 21.5185C83.5212 21.3226 83.7172 21.1346 83.9446 20.978C84.172 20.8213 84.4386 20.6881 84.7444 20.5941C85.0423 20.5001 85.3717 20.4531 85.7402 20.4531C86.438 20.4531 87.0183 20.6098 87.4809 20.9231C87.9435 21.2365 88.2963 21.6438 88.5472 22.1608C88.8452 21.6125 89.2451 21.1895 89.7469 20.8996C90.2487 20.5941 90.8368 20.4453 91.5111 20.4453Z" fill="white"/>
<path d="M105.186 29.6957H103.053V28.2544H103.014C102.81 28.7009 102.465 29.1004 101.971 29.4451C101.477 29.7897 100.897 29.9621 100.215 29.9621C99.6266 29.9621 99.1248 29.8602 98.7092 29.6566C98.2936 29.4529 97.9486 29.1787 97.6742 28.8419C97.4076 28.5051 97.2116 28.1212 97.0861 27.6826C96.9607 27.2439 96.8979 26.7974 96.8979 26.3352V20.7188H99.1483V25.7007C99.1483 25.9592 99.164 26.2412 99.2032 26.5232C99.2424 26.8131 99.3208 27.0716 99.4462 27.2987C99.5717 27.5337 99.7442 27.7217 99.9637 27.8706C100.183 28.0194 100.473 28.0977 100.834 28.0977C101.187 28.0977 101.493 28.0272 101.759 27.8784C102.026 27.7374 102.245 27.5494 102.418 27.3301C102.59 27.1029 102.716 26.8444 102.802 26.5546C102.888 26.2647 102.935 25.9671 102.935 25.6616V20.7188H105.186V29.6957Z" fill="white"/>
<path d="M107.42 20.7116H109.561V22.153H109.6C109.796 21.7065 110.149 21.307 110.643 20.9623C111.137 20.6176 111.717 20.4453 112.392 20.4453C112.98 20.4453 113.481 20.5471 113.897 20.7508C114.313 20.9545 114.658 21.2286 114.924 21.5655C115.191 21.9023 115.387 22.2861 115.512 22.7248C115.638 23.1635 115.7 23.61 115.7 24.0721V29.6887H113.45V24.7066C113.45 24.4481 113.434 24.1661 113.395 23.8841C113.356 23.5943 113.278 23.3358 113.152 23.1086C113.027 22.8815 112.854 22.6856 112.635 22.5368C112.415 22.388 112.125 22.3096 111.764 22.3096C111.404 22.3096 111.09 22.3801 110.831 22.529C110.572 22.67 110.353 22.858 110.18 23.0773C110.008 23.2966 109.882 23.563 109.796 23.8528C109.71 24.1426 109.663 24.4403 109.663 24.7458V29.6887H107.42V20.7116Z" fill="white"/>
<path d="M117.574 17.6559C117.574 17.2956 117.708 16.9823 117.974 16.7081C118.241 16.4418 118.586 16.3086 118.993 16.3086C119.401 16.3086 119.754 16.4339 120.036 16.6924C120.319 16.9509 120.46 17.2721 120.46 17.6559C120.46 18.0398 120.319 18.3609 120.036 18.6194C119.754 18.8779 119.409 19.0033 118.993 19.0033C118.578 19.0033 118.241 18.8701 117.974 18.6038C117.708 18.3374 117.574 18.0163 117.574 17.6559ZM117.896 20.7109H120.146V29.6958H117.896V20.7109Z" fill="white"/>
<path d="M121.119 22.5039V20.71H122.695V18.1094H124.906V20.71H127.156V22.5039H124.906V26.679C124.906 27.0785 124.976 27.4075 125.118 27.6739C125.259 27.9324 125.58 28.0655 126.082 28.0655C126.231 28.0655 126.396 28.0499 126.568 28.0185C126.741 27.9872 126.897 27.9402 127.039 27.8775L127.117 29.64C126.913 29.7184 126.678 29.7732 126.403 29.8202C126.129 29.8672 125.862 29.8829 125.619 29.8829C125.023 29.8829 124.529 29.7967 124.161 29.6322C123.792 29.4677 123.487 29.2327 123.267 28.9429C123.048 28.653 122.899 28.3162 122.82 27.9324C122.742 27.5485 122.695 27.1412 122.695 26.7025V22.5117H121.119V22.5039Z" fill="white"/>
<path d="M127.619 20.7109H130.112L132.621 27.2439H132.66L134.887 20.7109H137.232L132.982 31.6228C132.817 32.0379 132.645 32.3983 132.456 32.7194C132.268 33.0406 132.041 33.3069 131.782 33.5263C131.523 33.7456 131.21 33.9101 130.857 34.0198C130.504 34.1294 130.073 34.1921 129.571 34.1921C129.383 34.1921 129.195 34.1843 128.999 34.1608C128.803 34.1451 128.607 34.1059 128.411 34.0589L128.599 32.1084C128.748 32.1554 128.897 32.1946 129.038 32.2103C129.179 32.2259 129.312 32.2416 129.438 32.2416C129.673 32.2416 129.877 32.2103 130.034 32.1554C130.198 32.1006 130.332 32.0144 130.449 31.8969C130.559 31.7794 130.661 31.6306 130.747 31.4583C130.833 31.2859 130.928 31.0744 131.029 30.8394L131.476 29.6958L127.619 20.7109Z" fill="white"/>
<path d="M41.3608 32.9551H46.5358C47.0377 32.9551 47.5316 33.0177 48.0178 33.1352C48.5039 33.2527 48.9352 33.4486 49.3194 33.7149C49.6957 33.9812 50.0094 34.3337 50.2446 34.7567C50.4798 35.1797 50.5974 35.6889 50.5974 36.2921C50.5974 37.0441 50.3857 37.6551 49.9623 38.1486C49.5389 38.6342 48.9822 38.9867 48.2922 39.1982V39.2374C49.1312 39.3471 49.8133 39.6761 50.3544 40.2087C50.8954 40.7414 51.162 41.4621 51.162 42.3629C51.162 43.0836 51.0208 43.6946 50.7307 44.1881C50.4406 44.6816 50.0642 45.0811 49.5938 45.3787C49.1233 45.6764 48.5902 45.8957 47.9786 46.0211C47.3827 46.1464 46.7632 46.2169 46.1438 46.2169H41.3687V32.9551H41.3608ZM43.721 38.3522H45.8223C46.6064 38.3522 47.2102 38.1956 47.6179 37.8822C48.0335 37.5689 48.2373 37.1302 48.2373 36.5506C48.2373 35.9552 48.0256 35.5244 47.6022 35.2737C47.1788 35.0231 46.5123 34.8977 45.6185 34.8977H43.7288V38.3522H43.721ZM43.721 44.2272H45.838C46.136 44.2272 46.4653 44.2037 46.8103 44.1646C47.1553 44.1176 47.4846 44.0314 47.7747 43.8904C48.0648 43.7494 48.3157 43.5536 48.5039 43.2951C48.6999 43.0366 48.794 42.6841 48.794 42.2454C48.794 41.5482 48.5588 41.0626 48.0805 40.7884C47.6022 40.5142 46.8887 40.3732 45.9242 40.3732H43.7131V44.2272H43.721Z" fill="white"/>
<path d="M52.9419 32.0605H55.1922V46.2154H52.9419V32.0605Z" fill="white"/>
<path d="M56.4624 41.6805C56.4624 40.9677 56.5879 40.3253 56.8466 39.7457C57.1054 39.166 57.4504 38.6725 57.8894 38.2573C58.3285 37.8422 58.846 37.5288 59.4419 37.3017C60.0379 37.0745 60.6808 36.9648 61.3551 36.9648C62.0294 36.9648 62.6646 37.0745 63.2683 37.3017C63.8642 37.5288 64.3896 37.8422 64.8208 38.2573C65.2521 38.6725 65.6049 39.166 65.8637 39.7457C66.1224 40.3253 66.2479 40.9755 66.2479 41.6805C66.2479 42.3855 66.1224 43.0435 65.8637 43.6232C65.6049 44.2107 65.2599 44.712 64.8208 45.1272C64.3817 45.5423 63.8642 45.8713 63.2683 46.1063C62.6724 46.3413 62.0294 46.4588 61.3551 46.4588C60.6808 46.4588 60.0457 46.3413 59.4419 46.1063C58.8382 45.8713 58.3207 45.5423 57.8894 45.1272C57.4504 44.712 57.1054 44.2107 56.8466 43.6232C56.5957 43.0435 56.4624 42.3933 56.4624 41.6805ZM58.7519 41.6805C58.7519 42.033 58.8068 42.3777 58.9088 42.7302C59.0107 43.0827 59.1754 43.396 59.3871 43.6702C59.5988 43.9443 59.8654 44.1715 60.1947 44.3438C60.5162 44.5162 60.9082 44.6023 61.3551 44.6023C61.8021 44.6023 62.1941 44.5162 62.5156 44.3438C62.8371 44.1715 63.1115 43.9443 63.3232 43.6702C63.5349 43.396 63.6917 43.0827 63.8015 42.7302C63.9113 42.3777 63.9583 42.033 63.9583 41.6805C63.9583 41.328 63.9034 40.9833 63.8015 40.6387C63.6917 40.294 63.5349 39.9885 63.3232 39.7143C63.1115 39.4402 62.8449 39.2208 62.5156 39.0485C62.1941 38.884 61.8021 38.7978 61.3551 38.7978C60.9082 38.7978 60.5162 38.884 60.1947 39.0485C59.8732 39.213 59.5988 39.4402 59.3871 39.7143C59.1754 39.9885 59.0107 40.294 58.9088 40.6387C58.8068 40.9833 58.7519 41.3358 58.7519 41.6805Z" fill="white"/>
<path d="M67.0396 41.6805C67.0396 40.9677 67.165 40.3253 67.4238 39.7457C67.6825 39.166 68.0275 38.6725 68.4666 38.2573C68.9057 37.8422 69.4232 37.5288 70.0191 37.3017C70.615 37.0745 71.258 36.9648 71.9323 36.9648C72.6066 36.9648 73.2417 37.0745 73.8455 37.3017C74.4414 37.5288 74.9667 37.8422 75.398 38.2573C75.8292 38.6725 76.1821 39.166 76.4408 39.7457C76.6996 40.3253 76.825 40.9755 76.825 41.6805C76.825 42.3855 76.6996 43.0435 76.4408 43.6232C76.1821 44.2107 75.8371 44.712 75.398 45.1272C74.9589 45.5423 74.4414 45.8713 73.8455 46.1063C73.2496 46.3413 72.6066 46.4588 71.9323 46.4588C71.258 46.4588 70.6229 46.3413 70.0191 46.1063C69.4232 45.8713 68.8978 45.5423 68.4666 45.1272C68.0275 44.712 67.6825 44.2107 67.4238 43.6232C67.165 43.0435 67.0396 42.3933 67.0396 41.6805ZM69.3213 41.6805C69.3213 42.033 69.3761 42.3777 69.4781 42.7302C69.58 43.0827 69.7447 43.396 69.9564 43.6702C70.1681 43.9443 70.4347 44.1715 70.764 44.3438C71.0855 44.5162 71.4775 44.6023 71.9244 44.6023C72.3714 44.6023 72.7634 44.5162 73.0849 44.3438C73.4064 44.1715 73.6808 43.9443 73.8925 43.6702C74.1042 43.396 74.261 43.0827 74.3708 42.7302C74.4806 42.3777 74.5276 42.033 74.5276 41.6805C74.5276 41.328 74.4727 40.9833 74.3708 40.6387C74.261 40.294 74.1042 39.9885 73.8925 39.7143C73.6808 39.4402 73.4142 39.2208 73.0849 39.0485C72.7634 38.884 72.3714 38.7978 71.9244 38.7978C71.4775 38.7978 71.0855 38.884 70.764 39.0485C70.4425 39.213 70.1681 39.4402 69.9564 39.7143C69.7447 39.9885 69.58 40.294 69.4781 40.6387C69.3761 40.9833 69.3213 41.3358 69.3213 41.6805Z" fill="white"/>
<path d="M87.6693 46.2154H85.5366V44.868H85.4974C85.1838 45.3929 84.7525 45.7924 84.1958 46.0665C83.6391 46.3407 83.0432 46.4817 82.4081 46.4817C81.7181 46.4817 81.1065 46.3564 80.5655 46.0979C80.0244 45.8394 79.5618 45.5025 79.1776 45.0717C78.7934 44.6409 78.5033 44.1317 78.2994 43.552C78.0956 42.9724 77.9937 42.3535 77.9937 41.6877C77.9937 41.0219 78.0956 40.4109 78.3151 39.8312C78.5268 39.2594 78.8248 38.758 79.2168 38.335C79.601 37.912 80.0637 37.5752 80.6047 37.3324C81.1457 37.0895 81.7259 36.9642 82.3689 36.9642C82.7845 36.9642 83.153 37.0112 83.4744 37.1052C83.7959 37.1992 84.086 37.3167 84.3291 37.4499C84.5722 37.5909 84.7839 37.7397 84.9564 37.8964C85.1289 38.0609 85.2779 38.2175 85.3876 38.3664H85.4425V32.0605H87.6929V46.2154H87.6693ZM80.2675 41.6799C80.2675 42.0324 80.3224 42.3771 80.4243 42.7296C80.5341 43.0821 80.6909 43.3954 80.9026 43.6695C81.1143 43.9437 81.3809 44.1709 81.7102 44.3432C82.0317 44.5155 82.4159 44.6017 82.855 44.6017C83.2706 44.6017 83.6391 44.5156 83.9606 44.3511C84.2821 44.1787 84.5643 43.9594 84.7917 43.6852C85.0269 43.411 85.1994 43.1055 85.3171 42.7609C85.4347 42.4162 85.4974 42.0715 85.4974 41.719C85.4974 41.3665 85.4347 41.0219 85.3171 40.6694C85.1994 40.3169 85.0269 40.0114 84.7917 39.7372C84.5565 39.463 84.2821 39.2359 83.9606 39.0635C83.6391 38.8912 83.2706 38.805 82.855 38.805C82.4159 38.805 82.0396 38.8912 81.7102 39.0557C81.3888 39.2202 81.1143 39.4474 80.9026 39.7215C80.6909 39.9957 80.5341 40.3012 80.4243 40.6459C80.3224 40.9827 80.2675 41.3352 80.2675 41.6799Z" fill="white"/>
<path d="M93.793 32.9551H98.968C99.4698 32.9551 99.9638 33.0177 100.45 33.1352C100.936 33.2527 101.367 33.4486 101.752 33.7149C102.128 33.9812 102.441 34.3337 102.677 34.7567C102.912 35.1797 103.03 35.6889 103.03 36.2921C103.03 37.0441 102.818 37.6551 102.394 38.1486C101.971 38.6342 101.414 38.9867 100.724 39.1982V39.2374C101.563 39.3471 102.245 39.6761 102.786 40.2087C103.328 40.7492 103.594 41.4621 103.594 42.3629C103.594 43.0836 103.453 43.6946 103.163 44.1881C102.873 44.6816 102.496 45.0811 102.026 45.3787C101.555 45.6764 101.022 45.8957 100.411 46.0211C99.807 46.1542 99.1875 46.2169 98.5681 46.2169H93.793V32.9551ZM96.1531 38.3522H98.2544C99.0385 38.3522 99.6423 38.1956 100.05 37.8822C100.466 37.5689 100.669 37.1302 100.669 36.5506C100.669 35.9552 100.458 35.5244 100.034 35.2737C99.6109 35.0231 98.9445 34.8977 98.0506 34.8977H96.1609V38.3522H96.1531ZM96.1531 44.2272H98.2701C98.5681 44.2272 98.8974 44.2037 99.2424 44.1646C99.5874 44.1176 99.9167 44.0314 100.207 43.8904C100.497 43.7494 100.748 43.5536 100.936 43.2951C101.132 43.0366 101.226 42.6841 101.226 42.2454C101.226 41.5482 100.991 41.0626 100.513 40.7884C100.034 40.5142 99.3208 40.3732 98.3564 40.3732H96.1452V44.2272H96.1531Z" fill="white"/>
<path d="M110.925 45.0724H110.87C110.643 45.4719 110.282 45.8009 109.781 46.0515C109.279 46.31 108.714 46.4354 108.079 46.4354C107.718 46.4354 107.342 46.3884 106.942 46.2944C106.55 46.2004 106.182 46.0437 105.852 45.8244C105.523 45.605 105.249 45.3152 105.029 44.9627C104.809 44.6102 104.7 44.1637 104.7 43.6389C104.7 42.9652 104.888 42.4247 105.272 42.0252C105.656 41.6257 106.142 41.3202 106.746 41.1087C107.342 40.8972 108.009 40.7562 108.746 40.6857C109.483 40.6152 110.188 40.5839 110.894 40.5839V40.3567C110.894 39.7927 110.69 39.3775 110.282 39.1112C109.875 38.8449 109.396 38.7117 108.832 38.7117C108.354 38.7117 107.899 38.8135 107.468 39.0094C107.028 39.2052 106.668 39.4559 106.378 39.7379L105.217 38.3749C105.727 37.897 106.323 37.5445 106.989 37.3095C107.656 37.0745 108.338 36.957 109.02 36.957C109.82 36.957 110.478 37.0667 110.996 37.2939C111.513 37.521 111.921 37.8109 112.227 38.1712C112.525 38.5315 112.737 38.9389 112.854 39.3854C112.972 39.8319 113.035 40.2862 113.035 40.7327V46.216H110.933V45.0724H110.925ZM110.886 42.1114H110.377C110.016 42.1114 109.632 42.127 109.232 42.1584C108.832 42.1897 108.463 42.2602 108.126 42.362C107.789 42.4717 107.507 42.6205 107.287 42.8085C107.06 43.0044 106.95 43.2707 106.95 43.6075C106.95 43.819 106.997 43.9992 107.091 44.1402C107.185 44.2812 107.303 44.3987 107.46 44.4849C107.609 44.571 107.781 44.6337 107.969 44.6729C108.158 44.712 108.346 44.7277 108.534 44.7277C109.31 44.7277 109.898 44.524 110.298 44.1089C110.698 43.6937 110.894 43.1375 110.894 42.4247V42.1114H110.886Z" fill="white"/>
<path d="M114.705 37.2234H116.845V38.6647H116.884C117.08 38.2182 117.433 37.8187 117.927 37.474C118.421 37.1294 119.001 36.957 119.676 36.957C120.264 36.957 120.766 37.0589 121.181 37.2625C121.597 37.4662 121.942 37.7404 122.208 38.0772C122.475 38.414 122.671 38.7979 122.796 39.2365C122.922 39.6752 122.985 40.1217 122.985 40.5839V46.216H120.734V41.234C120.734 40.9755 120.719 40.6935 120.679 40.4115C120.64 40.1217 120.562 39.8632 120.436 39.636C120.311 39.4089 120.138 39.213 119.919 39.0642C119.699 38.9154 119.409 38.837 119.048 38.837C118.688 38.837 118.374 38.9075 118.115 39.0564C117.857 39.1974 117.637 39.3854 117.465 39.6047C117.292 39.8319 117.167 40.0904 117.08 40.3802C116.994 40.67 116.947 40.9677 116.947 41.2732V46.216H114.697V37.2234H114.705Z" fill="white"/>
<path d="M124.709 32.0605H126.96V41.0062H127.015L130.425 37.2227H133.311L129.414 41.2882L133.554 46.2154H130.574L127.015 41.6094H126.96V46.2154H124.709V32.0605Z" fill="white"/>
<path d="M18.4416 29.9078C13.8861 24.9102 18.7866 15.9332 19.4061 11.0217C19.806 6.94052 18.2064 4.07352 15.219 2.33452C9.46381 -0.571651 2.82256 1.37885 0.987783 8.00585C-0.0315349 12.2515 2.59517 15.9645 4.61812 17.7975C8.20142 21.0327 15.7287 27.3307 18.4416 29.9078Z" fill="#FC1921"/>
<path d="M21.1152 11.186C21.1152 11.2017 21.1152 11.2174 21.1074 11.233C20.9192 12.7057 20.4095 14.4212 19.8763 16.2307C18.5434 20.727 17.0379 25.8187 19.7117 28.7484C19.8371 28.8894 19.9391 29.0069 20.041 29.1244C24.032 25.3095 33.6842 16.0505 35.0407 12.408C37.9261 4.65302 26.8312 -2.35781 19.743 4.33185C20.9035 6.24319 21.374 8.54619 21.1152 11.186Z" fill="#E30513"/>
</svg>
