<?xml version="1.0" encoding="utf-8"?>
<!-- Generator: Adobe Illustrator 27.0.1, SVG Export Plug-In . SVG Version: 6.00 Build 0)  -->
<svg version="1.1" id="Layer_1" xmlns="http://www.w3.org/2000/svg" xmlns:xlink="http://www.w3.org/1999/xlink" x="0px" y="0px"
	 width="192" height="60" viewBox="0 0 192 60" style="enable-background:new 0 0 191.14 37.7;" xml:space="preserve">
<style type="text/css">
	.st0{fill:#EF373E;}
	.st1{fill:#FFFFFF;}
</style>
<g>
	<path class="st0" d="M35.35,28.81l-0.44-0.84L23.5,8.73l-4.31,7.18l6.52,10.92l0.26,0.57c1.15,1.64,0.42,2.75-1.31,2.56l-6.41,0
		l-0.43-0.04l-6.41,0c-1.54,0.19-2.08-1.13-1.32-2.56l0.26-0.59L23.19,5.06c0.45-0.03,0.77-0.13,0.85-0.24
		c0.22-0.35-1.28-1.32-3.22-2.52c-1.94-1.2-3.78-2.18-4-1.82c-0.07,0.12,0,0.43,0.18,0.82L1.06,28.22L0.77,28.8
		C0.13,29.92,0,30.39,0,31.66c0,2.54,2.06,4.61,4.61,4.61l13.42,0.01l13.42,0.02c2.55,0,4.61-2.04,4.61-4.58
		C36,30.42,35.85,29.88,35.35,28.81z"/>
	<path class="st0" d="M14,25.06c0,2.32,1.5,4,3.81,4c2.32,0,4-1.4,4-3.71c0-0.73-0.19-1.42-0.52-2.04l-0.42-0.73l-2.97-4.99
		l-3.25,5.21C14.25,23.45,14,24.22,14,25.06z"/>
</g>
<g>
	<path class="st1" d="M44.31,0h3.84l7.57,12.19h0.05V0h2.9v16.28h-3.68L47.25,3.7h-0.05v12.58h-2.9V0z"/>
	<path class="st1" d="M72.07,10.9c0,0.12,0,0.25,0,0.37c0,0.12-0.01,0.25-0.02,0.37h-8.4c0.03,0.4,0.13,0.76,0.31,1.09
		c0.18,0.33,0.41,0.61,0.7,0.85c0.29,0.24,0.62,0.43,0.99,0.56c0.37,0.14,0.75,0.21,1.15,0.21c0.69,0,1.27-0.13,1.75-0.38
		c0.48-0.25,0.87-0.6,1.17-1.05l1.84,1.47c-1.09,1.47-2.67,2.21-4.74,2.21c-0.86,0-1.65-0.13-2.37-0.4
		c-0.72-0.27-1.35-0.65-1.87-1.14c-0.53-0.49-0.94-1.09-1.24-1.81s-0.45-1.52-0.45-2.43c0-0.89,0.15-1.7,0.45-2.43
		c0.3-0.73,0.71-1.35,1.23-1.86c0.52-0.51,1.14-0.91,1.85-1.2s1.48-0.43,2.31-0.43c0.77,0,1.48,0.13,2.13,0.38
		c0.65,0.25,1.22,0.63,1.69,1.13c0.48,0.5,0.85,1.12,1.12,1.86C71.94,9.04,72.07,9.91,72.07,10.9z M69.31,9.66
		c0-0.35-0.05-0.69-0.15-1.01c-0.1-0.32-0.26-0.61-0.47-0.85c-0.21-0.25-0.49-0.44-0.82-0.59c-0.33-0.15-0.72-0.22-1.16-0.22
		c-0.83,0-1.53,0.25-2.1,0.75c-0.58,0.5-0.89,1.14-0.95,1.92H69.31z"/>
	<path class="st1" d="M72.3,5.24h2.99l2.3,7.91h0.05L80,5.24h2.94l2.39,7.91h0.05l2.35-7.91h2.88l-3.82,11.04h-2.81l-2.51-7.73
		h-0.05l-2.48,7.73h-2.81L72.3,5.24z"/>
	<path class="st1" d="M104.22,11.02c0,0.6-0.07,1.23-0.2,1.89c-0.13,0.66-0.37,1.27-0.72,1.84c-0.35,0.57-0.85,1.04-1.5,1.4
		c-0.64,0.37-1.47,0.55-2.48,0.55c-1.32,0-2.37-0.33-3.16-0.99c-0.79-0.66-1.33-1.53-1.62-2.6l2.67-0.76
		c0.14,0.54,0.39,0.96,0.76,1.28c0.37,0.31,0.81,0.47,1.31,0.47c0.41,0,0.75-0.08,1.02-0.23c0.27-0.15,0.48-0.37,0.62-0.66
		c0.15-0.28,0.25-0.62,0.31-1.01c0.06-0.39,0.09-0.82,0.09-1.28V0h2.9V11.02z"/>
	<path class="st1" d="M117.49,10.9c0,0.12,0,0.25,0,0.37c0,0.12-0.01,0.25-0.02,0.37h-8.4c0.03,0.4,0.13,0.76,0.31,1.09
		c0.18,0.33,0.41,0.61,0.7,0.85c0.29,0.24,0.62,0.43,0.99,0.56c0.37,0.14,0.75,0.21,1.15,0.21c0.69,0,1.27-0.13,1.75-0.38
		c0.48-0.25,0.87-0.6,1.17-1.05l1.84,1.47c-1.09,1.47-2.67,2.21-4.74,2.21c-0.86,0-1.65-0.13-2.37-0.4
		c-0.72-0.27-1.35-0.65-1.87-1.14c-0.53-0.49-0.94-1.09-1.24-1.81s-0.45-1.52-0.45-2.43c0-0.89,0.15-1.7,0.45-2.43
		c0.3-0.73,0.71-1.35,1.23-1.86c0.52-0.51,1.14-0.91,1.85-1.2s1.48-0.43,2.31-0.43c0.77,0,1.48,0.13,2.13,0.38
		c0.65,0.25,1.22,0.63,1.69,1.13c0.48,0.5,0.85,1.12,1.12,1.86C117.36,9.04,117.49,9.91,117.49,10.9z M114.73,9.66
		c0-0.35-0.05-0.69-0.15-1.01c-0.1-0.32-0.26-0.61-0.47-0.85c-0.21-0.25-0.49-0.44-0.82-0.59c-0.33-0.15-0.72-0.22-1.16-0.22
		c-0.83,0-1.53,0.25-2.1,0.75c-0.58,0.5-0.89,1.14-0.95,1.92H114.73z"/>
	<path class="st1" d="M119.29,5.24h2.65v1.84h0.05c0.31-0.64,0.74-1.17,1.29-1.56c0.55-0.4,1.2-0.6,1.93-0.6
		c0.11,0,0.22,0,0.35,0.01c0.12,0.01,0.23,0.03,0.32,0.06v2.53c-0.18-0.05-0.34-0.08-0.47-0.09c-0.13-0.02-0.26-0.02-0.38-0.02
		c-0.63,0-1.13,0.11-1.52,0.34c-0.38,0.23-0.68,0.51-0.9,0.83c-0.21,0.32-0.36,0.65-0.44,0.99s-0.11,0.61-0.11,0.8v5.91h-2.76V5.24z
		"/>
	<path class="st1" d="M133.94,8.19c-0.25-0.32-0.58-0.6-1.01-0.84c-0.43-0.24-0.9-0.36-1.4-0.36c-0.44,0-0.85,0.09-1.22,0.28
		c-0.37,0.18-0.55,0.49-0.55,0.92c0,0.43,0.2,0.73,0.61,0.91s1,0.36,1.78,0.54c0.41,0.09,0.83,0.21,1.25,0.37
		c0.42,0.15,0.81,0.36,1.15,0.61c0.35,0.25,0.62,0.57,0.84,0.94c0.21,0.38,0.32,0.83,0.32,1.37c0,0.67-0.13,1.25-0.38,1.71
		c-0.25,0.47-0.59,0.85-1.01,1.14c-0.42,0.29-0.91,0.5-1.47,0.63c-0.56,0.13-1.14,0.2-1.74,0.2c-0.86,0-1.69-0.16-2.51-0.47
		c-0.81-0.31-1.49-0.76-2.02-1.35l1.82-1.7c0.31,0.4,0.71,0.73,1.2,0.99s1.04,0.39,1.63,0.39c0.2,0,0.4-0.02,0.61-0.07
		c0.21-0.05,0.4-0.12,0.57-0.22c0.18-0.1,0.32-0.23,0.43-0.4c0.11-0.17,0.16-0.38,0.16-0.62c0-0.46-0.21-0.79-0.63-0.99
		c-0.42-0.2-1.05-0.4-1.9-0.6c-0.41-0.09-0.82-0.21-1.21-0.36c-0.39-0.15-0.74-0.34-1.05-0.58c-0.31-0.24-0.55-0.53-0.74-0.89
		c-0.18-0.35-0.28-0.79-0.28-1.31c0-0.61,0.13-1.14,0.38-1.59c0.25-0.44,0.59-0.81,1-1.09c0.41-0.28,0.88-0.49,1.4-0.63
		c0.52-0.14,1.06-0.21,1.61-0.21c0.8,0,1.58,0.14,2.33,0.41c0.76,0.28,1.36,0.7,1.81,1.27L133.94,8.19z"/>
	<path class="st1" d="M147.76,10.9c0,0.12,0,0.25,0,0.37c0,0.12-0.01,0.25-0.02,0.37h-8.4c0.03,0.4,0.13,0.76,0.31,1.09
		c0.18,0.33,0.41,0.61,0.7,0.85c0.29,0.24,0.62,0.43,0.99,0.56c0.37,0.14,0.75,0.21,1.15,0.21c0.69,0,1.27-0.13,1.75-0.38
		c0.48-0.25,0.87-0.6,1.17-1.05l1.84,1.47c-1.09,1.47-2.67,2.21-4.74,2.21c-0.86,0-1.65-0.13-2.37-0.4
		c-0.72-0.27-1.35-0.65-1.87-1.14c-0.53-0.49-0.94-1.09-1.24-1.81s-0.45-1.52-0.45-2.43c0-0.89,0.15-1.7,0.45-2.43
		c0.3-0.73,0.71-1.35,1.23-1.86c0.52-0.51,1.14-0.91,1.85-1.2s1.48-0.43,2.31-0.43c0.77,0,1.48,0.13,2.13,0.38
		c0.65,0.25,1.22,0.63,1.69,1.13c0.48,0.5,0.85,1.12,1.12,1.86C147.63,9.04,147.76,9.91,147.76,10.9z M145,9.66
		c0-0.35-0.05-0.69-0.15-1.01c-0.1-0.32-0.26-0.61-0.47-0.85c-0.21-0.25-0.49-0.44-0.82-0.59c-0.33-0.15-0.72-0.22-1.16-0.22
		c-0.83,0-1.53,0.25-2.1,0.75c-0.58,0.5-0.89,1.14-0.95,1.92H145z"/>
	<path class="st1" d="M147.9,5.24h3.06l3.08,8.03h0.05l2.74-8.03h2.88l-5.22,13.41c-0.2,0.51-0.41,0.95-0.64,1.35
		c-0.23,0.39-0.51,0.72-0.83,0.99c-0.32,0.27-0.7,0.47-1.14,0.61s-0.96,0.21-1.58,0.21c-0.23,0-0.46-0.01-0.7-0.03
		s-0.48-0.07-0.72-0.13l0.23-2.39c0.18,0.06,0.36,0.1,0.54,0.13c0.18,0.02,0.34,0.03,0.49,0.03c0.29,0,0.54-0.03,0.74-0.1
		s0.37-0.18,0.51-0.32c0.14-0.15,0.26-0.33,0.37-0.54c0.11-0.21,0.22-0.47,0.35-0.76l0.55-1.4L147.9,5.24z"/>
	<path class="st1" d="M44.31,20.01h6.35c0.61,0,1.22,0.07,1.82,0.22c0.6,0.15,1.13,0.38,1.6,0.71c0.47,0.33,0.85,0.76,1.14,1.28
		c0.29,0.52,0.44,1.15,0.44,1.89c0,0.92-0.26,1.68-0.78,2.28c-0.52,0.6-1.2,1.03-2.05,1.29v0.05c1.03,0.14,1.87,0.54,2.53,1.2
		c0.66,0.66,0.99,1.54,0.99,2.65c0,0.89-0.18,1.64-0.53,2.24c-0.35,0.61-0.82,1.09-1.39,1.46c-0.57,0.37-1.23,0.63-1.98,0.79
		c-0.74,0.16-1.5,0.24-2.27,0.24h-5.87V20.01z M47.21,26.63h2.58c0.97,0,1.7-0.19,2.21-0.57s0.76-0.93,0.76-1.63
		c0-0.74-0.26-1.26-0.78-1.56c-0.52-0.31-1.33-0.46-2.44-0.46h-2.32V26.63z M47.21,33.85h2.6c0.37,0,0.77-0.03,1.2-0.08
		c0.43-0.05,0.82-0.16,1.18-0.33c0.36-0.17,0.66-0.41,0.9-0.74c0.24-0.32,0.36-0.75,0.36-1.29c0-0.86-0.29-1.46-0.87-1.79
		c-0.58-0.34-1.46-0.51-2.65-0.51h-2.71V33.85z"/>
	<path class="st1" d="M58.52,18.9h2.76v17.39h-2.76V18.9z"/>
	<path class="st1" d="M63.42,30.72c0-0.87,0.16-1.67,0.47-2.38c0.31-0.71,0.74-1.32,1.28-1.83s1.17-0.9,1.91-1.17
		c0.74-0.28,1.52-0.41,2.35-0.41c0.83,0,1.61,0.14,2.35,0.41c0.74,0.28,1.37,0.67,1.91,1.17c0.54,0.51,0.96,1.12,1.28,1.83
		c0.31,0.71,0.47,1.51,0.47,2.38s-0.16,1.67-0.47,2.39c-0.31,0.72-0.74,1.34-1.28,1.85c-0.54,0.51-1.17,0.92-1.91,1.21
		c-0.74,0.29-1.52,0.44-2.35,0.44c-0.83,0-1.61-0.15-2.35-0.44c-0.74-0.29-1.37-0.69-1.91-1.21s-0.96-1.13-1.28-1.85
		C63.58,32.4,63.42,31.6,63.42,30.72z M66.23,30.72c0,0.43,0.06,0.86,0.2,1.29c0.13,0.43,0.33,0.81,0.59,1.15
		c0.26,0.34,0.59,0.61,0.99,0.83c0.4,0.21,0.87,0.32,1.43,0.32c0.55,0,1.03-0.11,1.43-0.32c0.4-0.21,0.73-0.49,0.99-0.83
		c0.26-0.34,0.46-0.72,0.59-1.15c0.13-0.43,0.2-0.86,0.2-1.29s-0.07-0.85-0.2-1.28c-0.13-0.42-0.33-0.8-0.59-1.14
		c-0.26-0.34-0.59-0.61-0.99-0.82c-0.4-0.21-0.87-0.31-1.43-0.31c-0.55,0-1.03,0.1-1.43,0.31c-0.4,0.21-0.73,0.48-0.99,0.82
		c-0.26,0.34-0.46,0.72-0.59,1.14C66.29,29.87,66.23,30.3,66.23,30.72z"/>
	<path class="st1" d="M76.88,30.72c0-0.87,0.16-1.67,0.47-2.38c0.31-0.71,0.74-1.32,1.28-1.83s1.17-0.9,1.91-1.17
		c0.74-0.28,1.52-0.41,2.35-0.41c0.83,0,1.61,0.14,2.35,0.41c0.74,0.28,1.37,0.67,1.91,1.17c0.54,0.51,0.96,1.12,1.28,1.83
		c0.31,0.71,0.47,1.51,0.47,2.38s-0.16,1.67-0.47,2.39c-0.31,0.72-0.74,1.34-1.28,1.85c-0.54,0.51-1.17,0.92-1.91,1.21
		c-0.74,0.29-1.52,0.44-2.35,0.44c-0.83,0-1.61-0.15-2.35-0.44c-0.74-0.29-1.37-0.69-1.91-1.21s-0.96-1.13-1.28-1.85
		C77.03,32.4,76.88,31.6,76.88,30.72z M79.68,30.72c0,0.43,0.06,0.86,0.2,1.29c0.13,0.43,0.33,0.81,0.59,1.15
		c0.26,0.34,0.59,0.61,0.99,0.83c0.4,0.21,0.87,0.32,1.43,0.32c0.55,0,1.03-0.11,1.43-0.32c0.4-0.21,0.73-0.49,0.99-0.83
		c0.26-0.34,0.46-0.72,0.59-1.15c0.13-0.43,0.2-0.86,0.2-1.29s-0.07-0.85-0.2-1.28c-0.13-0.42-0.33-0.8-0.59-1.14
		c-0.26-0.34-0.59-0.61-0.99-0.82c-0.4-0.21-0.87-0.31-1.43-0.31c-0.55,0-1.03,0.1-1.43,0.31c-0.4,0.21-0.73,0.48-0.99,0.82
		c-0.26,0.34-0.46,0.72-0.59,1.14C79.75,29.87,79.68,30.3,79.68,30.72z"/>
	<path class="st1" d="M102.2,36.29h-2.62v-1.66h-0.05c-0.38,0.64-0.92,1.13-1.6,1.47c-0.68,0.34-1.41,0.51-2.2,0.51
		c-0.84,0-1.6-0.16-2.27-0.47s-1.23-0.74-1.7-1.27c-0.47-0.53-0.83-1.15-1.08-1.86c-0.25-0.71-0.38-1.48-0.38-2.29
		c0-0.81,0.13-1.57,0.39-2.28s0.63-1.32,1.1-1.84c0.48-0.52,1.04-0.93,1.7-1.23c0.66-0.3,1.38-0.45,2.16-0.45
		c0.51,0,0.96,0.06,1.36,0.17c0.4,0.11,0.75,0.26,1.05,0.43c0.3,0.17,0.56,0.35,0.77,0.55c0.21,0.2,0.39,0.39,0.53,0.57h0.07V18.9
		h2.76V36.29z M93.11,30.72c0,0.43,0.06,0.86,0.2,1.29c0.13,0.43,0.33,0.81,0.59,1.15c0.26,0.34,0.59,0.61,0.99,0.83
		c0.4,0.21,0.87,0.32,1.4,0.32c0.51,0,0.96-0.1,1.36-0.31c0.4-0.21,0.74-0.48,1.02-0.82c0.28-0.34,0.5-0.72,0.64-1.14
		c0.15-0.42,0.22-0.85,0.22-1.28c0-0.43-0.07-0.86-0.22-1.29c-0.15-0.43-0.36-0.81-0.64-1.15c-0.28-0.34-0.62-0.61-1.02-0.83
		c-0.4-0.21-0.85-0.32-1.36-0.32c-0.54,0-1,0.1-1.4,0.31c-0.4,0.21-0.73,0.48-0.99,0.82c-0.26,0.34-0.46,0.72-0.59,1.14
		C93.18,29.87,93.11,30.3,93.11,30.72z"/>
	<path class="st1" d="M118.6,23.41c-0.31-0.4-0.74-0.73-1.3-1c-0.56-0.27-1.12-0.4-1.69-0.4c-0.34,0-0.67,0.04-1.01,0.13
		c-0.34,0.08-0.64,0.22-0.92,0.39c-0.28,0.18-0.5,0.41-0.68,0.69c-0.18,0.28-0.26,0.62-0.26,1.02c0,0.37,0.08,0.68,0.23,0.94
		s0.36,0.48,0.63,0.67c0.27,0.18,0.59,0.34,0.98,0.48s0.81,0.28,1.27,0.41c0.52,0.17,1.06,0.36,1.62,0.57
		c0.56,0.22,1.07,0.5,1.54,0.85c0.47,0.35,0.85,0.8,1.15,1.33c0.3,0.54,0.45,1.2,0.45,2c0,0.87-0.16,1.64-0.48,2.29
		c-0.32,0.65-0.75,1.19-1.29,1.62c-0.54,0.43-1.17,0.75-1.89,0.97c-0.72,0.21-1.48,0.32-2.28,0.32c-1.06,0-2.09-0.2-3.1-0.59
		c-1.01-0.39-1.84-0.97-2.48-1.74l2.07-1.93c0.4,0.55,0.93,0.99,1.6,1.31c0.67,0.32,1.32,0.48,1.97,0.48c0.34,0,0.68-0.04,1.04-0.13
		c0.35-0.08,0.67-0.23,0.95-0.43c0.28-0.2,0.51-0.45,0.69-0.75c0.18-0.3,0.26-0.67,0.26-1.12c0-0.43-0.1-0.79-0.3-1.07
		c-0.2-0.28-0.47-0.53-0.81-0.74s-0.74-0.39-1.2-0.54c-0.46-0.15-0.94-0.31-1.45-0.48c-0.49-0.15-0.98-0.34-1.47-0.55
		c-0.49-0.21-0.93-0.5-1.32-0.85c-0.39-0.35-0.71-0.79-0.95-1.3c-0.25-0.51-0.37-1.15-0.37-1.92c0-0.83,0.17-1.54,0.52-2.14
		c0.34-0.6,0.8-1.09,1.36-1.48c0.56-0.39,1.2-0.68,1.91-0.87c0.71-0.19,1.44-0.29,2.17-0.29c0.83,0,1.67,0.15,2.52,0.44
		c0.85,0.29,1.59,0.73,2.22,1.31L118.6,23.41z"/>
	<path class="st1" d="M133.02,30.91c0,0.12,0,0.25,0,0.37c0,0.12-0.01,0.25-0.02,0.37h-8.4c0.03,0.4,0.13,0.76,0.31,1.09
		c0.18,0.33,0.41,0.61,0.7,0.85c0.29,0.24,0.62,0.43,0.99,0.56c0.37,0.14,0.75,0.21,1.15,0.21c0.69,0,1.27-0.13,1.75-0.38
		c0.48-0.25,0.87-0.6,1.17-1.05l1.84,1.47c-1.09,1.47-2.67,2.21-4.74,2.21c-0.86,0-1.65-0.13-2.37-0.4
		c-0.72-0.27-1.35-0.65-1.87-1.14c-0.53-0.49-0.94-1.09-1.24-1.81s-0.45-1.52-0.45-2.43c0-0.89,0.15-1.7,0.45-2.43
		c0.3-0.73,0.71-1.35,1.23-1.86c0.52-0.51,1.14-0.91,1.85-1.2s1.48-0.43,2.31-0.43c0.77,0,1.48,0.13,2.13,0.38
		c0.65,0.25,1.22,0.63,1.69,1.13c0.48,0.5,0.85,1.12,1.12,1.86C132.88,29.04,133.02,29.91,133.02,30.91z M130.26,29.67
		c0-0.35-0.05-0.69-0.15-1.01c-0.1-0.32-0.26-0.61-0.47-0.85c-0.21-0.25-0.49-0.44-0.82-0.59c-0.33-0.15-0.72-0.22-1.16-0.22
		c-0.83,0-1.53,0.25-2.1,0.75c-0.58,0.5-0.89,1.14-0.95,1.92H130.26z"/>
	<path class="st1" d="M134.81,25.25h2.65v1.84h0.05c0.31-0.64,0.74-1.17,1.29-1.56c0.55-0.4,1.2-0.6,1.93-0.6
		c0.11,0,0.22,0,0.35,0.01c0.12,0.01,0.23,0.03,0.32,0.06v2.53c-0.18-0.05-0.34-0.08-0.47-0.09c-0.13-0.02-0.26-0.02-0.38-0.02
		c-0.63,0-1.13,0.11-1.52,0.34c-0.38,0.23-0.68,0.51-0.9,0.83c-0.21,0.32-0.36,0.65-0.44,0.99s-0.11,0.61-0.11,0.8v5.91h-2.76V25.25
		z"/>
	<path class="st1" d="M142.1,25.25h3.01l2.9,8.05h0.05l2.92-8.05h2.92l-4.39,11.04h-2.94L142.1,25.25z"/>
	<path class="st1" d="M154.98,21.5c0-0.44,0.16-0.83,0.49-1.16c0.33-0.33,0.75-0.49,1.25-0.49s0.93,0.16,1.28,0.47
		c0.35,0.31,0.52,0.71,0.52,1.18c0,0.48-0.17,0.87-0.52,1.18c-0.34,0.31-0.77,0.47-1.28,0.47s-0.92-0.16-1.25-0.49
		C155.15,22.33,154.98,21.95,154.98,21.5z M155.37,25.25h2.76v11.04h-2.76V25.25z"/>
	<path class="st1" d="M168.16,28.31c-0.22-0.31-0.54-0.56-0.97-0.77s-0.87-0.31-1.31-0.31c-0.51,0-0.95,0.1-1.33,0.31
		s-0.7,0.48-0.95,0.82c-0.25,0.34-0.44,0.72-0.56,1.14s-0.18,0.85-0.18,1.28c0,0.43,0.06,0.85,0.2,1.28
		c0.13,0.42,0.33,0.8,0.59,1.14c0.26,0.34,0.59,0.61,0.98,0.82s0.85,0.31,1.37,0.31c0.43,0,0.86-0.08,1.29-0.25
		c0.43-0.17,0.77-0.41,1.03-0.74l1.73,1.75c-0.46,0.49-1.05,0.87-1.76,1.14c-0.71,0.27-1.48,0.4-2.31,0.4
		c-0.81,0-1.58-0.13-2.31-0.39c-0.73-0.26-1.37-0.64-1.91-1.15c-0.54-0.51-0.97-1.12-1.29-1.84c-0.31-0.72-0.47-1.54-0.47-2.46
		c0-0.89,0.16-1.69,0.47-2.42c0.31-0.72,0.74-1.33,1.28-1.84s1.16-0.9,1.87-1.17c0.71-0.28,1.48-0.41,2.29-0.41
		c0.81,0,1.6,0.15,2.36,0.46c0.76,0.31,1.36,0.73,1.81,1.26L168.16,28.31z"/>
	<path class="st1" d="M181.5,30.91c0,0.12,0,0.25,0,0.37c0,0.12-0.01,0.25-0.02,0.37h-8.4c0.03,0.4,0.13,0.76,0.31,1.09
		c0.18,0.33,0.41,0.61,0.7,0.85c0.29,0.24,0.62,0.43,0.99,0.56c0.37,0.14,0.75,0.21,1.15,0.21c0.69,0,1.27-0.13,1.75-0.38
		c0.48-0.25,0.87-0.6,1.17-1.05L181,34.4c-1.09,1.47-2.67,2.21-4.74,2.21c-0.86,0-1.65-0.13-2.37-0.4
		c-0.72-0.27-1.35-0.65-1.87-1.14c-0.53-0.49-0.94-1.09-1.24-1.81s-0.45-1.52-0.45-2.43c0-0.89,0.15-1.7,0.45-2.43
		c0.3-0.73,0.71-1.35,1.23-1.86c0.52-0.51,1.14-0.91,1.85-1.2s1.48-0.43,2.31-0.43c0.77,0,1.48,0.13,2.13,0.38
		c0.65,0.25,1.22,0.63,1.69,1.13c0.48,0.5,0.85,1.12,1.12,1.86C181.37,29.04,181.5,29.91,181.5,30.91z M178.74,29.67
		c0-0.35-0.05-0.69-0.15-1.01c-0.1-0.32-0.26-0.61-0.47-0.85c-0.21-0.25-0.49-0.44-0.82-0.59c-0.33-0.15-0.72-0.22-1.16-0.22
		c-0.83,0-1.53,0.25-2.1,0.75c-0.58,0.5-0.89,1.14-0.95,1.92H178.74z"/>
	<path class="st1" d="M189.34,28.19c-0.25-0.32-0.58-0.6-1.01-0.84c-0.43-0.24-0.9-0.36-1.4-0.36c-0.44,0-0.85,0.09-1.22,0.28
		c-0.37,0.18-0.55,0.49-0.55,0.92c0,0.43,0.2,0.73,0.61,0.91s1,0.36,1.78,0.54c0.41,0.09,0.83,0.21,1.25,0.37
		c0.42,0.15,0.81,0.36,1.15,0.61c0.35,0.25,0.62,0.57,0.84,0.94c0.21,0.38,0.32,0.83,0.32,1.37c0,0.67-0.13,1.25-0.38,1.71
		c-0.25,0.47-0.59,0.85-1.01,1.14c-0.42,0.29-0.91,0.5-1.47,0.63c-0.56,0.13-1.14,0.2-1.74,0.2c-0.86,0-1.69-0.16-2.51-0.47
		c-0.81-0.31-1.49-0.76-2.02-1.35l1.82-1.7c0.31,0.4,0.71,0.73,1.2,0.99s1.04,0.39,1.63,0.39c0.2,0,0.4-0.02,0.61-0.07
		c0.21-0.05,0.4-0.12,0.57-0.22c0.18-0.1,0.32-0.23,0.43-0.4c0.11-0.17,0.16-0.38,0.16-0.62c0-0.46-0.21-0.79-0.63-0.99
		c-0.42-0.2-1.05-0.4-1.9-0.6c-0.41-0.09-0.82-0.21-1.21-0.36c-0.39-0.15-0.74-0.34-1.05-0.58c-0.31-0.24-0.55-0.53-0.74-0.89
		c-0.18-0.35-0.28-0.79-0.28-1.31c0-0.61,0.13-1.14,0.38-1.59c0.25-0.44,0.59-0.81,1-1.09c0.41-0.28,0.88-0.49,1.4-0.63
		c0.52-0.14,1.06-0.21,1.61-0.21c0.8,0,1.58,0.14,2.33,0.41c0.76,0.28,1.36,0.7,1.81,1.27L189.34,28.19z"/>
</g>
</svg>
