<?xml version="1.0" encoding="UTF-8" standalone="no"?>
<svg
   width="142"
   height="48"
   viewBox="0 0 142 48"
   fill="none"
   version="1.1"
   id="svg49"
   sodipodi:docname="nyblood.svg"
   inkscape:version="1.1.2 (b8e25be8, 2022-02-05)"
   xmlns:inkscape="http://www.inkscape.org/namespaces/inkscape"
   xmlns:sodipodi="http://sodipodi.sourceforge.net/DTD/sodipodi-0.dtd"
   xmlns="http://www.w3.org/2000/svg"
   xmlns:svg="http://www.w3.org/2000/svg">
  <sodipodi:namedview
     id="namedview51"
     pagecolor="#505050"
     bordercolor="#ffffff"
     borderopacity="1"
     inkscape:pageshadow="0"
     inkscape:pageopacity="0"
     inkscape:pagecheckerboard="1"
     showgrid="false"
     height="48px"
     inkscape:zoom="7.9366197"
     inkscape:cx="71"
     inkscape:cy="15.497782"
     inkscape:window-width="1296"
     inkscape:window-height="966"
     inkscape:window-x="0"
     inkscape:window-y="38"
     inkscape:window-maximized="0"
     inkscape:current-layer="svg49" />
  <g
     clip-path="url(#clip0_5527_5968)"
     id="g42">
    <path
       d="m 34.6875,0.896484 h 3.0688 L 43.7282,10.841 V 0.896484 h 2.2799 V 14.1857 H 43.1049 L 37.0147,3.92306 V 14.1857 h -2.2878 z"
       fill="#ffffff"
       id="path2" />
    <path
       d="m 56.95,9.79683 v 0.29367 c 0.0081,0.1004 0.0081,0.2014 0,0.3019 h -6.6345 c 0.0185,0.3111 0.102,0.6145 0.2445,0.8892 0.1363,0.27 0.3242,0.5087 0.5523,0.7015 0.2382,0.194 0.5044,0.3481 0.7888,0.4569 0.2896,0.1148 0.5972,0.1728 0.9073,0.1713 0.4752,0.0148 0.9466,-0.0917 1.3726,-0.31 0.3667,-0.1946 0.6852,-0.4737 0.9309,-0.8158 l 1.4516,1.1992 c -0.4315,0.5957 -0.9987,1.072 -1.651,1.3865 -0.6523,0.3145 -1.3697,0.4575 -2.0884,0.4164 -0.6371,0.0087 -1.2705,-0.1019 -1.8696,-0.3263 -0.5468,-0.2052 -1.0484,-0.5214 -1.4752,-0.93 -0.4287,-0.4122 -0.7652,-0.9161 -0.9862,-1.4766 -0.2386,-0.6285 -0.3565,-1.299 -0.3471,-1.97419 -0.0072,-0.67761 0.1106,-1.35042 0.3471,-1.98237 0.2197,-0.5691 0.55,-1.08555 0.9704,-1.51737 0.4188,-0.42722 0.9183,-0.76048 1.4673,-0.97894 0.5759,-0.24537 1.1916,-0.37548 1.8145,-0.38343 0.5715,-0.00811 1.1392,0.09712 1.6724,0.31001 0.5098,0.20331 0.9665,0.52743 1.3332,0.94631 0.3939,0.43631 0.695,0.95324 0.8836,1.51737 0.22,0.67796 0.3267,1.38972 0.3155,2.10474 z M 54.7727,8.77709 C 54.773,8.50056 54.7332,8.22556 54.6544,7.9613 54.5801,7.7054 54.4537,7.46894 54.2836,7.26788 54.1064,7.06199 53.8885,6.89785 53.6446,6.78656 53.359,6.66675 53.0535,6.60578 52.7453,6.60709 52.1402,6.59154 51.5506,6.80637 51.0886,7.21077 c -0.2289,0.19067 -0.4171,0.42826 -0.5529,0.69782 -0.1358,0.26956 -0.2161,0.56526 -0.236,0.8685 z"
       fill="#ffffff"
       id="path4" />
    <path
       d="m 57.731,5.17969 h 2.3666 l 1.8145,6.45291 1.8775,-6.45291 h 2.3667 l 1.8854,6.45291 1.8539,-6.45291 h 2.2641 l -3.0135,8.97371 h -2.201 L 64.9651,7.84732 63.0007,14.186 h -2.2404 z"
       fill="#ffffff"
       id="path6" />
    <path
       d="M 80.6874,8.42622 75.8594,0.896484 H 78.652 L 81.8865,6.4928 85.1446,0.896484 h 2.6507 l -4.828,7.529736 v 5.75948 h -2.2799 z"
       fill="#ffffff"
       id="path8" />
    <path
       d="M 86.47,9.64283 C 86.4612,8.97514 86.5903,8.3132 86.8487,7.70125 87.0803,7.12836 87.421,6.60954 87.8506,6.17572 c 0.4385,-0.41505 0.95,-0.73909 1.5068,-0.95447 1.1956,-0.44604 2.5043,-0.44604 3.6999,0 0.5596,0.20712 1.0719,0.53135 1.5049,0.95245 0.433,0.42109 0.7774,0.92999 1.0116,1.49492 0.4941,1.2468 0.4941,2.64448 0,3.89128 -0.2363,0.5815 -0.5822,1.1084 -1.0176,1.55 -0.4347,0.4262 -0.9469,0.7589 -1.5068,0.979 -1.1899,0.4785 -2.51,0.4785 -3.6999,0 -0.5576,-0.2249 -1.0689,-0.5571 -1.5068,-0.979 -0.4431,-0.4527 -0.7936,-0.9929 -1.0308,-1.5885 -0.2372,-0.5956 -0.3561,-1.2345 -0.3497,-1.87857 z m 2.2168,0 c -0.0017,0.35727 0.0516,0.71247 0.1578,1.05237 0.0961,0.3389 0.2511,0.6568 0.4576,0.9382 0.2135,0.2809 0.4824,0.5117 0.7888,0.6771 0.3515,0.172 0.7354,0.2613 1.1242,0.2613 0.3888,0 0.7728,-0.0893 1.1242,-0.2613 0.3064,-0.1654 0.5753,-0.3962 0.7889,-0.6771 0.2089,-0.281 0.3666,-0.5989 0.4654,-0.9382 C 93.6936,10.354 93.7441,9.99934 93.7436,9.64283 93.7447,9.29162 93.6941,8.94228 93.5937,8.60678 93.4965,8.26925 93.3386,7.95373 93.1283,7.67678 92.9166,7.39601 92.6471,7.1675 92.3394,7.00783 91.9865,6.84117 91.6031,6.75492 91.2152,6.75492 c -0.3879,0 -0.7713,0.08625 -1.1242,0.25291 -0.3077,0.15967 -0.5772,0.38818 -0.7888,0.66895 -0.2079,0.27738 -0.3632,0.59293 -0.4576,0.93 -0.1063,0.33429 -0.1595,0.68416 -0.1578,1.03605 z"
       fill="#ffffff"
       id="path10" />
    <path
       d="m 97.9561,5.17941 h 2.1219 v 1.50105 c 0.229,-0.50923 0.579,-0.94996 1.018,-1.28079 0.446,-0.32243 0.978,-0.49089 1.522,-0.48131 h 0.276 c 0.086,-6.8e-4 0.171,0.01309 0.253,0.04079 v 2.06394 l -0.371,-0.07342 h -0.3 c -0.416,-0.02111 -0.831,0.07473 -1.199,0.27737 -0.265,0.1584 -0.495,0.37226 -0.676,0.62791 -0.18,0.25566 -0.308,0.54749 -0.373,0.85683 -0.055,0.21603 -0.086,0.43761 -0.095,0.66079 v 4.82133 h -2.1769 z"
       fill="#ffffff"
       id="path12" />
    <path
       d="m 104.512,0 h 2.178 v 8.97368 h 0.047 l 3.305,-3.78526 h 2.793 l -3.771,4.07895 4.008,4.93553 h -2.888 l -3.447,-4.61737 h -0.047 v 4.61737 h -2.178 z"
       fill="#ffffff"
       id="path14" />
    <path
       d="m 34.6875,17.2129 h 5.0094 c 0.4837,0.0027 0.9655,0.0629 1.4358,0.1795 0.4523,0.1132 0.8803,0.3124 1.2622,0.5873 0.3653,0.2733 0.6671,0.6272 0.8836,1.0361 0.2456,0.4731 0.3654,1.0052 0.3471,1.5418 0.0262,0.6752 -0.1934,1.3359 -0.6153,1.8519 -0.4197,0.4973 -0.9666,0.862 -1.5778,1.0523 v 0.0408 c 0.751,0.0859 1.453,0.4274 1.9959,0.9708 0.2664,0.2862 0.4737,0.6254 0.6093,0.9971 0.1356,0.3716 0.1967,0.7679 0.1796,1.1648 0.0238,0.6371 -0.1208,1.2688 -0.4181,1.8273 -0.2651,0.4844 -0.6418,0.8936 -1.0966,1.1911 -0.4822,0.3168 -1.0173,0.5381 -1.5778,0.6526 -0.5859,0.1305 -1.1835,0.1961 -1.7829,0.1958 h -4.6544 z m 2.2799,5.4087 h 2.0353 c 0.6131,0.044 1.2232,-0.1223 1.7356,-0.4732 0.1941,-0.1484 0.3507,-0.343 0.4565,-0.5675 0.1058,-0.2244 0.1575,-0.4719 0.1509,-0.7214 0.0227,-0.2504 -0.023,-0.5024 -0.1318,-0.7273 -0.1087,-0.2249 -0.2762,-0.4139 -0.4835,-0.5454 -0.6001,-0.2932 -1.2628,-0.4224 -1.9249,-0.3752 h -1.8381 z m 0,5.89 h 2.0511 c 0.3165,-0.0031 0.6326,-0.0248 0.9467,-0.0653 0.3256,-0.0318 0.6448,-0.1143 0.9466,-0.2447 0.2812,-0.1376 0.5252,-0.345 0.71,-0.6037 0.1969,-0.312 0.2935,-0.6803 0.2761,-1.0524 0.0283,-0.2853 -0.021,-0.5731 -0.1422,-0.8311 -0.1212,-0.258 -0.3097,-0.4758 -0.5441,-0.6291 -0.6516,-0.3195 -1.3709,-0.4626 -2.0905,-0.4161 h -2.1537 z"
       fill="#ffffff"
       id="path16" />
    <path
       d="m 45.9053,16.3164 h 2.1773 V 30.503 h -2.1773 z"
       fill="#ffffff"
       id="path18" />
    <path
       d="m 49.7712,25.9576 c -0.0113,-0.6671 0.1151,-1.3291 0.3708,-1.9416 0.2385,-0.575 0.5874,-1.094 1.0255,-1.5255 0.4385,-0.4151 0.9501,-0.7391 1.5068,-0.9545 0.5931,-0.2276 1.2214,-0.3409 1.8539,-0.3345 0.63,-0.0073 1.2559,0.1061 1.846,0.3345 0.5596,0.2071 1.072,0.5313 1.505,0.9524 0.4329,0.4211 0.7773,0.93 1.0116,1.4949 0.494,1.2468 0.494,2.6446 0,3.8914 -0.2376,0.5691 -0.5807,1.0846 -1.0098,1.5173 -0.4347,0.4262 -0.9469,0.7589 -1.5068,0.979 -0.5876,0.2403 -1.2142,0.3621 -1.846,0.3589 -0.6343,0.0024 -1.2634,-0.1193 -1.8539,-0.3589 -0.5551,-0.2151 -1.0662,-0.5361 -1.5068,-0.9463 -0.4438,-0.4517 -0.7944,-0.992 -1.0303,-1.5879 -0.236,-0.596 -0.3524,-1.2353 -0.3423,-1.8792 z m 2.2089,0 c 0.0023,0.3569 0.0554,0.7115 0.1578,1.0523 0.0961,0.3389 0.2511,0.6568 0.4575,0.9382 0.2136,0.281 0.4825,0.5118 0.7889,0.6771 0.3494,0.1821 0.737,0.2718 1.1281,0.261 0.3885,0.0094 0.7732,-0.0802 1.1203,-0.261 0.3064,-0.1653 0.5753,-0.3961 0.7888,-0.6771 0.2089,-0.2809 0.3667,-0.5988 0.4655,-0.9382 0.1023,-0.3408 0.1555,-0.6954 0.1578,-1.0523 -0.0016,-0.3517 -0.0548,-0.701 -0.1578,-1.0361 -0.0972,-0.3375 -0.2551,-0.653 -0.4655,-0.93 -0.2117,-0.2808 -0.4811,-0.5093 -0.7888,-0.6689 -0.3478,-0.178 -0.7325,-0.2649 -1.1203,-0.2529 -0.3917,-0.0197 -0.7821,0.0616 -1.136,0.2365 -0.3077,0.1597 -0.5772,0.3882 -0.7889,0.669 -0.2086,0.2878 -0.3613,0.6147 -0.4496,0.9626 -0.1095,0.3286 -0.1706,0.6724 -0.1815,1.0198 z"
       fill="#ffffff"
       id="path20" />
    <path
       d="m 60.3815,25.9579 c -0.0076,-0.6668 0.1187,-1.3279 0.3708,-1.9416 0.2342,-0.5649 0.5786,-1.0739 1.0116,-1.4949 0.433,-0.4211 0.9453,-0.7454 1.5049,-0.9525 1.1956,-0.446 2.5043,-0.446 3.6999,0 0.5552,0.2038 1.0668,0.5168 1.5068,0.9218 0.4261,0.4243 0.7667,0.9317 1.0019,1.4929 0.377,0.9015 0.4831,1.8993 0.3044,2.8639 -0.1787,0.9646 -0.6338,1.8513 -1.3063,2.5448 -0.4403,0.4387 -0.9605,0.7826 -1.5304,1.0116 -1.1899,0.4785 -2.51,0.4785 -3.6999,0 -0.56,-0.22 -1.0721,-0.5528 -1.5068,-0.9789 -0.4292,-0.4328 -0.7722,-0.9483 -1.0098,-1.5174 -0.2431,-0.6186 -0.3612,-1.2822 -0.3471,-1.9497 z m 2.2168,0 c -5e-4,0.3565 0.05,0.7111 0.1499,1.0523 0.0988,0.3394 0.2565,0.6573 0.4654,0.9382 0.2136,0.281 0.4825,0.5118 0.7889,0.6771 0.347,0.1808 0.7318,0.2704 1.1202,0.261 0.3912,0.0108 0.7788,-0.0789 1.1281,-0.261 0.3064,-0.1653 0.5754,-0.3961 0.7889,-0.6771 0.2064,-0.2814 0.3615,-0.5993 0.4576,-0.9382 0.1023,-0.3408 0.1555,-0.6954 0.1578,-1.0523 -0.0016,-0.3517 -0.0548,-0.701 -0.1578,-1.0361 -0.0944,-0.3371 -0.2497,-0.6526 -0.4576,-0.93 -0.2117,-0.2808 -0.4811,-0.5093 -0.7889,-0.6689 -0.35,-0.1793 -0.7376,-0.2662 -1.1281,-0.2529 -0.3878,-0.012 -0.7725,0.0749 -1.1202,0.2529 -0.3077,0.1596 -0.5772,0.3881 -0.7889,0.6689 -0.2121,0.2818 -0.3701,0.6031 -0.4654,0.9463 -0.0989,0.3303 -0.1494,0.674 -0.1499,1.0198 z"
       fill="#ffffff"
       id="path22" />
    <path
       d="m 80.3561,30.503 h -2.0669 v -1.3542 c -0.2911,0.5217 -0.7285,0.9399 -1.2543,1.1992 -0.5393,0.2765 -1.1336,0.419 -1.7355,0.416 -0.5947,0.0183 -1.1858,-0.0994 -1.7313,-0.3448 -0.5455,-0.2454 -1.0319,-0.6123 -1.4243,-1.0746 -0.377,-0.4435 -0.6664,-0.959 -0.852,-1.5174 -0.2015,-0.6007 -0.3029,-1.2324 -0.2998,-1.8682 -0.0067,-0.6247 0.0921,-1.2459 0.2919,-1.8355 0.1958,-0.5539 0.4931,-1.0636 0.8757,-1.501 0.3752,-0.4267 0.8319,-0.7683 1.3411,-1.0035 0.5375,-0.2416 1.118,-0.3638 1.704,-0.3589 0.3622,-0.0079 0.7237,0.0388 1.0729,0.1387 0.2746,0.0829 0.5393,0.1979 0.7889,0.3426 0.2208,0.1282 0.4272,0.2814 0.6153,0.4568 0.1517,0.1402 0.2891,0.296 0.4102,0.465 h 0.0552 v -6.3468 h 2.2089 z M 73.193,25.959 c -5e-4,0.3566 0.05,0.7112 0.1499,1.0524 0.0988,0.3393 0.2565,0.6572 0.4655,0.9382 0.2135,0.2809 0.4824,0.5117 0.7888,0.6771 0.3423,0.1782 0.7213,0.2678 1.1045,0.261 0.3723,0.0082 0.7408,-0.0786 1.0729,-0.2529 0.3034,-0.1664 0.5716,-0.3939 0.7889,-0.6689 0.2278,-0.2725 0.402,-0.5884 0.5127,-0.93 0.109,-0.3339 0.1649,-0.6837 0.1657,-1.0361 -0.0011,-0.3576 -0.057,-0.7128 -0.1657,-1.0523 -0.1123,-0.3433 -0.2862,-0.6616 -0.5127,-0.9382 -0.2191,-0.2753 -0.4869,-0.5051 -0.7889,-0.6771 -0.3314,-0.1771 -0.6999,-0.2668 -1.0729,-0.2611 -0.3825,-0.0092 -0.7615,0.0776 -1.1045,0.2529 -0.3077,0.1597 -0.5772,0.3882 -0.7888,0.669 -0.2104,0.2769 -0.3683,0.5925 -0.4655,0.93 -0.1004,0.3355 -0.1509,0.6848 -0.1499,1.036 z"
       fill="#ffffff"
       id="path24" />
    <path
       d="m 96.7415,20.33 c -0.3359,-0.4722 -0.7959,-0.8346 -1.3253,-1.0442 -0.5433,-0.2239 -1.1239,-0.3348 -1.7087,-0.3264 -0.5848,0.0084 -1.1622,0.136 -1.6993,0.3753 -0.5297,0.2419 -1.0051,0.5947 -1.3963,1.0361 -0.4015,0.441 -0.7104,0.9632 -0.9072,1.5337 -0.2184,0.6137 -0.328,1.2631 -0.3235,1.9171 -0.0076,0.6768 0.0965,1.3499 0.3077,1.9905 0.1926,0.572 0.4929,1.0988 0.8835,1.55 0.3854,0.4292 0.8528,0.7709 1.3727,1.0034 0.5673,0.2428 1.1769,0.3622 1.7908,0.3508 0.6358,0.0129 1.2656,-0.1296 1.8381,-0.416 0.5061,-0.2652 0.9462,-0.6477 1.2859,-1.1177 l 1.8302,1.3298 c -0.5572,0.7294 -1.27,1.3158 -2.0827,1.7131 -0.9057,0.4258 -1.8926,0.6349 -2.8873,0.6119 -0.9461,0.0105 -1.8856,-0.1638 -2.769,-0.514 -0.8109,-0.3187 -1.5483,-0.8092 -2.1651,-1.44 -0.6168,-0.6308 -1.0993,-1.3879 -1.4165,-2.2229 -0.3463,-0.903 -0.5178,-1.8676 -0.5048,-2.8389 -0.0152,-0.9871 0.1646,-1.967 0.5285,-2.8798 0.341,-0.8259 0.8433,-1.5702 1.4752,-2.1863 0.6368,-0.6095 1.3852,-1.0811 2.201,-1.3868 0.8848,-0.3322 1.8199,-0.498 2.7611,-0.4895 0.4313,0.0021 0.8616,0.043 1.2859,0.1224 0.4403,0.0777 0.8713,0.2035 1.2859,0.3752 0.4101,0.165 0.8016,0.3757 1.1676,0.6282 0.3578,0.2417 0.6727,0.5452 0.9309,0.8974 z"
       fill="#ffffff"
       id="path26" />
    <path
       d="m 107.967,26.1136 v 0.2936 c 0,0.1061 0,0.204 0,0.3019 h -6.626 c 0.018,0.307 0.098,0.6068 0.234,0.8805 0.135,0.2737 0.324,0.5155 0.554,0.7103 0.239,0.1928 0.505,0.3469 0.789,0.4568 0.29,0.1141 0.598,0.1721 0.908,0.1713 0.477,0.0148 0.951,-0.0916 1.38,-0.31 0.367,-0.1946 0.685,-0.4737 0.931,-0.8158 l 1.444,1.1992 c -0.43,0.5962 -0.995,1.0729 -1.646,1.3875 -0.652,0.3147 -1.368,0.4574 -2.086,0.4154 -0.637,0.0087 -1.27,-0.1018 -1.869,-0.3263 -0.549,-0.2069 -1.053,-0.5229 -1.484,-0.93 -0.426,-0.4126 -0.7596,-0.9165 -0.9777,-1.4766 -0.2452,-0.6267 -0.3659,-1.2981 -0.355,-1.9742 -0.0086,-0.6784 0.112,-1.352 0.355,-1.9823 0.2196,-0.5691 0.5497,-1.0856 0.9707,-1.5174 0.416,-0.427 0.912,-0.7603 1.459,-0.9789 0.581,-0.231 1.2,-0.3472 1.822,-0.3427 0.575,-0.0089 1.145,0.0963 1.681,0.31 0.507,0.1925 0.966,0.5022 1.341,0.9055 0.394,0.4364 0.695,0.9533 0.883,1.5174 0.212,0.6794 0.311,1.3911 0.292,2.1048 z m -2.177,-1.0198 c 0,-0.2765 -0.04,-0.5515 -0.118,-0.8158 -0.078,-0.2545 -0.204,-0.4903 -0.371,-0.6934 -0.18,-0.2061 -0.401,-0.3701 -0.647,-0.4813 -0.291,-0.1206 -0.602,-0.1789 -0.915,-0.1713 -0.606,-0.0171 -1.196,0.1979 -1.657,0.6037 -0.228,0.191 -0.416,0.4286 -0.552,0.6981 -0.136,0.2695 -0.216,0.565 -0.237,0.8682 z"
       fill="#ffffff"
       id="path28" />
    <path
       d="m 109.64,21.4956 h 2.075 v 1.4439 c 0.224,-0.4856 0.573,-0.8978 1.01,-1.191 0.499,-0.3505 1.092,-0.5302 1.696,-0.514 0.503,-0.0186 1.003,0.0877 1.459,0.31 0.39,0.1899 0.732,0.4688 1.002,0.8158 0.262,0.3435 0.455,0.7372 0.568,1.1584 0.12,0.4408 0.181,0.8964 0.181,1.3542 v 5.629 h -2.177 v -4.9927 c 0,-0.2729 -0.018,-0.5455 -0.055,-0.8157 -0.032,-0.2842 -0.112,-0.5603 -0.237,-0.8158 -0.119,-0.2286 -0.29,-0.4244 -0.497,-0.5711 -0.254,-0.1577 -0.548,-0.2343 -0.844,-0.2203 -0.315,-0.012 -0.628,0.0611 -0.907,0.2122 -0.245,0.135 -0.458,0.3244 -0.623,0.5547 -0.171,0.2322 -0.3,0.4949 -0.379,0.775 -0.081,0.2918 -0.124,0.5937 -0.126,0.8974 v 4.9518 h -2.178 z"
       fill="#ffffff"
       id="path30" />
    <path
       d="m 118.862,23.3063 v -1.811 h 1.522 v -2.6105 h 2.138 v 2.6105 h 2.178 v 1.811 h -2.178 v 4.1769 c -0.013,0.3452 0.06,0.6881 0.213,0.9952 0.134,0.2693 0.45,0.3998 0.931,0.3998 0.159,-9e-4 0.318,-0.0173 0.474,-0.049 0.156,-0.0292 0.31,-0.0757 0.457,-0.1386 l 0.071,1.7621 c -0.226,0.0799 -0.458,0.14 -0.694,0.1794 -0.261,0.0426 -0.525,0.0645 -0.789,0.0653 -0.485,0.0158 -0.968,-0.0702 -1.42,-0.2529 -0.339,-0.1517 -0.635,-0.3903 -0.86,-0.6934 -0.215,-0.303 -0.363,-0.6511 -0.434,-1.0198 -0.081,-0.4024 -0.121,-0.8126 -0.118,-1.2236 v -4.2014 z"
       fill="#ffffff"
       id="path32" />
    <path
       d="m 134.498,26.1135 v 0.2936 c 0.008,0.1005 0.008,0.2014 0,0.3019 h -6.619 c 0.019,0.3112 0.102,0.6145 0.245,0.8892 0.136,0.2701 0.324,0.5088 0.552,0.7016 0.238,0.1939 0.504,0.3481 0.789,0.4568 0.289,0.1148 0.597,0.1729 0.907,0.1713 0.475,0.0148 0.947,-0.0917 1.373,-0.31 0.366,-0.1946 0.685,-0.4737 0.93,-0.8158 l 1.452,1.1993 c -0.432,0.5956 -0.999,1.0719 -1.651,1.3864 -0.652,0.3145 -1.37,0.4576 -2.088,0.4164 -0.638,0.0087 -1.271,-0.1018 -1.87,-0.3263 -0.547,-0.2052 -1.048,-0.5214 -1.475,-0.93 -0.429,-0.4121 -0.765,-0.916 -0.986,-1.4765 -0.239,-0.6285 -0.357,-1.2991 -0.347,-1.9743 -0.008,-0.6776 0.11,-1.3504 0.347,-1.9823 0.219,-0.5691 0.55,-1.0856 0.97,-1.5174 0.417,-0.4291 0.917,-0.7626 1.467,-0.9789 0.581,-0.2325 1.2,-0.3487 1.823,-0.3427 0.571,-0.0081 1.139,0.0971 1.672,0.31 0.498,0.1949 0.945,0.5046 1.31,0.9056 0.394,0.4363 0.695,0.9532 0.883,1.5173 0.22,0.678 0.327,1.3897 0.316,2.1048 z m -2.178,-1.0198 c 0.001,-0.2765 -0.039,-0.5515 -0.118,-0.8158 -0.074,-0.2559 -0.201,-0.4923 -0.371,-0.6934 -0.177,-0.2059 -0.395,-0.37 -0.639,-0.4813 -0.293,-0.1202 -0.607,-0.1784 -0.923,-0.1713 -0.605,-0.0156 -1.194,0.1993 -1.656,0.6037 -0.222,0.1944 -0.403,0.4336 -0.532,0.703 -0.129,0.2693 -0.203,0.5631 -0.218,0.8633 z"
       fill="#ffffff"
       id="path34" />
    <path
       d="m 136.517,21.4958 h 2.083 v 1.5011 c 0.224,-0.5095 0.572,-0.9506 1.009,-1.2808 0.449,-0.3226 0.985,-0.491 1.531,-0.4813 h 0.268 c 0.086,-7e-4 0.171,0.0131 0.253,0.0408 v 2.0639 l -0.371,-0.0734 h -0.3 c -0.414,-0.0213 -0.826,0.0746 -1.191,0.2774 -0.284,0.1662 -0.527,0.3979 -0.71,0.6771 -0.165,0.2467 -0.283,0.5235 -0.347,0.8157 -0.053,0.2162 -0.082,0.4379 -0.087,0.6608 v 4.8213 h -2.177 z"
       fill="#ffffff"
       id="path36" />
    <path
       d="m 14.1288,15.4258 2.3667,4.0789 0.3313,0.5956 c 0.2624,0.5015 0.4031,1.0614 0.4102,1.6315 0,1.8845 -1.3332,3.0266 -3.1555,3.0266 -0.4107,0.0115 -0.8191,-0.0663 -1.1988,-0.2283 -0.3797,-0.162 -0.7223,-0.4047 -1.0056,-0.7123 -0.2833,-0.3075 -0.5011,-0.6732 -0.6391,-1.0733 -0.138,-0.4001 -0.1933,-0.8257 -0.1622,-1.2492 -0.0043,-0.6515 0.1767,-1.2898 0.5207,-1.8356 z"
       fill="#fc1921"
       id="path38" />
    <path
       d="m 27.8791,24.587 -0.3786,-0.6934 -8.9618,-15.69583 -3.4001,5.85733 5.1435,8.9085 0.2051,0.465 c 0.9073,1.3379 0.3235,2.2434 -1.0334,2.0884 H 14.3891 14.0499 8.99314 C 7.77825,25.6801 7.35225,24.6033 7.9518,23.4367 L 8.15691,22.9554 18.2941,5.21198 c 0.355,0 0.6075,-0.10605 0.6627,-0.20395 C 19.1304,4.7225 17.947,3.93935 16.4166,2.9604 14.8861,1.98145 13.4346,1.18198 13.261,1.47566 c -0.0552,0.08974 0,0.34263 0.142,0.66895 L 0.836025,24.122 0.607247,24.5951 c -0.353454,0.5825 -0.5540132,1.2501 -0.5819062,1.9372 -0.02789295,0.687 0.1178442,1.3697 0.4228422,1.9807 0.304999,0.611 0.758727,1.1293 1.316457,1.5038 0.55772,0.3744 1.20019,0.5921 1.86405,0.6315 H 14.2235 24.8104 c 0.4761,0.0021 0.9481,-0.0929 1.3887,-0.2796 0.4406,-0.1867 0.8413,-0.4614 1.1791,-0.8085 0.3378,-0.347 0.6061,-0.7596 0.7895,-1.214 0.1835,-0.4544 0.2784,-0.9418 0.2794,-1.4342 -0.0079,-0.8107 -0.2026,-1.6077 -0.568,-2.325 z"
       fill="#fc1921"
       id="path40" />
  </g>
  <defs
     id="defs47">
    <clipPath
       id="clip0_5527_5968">
      <rect
         width="141.70799"
         height="30.8368"
         fill="#ffffff"
         id="rect44"
         x="0"
         y="0" />
    </clipPath>
  </defs>
</svg>
