<svg width="142" height="31" viewBox="0 0 142 31" fill="none" xmlns="http://www.w3.org/2000/svg">
<g clip-path="url(#clip0_5527_5968)">
<path d="M34.6875 0.896484H37.7563L43.7282 10.841V0.896484H46.0081V14.1857H43.1049L37.0147 3.92306V14.1857H34.7269L34.6875 0.896484Z" fill="white"/>
<path d="M56.95 9.79683V10.0905C56.9581 10.1909 56.9581 10.2919 56.95 10.3924H50.3155C50.334 10.7035 50.4175 11.0069 50.56 11.2816C50.6963 11.5516 50.8842 11.7903 51.1123 11.9831C51.3505 12.1771 51.6167 12.3312 51.9011 12.44C52.1907 12.5548 52.4983 12.6128 52.8084 12.6113C53.2836 12.6261 53.755 12.5196 54.181 12.3013C54.5477 12.1067 54.8662 11.8276 55.1119 11.4855L56.5635 12.6847C56.132 13.2804 55.5648 13.7567 54.9125 14.0712C54.2602 14.3857 53.5428 14.5287 52.8241 14.4876C52.187 14.4963 51.5536 14.3857 50.9545 14.1613C50.4077 13.9561 49.9061 13.6399 49.4793 13.2313C49.0506 12.8191 48.7141 12.3152 48.4931 11.7547C48.2545 11.1262 48.1366 10.4557 48.146 9.78051C48.1388 9.1029 48.2566 8.43009 48.4931 7.79814C48.7128 7.22904 49.0431 6.71259 49.4635 6.28077C49.8823 5.85355 50.3818 5.52029 50.9308 5.30183C51.5067 5.05646 52.1224 4.92635 52.7453 4.9184C53.3168 4.91029 53.8845 5.01552 54.4177 5.22841C54.9275 5.43172 55.3842 5.75584 55.7509 6.17472C56.1448 6.61103 56.4459 7.12796 56.6345 7.69209C56.8545 8.37005 56.9612 9.08181 56.95 9.79683ZM54.7727 8.77709C54.773 8.50056 54.7332 8.22556 54.6544 7.9613C54.5801 7.7054 54.4537 7.46894 54.2836 7.26788C54.1064 7.06199 53.8885 6.89785 53.6446 6.78656C53.359 6.66675 53.0535 6.60578 52.7453 6.60709C52.1402 6.59154 51.5506 6.80637 51.0886 7.21077C50.8597 7.40144 50.6715 7.63903 50.5357 7.90859C50.3999 8.17815 50.3196 8.47385 50.2997 8.77709H54.7727Z" fill="white"/>
<path d="M57.731 5.17969H60.0976L61.9121 11.6326L63.7896 5.17969H66.1563L68.0417 11.6326L69.8956 5.17969H72.1597L69.1462 14.1534H66.9452L64.9651 7.84732L63.0007 14.186H60.7603L57.731 5.17969Z" fill="white"/>
<path d="M80.6874 8.42622L75.8594 0.896484H78.652L81.8865 6.4928L85.1446 0.896484H87.7953L82.9673 8.42622V14.1857H80.6874V8.42622Z" fill="white"/>
<path d="M86.47 9.64283C86.4612 8.97514 86.5903 8.3132 86.8487 7.70125C87.0803 7.12836 87.421 6.60954 87.8506 6.17572C88.2891 5.76067 88.8006 5.43663 89.3574 5.22125C90.553 4.77521 91.8617 4.77521 93.0573 5.22125C93.6169 5.42837 94.1292 5.7526 94.5622 6.1737C94.9952 6.59479 95.3396 7.10369 95.5738 7.66862C96.0679 8.91542 96.0679 10.3131 95.5738 11.5599C95.3375 12.1414 94.9916 12.6683 94.5562 13.1099C94.1215 13.5361 93.6093 13.8688 93.0494 14.0889C91.8595 14.5674 90.5394 14.5674 89.3495 14.0889C88.7919 13.864 88.2806 13.5318 87.8427 13.1099C87.3996 12.6572 87.0491 12.117 86.8119 11.5214C86.5747 10.9258 86.4558 10.2869 86.4622 9.64283H86.47ZM88.6868 9.64283C88.6851 10.0001 88.7384 10.3553 88.8446 10.6952C88.9407 11.0341 89.0957 11.352 89.3022 11.6334C89.5157 11.9143 89.7846 12.1451 90.091 12.3105C90.4425 12.4825 90.8264 12.5718 91.2152 12.5718C91.604 12.5718 91.988 12.4825 92.3394 12.3105C92.6458 12.1451 92.9147 11.9143 93.1283 11.6334C93.3372 11.3524 93.4949 11.0345 93.5937 10.6952C93.6936 10.354 93.7441 9.99934 93.7436 9.64283C93.7447 9.29162 93.6941 8.94228 93.5937 8.60678C93.4965 8.26925 93.3386 7.95373 93.1283 7.67678C92.9166 7.39601 92.6471 7.1675 92.3394 7.00783C91.9865 6.84117 91.6031 6.75492 91.2152 6.75492C90.8273 6.75492 90.4439 6.84117 90.091 7.00783C89.7833 7.1675 89.5138 7.39601 89.3022 7.67678C89.0943 7.95416 88.939 8.26971 88.8446 8.60678C88.7383 8.94107 88.6851 9.29094 88.6868 9.64283Z" fill="white"/>
<path d="M97.9561 5.17941H100.078V6.68046C100.307 6.17123 100.657 5.7305 101.096 5.39967C101.542 5.07724 102.074 4.90878 102.618 4.91836H102.894C102.98 4.91768 103.065 4.93145 103.147 4.95915V7.02309L102.776 6.94967H102.476C102.06 6.92856 101.645 7.0244 101.277 7.22704C101.012 7.38544 100.782 7.5993 100.601 7.85495C100.421 8.11061 100.293 8.40244 100.228 8.71178C100.173 8.92781 100.142 9.14939 100.133 9.37257V14.1939H97.9561V5.17941Z" fill="white"/>
<path d="M104.512 0H106.69V8.97368H106.737L110.042 5.18842H112.835L109.064 9.26737L113.072 14.2029H110.184L106.737 9.58553H106.69V14.2029H104.512V0Z" fill="white"/>
<path d="M34.6875 17.2129H39.6969C40.1806 17.2156 40.6624 17.2758 41.1327 17.3924C41.585 17.5056 42.013 17.7048 42.3949 17.9797C42.7602 18.253 43.062 18.6069 43.2785 19.0158C43.5241 19.4889 43.6439 20.021 43.6256 20.5576C43.6518 21.2328 43.4322 21.8935 43.0103 22.4095C42.5906 22.9068 42.0437 23.2715 41.4325 23.4618V23.5026C42.1835 23.5885 42.8855 23.93 43.4284 24.4734C43.6948 24.7596 43.9021 25.0988 44.0377 25.4705C44.1733 25.8421 44.2344 26.2384 44.2173 26.6353C44.2411 27.2724 44.0965 27.9041 43.7992 28.4626C43.5341 28.947 43.1574 29.3562 42.7026 29.6537C42.2204 29.9705 41.6853 30.1918 41.1248 30.3063C40.5389 30.4368 39.9413 30.5024 39.3419 30.5021H34.6875V17.2129ZM36.9674 22.6216H39.0027C39.6158 22.6656 40.2259 22.4993 40.7383 22.1484C40.9324 22 41.089 21.8054 41.1948 21.5809C41.3006 21.3565 41.3523 21.109 41.3457 20.8595C41.3684 20.6091 41.3227 20.3571 41.2139 20.1322C41.1052 19.9073 40.9377 19.7183 40.7304 19.5868C40.1303 19.2936 39.4676 19.1644 38.8055 19.2116H36.9674V22.6216ZM36.9674 28.5116H39.0185C39.335 28.5085 39.6511 28.4868 39.9652 28.4463C40.2908 28.4145 40.61 28.332 40.9118 28.2016C41.193 28.064 41.437 27.8566 41.6218 27.5979C41.8187 27.2859 41.9153 26.9176 41.8979 26.5455C41.9262 26.2602 41.8769 25.9724 41.7557 25.7144C41.6345 25.4564 41.446 25.2386 41.2116 25.0853C40.56 24.7658 39.8407 24.6227 39.1211 24.6692H36.9674V28.5116Z" fill="white"/>
<path d="M45.9053 16.3164H48.0826V30.503H45.9053V16.3164Z" fill="white"/>
<path d="M49.7712 25.9576C49.7599 25.2905 49.8863 24.6285 50.142 24.016C50.3805 23.441 50.7294 22.922 51.1675 22.4905C51.606 22.0754 52.1176 21.7514 52.6743 21.536C53.2674 21.3084 53.8957 21.1951 54.5282 21.2015C55.1582 21.1942 55.7841 21.3076 56.3742 21.536C56.9338 21.7431 57.4462 22.0673 57.8792 22.4884C58.3121 22.9095 58.6565 23.4184 58.8908 23.9833C59.3848 25.2301 59.3848 26.6279 58.8908 27.8747C58.6532 28.4438 58.3101 28.9593 57.881 29.392C57.4463 29.8182 56.9341 30.1509 56.3742 30.371C55.7866 30.6113 55.16 30.7331 54.5282 30.7299C53.8939 30.7323 53.2648 30.6106 52.6743 30.371C52.1192 30.1559 51.6081 29.8349 51.1675 29.4247C50.7237 28.973 50.3731 28.4327 50.1372 27.8368C49.9012 27.2408 49.7848 26.6015 49.7949 25.9576H49.7712ZM51.9801 25.9576C51.9824 26.3145 52.0355 26.6691 52.1379 27.0099C52.234 27.3488 52.389 27.6667 52.5954 27.9481C52.809 28.2291 53.0779 28.4599 53.3843 28.6252C53.7337 28.8073 54.1213 28.897 54.5124 28.8862C54.9009 28.8956 55.2856 28.806 55.6327 28.6252C55.9391 28.4599 56.208 28.2291 56.4215 27.9481C56.6304 27.6672 56.7882 27.3493 56.887 27.0099C56.9893 26.6691 57.0425 26.3145 57.0448 25.9576C57.0432 25.6059 56.99 25.2566 56.887 24.9215C56.7898 24.584 56.6319 24.2685 56.4215 23.9915C56.2098 23.7107 55.9404 23.4822 55.6327 23.3226C55.2849 23.1446 54.9002 23.0577 54.5124 23.0697C54.1207 23.05 53.7303 23.1313 53.3764 23.3062C53.0687 23.4659 52.7992 23.6944 52.5875 23.9752C52.3789 24.263 52.2262 24.5899 52.1379 24.9378C52.0284 25.2664 51.9673 25.6102 51.9564 25.9576H51.9801Z" fill="white"/>
<path d="M60.3815 25.9579C60.3739 25.2911 60.5002 24.63 60.7523 24.0163C60.9865 23.4514 61.3309 22.9424 61.7639 22.5214C62.1969 22.1003 62.7092 21.776 63.2688 21.5689C64.4644 21.1229 65.7731 21.1229 66.9687 21.5689C67.5239 21.7727 68.0355 22.0857 68.4755 22.4907C68.9016 22.915 69.2422 23.4224 69.4774 23.9836C69.8544 24.8851 69.9605 25.8829 69.7818 26.8475C69.6031 27.8121 69.148 28.6988 68.4755 29.3923C68.0352 29.831 67.515 30.1749 66.9451 30.4039C65.7552 30.8824 64.4351 30.8824 63.2452 30.4039C62.6852 30.1839 62.1731 29.8511 61.7384 29.425C61.3092 28.9922 60.9662 28.4767 60.7286 27.9076C60.4855 27.289 60.3674 26.6254 60.3815 25.9579ZM62.5983 25.9579C62.5978 26.3144 62.6483 26.669 62.7482 27.0102C62.847 27.3496 63.0047 27.6675 63.2136 27.9484C63.4272 28.2294 63.6961 28.4602 64.0025 28.6255C64.3495 28.8063 64.7343 28.8959 65.1227 28.8865C65.5139 28.8973 65.9015 28.8076 66.2508 28.6255C66.5572 28.4602 66.8262 28.2294 67.0397 27.9484C67.2461 27.667 67.4012 27.3491 67.4973 27.0102C67.5996 26.6694 67.6528 26.3148 67.6551 25.9579C67.6535 25.6062 67.6003 25.2569 67.4973 24.9218C67.4029 24.5847 67.2476 24.2692 67.0397 23.9918C66.828 23.711 66.5586 23.4825 66.2508 23.3229C65.9008 23.1436 65.5132 23.0567 65.1227 23.07C64.7349 23.058 64.3502 23.1449 64.0025 23.3229C63.6948 23.4825 63.4253 23.711 63.2136 23.9918C63.0015 24.2736 62.8435 24.5949 62.7482 24.9381C62.6493 25.2684 62.5988 25.6121 62.5983 25.9579Z" fill="white"/>
<path d="M80.3561 30.503H78.2892V29.1488C77.9981 29.6705 77.5607 30.0887 77.0349 30.348C76.4956 30.6245 75.9013 30.767 75.2994 30.764C74.7047 30.7823 74.1136 30.6646 73.5681 30.4192C73.0226 30.1738 72.5362 29.8069 72.1438 29.3446C71.7668 28.9011 71.4774 28.3856 71.2918 27.8272C71.0903 27.2265 70.9889 26.5948 70.992 25.959C70.9853 25.3343 71.0841 24.7131 71.2839 24.1235C71.4797 23.5696 71.777 23.0599 72.1596 22.6225C72.5348 22.1958 72.9915 21.8542 73.5007 21.619C74.0382 21.3774 74.6187 21.2552 75.2047 21.2601C75.5669 21.2522 75.9284 21.2989 76.2776 21.3988C76.5522 21.4817 76.8169 21.5967 77.0665 21.7414C77.2873 21.8696 77.4937 22.0228 77.6818 22.1982C77.8335 22.3384 77.9709 22.4942 78.092 22.6632H78.1472V16.3164H80.3561V30.503ZM73.193 25.959C73.1925 26.3156 73.243 26.6702 73.3429 27.0114C73.4417 27.3507 73.5994 27.6686 73.8084 27.9496C74.0219 28.2305 74.2908 28.4613 74.5972 28.6267C74.9395 28.8049 75.3185 28.8945 75.7017 28.8877C76.074 28.8959 76.4425 28.8091 76.7746 28.6348C77.078 28.4684 77.3462 28.2409 77.5635 27.9659C77.7913 27.6934 77.9655 27.3775 78.0762 27.0359C78.1852 26.702 78.2411 26.3522 78.2419 25.9998C78.2408 25.6422 78.1849 25.287 78.0762 24.9475C77.9639 24.6042 77.79 24.2859 77.5635 24.0093C77.3444 23.734 77.0766 23.5042 76.7746 23.3322C76.4432 23.1551 76.0747 23.0654 75.7017 23.0711C75.3192 23.0619 74.9402 23.1487 74.5972 23.324C74.2895 23.4837 74.02 23.7122 73.8084 23.993C73.598 24.2699 73.4401 24.5855 73.3429 24.923C73.2425 25.2585 73.192 25.6078 73.193 25.959Z" fill="white"/>
<path d="M96.7415 20.33C96.4056 19.8578 95.9456 19.4954 95.4162 19.2858C94.8729 19.0619 94.2923 18.951 93.7075 18.9594C93.1227 18.9678 92.5453 19.0954 92.0082 19.3347C91.4785 19.5766 91.0031 19.9294 90.6119 20.3708C90.2104 20.8118 89.9015 21.334 89.7047 21.9045C89.4863 22.5182 89.3767 23.1676 89.3812 23.8216C89.3736 24.4984 89.4777 25.1715 89.6889 25.8121C89.8815 26.3841 90.1818 26.9109 90.5724 27.3621C90.9578 27.7913 91.4252 28.133 91.9451 28.3655C92.5124 28.6083 93.122 28.7277 93.7359 28.7163C94.3717 28.7292 95.0015 28.5867 95.574 28.3003C96.0801 28.0351 96.5202 27.6526 96.8599 27.1826L98.6901 28.5124C98.1329 29.2418 97.4201 29.8282 96.6074 30.2255C95.7017 30.6513 94.7148 30.8604 93.7201 30.8374C92.774 30.8479 91.8345 30.6736 90.9511 30.3234C90.1402 30.0047 89.4028 29.5142 88.786 28.8834C88.1692 28.2526 87.6867 27.4955 87.3695 26.6605C87.0232 25.7575 86.8517 24.7929 86.8647 23.8216C86.8495 22.8345 87.0293 21.8546 87.3932 20.9418C87.7342 20.1159 88.2365 19.3716 88.8684 18.7555C89.5052 18.146 90.2536 17.6744 91.0694 17.3687C91.9542 17.0365 92.8893 16.8707 93.8305 16.8792C94.2618 16.8813 94.6921 16.9222 95.1164 17.0016C95.5567 17.0793 95.9877 17.2051 96.4023 17.3768C96.8124 17.5418 97.2039 17.7525 97.5699 18.005C97.9277 18.2467 98.2426 18.5502 98.5008 18.9024L96.7415 20.33Z" fill="white"/>
<path d="M107.967 26.1136V26.4072C107.967 26.5133 107.967 26.6112 107.967 26.7091H101.341C101.359 27.0161 101.439 27.3159 101.575 27.5896C101.71 27.8633 101.899 28.1051 102.129 28.2999C102.368 28.4927 102.634 28.6468 102.918 28.7567C103.208 28.8708 103.516 28.9288 103.826 28.928C104.303 28.9428 104.777 28.8364 105.206 28.618C105.573 28.4234 105.891 28.1443 106.137 27.8022L107.581 29.0014C107.151 29.5976 106.586 30.0743 105.935 30.3889C105.283 30.7036 104.567 30.8463 103.849 30.8043C103.212 30.813 102.579 30.7025 101.98 30.478C101.431 30.2711 100.927 29.9551 100.496 29.548C100.07 29.1354 99.7364 28.6315 99.5183 28.0714C99.2731 27.4447 99.1524 26.7733 99.1633 26.0972C99.1547 25.4188 99.2753 24.7452 99.5183 24.1149C99.7379 23.5458 100.068 23.0293 100.489 22.5975C100.905 22.1705 101.401 21.8372 101.948 21.6186C102.529 21.3876 103.148 21.2714 103.77 21.2759C104.345 21.267 104.915 21.3722 105.451 21.5859C105.958 21.7784 106.417 22.0881 106.792 22.4914C107.186 22.9278 107.487 23.4447 107.675 24.0088C107.887 24.6882 107.986 25.3999 107.967 26.1136ZM105.79 25.0938C105.79 24.8173 105.75 24.5423 105.672 24.278C105.594 24.0235 105.468 23.7877 105.301 23.5846C105.121 23.3785 104.9 23.2145 104.654 23.1033C104.363 22.9827 104.052 22.9244 103.739 22.932C103.133 22.9149 102.543 23.1299 102.082 23.5357C101.854 23.7267 101.666 23.9643 101.53 24.2338C101.394 24.5033 101.314 24.7988 101.293 25.102L105.79 25.0938Z" fill="white"/>
<path d="M109.64 21.4956H111.715V22.9395C111.939 22.4539 112.288 22.0417 112.725 21.7485C113.224 21.398 113.817 21.2183 114.421 21.2345C114.924 21.2159 115.424 21.3222 115.88 21.5445C116.27 21.7344 116.612 22.0133 116.882 22.3603C117.144 22.7038 117.337 23.0975 117.45 23.5187C117.57 23.9595 117.631 24.4151 117.631 24.8729V30.5019H115.454V25.5092C115.454 25.2363 115.436 24.9637 115.399 24.6935C115.367 24.4093 115.287 24.1332 115.162 23.8777C115.043 23.6491 114.872 23.4533 114.665 23.3066C114.411 23.1489 114.117 23.0723 113.821 23.0863C113.506 23.0743 113.193 23.1474 112.914 23.2985C112.669 23.4335 112.456 23.6229 112.291 23.8532C112.12 24.0854 111.991 24.3481 111.912 24.6282C111.831 24.92 111.788 25.2219 111.786 25.5256V30.4774H109.608L109.64 21.4956Z" fill="white"/>
<path d="M118.862 23.3063V21.4953H120.384V18.8848H122.522V21.4953H124.7V23.3063H122.522V27.4832C122.509 27.8284 122.582 28.1713 122.735 28.4784C122.869 28.7477 123.185 28.8782 123.666 28.8782C123.825 28.8773 123.984 28.8609 124.14 28.8292C124.296 28.8 124.45 28.7535 124.597 28.6906L124.668 30.4527C124.442 30.5326 124.21 30.5927 123.974 30.6321C123.713 30.6747 123.449 30.6966 123.185 30.6974C122.7 30.7132 122.217 30.6272 121.765 30.4445C121.426 30.2928 121.13 30.0542 120.905 29.7511C120.69 29.4481 120.542 29.1 120.471 28.7313C120.39 28.3289 120.35 27.9187 120.353 27.5077V23.3063H118.862Z" fill="white"/>
<path d="M134.498 26.1135V26.4071C134.506 26.5076 134.506 26.6085 134.498 26.709H127.879C127.898 27.0202 127.981 27.3235 128.124 27.5982C128.26 27.8683 128.448 28.107 128.676 28.2998C128.914 28.4937 129.18 28.6479 129.465 28.7566C129.754 28.8714 130.062 28.9295 130.372 28.9279C130.847 28.9427 131.319 28.8362 131.745 28.6179C132.111 28.4233 132.43 28.1442 132.675 27.8021L134.127 29.0014C133.695 29.597 133.128 30.0733 132.476 30.3878C131.824 30.7023 131.106 30.8454 130.388 30.8042C129.75 30.8129 129.117 30.7024 128.518 30.4779C127.971 30.2727 127.47 29.9565 127.043 29.5479C126.614 29.1358 126.278 28.6319 126.057 28.0714C125.818 27.4429 125.7 26.7723 125.71 26.0971C125.702 25.4195 125.82 24.7467 126.057 24.1148C126.276 23.5457 126.607 23.0292 127.027 22.5974C127.444 22.1683 127.944 21.8348 128.494 21.6185C129.075 21.386 129.694 21.2698 130.317 21.2758C130.888 21.2677 131.456 21.3729 131.989 21.5858C132.487 21.7807 132.934 22.0904 133.299 22.4914C133.693 22.9277 133.994 23.4446 134.182 24.0087C134.402 24.6867 134.509 25.3984 134.498 26.1135ZM132.32 25.0937C132.321 24.8172 132.281 24.5422 132.202 24.2779C132.128 24.022 132.001 23.7856 131.831 23.5845C131.654 23.3786 131.436 23.2145 131.192 23.1032C130.899 22.983 130.585 22.9248 130.269 22.9319C129.664 22.9163 129.075 23.1312 128.613 23.5356C128.391 23.73 128.21 23.9692 128.081 24.2386C127.952 24.5079 127.878 24.8017 127.863 25.1019L132.32 25.0937Z" fill="white"/>
<path d="M136.517 21.4958H138.6V22.9969C138.824 22.4874 139.172 22.0463 139.609 21.7161C140.058 21.3935 140.594 21.2251 141.14 21.2348H141.408C141.494 21.2341 141.579 21.2479 141.661 21.2756V23.3395L141.29 23.2661H140.99C140.576 23.2448 140.164 23.3407 139.799 23.5435C139.515 23.7097 139.272 23.9414 139.089 24.2206C138.924 24.4673 138.806 24.7441 138.742 25.0363C138.689 25.2525 138.66 25.4742 138.655 25.6971V30.5184H136.478L136.517 21.4958Z" fill="white"/>
<path d="M14.1288 15.4258L16.4955 19.5047L16.8268 20.1003C17.0892 20.6018 17.2299 21.1617 17.237 21.7318C17.237 23.6163 15.9038 24.7584 14.0815 24.7584C13.6708 24.7699 13.2624 24.6921 12.8827 24.5301C12.503 24.3681 12.1604 24.1254 11.8771 23.8178C11.5938 23.5103 11.376 23.1446 11.238 22.7445C11.1 22.3444 11.0447 21.9188 11.0758 21.4953C11.0715 20.8438 11.2525 20.2055 11.5965 19.6597L14.1288 15.4258Z" fill="#FC1921"/>
<path d="M27.8791 24.587L27.5005 23.8936L18.5387 8.19777L15.1386 14.0551L20.2821 22.9636L20.4872 23.4286C21.3945 24.7665 20.8107 25.672 19.4538 25.517H14.3891H14.0499H8.99314C7.77825 25.6801 7.35225 24.6033 7.9518 23.4367L8.15691 22.9554L18.2941 5.21198C18.6491 5.21198 18.9016 5.10593 18.9568 5.00803C19.1304 4.7225 17.947 3.93935 16.4166 2.9604C14.8861 1.98145 13.4346 1.18198 13.261 1.47566C13.2058 1.5654 13.261 1.81829 13.403 2.14461L0.836025 24.122L0.607247 24.5951C0.253793 25.1776 0.0532338 25.8452 0.0253408 26.5323C-0.00255215 27.2193 0.143185 27.902 0.448183 28.513C0.753182 29.124 1.20691 29.6423 1.76464 30.0168C2.32236 30.3912 2.96483 30.6089 3.62869 30.6483H14.2235H24.8104C25.2865 30.6504 25.7585 30.5554 26.1991 30.3687C26.6397 30.182 27.0404 29.9073 27.3782 29.5602C27.716 29.2132 27.9843 28.8006 28.1677 28.3462C28.3512 27.8918 28.4461 27.4044 28.4471 26.912C28.4392 26.1013 28.2445 25.3043 27.8791 24.587Z" fill="#FC1921"/>
</g>
<defs>
<clipPath id="clip0_5527_5968">
<rect width="141.708" height="30.8368" fill="white"/>
</clipPath>
</defs>
</svg>
