<svg width="139" height="35" viewBox="0 0 139 35" fill="none" xmlns="http://www.w3.org/2000/svg">
<path d="M31.7485 5.41016H36.2186C36.8268 5.41016 37.4112 5.47379 37.9798 5.60107C38.5485 5.72834 39.0539 5.94311 39.4962 6.22948C39.9385 6.51584 40.2939 6.90561 40.5624 7.38288C40.8309 7.86016 40.9652 8.44084 40.9652 9.11697C40.9652 10.0556 40.7046 10.8192 40.1754 11.4158C39.6463 12.0045 38.9276 12.4102 38.0193 12.617L41.4548 18.3602H38.6906L35.7132 12.8715H34.0389V18.3602H31.7485V5.41016ZM35.9027 10.9942C36.2265 10.9942 36.5582 10.9704 36.8821 10.9227C37.2059 10.8749 37.506 10.7795 37.7666 10.6442C38.0272 10.509 38.2405 10.3181 38.4142 10.0715C38.5801 9.82493 38.6669 9.49879 38.6669 9.10902C38.6669 8.75902 38.588 8.4647 38.43 8.24198C38.2721 8.01925 38.0746 7.83629 37.8298 7.70107C37.585 7.56584 37.3085 7.47834 37.0005 7.43061C36.6925 7.38288 36.3924 7.35902 36.1002 7.35902H34.031V11.0022H35.9027V10.9942Z" fill="white"/>
<path d="M47.4572 9.32379C48.0258 9.32379 48.5155 9.4272 48.9183 9.62606C49.321 9.82493 49.6606 10.0954 49.9213 10.4215C50.1819 10.7477 50.3714 11.1295 50.4899 11.559C50.6084 11.9886 50.6716 12.4261 50.6716 12.8795V18.3681H48.4918V13.5397C48.4918 13.2852 48.476 13.0147 48.4365 12.7442C48.397 12.4658 48.3259 12.2192 48.2075 11.9965C48.089 11.7738 47.931 11.5829 47.7178 11.4397C47.5046 11.2965 47.2281 11.217 46.8727 11.217C46.5173 11.217 46.2172 11.2806 45.9645 11.4158C45.7118 11.5511 45.4985 11.734 45.3327 11.9567C45.1668 12.1795 45.0326 12.434 44.9536 12.7124C44.8667 12.9908 44.8272 13.2772 44.8272 13.5715V18.3681H42.6475V4.53516H44.8272V10.8113H44.8667C44.9536 10.6283 45.0721 10.4454 45.2379 10.2704C45.4038 10.0954 45.5933 9.93629 45.8066 9.79311C46.0277 9.64993 46.2725 9.53856 46.5489 9.45106C46.8254 9.37152 47.1334 9.32379 47.4572 9.32379Z" fill="white"/>
<path d="M52.251 13.9377C52.251 13.2457 52.3773 12.6093 52.6222 12.0445C52.867 11.4798 53.2066 10.9945 53.6331 10.5888C54.0596 10.1832 54.5571 9.87294 55.1415 9.65817C55.726 9.43544 56.342 9.33203 56.9975 9.33203C57.653 9.33203 58.269 9.44339 58.8535 9.65817C59.4379 9.88089 59.9355 10.1911 60.3619 10.5888C60.7884 10.9945 61.1201 11.4798 61.3729 12.0445C61.6177 12.6093 61.744 13.2457 61.744 13.9377C61.744 14.6298 61.6177 15.2661 61.3729 15.8388C61.128 16.4116 60.7884 16.9048 60.3619 17.3104C59.9355 17.7161 59.4379 18.0423 58.8535 18.2729C58.269 18.5036 57.653 18.6229 56.9975 18.6229C56.342 18.6229 55.726 18.5036 55.1415 18.2729C54.5571 18.0423 54.0596 17.7241 53.6331 17.3104C53.2066 16.9048 52.8749 16.4116 52.6222 15.8388C52.3694 15.2661 52.251 14.6298 52.251 13.9377ZM54.4702 13.9377C54.4702 14.2798 54.5176 14.6218 54.6282 14.9639C54.7309 15.3059 54.8888 15.6082 55.0942 15.8786C55.2995 16.1491 55.5601 16.3638 55.876 16.5388C56.1919 16.7138 56.5631 16.7934 57.0054 16.7934C57.4398 16.7934 57.8189 16.7059 58.1348 16.5388C58.4507 16.3718 58.7113 16.1491 58.9167 15.8786C59.122 15.6082 59.28 15.3059 59.3826 14.9639C59.4853 14.6218 59.5406 14.2798 59.5406 13.9377C59.5406 13.5957 59.4853 13.2616 59.3826 12.9195C59.28 12.5775 59.122 12.2832 58.9167 12.0127C58.7113 11.7423 58.4507 11.5275 58.1348 11.3604C57.8189 11.1934 57.4477 11.1138 57.0054 11.1138C56.571 11.1138 56.1919 11.1934 55.876 11.3604C55.5601 11.5275 55.2995 11.7423 55.0942 12.0127C54.8888 12.2832 54.7309 12.5854 54.6282 12.9195C54.5176 13.2616 54.4702 13.5957 54.4702 13.9377Z" fill="white"/>
<path d="M72.2562 18.3681H70.187V17.0477H70.1475C69.8474 17.5567 69.4209 17.9465 68.8839 18.217C68.3468 18.4874 67.7703 18.6227 67.1464 18.6227C66.483 18.6227 65.8827 18.4954 65.3536 18.2488C64.8244 18.0022 64.3822 17.6602 64.011 17.2386C63.6398 16.817 63.3555 16.3238 63.158 15.759C62.9606 15.1942 62.8579 14.5817 62.8579 13.9374C62.8579 13.2931 62.9606 12.6886 63.1659 12.1238C63.3713 11.559 63.6635 11.0738 64.0347 10.6602C64.4138 10.2465 64.856 9.92038 65.3773 9.68175C65.8985 9.44311 66.4672 9.32379 67.0832 9.32379C67.486 9.32379 67.8414 9.37152 68.1573 9.45902C68.4732 9.54652 68.7496 9.66584 68.9866 9.80106C69.2235 9.93629 69.4288 10.0795 69.5947 10.2386C69.7605 10.3977 69.9027 10.5488 70.0133 10.692H70.0685V4.53516H72.2483V18.3681H72.2562ZM65.0772 13.9374C65.0772 14.2795 65.1246 14.6215 65.2351 14.9636C65.3378 15.3056 65.4958 15.6079 65.7011 15.8783C65.9064 16.1488 66.1671 16.3636 66.483 16.5386C66.7989 16.7136 67.1701 16.7931 67.5887 16.7931C67.9914 16.7931 68.3468 16.7136 68.6627 16.5465C68.9787 16.3795 69.2472 16.1647 69.4683 15.8942C69.6894 15.6238 69.8632 15.3215 69.9738 14.9874C70.0922 14.6533 70.1475 14.3113 70.1475 13.9692C70.1475 13.6272 70.0922 13.2852 69.9738 12.9431C69.8553 12.6011 69.6894 12.2988 69.4683 12.0283C69.2472 11.7579 68.9787 11.5431 68.6627 11.3681C68.3468 11.2011 67.9914 11.1136 67.5887 11.1136C67.1622 11.1136 66.7989 11.1931 66.483 11.3602C66.1671 11.5272 65.9064 11.742 65.7011 12.0124C65.4958 12.2829 65.3378 12.5852 65.2351 12.9192C65.1246 13.2613 65.0772 13.5954 65.0772 13.9374Z" fill="white"/>
<path d="M82.7677 14.0813C82.7677 14.1768 82.7677 14.2802 82.7677 14.3756C82.7677 14.4711 82.7598 14.5745 82.7519 14.67H76.1178C76.1415 14.9881 76.2205 15.2745 76.3627 15.537C76.5048 15.7995 76.6865 16.0222 76.9155 16.2131C77.1446 16.404 77.4052 16.5552 77.6974 16.6586C77.9896 16.77 78.2897 16.8256 78.6056 16.8256C79.1506 16.8256 79.6086 16.7222 79.9877 16.5234C80.3589 16.3245 80.6748 16.0461 80.9118 15.6881L82.365 16.8575C81.5041 18.0268 80.2563 18.6154 78.6214 18.6154C77.9422 18.6154 77.3183 18.512 76.7497 18.2972C76.181 18.0825 75.6835 17.7802 75.2649 17.3904C74.8463 17.0006 74.5225 16.5234 74.2856 15.9506C74.0486 15.3779 73.9302 14.7415 73.9302 14.0177C73.9302 13.3097 74.0486 12.6654 74.2856 12.0847C74.5225 11.504 74.8463 11.0109 75.257 10.6052C75.6677 10.1995 76.1573 9.88132 76.7181 9.65064C77.2788 9.41996 77.8869 9.30859 78.5424 9.30859C79.1506 9.30859 79.7113 9.412 80.2247 9.61087C80.738 9.80973 81.1803 10.112 81.5594 10.5097C81.9306 10.9075 82.2307 11.4006 82.4439 11.9893C82.6651 12.6018 82.7677 13.2938 82.7677 14.0813ZM80.588 13.095C80.588 12.8165 80.5485 12.5461 80.4695 12.2915C80.3905 12.037 80.2642 11.8063 80.0983 11.6154C79.9324 11.4245 79.7113 11.2654 79.4507 11.1461C79.1901 11.0268 78.8821 10.9711 78.5346 10.9711C77.879 10.9711 77.3262 11.17 76.876 11.5677C76.418 11.9654 76.1731 12.4745 76.1178 13.095H80.588Z" fill="white"/>
<path d="M88.6201 5.41016H90.9104V18.3602H88.6201V5.41016Z" fill="white"/>
<path d="M97.9553 11.9255C97.7579 11.671 97.4972 11.4482 97.1576 11.2573C96.818 11.0664 96.4468 10.971 96.0519 10.971C95.7044 10.971 95.3806 11.0425 95.0884 11.1937C94.7962 11.3448 94.6541 11.5835 94.6541 11.9255C94.6541 12.2675 94.812 12.5062 95.1358 12.6494C95.4596 12.7925 95.9256 12.9357 96.5416 13.0789C96.8654 13.1505 97.1971 13.246 97.5288 13.3732C97.8605 13.4925 98.1606 13.6596 98.4371 13.8585C98.7135 14.0573 98.9267 14.3119 99.1005 14.6062C99.2663 14.9085 99.3532 15.2664 99.3532 15.696C99.3532 16.2289 99.2505 16.6903 99.0531 17.0562C98.8556 17.43 98.5871 17.7323 98.2554 17.963C97.9237 18.1937 97.5367 18.3607 97.0945 18.4641C96.6522 18.5675 96.1941 18.6232 95.7202 18.6232C95.041 18.6232 94.3855 18.496 93.7379 18.2494C93.0903 18.0028 92.5612 17.6448 92.1426 17.1755L93.58 15.8232C93.8248 16.1414 94.1407 16.4039 94.5277 16.6107C94.9147 16.8175 95.3491 16.921 95.815 16.921C95.973 16.921 96.1309 16.905 96.2968 16.8653C96.4626 16.8255 96.6127 16.7698 96.7548 16.6903C96.897 16.6107 97.0076 16.5073 97.0945 16.3721C97.1813 16.2369 97.2208 16.0698 97.2208 15.8789C97.2208 15.513 97.055 15.2505 96.7233 15.0914C96.3916 14.9323 95.894 14.7732 95.2227 14.6141C94.8989 14.5425 94.5751 14.4471 94.2671 14.3278C93.9591 14.2085 93.6826 14.0573 93.4378 13.8664C93.193 13.6755 93.0034 13.4448 92.8534 13.1585C92.7112 12.88 92.6322 12.53 92.6322 12.1164C92.6322 11.6312 92.7349 11.2096 92.9324 10.8516C93.1298 10.5016 93.3983 10.2073 93.7221 9.98459C94.0459 9.76186 94.4171 9.59482 94.8278 9.48345C95.2385 9.37209 95.665 9.31641 96.0993 9.31641C96.7312 9.31641 97.3472 9.42777 97.9395 9.64254C98.5397 9.86527 99.0136 10.1994 99.369 10.6528L97.9553 11.9255Z" fill="white"/>
<path d="M100.822 4.53516H103.002V18.3681H100.822V4.53516Z" fill="white"/>
<path d="M110.615 17.2471H110.56C110.339 17.6369 109.991 17.955 109.51 18.2096C109.028 18.4562 108.475 18.5835 107.859 18.5835C107.511 18.5835 107.14 18.5357 106.761 18.4482C106.382 18.3528 106.027 18.2016 105.711 17.9869C105.387 17.7721 105.126 17.4937 104.913 17.1437C104.7 16.7937 104.597 16.3641 104.597 15.855C104.597 15.1948 104.779 14.6698 105.15 14.28C105.521 13.8903 105.995 13.588 106.579 13.3812C107.164 13.1744 107.804 13.0391 108.514 12.9675C109.225 12.9039 109.912 12.8641 110.592 12.8641V12.6414C110.592 12.0925 110.394 11.6869 109.999 11.4244C109.604 11.1619 109.138 11.0346 108.593 11.0346C108.135 11.0346 107.693 11.13 107.267 11.3289C106.84 11.5278 106.493 11.7585 106.216 12.0448L105.087 10.7085C105.584 10.2471 106.153 9.89709 106.801 9.66641C107.448 9.43572 108.104 9.31641 108.775 9.31641C109.549 9.31641 110.189 9.42777 110.694 9.64254C111.2 9.86527 111.595 10.1516 111.887 10.5016C112.179 10.8596 112.376 11.2494 112.495 11.6948C112.613 12.1323 112.669 12.5698 112.669 13.0153V18.3607H110.631V17.2471H110.615ZM110.576 14.3596H110.086C109.731 14.3596 109.367 14.3755 108.98 14.4073C108.593 14.4391 108.238 14.5028 107.906 14.6062C107.583 14.7096 107.306 14.8528 107.085 15.0437C106.864 15.2346 106.761 15.4891 106.761 15.8232C106.761 16.03 106.809 16.205 106.895 16.3482C106.982 16.4914 107.101 16.6028 107.251 16.6903C107.393 16.7778 107.559 16.8335 107.74 16.8732C107.922 16.913 108.104 16.9289 108.285 16.9289C109.036 16.9289 109.604 16.73 109.991 16.3244C110.378 15.9187 110.576 15.3698 110.576 14.6778V14.3596Z" fill="white"/>
<path d="M114.738 9.58658H116.807V10.9945H116.846C117.044 10.557 117.376 10.1673 117.857 9.83317C118.339 9.49908 118.9 9.33203 119.555 9.33203C120.124 9.33203 120.614 9.43544 121.016 9.6343C121.419 9.83317 121.759 10.1036 122.02 10.4298C122.28 10.7559 122.47 11.1377 122.588 11.5673C122.707 11.9968 122.77 12.4343 122.77 12.8877V18.3763H120.59V13.5082C120.59 13.2536 120.574 12.9832 120.535 12.7048C120.495 12.4263 120.416 12.1718 120.298 11.9491C120.179 11.7263 120.013 11.5354 119.8 11.3923C119.587 11.2491 119.311 11.1695 118.955 11.1695C118.6 11.1695 118.3 11.2411 118.047 11.3763C117.794 11.5195 117.581 11.6945 117.423 11.9173C117.257 12.14 117.139 12.3866 117.052 12.6729C116.965 12.9593 116.925 13.2457 116.925 13.54V18.3684H114.746V9.58658H114.738Z" fill="white"/>
<path d="M133.716 18.3681H131.647V17.0477H131.607C131.307 17.5567 130.881 17.9465 130.344 18.217C129.807 18.4874 129.23 18.6227 128.606 18.6227C127.943 18.6227 127.343 18.4954 126.814 18.2488C126.284 18.0022 125.842 17.6602 125.471 17.2386C125.1 16.817 124.815 16.3238 124.618 15.759C124.421 15.1942 124.318 14.5817 124.318 13.9374C124.318 13.2931 124.421 12.6886 124.626 12.1238C124.831 11.559 125.123 11.0738 125.495 10.6602C125.866 10.2465 126.316 9.92038 126.837 9.68175C127.358 9.44311 127.927 9.32379 128.543 9.32379C128.946 9.32379 129.301 9.37152 129.617 9.45902C129.933 9.54652 130.21 9.66584 130.446 9.80106C130.683 9.93629 130.889 10.0795 131.055 10.2386C131.22 10.3977 131.363 10.5488 131.473 10.692H131.528V4.53516H133.708V18.3681H133.716ZM126.545 13.9374C126.545 14.2795 126.6 14.6215 126.703 14.9636C126.806 15.3056 126.964 15.6079 127.169 15.8783C127.374 16.1488 127.635 16.3636 127.951 16.5386C128.267 16.7056 128.638 16.7931 129.057 16.7931C129.459 16.7931 129.815 16.7136 130.131 16.5465C130.447 16.3795 130.715 16.1647 130.936 15.8942C131.157 15.6238 131.331 15.3215 131.442 14.9874C131.56 14.6533 131.615 14.3113 131.615 13.9692C131.615 13.6272 131.56 13.2852 131.442 12.9431C131.323 12.6011 131.157 12.2988 130.936 12.0283C130.715 11.7579 130.447 11.5431 130.131 11.3681C129.815 11.2011 129.459 11.1136 129.057 11.1136C128.63 11.1136 128.267 11.1931 127.951 11.3602C127.635 11.5272 127.374 11.742 127.169 12.0124C126.964 12.2829 126.806 12.5852 126.703 12.9192C126.6 13.2613 126.545 13.5954 126.545 13.9374Z" fill="white"/>
<path d="M31.7485 21.3184H36.7636C37.2454 21.3184 37.7271 21.374 38.201 21.4934C38.6748 21.6127 39.0934 21.7956 39.4646 22.0581C39.8358 22.3206 40.1359 22.6627 40.365 23.0763C40.594 23.4899 40.7125 23.9911 40.7125 24.5797C40.7125 25.3115 40.5071 25.9161 40.0964 26.3934C39.6857 26.8706 39.1487 27.2127 38.4774 27.4195V27.4593C39.2909 27.5706 39.9543 27.8888 40.4755 28.4138C40.9968 28.9388 41.2574 29.6388 41.2574 30.5218C41.2574 31.2297 41.1152 31.8263 40.8388 32.3036C40.5624 32.7888 40.1912 33.1706 39.741 33.4649C39.2909 33.7593 38.7696 33.9661 38.1773 34.0934C37.5928 34.2206 36.9926 34.2843 36.3845 34.2843H31.7485V21.3184ZM34.031 26.5922H36.0686C36.8347 26.5922 37.4112 26.4411 37.814 26.1388C38.2168 25.8365 38.4142 25.399 38.4142 24.8422C38.4142 24.2536 38.2089 23.8399 37.7982 23.6013C37.3875 23.3547 36.7478 23.2354 35.8711 23.2354H34.0389V26.5922H34.031ZM34.031 32.3354H36.0844C36.3766 32.3354 36.6925 32.3115 37.0321 32.2718C37.3717 32.232 37.6797 32.1445 37.964 32.0093C38.2484 31.874 38.4853 31.6831 38.6748 31.4206C38.8644 31.1661 38.9592 30.824 38.9592 30.3945C38.9592 29.7104 38.7301 29.2331 38.2721 28.9706C37.814 28.7002 37.119 28.5649 36.1871 28.5649H34.0468V32.3354H34.031Z" fill="white"/>
<path d="M42.9712 20.4434H45.151V34.2763H42.9712V20.4434Z" fill="white"/>
<path d="M46.8413 29.8459C46.8413 29.1539 46.9677 28.5175 47.2125 27.9527C47.4573 27.388 47.7969 26.9027 48.2234 26.4971C48.6499 26.0914 49.1474 25.7811 49.7319 25.5664C50.3163 25.3436 50.9323 25.2402 51.5878 25.2402C52.2434 25.2402 52.8594 25.3516 53.4438 25.5664C54.0282 25.7891 54.5258 26.0993 54.9523 26.4971C55.3788 26.9027 55.7105 27.388 55.9632 27.9527C56.208 28.5175 56.3344 29.1539 56.3344 29.8459C56.3344 30.538 56.208 31.1743 55.9632 31.7471C55.7184 32.3198 55.3788 32.813 54.9523 33.2186C54.5258 33.6243 54.0282 33.9505 53.4438 34.1811C52.8594 34.4118 52.2434 34.5311 51.5878 34.5311C50.9323 34.5311 50.3163 34.4118 49.7319 34.1811C49.1474 33.9505 48.6499 33.6323 48.2234 33.2186C47.7969 32.813 47.4652 32.3198 47.2125 31.7471C46.9598 31.1743 46.8413 30.538 46.8413 29.8459ZM49.0527 29.8459C49.0527 30.188 49.1001 30.53 49.2106 30.8721C49.3133 31.2141 49.4713 31.5164 49.6766 31.7868C49.8819 32.0573 50.1426 32.2721 50.4585 32.4471C50.7744 32.6221 51.1456 32.7016 51.5878 32.7016C52.0222 32.7016 52.4013 32.6141 52.7172 32.4471C53.0331 32.28 53.2938 32.0573 53.4991 31.7868C53.7044 31.5164 53.8624 31.2141 53.9651 30.8721C54.0677 30.53 54.123 30.188 54.123 29.8459C54.123 29.5039 54.0677 29.1698 53.9651 28.8277C53.8624 28.4857 53.7044 28.1914 53.4991 27.9209C53.2938 27.6505 53.0331 27.4357 52.7172 27.2686C52.4013 27.1016 52.0301 27.0221 51.5878 27.0221C51.1535 27.0221 50.7744 27.1016 50.4585 27.2686C50.1426 27.4357 49.8819 27.6505 49.6766 27.9209C49.4713 28.1914 49.3133 28.4936 49.2106 28.8277C49.108 29.1698 49.0527 29.5039 49.0527 29.8459Z" fill="white"/>
<path d="M57.4634 29.8459C57.4634 29.1539 57.5897 28.5175 57.8346 27.9527C58.0794 27.388 58.419 26.9027 58.8455 26.4971C59.272 26.0914 59.7695 25.7811 60.3539 25.5664C60.9384 25.3436 61.5544 25.2402 62.2099 25.2402C62.8654 25.2402 63.4814 25.3516 64.0659 25.5664C64.6503 25.7891 65.1479 26.0993 65.5743 26.4971C66.0008 26.8948 66.3325 27.388 66.5853 27.9527C66.8301 28.5175 66.9564 29.1539 66.9564 29.8459C66.9564 30.538 66.8301 31.1743 66.5853 31.7471C66.3404 32.3198 66.0008 32.813 65.5743 33.2186C65.1479 33.6243 64.6503 33.9505 64.0659 34.1811C63.4814 34.4118 62.8654 34.5311 62.2099 34.5311C61.5544 34.5311 60.9384 34.4118 60.3539 34.1811C59.7695 33.9505 59.272 33.6323 58.8455 33.2186C58.419 32.813 58.0873 32.3198 57.8346 31.7471C57.5897 31.1743 57.4634 30.538 57.4634 29.8459ZM59.6826 29.8459C59.6826 30.188 59.7379 30.53 59.8406 30.8721C59.9433 31.2141 60.1012 31.5164 60.3066 31.7868C60.5119 32.0573 60.7725 32.2721 61.0884 32.4471C61.4043 32.6141 61.7755 32.7016 62.2178 32.7016C62.6601 32.7016 63.0313 32.6141 63.3472 32.4471C63.6631 32.28 63.9237 32.0573 64.1291 31.7868C64.3344 31.5164 64.4924 31.2141 64.595 30.8721C64.6977 30.53 64.753 30.188 64.753 29.8459C64.753 29.5039 64.6977 29.1698 64.595 28.8277C64.4924 28.4936 64.3344 28.1914 64.1291 27.9209C63.9237 27.6505 63.6631 27.4357 63.3472 27.2686C63.0313 27.1016 62.6601 27.0221 62.2178 27.0221C61.7755 27.0221 61.4043 27.1016 61.0884 27.2686C60.7725 27.4357 60.5119 27.6505 60.3066 27.9209C60.1012 28.1914 59.9433 28.4936 59.8406 28.8277C59.73 29.1698 59.6826 29.5039 59.6826 29.8459Z" fill="white"/>
<path d="M77.4686 34.2763H75.3994V32.9559H75.3599C75.0598 33.465 74.6333 33.8547 74.0963 34.1252C73.5592 34.3956 72.9827 34.5309 72.3588 34.5309C71.6954 34.5309 71.0951 34.4036 70.566 34.157C70.0368 33.9104 69.5946 33.5684 69.2234 33.1468C68.8522 32.7252 68.5679 32.232 68.3704 31.6672C68.173 31.1025 68.0703 30.49 68.0703 29.8456C68.0703 29.2013 68.173 28.5968 68.3783 28.032C68.5837 27.4672 68.8759 26.982 69.2471 26.5684C69.6262 26.1547 70.0684 25.8286 70.5897 25.5899C71.1109 25.3513 71.6796 25.232 72.2956 25.232C72.6984 25.232 73.0538 25.2797 73.3697 25.3672C73.6856 25.4547 73.962 25.574 74.1989 25.7093C74.4359 25.8445 74.6412 25.9877 74.8071 26.1468C74.9729 26.3059 75.1151 26.457 75.2257 26.6002H75.2809V20.4434H77.4607V34.2763H77.4686ZM70.2896 29.8456C70.2896 30.1877 70.337 30.5297 70.4475 30.8718C70.5502 31.2138 70.7082 31.5161 70.9135 31.7865C71.1188 32.057 71.3795 32.2718 71.6954 32.4468C72.0113 32.6218 72.3825 32.7013 72.8011 32.7013C73.2038 32.7013 73.5592 32.6218 73.8751 32.4547C74.1911 32.2877 74.4596 32.0729 74.6807 31.8024C74.9018 31.532 75.0756 31.2297 75.1862 30.8956C75.3046 30.5615 75.3599 30.2195 75.3599 29.8775C75.3599 29.5354 75.3046 29.1934 75.1862 28.8513C75.0677 28.5093 74.9018 28.207 74.6807 27.9365C74.4596 27.6661 74.1911 27.4513 73.8751 27.2763C73.5592 27.1093 73.2038 27.0218 72.8011 27.0218C72.3746 27.0218 72.0113 27.1013 71.6954 27.2684C71.3795 27.4354 71.1188 27.6502 70.9135 27.9206C70.7082 28.1911 70.5502 28.4934 70.4475 28.8275C70.3449 29.1695 70.2896 29.5036 70.2896 29.8456Z" fill="white"/>
<path d="M93.3431 24.3586C93.0035 23.8973 92.5612 23.5552 92.0163 23.3404C91.4713 23.1257 90.9343 23.0223 90.421 23.0223C89.7575 23.0223 89.1494 23.1416 88.6045 23.3882C88.0595 23.6348 87.5936 23.9689 87.1987 24.3984C86.8038 24.8279 86.5037 25.3291 86.2904 25.9018C86.0772 26.4745 85.9745 27.095 85.9745 27.7711C85.9745 28.4791 86.0772 29.1234 86.2825 29.712C86.4879 30.3007 86.7801 30.8018 87.1671 31.2234C87.5462 31.645 88.0043 31.9711 88.5413 32.2018C89.0704 32.4325 89.6707 32.5518 90.342 32.5518C91.0291 32.5518 91.6451 32.4166 92.1743 32.1382C92.7034 31.8677 93.1378 31.5018 93.4616 31.0484L95.2939 32.345C94.7252 33.0609 94.0302 33.6257 93.2009 34.0154C92.3796 34.4132 91.4161 34.612 90.3104 34.612C89.3074 34.612 88.3833 34.445 87.5383 34.1109C86.6932 33.7768 85.9745 33.3075 85.3664 32.7029C84.7583 32.0984 84.2844 31.3825 83.9527 30.5473C83.6131 29.712 83.4473 28.7893 83.4473 27.7791C83.4473 26.745 83.6289 25.8064 83.9843 24.9711C84.3397 24.1359 84.8294 23.4279 85.4533 22.8393C86.0772 22.2507 86.8117 21.8052 87.6568 21.487C88.5018 21.1689 89.4258 21.0098 90.421 21.0098C90.8316 21.0098 91.266 21.0495 91.7083 21.1291C92.1506 21.2086 92.5849 21.3279 92.9956 21.495C93.4063 21.662 93.7933 21.8609 94.1566 22.1075C94.5199 22.3541 94.8279 22.6404 95.0806 22.9825L93.3431 24.3586Z" fill="white"/>
<path d="M104.605 29.9895C104.605 30.085 104.605 30.1884 104.605 30.2838C104.605 30.3793 104.597 30.4827 104.589 30.5782H97.963C97.9867 30.8963 98.0657 31.1827 98.2078 31.4452C98.35 31.7077 98.5316 31.9304 98.7607 32.1213C98.9897 32.3123 99.2503 32.4634 99.5425 32.5668C99.8347 32.6782 100.135 32.7338 100.451 32.7338C100.996 32.7338 101.454 32.6304 101.833 32.4316C102.212 32.2327 102.52 31.9543 102.757 31.5963L104.21 32.7657C103.349 33.935 102.101 34.5236 100.467 34.5236C99.7874 34.5236 99.1634 34.4202 98.5948 34.2054C98.0262 33.9907 97.5286 33.6884 97.1179 33.2986C96.6993 32.9088 96.3755 32.4316 96.1386 31.8588C95.9017 31.2861 95.7832 30.6498 95.7832 29.9259C95.7832 29.2179 95.9017 28.5736 96.1386 27.9929C96.3755 27.4122 96.6993 26.9191 97.11 26.5134C97.5207 26.1077 98.0104 25.7895 98.5711 25.5588C99.1318 25.3282 99.74 25.2168 100.395 25.2168C101.004 25.2168 101.564 25.3202 102.078 25.5191C102.591 25.7179 103.041 26.0202 103.412 26.4179C103.792 26.8157 104.084 27.3088 104.297 27.8975C104.494 28.51 104.605 29.202 104.605 29.9895ZM102.425 29.0032C102.425 28.7248 102.386 28.4543 102.307 28.1998C102.228 27.9452 102.101 27.7145 101.936 27.5236C101.77 27.3247 101.549 27.1736 101.288 27.0543C101.027 26.935 100.719 26.8793 100.372 26.8793C99.7163 26.8793 99.1634 27.0782 98.7133 27.4759C98.2552 27.8736 98.0104 28.3827 97.963 29.0032H102.425Z" fill="white"/>
<path d="M106.256 25.4948H108.325V26.9027H108.365C108.562 26.4652 108.894 26.0755 109.375 25.7414C109.857 25.4073 110.418 25.2402 111.073 25.2402C111.642 25.2402 112.132 25.3436 112.535 25.5425C112.937 25.7414 113.269 26.0118 113.53 26.338C113.79 26.6641 113.98 27.0459 114.098 27.4755C114.217 27.905 114.28 28.3425 114.28 28.7959V34.2846H112.1V29.4164C112.1 29.1618 112.084 28.8914 112.045 28.613C112.005 28.3346 111.926 28.08 111.808 27.8573C111.69 27.6346 111.524 27.4436 111.31 27.3005C111.097 27.1573 110.821 27.0777 110.465 27.0777C110.11 27.0777 109.81 27.1493 109.557 27.2846C109.304 27.4198 109.091 27.6027 108.933 27.8255C108.767 28.0482 108.649 28.2948 108.562 28.5811C108.475 28.8675 108.436 29.1539 108.436 29.4482V34.2766H106.256V25.4948Z" fill="white"/>
<path d="M115.48 27.2448V25.4869H117.005V22.9414H119.145V25.4869H121.325V27.2448H119.145V31.3255C119.145 31.7153 119.216 32.0414 119.35 32.2959C119.493 32.5505 119.801 32.6778 120.282 32.6778C120.424 32.6778 120.582 32.6619 120.756 32.63C120.922 32.5982 121.08 32.5505 121.206 32.4948L121.277 34.213C121.08 34.2846 120.851 34.3403 120.59 34.388C120.322 34.4278 120.069 34.4516 119.824 34.4516C119.24 34.4516 118.774 34.3721 118.411 34.205C118.047 34.038 117.763 33.8153 117.55 33.5289C117.336 33.2425 117.194 32.9164 117.115 32.5425C117.036 32.1687 116.997 31.771 116.997 31.3414V27.2448H115.48Z" fill="white"/>
<path d="M131.141 29.9895C131.141 30.085 131.141 30.1884 131.141 30.2838C131.141 30.3793 131.133 30.4827 131.125 30.5782H124.491C124.515 30.8963 124.594 31.1827 124.736 31.4452C124.878 31.7077 125.06 31.9304 125.289 32.1213C125.518 32.3123 125.779 32.4634 126.071 32.5668C126.363 32.6782 126.663 32.7338 126.979 32.7338C127.524 32.7338 127.982 32.6304 128.361 32.4316C128.732 32.2327 129.048 31.9543 129.285 31.5963L130.738 32.7657C129.878 33.935 128.63 34.5236 126.995 34.5236C126.316 34.5236 125.692 34.4202 125.123 34.2054C124.555 33.9907 124.057 33.6884 123.638 33.2986C123.22 32.9088 122.896 32.4316 122.659 31.8588C122.422 31.2861 122.304 30.6498 122.304 29.9259C122.304 29.2179 122.422 28.5736 122.659 27.9929C122.896 27.4122 123.22 26.9191 123.631 26.5134C124.041 26.1077 124.531 25.7895 125.092 25.5588C125.652 25.3282 126.26 25.2168 126.916 25.2168C127.524 25.2168 128.085 25.3202 128.598 25.5191C129.112 25.7179 129.554 26.0202 129.933 26.4179C130.304 26.8157 130.604 27.3088 130.817 27.8975C131.039 28.51 131.141 29.202 131.141 29.9895ZM128.961 29.0032C128.961 28.7248 128.922 28.4543 128.843 28.1998C128.764 27.9452 128.638 27.7145 128.472 27.5236C128.306 27.3327 128.085 27.1736 127.824 27.0543C127.564 26.935 127.256 26.8793 126.908 26.8793C126.253 26.8793 125.7 27.0782 125.25 27.4759C124.791 27.8736 124.547 28.3827 124.491 29.0032H128.961Z" fill="white"/>
<path d="M133.155 25.4948H135.248V26.9584H135.288C135.532 26.4493 135.872 26.0277 136.306 25.7175C136.741 25.3993 137.254 25.2402 137.831 25.2402C137.918 25.2402 138.004 25.2402 138.107 25.2482C138.202 25.2561 138.289 25.2721 138.36 25.2959V27.3084C138.218 27.2686 138.091 27.2448 137.989 27.2368C137.886 27.2209 137.783 27.2209 137.689 27.2209C137.191 27.2209 136.796 27.3084 136.488 27.4914C136.188 27.6743 135.951 27.8971 135.777 28.1516C135.611 28.4061 135.493 28.6686 135.43 28.9391C135.367 29.2096 135.343 29.4243 135.343 29.5755V34.2766H133.163V25.4948H133.155Z" fill="white"/>
<path d="M1.56348 27.4121C2.40853 29.5042 3.83012 31.3337 5.76507 32.6223C5.80456 32.6462 5.84405 32.678 5.88353 32.7019C7.71581 33.8871 9.99035 34.603 12.6677 34.603C12.7704 34.603 12.8651 34.5951 12.9678 34.5871C13.0626 34.5951 13.1652 34.603 13.2679 34.603C15.9452 34.603 18.2198 33.8951 20.0521 32.7019C20.0915 32.678 20.131 32.6462 20.1705 32.6223C22.1055 31.3337 23.5192 29.5042 24.3721 27.4121H1.56348Z" fill="#FC1921"/>
<path d="M24.5618 26.879C25.0277 25.5506 25.2726 24.1267 25.2726 22.679C25.2726 22.4006 25.2647 22.1222 25.241 21.8438H0.679053C0.663257 22.1222 0.647461 22.4006 0.647461 22.679C0.647461 24.1267 0.89229 25.5506 1.35826 26.879H24.5618Z" fill="#FC1921"/>
<path d="M23.5112 16.4512H2.40844C1.56338 17.8273 0.986847 19.3864 0.757812 21.0569H25.1618C24.9328 19.3864 24.3562 17.8273 23.5112 16.4512Z" fill="#FC1921"/>
<path d="M20.0049 11.0566H5.91532L3.63287 14.5089L3.1748 15.2328H22.7454L20.0049 11.0566Z" fill="#FC1921"/>
<path d="M22.2873 14.5089L20.0049 11.0566L22.7454 15.2328L22.2873 14.5089Z" fill="#FC1921"/>
<path d="M16.4427 5.66406H9.47687L7.00488 9.41065H18.9147L16.4427 5.66406Z" fill="#FC1921"/>
<path d="M12.9603 0.398438L10.8516 3.58821H15.0689L12.9603 0.398438Z" fill="#FC1921"/>
</svg>
