<?xml version="1.0" encoding="UTF-8" standalone="no"?>
<svg
   width="139"
   height="52"
   viewBox="0 0 139 52"
   fill="none"
   version="1.1"
   id="svg60"
   sodipodi:docname="rhode_island.svg"
   inkscape:version="1.1.2 (b8e25be8, 2022-02-05)"
   xmlns:inkscape="http://www.inkscape.org/namespaces/inkscape"
   xmlns:sodipodi="http://sodipodi.sourceforge.net/DTD/sodipodi-0.dtd"
   xmlns="http://www.w3.org/2000/svg"
   xmlns:svg="http://www.w3.org/2000/svg">
  <defs
     id="defs64" />
  <sodipodi:namedview
     id="namedview62"
     pagecolor="#505050"
     bordercolor="#ffffff"
     borderopacity="1"
     inkscape:pageshadow="0"
     inkscape:pageopacity="0"
     inkscape:pagecheckerboard="1"
     showgrid="false"
     height="52px"
     inkscape:zoom="8.1079137"
     inkscape:cx="69.5"
     inkscape:cy="17.513753"
     inkscape:window-width="1296"
     inkscape:window-height="966"
     inkscape:window-x="0"
     inkscape:window-y="38"
     inkscape:window-maximized="0"
     inkscape:current-layer="svg60" />
  <path
     d="m 31.7485,5.41016 h 4.4701 c 0.6082,0 1.1926,0.06363 1.7612,0.19091 0.5687,0.12727 1.0741,0.34204 1.5164,0.62841 0.4423,0.28636 0.7977,0.67613 1.0662,1.1534 0.2685,0.47728 0.4028,1.05796 0.4028,1.73409 0,0.93863 -0.2606,1.70223 -0.7898,2.29883 -0.5291,0.5887 -1.2478,0.9944 -2.1561,1.2012 l 3.4355,5.7432 h -2.7642 l -2.9774,-5.4887 h -1.6743 v 5.4887 h -2.2904 z m 4.1542,5.58404 c 0.3238,0 0.6555,-0.0238 0.9794,-0.0715 0.3238,-0.0478 0.6239,-0.1432 0.8845,-0.2785 0.2606,-0.1352 0.4739,-0.3261 0.6476,-0.5727 0.1659,-0.24657 0.2527,-0.57271 0.2527,-0.96248 0,-0.35 -0.0789,-0.64432 -0.2369,-0.86704 C 38.2721,8.01925 38.0746,7.83629 37.8298,7.70107 37.585,7.56584 37.3085,7.47834 37.0005,7.43061 36.6925,7.38288 36.3924,7.35902 36.1002,7.35902 H 34.031 v 3.64318 h 1.8717 z"
     fill="#ffffff"
     id="path2" />
  <path
     d="m 47.4572,9.32379 c 0.5686,0 1.0583,0.10341 1.4611,0.30227 0.4027,0.19887 0.7423,0.46934 1.003,0.79544 0.2606,0.3262 0.4501,0.708 0.5686,1.1375 0.1185,0.4296 0.1817,0.8671 0.1817,1.3205 v 5.4886 h -2.1798 v -4.8284 c 0,-0.2545 -0.0158,-0.525 -0.0553,-0.7955 -0.0395,-0.2784 -0.1106,-0.525 -0.229,-0.7477 -0.1185,-0.2227 -0.2765,-0.4136 -0.4897,-0.5568 -0.2132,-0.1432 -0.4897,-0.2227 -0.8451,-0.2227 -0.3554,0 -0.6555,0.0636 -0.9082,0.1988 -0.2527,0.1353 -0.466,0.3182 -0.6318,0.5409 -0.1659,0.2228 -0.3001,0.4773 -0.3791,0.7557 -0.0869,0.2784 -0.1264,0.5648 -0.1264,0.8591 v 4.7966 H 42.6475 V 4.53516 h 2.1797 v 6.27614 h 0.0395 c 0.0869,-0.183 0.2054,-0.3659 0.3712,-0.5409 0.1659,-0.175 0.3554,-0.33411 0.5687,-0.47729 0.2211,-0.14318 0.4659,-0.25455 0.7423,-0.34205 0.2765,-0.07954 0.5845,-0.12727 0.9083,-0.12727 z"
     fill="#ffffff"
     id="path4" />
  <path
     d="m 52.251,13.9377 c 0,-0.692 0.1263,-1.3284 0.3712,-1.8932 0.2448,-0.5647 0.5844,-1.05 1.0109,-1.4557 0.4265,-0.4056 0.924,-0.71586 1.5084,-0.93063 0.5845,-0.22273 1.2005,-0.32614 1.856,-0.32614 0.6555,0 1.2715,0.11136 1.856,0.32614 0.5844,0.22272 1.082,0.53293 1.5084,0.93063 0.4265,0.4057 0.7582,0.891 1.011,1.4557 0.2448,0.5648 0.3711,1.2012 0.3711,1.8932 0,0.6921 -0.1263,1.3284 -0.3711,1.9011 -0.2449,0.5728 -0.5845,1.066 -1.011,1.4716 -0.4264,0.4057 -0.924,0.7319 -1.5084,0.9625 -0.5845,0.2307 -1.2005,0.35 -1.856,0.35 -0.6555,0 -1.2715,-0.1193 -1.856,-0.35 -0.5844,-0.2306 -1.0819,-0.5488 -1.5084,-0.9625 -0.4265,-0.4056 -0.7582,-0.8988 -1.0109,-1.4716 -0.2528,-0.5727 -0.3712,-1.209 -0.3712,-1.9011 z m 2.2192,0 c 0,0.3421 0.0474,0.6841 0.158,1.0262 0.1027,0.342 0.2606,0.6443 0.466,0.9147 0.2053,0.2705 0.4659,0.4852 0.7818,0.6602 0.3159,0.175 0.6871,0.2546 1.1294,0.2546 0.4344,0 0.8135,-0.0875 1.1294,-0.2546 0.3159,-0.167 0.5765,-0.3897 0.7819,-0.6602 0.2053,-0.2704 0.3633,-0.5727 0.4659,-0.9147 0.1027,-0.3421 0.158,-0.6841 0.158,-1.0262 0,-0.342 -0.0553,-0.6761 -0.158,-1.0182 -0.1026,-0.342 -0.2606,-0.6363 -0.4659,-0.9068 -0.2054,-0.2704 -0.466,-0.4852 -0.7819,-0.6523 -0.3159,-0.167 -0.6871,-0.2466 -1.1294,-0.2466 -0.4344,0 -0.8135,0.0796 -1.1294,0.2466 -0.3159,0.1671 -0.5765,0.3819 -0.7818,0.6523 -0.2054,0.2705 -0.3633,0.5727 -0.466,0.9068 -0.1106,0.3421 -0.158,0.6762 -0.158,1.0182 z"
     fill="#ffffff"
     id="path6" />
  <path
     d="M 72.2562,18.3681 H 70.187 v -1.3204 h -0.0395 c -0.3001,0.509 -0.7266,0.8988 -1.2636,1.1693 -0.5371,0.2704 -1.1136,0.4057 -1.7375,0.4057 -0.6634,0 -1.2637,-0.1273 -1.7928,-0.3739 -0.5292,-0.2466 -0.9714,-0.5886 -1.3426,-1.0102 -0.3712,-0.4216 -0.6555,-0.9148 -0.853,-1.4796 -0.1974,-0.5648 -0.3001,-1.1773 -0.3001,-1.8216 0,-0.6443 0.1027,-1.2488 0.308,-1.8136 0.2054,-0.5648 0.4976,-1.05 0.8688,-1.4636 0.3791,-0.4137 0.8213,-0.73982 1.3426,-0.97845 0.5212,-0.23864 1.0899,-0.35796 1.7059,-0.35796 0.4028,0 0.7582,0.04773 1.0741,0.13523 0.3159,0.0875 0.5923,0.20682 0.8293,0.34204 0.2369,0.13523 0.4422,0.27844 0.6081,0.43754 0.1658,0.1591 0.308,0.3102 0.4186,0.4534 h 0.0552 V 4.53516 h 2.1798 V 18.3681 Z m -7.179,-4.4307 c 0,0.3421 0.0474,0.6841 0.1579,1.0262 0.1027,0.342 0.2607,0.6443 0.466,0.9147 0.2053,0.2705 0.466,0.4853 0.7819,0.6603 0.3159,0.175 0.6871,0.2545 1.1057,0.2545 0.4027,0 0.7581,-0.0795 1.074,-0.2466 0.316,-0.167 0.5845,-0.3818 0.8056,-0.6523 0.2211,-0.2704 0.3949,-0.5727 0.5055,-0.9068 0.1184,-0.3341 0.1737,-0.6761 0.1737,-1.0182 0,-0.342 -0.0553,-0.684 -0.1737,-1.0261 -0.1185,-0.342 -0.2844,-0.6443 -0.5055,-0.9148 -0.2211,-0.2704 -0.4896,-0.4852 -0.8056,-0.6602 -0.3159,-0.167 -0.6713,-0.2545 -1.074,-0.2545 -0.4265,0 -0.7898,0.0795 -1.1057,0.2466 -0.3159,0.167 -0.5766,0.3818 -0.7819,0.6522 -0.2053,0.2705 -0.3633,0.5728 -0.466,0.9068 -0.1105,0.3421 -0.1579,0.6762 -0.1579,1.0182 z"
     fill="#ffffff"
     id="path8" />
  <path
     d="m 82.7677,14.0813 c 0,0.0955 0,0.1989 0,0.2943 0,0.0955 -0.0079,0.1989 -0.0158,0.2944 h -6.6341 c 0.0237,0.3181 0.1027,0.6045 0.2449,0.867 0.1421,0.2625 0.3238,0.4852 0.5528,0.6761 0.2291,0.1909 0.4897,0.3421 0.7819,0.4455 0.2922,0.1114 0.5923,0.167 0.9082,0.167 0.545,0 1.003,-0.1034 1.3821,-0.3022 0.3712,-0.1989 0.6871,-0.4773 0.9241,-0.8353 l 1.4532,1.1694 c -0.8609,1.1693 -2.1087,1.7579 -3.7436,1.7579 -0.6792,0 -1.3031,-0.1034 -1.8717,-0.3182 -0.5687,-0.2147 -1.0662,-0.517 -1.4848,-0.9068 -0.4186,-0.3898 -0.7424,-0.867 -0.9793,-1.4398 -0.237,-0.5727 -0.3554,-1.2091 -0.3554,-1.9329 0,-0.708 0.1184,-1.3523 0.3554,-1.933 0.2369,-0.5807 0.5607,-1.0738 0.9714,-1.4795 0.4107,-0.4057 0.9003,-0.72388 1.4611,-0.95456 0.5607,-0.23068 1.1688,-0.34205 1.8243,-0.34205 0.6082,0 1.1689,0.10341 1.6823,0.30228 0.5133,0.19886 0.9556,0.50113 1.3347,0.89883 0.3712,0.3978 0.6713,0.8909 0.8845,1.4796 0.2212,0.6125 0.3238,1.3045 0.3238,2.092 z M 80.588,13.095 c 0,-0.2785 -0.0395,-0.5489 -0.1185,-0.8035 -0.079,-0.2545 -0.2053,-0.4852 -0.3712,-0.6761 -0.1659,-0.1909 -0.387,-0.35 -0.6476,-0.4693 -0.2606,-0.1193 -0.5686,-0.175 -0.9161,-0.175 -0.6556,0 -1.2084,0.1989 -1.6586,0.5966 -0.458,0.3977 -0.7029,0.9068 -0.7582,1.5273 z"
     fill="#ffffff"
     id="path10" />
  <path
     d="m 88.6201,5.41016 h 2.2903 V 18.3602 h -2.2903 z"
     fill="#ffffff"
     id="path12" />
  <path
     d="M 97.9553,11.9255 C 97.7579,11.671 97.4972,11.4482 97.1576,11.2573 96.818,11.0664 96.4468,10.971 96.0519,10.971 c -0.3475,0 -0.6713,0.0715 -0.9635,0.2227 -0.2922,0.1511 -0.4343,0.3898 -0.4343,0.7318 0,0.342 0.1579,0.5807 0.4817,0.7239 0.3238,0.1431 0.7898,0.2863 1.4058,0.4295 0.3238,0.0716 0.6555,0.1671 0.9872,0.2943 0.3317,0.1193 0.6318,0.2864 0.9083,0.4853 0.2764,0.1988 0.4896,0.4534 0.6634,0.7477 0.1658,0.3023 0.2527,0.6602 0.2527,1.0898 0,0.5329 -0.1027,0.9943 -0.3001,1.3602 -0.1975,0.3738 -0.466,0.6761 -0.7977,0.9068 -0.3317,0.2307 -0.7187,0.3977 -1.1609,0.5011 -0.4423,0.1034 -0.9004,0.1591 -1.3743,0.1591 -0.6792,0 -1.3347,-0.1272 -1.9823,-0.3738 -0.6476,-0.2466 -1.1767,-0.6046 -1.5953,-1.0739 L 93.58,15.8232 c 0.2448,0.3182 0.5607,0.5807 0.9477,0.7875 0.387,0.2068 0.8214,0.3103 1.2873,0.3103 0.158,0 0.3159,-0.016 0.4818,-0.0557 0.1658,-0.0398 0.3159,-0.0955 0.458,-0.175 0.1422,-0.0796 0.2528,-0.183 0.3397,-0.3182 0.0868,-0.1352 0.1263,-0.3023 0.1263,-0.4932 0,-0.3659 -0.1658,-0.6284 -0.4975,-0.7875 -0.3317,-0.1591 -0.8293,-0.3182 -1.5006,-0.4773 -0.3238,-0.0716 -0.6476,-0.167 -0.9556,-0.2863 -0.308,-0.1193 -0.5845,-0.2705 -0.8293,-0.4614 C 93.193,13.6755 93.0034,13.4448 92.8534,13.1585 92.7112,12.88 92.6322,12.53 92.6322,12.1164 c 0,-0.4852 0.1027,-0.9068 0.3002,-1.2648 0.1974,-0.35 0.4659,-0.6443 0.7897,-0.86701 0.3238,-0.22273 0.695,-0.38977 1.1057,-0.50114 0.4107,-0.11136 0.8372,-0.16704 1.2715,-0.16704 0.6319,0 1.2479,0.11136 1.8402,0.32613 0.6002,0.22273 1.0741,0.55686 1.4295,1.01026 z"
     fill="#ffffff"
     id="path14" />
  <path
     d="m 100.822,4.53516 h 2.18 V 18.3681 h -2.18 z"
     fill="#ffffff"
     id="path16" />
  <path
     d="m 110.615,17.2471 h -0.055 c -0.221,0.3898 -0.569,0.7079 -1.05,0.9625 -0.482,0.2466 -1.035,0.3739 -1.651,0.3739 -0.348,0 -0.719,-0.0478 -1.098,-0.1353 -0.379,-0.0954 -0.734,-0.2466 -1.05,-0.4613 -0.324,-0.2148 -0.585,-0.4932 -0.798,-0.8432 -0.213,-0.35 -0.316,-0.7796 -0.316,-1.2887 0,-0.6602 0.182,-1.1852 0.553,-1.575 0.371,-0.3897 0.845,-0.692 1.429,-0.8988 0.585,-0.2068 1.225,-0.3421 1.935,-0.4137 0.711,-0.0636 1.398,-0.1034 2.078,-0.1034 v -0.2227 c 0,-0.5489 -0.198,-0.9545 -0.593,-1.217 -0.395,-0.2625 -0.861,-0.3898 -1.406,-0.3898 -0.458,0 -0.9,0.0954 -1.326,0.2943 -0.427,0.1989 -0.774,0.4296 -1.051,0.7159 l -1.129,-1.3363 c 0.497,-0.4614 1.066,-0.81141 1.714,-1.04209 0.647,-0.23069 1.303,-0.35 1.974,-0.35 0.774,0 1.414,0.11136 1.919,0.32613 0.506,0.22273 0.901,0.50906 1.193,0.85906 0.292,0.358 0.489,0.7478 0.608,1.1932 0.118,0.4375 0.174,0.875 0.174,1.3205 v 5.3454 h -2.038 v -1.1136 z m -0.039,-2.8875 h -0.49 c -0.355,0 -0.719,0.0159 -1.106,0.0477 -0.387,0.0318 -0.742,0.0955 -1.074,0.1989 -0.323,0.1034 -0.6,0.2466 -0.821,0.4375 -0.221,0.1909 -0.324,0.4454 -0.324,0.7795 0,0.2068 0.048,0.3818 0.134,0.525 0.087,0.1432 0.206,0.2546 0.356,0.3421 0.142,0.0875 0.308,0.1432 0.489,0.1829 0.182,0.0398 0.364,0.0557 0.545,0.0557 0.751,0 1.319,-0.1989 1.706,-0.6045 0.387,-0.4057 0.585,-0.9546 0.585,-1.6466 z"
     fill="#ffffff"
     id="path18" />
  <path
     d="m 114.738,9.58658 h 2.069 v 1.40792 h 0.039 c 0.198,-0.4375 0.53,-0.8272 1.011,-1.16133 0.482,-0.33409 1.043,-0.50114 1.698,-0.50114 0.569,0 1.059,0.10341 1.461,0.30227 0.403,0.19887 0.743,0.4693 1.004,0.7955 0.26,0.3261 0.45,0.7079 0.568,1.1375 0.119,0.4295 0.182,0.867 0.182,1.3204 v 5.4886 h -2.18 v -4.8681 c 0,-0.2546 -0.016,-0.525 -0.055,-0.8034 -0.04,-0.2785 -0.119,-0.533 -0.237,-0.7557 -0.119,-0.2228 -0.285,-0.4137 -0.498,-0.5568 -0.213,-0.1432 -0.489,-0.2228 -0.845,-0.2228 -0.355,0 -0.655,0.0716 -0.908,0.2068 -0.253,0.1432 -0.466,0.3182 -0.624,0.541 -0.166,0.2227 -0.284,0.4693 -0.371,0.7556 -0.087,0.2864 -0.127,0.5728 -0.127,0.8671 v 4.8284 h -2.179 V 9.58658 Z"
     fill="#ffffff"
     id="path20" />
  <path
     d="m 133.716,18.3681 h -2.069 v -1.3204 h -0.04 c -0.3,0.509 -0.726,0.8988 -1.263,1.1693 -0.537,0.2704 -1.114,0.4057 -1.738,0.4057 -0.663,0 -1.263,-0.1273 -1.792,-0.3739 -0.53,-0.2466 -0.972,-0.5886 -1.343,-1.0102 -0.371,-0.4216 -0.656,-0.9148 -0.853,-1.4796 -0.197,-0.5648 -0.3,-1.1773 -0.3,-1.8216 0,-0.6443 0.103,-1.2488 0.308,-1.8136 0.205,-0.5648 0.497,-1.05 0.869,-1.4636 0.371,-0.4137 0.821,-0.73982 1.342,-0.97845 0.521,-0.23864 1.09,-0.35796 1.706,-0.35796 0.403,0 0.758,0.04773 1.074,0.13523 0.316,0.0875 0.593,0.20682 0.829,0.34204 0.237,0.13523 0.443,0.27844 0.609,0.43754 0.165,0.1591 0.308,0.3102 0.418,0.4534 h 0.055 V 4.53516 h 2.18 V 18.3681 Z m -7.171,-4.4307 c 0,0.3421 0.055,0.6841 0.158,1.0262 0.103,0.342 0.261,0.6443 0.466,0.9147 0.205,0.2705 0.466,0.4853 0.782,0.6603 0.316,0.167 0.687,0.2545 1.106,0.2545 0.402,0 0.758,-0.0795 1.074,-0.2466 0.316,-0.167 0.584,-0.3818 0.805,-0.6523 0.221,-0.2704 0.395,-0.5727 0.506,-0.9068 0.118,-0.3341 0.173,-0.6761 0.173,-1.0182 0,-0.342 -0.055,-0.684 -0.173,-1.0261 -0.119,-0.342 -0.285,-0.6443 -0.506,-0.9148 -0.221,-0.2704 -0.489,-0.4852 -0.805,-0.6602 -0.316,-0.167 -0.672,-0.2545 -1.074,-0.2545 -0.427,0 -0.79,0.0795 -1.106,0.2466 -0.316,0.167 -0.577,0.3818 -0.782,0.6522 -0.205,0.2705 -0.363,0.5728 -0.466,0.9068 -0.103,0.3421 -0.158,0.6762 -0.158,1.0182 z"
     fill="#ffffff"
     id="path22" />
  <path
     d="m 31.7485,21.3184 h 5.0151 c 0.4818,0 0.9635,0.0556 1.4374,0.175 0.4738,0.1193 0.8924,0.3022 1.2636,0.5647 0.3712,0.2625 0.6713,0.6046 0.9004,1.0182 0.229,0.4136 0.3475,0.9148 0.3475,1.5034 0,0.7318 -0.2054,1.3364 -0.6161,1.8137 -0.4107,0.4772 -0.9477,0.8193 -1.619,1.0261 v 0.0398 c 0.8135,0.1113 1.4769,0.4295 1.9981,0.9545 0.5213,0.525 0.7819,1.225 0.7819,2.108 0,0.7079 -0.1422,1.3045 -0.4186,1.7818 -0.2764,0.4852 -0.6476,0.867 -1.0978,1.1613 -0.4501,0.2944 -0.9714,0.5012 -1.5637,0.6285 -0.5845,0.1272 -1.1847,0.1909 -1.7928,0.1909 h -4.636 z m 2.2825,5.2738 h 2.0376 c 0.7661,0 1.3426,-0.1511 1.7454,-0.4534 0.4028,-0.3023 0.6002,-0.7398 0.6002,-1.2966 0,-0.5886 -0.2053,-1.0023 -0.616,-1.2409 -0.4107,-0.2466 -1.0504,-0.3659 -1.9271,-0.3659 h -1.8322 v 3.3568 z m 0,5.7432 h 2.0534 c 0.2922,0 0.6081,-0.0239 0.9477,-0.0636 0.3396,-0.0398 0.6476,-0.1273 0.9319,-0.2625 0.2844,-0.1353 0.5213,-0.3262 0.7108,-0.5887 0.1896,-0.2545 0.2844,-0.5966 0.2844,-1.0261 0,-0.6841 -0.2291,-1.1614 -0.6871,-1.4239 -0.4581,-0.2704 -1.1531,-0.4057 -2.085,-0.4057 h -2.1403 v 3.7705 z"
     fill="#ffffff"
     id="path24" />
  <path
     d="M 42.9712,20.4434 H 45.151 V 34.2763 H 42.9712 Z"
     fill="#ffffff"
     id="path26" />
  <path
     d="m 46.8413,29.8459 c 0,-0.692 0.1264,-1.3284 0.3712,-1.8932 0.2448,-0.5647 0.5844,-1.05 1.0109,-1.4556 0.4265,-0.4057 0.924,-0.716 1.5085,-0.9307 0.5844,-0.2228 1.2004,-0.3262 1.8559,-0.3262 0.6556,0 1.2716,0.1114 1.856,0.3262 0.5844,0.2227 1.082,0.5329 1.5085,0.9307 0.4265,0.4056 0.7582,0.8909 1.0109,1.4556 0.2448,0.5648 0.3712,1.2012 0.3712,1.8932 0,0.6921 -0.1264,1.3284 -0.3712,1.9012 -0.2448,0.5727 -0.5844,1.0659 -1.0109,1.4715 -0.4265,0.4057 -0.9241,0.7319 -1.5085,0.9625 -0.5844,0.2307 -1.2004,0.35 -1.856,0.35 -0.6555,0 -1.2715,-0.1193 -1.8559,-0.35 -0.5845,-0.2306 -1.082,-0.5488 -1.5085,-0.9625 -0.4265,-0.4056 -0.7582,-0.8988 -1.0109,-1.4715 -0.2527,-0.5728 -0.3712,-1.2091 -0.3712,-1.9012 z m 2.2114,0 c 0,0.3421 0.0474,0.6841 0.1579,1.0262 0.1027,0.342 0.2607,0.6443 0.466,0.9147 0.2053,0.2705 0.466,0.4853 0.7819,0.6603 0.3159,0.175 0.6871,0.2545 1.1293,0.2545 0.4344,0 0.8135,-0.0875 1.1294,-0.2545 0.3159,-0.1671 0.5766,-0.3898 0.7819,-0.6603 0.2053,-0.2704 0.3633,-0.5727 0.466,-0.9147 0.1026,-0.3421 0.1579,-0.6841 0.1579,-1.0262 0,-0.342 -0.0553,-0.6761 -0.1579,-1.0182 -0.1027,-0.342 -0.2607,-0.6363 -0.466,-0.9068 -0.2053,-0.2704 -0.466,-0.4852 -0.7819,-0.6523 -0.3159,-0.167 -0.6871,-0.2465 -1.1294,-0.2465 -0.4343,0 -0.8134,0.0795 -1.1293,0.2465 -0.3159,0.1671 -0.5766,0.3819 -0.7819,0.6523 -0.2053,0.2705 -0.3633,0.5727 -0.466,0.9068 -0.1026,0.3421 -0.1579,0.6762 -0.1579,1.0182 z"
     fill="#ffffff"
     id="path28" />
  <path
     d="m 57.4634,29.8459 c 0,-0.692 0.1263,-1.3284 0.3712,-1.8932 0.2448,-0.5647 0.5844,-1.05 1.0109,-1.4556 0.4265,-0.4057 0.924,-0.716 1.5084,-0.9307 0.5845,-0.2228 1.2005,-0.3262 1.856,-0.3262 0.6555,0 1.2715,0.1114 1.856,0.3262 0.5844,0.2227 1.082,0.5329 1.5084,0.9307 0.4265,0.3977 0.7582,0.8909 1.011,1.4556 0.2448,0.5648 0.3711,1.2012 0.3711,1.8932 0,0.6921 -0.1263,1.3284 -0.3711,1.9012 -0.2449,0.5727 -0.5845,1.0659 -1.011,1.4715 -0.4264,0.4057 -0.924,0.7319 -1.5084,0.9625 -0.5845,0.2307 -1.2005,0.35 -1.856,0.35 -0.6555,0 -1.2715,-0.1193 -1.856,-0.35 C 59.7695,33.9505 59.272,33.6323 58.8455,33.2186 58.419,32.813 58.0873,32.3198 57.8346,31.7471 57.5897,31.1743 57.4634,30.538 57.4634,29.8459 Z m 2.2192,0 c 0,0.3421 0.0553,0.6841 0.158,1.0262 0.1027,0.342 0.2606,0.6443 0.466,0.9147 0.2053,0.2705 0.4659,0.4853 0.7818,0.6603 0.3159,0.167 0.6871,0.2545 1.1294,0.2545 0.4423,0 0.8135,-0.0875 1.1294,-0.2545 0.3159,-0.1671 0.5765,-0.3898 0.7819,-0.6603 0.2053,-0.2704 0.3633,-0.5727 0.4659,-0.9147 0.1027,-0.3421 0.158,-0.6841 0.158,-1.0262 0,-0.342 -0.0553,-0.6761 -0.158,-1.0182 -0.1026,-0.3341 -0.2606,-0.6363 -0.4659,-0.9068 -0.2054,-0.2704 -0.466,-0.4852 -0.7819,-0.6523 -0.3159,-0.167 -0.6871,-0.2465 -1.1294,-0.2465 -0.4423,0 -0.8135,0.0795 -1.1294,0.2465 -0.3159,0.1671 -0.5765,0.3819 -0.7818,0.6523 -0.2054,0.2705 -0.3633,0.5727 -0.466,0.9068 -0.1106,0.3421 -0.158,0.6762 -0.158,1.0182 z"
     fill="#ffffff"
     id="path30" />
  <path
     d="m 77.4686,34.2763 h -2.0692 v -1.3204 h -0.0395 c -0.3001,0.5091 -0.7266,0.8988 -1.2636,1.1693 -0.5371,0.2704 -1.1136,0.4057 -1.7375,0.4057 -0.6634,0 -1.2637,-0.1273 -1.7928,-0.3739 -0.5292,-0.2466 -0.9714,-0.5886 -1.3426,-1.0102 -0.3712,-0.4216 -0.6555,-0.9148 -0.853,-1.4796 -0.1974,-0.5647 -0.3001,-1.1772 -0.3001,-1.8216 0,-0.6443 0.1027,-1.2488 0.308,-1.8136 0.2054,-0.5648 0.4976,-1.05 0.8688,-1.4636 0.3791,-0.4137 0.8213,-0.7398 1.3426,-0.9785 0.5212,-0.2386 1.0899,-0.3579 1.7059,-0.3579 0.4028,0 0.7582,0.0477 1.0741,0.1352 0.3159,0.0875 0.5923,0.2068 0.8292,0.3421 0.237,0.1352 0.4423,0.2784 0.6082,0.4375 0.1658,0.1591 0.308,0.3102 0.4186,0.4534 h 0.0552 v -6.1568 h 2.1798 v 13.8329 z m -7.179,-4.4307 c 0,0.3421 0.0474,0.6841 0.1579,1.0262 0.1027,0.342 0.2607,0.6443 0.466,0.9147 0.2053,0.2705 0.466,0.4853 0.7819,0.6603 0.3159,0.175 0.6871,0.2545 1.1057,0.2545 0.4027,0 0.7581,-0.0795 1.074,-0.2466 0.316,-0.167 0.5845,-0.3818 0.8056,-0.6523 0.2211,-0.2704 0.3949,-0.5727 0.5055,-0.9068 0.1184,-0.3341 0.1737,-0.6761 0.1737,-1.0181 0,-0.3421 -0.0553,-0.6841 -0.1737,-1.0262 -0.1185,-0.342 -0.2844,-0.6443 -0.5055,-0.9148 -0.2211,-0.2704 -0.4896,-0.4852 -0.8056,-0.6602 -0.3159,-0.167 -0.6713,-0.2545 -1.074,-0.2545 -0.4265,0 -0.7898,0.0795 -1.1057,0.2466 -0.3159,0.167 -0.5766,0.3818 -0.7819,0.6522 -0.2053,0.2705 -0.3633,0.5728 -0.466,0.9069 -0.1026,0.342 -0.1579,0.6761 -0.1579,1.0181 z"
     fill="#ffffff"
     id="path32" />
  <path
     d="m 93.3431,24.3586 c -0.3396,-0.4613 -0.7819,-0.8034 -1.3268,-1.0182 -0.545,-0.2147 -1.082,-0.3181 -1.5953,-0.3181 -0.6635,0 -1.2716,0.1193 -1.8165,0.3659 -0.545,0.2466 -1.0109,0.5807 -1.4058,1.0102 -0.3949,0.4295 -0.695,0.9307 -0.9083,1.5034 -0.2132,0.5727 -0.3159,1.1932 -0.3159,1.8693 0,0.708 0.1027,1.3523 0.308,1.9409 0.2054,0.5887 0.4976,1.0898 0.8846,1.5114 0.3791,0.4216 0.8372,0.7477 1.3742,0.9784 0.5291,0.2307 1.1294,0.35 1.8007,0.35 0.6871,0 1.3031,-0.1352 1.8323,-0.4136 0.5291,-0.2705 0.9635,-0.6364 1.2873,-1.0898 l 1.8323,1.2966 c -0.5687,0.7159 -1.2637,1.2807 -2.093,1.6704 -0.8213,0.3978 -1.7848,0.5966 -2.8905,0.5966 -1.003,0 -1.9271,-0.167 -2.7721,-0.5011 -0.8451,-0.3341 -1.5638,-0.8034 -2.1719,-1.408 -0.6081,-0.6045 -1.082,-1.3204 -1.4137,-2.1556 -0.3396,-0.8353 -0.5054,-1.758 -0.5054,-2.7682 0,-1.0341 0.1816,-1.9727 0.537,-2.808 0.3554,-0.8352 0.8451,-1.5432 1.469,-2.1318 0.6239,-0.5886 1.3584,-1.0341 2.2035,-1.3523 0.845,-0.3181 1.769,-0.4772 2.7642,-0.4772 0.4106,0 0.845,0.0397 1.2873,0.1193 0.4423,0.0795 0.8766,0.1988 1.2873,0.3659 0.4107,0.167 0.7977,0.3659 1.161,0.6125 0.3633,0.2466 0.6713,0.5329 0.924,0.875 z"
     fill="#ffffff"
     id="path34" />
  <path
     d="m 104.605,29.9895 c 0,0.0955 0,0.1989 0,0.2943 0,0.0955 -0.008,0.1989 -0.016,0.2944 h -6.626 c 0.0237,0.3181 0.1027,0.6045 0.2448,0.867 0.1422,0.2625 0.3238,0.4852 0.5529,0.6761 0.229,0.191 0.4896,0.3421 0.7818,0.4455 0.2922,0.1114 0.5925,0.167 0.9085,0.167 0.545,0 1.003,-0.1034 1.382,-0.3022 0.379,-0.1989 0.687,-0.4773 0.924,-0.8353 l 1.453,1.1694 c -0.861,1.1693 -2.109,1.7579 -3.743,1.7579 -0.6796,0 -1.3036,-0.1034 -1.8722,-0.3182 -0.5686,-0.2147 -1.0662,-0.517 -1.4769,-0.9068 -0.4186,-0.3898 -0.7424,-0.867 -0.9793,-1.4398 -0.2369,-0.5727 -0.3554,-1.209 -0.3554,-1.9329 0,-0.708 0.1185,-1.3523 0.3554,-1.933 0.2369,-0.5807 0.5607,-1.0738 0.9714,-1.4795 0.4107,-0.4057 0.9004,-0.7239 1.4611,-0.9546 0.5607,-0.2306 1.1689,-0.342 1.8239,-0.342 0.609,0 1.169,0.1034 1.683,0.3023 0.513,0.1988 0.963,0.5011 1.334,0.8988 0.38,0.3978 0.672,0.8909 0.885,1.4796 0.197,0.6125 0.308,1.3045 0.308,2.092 z m -2.18,-0.9863 c 0,-0.2784 -0.039,-0.5489 -0.118,-0.8034 -0.079,-0.2546 -0.206,-0.4853 -0.371,-0.6762 -0.166,-0.1989 -0.387,-0.35 -0.648,-0.4693 -0.261,-0.1193 -0.569,-0.175 -0.916,-0.175 -0.6557,0 -1.2086,0.1989 -1.6587,0.5966 -0.4581,0.3977 -0.7029,0.9068 -0.7503,1.5273 z"
     fill="#ffffff"
     id="path36" />
  <path
     d="m 106.256,25.4948 h 2.069 v 1.4079 h 0.04 c 0.197,-0.4375 0.529,-0.8272 1.01,-1.1613 0.482,-0.3341 1.043,-0.5012 1.698,-0.5012 0.569,0 1.059,0.1034 1.462,0.3023 0.402,0.1989 0.734,0.4693 0.995,0.7955 0.26,0.3261 0.45,0.7079 0.568,1.1375 0.119,0.4295 0.182,0.867 0.182,1.3204 v 5.4887 h -2.18 v -4.8682 c 0,-0.2546 -0.016,-0.525 -0.055,-0.8034 -0.04,-0.2784 -0.119,-0.533 -0.237,-0.7557 -0.118,-0.2227 -0.284,-0.4137 -0.498,-0.5568 -0.213,-0.1432 -0.489,-0.2228 -0.845,-0.2228 -0.355,0 -0.655,0.0716 -0.908,0.2069 -0.253,0.1352 -0.466,0.3181 -0.624,0.5409 -0.166,0.2227 -0.284,0.4693 -0.371,0.7556 -0.087,0.2864 -0.126,0.5728 -0.126,0.8671 v 4.8284 h -2.18 z"
     fill="#ffffff"
     id="path38" />
  <path
     d="m 115.48,27.2448 v -1.7579 h 1.525 v -2.5455 h 2.14 v 2.5455 h 2.18 v 1.7579 h -2.18 v 4.0807 c 0,0.3898 0.071,0.7159 0.205,0.9704 0.143,0.2546 0.451,0.3819 0.932,0.3819 0.142,0 0.3,-0.0159 0.474,-0.0478 0.166,-0.0318 0.324,-0.0795 0.45,-0.1352 l 0.071,1.7182 c -0.197,0.0716 -0.426,0.1273 -0.687,0.175 -0.268,0.0398 -0.521,0.0636 -0.766,0.0636 -0.584,0 -1.05,-0.0795 -1.413,-0.2466 -0.364,-0.167 -0.648,-0.3897 -0.861,-0.6761 -0.214,-0.2864 -0.356,-0.6125 -0.435,-0.9864 -0.079,-0.3738 -0.118,-0.7715 -0.118,-1.2011 v -4.0966 z"
     fill="#ffffff"
     id="path40" />
  <path
     d="m 131.141,29.9895 c 0,0.0955 0,0.1989 0,0.2943 0,0.0955 -0.008,0.1989 -0.016,0.2944 h -6.634 c 0.024,0.3181 0.103,0.6045 0.245,0.867 0.142,0.2625 0.324,0.4852 0.553,0.6761 0.229,0.191 0.49,0.3421 0.782,0.4455 0.292,0.1114 0.592,0.167 0.908,0.167 0.545,0 1.003,-0.1034 1.382,-0.3022 0.371,-0.1989 0.687,-0.4773 0.924,-0.8353 l 1.453,1.1694 c -0.86,1.1693 -2.108,1.7579 -3.743,1.7579 -0.679,0 -1.303,-0.1034 -1.872,-0.3182 -0.568,-0.2147 -1.066,-0.517 -1.485,-0.9068 -0.418,-0.3898 -0.742,-0.867 -0.979,-1.4398 -0.237,-0.5727 -0.355,-1.209 -0.355,-1.9329 0,-0.708 0.118,-1.3523 0.355,-1.933 0.237,-0.5807 0.561,-1.0738 0.972,-1.4795 0.41,-0.4057 0.9,-0.7239 1.461,-0.9546 0.56,-0.2306 1.168,-0.342 1.824,-0.342 0.608,0 1.169,0.1034 1.682,0.3023 0.514,0.1988 0.956,0.5011 1.335,0.8988 0.371,0.3978 0.671,0.8909 0.884,1.4796 0.222,0.6125 0.324,1.3045 0.324,2.092 z m -2.18,-0.9863 c 0,-0.2784 -0.039,-0.5489 -0.118,-0.8034 -0.079,-0.2546 -0.205,-0.4853 -0.371,-0.6762 -0.166,-0.1909 -0.387,-0.35 -0.648,-0.4693 -0.26,-0.1193 -0.568,-0.175 -0.916,-0.175 -0.655,0 -1.208,0.1989 -1.658,0.5966 -0.459,0.3977 -0.703,0.9068 -0.759,1.5273 z"
     fill="#ffffff"
     id="path42" />
  <path
     d="m 133.155,25.4948 h 2.093 v 1.4636 h 0.04 c 0.244,-0.5091 0.584,-0.9307 1.018,-1.2409 0.435,-0.3182 0.948,-0.4773 1.525,-0.4773 0.087,0 0.173,0 0.276,0.008 0.095,0.0079 0.182,0.0239 0.253,0.0477 v 2.0125 c -0.142,-0.0398 -0.269,-0.0636 -0.371,-0.0716 -0.103,-0.0159 -0.206,-0.0159 -0.3,-0.0159 -0.498,0 -0.893,0.0875 -1.201,0.2705 -0.3,0.1829 -0.537,0.4057 -0.711,0.6602 -0.166,0.2545 -0.284,0.517 -0.347,0.7875 -0.063,0.2705 -0.087,0.4852 -0.087,0.6364 v 4.7011 h -2.18 v -8.7818 z"
     fill="#ffffff"
     id="path44" />
  <path
     d="m 1.56348,27.4121 c 0.84505,2.0921 2.26664,3.9216 4.20159,5.2102 0.03949,0.0239 0.07898,0.0557 0.11846,0.0796 1.83228,1.1852 4.10682,1.9011 6.78417,1.9011 0.1027,0 0.1974,-0.0079 0.3001,-0.0159 0.0948,0.008 0.1974,0.0159 0.3001,0.0159 2.6773,0 4.9519,-0.7079 6.7842,-1.9011 0.0394,-0.0239 0.0789,-0.0557 0.1184,-0.0796 1.935,-1.2886 3.3487,-3.1181 4.2016,-5.2102 z"
     fill="#fc1921"
     id="path46" />
  <path
     d="m 24.5618,26.879 c 0.4659,-1.3284 0.7108,-2.7523 0.7108,-4.2 0,-0.2784 -0.0079,-0.5568 -0.0316,-0.8352 H 0.679053 c -0.015796,0.2784 -0.031592,0.5568 -0.031592,0.8352 0,1.4477 0.244829,2.8716 0.710799,4.2 z"
     fill="#fc1921"
     id="path48" />
  <path
     d="M 23.5112,16.4512 H 2.40844 C 1.56338,17.8273 0.986847,19.3864 0.757812,21.0569 H 25.1618 c -0.229,-1.6705 -0.8056,-3.2296 -1.6506,-4.6057 z"
     fill="#fc1921"
     id="path50" />
  <path
     d="M 20.0049,11.0566 H 5.91532 L 3.63287,14.5089 3.1748,15.2328 h 19.5706 z"
     fill="#fc1921"
     id="path52" />
  <path
     d="m 22.2873,14.5089 -2.2824,-3.4523 2.7405,4.1762 z"
     fill="#fc1921"
     id="path54" />
  <path
     d="M 16.4427,5.66406 H 9.47687 L 7.00488,9.41065 H 18.9147 Z"
     fill="#fc1921"
     id="path56" />
  <path
     d="M 12.9603,0.398438 10.8516,3.58821 h 4.2173 z"
     fill="#fc1921"
     id="path58" />
</svg>
