<?xml version="1.0" encoding="UTF-8" standalone="no"?>
<svg
   width="136"
   height="60"
   viewBox="0 0 136 60"
   fill="none"
   version="1.1"
   id="svg46"
   sodipodi:docname="community.svg"
   inkscape:version="1.1.2 (b8e25be8, 2022-02-05)"
   xmlns:inkscape="http://www.inkscape.org/namespaces/inkscape"
   xmlns:sodipodi="http://sodipodi.sourceforge.net/DTD/sodipodi-0.dtd"
   xmlns="http://www.w3.org/2000/svg"
   xmlns:svg="http://www.w3.org/2000/svg">
  <defs
     id="defs50" />
  <sodipodi:namedview
     id="namedview48"
     pagecolor="#505050"
     bordercolor="#ffffff"
     borderopacity="1"
     inkscape:pageshadow="0"
     inkscape:pageopacity="0"
     inkscape:pagecheckerboard="1"
     showgrid="false"
     height="60px"
     inkscape:zoom="8.2867647"
     inkscape:cx="34.331855"
     inkscape:cy="34.995563"
     inkscape:window-width="1296"
     inkscape:window-height="966"
     inkscape:window-x="0"
     inkscape:window-y="38"
     inkscape:window-maximized="0"
     inkscape:current-layer="svg46" />
  <path
     d="m 40.7845,16.8381 c -0.3342,-0.4376 -0.7694,-0.762 -1.3056,-0.9656 -0.5363,-0.2037 -1.0647,-0.3018 -1.5699,-0.3018 -0.6528,0 -1.2512,0.1132 -1.7874,0.347 -0.5362,0.2339 -0.9947,0.5507 -1.3833,0.9581 -0.3886,0.4074 -0.6839,0.8826 -0.8937,1.4258 -0.2098,0.5431 -0.3109,1.1316 -0.3109,1.7728 0,0.6714 0.1011,1.2824 0.3031,1.8407 0.2021,0.5582 0.4896,1.0335 0.8704,1.4333 0.373,0.3998 0.8238,0.7091 1.3522,0.9279 0.5207,0.2188 1.1114,0.3319 1.7719,0.3319 0.6761,0 1.2823,-0.1282 1.803,-0.3922 0.5207,-0.2565 0.9481,-0.6035 1.2667,-1.0335 l 1.803,1.2296 c -0.5595,0.679 -1.2434,1.2146 -2.0594,1.5842 -0.8082,0.3772 -1.7564,0.5658 -2.8444,0.5658 -0.9869,0 -1.8962,-0.1584 -2.7277,-0.4753 -0.8316,-0.3168 -1.5388,-0.7619 -2.1372,-1.3352 -0.5984,-0.5734 -1.0647,-1.2523 -1.3911,-2.0444 -0.3341,-0.7921 -0.4973,-1.6672 -0.4973,-2.6253 0,-0.9807 0.1787,-1.8708 0.5284,-2.6629 0.3497,-0.7922 0.8316,-1.4636 1.4455,-2.0218 0.614,-0.5582 1.3367,-0.9807 2.1682,-1.2825 0.8316,-0.3017 1.7408,-0.4526 2.72,-0.4526 0.4042,0 0.8316,0.0377 1.2668,0.1132 0.443,0.0754 0.8626,0.1886 1.2667,0.347 0.4041,0.1584 0.7849,0.347 1.1424,0.5809 0.3575,0.2338 0.6606,0.5054 0.9093,0.8298 z"
     fill="#ffffff"
     id="path2" />
  <path
     d="m 43.1782,22.0437 c 0,-0.6563 0.1244,-1.2598 0.3653,-1.7955 0.2409,-0.5356 0.5751,-0.9958 0.9947,-1.3805 0.4197,-0.3847 0.9093,-0.6789 1.4844,-0.8826 0.5751,-0.2112 1.1812,-0.3093 1.8263,-0.3093 0.645,0 1.2512,0.1056 1.8262,0.3093 0.5751,0.2112 1.0647,0.5054 1.4844,0.8826 0.4196,0.3847 0.746,0.8449 0.9947,1.3805 0.2409,0.5357 0.3653,1.1392 0.3653,1.7955 0,0.6563 -0.1244,1.2598 -0.3653,1.803 -0.2409,0.5431 -0.5751,1.0108 -0.9947,1.3956 -0.4197,0.3847 -0.9093,0.694 -1.4844,0.9128 -0.575,0.2187 -1.1812,0.3319 -1.8262,0.3319 -0.6451,0 -1.2512,-0.1132 -1.8263,-0.3319 C 45.4475,25.9363 44.9579,25.6346 44.5382,25.2423 44.1186,24.85 43.7922,24.3898 43.5435,23.8467 43.2948,23.3035 43.1782,22.7 43.1782,22.0437 Z m 2.176,0 c 0,0.3244 0.0467,0.6487 0.1555,0.9731 0.101,0.3244 0.2564,0.6111 0.4585,0.8676 0.202,0.2565 0.4585,0.4602 0.7693,0.6261 0.3109,0.1584 0.6762,0.2414 1.1114,0.2414 0.4274,0 0.8004,-0.083 1.1113,-0.2414 0.3108,-0.1584 0.5673,-0.3696 0.7693,-0.6261 0.2021,-0.2565 0.3575,-0.5432 0.4586,-0.8676 0.101,-0.3244 0.1554,-0.6487 0.1554,-0.9731 0,-0.3244 -0.0544,-0.6413 -0.1554,-0.9656 -0.1011,-0.3169 -0.2565,-0.6035 -0.4586,-0.86 -0.202,-0.2565 -0.4585,-0.4602 -0.7693,-0.6186 -0.3109,-0.1585 -0.6761,-0.2339 -1.1113,-0.2339 -0.4275,0 -0.8005,0.0754 -1.1114,0.2339 -0.3108,0.1584 -0.5673,0.3621 -0.7693,0.6186 -0.2021,0.2565 -0.3575,0.5431 -0.4585,0.86 -0.1011,0.3243 -0.1555,0.6412 -0.1555,0.9656 z"
     fill="#ffffff"
     id="path4" />
  <path
     d="m 64.7359,17.668 c 0.5596,0 1.0414,0.098 1.4377,0.2866 0.3964,0.1886 0.7305,0.4451 0.987,0.7544 0.2564,0.3093 0.443,0.6714 0.5595,1.0788 0.1166,0.4074 0.1788,0.8223 0.1788,1.2523 v 5.2052 H 65.754 v -4.6168 c 0,-0.2414 -0.0156,-0.4979 -0.0544,-0.7619 -0.0389,-0.2641 -0.1166,-0.5055 -0.2332,-0.7167 -0.1166,-0.2112 -0.2798,-0.3923 -0.4896,-0.5281 -0.2098,-0.1358 -0.4818,-0.2112 -0.8315,-0.2112 -0.3342,0 -0.6217,0.0679 -0.8549,0.2112 -0.2409,0.1358 -0.4352,0.3169 -0.5906,0.5356 -0.1554,0.2188 -0.2642,0.4678 -0.342,0.7393 -0.0699,0.2716 -0.1088,0.5432 -0.1088,0.8072 v 4.549 h -2.1449 v -5.0318 c 0,-0.5205 -0.1321,-0.9505 -0.3808,-1.29 -0.2487,-0.3394 -0.6605,-0.513 -1.2045,-0.513 -0.3187,0 -0.5984,0.0679 -0.8394,0.1962 -0.2409,0.1358 -0.4352,0.3017 -0.5828,0.513 -0.1477,0.2112 -0.2642,0.4451 -0.342,0.7166 -0.0777,0.2716 -0.1165,0.5432 -0.1165,0.8223 v 4.5791 h -2.1449 v -8.3284 h 2.0361 v 1.3353 h 0.0388 c 0.0933,-0.2112 0.2254,-0.4074 0.3808,-0.5884 0.1555,-0.1811 0.3497,-0.3546 0.5751,-0.5055 0.2176,-0.1509 0.4741,-0.2716 0.7616,-0.3545 0.2876,-0.0906 0.5984,-0.1283 0.9481,-0.1283 0.6684,0 1.2201,0.1433 1.6631,0.43 0.443,0.2867 0.7772,0.6714 1.0181,1.1467 0.2875,-0.5055 0.6683,-0.8977 1.1424,-1.1693 0.474,-0.2716 1.0336,-0.4149 1.6786,-0.4149 z"
     fill="#ffffff"
     id="path6" />
  <path
     d="m 80.5508,17.668 c 0.5596,0 1.0414,0.098 1.4378,0.2866 0.3963,0.1886 0.7305,0.4451 0.9869,0.7544 0.2565,0.3093 0.443,0.6714 0.5596,1.0788 0.1166,0.4074 0.1787,0.8223 0.1787,1.2523 v 5.2052 h -2.1449 v -4.6168 c 0,-0.2414 -0.0155,-0.4979 -0.0544,-0.7619 -0.0389,-0.2641 -0.1166,-0.5055 -0.2331,-0.7167 -0.1166,-0.2112 -0.2798,-0.3923 -0.4896,-0.5281 -0.2099,-0.1358 -0.4819,-0.2112 -0.8316,-0.2112 -0.3342,0 -0.6217,0.0679 -0.8548,0.2112 -0.241,0.1358 -0.4352,0.3169 -0.5907,0.5356 -0.1554,0.2188 -0.2642,0.4678 -0.3419,0.7393 -0.07,0.2716 -0.1088,0.5432 -0.1088,0.8072 v 4.549 h -2.1449 v -5.0318 c 0,-0.5205 -0.1321,-0.9505 -0.3808,-1.29 -0.2487,-0.3394 -0.6606,-0.513 -1.2046,-0.513 -0.3186,0 -0.5984,0.0679 -0.8393,0.1962 -0.2409,0.1358 -0.4352,0.3017 -0.5829,0.513 -0.1476,0.2112 -0.2642,0.4451 -0.3419,0.7166 -0.0777,0.2716 -0.1166,0.5432 -0.1166,0.8223 v 4.5791 h -2.1449 v -8.3284 h 2.0361 v 1.3353 h 0.0389 c 0.0932,-0.2112 0.2253,-0.4074 0.3808,-0.5884 0.1554,-0.1811 0.3497,-0.3546 0.5751,-0.5055 0.2176,-0.1509 0.474,-0.2716 0.7616,-0.3545 0.2875,-0.0906 0.5984,-0.1283 0.9481,-0.1283 0.6683,0 1.2201,0.1433 1.6631,0.43 0.4429,0.2867 0.7771,0.6714 1.018,1.1467 0.2876,-0.5055 0.6684,-0.8977 1.1424,-1.1693 0.4741,-0.2716 1.0336,-0.4149 1.6786,-0.4149 z"
     fill="#ffffff"
     id="path8" />
  <path
     d="m 93.9568,26.2461 h -2.0362 v -1.3352 h -0.0388 c -0.1943,0.4149 -0.5207,0.7845 -0.9948,1.1014 -0.474,0.3168 -1.0258,0.4752 -1.6708,0.4752 -0.5595,0 -1.0414,-0.098 -1.4377,-0.2866 -0.3964,-0.1886 -0.7305,-0.4451 -0.987,-0.7544 -0.2565,-0.3093 -0.443,-0.6714 -0.5595,-1.0788 -0.1166,-0.4074 -0.1788,-0.8223 -0.1788,-1.2523 v -5.2052 h 2.1449 v 4.6168 c 0,0.2414 0.0156,0.4979 0.0544,0.7619 0.0389,0.2641 0.1166,0.5055 0.2332,0.7167 0.1166,0.2112 0.2798,0.3923 0.4896,0.5281 0.2098,0.1358 0.4818,0.2112 0.8315,0.2112 0.3342,0 0.6295,-0.0679 0.886,-0.1961 0.2564,-0.1358 0.4662,-0.3018 0.6217,-0.513 0.1554,-0.2113 0.2798,-0.4451 0.3652,-0.7167 0.0855,-0.2716 0.1244,-0.5432 0.1244,-0.8223 v -4.5791 h 2.1449 v 8.3284 z"
     fill="#ffffff"
     id="path10" />
  <path
     d="m 96.4434,17.9172 h 2.0361 v 1.3352 h 0.0388 c 0.1943,-0.4149 0.5207,-0.7845 0.9948,-1.1014 0.474,-0.3168 1.0259,-0.4752 1.6709,-0.4752 0.559,0 1.041,0.0981 1.438,0.2866 0.396,0.1886 0.73,0.4451 0.987,0.7544 0.256,0.3093 0.443,0.6714 0.559,1.0788 0.117,0.4074 0.179,0.8223 0.179,1.2523 v 5.2052 h -2.145 v -4.6168 c 0,-0.2414 -0.016,-0.4979 -0.054,-0.7619 -0.039,-0.2641 -0.117,-0.5055 -0.234,-0.7167 -0.116,-0.2112 -0.279,-0.3923 -0.489,-0.5281 -0.21,-0.1357 -0.482,-0.2112 -0.832,-0.2112 -0.349,0 -0.6447,0.0679 -0.8934,0.1962 -0.2487,0.1357 -0.4585,0.3017 -0.614,0.5129 -0.1632,0.2113 -0.2797,0.4451 -0.3652,0.7167 -0.0855,0.2716 -0.1244,0.5432 -0.1244,0.8223 v 4.5791 h -2.1449 v -8.3284 z"
     fill="#ffffff"
     id="path12" />
  <path
     d="m 106.484,15.0885 c 0,-0.3319 0.124,-0.6262 0.381,-0.8751 0.256,-0.2489 0.583,-0.3696 0.971,-0.3696 0.389,0 0.723,0.1207 0.995,0.3545 0.272,0.2339 0.404,0.5356 0.404,0.8902 0,0.3621 -0.132,0.6563 -0.404,0.8902 -0.264,0.2338 -0.599,0.3545 -0.995,0.3545 -0.396,0 -0.715,-0.1207 -0.971,-0.3696 -0.249,-0.249 -0.381,-0.5432 -0.381,-0.8751 z m 0.303,2.8289 h 2.145 v 8.3285 h -2.145 z"
     fill="#ffffff"
     id="path14" />
  <path
     d="m 110.222,19.5773 v -1.6672 h 1.5 v -2.414 h 2.106 v 2.414 h 2.145 v 1.6672 h -2.145 v 3.87 c 0,0.3697 0.07,0.679 0.202,0.9204 0.14,0.2414 0.443,0.3621 0.917,0.3621 0.14,0 0.296,-0.0151 0.466,-0.0453 0.164,-0.0302 0.319,-0.0754 0.443,-0.1282 l 0.07,1.6294 c -0.194,0.0679 -0.419,0.1207 -0.676,0.166 -0.264,0.0377 -0.513,0.0604 -0.754,0.0604 -0.575,0 -1.033,-0.0755 -1.391,-0.2339 -0.357,-0.1584 -0.637,-0.3697 -0.847,-0.6412 -0.21,-0.2716 -0.349,-0.5809 -0.427,-0.9355 -0.078,-0.3545 -0.117,-0.7317 -0.117,-1.1391 v -3.8851 z"
     fill="#ffffff"
     id="path16" />
  <path
     d="m 116.696,17.916 h 2.378 l 2.393,6.0577 h 0.039 l 2.13,-6.0577 h 2.238 l -4.057,10.1163 c -0.155,0.3848 -0.318,0.7167 -0.497,1.0185 -0.179,0.2942 -0.397,0.5431 -0.645,0.7468 -0.249,0.2037 -0.544,0.3546 -0.886,0.4602 -0.342,0.1056 -0.746,0.1584 -1.228,0.1584 -0.179,0 -0.358,-0.0076 -0.544,-0.0226 -0.187,-0.0151 -0.373,-0.0528 -0.56,-0.0981 l 0.179,-1.803 c 0.14,0.0453 0.28,0.0754 0.42,0.0981 0.14,0.0151 0.264,0.0226 0.381,0.0226 0.225,0 0.419,-0.0226 0.575,-0.0754 0.155,-0.0528 0.287,-0.1358 0.396,-0.2414 0.109,-0.1132 0.202,-0.249 0.288,-0.4074 0.085,-0.1584 0.171,-0.3546 0.272,-0.5733 l 0.427,-1.0562 z"
     fill="#ffffff"
     id="path18" />
  <path
     d="m 31.6455,29.7988 h 4.9349 c 0.474,0 0.9481,0.0528 1.4144,0.166 0.4663,0.1132 0.8781,0.2867 1.2434,0.5356 0.3652,0.249 0.6606,0.5733 0.8859,0.9656 0.2254,0.3923 0.342,0.8676 0.342,1.4258 0,0.694 -0.2021,1.2674 -0.6062,1.72 -0.4041,0.4526 -0.9326,0.777 -1.5931,0.9732 v 0.0377 c 0.8004,0.1056 1.4532,0.4074 1.9661,0.9052 0.5129,0.4979 0.7694,1.1618 0.7694,1.9992 0,0.6714 -0.1399,1.2372 -0.4119,1.6898 -0.272,0.4602 -0.6372,0.8223 -1.0802,1.1014 -0.443,0.2791 -0.9559,0.4753 -1.5387,0.596 -0.5751,0.1207 -1.1658,0.181 -1.7642,0.181 h -4.5618 z m 2.2537,5.0016 h 2.005 c 0.7539,0 1.3212,-0.1433 1.7175,-0.43 0.3964,-0.2867 0.5907,-0.7016 0.5907,-1.2296 0,-0.5583 -0.2021,-0.9506 -0.6062,-1.1769 -0.4041,-0.2338 -1.0336,-0.347 -1.8962,-0.347 h -1.803 v 3.1835 z m 0,5.4467 h 2.0206 c 0.2875,0 0.5984,-0.0227 0.9326,-0.0604 0.3341,-0.0377 0.6372,-0.1207 0.917,-0.2489 0.2798,-0.1283 0.5129,-0.3093 0.6994,-0.5583 0.1865,-0.2414 0.2798,-0.5658 0.2798,-0.9731 0,-0.6488 -0.2254,-1.1014 -0.6761,-1.3504 -0.4508,-0.2565 -1.1347,-0.3847 -2.0595,-0.3847 h -2.106 v 3.5758 z"
     fill="#ffffff"
     id="path20" />
  <path
     d="m 42.6963,28.9688 h 2.1449 v 13.1187 h -2.1449 z"
     fill="#ffffff"
     id="path22" />
  <path
     d="m 46.5044,37.8855 c 0,-0.6563 0.1243,-1.2599 0.3653,-1.7955 0.2409,-0.5356 0.575,-0.9958 0.9947,-1.3805 0.4197,-0.3847 0.9093,-0.6789 1.4843,-0.8826 0.5751,-0.2113 1.1813,-0.3093 1.8263,-0.3093 0.6451,0 1.2512,0.1056 1.8263,0.3093 0.5751,0.2112 1.0647,0.5054 1.4844,0.8826 0.4196,0.3847 0.746,0.8449 0.9947,1.3805 0.2409,0.5356 0.3653,1.1392 0.3653,1.7955 0,0.6563 -0.1244,1.2598 -0.3653,1.803 -0.2409,0.5431 -0.5751,1.0108 -0.9947,1.3956 -0.4197,0.3847 -0.9093,0.694 -1.4844,0.9128 -0.5751,0.2187 -1.1812,0.3319 -1.8263,0.3319 -0.645,0 -1.2512,-0.1132 -1.8263,-0.3319 -0.575,-0.2188 -1.0646,-0.5205 -1.4843,-0.9128 -0.4197,-0.3923 -0.7461,-0.8525 -0.9947,-1.3956 -0.2487,-0.5432 -0.3653,-1.1467 -0.3653,-1.803 z m 2.176,0 c 0,0.3244 0.0466,0.6487 0.1554,0.9731 0.1011,0.3244 0.2565,0.6111 0.4585,0.8676 0.2021,0.2565 0.4586,0.4602 0.7694,0.6261 0.3109,0.1584 0.6761,0.2414 1.1113,0.2414 0.4275,0 0.8005,-0.083 1.1113,-0.2414 0.3109,-0.1584 0.5674,-0.3696 0.7694,-0.6261 0.2021,-0.2565 0.3575,-0.5432 0.4585,-0.8676 0.1011,-0.3244 0.1555,-0.6487 0.1555,-0.9731 0,-0.3244 -0.0544,-0.6413 -0.1555,-0.9656 -0.101,-0.3169 -0.2564,-0.6036 -0.4585,-0.86 -0.202,-0.2565 -0.4585,-0.4602 -0.7694,-0.6186 -0.3108,-0.1585 -0.6761,-0.2339 -1.1113,-0.2339 -0.4274,0 -0.8004,0.0754 -1.1113,0.2339 -0.3108,0.1584 -0.5673,0.3621 -0.7694,0.6186 -0.202,0.2564 -0.3574,0.5431 -0.4585,0.86 -0.101,0.3243 -0.1554,0.6412 -0.1554,0.9656 z"
     fill="#ffffff"
     id="path24" />
  <path
     d="m 56.957,37.8855 c 0,-0.6563 0.1244,-1.2599 0.3653,-1.7955 0.2409,-0.5356 0.5751,-0.9958 0.9947,-1.3805 0.4197,-0.3847 0.9093,-0.6789 1.4844,-0.8826 0.5751,-0.2113 1.1812,-0.3093 1.8263,-0.3093 0.645,0 1.2512,0.1056 1.8262,0.3093 0.5751,0.2112 1.0647,0.5054 1.4844,0.8826 0.4196,0.3847 0.746,0.8449 0.9947,1.3805 0.2409,0.5356 0.3653,1.1392 0.3653,1.7955 0,0.6563 -0.1244,1.2598 -0.3653,1.803 -0.2409,0.5431 -0.5751,1.0108 -0.9947,1.3956 -0.4197,0.3847 -0.9093,0.694 -1.4844,0.9128 -0.575,0.2187 -1.1812,0.3319 -1.8262,0.3319 -0.6451,0 -1.2512,-0.1132 -1.8263,-0.3319 -0.5751,-0.2188 -1.0647,-0.5205 -1.4844,-0.9128 -0.4196,-0.3923 -0.746,-0.8525 -0.9947,-1.3956 -0.2409,-0.5432 -0.3653,-1.1467 -0.3653,-1.803 z m 2.1838,0 c 0,0.3244 0.0466,0.6487 0.1554,0.9731 0.1011,0.3244 0.2565,0.6111 0.4585,0.8676 0.2021,0.2565 0.4586,0.4602 0.7694,0.6261 0.3109,0.1584 0.6761,0.2414 1.1113,0.2414 0.4275,0 0.8005,-0.083 1.1113,-0.2414 0.3109,-0.1584 0.5674,-0.3696 0.7694,-0.6261 0.2021,-0.2565 0.3575,-0.5432 0.4585,-0.8676 0.1011,-0.3244 0.1555,-0.6487 0.1555,-0.9731 0,-0.3244 -0.0544,-0.6413 -0.1555,-0.9656 -0.101,-0.3169 -0.2564,-0.6036 -0.4585,-0.86 -0.202,-0.2565 -0.4585,-0.4602 -0.7694,-0.6186 -0.3108,-0.1585 -0.6761,-0.2339 -1.1113,-0.2339 -0.4274,0 -0.8004,0.0754 -1.1113,0.2339 -0.3108,0.1584 -0.5673,0.3621 -0.7694,0.6186 -0.202,0.2564 -0.3574,0.5431 -0.4585,0.86 -0.1088,0.3243 -0.1554,0.6412 -0.1554,0.9656 z"
     fill="#ffffff"
     id="path26" />
  <path
     d="m 76.6342,42.0875 h -2.0361 v -1.2523 h -0.0388 c -0.2954,0.4828 -0.715,0.8525 -1.2435,1.109 -0.5284,0.2565 -1.0957,0.3847 -1.7097,0.3847 -0.6528,0 -1.2434,-0.1207 -1.7641,-0.3545 -0.5207,-0.2339 -0.9559,-0.5583 -1.3211,-0.9581 -0.3653,-0.3998 -0.6451,-0.8676 -0.8394,-1.4032 -0.1942,-0.5356 -0.2953,-1.1165 -0.2953,-1.7275 0,-0.6111 0.1011,-1.1844 0.3031,-1.72 0.2021,-0.5356 0.4896,-0.9958 0.8549,-1.3881 0.373,-0.3923 0.8082,-0.7016 1.3211,-0.9279 0.5129,-0.2263 1.0725,-0.3395 1.6786,-0.3395 0.3964,0 0.7461,0.0453 1.057,0.1283 0.3108,0.083 0.5828,0.1961 0.816,0.3244 0.2331,0.1282 0.4352,0.264 0.5984,0.4149 0.1632,0.1509 0.303,0.2942 0.4118,0.43 h 0.0544 v -5.8389 h 2.145 v 13.1187 z m -7.0564,-4.2019 c 0,0.3244 0.0466,0.6488 0.1554,0.9731 0.101,0.3244 0.2565,0.6111 0.4585,0.8676 0.2021,0.2565 0.4585,0.4602 0.7694,0.6261 0.3108,0.1585 0.6761,0.2414 1.088,0.2414 0.3963,0 0.746,-0.0754 1.0569,-0.2338 0.3109,-0.1584 0.5751,-0.3621 0.7927,-0.6186 0.2176,-0.2565 0.3886,-0.5432 0.4974,-0.86 0.1165,-0.3169 0.1709,-0.6413 0.1709,-0.9656 0,-0.3244 -0.0544,-0.6488 -0.1709,-0.9732 -0.1166,-0.3244 -0.2798,-0.611 -0.4974,-0.8675 -0.2176,-0.2565 -0.4818,-0.4602 -0.7927,-0.6262 -0.3109,-0.1584 -0.6606,-0.2414 -1.0569,-0.2414 -0.4197,0 -0.7772,0.0755 -1.088,0.2339 -0.3109,0.1584 -0.5673,0.3621 -0.7694,0.6186 -0.202,0.2565 -0.3575,0.5431 -0.4585,0.86 -0.1088,0.3244 -0.1554,0.6412 -0.1554,0.9656 z"
     fill="#ffffff"
     id="path28" />
  <path
     d="m 92.4568,32.6799 c -0.3341,-0.4376 -0.7693,-0.762 -1.3056,-0.9656 -0.5362,-0.2037 -1.0646,-0.3018 -1.5698,-0.3018 -0.6528,0 -1.2512,0.1132 -1.7874,0.347 -0.5362,0.2339 -0.9948,0.5507 -1.3833,0.9581 -0.3886,0.4074 -0.6839,0.8826 -0.8938,1.4258 -0.2098,0.5431 -0.3108,1.1316 -0.3108,1.7728 0,0.6714 0.101,1.2824 0.3031,1.8407 0.202,0.5582 0.4896,1.0335 0.8704,1.4333 0.373,0.3998 0.8238,0.7091 1.3522,0.9279 0.5207,0.2188 1.1113,0.3319 1.7719,0.3319 0.6761,0 1.2823,-0.1282 1.803,-0.3922 0.5207,-0.2565 0.9481,-0.6035 1.2667,-1.0335 l 1.803,1.2296 c -0.5596,0.679 -1.2434,1.2146 -2.0594,1.5842 -0.8083,0.3772 -1.7564,0.5658 -2.8444,0.5658 -0.987,0 -1.8962,-0.1584 -2.7278,-0.4753 -0.8315,-0.3168 -1.5387,-0.7619 -2.1371,-1.3352 -0.5984,-0.5734 -1.0647,-1.2523 -1.3911,-2.0444 -0.3342,-0.7921 -0.4974,-1.6672 -0.4974,-2.6253 0,-0.9807 0.1788,-1.8708 0.5285,-2.663 0.3497,-0.7921 0.8315,-1.4635 1.4455,-2.0217 0.6139,-0.5583 1.3367,-0.9807 2.1682,-1.2825 0.8316,-0.3017 1.7408,-0.4526 2.72,-0.4526 0.4041,0 0.8316,0.0377 1.2668,0.1132 0.4429,0.0754 0.8626,0.1886 1.2667,0.347 0.4041,0.1584 0.7849,0.347 1.1424,0.5809 0.3575,0.2338 0.6606,0.5054 0.9093,0.8298 z"
     fill="#ffffff"
     id="path30" />
  <path
     d="m 103.181,38.0205 c 0,0.0905 0,0.1886 0,0.2791 0,0.0905 -0.008,0.1886 -0.015,0.2791 h -6.5284 c 0.0233,0.3018 0.101,0.5733 0.2409,0.8223 0.1399,0.2489 0.3186,0.4602 0.544,0.6412 0.2254,0.1811 0.4818,0.3244 0.7694,0.4225 0.2875,0.1056 0.5828,0.1584 0.8937,0.1584 0.5362,0 0.9874,-0.0981 1.3604,-0.2867 0.373,-0.1886 0.676,-0.4526 0.909,-0.7921 l 1.43,1.109 c -0.847,1.1089 -2.075,1.6672 -3.6839,1.6672 -0.6683,0 -1.2823,-0.0981 -1.8418,-0.3018 -0.5595,-0.2037 -1.0491,-0.4903 -1.4533,-0.86 -0.4118,-0.3696 -0.7305,-0.8223 -0.9636,-1.3654 -0.2332,-0.5432 -0.3497,-1.1467 -0.3497,-1.8332 0,-0.6714 0.1165,-1.2825 0.3497,-1.8332 0.2331,-0.5507 0.5518,-1.0184 0.9559,-1.4031 0.4041,-0.3847 0.8859,-0.6865 1.4377,-0.9053 0.5518,-0.2187 1.1502,-0.3244 1.7952,-0.3244 0.5984,0 1.1498,0.0981 1.6558,0.2867 0.505,0.1886 0.948,0.4753 1.313,0.8525 0.373,0.3772 0.66,0.8449 0.87,1.4031 0.202,0.5809 0.311,1.2372 0.311,1.9841 z m -2.145,-0.9355 c 0,-0.264 -0.039,-0.5205 -0.116,-0.7619 -0.078,-0.2414 -0.202,-0.4602 -0.366,-0.6412 -0.163,-0.1886 -0.38,-0.332 -0.6369,-0.4451 -0.2564,-0.1132 -0.5595,-0.166 -0.9014,-0.166 -0.6451,0 -1.1891,0.1886 -1.6321,0.5658 -0.4507,0.3772 -0.6916,0.86 -0.7382,1.4484 z"
     fill="#ffffff"
     id="path32" />
  <path
     d="m 104.806,33.759 h 2.036 v 1.3352 h 0.039 c 0.194,-0.4149 0.52,-0.7845 0.994,-1.1014 0.474,-0.3168 1.026,-0.4752 1.671,-0.4752 0.56,0 1.042,0.098 1.438,0.2866 0.396,0.1886 0.73,0.4451 0.987,0.7544 0.256,0.3093 0.443,0.6714 0.559,1.0788 0.117,0.4074 0.179,0.8223 0.179,1.2523 v 5.2052 h -2.145 v -4.6168 c 0,-0.2414 -0.015,-0.4979 -0.054,-0.7619 -0.039,-0.2641 -0.117,-0.5055 -0.233,-0.7167 -0.117,-0.2112 -0.28,-0.3923 -0.49,-0.5281 -0.21,-0.1358 -0.482,-0.2112 -0.831,-0.2112 -0.35,0 -0.645,0.0679 -0.894,0.1962 -0.249,0.1357 -0.459,0.3017 -0.614,0.5129 -0.163,0.2113 -0.28,0.4451 -0.365,0.7167 -0.086,0.2716 -0.125,0.5432 -0.125,0.8223 v 4.5791 h -2.145 V 33.759 Z"
     fill="#ffffff"
     id="path34" />
  <path
     d="m 113.727,35.4191 v -1.6672 h 1.5 v -2.414 h 2.106 v 2.414 h 2.145 v 1.6672 h -2.145 v 3.87 c 0,0.3697 0.07,0.679 0.202,0.9204 0.14,0.2414 0.443,0.3621 0.917,0.3621 0.14,0 0.295,-0.0151 0.466,-0.0453 0.164,-0.0302 0.319,-0.0754 0.443,-0.1282 l 0.07,1.6294 c -0.194,0.0679 -0.419,0.1207 -0.676,0.166 -0.264,0.0377 -0.513,0.0604 -0.754,0.0604 -0.575,0 -1.033,-0.0755 -1.391,-0.2339 -0.357,-0.1584 -0.637,-0.3697 -0.847,-0.6412 -0.21,-0.2716 -0.35,-0.5809 -0.427,-0.9355 -0.078,-0.3545 -0.117,-0.7317 -0.117,-1.1391 v -3.8851 z"
     fill="#ffffff"
     id="path36" />
  <path
     d="m 128.975,38.0205 c 0,0.0905 0,0.1886 0,0.2791 0,0.0905 -0.008,0.1886 -0.016,0.2791 h -6.528 c 0.023,0.3018 0.101,0.5733 0.241,0.8223 0.14,0.2489 0.319,0.4602 0.544,0.6412 0.225,0.1811 0.482,0.3244 0.769,0.4225 0.288,0.1056 0.583,0.1584 0.894,0.1584 0.536,0 0.987,-0.0981 1.36,-0.2867 0.373,-0.1886 0.676,-0.4526 0.909,-0.7921 l 1.43,1.109 c -0.847,1.1089 -2.075,1.6672 -3.683,1.6672 -0.669,0 -1.283,-0.0981 -1.842,-0.3018 -0.56,-0.2037 -1.049,-0.4903 -1.453,-0.86 -0.412,-0.3696 -0.731,-0.8223 -0.964,-1.3654 -0.233,-0.5432 -0.35,-1.1467 -0.35,-1.8332 0,-0.6714 0.117,-1.2825 0.35,-1.8332 0.233,-0.5507 0.552,-1.0184 0.956,-1.4031 0.404,-0.3847 0.886,-0.6865 1.437,-0.9053 0.552,-0.2187 1.151,-0.3244 1.796,-0.3244 0.598,0 1.15,0.0981 1.655,0.2867 0.505,0.1886 0.948,0.4753 1.313,0.8525 0.373,0.3772 0.661,0.8449 0.871,1.4031 0.202,0.5809 0.311,1.2372 0.311,1.9841 z M 126.83,37.085 c 0,-0.264 -0.039,-0.5205 -0.117,-0.7619 -0.078,-0.2414 -0.202,-0.4602 -0.365,-0.6412 -0.163,-0.1886 -0.381,-0.332 -0.637,-0.4451 -0.257,-0.1132 -0.56,-0.166 -0.902,-0.166 -0.645,0 -1.189,0.1886 -1.632,0.5658 -0.451,0.3772 -0.692,0.86 -0.738,1.4484 z"
     fill="#ffffff"
     id="path38" />
  <path
     d="m 130.793,33.759 h 2.059 v 1.3881 h 0.039 c 0.241,-0.4829 0.575,-0.8827 1.003,-1.1769 0.427,-0.3017 0.932,-0.4526 1.5,-0.4526 0.085,0 0.171,0 0.272,0.0075 0.093,0.0076 0.178,0.0227 0.248,0.0453 v 1.9086 c -0.14,-0.0377 -0.264,-0.0604 -0.365,-0.0679 -0.101,-0.0151 -0.202,-0.0151 -0.295,-0.0151 -0.49,0 -0.878,0.083 -1.181,0.2565 -0.296,0.1735 -0.529,0.3847 -0.7,0.6261 -0.163,0.2414 -0.28,0.4904 -0.342,0.7469 -0.062,0.2565 -0.085,0.4602 -0.085,0.6035 v 4.4584 h -2.145 V 33.759 Z"
     fill="#ffffff"
     id="path40" />
  <path
     d="m 23.7806,23.3103 c -0.4818,-0.8977 -1.1268,-1.8633 -1.8573,-2.8817 0.4896,3.357 -0.0311,6.3594 -1.3989,9.6033 -3.5749,6.714 -9.4112,7.1742 -12.76068,0.6261 C 5.19915,25.1812 6.71458,19.9835 7.57721,16.5359 8.61081,12.3868 10.9811,5.7105 12.7219,0.35436 12.7996,-0.0303772 4.63961,16.2493 2.33149,22.6314 c -1.3056,3.5984 -3.62148,9.0149 0.53623,14.7859 5.41669,6.9102 14.66468,6.5255 20.21348,-0.445 2.8133,-4.4962 3.2485,-8.5623 0.6994,-13.662 z"
     fill="#fc1921"
     id="path42" />
  <path
     d="m 13.9964,32.5675 c 2.8714,0 5.1991,-3.087 5.1991,-6.8951 0,-3.808 -2.3277,-6.8951 -5.1991,-6.8951 -2.8713,0 -5.19904,3.0871 -5.19904,6.8951 0,3.8081 2.32774,6.8951 5.19904,6.8951 z"
     fill="#fc1921"
     id="path44" />
</svg>
