<?xml version="1.0" encoding="UTF-8" standalone="no"?>
<svg
   width="129"
   height="52"
   viewBox="0 0 129 52"
   fill="none"
   version="1.1"
   id="svg182"
   sodipodi:docname="delmarva.svg"
   inkscape:version="1.1.2 (b8e25be8, 2022-02-05)"
   xmlns:inkscape="http://www.inkscape.org/namespaces/inkscape"
   xmlns:sodipodi="http://sodipodi.sourceforge.net/DTD/sodipodi-0.dtd"
   xmlns="http://www.w3.org/2000/svg"
   xmlns:svg="http://www.w3.org/2000/svg">
  <sodipodi:namedview
     id="namedview184"
     pagecolor="#505050"
     bordercolor="#ffffff"
     borderopacity="1"
     inkscape:pageshadow="0"
     inkscape:pageopacity="0"
     inkscape:pagecheckerboard="1"
     showgrid="false"
     height="53px"
     inkscape:zoom="8.7364341"
     inkscape:cx="56.487578"
     inkscape:cy="22.663709"
     inkscape:window-width="1296"
     inkscape:window-height="966"
     inkscape:window-x="0"
     inkscape:window-y="38"
     inkscape:window-maximized="0"
     inkscape:current-layer="svg182" />
  <g
     clip-path="url(#clip0_5527_6018)"
     id="g175">
    <path
       d="m 31.5781,3.03711 h 4.9769 c 0.478,0.00296 0.954,0.0654 1.4187,0.18608 0.4489,0.11442 0.8741,0.31807 1.254,0.60053 0.3683,0.28513 0.6735,0.65489 0.8935,1.08265 0.2273,0.49573 0.3326,1.04625 0.3056,1.5986 0.0242,0.70228 -0.1936,1.38933 -0.6113,1.92847 -0.4175,0.51491 -0.9607,0.89296 -1.5675,1.0911 0.7397,0.10242 1.4266,0.46858 1.9515,1.04036 0.2645,0.2951 0.4704,0.6454 0.6051,1.0293 0.1348,0.384 0.1956,0.7935 0.1787,1.2037 0.0237,0.6605 -0.1199,1.3155 -0.4154,1.8946 -0.2633,0.5022 -0.6375,0.9264 -1.0894,1.2349 -0.4799,0.3252 -1.0113,0.5517 -1.5675,0.6682 -0.5848,0.1353 -1.1812,0.2033 -1.7792,0.203 h -4.5537 z m 2.2729,5.59932 h 2.0143 C 36.4609,8.68559 37.0558,8.53175 37.5661,8.19661 37.7611,8.03576 37.9172,7.82634 38.0209,7.58625 38.1246,7.34617 38.173,7.08255 38.1618,6.81792 38.183,6.55729 38.1372,6.29539 38.0293,6.06108 37.9214,5.82676 37.7557,5.62914 37.5504,5.48998 36.9525,5.19192 36.2955,5.05825 35.638,5.10091 h -1.8183 z m 0,6.10677 h 2.03 c 0.3144,-0.0031 0.6285,-0.0257 0.9405,-0.0676 0.3202,-0.0439 0.6321,-0.1409 0.9249,-0.2876 0.2804,-0.1368 0.5234,-0.3495 0.7053,-0.6174 0.2019,-0.3208 0.301,-0.704 0.2822,-1.0912 0.0264,-0.2965 -0.0242,-0.5951 -0.1459,-0.8625 -0.1218,-0.2673 -0.3101,-0.4929 -0.5438,-0.6515 -0.654,-0.3369 -1.3776,-0.4855 -2.1005,-0.4313 h -2.124 z"
       fill="#ffffff"
       id="path133" />
    <path
       d="m 42.6763,2.10547 h 2.1632 V 16.7973 h -2.1632 z"
       fill="#ffffff"
       id="path135" />
    <path
       d="m 46.5164,12.0953 c -0.0055,-0.691 0.1198,-1.3761 0.3683,-2.013 0.2339,-0.58356 0.5755,-1.10954 1.004,-1.54582 0.4285,-0.43628 0.935,-0.7737 1.4884,-0.99165 0.5887,-0.23881 1.213,-0.35921 1.8419,-0.35525 0.6264,-0.00465 1.2482,0.11579 1.834,0.35525 0.5569,0.2149 1.0666,0.55183 1.497,0.98961 0.4274,0.43463 0.7687,0.95832 1.0032,1.53936 0.4908,1.2927 0.4908,2.7419 0,4.0346 -0.2346,0.5903 -0.5768,1.1237 -1.0063,1.5684 -0.4295,0.4446 -0.9376,0.7915 -1.4939,1.0198 -0.5838,0.2491 -1.2063,0.3754 -1.834,0.3722 -0.6303,0.0025 -1.2552,-0.1238 -1.8419,-0.3722 -0.5548,-0.2302 -1.0612,-0.5783 -1.4892,-1.0234 -0.4295,-0.4393 -0.7709,-0.969 -1.0032,-1.5564 -0.2495,-0.6395 -0.3749,-1.3275 -0.3683,-2.0215 z m 2.1945,0 c 0.0023,0.3701 0.0551,0.7377 0.1568,1.0911 0.0949,0.3533 0.2519,0.6835 0.4624,0.9727 0.2106,0.293 0.4781,0.5327 0.7837,0.7021 0.3472,0.1888 0.7322,0.2818 1.1208,0.2706 0.386,0.0098 0.7682,-0.0832 1.113,-0.2706 0.3044,-0.1714 0.5716,-0.4107 0.7837,-0.7021 0.2076,-0.2912 0.3643,-0.6208 0.4625,-0.9727 0.0992,-0.3537 0.1494,-0.7214 0.1489,-1.0911 10e-4,-0.3641 -0.0492,-0.7263 -0.1489,-1.0742 -0.1,-0.3484 -0.2566,-0.6749 -0.4625,-0.9642 C 52.921,9.76581 52.6533,9.52889 52.3476,9.36334 52.0008,9.18291 51.6195,9.09308 51.2346,9.10113 50.8472,9.09302 50.4634,9.18281 50.1138,9.36334 c -0.3076,0.16229 -0.576,0.39977 -0.7837,0.69356 -0.2089,0.2873 -0.3657,0.6144 -0.4624,0.9642 -0.1023,0.3475 -0.1552,0.7097 -0.1568,1.0742 z"
       fill="#ffffff"
       id="path137" />
    <path
       d="m 57.0504,12.0947 c -0.0032,-0.6934 0.1304,-1.3796 0.3919,-2.0131 0.2288,-0.58229 0.5678,-1.10662 0.9953,-1.53935 0.4304,-0.43777 0.9401,-0.77471 1.497,-0.98961 0.5858,-0.23946 1.2076,-0.3599 1.834,-0.35524 0.6289,-0.00396 1.2532,0.11644 1.8419,0.35524 0.5546,0.21484 1.0617,0.55185 1.4891,0.98961 0.4134,0.43854 0.7412,0.96196 0.9641,1.53935 0.4908,1.2927 0.4908,2.7419 0,4.0346 -0.2348,0.5888 -0.5762,1.121 -1.0042,1.5655 -0.428,0.4444 -0.934,0.7922 -1.4882,1.0227 -0.5867,0.2484 -1.2116,0.3747 -1.8418,0.3722 -0.6278,0.0033 -1.2503,-0.1231 -1.8341,-0.3722 -0.5572,-0.23 -1.0662,-0.578 -1.497,-1.0234 -0.4138,-0.4462 -0.7391,-0.9786 -0.9561,-1.5648 -0.2621,-0.6362 -0.3957,-1.3253 -0.3919,-2.0215 z m 2.2024,0 c -6e-4,0.3696 0.0496,0.7373 0.1489,1.0911 0.0981,0.3518 0.2548,0.6814 0.4624,0.9727 0.2122,0.2913 0.4793,0.5306 0.7838,0.702 0.3447,0.1875 0.727,0.2804 1.1129,0.2707 0.3886,0.0111 0.7737,-0.0819 1.1208,-0.2707 0.3016,-0.176 0.5679,-0.4146 0.7838,-0.702 0.205,-0.2917 0.3591,-0.6213 0.4545,-0.9727 0.1017,-0.3534 0.1545,-0.7211 0.1568,-1.0911 -0.0016,-0.3646 -0.0545,-0.7268 -0.1568,-1.0742 -0.0971,-0.3481 -0.251,-0.6746 -0.4545,-0.9642 C 63.3032,9.60107 62.8127,9.2867 62.269,9.16141 61.7253,9.03612 61.1585,9.10683 60.6557,9.36269 60.35,9.52824 60.0822,9.76516 59.8719,10.0563 c -0.2058,0.2893 -0.3624,0.6158 -0.4624,0.9642 -0.1024,0.3474 -0.1553,0.7096 -0.1567,1.0742 z"
       fill="#ffffff"
       id="path139" />
    <path
       d="m 76.8876,16.7973 h -2.0535 v -1.3956 c -0.2944,0.5396 -0.731,0.9724 -1.254,1.2434 -0.5328,0.2875 -1.1209,0.4353 -1.7165,0.4314 -0.5904,0.0166 -1.1771,-0.1065 -1.7187,-0.3608 -0.5416,-0.2543 -1.0251,-0.6335 -1.4163,-1.111 -0.3691,-0.464 -0.6561,-0.9972 -0.8465,-1.5732 -0.1983,-0.6231 -0.2964,-1.2781 -0.29,-1.9369 -0.0052,-0.6546 0.0983,-1.3048 0.3057,-1.92 0.1881,-0.57575 0.4812,-1.10494 0.8621,-1.55632 0.5125,-0.58489 1.1608,-1.01102 1.8775,-1.23413 0.7167,-0.22311 1.4757,-0.23506 2.1981,-0.0346 0.2722,0.09154 0.5349,0.21343 0.7838,0.3637 0.2179,0.12806 0.4205,0.28427 0.6035,0.4652 0.1511,0.1474 0.2901,0.30871 0.4154,0.48212 h 0.0548 v -6.5551 h 2.1632 z M 69.771,12.0946 c -5e-4,0.3696 0.0496,0.7373 0.1489,1.0911 0.0982,0.3518 0.2549,0.6814 0.4624,0.9727 0.2122,0.2913 0.4794,0.5306 0.7838,0.702 0.34,0.1848 0.7166,0.2777 1.0972,0.2707 0.3695,0.0042 0.7347,-0.0857 1.066,-0.2622 0.3014,-0.1726 0.5679,-0.4084 0.7837,-0.6936 0.2241,-0.2829 0.3946,-0.6105 0.5016,-0.9642 0.1148,-0.3446 0.1732,-0.7081 0.1725,-1.0742 0,-0.3716 -0.0583,-0.7405 -0.1725,-1.0911 C 74.5058,10.6903 74.3356,10.3603 74.113,10.0731 73.895,9.79021 73.629,9.55481 73.3293,9.37951 73.0019,9.18955 72.6349,9.09344 72.2633,9.10039 71.8835,9.0931 71.5075,9.18295 71.1661,9.3626 c -0.3057,0.16555 -0.5735,0.40247 -0.7838,0.6936 -0.2059,0.2893 -0.3624,0.6158 -0.4624,0.9642 -0.0998,0.3479 -0.15,0.7101 -0.1489,1.0742 z"
       fill="#ffffff"
       id="path141" />
    <path
       d="m 83.228,3.03711 h 4.9691 c 0.478,0.00243 0.954,0.06487 1.4186,0.18608 0.449,0.11442 0.8742,0.31807 1.254,0.60053 0.3977,0.29953 0.7195,0.70191 0.9358,1.17033 0.2164,0.46841 0.3204,0.9879 0.3026,1.51092 0.0242,0.70228 -0.1936,1.38933 -0.6113,1.92847 -0.4198,0.51219 -0.9621,0.8897 -1.5676,1.0911 0.7479,0.08818 1.4465,0.44574 1.983,1.01496 0.2644,0.2952 0.4703,0.6454 0.6051,1.0294 0.1347,0.3839 0.1955,0.7934 0.1786,1.2036 0.0202,0.6602 -0.1232,1.3142 -0.4154,1.8946 -0.2781,0.5137 -0.6682,0.9463 -1.1364,1.2603 -0.481,0.3228 -1.012,0.5491 -1.5676,0.6682 -0.5821,0.1353 -1.1758,0.2033 -1.7713,0.203 H 83.228 Z m 2.2651,5.59932 h 2.0221 C 88.1231,8.68025 88.7278,8.51116 89.2395,8.15432 89.4356,7.99446 89.5923,7.78522 89.6962,7.54489 89.8,7.30456 89.8477,7.04045 89.8352,6.77563 89.8564,6.515 89.8106,6.2531 89.7027,6.01879 89.5949,5.78447 89.4291,5.58685 89.2238,5.44769 88.6268,5.14654 87.9691,5.01272 87.3115,5.05862 h -1.8184 z m 0,6.10677 h 2.0378 c 0.3118,-0.0031 0.6233,-0.0257 0.9327,-0.0676 0.3226,-0.0445 0.637,-0.1415 0.9327,-0.2876 0.2795,-0.1347 0.5205,-0.3479 0.6975,-0.6174 0.1964,-0.3228 0.2899,-0.7059 0.2665,-1.0912 0.0281,-0.2958 -0.0209,-0.5942 -0.1413,-0.8617 -0.1205,-0.2674 -0.3077,-0.4933 -0.5406,-0.6523 -0.6429,-0.3273 -1.3516,-0.4756 -2.0613,-0.4313 h -2.124 z"
       fill="#ffffff"
       id="path143" />
    <path
       d="m 99.6869,15.6142 h -0.0548 c -0.2399,0.4544 -0.6039,0.8178 -1.0424,1.0404 -0.5091,0.271 -1.0706,0.4072 -1.6381,0.3975 -0.367,-0.0035 -0.7325,-0.0517 -1.0894,-0.1438 -0.3733,-0.0982 -0.7285,-0.2641 -1.0503,-0.4906 -0.3177,-0.2313 -0.5851,-0.5343 -0.7838,-0.8881 -0.2171,-0.4179 -0.3254,-0.8913 -0.3135,-1.3702 -0.0312,-0.6199 0.166,-1.228 0.5487,-1.6916 0.396,-0.4355 0.8822,-0.7631 1.4186,-0.9558 0.6182,-0.2298 1.2607,-0.3748 1.9124,-0.4314 0.7054,-0.0761 1.3951,-0.1099 2.0691,-0.1099 V 10.7338 C 99.679,10.4826 99.6329,10.2315 99.5297,10.0057 99.4264,9.77997 99.2698,9.58763 99.0756,9.44818 98.6602,9.15978 98.1743,9.01247 97.6805,9.02527 c -0.4548,2e-5 -0.904,0.10681 -1.3167,0.31295 -0.3895,0.17922 -0.7434,0.43766 -1.0424,0.76128 L 94.2006,8.67848 c 0.4908,-0.49083 1.0697,-0.86792 1.7008,-1.10802 0.6285,-0.24427 1.2913,-0.37016 1.9594,-0.37216 0.6481,-0.024 1.2939,0.09695 1.8967,0.35524 0.4365,0.18365 0.8255,0.4765 1.1365,0.85444 0.31,0.37793 0.533,0.83012 0.65,1.31932 0.112,0.4556 0.17,0.9245 0.173,1.3956 v 5.6754 h -2.0301 z m 0,-3.0703 H 99.201 c -0.3553,0 -0.7237,0.0169 -1.1051,0.0507 -0.3589,0.0274 -0.7139,0.0983 -1.0581,0.2115 -0.2864,0.0995 -0.5525,0.2574 -0.7838,0.4652 -0.1087,0.106 -0.1941,0.2371 -0.2497,0.3835 -0.0556,0.1464 -0.0801,0.3044 -0.0716,0.4623 -0.0059,0.1933 0.0404,0.3843 0.1332,0.5498 0.0912,0.1479 0.2117,0.2721 0.3527,0.3637 0.1509,0.0935 0.3151,0.1592 0.486,0.1945 0.1777,0.0406 0.3591,0.0605 0.5408,0.0592 0.3022,0.0379 0.6084,0.0025 0.8964,-0.1035 0.2879,-0.1061 0.5503,-0.2801 0.768,-0.5094 0.2178,-0.2293 0.3854,-0.5081 0.4906,-0.8162 0.1053,-0.3081 0.1456,-0.6376 0.1179,-0.9645 z"
       fill="#ffffff"
       id="path145" />
    <path
       d="m 103.778,7.46906 h 2.054 v 1.4971 c 0.247,-0.53943 0.63,-0.99205 1.106,-1.30505 0.476,-0.313 1.025,-0.47348 1.582,-0.46271 0.5,-0.01365 0.996,0.0963 1.45,0.32141 0.383,0.1999 0.72,0.48874 0.988,0.84582 0.26,0.35673 0.455,0.7646 0.572,1.20106 0.119,0.45701 0.18,0.92941 0.18,1.40411 v 5.8276 h -2.163 v -5.1679 c 0,-0.283 -0.018,-0.5656 -0.055,-0.8458 -0.034,-0.2807 -0.114,-0.5526 -0.235,-0.80356 -0.12,-0.26702 -0.311,-0.48977 -0.548,-0.64027 -0.237,-0.15049 -0.51,-0.222 -0.784,-0.20555 -0.313,-0.00731 -0.623,0.0682 -0.902,0.21992 -0.24,0.14484 -0.451,0.34046 -0.619,0.57515 -0.172,0.25351 -0.297,0.54081 -0.368,0.84581 -0.085,0.2988 -0.127,0.6096 -0.126,0.922 v 5.1256 h -2.163 z"
       fill="#ffffff"
       id="path147" />
    <path
       d="m 113.874,2.10547 h 2.155 v 9.30403 h 0.055 l 3.276,-3.94154 h 2.774 l -3.746,4.22914 3.982,5.0749 h -2.861 l -3.425,-4.7789 h -0.055 v 4.7789 h -2.155 z"
       fill="#ffffff"
       id="path149" />
    <path
       d="m 30.9354,29.0031 c -0.0082,-0.6914 0.1173,-1.377 0.3684,-2.013 0.2327,-0.5844 0.5739,-1.1111 1.0025,-1.5475 0.4287,-0.4364 0.9358,-0.7734 1.4899,-0.99 0.5892,-0.2359 1.2134,-0.3535 1.8418,-0.3468 0.626,-0.0075 1.2478,0.11 1.834,0.3468 0.5541,0.2214 1.0626,0.5576 1.497,0.9896 0.4259,0.4394 0.7669,0.9655 1.0033,1.5479 0.2511,0.636 0.3765,1.3216 0.3683,2.013 0.0077,0.6968 -0.1177,1.3878 -0.3683,2.03 -0.2363,0.5874 -0.5771,1.1191 -1.0033,1.5647 -0.4366,0.4248 -0.9448,0.7551 -1.497,0.9727 -0.5837,0.2492 -1.2062,0.3755 -1.834,0.3722 -0.6302,0.0025 -1.2551,-0.1238 -1.8418,-0.3722 -0.5512,-0.2222 -1.0557,-0.5612 -1.4837,-0.997 -0.4281,-0.4357 -0.771,-0.9595 -1.0087,-1.5404 -0.2506,-0.6422 -0.376,-1.3332 -0.3684,-2.03 z m 2.1946,0 c 0.0016,0.3673 0.0545,0.7323 0.1567,1.0827 0.0961,0.345 0.2531,0.6667 0.4625,0.9473 0.2105,0.293 0.4781,0.5326 0.7837,0.702 0.3463,0.1912 0.732,0.2843 1.1208,0.2707 0.3864,0.0145 0.7697,-0.0788 1.113,-0.2707 0.3056,-0.1694 0.5731,-0.409 0.7837,-0.702 0.2091,-0.2903 0.3659,-0.6202 0.4624,-0.9727 0.1984,-0.7059 0.1984,-1.4594 0,-2.1653 -0.1,-0.3485 -0.2565,-0.6749 -0.4624,-0.9643 -0.2122,-0.2868 -0.4796,-0.5206 -0.7837,-0.6851 -0.3455,-0.1845 -0.7277,-0.2745 -1.113,-0.2622 -0.3879,-0.0137 -0.773,0.0763 -1.1208,0.2622 -0.3026,0.1669 -0.5696,0.4003 -0.7837,0.6851 -0.2089,0.2873 -0.3658,0.6144 -0.4625,0.9643 -0.0993,0.3593 -0.1469,0.733 -0.141,1.108 z"
       fill="#ffffff"
       id="path151" />
    <path
       d="m 42.3232,26.2382 h -1.646 v -1.8608 h 1.646 v -1.3787 c -0.0017,-0.5407 0.0535,-1.0798 0.1645,-1.6071 0.1043,-0.4896 0.3018,-0.9505 0.58,-1.3533 0.2744,-0.3959 0.6352,-0.7126 1.0503,-0.9219 0.5264,-0.2448 1.0966,-0.3603 1.6694,-0.3384 0.243,0 0.4467,0 0.6035,0 0.1692,0.0253 0.3367,0.062 0.5016,0.11 l -0.1254,1.9961 -0.384,-0.093 c -0.1487,-0.0133 -0.2981,-0.0133 -0.4468,0 -0.2731,-0.0176 -0.5452,0.0499 -0.7837,0.1945 -0.1848,0.1251 -0.336,0.3 -0.439,0.5075 -0.1029,0.2122 -0.1744,0.4405 -0.2116,0.6767 -0.0332,0.2409 -0.0515,0.4839 -0.0548,0.7274 v 1.514 h 2.0221 v 1.8608 h -1.9908 v 7.4686 h -2.1553 z"
       fill="#ffffff"
       id="path153" />
    <path
       d="m 51.9561,19.9453 h 4.5223 c 0.8435,0.0035 1.6833,0.12 2.5002,0.3468 0.8206,0.2221 1.5928,0.6158 2.2729,1.1588 0.6898,0.5591 1.2504,1.2828 1.6381,2.1145 0.4483,1.0154 0.6633,2.1324 0.627,3.2564 0.0294,1.0772 -0.1859,2.1458 -0.627,3.1126 -0.3936,0.8346 -0.9529,1.5653 -1.6381,2.14 -0.6801,0.5602 -1.4509,0.9789 -2.2729,1.2349 -0.8118,0.2595 -1.6536,0.3934 -2.5002,0.3975 h -4.5223 z m 4.1617,11.6216 c 0.5936,-0.0022 1.1851,-0.0759 1.7635,-0.2199 0.5611,-0.1486 1.0924,-0.4066 1.5675,-0.7613 0.4867,-0.377 0.8841,-0.8725 1.16,-1.4463 0.3211,-0.7219 0.4744,-1.5174 0.4468,-2.3176 0.0292,-0.8303 -0.1238,-1.6563 -0.4468,-2.4106 -0.2715,-0.5793 -0.6696,-1.0786 -1.16,-1.4548 C 58.975,22.6084 58.4424,22.3642 57.8813,22.2375 57.3009,22.11 56.7102,22.0448 56.1178,22.0429 H 54.229 v 9.524 z"
       fill="#ffffff"
       id="path155" />
    <path
       d="m 73.7682,29.1555 v 0.3129 c 0,0.1015 0,0.203 0,0.313 h -6.5758 c 0.0185,0.3226 0.1013,0.6371 0.243,0.9219 0.1381,0.2756 0.3245,0.5198 0.5486,0.719 0.2348,0.2042 0.4998,0.3643 0.7838,0.4736 0.2878,0.1183 0.5933,0.1785 0.9013,0.1776 0.4746,0.0143 0.9453,-0.0959 1.3716,-0.3214 0.3681,-0.2111 0.6828,-0.516 0.917,-0.8881 l 1.4421,1.2434 c -0.4277,0.6187 -0.991,1.1133 -1.6393,1.4395 -0.6484,0.3263 -1.3615,0.4739 -2.0757,0.4297 -0.633,0.009 -1.2623,-0.1056 -1.8575,-0.3383 -0.5424,-0.2148 -1.0403,-0.5424 -1.4657,-0.9642 -0.4215,-0.4263 -0.753,-0.9456 -0.9718,-1.5225 -0.4702,-1.3203 -0.4702,-2.7819 0,-4.1022 0.2182,-0.5901 0.5463,-1.1255 0.964,-1.5732 0.4132,-0.4428 0.9069,-0.7884 1.45,-1.015 0.5772,-0.241 1.1916,-0.3616 1.8105,-0.3553 0.5703,-0.0084 1.1369,0.1007 1.6694,0.3214 0.5001,0.2033 0.9505,0.5273 1.3167,0.9474 0.3914,0.4523 0.6904,0.9883 0.8778,1.5732 0.2136,0.7124 0.3117,1.4592 0.29,2.2076 z M 71.605,28.1066 c 4e-4,-0.2867 -0.0393,-0.5718 -0.1175,-0.8458 -0.0747,-0.2697 -0.2033,-0.5185 -0.3766,-0.7289 -0.1733,-0.2105 -0.3872,-0.3774 -0.6267,-0.4891 -0.2886,-0.1264 -0.5976,-0.1896 -0.9091,-0.186 -0.605,-0.0167 -1.1943,0.2093 -1.6538,0.6343 -0.226,0.1991 -0.412,0.4457 -0.5468,0.7249 -0.1347,0.2793 -0.2154,0.5852 -0.2369,0.8991 z"
       fill="#ffffff"
       id="path157" />
    <path
       d="m 75.4688,19.0059 h 2.1631 v 14.7003 h -2.1631 z"
       fill="#ffffff"
       id="path159" />
    <path
       d="m 90.1097,24.1062 c 0.5,-0.0171 0.9967,0.093 1.45,0.3214 0.3834,0.1992 0.7207,0.4881 0.9875,0.8458 0.2618,0.358 0.4537,0.7694 0.5644,1.2095 0.1223,0.4534 0.183,0.9235 0.1802,1.3956 v 5.8362 h -2.1475 v -5.1764 c -0.0013,-0.2827 -0.017,-0.5651 -0.047,-0.8459 -0.0296,-0.2951 -0.1093,-0.5818 -0.2351,-0.8458 -0.1214,-0.2348 -0.2902,-0.4371 -0.4938,-0.592 -0.2518,-0.1665 -0.5436,-0.2489 -0.8386,-0.2369 -0.3044,-0.0061 -0.6048,0.0757 -0.87,0.2369 -0.2361,0.1518 -0.4392,0.3566 -0.5957,0.6005 -0.1561,0.2592 -0.2701,0.5452 -0.337,0.8458 -0.0706,0.2957 -0.1075,0.5997 -0.1097,0.905 v 5.0749 h -2.1632 v -5.6162 c 0.0205,-0.5143 -0.1143,-1.0218 -0.3841,-1.4463 -0.1432,-0.1961 -0.329,-0.351 -0.5408,-0.4513 -0.2119,-0.1003 -0.4433,-0.1429 -0.674,-0.1239 -0.2962,-0.0092 -0.5891,0.0699 -0.8465,0.2284 -0.2357,0.1382 -0.4373,0.3354 -0.5878,0.5751 -0.1607,0.2575 -0.2775,0.544 -0.3449,0.8458 -0.0783,0.3001 -0.1179,0.6103 -0.1175,0.922 v 5.1341 h -2.1554 v -9.304 h 2.0535 v 1.4294 c 0.0982,-0.2404 0.2304,-0.463 0.3919,-0.6597 0.1656,-0.2164 0.3582,-0.4071 0.5721,-0.5667 0.2387,-0.1791 0.5037,-0.3135 0.7838,-0.3975 0.3097,-0.1022 0.6324,-0.1507 0.9562,-0.1438 0.5568,-0.0253 1.1079,0.1295 1.5827,0.4445 0.4747,0.3149 0.8515,0.7757 1.0821,1.3232 0.2645,-0.5434 0.6633,-0.9972 1.1521,-1.311 0.5281,-0.3197 1.127,-0.4776 1.7321,-0.4567 z"
       fill="#ffffff"
       id="path161" />
    <path
       d="m 101.09,32.5225 h -0.047 c -0.249,0.4429 -0.615,0.7961 -1.0503,1.015 -0.5078,0.2748 -1.0702,0.4112 -1.6381,0.3975 -0.3672,2e-4 -0.7331,-0.0481 -1.0894,-0.1438 -0.3721,-0.0899 -0.7255,-0.2533 -1.0424,-0.4821 -0.3215,-0.2301 -0.5897,-0.5368 -0.7838,-0.8966 -0.2252,-0.4147 -0.3366,-0.8898 -0.3213,-1.3702 -0.0162,-0.3078 0.0247,-0.6159 0.1203,-0.9063 0.0955,-0.2905 0.2438,-0.5575 0.4362,-0.7854 0.392,-0.4346 0.8762,-0.7597 1.4107,-0.9473 0.6216,-0.2287 1.2662,-0.3764 1.9203,-0.4398 0.6975,-0.0677 1.3868,-0.11 2.0608,-0.11 v -0.203 c 0.017,-0.2524 -0.029,-0.505 -0.132,-0.7322 -0.104,-0.2272 -0.261,-0.421 -0.455,-0.5619 -0.417,-0.2854 -0.9025,-0.4297 -1.3955,-0.4144 -0.4539,-3e-4 -0.9027,0.1035 -1.3167,0.3045 -0.3853,0.1875 -0.7379,0.445 -1.0424,0.7612 l -1.1129,-1.4209 c 0.4896,-0.4926 1.0688,-0.87 1.7007,-1.1081 0.6265,-0.2409 1.2866,-0.3639 1.9516,-0.3637 0.6476,-0.0267 1.2932,0.0914 1.8972,0.3468 0.455,0.2001 0.86,0.5131 1.183,0.9135 0.284,0.3673 0.49,0.7975 0.604,1.2603 0.114,0.4578 0.172,0.9299 0.172,1.404 v 5.6755 h -2.022 z m 0,-3.0704 h -0.541 c -0.353,0 -0.713,0 -1.0971,0 -0.3618,0.0301 -0.7193,0.1039 -1.0659,0.22 -0.288,0.0955 -0.5548,0.2539 -0.7838,0.4652 -0.112,0.1036 -0.2002,0.234 -0.2573,0.3808 -0.0571,0.1469 -0.0817,0.3061 -0.0719,0.465 -0.0056,0.1959 0.0406,0.3896 0.1333,0.5582 0.0893,0.1474 0.2103,0.2693 0.3527,0.3553 0.1498,0.0958 0.3144,0.1617 0.4859,0.1945 0.1778,0.0406 0.3591,0.0605 0.5408,0.0592 0.3018,0.0392 0.6079,0.0051 0.8959,-0.0999 0.288,-0.1049 0.5504,-0.2781 0.7684,-0.5068 0.218,-0.2287 0.386,-0.5071 0.491,-0.8149 0.105,-0.3077 0.146,-0.6369 0.118,-0.9636 z"
       fill="#ffffff"
       id="path163" />
    <path
       d="m 105.456,24.3769 h 2.069 v 1.5817 c 0.227,-0.528 0.575,-0.9849 1.011,-1.3279 0.441,-0.3381 0.972,-0.5131 1.513,-0.4991 h 0.274 c 0.085,0.0021 0.17,0.0192 0.251,0.0508 v 2.1145 l -0.369,-0.0761 h -0.298 c -0.413,-0.0219 -0.825,0.0775 -1.191,0.2876 -0.278,0.1749 -0.516,0.4147 -0.697,0.702 -0.164,0.2558 -0.281,0.5429 -0.345,0.8458 -0.055,0.2212 -0.086,0.4481 -0.094,0.6767 v 4.9988 h -2.156 z"
       fill="#ffffff"
       id="path165" />
    <path
       d="m 111.162,24.377 h 2.351 l 2.273,6.7665 2.288,-6.7665 h 2.289 l -3.441,9.304 h -2.265 z"
       fill="#ffffff"
       id="path167" />
    <path
       d="m 126.978,32.5225 h -0.055 c -0.246,0.4426 -0.609,0.796 -1.043,1.015 -0.508,0.2738 -1.07,0.4102 -1.638,0.3975 -0.367,7e-4 -0.733,-0.0476 -1.089,-0.1438 -0.375,-0.09 -0.731,-0.2534 -1.05,-0.4821 -0.318,-0.2346 -0.586,-0.5404 -0.784,-0.8966 -0.223,-0.4155 -0.331,-0.8907 -0.314,-1.3702 -0.017,-0.3072 0.023,-0.6149 0.117,-0.9054 0.094,-0.2904 0.241,-0.5577 0.432,-0.7863 0.395,-0.4309 0.878,-0.7555 1.411,-0.9473 0.622,-0.2278 1.266,-0.3754 1.92,-0.4398 0.705,-0.0677 1.387,-0.11 2.061,-0.11 v -0.203 c 0.016,-0.2514 -0.03,-0.5029 -0.131,-0.7297 -0.102,-0.2269 -0.256,-0.4213 -0.449,-0.5644 -0.416,-0.2854 -0.902,-0.4297 -1.395,-0.4144 -0.454,-0.0026 -0.903,0.1013 -1.317,0.3045 -0.387,0.1874 -0.742,0.4448 -1.05,0.7612 l -1.113,-1.4209 c 0.491,-0.4909 1.07,-0.868 1.701,-1.1081 0.629,-0.2415 1.292,-0.3646 1.959,-0.3637 0.648,-0.0267 1.294,0.0914 1.897,0.3468 0.454,0.199 0.857,0.5122 1.176,0.9135 0.287,0.3652 0.493,0.7962 0.603,1.2603 0.115,0.4578 0.173,0.9299 0.173,1.404 v 5.6755 h -2.014 z m -0.04,-3.0704 h -0.485 c -0.345,0 -0.714,0 -1.098,0 -0.359,0.0301 -0.714,0.1039 -1.058,0.22 -0.287,0.0966 -0.554,0.2548 -0.784,0.4652 -0.111,0.104 -0.198,0.2347 -0.253,0.3816 -0.056,0.1469 -0.079,0.3059 -0.068,0.4642 -0.008,0.1863 0.034,0.3713 0.12,0.5331 0.086,0.1618 0.213,0.2937 0.366,0.3804 0.149,0.0972 0.314,0.1632 0.486,0.1945 0.178,0.0406 0.359,0.0605 0.541,0.0592 0.307,0.0241 0.616,-0.0197 0.907,-0.1288 0.291,-0.1091 0.558,-0.2811 0.786,-0.5056 0.197,-0.2368 0.349,-0.5133 0.448,-0.8138 0.098,-0.3004 0.14,-0.6189 0.124,-0.937 z"
       fill="#ffffff"
       id="path169" />
    <path
       d="m 4.54603,10.3613 h 7.55547 l -4.92985,7.477 c -0.66058,1.0533 -1.03042,2.2874 -1.06649,3.5587 -0.03608,1.2712 0.2631,2.5274 0.86271,3.6223 0.62719,1.0242 1.47988,1.8647 2.48177,2.4461 1.00186,0.5815 2.12176,0.8858 3.25936,0.8858 1.1375,0 2.2574,-0.3043 3.2593,-0.8858 1.0019,-0.5814 1.8545,-1.4219 2.4817,-2.4461 0.5954,-1.0961 0.8927,-2.3509 0.8581,-3.6209 -0.0347,-1.2699 -0.3999,-2.5037 -1.054,-3.5601 L 6.64652,0 H 14.155 l 9.3268,14.3789 0.1881,0.3299 c 2.3513,4.6266 2.3513,9.6339 0.0706,13.7446 -1.1729,2.013 -2.7997,3.672 -4.7283,4.8219 -1.9286,1.1499 -4.0959,1.7531 -6.2993,1.7531 -2.2034,0 -4.37079,-0.6032 -6.2994,-1.7531 -1.9286,-1.1499 -3.5554,-2.8089 -4.72821,-4.8219 -2.241574,-4.1361 -2.241575,-9.1433 0.10972,-13.77 l 0.18811,-0.3383 2.6021,-3.9838"
       fill="#fc1921"
       id="path171" />
    <path
       d="M 16.9763,18.8195 12.7674,12.332 8.4489,18.8195 c -0.51825,0.8075 -0.80818,1.7601 -0.83461,2.742 -0.02643,0.9819 0.21176,1.9509 0.68569,2.7896 0.31134,0.5628 0.72771,1.0496 1.22268,1.4295 0.47754,0.37 1.00674,0.6555 1.56754,0.8458 0.7665,0.3278 1.5993,0.4323 2.4151,0.3032 0.8157,-0.1292 1.5857,-0.4875 2.2326,-1.0391 l 0.3292,-0.2622 c 0.9133,-0.8094 1.5108,-1.9602 1.6735,-3.2235 0.1626,-1.2633 -0.1214,-2.5463 -0.7957,-3.5938 z"
       fill="#e30513"
       id="path173" />
  </g>
  <defs
     id="defs180">
    <clipPath
       id="clip0_5527_6018">
      <rect
         width="129"
         height="35"
         fill="#ffffff"
         id="rect177"
         x="0"
         y="0" />
    </clipPath>
  </defs>
</svg>
