<?xml version="1.0" encoding="UTF-8"?><svg id="Layer_1" xmlns="http://www.w3.org/2000/svg" viewBox="0 0 79.2 79.2"><defs><style>.cls-1{stroke-linecap:round;}.cls-1,.cls-2{fill:none;stroke:#fff;stroke-miterlimit:10;stroke-width:3px;}.cls-3{fill:#fff;}.cls-4{fill:#e30513;}</style></defs><path class="cls-4" d="M50.33,16.12h-3.15c-.25,0-.45,.2-.47,.45-.23,3.82-3.41,6.85-7.29,6.85s-7.06-3.03-7.29-6.85c-.02-.25-.21-.45-.47-.45h-2.82c-2.77,0-5.01,2.24-5.01,5.01V61.21c0,1.03,.84,1.87,1.87,1.87h27.77c1.03,0,1.87-.84,1.87-1.87V21.13c0-2.77-2.24-5.01-5.01-5.01Z"/><g><path class="cls-3" d="M44.93,37.42l-4.88-7.72c-.09-.12-.22-.21-.37-.23-.15-.03-.3,.01-.43,.1-.05,.04-.09,.08-.13,.13l-4.88,7.72c-1.19,1.88-1.81,4.05-1.81,6.27,0,.88,.17,1.74,.51,2.55,.33,.81,.83,1.55,1.45,2.17,.62,.62,1.35,1.11,2.16,1.45,.81,.34,1.68,.51,2.55,.51h.98c.88,0,1.74-.17,2.55-.51,.81-.34,1.54-.83,2.16-1.45,.62-.62,1.11-1.36,1.45-2.17,.33-.81,.51-1.68,.51-2.55,0-2.22-.63-4.4-1.82-6.27h0Z"/><path class="cls-4" d="M40.21,47.47c-1.49,0-2.62-.53-3.57-1.48-.95-.95-1.48-2.29-1.48-3.57s1.79-1.27,2.02,0c.14,.77,.32,1.57,.89,2.14,.57,.57,1.2,.82,2.14,.89,1.45,.11,1.49,2.02,0,2.02Z"/></g><line class="cls-2" x1="21.43" y1="56.52" x2="57.75" y2="56.52"/><path class="cls-4" d="M54.63,18.57l9.72,13.2c.55,.9,.22,2.07-.7,2.57l-8.31,4.44-.71-20.21Z"/><path class="cls-4" d="M24.54,18.57l-9.7,13.2c-.55,.9-.22,2.07,.7,2.57l8.31,4.44,.68-20.21Z"/><line class="cls-1" x1="64.62" y1="27.96" x2="56.17" y2="32.87"/><line class="cls-1" x1="15.38" y1="27.96" x2="23.84" y2="32.87"/></svg>