<svg width="80" height="80" viewBox="0 0 80 80" fill="none" xmlns="http://www.w3.org/2000/svg">
<path d="M66.3104 29.2551C66.2652 29.3227 66.22 29.379 66.1748 29.4241C55.9039 39.656 56.0508 39.8814 53.8474 40.4899C50.9548 41.29 49.4634 39.4645 47.3391 40.9181C47.1696 41.0308 46.9549 41.0308 46.7968 40.8956C45.4522 39.6673 42.6161 37.1093 42.1528 36.6473C41.7234 36.2191 42.3223 35.5993 42.4466 35.3965C43.1245 34.202 41.5088 32.3089 42.3675 29.1537C43.0002 26.945 43.2036 27.1028 53.531 16.8145C53.9378 16.33 54.5254 16.0257 55.1581 16.0032C55.7909 15.9694 56.401 16.206 56.853 16.6568C57.305 17.1075 57.5422 17.716 57.5083 18.3471C57.4744 18.9781 57.1807 19.5641 56.6948 19.9697L50.3673 26.2914C50.1413 26.4943 50.0057 26.7873 50.0057 27.0915C50.0057 27.3958 50.1187 27.6887 50.3334 27.9029C50.5481 28.117 50.8418 28.2409 51.1469 28.2296C51.452 28.2296 51.7458 28.0944 51.9492 27.869L58.288 21.5586C58.6947 21.0741 59.2823 20.7698 59.9151 20.7473C60.5478 20.7135 61.158 20.9501 61.6099 21.4009C62.0619 21.8516 62.2992 22.4601 62.2653 23.0911C62.2314 23.7222 61.9376 24.3082 61.4517 24.7138L55.1129 31.0355C54.8869 31.2384 54.7513 31.5313 54.7513 31.8356C54.7513 32.1399 54.8643 32.4328 55.079 32.6469C55.2937 32.861 55.5875 32.985 55.8926 32.9737C56.1976 32.9737 56.4914 32.8385 56.6948 32.6131L63.0336 26.3027C63.4178 25.8294 63.9827 25.5364 64.5929 25.4914C65.2031 25.4463 65.8019 25.6491 66.2652 26.0548C66.7171 26.4605 66.9883 27.0464 66.9996 27.6549C67.0109 28.2634 66.7736 28.8607 66.3443 29.2889L66.3104 29.2551Z" fill="#E30513"/>
<path d="M59.772 62.794C58.9353 63.5975 57.8086 64.0215 56.6595 63.9992C55.4993 63.9768 54.406 63.497 53.6028 62.6601C43.2166 51.8363 33.2321 40.6443 33.2321 40.6443C32.2615 39.5396 30.8224 38.9817 29.361 39.1267C25.8915 39.4615 21.775 37.877 18.5286 34.6298C13.5977 29.6866 12.5267 22.7571 16.1412 19.1417C19.7557 15.5264 26.6947 16.5976 31.6256 21.5297C34.872 24.7768 36.4562 28.8943 36.1215 32.3646C35.9876 33.8264 36.5454 35.2659 37.6387 36.2367C44.3322 42.1842 54.0044 51.178 59.6493 56.6122C60.486 57.4156 60.9769 58.5091 60.9992 59.6696C61.0215 60.8301 60.5864 61.946 59.7832 62.7829L59.772 62.794Z" fill="#E30513"/>
<path d="M18.0953 62.6445C16.5614 60.9355 16.649 58.2467 18.2925 56.6516L31.7471 44.3012C32.1853 43.8796 32.8646 43.9024 33.281 44.3581L36.7104 48.0838C37.1158 48.5395 37.0938 49.2459 36.6556 49.6789L23.8475 62.861C22.204 64.4561 19.6183 64.365 18.0843 62.6559L18.0953 62.6445Z" fill="#E30513"/>
<path d="M22 20.0019C22 20.0019 26.7848 19.7496 29 25" stroke="white" stroke-width="2" stroke-miterlimit="10" stroke-linecap="round"/>
<path d="M21 59L26 54" stroke="white" stroke-width="2" stroke-miterlimit="10" stroke-linecap="round"/>
</svg>
