<svg width="80" height="80" viewBox="0 0 80 80" fill="none" xmlns="http://www.w3.org/2000/svg">
<path fill-rule="evenodd" clip-rule="evenodd" d="M41.3524 56.902C43.7279 55.0792 49.3608 51.7041 58.992 51.0691C60.7913 50.9515 62.2142 49.4933 62.2142 47.6823V24.1628C62.2142 23.3749 61.7321 22.6693 61.003 22.3871C57.8866 21.1876 49.2785 18.8592 41.3524 25.5387V56.902ZM32.6149 56.4786C28.7224 56.2317 23.2071 56.5492 15.8573 58.4425C13.9051 58.9482 12.0001 57.4664 12.0001 55.4438V33.159C12.0001 32.0889 12.5528 31.0893 13.47 30.5248C13.9169 30.2544 14.4578 29.9251 15.0929 29.5841V50.9986C15.0929 52.4685 16.2806 53.6563 17.7506 53.6563H17.7976C22.7955 53.6563 28.0168 54.4207 32.6267 56.4786H32.6149ZM47.3852 56.4786C51.2776 56.2317 56.793 56.5492 64.1428 58.4425C66.0949 58.9482 68 57.4664 68 55.4438V33.159C68 32.0889 67.4473 31.0893 66.53 30.5248C66.0832 30.2544 65.5422 29.9251 64.9072 29.5841V50.9986C64.9072 52.4685 63.7195 53.6563 62.2495 53.6563H62.2024C57.2046 53.6563 51.9832 54.4207 47.3734 56.4786H47.3852ZM38.6477 25.5387C30.7333 18.8592 22.1252 21.1876 18.9971 22.3871C18.2562 22.6693 17.7859 23.3749 17.7859 24.1628V47.6706C17.7859 49.4816 19.2088 50.9398 21.008 51.0574C30.6393 51.6924 36.2604 55.0674 38.6477 56.8902V25.5387Z" fill="#E30513"/>
</svg>
