<svg width="80" height="80" viewBox="0 0 80 80" fill="none" xmlns="http://www.w3.org/2000/svg">
<path d="M51.9358 36.5399C56.0077 36.5399 59.7158 38.0486 62.5438 40.5089C62.755 39.6617 62.931 38.803 63.0367 37.9326H65.0785C65.7708 37.9326 66.4045 37.5728 66.7448 36.9809C67.0851 36.3891 67.0851 35.6579 66.7448 35.0777C66.4045 34.4858 65.7591 34.126 65.0785 34.126H63.154C62.6729 29.4027 60.4316 25.0275 56.8643 21.8477C53.297 18.6678 48.6618 16.9271 43.8624 16.9503H36.1411C34.3927 16.9503 32.6559 17.1824 30.9662 17.6582C28.8187 16.5093 26.5305 15.6273 24.1601 15.047C23.6908 14.9426 23.1862 15.0122 22.7637 15.2559C22.3413 15.4996 22.0244 15.8826 21.8836 16.3468C21.0857 19.016 20.6867 21.8013 20.7102 24.5865C19.5133 26.1764 18.5628 27.952 17.9174 29.8321L14.62 30.3079C14.1623 30.3775 13.7516 30.6096 13.4465 30.9694C13.1531 31.3176 12.9889 31.7586 13.0006 32.2228V39.859C13.0006 40.2536 13.1297 40.6482 13.3644 40.9731C13.599 41.2981 13.9276 41.5418 14.3149 41.6695L18.1755 42.9344C18.6684 44.269 19.3138 45.5572 20.1 46.7526L18.598 49.3986C18.0934 50.2689 17.9526 51.3134 18.2225 52.2767C18.4806 53.2515 19.126 54.0755 20.0061 54.5861L23.28 56.4894C23.8668 56.8259 24.5356 57 25.2045 57C25.5448 57 25.8851 56.9536 26.2019 56.8723C27.1994 56.617 28.056 55.9903 28.5723 55.1199L29.2881 53.8782C31.459 54.7022 33.759 55.1199 36.0707 55.1199C35.9299 54.2612 35.836 53.3792 35.836 52.4739C35.836 43.6772 43.041 36.5515 51.9358 36.5515V36.5399ZM38.0773 22.6717H45.7986C46.8665 22.6717 47.7231 23.5304 47.7231 24.5749C47.7231 25.631 46.8547 26.4782 45.7986 26.4782H38.0773C37.0095 26.4782 36.1528 25.6194 36.1528 24.5749C36.1528 23.5188 37.0212 22.6717 38.0773 22.6717ZM27.8682 31.6541C27.5045 32.0139 27.0116 32.2112 26.507 32.2112C26.0025 32.2112 25.5096 32.0139 25.1458 31.6541C24.7821 31.2944 24.5826 30.8069 24.5826 30.3079C24.5826 29.8089 24.7821 29.3215 25.1458 28.9617C25.5096 28.6019 26.0025 28.4046 26.507 28.4046C27.0116 28.4046 27.5045 28.6019 27.8682 28.9617C28.232 29.3215 28.4315 29.8089 28.4315 30.3079C28.4315 30.8069 28.232 31.2944 27.8682 31.6541Z" fill="#E30513"/>
<path d="M52 40C44.8164 40 39 45.5927 39 52.5C39 59.4073 44.8164 65 52 65C59.1836 65 65 59.4073 65 52.5C65 45.5927 59.1836 40 52 40ZM55.4179 57.7006C54.7703 58.3579 53.8948 58.7846 52.9594 58.8884V59.8339C52.9594 60.3413 52.5277 60.7565 52 60.7565C51.4723 60.7565 51.0406 60.3413 51.0406 59.8339V58.8884C49.8054 58.7039 48.714 58.0235 48.0185 57.0203C47.8865 56.8127 47.8386 56.559 47.8865 56.3169C47.9465 56.0747 48.0904 55.8672 48.3183 55.7403C48.5341 55.6135 48.798 55.5673 49.0498 55.625C49.3017 55.6827 49.5175 55.8326 49.6494 56.0401C50.2011 56.7551 51.0766 57.1587 52 57.1356C53.4151 57.1356 54.5904 56.2823 54.5904 55.2791C54.5904 54.3681 53.655 53.8607 53.2592 53.6647C52.8035 53.5032 52.3238 53.411 51.8441 53.3994C51.1125 53.3649 50.405 53.2034 49.7334 52.9151C49.0858 52.6384 48.5221 52.1887 48.1264 51.6236C47.7306 51.0586 47.5028 50.4013 47.4788 49.7094C47.5387 48.81 47.9225 47.9451 48.5821 47.2878C49.2297 46.6305 50.0932 46.2039 51.0286 46.1001V45.143C51.0286 44.6356 51.4603 44.2205 51.988 44.2205C52.5157 44.2205 52.9474 44.6356 52.9474 45.143V46.1001C54.1467 46.2846 55.226 46.9304 55.9336 47.899C56.0775 48.1065 56.1255 48.3487 56.0775 48.5909C56.0295 48.833 55.8736 49.0406 55.6697 49.179C55.226 49.4557 54.6264 49.3404 54.3386 48.9137C53.7869 48.2219 52.9114 47.8298 52 47.8644C50.5969 47.8644 49.4096 48.7177 49.4096 49.7094C49.4336 50.0438 49.5655 50.3667 49.7694 50.6435C49.9732 50.9202 50.2611 51.1278 50.5849 51.2546C51.0526 51.4276 51.5443 51.5314 52.048 51.5544C52.7435 51.589 53.4271 51.7274 54.0747 51.9926C54.7703 52.2578 55.3579 52.7076 55.7897 53.2841C56.2214 53.8607 56.4732 54.5526 56.4972 55.2675C56.4373 56.1785 56.0415 57.0318 55.3939 57.6891L55.4179 57.7006Z" fill="#E30513"/>
</svg>
