<?xml version="1.0" encoding="UTF-8"?><svg id="Layer_1" xmlns="http://www.w3.org/2000/svg" viewBox="0 0 79.2 79.2"><defs><style>.cls-1{fill:#fff;}.cls-2{fill:#e30513;}</style></defs><rect class="cls-2" x="23.36" y="21.59" width="21.45" height="23.44" rx="10.72" ry="10.72"/><path class="cls-2" d="M28.51,46.92h11.15c5.53,0,10.03,4.49,10.03,10.03v9.32c0,1.13-.92,2.05-2.05,2.05H20.53c-1.13,0-2.05-.92-2.05-2.05v-9.32c0-5.53,4.49-10.03,10.03-10.03Z"/><path class="cls-2" d="M43.15,22.61c.22-.15,.39-.37,.46-.64l1.42-5.72c.13-.53-.15-1.08-.66-1.29l-9.87-3.99c-.27-.11-.56-.11-.83,0l-9.87,3.99c-.51,.21-.79,.76-.66,1.29l1.42,5.72c.07,.27,.24,.49,.46,.64,2.44-2.08,5.6-3.35,9.06-3.35s6.62,1.27,9.06,3.35Z"/><g><path class="cls-1" d="M37.76,46.15l3.63-.55,2.44,6.92c.04,.1-.02,.21-.12,.24l-5.26,.4c-.22,.07-.42,.21-.57,.39l-3.64,4.55c-.13,.16-.38,.02-.32-.17l3.84-11.78Z"/><path class="cls-1" d="M30.4,46.15l-3.63-.55-2.44,6.92c-.04,.1,.02,.21,.12,.24l5.26,.4c.22,.07,.42,.21,.57,.39l3.64,4.55c.13,.16,.38,.02,.32-.17l-3.84-11.78Z"/></g><g><path class="cls-2" d="M57.18,37.01l-3.59-5.68c-.07-.09-.16-.15-.27-.17-.11-.02-.22,0-.31,.07-.04,.03-.07,.06-.1,.1l-3.59,5.68c-.87,1.38-1.34,2.98-1.34,4.62,0,.64,.13,1.28,.37,1.88,.25,.6,.61,1.14,1.06,1.59,.46,.46,1,.82,1.59,1.07,.6,.25,1.23,.37,1.88,.37h.72c.64,0,1.28-.13,1.88-.37,.6-.25,1.14-.61,1.59-1.07,.46-.46,.82-1,1.06-1.59,.25-.6,.37-1.23,.37-1.88,0-1.63-.46-3.23-1.34-4.62h0Z"/><path class="cls-1" d="M53.71,44.4c-1.1,0-1.93-.39-2.63-1.09-.7-.7-1.09-1.69-1.09-2.62s1.32-.94,1.49,0c.1,.56,.23,1.16,.65,1.58,.42,.42,.88,.6,1.58,.65,1.07,.08,1.1,1.48,0,1.48Z"/></g></svg>