<?xml version="1.0" encoding="UTF-8"?><svg id="Layer_1" xmlns="http://www.w3.org/2000/svg" viewBox="0 0 79.2 79.2"><defs><style>.cls-1{fill:#fff;}.cls-2{fill:#e30513;}</style></defs><g><path class="cls-2" d="M55.69,54.03c-2.99,0-5.43-2.43-5.43-5.43V27.52h10.85v21.08c0,2.99-2.43,5.43-5.43,5.43Z"/><path class="cls-2" d="M62.62,27.52h-13.86c-.57,0-1.03-.46-1.03-1.03s.46-1.03,1.03-1.03h13.86c.57,0,1.03,.46,1.03,1.03s-.46,1.03-1.03,1.03Z"/><rect class="cls-1" x="52.33" y="27.52" width="6.71" height="8.2" rx=".43" ry=".43"/><path class="cls-1" d="M53.36,49.66c-.57,0-1.03-.46-1.03-1.03v-8.73c0-.57,.46-1.03,1.03-1.03s1.03,.46,1.03,1.03v8.73c0,.57-.46,1.03-1.03,1.03Z"/></g><g><path class="cls-2" d="M40.99,24.13h-15.66c-.64,0-1.16-.73-1.16-1.64s.52-1.64,1.16-1.64h15.66c.64,0,1.16,.73,1.16,1.64s-.52,1.64-1.16,1.64Z"/><rect class="cls-2" x="27.54" y="24.13" width="11.24" height="13.11"/><path class="cls-2" d="M38.78,37.24h-11.24l-11.31,19.23c-1.81,2.77,.18,6.43,3.48,6.43h26.89c3.3,0,5.29-3.67,3.48-6.43l-11.31-19.23Z"/><rect class="cls-1" x="29.84" y="24.13" width="6.64" height="11.61" rx=".51" ry=".51"/><path class="cls-1" d="M19.47,58.74c-.49-.28-.65-.91-.37-1.39l4.69-8.3c.28-.49,.91-.65,1.39-.37s.65,.91,.37,1.39l-4.69,8.3c-.28,.49-.91,.65-1.39,.37Z"/><path class="cls-1" d="M26.22,46.72c-.49-.28-.65-.91-.37-1.39l2.38-4.05c.28-.49,.91-.65,1.39-.37s.65,.91,.37,1.39l-2.38,4.05c-.28,.49-.91,.65-1.39,.37Z"/></g><path class="cls-2" d="M56.6,18.38l-2.02-3.2c-.04-.05-.09-.09-.15-.1-.06-.01-.13,0-.18,.04-.02,.02-.04,.03-.05,.06l-2.02,3.2c-.49,.78-.75,1.68-.75,2.6,0,.36,.07,.72,.21,1.06,.14,.34,.34,.64,.6,.9,.26,.26,.56,.46,.9,.6,.34,.14,.69,.21,1.06,.21h.41c.36,0,.72-.07,1.06-.21,.34-.14,.64-.34,.9-.6,.26-.26,.46-.56,.6-.9,.14-.34,.21-.69,.21-1.06,0-.92-.26-1.82-.75-2.6h0Z"/><circle class="cls-2" cx="59.84" cy="18.21" r="1.65"/><circle class="cls-2" cx="57.37" cy="13.06" r="1.22"/></svg>