<svg width="80" height="80" viewBox="0 0 80 80" fill="none" xmlns="http://www.w3.org/2000/svg">
<path d="M47.8236 25.0124L45.0942 29.4547C49.639 31.3781 52.8253 35.8949 52.8253 41.1438C52.8253 48.1299 47.169 53.8131 40.2159 53.8131C34.8066 53.8131 30.2001 50.3759 28.4093 45.5613H23C24.9637 53.2796 31.9167 59 40.2159 59C50.0342 59 58 50.9964 58 41.1314C58 33.9964 53.838 27.8664 47.8236 25V25.0124Z" fill="#E30513"/>
<path d="M36.1824 46H18.8176C18.3661 46 18 46.3022 18 46.6751V49.3249C18 49.6978 18.3661 50 18.8176 50H36.1824C36.6339 50 37 49.6978 37 49.3249V46.6751C37 46.3022 36.6339 46 36.1824 46Z" fill="#E30513"/>
<path d="M48.2801 56H31.7199C27.4581 56 24 59.6153 24 64.0707C24 64.5799 24.4018 65 24.8889 65H55.1111C55.5982 65 56 64.5799 56 64.0707C56 59.6153 52.5419 56 48.2801 56Z" fill="#E30513"/>
<path d="M61.4811 67H19.5189C18.68 67 18 67.6716 18 68.5C18 69.3284 18.68 70 19.5189 70H61.4811C62.32 70 63 69.3284 63 68.5C63 67.6716 62.32 67 61.4811 67Z" fill="#E30513"/>
<path d="M48.4451 17.3227L41.9694 13.3256C40.9975 12.7303 39.734 13.034 39.1386 13.9938L30.9135 27.3338C30.3182 28.3058 30.6219 29.5693 31.5817 30.1646L38.0573 34.1618C39.0293 34.7571 40.2928 34.4533 40.8882 33.4935L49.1133 20.1535C49.7086 19.1816 49.4049 17.9181 48.4451 17.3227ZM42.6012 18.076L40.147 21.6844C39.8919 22.061 39.4667 22.2554 39.0414 22.2432C38.8106 22.2432 38.5919 22.1582 38.3854 22.0245C37.8022 21.6236 37.6564 20.8339 38.0452 20.2629L40.4994 16.6545C40.9003 16.0714 41.69 15.9256 42.261 16.3143C42.8442 16.7153 42.99 17.505 42.6012 18.076Z" fill="#E30513"/>
<path d="M44.1636 9.73477L42.958 11.6891C42.8312 11.8946 42.8951 12.1641 43.1006 12.2909L48.8601 15.8439C49.0657 15.9707 49.3352 15.9069 49.462 15.7013L50.6676 13.747C50.7944 13.5414 50.7305 13.2719 50.525 13.1451L44.7655 9.59216C44.5599 9.46534 44.2904 9.52919 44.1636 9.73477Z" fill="#E30513"/>
<path d="M30.5243 31.8383L29.3187 33.7926C29.1919 33.9982 29.2558 34.2677 29.4614 34.3945L35.2208 37.9474C35.4264 38.0743 35.6959 38.0104 35.8227 37.8048L37.0283 35.8505C37.1551 35.645 37.0913 35.3755 36.8857 35.2487L31.1262 31.6957C30.9206 31.5689 30.6512 31.6327 30.5243 31.8383Z" fill="#E30513"/>
</svg>
