<?xml version="1.0" encoding="UTF-8"?><svg id="Layer_1" xmlns="http://www.w3.org/2000/svg" viewBox="0 0 79.2 79.2"><defs><style>.cls-1{fill:#e30513;}</style></defs><path class="cls-1" d="M28.39,33.71c-3.95,0-7.16-3.21-7.16-7.16s3.21-7.16,7.16-7.16,7.16,3.21,7.16,7.16-3.21,7.16-7.16,7.16Zm0-11.32c-2.29,0-4.16,1.87-4.16,4.16s1.87,4.16,4.16,4.16,4.16-1.87,4.16-4.16-1.87-4.16-4.16-4.16Z"/><circle class="cls-1" cx="28.39" cy="26.54" r="2.73"/><path class="cls-1" d="M53.78,33.71c-3.95,0-7.16-3.21-7.16-7.16s3.21-7.16,7.16-7.16,7.16,3.21,7.16,7.16-3.21,7.16-7.16,7.16Zm0-11.32c-2.29,0-4.16,1.87-4.16,4.16s1.87,4.16,4.16,4.16,4.16-1.87,4.16-4.16-1.87-4.16-4.16-4.16Z"/><circle class="cls-1" cx="53.78" cy="26.54" r="2.73"/><path class="cls-1" d="M28.39,59.75c-3.95,0-7.16-3.21-7.16-7.16s3.21-7.16,7.16-7.16,7.16,3.21,7.16,7.16-3.21,7.16-7.16,7.16Zm0-11.32c-2.29,0-4.16,1.87-4.16,4.16s1.87,4.16,4.16,4.16,4.16-1.87,4.16-4.16-1.87-4.16-4.16-4.16Z"/><circle class="cls-1" cx="28.39" cy="52.59" r="2.73"/><path class="cls-1" d="M53.78,59.75c-3.95,0-7.16-3.21-7.16-7.16s3.21-7.16,7.16-7.16,7.16,3.21,7.16,7.16-3.21,7.16-7.16,7.16Zm0-11.32c-2.29,0-4.16,1.87-4.16,4.16s1.87,4.16,4.16,4.16,4.16-1.87,4.16-4.16-1.87-4.16-4.16-4.16Z"/><circle class="cls-1" cx="53.78" cy="52.59" r="2.73"/><path class="cls-1" d="M40.97,46.2c-3.95,0-7.16-3.21-7.16-7.16s3.21-7.16,7.16-7.16,7.16,3.21,7.16,7.16-3.21,7.16-7.16,7.16Zm0-11.32c-2.29,0-4.16,1.87-4.16,4.16s1.87,4.16,4.16,4.16,4.16-1.87,4.16-4.16-1.87-4.16-4.16-4.16Z"/><circle class="cls-1" cx="40.97" cy="39.04" r="2.73"/><g><path class="cls-1" d="M24.18,23.86c-.26,0-.51-.1-.71-.29l-3.95-3.95c-.39-.39-.39-1.02,0-1.41s1.02-.39,1.41,0l3.95,3.95c.39,.39,.39,1.02,0,1.41-.2,.2-.45,.29-.71,.29Z"/><path class="cls-1" d="M33.34,23.86c-.26,0-.51-.1-.71-.29-.39-.39-.39-1.02,0-1.41l3.95-3.95c.39-.39,1.02-.39,1.41,0s.39,1.02,0,1.41l-3.95,3.95c-.2,.2-.45,.29-.71,.29Z"/><path class="cls-1" d="M20.23,35.18c-.26,0-.51-.1-.71-.29-.39-.39-.39-1.02,0-1.41l3.95-3.95c.39-.39,1.02-.39,1.41,0s.39,1.02,0,1.41l-3.95,3.95c-.2,.2-.45,.29-.71,.29Z"/><path class="cls-1" d="M37.29,35.18c-.26,0-.51-.1-.71-.29l-3.95-3.95c-.39-.39-.39-1.02,0-1.41s1.02-.39,1.41,0l3.95,3.95c.39,.39,.39,1.02,0,1.41-.2,.2-.45,.29-.71,.29Z"/></g><g><path class="cls-1" d="M49.2,23.86c-.26,0-.51-.1-.71-.29l-3.95-3.95c-.39-.39-.39-1.02,0-1.41s1.02-.39,1.41,0l3.95,3.95c.39,.39,.39,1.02,0,1.41-.2,.2-.45,.29-.71,.29Z"/><path class="cls-1" d="M58.35,23.86c-.26,0-.51-.1-.71-.29-.39-.39-.39-1.02,0-1.41l3.95-3.95c.39-.39,1.02-.39,1.41,0s.39,1.02,0,1.41l-3.95,3.95c-.2,.2-.45,.29-.71,.29Z"/><path class="cls-1" d="M45.25,35.18c-.26,0-.51-.1-.71-.29-.39-.39-.39-1.02,0-1.41l3.95-3.95c.39-.39,1.02-.39,1.41,0s.39,1.02,0,1.41l-3.95,3.95c-.2,.2-.45,.29-.71,.29Z"/><path class="cls-1" d="M62.3,35.18c-.26,0-.51-.1-.71-.29l-3.95-3.95c-.39-.39-.39-1.02,0-1.41s1.02-.39,1.41,0l3.95,3.95c.39,.39,.39,1.02,0,1.41-.2,.2-.45,.29-.71,.29Z"/></g><g><path class="cls-1" d="M24.18,49.91c-.26,0-.51-.1-.71-.29l-3.95-3.95c-.39-.39-.39-1.02,0-1.41s1.02-.39,1.41,0l3.95,3.95c.39,.39,.39,1.02,0,1.41-.2,.2-.45,.29-.71,.29Z"/><path class="cls-1" d="M33.34,49.91c-.26,0-.51-.1-.71-.29-.39-.39-.39-1.02,0-1.41l3.95-3.95c.39-.39,1.02-.39,1.41,0s.39,1.02,0,1.41l-3.95,3.95c-.2,.2-.45,.29-.71,.29Z"/><path class="cls-1" d="M20.23,61.23c-.26,0-.51-.1-.71-.29-.39-.39-.39-1.02,0-1.41l3.95-3.95c.39-.39,1.02-.39,1.41,0s.39,1.02,0,1.41l-3.95,3.95c-.2,.2-.45,.29-.71,.29Z"/><path class="cls-1" d="M37.29,61.23c-.26,0-.51-.1-.71-.29l-3.95-3.95c-.39-.39-.39-1.02,0-1.41s1.02-.39,1.41,0l3.95,3.95c.39,.39,.39,1.02,0,1.41-.2,.2-.45,.29-.71,.29Z"/></g><g><path class="cls-1" d="M49.2,49.91c-.26,0-.51-.1-.71-.29l-3.95-3.95c-.39-.39-.39-1.02,0-1.41s1.02-.39,1.41,0l3.95,3.95c.39,.39,.39,1.02,0,1.41-.2,.2-.45,.29-.71,.29Z"/><path class="cls-1" d="M58.35,49.91c-.26,0-.51-.1-.71-.29-.39-.39-.39-1.02,0-1.41l3.95-3.95c.39-.39,1.02-.39,1.41,0s.39,1.02,0,1.41l-3.95,3.95c-.2,.2-.45,.29-.71,.29Z"/><path class="cls-1" d="M45.25,61.23c-.26,0-.51-.1-.71-.29-.39-.39-.39-1.02,0-1.41l3.95-3.95c.39-.39,1.02-.39,1.41,0s.39,1.02,0,1.41l-3.95,3.95c-.2,.2-.45,.29-.71,.29Z"/><path class="cls-1" d="M62.3,61.23c-.26,0-.51-.1-.71-.29l-3.95-3.95c-.39-.39-.39-1.02,0-1.41s1.02-.39,1.41,0l3.95,3.95c.39,.39,.39,1.02,0,1.41-.2,.2-.45,.29-.71,.29Z"/></g></svg>