<?xml version="1.0" encoding="UTF-8"?><svg id="Layer_1" xmlns="http://www.w3.org/2000/svg" viewBox="0 0 79.2 79.2"><defs><style>.cls-1{fill:#fff;}.cls-2{fill:#e30513;}</style></defs><path class="cls-2" d="M35.27,41.11v-3c8.77,0,15.9-7.13,15.9-15.9v-1.19c0-.53-.43-.97-.97-.97h-4.18v-3h4.18c2.19,0,3.97,1.78,3.97,3.97v1.19c0,10.42-8.48,18.9-18.9,18.9Z"/><rect class="cls-2" x="31.94" y="39.61" width="6.61" height="6.24" rx="1.3" ry="1.3"/><rect class="cls-2" x="42.05" y="14.87" width="4.24" height="7.37" rx="1.35" ry="1.35"/><path class="cls-2" d="M35.27,41.11c-10.42,0-18.9-8.48-18.9-18.9v-1.19c0-2.19,1.78-3.97,3.97-3.97h4.18v3h-4.18c-.53,0-.97,.43-.97,.97v1.19c0,8.77,7.13,15.9,15.9,15.9v3Z"/><rect class="cls-2" x="24.25" y="14.87" width="4.24" height="7.37" rx="1.35" ry="1.35" transform="translate(52.75 37.1) rotate(-180)"/><path class="cls-2" d="M39.61,61.64h-3.17c-1.47,0-2.67-1.2-2.67-2.67v-13.12h3v12.79h2.52v-8.16c0-1.47,1.2-2.67,2.67-2.67h2.73c1.47,0,2.67,1.2,2.67,2.67v2.56h4.76v3h-5.35c-1.33,0-2.42-1.08-2.42-2.42v-2.82h-2.08v8.16c0,1.47-1.2,2.67-2.67,2.67Z"/><path class="cls-2" d="M58.05,60.58c-3.4,0-6.17-2.77-6.17-6.17s2.77-6.17,6.17-6.17,6.17,2.77,6.17,6.17-2.77,6.17-6.17,6.17Zm0-10.35c-2.3,0-4.17,1.87-4.17,4.17s1.87,4.17,4.17,4.17,4.17-1.87,4.17-4.17-1.87-4.17-4.17-4.17Z"/><circle class="cls-2" cx="58.05" cy="54.41" r="2.7"/><path class="cls-2" d="M39.88,22.29l-3.91-6.18c-.07-.1-.18-.17-.3-.19-.12-.02-.24,0-.34,.08-.04,.03-.07,.07-.1,.11l-3.91,6.18c-.95,1.5-1.45,3.24-1.45,5.02,0,.7,.14,1.4,.41,2.04,.27,.65,.66,1.24,1.16,1.73,.5,.5,1.08,.89,1.73,1.16,.65,.27,1.34,.41,2.04,.41h.78c.7,0,1.4-.14,2.04-.41,.65-.27,1.24-.66,1.73-1.16,.5-.5,.89-1.09,1.16-1.73,.27-.65,.41-1.34,.41-2.04,0-1.78-.5-3.52-1.45-5.02h0Z"/><path class="cls-1" d="M36.1,30.33c-1.19,0-2.1-.43-2.86-1.18-.76-.76-1.19-1.84-1.19-2.86s1.43-1.02,1.62,0c.11,.61,.26,1.26,.71,1.72,.45,.46,.96,.65,1.72,.71,1.16,.09,1.19,1.61,0,1.61Z"/></svg>