<?xml version="1.0" encoding="UTF-8"?><svg id="Layer_1" xmlns="http://www.w3.org/2000/svg" viewBox="0 0 79.2 79.2"><defs><style>.cls-1{fill:none;stroke:#e30513;stroke-linecap:round;stroke-miterlimit:10;stroke-width:3px;}.cls-2{fill:#fff;}.cls-3{fill:#e30513;}</style></defs><g><path class="cls-1" d="M24.46,11.85v10.11c0,10.44,8.4,17.16,15.15,17.16h-.03c6.64,0,15.15-6.18,15.15-17.16V11.85"/><path class="cls-1" d="M24.46,67.35v-10.11c0-10.44,8.4-17.16,15.15-17.16h-.03c6.64,0,15.15,6.18,15.15,17.16v10.11"/><line class="cls-1" x1="30.69" y1="15.98" x2="48.51" y2="15.98"/><line class="cls-1" x1="30.69" y1="23.48" x2="48.51" y2="23.48"/><line class="cls-1" x1="33.77" y1="30.92" x2="45.43" y2="30.92"/><line class="cls-1" x1="48.51" y1="62.31" x2="30.69" y2="62.31"/><line class="cls-1" x1="48.51" y1="54.81" x2="30.69" y2="54.81"/><line class="cls-1" x1="45.43" y1="47.37" x2="33.77" y2="47.37"/></g><path class="cls-2" d="M50.81,8.86h10.77V25.13h-5.83c-2.73,0-4.94-2.21-4.94-4.94V8.86h0Z"/><path class="cls-3" d="M60.87,14.24l-3.4-5.38c-.06-.09-.15-.14-.26-.16-.1-.02-.21,0-.3,.07-.03,.03-.07,.06-.09,.09l-3.4,5.38c-.83,1.31-1.26,2.82-1.26,4.37,0,.61,.12,1.22,.35,1.78,.23,.56,.58,1.08,1.01,1.51,.43,.43,.94,.77,1.51,1.01,.56,.23,1.17,.35,1.78,.35h.68c.61,0,1.22-.12,1.78-.35,.56-.23,1.08-.58,1.51-1.01,.43-.43,.77-.94,1.01-1.51,.23-.56,.35-1.17,.35-1.78,0-1.55-.44-3.06-1.26-4.37h0Z"/></svg>