<?xml version="1.0" encoding="UTF-8"?><svg id="Layer_1" xmlns="http://www.w3.org/2000/svg" viewBox="0 0 79.2 79.2"><defs><style>.cls-1{fill:none;stroke:#e30513;stroke-miterlimit:10;stroke-width:3px;}.cls-2{fill:#fff;}.cls-3{fill:#e30513;}</style></defs><path class="cls-3" d="M58.67,49.56h4.8c.98,0,1.78-.8,1.78-1.78V25.41c0-.98-.8-1.78-1.78-1.78H21.91c-.98,0-1.78,.8-1.78,1.78v5.05H58.67v19.1Z"/><rect class="cls-1" x="13.96" y="29.64" width="45.11" height="25.92" rx="1.78" ry="1.78"/><rect class="cls-3" x="19.35" y="34.32" width="15.44" height="16.56" rx="1.94" ry="1.94"/><g><rect class="cls-2" x="23.83" y="36.96" width="6.48" height="7.08" rx="3.24" ry="3.24"/><path class="cls-2" d="M23,48.24c-.36,0-.65-.34-.56-.69,.31-1.34,1.51-2.34,2.95-2.34h3.37c1.44,0,2.64,1,2.95,2.34,.08,.35-.2,.69-.56,.69h-8.14Z"/></g><rect class="cls-3" x="37.49" y="35" width="16.99" height="3.19" rx="1.6" ry="1.6"/><rect class="cls-3" x="37.49" y="40.11" width="16.99" height="3.19" rx="1.6" ry="1.6"/><rect class="cls-3" x="37.49" y="45.23" width="10.39" height="3.19" rx="1.6" ry="1.6"/></svg>