<svg width="80" height="80" viewBox="0 0 80 80" fill="none" xmlns="http://www.w3.org/2000/svg">
<path d="M61.3343 15.3488C63.3558 17.1079 63.5692 20.1828 61.8101 22.2043L56.6969 28.0802C56.4545 28.3587 56.0266 28.3968 55.7391 28.1466L49.4231 22.6503C49.1445 22.408 49.1064 21.9801 49.3566 21.6926L54.4698 15.8167C56.2289 13.7952 59.3038 13.5818 61.3253 15.3409L61.3343 15.3488Z" fill="#E30513"/>
<path d="M56.6923 34.2239L43.103 22.5528C41.7623 21.4098 41.6283 19.4124 42.7861 18.0889C43.9439 16.7654 45.9671 16.633 47.3077 17.7761L60.897 29.4472C62.2377 30.5902 62.3717 32.5876 61.2139 33.9111C60.0561 35.2346 58.0329 35.367 56.6923 34.2239Z" fill="#E30513"/>
<path d="M44.5482 26.3155C44.0276 25.8491 43.2231 25.9089 42.7735 26.435L21.5013 51.1417C20.1171 52.7561 19.6557 54.8489 20.0461 56.7862C20.1999 57.5516 20.0461 58.3408 19.5847 58.9866L17.2303 62.335C16.8872 62.7297 16.9345 63.3157 17.325 63.6625L19.7148 65.7672C20.1053 66.114 20.685 66.0662 21.0281 65.6715L23.9858 62.8493C24.5419 62.3111 25.2991 62.0361 26.0799 62.0839C28.0439 62.2035 30.0315 61.4621 31.4157 59.8476L52.6879 35.141C53.1493 34.6148 53.0902 33.8016 52.5696 33.3472L44.5718 26.3035L44.5482 26.3155Z" fill="#E30513"/>
<path d="M27.6394 58.536C26.8874 57.8698 26.7138 56.8179 27.5816 55.8127L45.6774 34.8095C46.5451 33.8043 47.6212 33.7926 48.3732 34.4589C49.1253 35.1251 49.2757 36.2004 48.4079 37.2055L30.3122 58.2087C29.4444 59.2139 28.3915 59.1905 27.6279 58.536H27.6394Z" fill="white"/>
</svg>
