<svg width="32" height="39" viewBox="0 0 32 39" fill="none" xmlns="http://www.w3.org/2000/svg">
<path fill-rule="evenodd" clip-rule="evenodd" d="M29.1584 0H2.75451C1.22442 0 0 1.11571 0 2.50994V31.9087C0 33.303 1.22442 34.4187 2.75451 34.4187H8.83028L7.1704 32.9062H2.79871C2.18737 32.9062 1.70579 32.4674 1.70579 31.9103L1.70408 2.5099C1.70408 1.95284 2.18567 1.51402 2.797 1.51402H29.2457C29.857 1.51402 30.3386 1.95284 30.3386 2.5099V31.9087C30.3386 32.4658 29.857 32.9046 29.2457 32.9046H25.4854L23.8255 34.4171H29.2455C30.7756 34.4171 32 33.3014 32 31.9072V2.50994C31.9573 1.11571 30.6885 0 29.1584 0ZM18.9269 15.8546C19.7141 15.0984 20.0642 14.1025 20.0642 12.7876C20.0642 11.5132 19.6714 10.4768 18.8842 9.75948C18.097 9.04213 16.9614 8.68425 15.4739 8.68425H12.5452V16.9704H15.3868C16.9596 17.0093 18.1397 16.6109 18.9269 15.8547L18.9269 15.8546ZM17.5283 14.7389C17.0911 15.1777 16.4354 15.3769 15.6054 15.3769H14.4254L14.4237 10.3166H15.4722C16.391 10.3166 17.0894 10.5563 17.571 10.9935C18.0082 11.4323 18.2712 12.0687 18.2712 12.8654C18.2268 13.6637 17.9655 14.3001 17.5283 14.7389L17.5283 14.7389ZM8.12935 14.6986C9.35377 14.6986 10.2708 14.459 10.8394 13.9812C11.4508 13.5035 11.7138 12.7457 11.7138 11.7498C11.7138 10.7135 11.4081 9.95725 10.8394 9.47954C10.2708 9.00184 9.35377 8.72331 8.08493 8.72331H5.15625V17.0094H6.99201V14.6987L8.12935 14.6986ZM6.99201 10.3167H8.04051C8.65185 10.3167 9.08902 10.4365 9.39643 10.6357C9.70211 10.8349 9.8336 11.1928 9.8336 11.6721C9.8336 12.1498 9.70211 12.5092 9.48353 12.7473C9.26494 12.9869 8.82778 13.1052 8.21644 13.1052H6.99202L6.99201 10.3167ZM26.7551 8.72331V10.3572L22.9077 10.3573V12.1499H26.5365V13.7433H22.9077V17.0094H21.0719V8.72331H26.7551ZM19.8891 29.6768L25.6169 29.7157L16.0858 38.3999L6.29232 29.4776L12.0201 29.5569V21.0716H19.8891V29.6768Z" fill="#1E2A3A"/>
</svg>
