<svg width="229" height="80" viewBox="0 0 229 80" fill="none" xmlns="http://www.w3.org/2000/svg">
<g clip-path="url(#clip0_3004_5074)">
<path d="M68.5454 31.3263C67.9838 30.5123 67.2523 29.9088 66.3511 29.5298C65.4499 29.1509 64.5617 28.9684 63.7127 28.9684C62.6156 28.9684 61.6099 29.1789 60.7087 29.614C59.8074 30.0491 59.0368 30.6386 58.3838 31.3965C57.7307 32.1544 57.2344 33.0386 56.8817 34.0491C56.5291 35.0596 56.3593 36.1544 56.3593 37.3474C56.3593 38.5965 56.5291 39.7333 56.8687 40.7719C57.2083 41.8105 57.6915 42.6947 58.3315 43.4386C58.9585 44.1825 59.716 44.7579 60.6042 45.1649C61.4793 45.5719 62.4719 45.7824 63.5821 45.7824C64.7185 45.7824 65.7372 45.5439 66.6123 45.0526C67.4874 44.5754 68.2058 43.9298 68.7413 43.1298L71.7715 45.4175C70.8311 46.6807 69.6817 47.6772 68.3103 48.3649C66.9519 49.0667 65.3585 49.4175 63.5299 49.4175C61.8711 49.4175 60.3429 49.1228 58.9454 48.5333C57.5478 47.9439 56.3593 47.1158 55.3536 46.0491C54.3478 44.9825 53.5642 43.7193 53.0156 42.2456C52.454 40.7719 52.1797 39.1439 52.1797 37.3614C52.1797 35.5368 52.4801 33.8807 53.0678 32.407C53.6556 30.9333 54.4654 29.6842 55.4972 28.6456C56.5291 27.607 57.7438 26.821 59.1413 26.2596C60.5389 25.6982 62.067 25.4175 63.7127 25.4175C64.3919 25.4175 65.1103 25.4877 65.8417 25.6281C66.5862 25.7684 67.2915 25.9789 67.9707 26.2737C68.6499 26.5684 69.2899 26.9193 69.8907 27.3544C70.4915 27.7895 71.0009 28.2947 71.4189 28.8982L68.5454 31.3263Z" fill="black"/>
<path d="M72.5684 41.0105C72.5684 39.7894 72.7773 38.6666 73.1822 37.6701C73.5871 36.6736 74.1488 35.8175 74.8541 35.1017C75.5594 34.3859 76.3822 33.8385 77.3488 33.4596C78.3153 33.0666 79.3341 32.8842 80.4182 32.8842C81.5022 32.8842 82.521 33.0806 83.4875 33.4596C84.4541 33.8526 85.2769 34.3999 85.9822 35.1017C86.6876 35.8175 87.2361 36.6736 87.6541 37.6701C88.059 38.6666 88.268 39.7894 88.268 41.0105C88.268 42.2315 88.059 43.3543 87.6541 44.3649C87.2492 45.3754 86.6876 46.2456 85.9822 46.9613C85.2769 47.6771 84.4541 48.2526 83.4875 48.6596C82.521 49.0666 81.5022 49.2771 80.4182 49.2771C79.3341 49.2771 78.3153 49.0666 77.3488 48.6596C76.3822 48.2526 75.5594 47.6912 74.8541 46.9613C74.1488 46.2315 73.6002 45.3754 73.1822 44.3649C72.7643 43.3543 72.5684 42.2315 72.5684 41.0105ZM76.2255 41.0105C76.2255 41.614 76.3039 42.2175 76.4867 42.821C76.6565 43.4245 76.9178 43.9578 77.2573 44.435C77.5969 44.9122 78.028 45.2912 78.5504 45.5999C79.0729 45.8947 79.6867 46.0491 80.4182 46.0491C81.1365 46.0491 81.7635 45.8947 82.2859 45.5999C82.8084 45.3052 83.2394 44.9122 83.579 44.435C83.9186 43.9578 84.1798 43.4245 84.3496 42.821C84.5194 42.2175 84.6108 41.614 84.6108 41.0105C84.6108 40.407 84.5194 39.8175 84.3496 39.214C84.1798 38.6245 83.9186 38.0912 83.579 37.614C83.2394 37.1368 82.8084 36.7578 82.2859 36.4631C81.7635 36.1684 81.1496 36.028 80.4182 36.028C79.6998 36.028 79.0729 36.1684 78.5504 36.4631C78.028 36.7578 77.5969 37.1368 77.2573 37.614C76.9178 38.0912 76.6565 38.6245 76.4867 39.214C76.3169 39.8175 76.2255 40.407 76.2255 41.0105Z" fill="black"/>
<path d="M108.8 32.8702C109.741 32.8702 110.55 33.0526 111.216 33.4035C111.883 33.7544 112.444 34.2316 112.875 34.807C113.306 35.3825 113.62 36.0561 113.816 36.814C114.012 37.5719 114.116 38.3439 114.116 39.1439V48.8281H110.511V40.2386C110.511 39.7895 110.485 39.3123 110.42 38.8211C110.354 38.3298 110.224 37.8807 110.028 37.4877C109.832 37.0947 109.558 36.7579 109.205 36.5053C108.852 36.2526 108.395 36.1123 107.807 36.1123C107.246 36.1123 106.763 36.2386 106.371 36.5053C105.966 36.7579 105.639 37.0947 105.378 37.5018C105.117 37.9088 104.934 38.3719 104.803 38.8772C104.686 39.3825 104.621 39.8877 104.621 40.379V48.8421H101.016V39.4807C101.016 38.5123 100.794 37.7123 100.376 37.0807C99.9577 36.4491 99.2655 36.1263 98.3512 36.1263C97.8157 36.1263 97.3454 36.2526 96.9406 36.4912C96.5357 36.7439 96.2091 37.0526 95.961 37.4456C95.7128 37.8386 95.5169 38.2737 95.3863 38.779C95.2556 39.2842 95.1903 39.7895 95.1903 40.3088V48.8281H91.5854V33.3333H95.0075V35.8175H95.0728C95.2295 35.4246 95.4516 35.0597 95.7128 34.7228C95.974 34.386 96.3005 34.0632 96.6793 33.7825C97.045 33.5018 97.4761 33.2772 97.9593 33.1228C98.4426 32.9544 98.965 32.8842 99.5528 32.8842C100.676 32.8842 101.603 33.1509 102.348 33.6842C103.092 34.2175 103.654 34.9333 104.059 35.8175C104.542 34.8772 105.182 34.1474 105.979 33.6421C106.776 33.1368 107.716 32.8702 108.8 32.8702Z" fill="black"/>
<path d="M135.38 32.8702C136.32 32.8702 137.13 33.0526 137.796 33.4035C138.462 33.7544 139.024 34.2316 139.455 34.807C139.886 35.3825 140.199 36.0561 140.395 36.814C140.591 37.5719 140.696 38.3439 140.696 39.1439V48.8281H137.091V40.2386C137.091 39.7895 137.065 39.3123 136.999 38.8211C136.934 38.3298 136.803 37.8807 136.607 37.4877C136.412 37.0947 136.137 36.7579 135.785 36.5053C135.432 36.2526 134.975 36.1123 134.387 36.1123C133.825 36.1123 133.342 36.2386 132.95 36.5053C132.545 36.7579 132.219 37.0947 131.958 37.5018C131.696 37.9088 131.514 38.3719 131.383 38.8772C131.265 39.3825 131.2 39.8877 131.2 40.379V48.8421H127.595V39.4807C127.595 38.5123 127.373 37.7123 126.955 37.0807C126.537 36.4491 125.845 36.1263 124.931 36.1263C124.395 36.1263 123.925 36.2526 123.52 36.4912C123.115 36.7439 122.789 37.0526 122.541 37.4456C122.292 37.8386 122.096 38.2737 121.966 38.779C121.835 39.2842 121.77 39.7895 121.77 40.3088V48.8281H118.165V33.3333H121.587V35.8175H121.652C121.809 35.4246 122.031 35.0597 122.292 34.7228C122.554 34.386 122.88 34.0632 123.259 33.7825C123.625 33.5018 124.056 33.2772 124.539 33.1228C125.022 32.9544 125.545 32.8842 126.132 32.8842C127.256 32.8842 128.183 33.1509 128.927 33.6842C129.672 34.2175 130.234 34.9333 130.639 35.8175C131.122 34.8772 131.762 34.1474 132.559 33.6421C133.355 33.1368 134.296 32.8702 135.38 32.8702Z" fill="black"/>
<path d="M157.91 48.828H154.488V46.3438H154.423C154.096 47.1158 153.548 47.8035 152.751 48.393C151.954 48.9824 151.027 49.2772 149.943 49.2772C149.002 49.2772 148.193 49.0947 147.527 48.7438C146.86 48.393 146.299 47.9158 145.868 47.3403C145.437 46.7649 145.123 46.0912 144.927 45.3333C144.731 44.5754 144.627 43.8035 144.627 43.0035V33.3193H148.232V41.9087C148.232 42.3579 148.258 42.8351 148.323 43.3263C148.389 43.8175 148.519 44.2666 148.715 44.6596C148.911 45.0526 149.185 45.3894 149.538 45.6421C149.891 45.8947 150.348 46.0351 150.936 46.0351C151.497 46.0351 151.993 45.9087 152.425 45.6702C152.856 45.4175 153.208 45.1087 153.469 44.7158C153.731 44.3228 153.94 43.8877 154.083 43.3824C154.227 42.8772 154.292 42.3719 154.292 41.8526V33.3333H157.897V48.828H157.91Z" fill="black"/>
<path d="M162.09 33.3333H165.512V35.8175H165.577C165.904 35.0456 166.452 34.3578 167.249 33.7684C168.046 33.1789 168.973 32.8842 170.057 32.8842C170.998 32.8842 171.807 33.0666 172.474 33.4175C173.14 33.7684 173.701 34.2456 174.132 34.821C174.563 35.3964 174.877 36.0701 175.073 36.828C175.269 37.5859 175.373 38.3578 175.373 39.1578V48.842H171.768V40.2526C171.768 39.8035 171.742 39.3263 171.677 38.835C171.611 38.3438 171.481 37.8947 171.285 37.5017C171.089 37.1087 170.815 36.7719 170.462 36.5192C170.109 36.2666 169.652 36.1263 169.065 36.1263C168.477 36.1263 167.98 36.2526 167.562 36.4912C167.145 36.7438 166.792 37.0526 166.531 37.4456C166.256 37.8385 166.06 38.2736 165.917 38.7789C165.773 39.2842 165.708 39.7894 165.708 40.3087V48.828H162.103V33.3333H162.09Z" fill="black"/>
<path d="M178.965 28.0702C178.965 27.4526 179.174 26.9053 179.605 26.4421C180.036 25.979 180.585 25.7544 181.238 25.7544C181.891 25.7544 182.452 25.979 182.91 26.414C183.367 26.8491 183.589 27.4105 183.589 28.0702C183.589 28.7439 183.367 29.2912 182.91 29.7263C182.465 30.1614 181.904 30.386 181.238 30.386C180.572 30.386 180.036 30.1614 179.605 29.6983C179.187 29.2351 178.965 28.6877 178.965 28.0702ZM179.474 33.3333H183.079V48.8281H179.474V33.3333Z" fill="black"/>
<path d="M185.248 36.421V33.3193H187.768V28.8281H191.308V33.3193H194.913V36.421H191.308V43.621C191.308 44.3088 191.426 44.8842 191.648 45.3333C191.883 45.7824 192.392 46.007 193.189 46.007C193.424 46.007 193.685 45.9789 193.972 45.9228C194.247 45.8667 194.508 45.7824 194.717 45.6842L194.835 48.7158C194.508 48.8421 194.129 48.9403 193.698 49.0246C193.254 49.0947 192.836 49.1368 192.431 49.1368C191.465 49.1368 190.694 48.9965 190.093 48.7017C189.492 48.407 189.022 48.014 188.67 47.5088C188.317 47.0035 188.082 46.4281 187.951 45.7684C187.821 45.1088 187.755 44.407 187.755 43.6491V36.421H185.248Z" fill="black"/>
<path d="M196.127 33.3333H200.124L204.147 44.6035H204.212L207.791 33.3333H211.553L204.735 52.1544C204.474 52.8702 204.199 53.4877 203.899 54.0491C203.598 54.5965 203.233 55.0596 202.815 55.4386C202.397 55.8175 201.9 56.0982 201.326 56.2947C200.751 56.4912 200.072 56.5895 199.262 56.5895C198.962 56.5895 198.661 56.5754 198.348 56.5474C198.034 56.5193 197.721 56.4491 197.407 56.3649L197.708 53.0105C197.943 53.0947 198.178 53.1509 198.413 53.193C198.648 53.221 198.857 53.2351 199.053 53.2351C199.432 53.2351 199.758 53.193 200.02 53.0947C200.281 52.9965 200.503 52.8421 200.686 52.6456C200.869 52.4351 201.025 52.1824 201.169 51.8877C201.313 51.593 201.456 51.2281 201.626 50.821L202.345 48.8561L196.127 33.3333Z" fill="black"/>
<path d="M53.1853 55.4386H61.4792C62.2759 55.4386 63.0727 55.5368 63.8563 55.7474C64.64 55.9579 65.3322 56.2807 65.9461 56.7439C66.56 57.207 67.0563 57.8105 67.4351 58.5404C67.8139 59.2702 68.0098 60.1544 68.0098 61.193C68.0098 62.4842 67.6702 63.5509 66.991 64.393C66.3118 65.2351 65.4237 65.8386 64.3135 66.2035V66.2737C65.6588 66.4702 66.7559 67.0316 67.618 67.9579C68.48 68.8842 68.911 70.1193 68.911 71.6772C68.911 72.9263 68.6759 73.979 68.2188 74.8211C67.7616 75.6772 67.1478 76.3509 66.4033 76.8702C65.6588 77.3895 64.7967 77.7544 63.8171 77.979C62.8506 78.2035 61.858 78.3158 60.8522 78.3158H53.1853V55.4386ZM56.9731 64.7439H60.3429C61.6098 64.7439 62.5633 64.4772 63.2294 63.9439C63.8955 63.4105 64.222 62.6386 64.222 61.6561C64.222 60.6175 63.8824 59.8877 63.2033 59.4667C62.5241 59.0316 61.4661 58.8211 60.0163 58.8211H56.9861V64.7439H56.9731ZM56.9731 74.8772H60.369C60.8522 74.8772 61.3747 74.8351 61.9363 74.7649C62.498 74.6947 63.0073 74.5404 63.4775 74.3018C63.9478 74.0632 64.3396 73.7263 64.6531 73.2632C64.9665 72.814 65.1233 72.2105 65.1233 71.4526C65.1233 70.2456 64.7445 69.4035 63.9869 68.9404C63.2294 68.4632 62.08 68.2246 60.5257 68.2246H56.9861V74.8772H56.9731Z" fill="black"/>
<path d="M71.7585 53.8948H75.3634V78.3018H71.7585V53.8948Z" fill="black"/>
<path d="M78.1584 70.4842C78.1584 69.2631 78.3674 68.1403 78.7723 67.1438C79.1772 66.1474 79.7389 65.2912 80.4442 64.5754C81.1495 63.8596 81.9723 63.3123 82.9389 62.9333C83.9054 62.5403 84.9242 62.3579 86.0082 62.3579C87.0923 62.3579 88.1111 62.5544 89.0776 62.9333C90.0442 63.3263 90.867 63.8737 91.5723 64.5754C92.2776 65.2912 92.8262 66.1474 93.2442 67.1438C93.6491 68.1403 93.858 69.2631 93.858 70.4842C93.858 71.7052 93.6491 72.8281 93.2442 73.8386C92.8393 74.8491 92.2776 75.7193 91.5723 76.4351C90.867 77.1509 90.0442 77.7263 89.0776 78.1333C88.1111 78.5403 87.0923 78.7509 86.0082 78.7509C84.9242 78.7509 83.9054 78.5403 82.9389 78.1333C81.9723 77.7263 81.1495 77.1649 80.4442 76.4351C79.7389 75.7052 79.1903 74.8491 78.7723 73.8386C78.3544 72.8281 78.1584 71.7052 78.1584 70.4842ZM81.8156 70.4842C81.8156 71.0877 81.894 71.6912 82.0768 72.2947C82.2466 72.8982 82.5078 73.4316 82.8474 73.9088C83.187 74.3859 83.618 74.7649 84.1405 75.0737C84.6629 75.3684 85.2768 75.5228 86.0082 75.5228C86.7266 75.5228 87.3535 75.3684 87.876 75.0737C88.3984 74.7789 88.8295 74.3859 89.1691 73.9088C89.5086 73.4316 89.7699 72.8982 89.9397 72.2947C90.1095 71.6912 90.2009 71.0877 90.2009 70.4842C90.2009 69.8807 90.1095 69.2912 89.9397 68.6877C89.7699 68.0982 89.5086 67.5649 89.1691 67.0877C88.8295 66.6105 88.3984 66.2316 87.876 65.9368C87.3535 65.6421 86.7397 65.5017 86.0082 65.5017C85.2899 65.5017 84.6629 65.6421 84.1405 65.9368C83.618 66.2316 83.187 66.6105 82.8474 67.0877C82.5078 67.5649 82.2466 68.0982 82.0768 68.6877C81.907 69.2912 81.8156 69.8807 81.8156 70.4842Z" fill="black"/>
<path d="M95.7258 70.4842C95.7258 69.2631 95.9348 68.1403 96.3397 67.1438C96.7446 66.1474 97.3062 65.2912 98.0115 64.5754C98.7168 63.8596 99.5397 63.3123 100.506 62.9333C101.473 62.5403 102.492 62.3579 103.576 62.3579C104.66 62.3579 105.678 62.5544 106.645 62.9333C107.612 63.3263 108.434 63.8737 109.14 64.5754C109.845 65.2912 110.394 66.1474 110.812 67.1438C111.216 68.1403 111.425 69.2631 111.425 70.4842C111.425 71.7052 111.216 72.8281 110.812 73.8386C110.407 74.8491 109.845 75.7193 109.14 76.4351C108.434 77.1509 107.612 77.7263 106.645 78.1333C105.678 78.5403 104.66 78.7509 103.576 78.7509C102.492 78.7509 101.473 78.5403 100.506 78.1333C99.5397 77.7263 98.7168 77.1649 98.0115 76.4351C97.3062 75.7052 96.7577 74.8491 96.3397 73.8386C95.9348 72.8281 95.7258 71.7052 95.7258 70.4842ZM99.396 70.4842C99.396 71.0877 99.4744 71.6912 99.6573 72.2947C99.8271 72.8982 100.088 73.4316 100.428 73.9088C100.767 74.3859 101.198 74.7649 101.721 75.0737C102.243 75.3684 102.857 75.5228 103.589 75.5228C104.307 75.5228 104.934 75.3684 105.456 75.0737C105.979 74.7789 106.41 74.3859 106.75 73.9088C107.089 73.4316 107.35 72.8982 107.52 72.2947C107.69 71.6912 107.781 71.0877 107.781 70.4842C107.781 69.8807 107.69 69.2912 107.52 68.6877C107.35 68.0982 107.089 67.5649 106.75 67.0877C106.41 66.6105 105.979 66.2316 105.456 65.9368C104.934 65.6421 104.32 65.5017 103.589 65.5017C102.87 65.5017 102.243 65.6421 101.721 65.9368C101.198 66.2316 100.767 66.6105 100.428 67.0877C100.088 67.5649 99.8271 68.0982 99.6573 68.6877C99.4744 69.2912 99.396 69.8807 99.396 70.4842Z" fill="black"/>
<path d="M128.797 78.3018H125.375V75.972H125.309C124.813 76.8702 124.108 77.5579 123.22 78.0351C122.331 78.5123 121.378 78.7509 120.346 78.7509C119.249 78.7509 118.256 78.5264 117.381 78.0913C116.506 77.6562 115.775 77.0527 115.161 76.3088C114.547 75.5649 114.077 74.6948 113.75 73.6983C113.424 72.7018 113.254 71.6211 113.254 70.4842C113.254 69.3474 113.424 68.2807 113.763 67.2842C114.103 66.2878 114.586 65.4316 115.2 64.7018C115.827 63.972 116.558 63.3965 117.42 62.9755C118.282 62.5544 119.223 62.3439 120.242 62.3439C120.908 62.3439 121.496 62.4281 122.018 62.5825C122.54 62.7369 122.998 62.9474 123.389 63.186C123.781 63.4246 124.121 63.6772 124.395 63.9579C124.669 64.2386 124.905 64.5053 125.087 64.7579H125.179V53.8948H128.784V78.3018H128.797ZM116.937 70.4842C116.937 71.0878 117.016 71.6913 117.198 72.2948C117.368 72.8983 117.629 73.4316 117.969 73.9088C118.309 74.386 118.74 74.7649 119.262 75.0737C119.785 75.3685 120.398 75.5228 121.091 75.5228C121.757 75.5228 122.345 75.3825 122.867 75.0878C123.389 74.793 123.833 74.4141 124.199 73.9369C124.565 73.4597 124.852 72.9264 125.035 72.3369C125.231 71.7474 125.322 71.1439 125.322 70.5404C125.322 69.9369 125.231 69.3334 125.035 68.7299C124.839 68.1264 124.565 67.593 124.199 67.1158C123.833 66.6386 123.389 66.2597 122.867 65.9509C122.345 65.6562 121.757 65.5018 121.091 65.5018C120.385 65.5018 119.785 65.6421 119.262 65.9369C118.74 66.2316 118.309 66.6106 117.969 67.0878C117.629 67.5649 117.368 68.0983 117.198 68.6878C117.016 69.2913 116.937 69.8807 116.937 70.4842Z" fill="black"/>
<path d="M155.389 60.8C154.828 59.986 154.096 59.3825 153.195 59.0035C152.294 58.6246 151.406 58.4421 150.557 58.4421C149.46 58.4421 148.454 58.6526 147.553 59.0877C146.651 59.5228 145.881 60.1123 145.228 60.8702C144.575 61.6281 144.078 62.5123 143.726 63.5228C143.373 64.5333 143.203 65.6281 143.203 66.8211C143.203 68.0702 143.373 69.207 143.713 70.2456C144.052 71.2842 144.536 72.1684 145.176 72.9123C145.802 73.6561 146.56 74.2316 147.448 74.6386C148.323 75.0456 149.316 75.2561 150.426 75.2561C151.562 75.2561 152.581 75.0175 153.456 74.5263C154.331 74.0491 155.05 73.4035 155.585 72.6035L158.616 74.8912C157.675 76.1544 156.526 77.1509 155.154 77.8386C153.796 78.5404 152.202 78.8912 150.374 78.8912C148.715 78.8912 147.187 78.5965 145.789 78.007C144.392 77.4176 143.203 76.5895 142.198 75.5228C141.192 74.4561 140.408 73.193 139.86 71.7193C139.298 70.2456 139.024 68.6175 139.024 66.8351C139.024 65.0105 139.324 63.3544 139.912 61.8807C140.5 60.407 141.309 59.1579 142.341 58.1193C143.373 57.0807 144.588 56.2947 145.985 55.7333C147.383 55.1719 148.911 54.8912 150.557 54.8912C151.236 54.8912 151.954 54.9614 152.686 55.1018C153.43 55.2421 154.136 55.4526 154.815 55.7474C155.494 56.0421 156.134 56.393 156.735 56.8281C157.336 57.2632 157.845 57.7684 158.263 58.3719L155.389 60.8Z" fill="black"/>
<path d="M173.414 70.7368C173.414 70.9053 173.414 71.0877 173.414 71.2561C173.414 71.4246 173.401 71.607 173.388 71.7754H162.416C162.456 72.3368 162.586 72.8421 162.821 73.3053C163.056 73.7684 163.357 74.1614 163.736 74.4983C164.114 74.8351 164.545 75.1018 165.029 75.2842C165.512 75.4807 166.008 75.5789 166.531 75.5789C167.432 75.5789 168.189 75.3965 168.816 75.0456C169.443 74.6947 169.953 74.2035 170.345 73.5719L172.748 75.6351C171.324 77.6982 169.261 78.7368 166.557 78.7368C165.434 78.7368 164.402 78.5544 163.461 78.1754C162.521 77.7965 161.698 77.2632 161.019 76.5754C160.327 75.8877 159.791 75.0456 159.399 74.0351C159.007 73.0246 158.812 71.9018 158.812 70.6246C158.812 69.3754 159.007 68.2386 159.399 67.214C159.791 66.1895 160.327 65.3193 161.006 64.6035C161.685 63.8877 162.495 63.3263 163.422 62.9193C164.349 62.5123 165.355 62.3158 166.439 62.3158C167.445 62.3158 168.372 62.4982 169.221 62.8491C170.07 63.2 170.815 63.7333 171.429 64.4351C172.056 65.1368 172.539 66.007 172.892 67.0456C173.231 68.1263 173.414 69.3474 173.414 70.7368ZM169.809 68.9965C169.809 68.5053 169.744 68.0281 169.613 67.579C169.483 67.1298 169.274 66.7228 168.999 66.386C168.725 66.0351 168.359 65.7684 167.928 65.5579C167.497 65.3474 166.988 65.2491 166.413 65.2491C165.329 65.2491 164.415 65.6 163.67 66.3018C162.913 67.0035 162.508 67.9018 162.429 68.9965H169.809Z" fill="black"/>
<path d="M176.144 62.807H179.566V65.2912H179.631C179.958 64.5193 180.506 63.8316 181.303 63.2421C182.1 62.6526 183.027 62.3579 184.111 62.3579C185.052 62.3579 185.861 62.5403 186.527 62.8912C187.194 63.2421 187.755 63.7193 188.186 64.2947C188.617 64.8702 188.931 65.5438 189.127 66.3017C189.323 67.0596 189.427 67.8316 189.427 68.6316V78.3158H185.822V69.7263C185.822 69.2772 185.796 68.8 185.731 68.3088C185.665 67.8175 185.535 67.3684 185.339 66.9754C185.143 66.5824 184.869 66.2456 184.516 65.993C184.163 65.7403 183.706 65.6 183.118 65.6C182.531 65.6 182.034 65.7263 181.616 65.9649C181.198 66.2175 180.846 66.5263 180.585 66.9193C180.31 67.3123 180.114 67.7474 179.971 68.2526C179.827 68.7579 179.762 69.2631 179.762 69.7824V78.3017H176.157V62.807H176.144Z" fill="black"/>
<path d="M191.138 65.8948V62.793H193.659V58.3018H197.198V62.793H200.803V65.8948H197.198V73.0948C197.198 73.7825 197.316 74.3579 197.538 74.807C197.773 75.2562 198.282 75.4807 199.079 75.4807C199.314 75.4807 199.576 75.4527 199.863 75.3965C200.137 75.3404 200.398 75.2562 200.607 75.1579L200.725 78.1895C200.398 78.3158 200.02 78.4141 199.589 78.4983C199.144 78.5684 198.727 78.6106 198.322 78.6106C197.355 78.6106 196.584 78.4702 195.984 78.1755C195.383 77.8807 194.913 77.4877 194.56 76.9825C194.207 76.4772 193.972 75.9018 193.842 75.2421C193.711 74.5825 193.646 73.8807 193.646 73.1228V65.8948H191.138Z" fill="black"/>
<path d="M216.764 70.7368C216.764 70.9053 216.764 71.0877 216.764 71.2561C216.764 71.4246 216.751 71.607 216.738 71.7754H205.767C205.806 72.3368 205.937 72.8421 206.172 73.3053C206.407 73.7684 206.707 74.1614 207.086 74.4983C207.465 74.8351 207.896 75.1018 208.379 75.2842C208.862 75.4807 209.359 75.5789 209.881 75.5789C210.782 75.5789 211.54 75.3965 212.167 75.0456C212.794 74.6947 213.303 74.2035 213.695 73.5719L216.098 75.6351C214.675 77.6982 212.611 78.7368 209.907 78.7368C208.784 78.7368 207.752 78.5544 206.812 78.1754C205.871 77.7965 205.048 77.2632 204.369 76.5754C203.677 75.8877 203.141 75.0456 202.75 74.0351C202.358 73.0246 202.162 71.9018 202.162 70.6246C202.162 69.3754 202.358 68.2386 202.75 67.214C203.141 66.1895 203.677 65.3193 204.356 64.6035C205.035 63.8877 205.845 63.3263 206.772 62.9193C207.7 62.5123 208.706 62.3158 209.79 62.3158C210.795 62.3158 211.723 62.4982 212.572 62.8491C213.421 63.2 214.165 63.7333 214.779 64.4351C215.406 65.1368 215.889 66.007 216.242 67.0456C216.581 68.1263 216.764 69.3474 216.764 70.7368ZM213.159 68.9965C213.159 68.5053 213.094 68.0281 212.964 67.579C212.833 67.1298 212.624 66.7228 212.35 66.386C212.075 66.0351 211.71 65.7684 211.279 65.5579C210.848 65.3474 210.338 65.2491 209.764 65.2491C208.679 65.2491 207.765 65.6 207.021 66.3018C206.263 67.0035 205.858 67.9018 205.78 68.9965H213.159Z" fill="black"/>
<path d="M219.821 62.807H223.282V65.3895H223.347C223.752 64.4912 224.314 63.7474 225.032 63.2C225.75 62.6386 226.599 62.3579 227.553 62.3579C227.696 62.3579 227.84 62.3579 228.01 62.3719C228.167 62.3859 228.31 62.414 228.428 62.4561V66.007C228.193 65.9368 227.984 65.8947 227.814 65.8807C227.644 65.8526 227.474 65.8526 227.318 65.8526C226.495 65.8526 225.842 66.007 225.332 66.3298C224.836 66.6526 224.444 67.0456 224.157 67.4947C223.883 67.9438 223.687 68.407 223.582 68.8842C223.478 69.3614 223.439 69.7403 223.439 70.007V78.3017H219.834V62.807H219.821Z" fill="black"/>
<path d="M39.9674 43.3684C39.1576 41.6982 38.0736 39.9017 36.8458 38.007C37.6687 44.2526 36.7936 49.8386 34.4948 55.8737C28.4866 68.3649 18.6777 69.221 13.0483 57.0386C8.73806 46.8491 11.285 37.1789 12.7348 30.7649C14.4719 23.0456 18.4556 10.6245 21.3813 0.659627C21.5119 -0.0561623 7.79765 30.2316 3.91847 42.1052C1.72418 48.8 -2.16806 58.8772 4.81969 69.614C13.9234 82.4701 29.4662 81.7544 38.7919 68.7859C43.5201 60.421 44.2515 52.8561 39.9674 43.3684Z" fill="#FC1921"/>
<path d="M23.5234 60.5894C28.3492 60.5894 32.2613 54.8461 32.2613 47.7614C32.2613 40.6766 28.3492 34.9333 23.5234 34.9333C18.6975 34.9333 14.7854 40.6766 14.7854 47.7614C14.7854 54.8461 18.6975 60.5894 23.5234 60.5894Z" fill="#FC1921"/>
</g>
<defs>
<clipPath id="clip0_3004_5074">
<rect width="228.571" height="80" fill="white"/>
</clipPath>
</defs>
</svg>
