<svg width="229" height="80" viewBox="0 0 229 80" fill="none" xmlns="http://www.w3.org/2000/svg">
<g clip-path="url(#clip0_3004_12044)">
<path d="M17.7777 33.4222C17.7277 34.0816 17.8166 34.744 18.0388 35.3668C18.261 35.9896 18.6114 36.5587 19.0675 37.0375C19.5235 37.5163 20.075 37.894 20.6862 38.1462C21.2974 38.3984 21.9548 38.5195 22.6158 38.5016C25.5618 38.5016 27.6951 36.7238 27.6951 33.7905C27.6873 32.9025 27.4605 32.0301 27.0348 31.2508L26.5015 30.3111L22.692 23.9619L18.7936 30.3111L18.565 30.6032C18.0384 31.4482 17.7652 32.4266 17.7777 33.4222Z" fill="#FC1921"/>
<path d="M44.8761 38.2095L44.3174 37.1429L29.8412 12.6984L24.3682 21.8159L32.6476 35.6826L32.9777 36.4064C34.438 38.5016 33.4983 39.8984 31.2634 39.6572H23.1618H22.6158H14.4761C12.5206 39.8984 11.8348 38.2222 12.7999 36.4064L13.1301 35.6572L29.4476 8.02541C29.8274 8.04783 30.2036 7.94036 30.5142 7.72065C30.7936 7.2635 28.8888 6.04445 26.4253 4.52064C23.9618 2.99683 21.6253 1.75239 21.346 2.20953C21.2571 2.34922 21.346 2.75556 21.5745 3.2508L1.34596 37.4476L0.965006 38.1841C0.256296 39.262 -0.0824494 40.5412 -7.35344e-05 41.8286C-7.53459e-05 42.5984 0.151762 43.3607 0.446745 44.0717C0.741728 44.7828 1.17407 45.4287 1.719 45.9725C2.26394 46.5162 2.91077 46.9472 3.62248 47.2406C4.33418 47.534 5.09677 47.6842 5.8666 47.6826H22.8952H39.9364C40.7029 47.6859 41.4625 47.538 42.1718 47.2474C42.8811 46.9568 43.526 46.5291 44.0698 45.9889C44.6136 45.4487 45.0454 44.8065 45.3407 44.0992C45.6359 43.3918 45.7887 42.6332 45.7904 41.8667C45.7838 40.5919 45.4702 39.3375 44.8761 38.2095Z" fill="#FC1921"/>
<path d="M55.835 1.40955H60.7238L70.3239 16.9143V1.40955H74.0064V22.0826H69.3588L59.581 6.10796V22.0826H55.8985L55.835 1.40955Z" fill="black"/>
<path d="M91.6825 15.2508V15.7206C91.6951 15.8728 91.6951 16.0257 91.6825 16.1778H80.9905C81.0201 16.6662 81.1544 17.1426 81.3841 17.5746C81.604 17.991 81.9065 18.3583 82.273 18.654C82.6534 18.9606 83.0827 19.2009 83.5428 19.3651C84.0092 19.5426 84.5042 19.633 85.0032 19.6318C85.772 19.6532 86.5346 19.4876 87.2254 19.1492C87.8146 18.8502 88.3239 18.4148 88.7111 17.8794L91.0476 19.746C90.3545 20.675 89.4419 21.4175 88.3915 21.9073C87.3411 22.397 86.1856 22.6187 85.0285 22.5524C84.0127 22.545 83.0063 22.3558 82.0571 21.9937C81.1785 21.6712 80.3717 21.1794 79.6825 20.546C78.9955 19.9096 78.4578 19.129 78.1079 18.2603C77.7133 17.2802 77.519 16.231 77.5365 15.1746C77.5227 14.1185 77.7169 13.07 78.1079 12.0889C78.4552 11.1997 78.9876 10.3946 79.6698 9.72699C80.3437 9.06784 81.1424 8.54979 82.019 8.20318C82.9543 7.8414 83.9496 7.66041 84.9524 7.66985C85.8759 7.66346 86.7928 7.82703 87.6571 8.15239C88.4703 8.46504 89.2035 8.95526 89.8032 9.58731C90.4342 10.2665 90.9145 11.0714 91.2127 11.9492C91.5594 13.0142 91.7184 14.1314 91.6825 15.2508ZM88.1778 13.6762C88.177 13.2459 88.1128 12.818 87.9873 12.4064C87.8633 12.0073 87.6555 11.6393 87.3778 11.327C87.0954 11.0064 86.7436 10.7545 86.3492 10.5905C85.8837 10.3933 85.3815 10.2981 84.8762 10.3111C83.896 10.2861 82.9413 10.6254 82.1968 11.2635C81.8306 11.5623 81.5292 11.9326 81.3109 12.3518C81.0926 12.771 80.9619 13.2303 80.927 13.7016L88.1778 13.6762Z" fill="black"/>
<path d="M92.927 8.02539H96.7365L99.6572 18.0698H99.7207L102.717 8.02539H106.451L109.498 18.0698L112.533 8.02539H116.178L111.327 21.9936H107.771L104.584 12.1778L101.422 21.9936H97.8667L92.927 8.02539Z" fill="black"/>
<path d="M129.879 13.1048L122.108 1.39685H126.603L131.809 10.0953L137.067 1.39685H141.333L133.562 13.1048V22.0699H129.879V13.1048Z" fill="black"/>
<path d="M139.2 15.0095C139.182 13.9752 139.385 12.949 139.797 12C140.169 11.1228 140.718 10.3318 141.409 9.6762C142.111 9.02195 142.936 8.51274 143.835 8.17779C144.791 7.8295 145.801 7.65323 146.819 7.65715C147.833 7.65204 148.839 7.82836 149.79 8.17779C150.692 8.50681 151.518 9.01671 152.216 9.6762C152.915 10.3276 153.469 11.1195 153.841 12C154.247 12.9508 154.45 13.9758 154.438 15.0095C154.45 16.0556 154.247 17.093 153.841 18.0572C153.466 18.9435 152.913 19.7432 152.216 20.4064C151.521 21.0917 150.696 21.6314 149.79 21.9937C148.844 22.3633 147.835 22.5487 146.819 22.5397C145.799 22.5475 144.786 22.3622 143.835 21.9937C142.936 21.6398 142.113 21.1184 141.409 20.4572C140.72 19.7898 140.172 18.991 139.797 18.1079C139.378 17.1299 139.174 16.0732 139.2 15.0095ZM142.755 15.0095C142.759 15.5651 142.845 16.1171 143.009 16.6476C143.161 17.1762 143.411 17.6716 143.746 18.1079C144.087 18.5478 144.521 18.9076 145.016 19.1619C145.577 19.449 146.202 19.5888 146.832 19.5683C147.458 19.59 148.079 19.4501 148.635 19.1619C149.13 18.9076 149.563 18.5478 149.905 18.1079C150.243 17.6722 150.498 17.1769 150.654 16.6476C150.819 16.1171 150.904 15.5651 150.908 15.0095C150.904 14.4623 150.819 13.9187 150.654 13.3968C150.492 12.8737 150.238 12.3836 149.905 11.9492C149.564 11.5122 149.13 11.1565 148.635 10.9079C148.065 10.6512 147.443 10.5337 146.819 10.5651C146.191 10.5529 145.569 10.6877 145.003 10.9587C144.508 11.2073 144.074 11.563 143.733 12C143.404 12.4349 143.154 12.9251 142.997 13.4476C142.841 13.9538 142.76 14.48 142.755 15.0095Z" fill="black"/>
<path d="M157.676 8.02542H161.041V10.3619H161.105C161.468 9.57356 162.028 8.89154 162.73 8.38098C163.449 7.86959 164.312 7.6025 165.194 7.61907H165.625C165.763 7.62858 165.9 7.65415 166.032 7.69526V10.908C165.837 10.8512 165.637 10.8129 165.435 10.7937H164.952C164.281 10.7691 163.615 10.9224 163.022 11.2381C162.569 11.4966 162.182 11.8575 161.892 12.2921C161.627 12.6761 161.438 13.1071 161.333 13.5619C161.248 13.894 161.201 14.2349 161.194 14.5778V22.0826H157.676V8.02542Z" fill="black"/>
<path d="M168.229 0H171.733V13.9683H171.822L177.13 8.0254H181.625L175.556 14.3746L182.006 22.0571H177.371L171.822 14.8698H171.733V22.0571H168.229V0Z" fill="black"/>
<path d="M55.835 26.8063H63.8985C64.6774 26.8037 65.4537 26.8975 66.2096 27.0857C66.9388 27.2519 67.6288 27.5581 68.2413 27.9873C68.8441 28.4087 69.3399 28.9653 69.6889 29.6127C70.0727 30.3484 70.2607 31.1706 70.235 32C70.2741 33.0543 69.9213 34.0858 69.2445 34.8952C68.5689 35.6693 67.6886 36.2371 66.7048 36.5333C67.9165 36.6657 69.0483 37.2025 69.9175 38.0571C70.346 38.5002 70.6795 39.0261 70.8979 39.6025C71.1162 40.1789 71.2147 40.7937 71.1874 41.4095C71.2242 42.4051 70.9917 43.3922 70.5143 44.2666C70.0625 45.0268 69.4301 45.6636 68.6731 46.1206C67.8938 46.6052 67.0334 46.9451 66.1334 47.1238C65.1904 47.3275 64.2283 47.4297 63.2635 47.4285H55.835V26.8063ZM59.5175 35.2127H62.7937C63.7653 35.2658 64.7292 35.0127 65.5493 34.4889C65.8623 34.2419 66.1128 33.9246 66.2805 33.5628C66.4481 33.201 66.5283 32.8048 66.5143 32.4063C66.549 32.0196 66.4774 31.6307 66.3074 31.2816C66.1373 30.9325 65.8752 30.6365 65.5493 30.4254C64.5875 29.97 63.5251 29.7689 62.4635 29.8412H59.5175V35.2127ZM59.5175 44.3809H62.8191C63.3288 44.3825 63.8379 44.3486 64.3429 44.2793C64.862 44.2228 65.3682 44.0812 65.8413 43.8603C66.294 43.6461 66.6866 43.3233 66.9842 42.9206C67.3094 42.443 67.4699 41.8723 67.4413 41.2952C67.4835 40.8483 67.4016 40.3984 67.2044 39.995C67.0072 39.5917 66.7025 39.2507 66.3239 39.0095C65.2897 38.5235 64.1501 38.3052 63.0096 38.3746H59.5175V44.3809Z" fill="black"/>
<path d="M73.8921 25.3968H77.3969V47.4793H73.8921V25.3968Z" fill="black"/>
<path d="M80.1142 40.4063C80.0958 39.372 80.2993 38.3458 80.711 37.3968C81.0832 36.5196 81.6322 35.7285 82.3237 35.073C83.0257 34.4187 83.8499 33.9095 84.7491 33.5746C86.678 32.8804 88.7885 32.8804 90.7174 33.5746C91.6166 33.9095 92.4408 34.4187 93.1428 35.073C93.8343 35.7285 94.3833 36.5196 94.7555 37.3968C95.1672 38.3458 95.3707 39.372 95.3523 40.4063C95.3707 41.4529 95.1673 42.4916 94.7555 43.4539C94.3804 44.337 93.832 45.1358 93.1428 45.8031C92.4434 46.4826 91.62 47.0214 90.7174 47.3904C88.7945 48.1181 86.672 48.1181 84.7491 47.3904C83.8506 47.0366 83.0275 46.5152 82.3237 45.8539C81.6345 45.1866 81.0861 44.3877 80.711 43.5047C80.2921 42.5267 80.0886 41.47 80.1142 40.4063ZM83.6698 40.4063C83.6734 40.9619 83.759 41.5138 83.9237 42.0444C84.0748 42.5758 84.3294 43.0721 84.6729 43.5047C85.0141 43.9446 85.4476 44.3044 85.9428 44.5587C86.5109 44.8259 87.1309 44.9644 87.7587 44.9644C88.3864 44.9644 89.0065 44.8259 89.5745 44.5587C90.0659 44.2985 90.4982 43.9397 90.8444 43.5047C91.1791 43.0683 91.4289 42.573 91.5809 42.0444C91.7456 41.5138 91.8312 40.9619 91.8348 40.4063C91.8313 39.8591 91.7457 39.3155 91.5809 38.7936C91.4235 38.2711 91.1741 37.7809 90.8444 37.346C90.2501 36.6415 89.4371 36.1563 88.5349 35.9675C87.6328 35.7788 86.6934 35.8975 85.8666 36.3047C85.3726 36.5554 84.9393 36.9107 84.5968 37.346C84.2584 37.7773 84.0042 38.2683 83.8476 38.7936C83.7085 39.3194 83.6486 39.8629 83.6698 40.4063Z" fill="black"/>
<path d="M97.1937 40.4064C97.1814 39.3726 97.3846 38.3477 97.7905 37.3968C98.167 36.5189 98.7203 35.7279 99.4159 35.073C100.116 34.4161 100.941 33.9065 101.841 33.5746C103.766 32.8803 105.872 32.8803 107.797 33.5746C108.698 33.9065 109.522 34.4161 110.222 35.073C110.918 35.7279 111.471 36.5189 111.848 37.3968C112.253 38.3477 112.457 39.3726 112.444 40.4064C112.457 41.4524 112.254 42.4899 111.848 43.454C111.468 44.3378 110.915 45.1365 110.222 45.8032C109.525 46.4859 108.701 47.0252 107.797 47.3905C105.878 48.1184 103.76 48.1184 101.841 47.3905C100.941 47.0403 100.117 46.5185 99.4159 45.854C98.7226 45.1873 98.1699 44.3886 97.7905 43.5048C97.3775 42.5249 97.1742 41.4695 97.1937 40.4064ZM100.762 40.4064C100.761 40.9613 100.842 41.5133 101.003 42.0445C101.16 42.5738 101.414 43.0691 101.752 43.5048C102.094 43.9447 102.527 44.3044 103.022 44.5588C103.588 44.8266 104.206 44.9655 104.832 44.9655C105.458 44.9655 106.076 44.8266 106.641 44.5588C107.136 44.3044 107.57 43.9447 107.911 43.5048C108.25 43.0691 108.504 42.5738 108.66 42.0445C108.821 41.5133 108.902 40.9613 108.902 40.4064C108.902 39.8598 108.821 39.3161 108.66 38.7937C108.498 38.2706 108.245 37.7804 107.911 37.3461C107.57 36.909 107.137 36.5533 106.641 36.3048C106.073 36.0454 105.456 35.9111 104.832 35.9111C104.207 35.9111 103.59 36.0454 103.022 36.3048C102.527 36.5533 102.093 36.909 101.752 37.3461C101.419 37.7804 101.165 38.2706 101.003 38.7937C100.842 39.3161 100.761 39.8598 100.762 40.4064Z" fill="black"/>
<path d="M129.346 47.4793H126.019V45.3841C125.535 46.1885 124.83 46.8365 123.987 47.2508C123.117 47.6725 122.161 47.8896 121.194 47.8857C120.238 47.9096 119.289 47.7256 118.412 47.3462C117.535 46.9669 116.751 46.4014 116.114 45.6889C115.513 44.9895 115.048 44.1842 114.743 43.3143C114.417 42.3796 114.254 41.3961 114.26 40.4063C114.252 39.4236 114.42 38.4473 114.756 37.5238C115.07 36.6611 115.549 35.8676 116.165 35.1873C117.143 34.0941 118.462 33.3637 119.907 33.1147C121.353 32.8658 122.84 33.1129 124.127 33.8158C124.478 34.0113 124.806 34.2455 125.105 34.5143C125.346 34.7389 125.571 34.9808 125.778 35.2381H125.854V25.3968H129.359L129.346 47.4793ZM117.816 40.4063C117.813 40.9624 117.899 41.5153 118.07 42.0444C118.222 42.573 118.472 43.0683 118.806 43.5047C119.148 43.9446 119.581 44.3044 120.076 44.5587C120.623 44.822 121.222 44.9587 121.829 44.9587C122.435 44.9587 123.034 44.822 123.581 44.5587C124.069 44.3042 124.501 43.9544 124.851 43.5301C125.213 43.1024 125.492 42.6117 125.676 42.0825C125.856 41.5593 125.95 41.0104 125.956 40.4571C125.949 39.8998 125.855 39.3469 125.676 38.819C125.495 38.2846 125.215 37.7892 124.851 37.3587C124.498 36.934 124.067 36.5806 123.581 36.3174C123.051 36.0322 122.456 35.8879 121.854 35.8984C121.239 35.8889 120.63 36.0237 120.076 36.292C119.581 36.5406 119.147 36.8963 118.806 37.3333C118.477 37.7682 118.227 38.2584 118.07 38.7809C117.897 39.3053 117.812 39.8543 117.816 40.4063Z" fill="black"/>
<path d="M154.883 31.6572C154.345 30.9191 153.604 30.3542 152.749 30.0318C150.979 29.3287 149.001 29.3561 147.251 30.108C146.394 30.4769 145.623 31.022 144.991 31.708C144.351 32.4045 143.855 33.22 143.53 34.108C143.183 35.0597 143.011 36.0664 143.022 37.0794C143.01 38.1328 143.178 39.1807 143.517 40.1778C143.82 41.0686 144.3 41.8892 144.927 42.5905C145.545 43.2609 146.298 43.7932 147.137 44.1524C148.054 44.5333 149.039 44.7234 150.032 44.7112C151.052 44.7272 152.062 44.5009 152.978 44.0508C153.798 43.6457 154.508 43.049 155.048 42.3112L158.006 44.381C157.108 45.5233 155.956 46.4406 154.641 47.0604C153.188 47.7229 151.603 48.0485 150.006 48.0127C148.483 48.0273 146.97 47.7515 145.549 47.2C144.243 46.6993 143.054 45.9341 142.057 44.9524C141.068 43.9761 140.294 42.804 139.784 41.5112C139.221 40.1022 138.941 38.5965 138.959 37.0794C138.938 35.542 139.232 34.0166 139.822 32.5969C140.363 31.3098 141.168 30.1504 142.184 29.1937C143.215 28.2464 144.424 27.5127 145.74 27.035C147.159 26.5172 148.66 26.2592 150.171 26.2731C150.87 26.2763 151.567 26.34 152.254 26.4635C152.961 26.5927 153.654 26.7883 154.324 27.0477C154.976 27.3123 155.601 27.6398 156.191 28.0254C156.762 28.4073 157.265 28.884 157.676 29.435L154.883 31.6572Z" fill="black"/>
<path d="M172.99 40.6476V41.1175C173.003 41.2696 173.003 41.4225 172.99 41.5746H162.336C162.366 42.0631 162.5 42.5394 162.73 42.9715C162.95 43.3879 163.252 43.7551 163.619 44.0508C163.999 44.3574 164.429 44.5978 164.889 44.7619C165.355 44.9395 165.85 45.0298 166.349 45.0286C167.118 45.0501 167.881 44.8845 168.571 44.5461C169.161 44.247 169.67 43.8117 170.057 43.2762L172.394 45.1429C171.7 46.0718 170.788 46.8144 169.737 47.3041C168.687 47.7939 167.532 48.0155 166.374 47.9492C165.333 47.9511 164.3 47.7617 163.327 47.3905C162.448 47.0681 161.641 46.5762 160.952 45.9429C160.269 45.3029 159.732 44.5233 159.378 43.6572C158.983 42.6771 158.789 41.6279 158.806 40.5715C158.792 39.5154 158.987 38.4669 159.378 37.4857C159.734 36.6015 160.266 35.7983 160.94 35.1238C161.616 34.4673 162.414 33.9496 163.289 33.6C164.224 33.2382 165.219 33.0573 166.222 33.0667C167.146 33.0591 168.063 33.2228 168.927 33.5492C169.74 33.8619 170.473 34.3521 171.073 34.9842C171.71 35.659 172.191 36.4652 172.482 37.3461C172.842 38.4088 173.014 39.526 172.99 40.6476ZM169.486 39.073C169.485 38.6427 169.421 38.2148 169.295 37.8032C169.171 37.4071 168.968 37.04 168.698 36.7238C168.409 36.4059 168.053 36.1546 167.657 35.9873C167.192 35.7902 166.689 35.6949 166.184 35.708C165.204 35.6829 164.249 36.0223 163.505 36.6603C163.15 36.9649 162.861 37.3377 162.653 37.7566C162.446 38.1755 162.325 38.6319 162.298 39.0984L169.486 39.073Z" fill="black"/>
<path d="M176.229 33.4222H179.555V35.7079H179.619C179.975 34.9525 180.533 34.3107 181.232 33.8539C182.037 33.3115 182.991 33.0321 183.962 33.0539C184.775 33.0351 185.583 33.2 186.324 33.5365C186.947 33.8321 187.494 34.2665 187.924 34.8063C188.346 35.34 188.657 35.9532 188.838 36.6095C189.037 37.2943 189.135 38.0043 189.13 38.7174V47.4793H185.638V39.7714C185.632 39.3468 185.602 38.9229 185.549 38.5016C185.494 38.0803 185.365 37.6719 185.168 37.2952C184.972 36.938 184.694 36.6332 184.355 36.4063C183.966 36.1177 183.494 35.9619 183.009 35.9619C182.499 35.9509 181.993 36.0642 181.536 36.292C181.147 36.5095 180.806 36.8032 180.533 37.1555C180.259 37.5392 180.057 37.9695 179.936 38.4254C179.8 38.874 179.731 39.3406 179.733 39.8095V47.5174H176.229V33.4222Z" fill="black"/>
<path d="M191.06 36.2667V33.4223H193.511V29.3588H196.965V33.4223H200.47V36.2286H196.965V42.7429C196.949 43.2783 197.062 43.8098 197.295 44.2921C197.524 44.6985 198.019 44.9016 198.806 44.9016C199.062 44.899 199.317 44.8735 199.568 44.8254C199.818 44.784 200.061 44.7115 200.292 44.6096L200.406 47.3905C200.049 47.5225 199.679 47.6162 199.302 47.6699C198.881 47.7356 198.457 47.7695 198.032 47.7715C197.255 47.8013 196.48 47.6672 195.759 47.3778C195.211 47.1452 194.734 46.7731 194.375 46.2985C194.025 45.8323 193.782 45.2946 193.663 44.7239C193.533 44.0931 193.469 43.4505 193.473 42.8064V36.2667H191.06Z" fill="black"/>
<path d="M216.241 40.6476V41.1175C216.241 41.2699 216.241 41.4222 216.241 41.5746H205.575C205.604 42.063 205.739 42.5394 205.968 42.9714C206.192 43.3852 206.494 43.7518 206.857 44.0508C207.238 44.3574 207.667 44.5978 208.127 44.7619C208.593 44.9394 209.088 45.0298 209.587 45.0286C210.356 45.0501 211.119 44.8845 211.81 44.546C212.401 44.2504 212.911 43.8144 213.295 43.2762L215.632 45.1429C214.939 46.0718 214.026 46.8144 212.976 47.3041C211.925 47.7939 210.77 48.0155 209.613 47.9492C208.591 47.9617 207.576 47.7897 206.616 47.4413C205.732 47.1222 204.92 46.63 204.229 45.9937C203.546 45.3537 203.009 44.5741 202.654 43.708C202.259 42.7279 202.065 41.6786 202.083 40.6222C202.069 39.5661 202.263 38.5177 202.654 37.5365C203.011 36.6523 203.542 35.849 204.216 35.1746C204.892 34.5181 205.69 34.0004 206.565 33.6508C207.5 33.289 208.496 33.108 209.498 33.1175C210.422 33.1099 211.339 33.2735 212.203 33.6C213.016 33.9127 213.75 34.4029 214.349 35.0349C214.989 35.7101 215.474 36.5159 215.772 37.3968C216.106 38.4471 216.265 39.5455 216.241 40.6476ZM212.737 39.073C212.736 38.6427 212.672 38.2148 212.546 37.8032C212.422 37.407 212.219 37.04 211.949 36.7238C211.66 36.4058 211.304 36.1546 210.908 35.9873C210.443 35.7902 209.94 35.6949 209.435 35.708C208.455 35.6829 207.5 36.0223 206.756 36.6603C206.401 36.9649 206.112 37.3377 205.904 37.7566C205.697 38.1755 205.576 38.6319 205.549 39.0984L212.737 39.073Z" fill="black"/>
<path d="M219.48 33.4222H222.845V35.7587C223.217 34.9722 223.78 34.2912 224.483 33.7778C225.196 33.2665 226.056 32.9993 226.933 33.0159H227.378C227.516 33.0254 227.652 33.0509 227.784 33.0921V36.3048C227.589 36.2491 227.389 36.2108 227.187 36.1905H226.705C226.033 36.1609 225.366 36.3145 224.775 36.6349C224.32 36.8969 223.93 37.257 223.632 37.6889C223.371 38.0735 223.185 38.5045 223.086 38.9587C222.997 39.2905 222.946 39.6313 222.933 39.9746V47.4794H219.429L219.48 33.4222Z" fill="black"/>
<path d="M55.835 52.2032H69.5366V55.4159H59.5175V60.673H69.0159V63.7714H59.5175V69.6127H70.0699V72.8762H55.835V52.2032Z" fill="black"/>
<path d="M73.3333 58.819H76.6602V61.1047C77.0169 60.3462 77.5803 59.7036 78.2856 59.2508C79.0897 58.7053 80.0445 58.4255 81.0158 58.4508C81.8253 58.4316 82.6286 58.5966 83.365 58.9333C83.9882 59.229 84.5355 59.6633 84.965 60.2031C85.3875 60.7387 85.7023 61.351 85.892 62.0063C86.0849 62.6924 86.1832 63.4016 86.1841 64.1143V72.8762H82.7428V65.1682C82.7368 64.7436 82.7071 64.3197 82.6539 63.8984C82.6059 63.4553 82.4768 63.0249 82.2729 62.6285C82.0838 62.2707 81.8089 61.9653 81.4729 61.7397C81.0705 61.4749 80.5957 61.3418 80.1142 61.3587C79.6076 61.3461 79.1058 61.4596 78.6539 61.6889C78.2611 61.9061 77.9157 62.1996 77.638 62.5524C77.3691 62.9391 77.1674 63.3684 77.0412 63.8222C76.9083 64.2586 76.8399 64.712 76.838 65.1682V72.8762H73.3333V58.819Z" fill="black"/>
<path d="M88.1777 61.6635V58.819H90.6285V54.7556H94.0698V58.819H97.5746V61.6254H94.0698V68.1397C94.0511 68.6768 94.1691 69.2098 94.4127 69.6889C94.6285 70.0952 95.1365 70.2984 95.9111 70.2984C96.1668 70.2958 96.4218 70.2703 96.673 70.2222C96.9223 70.1808 97.1655 70.1083 97.3968 70.0064L97.5238 72.7492C97.1616 72.8796 96.7872 72.9732 96.4063 73.0286C95.9862 73.0944 95.5617 73.1283 95.1365 73.1302C94.3554 73.161 93.5765 73.0269 92.8508 72.7365C92.305 72.5004 91.8286 72.1289 91.4666 71.6572C91.1204 71.1903 90.8819 70.6525 90.7682 70.0826C90.6376 69.4518 90.5738 68.8092 90.5777 68.1651V61.6635H88.1777Z" fill="black"/>
<path d="M113.346 66.0444V66.5143C113.346 66.6666 113.346 66.819 113.346 66.9714H102.679C102.7 67.4604 102.824 67.9395 103.042 68.3772C103.261 68.815 103.57 69.2014 103.949 69.5111C104.333 69.8123 104.762 70.0522 105.219 70.2222C105.685 70.3997 106.18 70.4901 106.679 70.4889C107.448 70.5119 108.211 70.3462 108.902 70.0063C109.504 69.6932 110.019 69.235 110.4 68.673L112.724 70.5397C112.034 71.4693 111.124 72.2126 110.076 72.7025C109.027 73.1924 107.873 73.4136 106.718 73.346C105.667 73.351 104.626 73.1616 103.645 72.7873C102.762 72.4651 101.951 71.9733 101.257 71.3397C100.574 70.6997 100.037 69.9201 99.6826 69.0539C99.288 68.0739 99.0937 67.0246 99.1112 65.9682C99.0974 64.9121 99.2916 63.8636 99.6826 62.8825C100.039 61.9983 100.571 61.195 101.245 60.5206C101.921 59.8641 102.719 59.3464 103.594 58.9968C104.53 58.6374 105.525 58.4565 106.527 58.4635C107.451 58.4559 108.368 58.6195 109.232 58.946C110.047 59.2556 110.78 59.7462 111.378 60.3809C112.017 61.0561 112.502 61.8619 112.8 62.7428C113.172 63.8033 113.357 64.9205 113.346 66.0444ZM109.841 64.4698C109.841 64.0395 109.776 63.6116 109.651 63.2C109.526 62.8038 109.323 62.4368 109.054 62.1206C108.767 61.7998 108.411 61.548 108.013 61.3841C107.548 61.1858 107.045 61.0905 106.54 61.1047C105.563 61.0768 104.611 61.4167 103.873 62.0571C103.505 62.3544 103.203 62.7244 102.984 63.1439C102.766 63.5634 102.636 64.0234 102.603 64.4952L109.841 64.4698Z" fill="black"/>
<path d="M116.584 58.819H119.949V61.1555C120.321 60.369 120.885 59.688 121.587 59.1746C122.301 58.6634 123.16 58.3961 124.038 58.4127H124.482C124.62 58.4222 124.757 58.4478 124.889 58.4889V61.7016C124.694 61.6448 124.494 61.6065 124.292 61.5873H123.809C123.138 61.5627 122.472 61.716 121.879 62.0317C121.426 62.2902 121.039 62.6512 120.749 63.0857C120.484 63.4698 120.294 63.9007 120.19 64.3555C120.102 64.6874 120.05 65.0281 120.038 65.3714V72.8762H116.533L116.584 58.819Z" fill="black"/>
<path d="M130.438 58.8191V60.7746H130.514C130.716 60.4747 130.95 60.1979 131.213 59.9492C131.516 59.6457 131.863 59.3889 132.241 59.1873C132.681 58.9512 133.145 58.7638 133.625 58.6286C134.193 58.4811 134.778 58.4085 135.365 58.4127C136.31 58.4032 137.246 58.5981 138.108 58.9841C138.929 59.3533 139.668 59.8846 140.279 60.546C140.892 61.2271 141.366 62.0206 141.676 62.8826C142.012 63.8061 142.18 64.7824 142.171 65.7651C142.178 66.7548 142.014 67.7384 141.689 68.673C141.393 69.5474 140.927 70.3545 140.317 71.0476C139.718 71.726 138.982 72.2711 138.159 72.6476C137.255 73.0618 136.27 73.2658 135.276 73.2445C134.331 73.2552 133.397 73.0466 132.546 72.6349C131.768 72.2688 131.109 71.6927 130.641 70.9714H130.578V79.8603H127.073V58.8191H130.438ZM138.616 65.7651C138.612 65.2179 138.527 64.6742 138.362 64.1524C138.2 63.6293 137.946 63.1391 137.613 62.7048C137.272 62.2677 136.838 61.912 136.343 61.6635C135.791 61.3905 135.181 61.2554 134.565 61.2699C133.963 61.2606 133.369 61.4048 132.838 61.6889C132.354 61.9551 131.924 62.3081 131.568 62.7302C131.208 63.1614 130.932 63.6568 130.756 64.1905C130.571 64.7168 130.476 65.2707 130.476 65.8286C130.475 66.3824 130.57 66.9323 130.756 67.454C130.93 68.0104 131.21 68.5278 131.581 68.9778C131.934 69.3995 132.365 69.7488 132.851 70.0064C133.386 70.2761 133.979 70.4113 134.578 70.4C135.196 70.4208 135.808 70.2808 136.356 69.9937C136.851 69.7393 137.284 69.3796 137.625 68.9397C137.964 68.504 138.218 68.0087 138.375 67.4794C138.539 66.9359 138.62 66.3709 138.616 65.8032V65.7651Z" fill="black"/>
<path d="M145.41 58.819H148.775V61.1555H148.838C149.202 60.3672 149.761 59.6851 150.464 59.1746C151.182 58.6632 152.046 58.3961 152.927 58.4127H153.359C153.497 58.4222 153.633 58.4478 153.765 58.4889V61.7016C153.57 61.6448 153.37 61.6065 153.168 61.5873H152.686C152.015 61.5627 151.349 61.716 150.756 62.0317C150.302 62.2902 149.915 62.6512 149.626 63.0857C149.361 63.4698 149.171 63.9007 149.067 64.3555C148.978 64.6874 148.927 65.0281 148.914 65.3714V72.8762H145.41V58.819Z" fill="black"/>
<path d="M155.467 54.0952C155.465 53.8203 155.519 53.5478 155.626 53.2945C155.733 53.0412 155.89 52.8124 156.089 52.6222C156.297 52.4162 156.546 52.2548 156.819 52.1478C157.091 52.0408 157.383 51.9905 157.676 52C158.276 51.9767 158.86 52.1912 159.302 52.5968C159.516 52.7824 159.686 53.0129 159.8 53.272C159.914 53.5311 159.969 53.8122 159.962 54.0952C159.969 54.3801 159.914 54.6632 159.8 54.9243C159.686 55.1855 159.516 55.4183 159.302 55.6064C158.856 56.0061 158.274 56.2197 157.676 56.2032C157.382 56.211 157.09 56.1587 156.817 56.0495C156.544 55.9404 156.296 55.7766 156.089 55.5683C155.889 55.379 155.731 55.1504 155.624 54.8969C155.517 54.6434 155.463 54.3704 155.467 54.0952ZM155.962 58.8191H159.518V72.7873H155.962V58.8191Z" fill="black"/>
<path d="M171.264 62.6286C170.919 62.1923 170.486 61.8332 169.994 61.5746C169.447 61.2693 168.83 61.1117 168.203 61.1174C167.671 61.1105 167.145 61.2279 166.667 61.4603C166.449 61.5669 166.266 61.7335 166.14 61.9405C166.014 62.1475 165.95 62.3863 165.956 62.6286C165.946 62.8784 166.015 63.1248 166.155 63.3325C166.294 63.5402 166.495 63.6983 166.73 63.7841C167.466 64.0804 168.226 64.3099 169.003 64.4698C169.54 64.5989 170.07 64.7557 170.59 64.9397C171.109 65.1338 171.599 65.3942 172.051 65.7143C172.483 66.0365 172.846 66.4424 173.117 66.9079C173.399 67.4438 173.539 68.0426 173.524 68.6476C173.546 69.4043 173.38 70.1547 173.041 70.8317C172.734 71.4047 172.3 71.8999 171.771 72.2793C171.205 72.6617 170.572 72.9332 169.905 73.0794C169.18 73.2438 168.439 73.3248 167.695 73.3206C166.605 73.3244 165.523 73.1219 164.508 72.7238C163.542 72.3589 162.673 71.7767 161.968 71.0222L164.279 68.8508C164.682 69.3811 165.199 69.8149 165.79 70.1206C166.433 70.4554 167.149 70.6255 167.873 70.6159C168.134 70.6162 168.394 70.5864 168.648 70.527C168.901 70.4755 169.145 70.3855 169.371 70.2603C169.594 70.1348 169.782 69.9559 169.917 69.7397C170.058 69.5015 170.128 69.2287 170.121 68.9524C170.139 68.6817 170.069 68.4123 169.923 68.1838C169.777 67.9553 169.561 67.7796 169.308 67.6825C168.534 67.3557 167.73 67.1048 166.908 66.9333C166.386 66.8155 165.873 66.6627 165.371 66.4762C164.916 66.2919 164.488 66.0439 164.102 65.7397C163.714 65.4403 163.397 65.0586 163.175 64.6222C162.92 64.1058 162.798 63.5341 162.819 62.9587C162.804 62.2554 162.97 61.56 163.302 60.9397C163.614 60.3874 164.048 59.9139 164.571 59.5555C165.109 59.1806 165.712 58.9093 166.349 58.7555C167.016 58.5771 167.703 58.4875 168.394 58.4889C169.407 58.4919 170.412 58.6679 171.365 59.0095C172.266 59.3169 173.059 59.8767 173.651 60.6222L171.264 62.6286Z" fill="black"/>
<path d="M189.778 66.0445V66.5143C189.778 66.6667 189.778 66.819 189.778 66.9714H179.111C179.131 67.4604 179.255 67.9395 179.474 68.3772C179.693 68.815 180.002 69.2014 180.381 69.5111C180.765 69.8123 181.193 70.0522 181.651 70.2222C182.117 70.3998 182.612 70.4901 183.111 70.4889C183.88 70.5119 184.643 70.3462 185.333 70.0063C185.935 69.6965 186.446 69.2374 186.819 68.673L189.156 70.5397C188.466 71.4693 187.556 72.2126 186.507 72.7025C185.459 73.1925 184.305 73.4136 183.149 73.346C182.124 73.3595 181.104 73.1874 180.14 72.8381C179.257 72.5159 178.446 72.0242 177.752 71.3905C177.069 70.7505 176.532 69.9709 176.178 69.1048C175.783 68.1247 175.589 67.0755 175.606 66.019C175.593 64.963 175.787 63.9145 176.178 62.9333C176.534 62.0491 177.066 61.2458 177.74 60.5714C178.416 59.9149 179.214 59.3972 180.089 59.0476C181.025 58.6882 182.02 58.5073 183.022 58.5143C183.946 58.5067 184.863 58.6703 185.727 58.9968C186.542 59.3064 187.276 59.797 187.873 60.4317C188.512 61.1069 188.998 61.9127 189.295 62.7937C189.64 63.8418 189.803 64.9413 189.778 66.0445ZM186.273 64.4698C186.272 64.0395 186.208 63.6116 186.082 63.2C185.958 62.8039 185.755 62.4368 185.486 62.1206C185.196 61.8027 184.841 61.5514 184.444 61.3841C183.979 61.1858 183.477 61.0906 182.971 61.1048C181.995 61.0768 181.043 61.4167 180.305 62.0572C179.937 62.3545 179.634 62.7244 179.416 63.1439C179.197 63.5634 179.068 64.0234 179.035 64.4952L186.273 64.4698Z" fill="black"/>
<path d="M200.699 62.6285C200.357 62.1887 199.924 61.8289 199.429 61.5746C198.886 61.2709 198.273 61.1133 197.651 61.1174C197.115 61.1104 196.585 61.2278 196.102 61.4603C195.886 61.5687 195.706 61.7361 195.583 61.9429C195.459 62.1498 195.397 62.3876 195.403 62.6285C195.391 62.8788 195.46 63.1261 195.6 63.3342C195.739 63.5423 195.942 63.7 196.178 63.7841C196.909 64.0807 197.666 64.3102 198.438 64.4698C198.975 64.5988 199.505 64.7557 200.026 64.9397C200.545 65.1311 201.036 65.3916 201.486 65.7143C201.924 66.0294 202.288 66.4369 202.553 66.9079C202.839 67.4417 202.98 68.042 202.959 68.6476C202.987 69.4049 202.821 70.1567 202.476 70.8317C202.169 71.4047 201.735 71.8999 201.207 72.2793C200.641 72.6617 200.007 72.9332 199.34 73.0793C198.615 73.2438 197.874 73.3248 197.13 73.3206C196.044 73.3256 194.966 73.123 193.956 72.7238C192.989 72.3605 192.12 71.7781 191.416 71.0222L193.727 68.8508C194.135 69.3816 194.655 69.8154 195.251 70.1206C195.889 70.4553 196.6 70.6255 197.321 70.6158C197.582 70.6169 197.842 70.5871 198.095 70.527C198.35 70.4804 198.595 70.3902 198.819 70.2603C199.042 70.1348 199.229 69.9559 199.365 69.7397C199.511 69.5038 199.582 69.2293 199.568 68.9524C199.587 68.6832 199.52 68.4149 199.376 68.1866C199.232 67.9583 199.019 67.7817 198.768 67.6825C197.99 67.356 197.182 67.1051 196.356 66.9333C195.834 66.8137 195.321 66.661 194.819 66.4762C194.362 66.2955 193.933 66.0472 193.549 65.7397C193.155 65.4442 192.833 65.0619 192.61 64.6222C192.361 64.1038 192.239 63.5336 192.254 62.9587C192.239 62.2554 192.405 61.56 192.737 60.9397C193.053 60.3902 193.486 59.9175 194.007 59.5555C194.55 59.1828 195.157 58.9117 195.797 58.7555C196.464 58.5764 197.151 58.4867 197.841 58.4889C198.85 58.4915 199.851 58.6677 200.8 59.0095C201.703 59.3204 202.499 59.8794 203.099 60.6222L200.699 62.6285Z" fill="black"/>
</g>
<defs>
<clipPath id="clip0_3004_12044">
<rect width="227.835" height="79.8857" fill="white"/>
</clipPath>
</defs>
</svg>
