<svg width="136" height="43" viewBox="0 0 136 43" fill="none" xmlns="http://www.w3.org/2000/svg">
<path d="M40.7845 16.8378C40.4503 16.4003 40.0151 16.0759 39.4789 15.8722C38.9426 15.6685 38.4142 15.5705 37.909 15.5705C37.2562 15.5705 36.6578 15.6836 36.1216 15.9175C35.5854 16.1513 35.1269 16.4682 34.7383 16.8755C34.3497 17.2829 34.0544 17.7582 33.8446 18.3013C33.6348 18.8445 33.5337 19.4329 33.5337 20.0741C33.5337 20.7455 33.6348 21.3566 33.8368 21.9148C34.0389 22.4731 34.3264 22.9484 34.7072 23.3482C35.0802 23.748 35.531 24.0573 36.0594 24.2761C36.5801 24.4948 37.1708 24.608 37.8313 24.608C38.5074 24.608 39.1136 24.4798 39.6343 24.2157C40.155 23.9592 40.5824 23.6122 40.901 23.1822L42.704 24.4119C42.1445 25.0908 41.4606 25.6264 40.6446 25.9961C39.8364 26.3733 38.8882 26.5619 37.8002 26.5619C36.8133 26.5619 35.904 26.4034 35.0725 26.0866C34.2409 25.7698 33.5337 25.3247 32.9353 24.7513C32.3369 24.178 31.8706 23.4991 31.5442 22.707C31.2101 21.9148 31.0469 21.0398 31.0469 20.0817C31.0469 19.101 31.2256 18.2108 31.5753 17.4187C31.925 16.6266 32.4069 15.9552 33.0208 15.397C33.6348 14.8387 34.3575 14.4162 35.189 14.1145C36.0206 13.8127 36.9298 13.6619 37.909 13.6619C38.3132 13.6619 38.7406 13.6996 39.1758 13.775C39.6188 13.8505 40.0384 13.9636 40.4425 14.122C40.8466 14.2805 41.2274 14.4691 41.5849 14.7029C41.9424 14.9368 42.2455 15.2084 42.4942 15.5327L40.7845 16.8378Z" fill="white"/>
<path d="M43.178 22.0432C43.178 21.3869 43.3024 20.7834 43.5433 20.2477C43.7842 19.7121 44.1184 19.252 44.538 18.8672C44.9577 18.4825 45.4473 18.1883 46.0224 17.9846C46.5975 17.7734 47.2036 17.6753 47.8487 17.6753C48.4937 17.6753 49.0999 17.7809 49.675 17.9846C50.25 18.1958 50.7396 18.49 51.1593 18.8672C51.579 19.252 51.9054 19.7121 52.154 20.2477C52.395 20.7834 52.5193 21.3869 52.5193 22.0432C52.5193 22.6995 52.395 23.303 52.154 23.8462C51.9131 24.3893 51.579 24.857 51.1593 25.2418C50.7396 25.6265 50.25 25.9358 49.675 26.1546C49.0999 26.3734 48.4937 26.4865 47.8487 26.4865C47.2036 26.4865 46.5975 26.3734 46.0224 26.1546C45.4473 25.9358 44.9577 25.6341 44.538 25.2418C44.1184 24.8495 43.792 24.3893 43.5433 23.8462C43.2946 23.303 43.178 22.6995 43.178 22.0432ZM45.354 22.0432C45.354 22.3676 45.4007 22.692 45.5095 23.0163C45.6105 23.3407 45.7659 23.6274 45.968 23.8839C46.17 24.1404 46.4265 24.3441 46.7374 24.51C47.0482 24.6685 47.4135 24.7514 47.8487 24.7514C48.2761 24.7514 48.6491 24.6685 48.96 24.51C49.2708 24.3516 49.5273 24.1404 49.7294 23.8839C49.9314 23.6274 50.0868 23.3407 50.1879 23.0163C50.2889 22.692 50.3433 22.3676 50.3433 22.0432C50.3433 21.7188 50.2889 21.402 50.1879 21.0776C50.0868 20.7607 49.9314 20.4741 49.7294 20.2176C49.5273 19.9611 49.2708 19.7574 48.96 19.599C48.6491 19.4406 48.2839 19.3651 47.8487 19.3651C47.4212 19.3651 47.0482 19.4406 46.7374 19.599C46.4265 19.7574 46.17 19.9611 45.968 20.2176C45.7659 20.4741 45.6105 20.7607 45.5095 21.0776C45.4084 21.402 45.354 21.7188 45.354 22.0432Z" fill="white"/>
<path d="M64.736 17.6677C65.2956 17.6677 65.7774 17.7658 66.1737 17.9544C66.5701 18.143 66.9043 18.3995 67.1607 18.7088C67.4172 19.0181 67.6037 19.3802 67.7203 19.7875C67.8368 20.1949 67.899 20.6098 67.899 21.0398V26.2451H65.7541V21.6282C65.7541 21.3868 65.7385 21.1304 65.6997 20.8663C65.6608 20.6023 65.5831 20.3609 65.4665 20.1497C65.35 19.9384 65.1868 19.7574 64.9769 19.6216C64.7671 19.4858 64.4951 19.4104 64.1454 19.4104C63.8112 19.4104 63.5237 19.4782 63.2905 19.6216C63.0496 19.7574 62.8553 19.9384 62.6999 20.1572C62.5445 20.376 62.4357 20.6249 62.358 20.8965C62.288 21.1681 62.2492 21.4397 62.2492 21.7037V26.2526H60.1043V21.2209C60.1043 20.7004 59.9721 20.2704 59.7235 19.9309C59.4748 19.5914 59.0629 19.4179 58.5189 19.4179C58.2003 19.4179 57.9205 19.4858 57.6796 19.614C57.4387 19.7498 57.2444 19.9158 57.0967 20.127C56.9491 20.3383 56.8325 20.5721 56.7548 20.8437C56.6771 21.1153 56.6382 21.3868 56.6382 21.666V26.2451H54.4933V17.9167H56.5294V19.2519H56.5683C56.6615 19.0407 56.7936 18.8446 56.9491 18.6635C57.1045 18.4825 57.2988 18.309 57.5241 18.1581C57.7417 18.0072 57.9982 17.8865 58.2857 17.8035C58.5733 17.713 58.8841 17.6753 59.2339 17.6753C59.9022 17.6753 60.454 17.8186 60.8969 18.1053C61.3399 18.3919 61.6741 18.7767 61.915 19.2519C62.2025 18.7465 62.5833 18.3542 63.0574 18.0826C63.5315 17.8111 64.091 17.6677 64.736 17.6677Z" fill="white"/>
<path d="M80.5509 17.6677C81.1104 17.6677 81.5923 17.7658 81.9886 17.9544C82.3849 18.143 82.7191 18.3995 82.9756 18.7088C83.232 19.0181 83.4185 19.3802 83.5351 19.7875C83.6517 20.1949 83.7139 20.6098 83.7139 21.0398V26.2451H81.5689V21.6282C81.5689 21.3868 81.5534 21.1304 81.5145 20.8663C81.4757 20.6023 81.398 20.3609 81.2814 20.1497C81.1648 19.9384 81.0016 19.7574 80.7918 19.6216C80.582 19.4858 80.31 19.4104 79.9602 19.4104C79.6261 19.4104 79.3385 19.4782 79.1054 19.6216C78.8645 19.7574 78.6702 19.9384 78.5148 20.1572C78.3593 20.376 78.2505 20.6249 78.1728 20.8965C78.1029 21.1681 78.064 21.4397 78.064 21.7037V26.2526H75.9191V21.2209C75.9191 20.7004 75.787 20.2704 75.5383 19.9309C75.2896 19.5914 74.8777 19.4179 74.3337 19.4179C74.0151 19.4179 73.7353 19.4858 73.4944 19.614C73.2535 19.7498 73.0592 19.9158 72.9116 20.127C72.7639 20.3383 72.6473 20.5721 72.5696 20.8437C72.4919 21.1153 72.4531 21.3868 72.4531 21.666V26.2451H70.3081V17.9167H72.3442V19.2519H72.3831C72.4764 19.0407 72.6085 18.8446 72.7639 18.6635C72.9193 18.4825 73.1136 18.309 73.339 18.1581C73.5566 18.0072 73.813 17.8865 74.1006 17.8035C74.3881 17.713 74.699 17.6753 75.0487 17.6753C75.717 17.6753 76.2688 17.8186 76.7118 18.1053C77.1548 18.3919 77.4889 18.7767 77.7298 19.2519C78.0174 18.7465 78.3982 18.3542 78.8722 18.0826C79.3463 17.8111 79.9059 17.6677 80.5509 17.6677Z" fill="white"/>
<path d="M93.9566 26.2449H91.9205V24.9096H91.8816C91.6873 25.3245 91.3609 25.6942 90.8869 26.011C90.4128 26.3279 89.861 26.4863 89.216 26.4863C88.6565 26.4863 88.1746 26.3882 87.7783 26.1996C87.382 26.011 87.0478 25.7545 86.7913 25.4453C86.5349 25.136 86.3484 24.7738 86.2318 24.3665C86.1152 23.9591 86.053 23.5442 86.053 23.1142V17.9089H88.198V22.5258C88.198 22.7672 88.2135 23.0237 88.2524 23.2877C88.2912 23.5517 88.3689 23.7931 88.4855 24.0044C88.6021 24.2156 88.7653 24.3967 88.9751 24.5324C89.1849 24.6682 89.4569 24.7437 89.8066 24.7437C90.1408 24.7437 90.4361 24.6758 90.6926 24.5475C90.949 24.4117 91.1589 24.2458 91.3143 24.0345C91.4697 23.8233 91.5941 23.5895 91.6796 23.3179C91.765 23.0463 91.8039 22.7747 91.8039 22.4956V17.9165H93.9488V26.2449H93.9566Z" fill="white"/>
<path d="M96.4435 17.9167H98.4796V19.252H98.5185C98.7127 18.837 99.0391 18.4674 99.5132 18.1506C99.9873 17.8337 100.539 17.6753 101.184 17.6753C101.744 17.6753 102.225 17.7734 102.622 17.962C103.018 18.1506 103.352 18.407 103.609 18.7163C103.865 19.0256 104.052 19.3878 104.168 19.7951C104.285 20.2025 104.347 20.6174 104.347 21.0474V26.2527H102.202V21.6358C102.202 21.3944 102.187 21.1379 102.148 20.8739C102.109 20.6099 102.031 20.3685 101.915 20.1572C101.798 19.946 101.635 19.7649 101.425 19.6292C101.215 19.4934 100.943 19.4179 100.593 19.4179C100.244 19.4179 99.9484 19.4858 99.6997 19.6141C99.451 19.7499 99.2412 19.9158 99.0858 20.127C98.9226 20.3383 98.806 20.5721 98.7205 20.8437C98.635 21.1153 98.5962 21.3869 98.5962 21.666V26.2451H96.4512V17.9167H96.4435Z" fill="white"/>
<path d="M106.484 15.0878C106.484 14.7558 106.608 14.4616 106.865 14.2127C107.121 13.9637 107.448 13.843 107.836 13.843C108.225 13.843 108.559 13.9637 108.831 14.1976C109.103 14.4314 109.235 14.7332 109.235 15.0878C109.235 15.4499 109.103 15.7441 108.831 15.9779C108.567 16.2118 108.233 16.3325 107.836 16.3325C107.44 16.3325 107.121 16.2118 106.865 15.9628C106.616 15.7139 106.484 15.4197 106.484 15.0878ZM106.787 17.9167H108.932V26.2451H106.787V17.9167Z" fill="white"/>
<path d="M110.222 19.5763V17.9092H111.722V15.4951H113.828V17.9092H115.973V19.5763H113.828V23.4463C113.828 23.816 113.898 24.1253 114.03 24.3667C114.17 24.6081 114.473 24.7288 114.947 24.7288C115.087 24.7288 115.243 24.7137 115.413 24.6835C115.577 24.6534 115.732 24.6081 115.856 24.5553L115.926 26.1848C115.732 26.2527 115.507 26.3055 115.25 26.3507C114.986 26.3884 114.737 26.4111 114.496 26.4111C113.921 26.4111 113.463 26.3356 113.105 26.1772C112.748 26.0188 112.468 25.8076 112.258 25.536C112.048 25.2644 111.909 24.9551 111.831 24.6006C111.753 24.246 111.714 23.8688 111.714 23.4614V19.5763H110.222Z" fill="white"/>
<path d="M116.696 17.9165H119.074L121.467 23.9742H121.506L123.636 17.9165H125.874L121.817 28.0328C121.662 28.4176 121.499 28.7495 121.32 29.0512C121.141 29.3455 120.923 29.5944 120.675 29.7981C120.426 30.0018 120.131 30.1526 119.789 30.2583C119.447 30.3639 119.043 30.4167 118.561 30.4167C118.382 30.4167 118.203 30.4091 118.017 30.3941C117.83 30.379 117.644 30.3412 117.457 30.296L117.636 28.493C117.776 28.5383 117.916 28.5684 118.056 28.5911C118.196 28.6062 118.32 28.6137 118.437 28.6137C118.662 28.6137 118.856 28.5911 119.012 28.5383C119.167 28.4855 119.299 28.4025 119.408 28.2969C119.517 28.1837 119.61 28.0479 119.696 27.8895C119.781 27.7311 119.867 27.5349 119.968 27.3162L120.395 26.26L116.696 17.9165Z" fill="white"/>
<path d="M31.6453 29.7981H36.5801C37.0542 29.7981 37.5282 29.8509 37.9945 29.9641C38.4608 30.0772 38.8727 30.2507 39.2379 30.4997C39.6032 30.7486 39.8985 31.073 40.1239 31.4653C40.3493 31.8576 40.4658 32.3328 40.4658 32.8911C40.4658 33.5851 40.2638 34.1584 39.8597 34.6111C39.4556 35.0637 38.9271 35.3881 38.2665 35.5842V35.622C39.067 35.7276 39.7198 36.0293 40.2327 36.5272C40.7456 37.0251 41.0021 37.689 41.0021 38.5263C41.0021 39.1977 40.8622 39.7635 40.5902 40.2162C40.3182 40.6763 39.9529 41.0384 39.5099 41.3176C39.067 41.5967 38.5541 41.7928 37.9712 41.9135C37.3961 42.0342 36.8055 42.0946 36.2071 42.0946H31.6453V29.7981ZM33.899 34.7997H35.904C36.6578 34.7997 37.2252 34.6563 37.6215 34.3697C38.0178 34.083 38.2121 33.6681 38.2121 33.14C38.2121 32.5818 38.0101 32.1895 37.6059 31.9632C37.2018 31.7293 36.5723 31.6162 35.7097 31.6162H33.9067V34.7997H33.899ZM33.899 40.2463H35.9195C36.2071 40.2463 36.5179 40.2237 36.8521 40.186C37.1863 40.1483 37.4894 40.0653 37.7691 39.937C38.0489 39.8088 38.2821 39.6277 38.4686 39.3788C38.6551 39.1374 38.7483 38.813 38.7483 38.4056C38.7483 37.7569 38.523 37.3042 38.0722 37.0553C37.6215 36.7988 36.9376 36.6706 36.0128 36.6706H33.9067V40.2463H33.899Z" fill="white"/>
<path d="M42.6963 28.9683H44.8412V42.087H42.6963V28.9683Z" fill="white"/>
<path d="M46.5043 37.8852C46.5043 37.2289 46.6286 36.6254 46.8695 36.0898C47.1104 35.5542 47.4446 35.094 47.8643 34.7093C48.2839 34.3245 48.7735 34.0303 49.3486 33.8266C49.9237 33.6154 50.5299 33.5173 51.1749 33.5173C51.8199 33.5173 52.4261 33.6229 53.0012 33.8266C53.5763 34.0379 54.0659 34.3321 54.4855 34.7093C54.9052 35.094 55.2316 35.5542 55.4803 36.0898C55.7212 36.6254 55.8455 37.2289 55.8455 37.8852C55.8455 38.5415 55.7212 39.1451 55.4803 39.6882C55.2394 40.2314 54.9052 40.6991 54.4855 41.0838C54.0659 41.4686 53.5763 41.7779 53.0012 41.9966C52.4261 42.2154 51.8199 42.3286 51.1749 42.3286C50.5299 42.3286 49.9237 42.2154 49.3486 41.9966C48.7735 41.7779 48.2839 41.4761 47.8643 41.0838C47.4446 40.6915 47.1182 40.2314 46.8695 39.6882C46.6208 39.1451 46.5043 38.5415 46.5043 37.8852ZM48.6803 37.8852C48.6803 38.2096 48.7269 38.534 48.8357 38.8584C48.9367 39.1828 49.0922 39.4694 49.2942 39.7259C49.4963 39.9824 49.7527 40.1861 50.0636 40.3521C50.3744 40.5105 50.7397 40.5935 51.1749 40.5935C51.6023 40.5935 51.9754 40.5105 52.2862 40.3521C52.5971 40.1937 52.8535 39.9824 53.0556 39.7259C53.2576 39.4694 53.4131 39.1828 53.5141 38.8584C53.6151 38.534 53.6695 38.2096 53.6695 37.8852C53.6695 37.5608 53.6151 37.244 53.5141 36.9196C53.4131 36.6028 53.2576 36.3161 53.0556 36.0596C52.8535 35.8031 52.5971 35.5994 52.2862 35.441C51.9754 35.2826 51.6101 35.2072 51.1749 35.2072C50.7475 35.2072 50.3744 35.2826 50.0636 35.441C49.7527 35.5994 49.4963 35.8031 49.2942 36.0596C49.0922 36.3161 48.9367 36.6028 48.8357 36.9196C48.7347 37.244 48.6803 37.5608 48.6803 37.8852Z" fill="white"/>
<path d="M56.9568 37.8852C56.9568 37.2289 57.0811 36.6254 57.322 36.0898C57.563 35.5542 57.8971 35.094 58.3168 34.7093C58.7364 34.3245 59.226 34.0303 59.8011 33.8266C60.3762 33.6154 60.9824 33.5173 61.6274 33.5173C62.2724 33.5173 62.8786 33.6229 63.4537 33.8266C64.0288 34.0379 64.5184 34.3321 64.938 34.7093C65.3577 35.094 65.6841 35.5542 65.9328 36.0898C66.1737 36.6254 66.298 37.2289 66.298 37.8852C66.298 38.5415 66.1737 39.1451 65.9328 39.6882C65.6919 40.2314 65.3577 40.6991 64.938 41.0838C64.5184 41.4686 64.0288 41.7779 63.4537 41.9966C62.8786 42.2154 62.2724 42.3286 61.6274 42.3286C60.9824 42.3286 60.3762 42.2154 59.8011 41.9966C59.226 41.7779 58.7364 41.4761 58.3168 41.0838C57.8971 40.6915 57.5707 40.2314 57.322 39.6882C57.0811 39.1451 56.9568 38.5415 56.9568 37.8852ZM59.1406 37.8852C59.1406 38.2096 59.1872 38.534 59.296 38.8584C59.397 39.1828 59.5524 39.4694 59.7545 39.7259C59.9566 39.9824 60.213 40.1861 60.5239 40.3521C60.8347 40.5105 61.2 40.5935 61.6352 40.5935C62.0626 40.5935 62.4356 40.5105 62.7465 40.3521C63.0574 40.1937 63.3138 39.9824 63.5159 39.7259C63.7179 39.4694 63.8734 39.1828 63.9744 38.8584C64.0754 38.534 64.1298 38.2096 64.1298 37.8852C64.1298 37.5608 64.0754 37.244 63.9744 36.9196C63.8734 36.6028 63.7179 36.3161 63.5159 36.0596C63.3138 35.8031 63.0574 35.5994 62.7465 35.441C62.4356 35.2826 62.0704 35.2072 61.6352 35.2072C61.2078 35.2072 60.8347 35.2826 60.5239 35.441C60.213 35.5994 59.9566 35.8031 59.7545 36.0596C59.5524 36.3161 59.397 36.6028 59.296 36.9196C59.1872 37.244 59.1406 37.5608 59.1406 37.8852Z" fill="white"/>
<path d="M76.6341 42.087H74.598V40.8348H74.5591C74.2638 41.3176 73.8441 41.6872 73.3157 41.9437C72.7872 42.2002 72.2199 42.3284 71.606 42.3284C70.9532 42.3284 70.3625 42.2077 69.8419 41.9739C69.3212 41.74 68.886 41.4156 68.5207 41.0158C68.1554 40.616 67.8757 40.1483 67.6814 39.6126C67.4871 39.077 67.3861 38.4962 67.3861 37.8851C67.3861 37.274 67.4871 36.7007 67.6892 36.1651C67.8912 35.6295 68.1788 35.1693 68.544 34.777C68.917 34.3847 69.3523 34.0755 69.8652 33.8491C70.3781 33.6228 70.9376 33.5097 71.5438 33.5097C71.9401 33.5097 72.2898 33.5549 72.6007 33.6379C72.9116 33.7209 73.1836 33.834 73.4167 33.9623C73.6499 34.0905 73.8519 34.2263 74.0151 34.3772C74.1783 34.5281 74.3182 34.6714 74.427 34.8072H74.4814V28.9683H76.6263V42.087H76.6341ZM69.5776 37.8851C69.5776 38.2095 69.6243 38.5339 69.7331 38.8583C69.8341 39.1826 69.9895 39.4693 70.1916 39.7258C70.3936 39.9823 70.6501 40.186 70.9609 40.3519C71.2718 40.5104 71.637 40.5933 72.0489 40.5933C72.4453 40.5933 72.795 40.5179 73.1058 40.3595C73.4167 40.2011 73.6809 39.9974 73.8985 39.7409C74.1161 39.4844 74.2871 39.1977 74.3959 38.8809C74.5125 38.564 74.5669 38.2397 74.5669 37.9153C74.5669 37.5909 74.5125 37.2665 74.3959 36.9421C74.2793 36.6177 74.1161 36.3311 73.8985 36.0746C73.6809 35.8181 73.4167 35.6144 73.1058 35.4484C72.795 35.29 72.4453 35.207 72.0489 35.207C71.6293 35.207 71.2718 35.2825 70.9609 35.4409C70.6501 35.5993 70.3936 35.803 70.1916 36.0595C69.9895 36.316 69.8341 36.6026 69.7331 36.9195C69.6243 37.2439 69.5776 37.5607 69.5776 37.8851Z" fill="white"/>
<path d="M92.4567 32.6799C92.1226 32.2423 91.6873 31.9179 91.1511 31.7143C90.6149 31.5106 90.0864 31.4125 89.5813 31.4125C88.9285 31.4125 88.3301 31.5257 87.7939 31.7595C87.2576 31.9934 86.7991 32.3102 86.4105 32.7176C86.022 33.125 85.7267 33.6002 85.5168 34.1434C85.307 34.6865 85.206 35.275 85.206 35.9162C85.206 36.5876 85.307 37.1986 85.5091 37.7569C85.7111 38.3151 85.9987 38.7904 86.3795 39.1902C86.7525 39.59 87.2032 39.8993 87.7317 40.1181C88.2524 40.3369 88.843 40.45 89.5036 40.45C90.1797 40.45 90.7859 40.3218 91.3066 40.0578C91.8272 39.8013 92.2547 39.4543 92.5733 39.0243L94.3763 40.2539C93.8167 40.9329 93.1328 41.4685 92.3168 41.8381C91.5086 42.2153 90.5605 42.4039 89.4725 42.4039C88.4855 42.4039 87.5763 42.2455 86.7447 41.9286C85.9132 41.6118 85.206 41.1667 84.6076 40.5934C84.0092 40.02 83.5429 39.3411 83.2165 38.549C82.8823 37.7569 82.7191 36.8818 82.7191 35.9237C82.7191 34.943 82.8979 34.0529 83.2476 33.2607C83.5973 32.4686 84.0791 31.7972 84.6931 31.239C85.307 30.6807 86.0297 30.2583 86.8613 29.9565C87.6928 29.6548 88.6021 29.5039 89.5813 29.5039C89.9854 29.5039 90.4128 29.5416 90.848 29.6171C91.291 29.6925 91.7107 29.8057 92.1148 29.9641C92.5189 30.1225 92.8997 30.3111 93.2572 30.545C93.6147 30.7788 93.9177 31.0504 94.1664 31.3748L92.4567 32.6799Z" fill="white"/>
<path d="M103.181 38.0209C103.181 38.1115 103.181 38.2095 103.181 38.3001C103.181 38.3906 103.174 38.4887 103.166 38.5792H96.6378C96.6611 38.8809 96.7388 39.1525 96.8787 39.4015C97.0186 39.6504 97.1973 39.8616 97.4227 40.0427C97.6481 40.2238 97.9045 40.3671 98.1921 40.4652C98.4796 40.5708 98.7749 40.6236 99.0858 40.6236C99.622 40.6236 100.073 40.5255 100.446 40.3369C100.819 40.1483 101.122 39.8843 101.355 39.5448L102.785 40.6537C101.938 41.7627 100.71 42.3209 99.1013 42.3209C98.433 42.3209 97.819 42.2229 97.2595 42.0192C96.6999 41.8155 96.2103 41.5288 95.8062 41.1592C95.3943 40.7895 95.0757 40.3369 94.8426 39.7938C94.6094 39.2506 94.4929 38.6471 94.4929 37.9606C94.4929 37.2892 94.6094 36.6781 94.8426 36.1274C95.0757 35.5767 95.3944 35.109 95.7985 34.7243C96.2026 34.3395 96.6844 34.0378 97.2362 33.819C97.7879 33.6002 98.3863 33.4946 99.0314 33.4946C99.6298 33.4946 100.182 33.5927 100.687 33.7813C101.192 33.9699 101.635 34.2566 102 34.6338C102.373 35.0109 102.661 35.4787 102.87 36.0369C103.073 36.6178 103.181 37.2741 103.181 38.0209ZM101.036 37.0855C101.036 36.8215 100.998 36.565 100.92 36.3236C100.842 36.0822 100.718 35.8634 100.555 35.6823C100.391 35.4937 100.174 35.3504 99.9173 35.2373C99.6609 35.1241 99.3578 35.0713 99.0158 35.0713C98.3708 35.0713 97.8268 35.2599 97.3838 35.6371C96.9331 36.0143 96.6922 36.4971 96.6455 37.0855H101.036Z" fill="white"/>
<path d="M104.806 33.7587H106.842V35.094H106.881C107.075 34.6791 107.401 34.3094 107.875 33.9926C108.349 33.6758 108.901 33.5173 109.546 33.5173C110.106 33.5173 110.587 33.6154 110.984 33.804C111.38 33.9926 111.714 34.2491 111.971 34.5584C112.227 34.8677 112.414 35.2298 112.53 35.6372C112.647 36.0445 112.709 36.4594 112.709 36.8894V42.0947H110.564V37.4779C110.564 37.2365 110.549 36.98 110.51 36.7159C110.471 36.4519 110.393 36.2105 110.277 35.9993C110.16 35.788 109.997 35.607 109.787 35.4712C109.577 35.3354 109.305 35.26 108.955 35.26C108.606 35.26 108.31 35.3279 108.062 35.4561C107.813 35.5919 107.603 35.7579 107.448 35.9691C107.285 36.1803 107.168 36.4142 107.083 36.6858C106.997 36.9573 106.958 37.2289 106.958 37.508V42.0872H104.813V33.7587H104.806Z" fill="white"/>
<path d="M113.727 35.4184V33.7512H115.227V31.3372H117.333V33.7512H119.478V35.4184H117.333V39.2884C117.333 39.658 117.403 39.9673 117.535 40.2087C117.675 40.4501 117.978 40.5708 118.452 40.5708C118.592 40.5708 118.747 40.5558 118.918 40.5256C119.082 40.4954 119.237 40.4501 119.361 40.3973L119.431 42.0268C119.237 42.0947 119.012 42.1475 118.755 42.1928C118.491 42.2305 118.242 42.2531 118.001 42.2531C117.426 42.2531 116.968 42.1777 116.61 42.0193C116.253 41.8608 115.973 41.6496 115.763 41.378C115.553 41.1065 115.414 40.7972 115.336 40.4426C115.258 40.088 115.219 39.7108 115.219 39.3035V35.4184H113.727Z" fill="white"/>
<path d="M128.975 38.0209C128.975 38.1115 128.975 38.2095 128.975 38.3001C128.975 38.3906 128.967 38.4887 128.959 38.5792H122.431C122.454 38.8809 122.532 39.1525 122.672 39.4015C122.812 39.6504 122.991 39.8616 123.216 40.0427C123.441 40.2238 123.698 40.3671 123.985 40.4652C124.273 40.5708 124.568 40.6236 124.879 40.6236C125.415 40.6236 125.866 40.5255 126.239 40.3369C126.612 40.1483 126.915 39.8843 127.148 39.5448L128.578 40.6537C127.731 41.7627 126.503 42.3209 124.895 42.3209C124.226 42.3209 123.612 42.2229 123.053 42.0192C122.493 41.8155 122.004 41.5288 121.6 41.1592C121.188 40.7895 120.869 40.3369 120.636 39.7938C120.403 39.2506 120.286 38.6471 120.286 37.9606C120.286 37.2892 120.403 36.6781 120.636 36.1274C120.869 35.5767 121.188 35.109 121.592 34.7243C121.996 34.3395 122.478 34.0378 123.029 33.819C123.581 33.6002 124.18 33.4946 124.825 33.4946C125.423 33.4946 125.975 33.5927 126.48 33.7813C126.985 33.9699 127.428 34.2566 127.793 34.6338C128.166 35.0109 128.454 35.4787 128.664 36.0369C128.866 36.6178 128.975 37.2741 128.975 38.0209ZM126.83 37.0855C126.83 36.8215 126.791 36.565 126.713 36.3236C126.635 36.0822 126.511 35.8634 126.348 35.6823C126.185 35.4937 125.967 35.3504 125.711 35.2373C125.454 35.1241 125.151 35.0713 124.809 35.0713C124.164 35.0713 123.62 35.2599 123.177 35.6371C122.726 36.0143 122.485 36.4971 122.439 37.0855H126.83Z" fill="white"/>
<path d="M130.793 33.7587H132.853V35.1468H132.891C133.132 34.664 133.467 34.2642 133.894 33.97C134.321 33.6682 134.827 33.5173 135.394 33.5173C135.479 33.5173 135.565 33.5173 135.666 33.5249C135.759 33.5324 135.845 33.5475 135.915 33.5701V35.4787C135.775 35.441 135.65 35.4184 135.549 35.4108C135.448 35.3958 135.347 35.3958 135.254 35.3958C134.764 35.3958 134.376 35.4787 134.073 35.6522C133.777 35.8258 133.544 36.037 133.373 36.2784C133.21 36.5198 133.093 36.7687 133.031 37.0252C132.969 37.2817 132.946 37.4854 132.946 37.6287V42.0872H130.801V33.7587H130.793Z" fill="white"/>
<path d="M23.7806 23.3106C23.2987 22.4128 22.6537 21.4472 21.9232 20.4288C22.4128 23.7858 21.8921 26.7883 20.5243 30.0321C16.9495 36.7462 11.1131 37.2064 7.76366 30.6583C5.19909 25.1814 6.71452 19.9837 7.57714 16.5362C8.61074 12.3871 10.981 5.71074 12.7218 0.354604C12.7995 -0.030133 4.63954 16.2495 2.33143 22.6316C1.02583 26.23 -1.29006 31.6465 2.86766 37.4176C8.28434 44.3278 17.5323 43.943 23.0811 36.9725C25.8944 32.4764 26.3296 28.4102 23.7806 23.3106Z" fill="#FC1921"/>
<path d="M13.9963 32.5668C16.8677 32.5668 19.1954 29.4797 19.1954 25.6717C19.1954 21.8636 16.8677 18.7766 13.9963 18.7766C11.125 18.7766 8.79724 21.8636 8.79724 25.6717C8.79724 29.4797 11.125 32.5668 13.9963 32.5668Z" fill="#FC1921"/>
</svg>
