<svg width="156" height="29" viewBox="0 0 156 29" fill="none" xmlns="http://www.w3.org/2000/svg">
<path d="M41.7969 0.923584H45.4763L48.9115 10.0204H48.9666L52.3624 0.923584H56.0575V13.7294H53.7254V3.44201H53.686L49.6757 13.7294H48.0291L44.0739 3.44201H44.0424V13.7294H41.8048V0.923584H41.7969Z" fill="white"/>
<path d="M66.946 9.49371C66.946 9.59292 66.946 9.6845 66.946 9.78371C66.946 9.88292 66.9382 9.9745 66.9303 10.0737H60.1151C60.1388 10.3866 60.2254 10.6766 60.3673 10.9361C60.5091 11.1956 60.6982 11.4169 60.9345 11.6077C61.1709 11.7908 61.4388 11.9435 61.7382 12.0503C62.0376 12.1571 62.3448 12.2106 62.6757 12.2106C63.2351 12.2106 63.7079 12.1113 64.0939 11.9129C64.48 11.7145 64.7951 11.4398 65.0473 11.0887L66.5363 12.2487C65.6539 13.4087 64.3697 13.9811 62.6915 13.9811C61.9982 13.9811 61.3521 13.8742 60.7691 13.6682C60.186 13.4545 59.6739 13.1569 59.2485 12.7753C58.823 12.3861 58.4842 11.9129 58.24 11.3558C57.9957 10.7987 57.8776 10.1577 57.8776 9.44792C57.8776 8.74582 57.9957 8.1124 58.24 7.54003C58.4842 6.96766 58.8151 6.47924 59.2406 6.07477C59.666 5.67029 60.1624 5.3574 60.7454 5.13608C61.3206 4.91477 61.9509 4.80029 62.6206 4.80029C63.243 4.80029 63.8182 4.8995 64.346 5.09792C64.8739 5.29635 65.3309 5.59398 65.717 5.98319C66.103 6.3724 66.4024 6.86082 66.623 7.44845C66.8357 8.02845 66.946 8.71529 66.946 9.49371ZM64.7006 8.51687C64.7006 8.24213 64.6612 7.97503 64.5824 7.72319C64.5036 7.47135 64.3776 7.25003 64.1964 7.05161C64.023 6.86082 63.8024 6.70819 63.5345 6.59371C63.2667 6.47924 62.9515 6.41819 62.5891 6.41819C61.9194 6.41819 61.3521 6.61661 60.8794 7.00582C60.4145 7.39503 60.1545 7.89871 60.1073 8.51687H64.7006Z" fill="white"/>
<path d="M79.3393 4.79261C79.9224 4.79261 80.4266 4.89182 80.8442 5.09024C81.2618 5.28866 81.6005 5.54813 81.8684 5.87629C82.1363 6.20445 82.3333 6.5784 82.4593 6.99813C82.5854 7.41787 82.6484 7.85287 82.6484 8.30313V13.7292H80.4108V8.92129C80.4108 8.66945 80.3951 8.40234 80.3557 8.12761C80.3163 7.85287 80.2375 7.60103 80.1115 7.37971C79.9854 7.1584 79.8121 6.97524 79.5993 6.83024C79.3787 6.68524 79.0951 6.61655 78.7327 6.61655C78.386 6.61655 78.0866 6.69287 77.8345 6.83024C77.5824 6.97524 77.3775 7.1584 77.2199 7.38734C77.0545 7.61629 76.9363 7.87577 76.8654 8.15813C76.7866 8.4405 76.7551 8.72287 76.7551 8.99761V13.7368H74.5175V8.49392C74.5175 7.95208 74.3836 7.50182 74.1157 7.15077C73.8478 6.79208 73.4302 6.61655 72.8551 6.61655C72.5163 6.61655 72.2248 6.68524 71.9805 6.82261C71.7284 6.95998 71.5314 7.1355 71.3739 7.35682C71.2163 7.5705 71.0981 7.82234 71.0193 8.10471C70.9405 8.38708 70.9011 8.67708 70.9011 8.96708V13.7368H68.6636V5.04445H70.7908V6.4334H70.8302C70.9327 6.21971 71.0666 6.01366 71.2321 5.81524C71.3975 5.62445 71.6024 5.44892 71.8308 5.28866C72.0593 5.1284 72.3272 5.00629 72.6266 4.91471C72.926 4.82313 73.2569 4.77734 73.6115 4.77734C74.3048 4.77734 74.8878 4.92998 75.3448 5.22761C75.8096 5.53287 76.1563 5.92971 76.4084 6.41813C76.7078 5.89155 77.1018 5.47945 77.606 5.19708C78.0866 4.93761 78.6696 4.79261 79.3393 4.79261Z" fill="white"/>
<path d="M84.2636 9.34878C84.2636 8.66193 84.3897 8.03614 84.6497 7.47904C84.9018 6.92193 85.2485 6.44115 85.6818 6.0443C86.1151 5.64746 86.6351 5.3422 87.2339 5.12088C87.8327 4.9072 88.463 4.79272 89.1406 4.79272C89.8103 4.79272 90.4485 4.89957 91.0472 5.12088C91.646 5.33457 92.1582 5.64746 92.5994 6.0443C93.0327 6.44115 93.3794 6.92193 93.6315 7.47904C93.8836 8.03614 94.0176 8.66193 94.0176 9.34878C94.0176 10.0356 93.8915 10.6614 93.6315 11.2261C93.3794 11.7909 93.0327 12.2793 92.5994 12.6838C92.166 13.0882 91.646 13.4011 91.0472 13.6301C90.4485 13.859 89.8182 13.9735 89.1406 13.9735C88.4709 13.9735 87.8327 13.859 87.2339 13.6301C86.6351 13.4011 86.123 13.0882 85.6818 12.6838C85.2485 12.2793 84.9018 11.7985 84.6497 11.2261C84.3976 10.6614 84.2636 10.0356 84.2636 9.34878ZM86.5485 9.34878C86.5485 9.68457 86.6036 10.0204 86.706 10.3638C86.8085 10.6996 86.966 11.0048 87.1788 11.2643C87.3915 11.5314 87.6594 11.7451 87.9824 11.913C88.3054 12.0809 88.6915 12.1648 89.1406 12.1648C89.5897 12.1648 89.9757 12.0809 90.2988 11.913C90.6218 11.7451 90.8897 11.5314 91.1024 11.2643C91.3151 10.9972 91.4727 10.6996 91.5751 10.3638C91.6776 10.028 91.7327 9.6922 91.7327 9.34878C91.7327 9.00536 91.6776 8.6772 91.5751 8.34141C91.4727 8.01325 91.3072 7.71562 91.1024 7.44851C90.8897 7.18141 90.6218 6.96772 90.2988 6.80746C89.9757 6.6472 89.5897 6.56325 89.1406 6.56325C88.6915 6.56325 88.3054 6.6472 87.9824 6.80746C87.6594 6.96772 87.3915 7.18141 87.1788 7.44851C86.966 7.71562 86.8085 8.01325 86.706 8.34141C86.5957 8.6772 86.5485 9.01299 86.5485 9.34878Z" fill="white"/>
<path d="M95.7115 5.04457H97.8545V6.49457H97.8939C98.146 5.99088 98.4927 5.57878 98.9418 5.26588C99.3909 4.95299 99.9109 4.79272 100.51 4.79272C100.596 4.79272 100.691 4.79272 100.793 4.80036C100.896 4.80799 100.982 4.82325 101.053 4.84615V6.83799C100.904 6.79983 100.778 6.77694 100.667 6.7693C100.557 6.76167 100.462 6.75404 100.36 6.75404C99.8479 6.75404 99.4382 6.84562 99.1309 7.02878C98.8236 7.21193 98.5794 7.42562 98.406 7.67746C98.2327 7.9293 98.1145 8.18878 98.0515 8.45588C97.9885 8.72299 97.9569 8.92904 97.9569 9.0893V13.7369H95.7194V5.04457H95.7115Z" fill="white"/>
<path d="M101.762 2.0987C101.762 1.74765 101.896 1.44238 102.164 1.18291C102.432 0.923437 102.771 0.793701 103.181 0.793701C103.59 0.793701 103.937 0.915806 104.213 1.16765C104.496 1.41186 104.63 1.72475 104.63 2.0987C104.63 2.47265 104.488 2.78554 104.213 3.02975C103.929 3.27396 103.59 3.4037 103.181 3.4037C102.771 3.4037 102.432 3.27396 102.164 3.01449C101.896 2.75502 101.762 2.44975 101.762 2.0987ZM102.078 5.04449H104.315V13.7216H102.078V5.04449Z" fill="white"/>
<path d="M112.139 12.6227H112.084C111.863 13.0119 111.501 13.3248 111.004 13.569C110.508 13.8132 109.941 13.943 109.302 13.943C108.94 13.943 108.562 13.8972 108.176 13.8056C107.782 13.714 107.419 13.5614 107.096 13.3554C106.765 13.1417 106.49 12.8669 106.277 12.5235C106.056 12.1801 105.954 11.7527 105.954 11.249C105.954 10.6004 106.143 10.0814 106.521 9.6922C106.899 9.30299 107.388 9.01299 107.987 8.80694C108.585 8.60088 109.247 8.46351 109.972 8.40246C110.697 8.34141 111.414 8.30325 112.107 8.30325V8.08957C112.107 7.54772 111.902 7.14325 111.501 6.88378C111.099 6.6243 110.618 6.49457 110.051 6.49457C109.578 6.49457 109.121 6.59378 108.688 6.78457C108.255 6.97536 107.892 7.21193 107.608 7.48667L106.45 6.16641C106.962 5.70851 107.545 5.36509 108.215 5.13614C108.877 4.9072 109.555 4.79272 110.24 4.79272C111.036 4.79272 111.69 4.89957 112.21 5.12088C112.722 5.33457 113.131 5.62457 113.431 5.96799C113.73 6.31904 113.935 6.70825 114.053 7.14325C114.171 7.57825 114.235 8.01325 114.235 8.44825V13.7293H112.147V12.6227H112.139ZM112.099 9.76851H111.595C111.233 9.76851 110.855 9.78378 110.453 9.8143C110.059 9.84483 109.688 9.91351 109.35 10.0127C109.011 10.1119 108.735 10.2569 108.507 10.4477C108.286 10.6309 108.168 10.8904 108.168 11.2185C108.168 11.4246 108.215 11.5925 108.31 11.7375C108.404 11.8748 108.522 11.9893 108.672 12.0733C108.822 12.1572 108.987 12.2183 109.176 12.2564C109.365 12.2946 109.555 12.3098 109.736 12.3098C110.508 12.3098 111.091 12.1114 111.493 11.7146C111.895 11.3177 112.091 10.7759 112.091 10.089V9.76851H112.099Z" fill="white"/>
<path d="M116.409 0.0534668H118.647V13.7216H116.409V0.0534668Z" fill="white"/>
<path d="M41.7969 15.8127H46.9497C47.446 15.8127 47.9424 15.8738 48.423 15.9883C48.9115 16.1027 49.3369 16.2859 49.723 16.5454C50.1012 16.8048 50.4085 17.1406 50.6448 17.5527C50.8812 17.9648 50.9994 18.4533 50.9994 19.0333C50.9994 19.7583 50.7866 20.3535 50.3612 20.8267C49.9357 21.2998 49.3842 21.6356 48.6988 21.8417V21.8798C49.5339 21.9867 50.2194 22.2996 50.7551 22.8185C51.2909 23.3375 51.5588 24.032 51.5588 24.8943C51.5588 25.5964 51.4169 26.1841 51.1333 26.6572C50.8497 27.1304 50.4715 27.5196 50.0066 27.802C49.5418 28.092 49.006 28.298 48.3994 28.4277C47.7927 28.5575 47.186 28.6185 46.5636 28.6185H41.8048V15.8127H41.7969ZM44.1527 21.0251H46.2406C47.0206 21.0251 47.6194 20.8725 48.0291 20.5748C48.4388 20.2772 48.6436 19.8422 48.6436 19.2927C48.6436 18.7127 48.4309 18.3006 48.0054 18.0641C47.58 17.8198 46.926 17.7054 46.0278 17.7054H44.1448V21.0251H44.1527ZM44.1527 26.703H46.2642C46.5636 26.703 46.8866 26.6801 47.2333 26.642C47.58 26.5962 47.903 26.5122 48.1945 26.3825C48.486 26.2527 48.7303 26.0543 48.9194 25.8025C49.1085 25.5506 49.2109 25.2148 49.2109 24.7875C49.2109 24.1159 48.9745 23.6427 48.5018 23.3756C48.0291 23.1085 47.3121 22.9788 46.3588 22.9788H44.1527V26.703Z" fill="white"/>
<path d="M53.3394 14.9502H55.5769V28.6184H53.3394V14.9502Z" fill="white"/>
<path d="M56.8454 24.2455C56.8454 23.5587 56.9715 22.9329 57.2315 22.3758C57.4836 21.8187 57.8302 21.3379 58.2636 20.941C58.6969 20.5442 59.2169 20.2389 59.8157 20.0176C60.4145 19.8039 61.0448 19.6895 61.7224 19.6895C62.3921 19.6895 63.0302 19.7963 63.629 20.0176C64.2278 20.2313 64.7399 20.5442 65.1812 20.941C65.6145 21.3379 65.9612 21.8187 66.2133 22.3758C66.4654 22.9329 66.5993 23.5587 66.5993 24.2455C66.5993 24.9323 66.4733 25.5581 66.2133 26.1229C65.9612 26.6876 65.6145 27.176 65.1812 27.5805C64.7478 27.985 64.2278 28.2979 63.629 28.5268C63.0302 28.7558 62.3999 28.8702 61.7224 28.8702C61.0527 28.8702 60.4145 28.7558 59.8157 28.5268C59.2169 28.2979 58.7048 27.985 58.2636 27.5805C57.8302 27.176 57.4836 26.6952 57.2315 26.1229C56.9715 25.5581 56.8454 24.9323 56.8454 24.2455ZM59.1224 24.2455C59.1224 24.5813 59.1775 24.9171 59.2799 25.2605C59.3824 25.5963 59.5399 25.9016 59.7527 26.161C59.9654 26.4281 60.2333 26.6418 60.5563 26.8097C60.8793 26.9776 61.2654 27.0616 61.7145 27.0616C62.1636 27.0616 62.5496 26.9776 62.8727 26.8097C63.1957 26.6418 63.4636 26.4281 63.6763 26.161C63.889 25.8939 64.0466 25.5963 64.149 25.2605C64.2515 24.9247 64.3066 24.5889 64.3066 24.2455C64.3066 23.9021 64.2515 23.5739 64.149 23.2381C64.0466 22.91 63.8812 22.6123 63.6763 22.3452C63.4636 22.0781 63.1957 21.8645 62.8727 21.7042C62.5496 21.5439 62.1636 21.46 61.7145 21.46C61.2654 21.46 60.8793 21.5439 60.5563 21.7042C60.2333 21.8645 59.9654 22.0781 59.7527 22.3452C59.5399 22.6123 59.3824 22.91 59.2799 23.2381C59.1775 23.5663 59.1224 23.9021 59.1224 24.2455Z" fill="white"/>
<path d="M67.3715 24.2455C67.3715 23.5587 67.4975 22.9329 67.7575 22.3758C68.0096 21.8187 68.3563 21.3379 68.7896 20.941C69.223 20.5442 69.743 20.2389 70.3418 20.0176C70.9405 19.8039 71.5708 19.6895 72.2484 19.6895C72.9181 19.6895 73.5563 19.7963 74.1551 20.0176C74.7539 20.2313 75.266 20.5442 75.7072 20.941C76.1405 21.3379 76.4872 21.8187 76.7393 22.3758C76.9915 22.9329 77.1254 23.5587 77.1254 24.2455C77.1254 24.9323 76.9993 25.5581 76.7393 26.1229C76.4872 26.6876 76.1405 27.176 75.7072 27.5805C75.2739 27.985 74.7539 28.2979 74.1551 28.5268C73.5563 28.7558 72.926 28.8702 72.2484 28.8702C71.5787 28.8702 70.9405 28.7558 70.3418 28.5268C69.743 28.2979 69.2309 27.985 68.7896 27.5805C68.3563 27.176 68.0096 26.6952 67.7575 26.1229C67.5054 25.5581 67.3715 24.9323 67.3715 24.2455ZM69.6484 24.2455C69.6484 24.5813 69.7036 24.9171 69.806 25.2605C69.9084 25.5963 70.066 25.9016 70.2787 26.161C70.4915 26.4281 70.7593 26.6418 71.0824 26.8097C71.4054 26.9776 71.7915 27.0616 72.2406 27.0616C72.6896 27.0616 73.0757 26.9776 73.3987 26.8097C73.7218 26.6418 73.9896 26.4281 74.2024 26.161C74.4151 25.8939 74.5727 25.5963 74.6751 25.2605C74.7775 24.9247 74.8327 24.5889 74.8327 24.2455C74.8327 23.9021 74.7775 23.5739 74.6751 23.2381C74.5727 22.91 74.4072 22.6123 74.2024 22.3452C73.9896 22.0781 73.7218 21.8645 73.3987 21.7042C73.0757 21.5439 72.6896 21.46 72.2406 21.46C71.7915 21.46 71.4054 21.5439 71.0824 21.7042C70.7593 21.8645 70.4915 22.0781 70.2787 22.3452C70.066 22.6123 69.9084 22.91 69.806 23.2381C69.7036 23.5663 69.6484 23.9021 69.6484 24.2455Z" fill="white"/>
<path d="M87.9272 28.6184H85.7999V27.3134H85.7605C85.4533 27.8171 85.0199 28.2063 84.4605 28.4734C83.909 28.7405 83.3102 28.8703 82.6799 28.8703C81.9945 28.8703 81.3799 28.7482 80.8442 28.4963C80.3005 28.2521 79.8436 27.9163 79.4654 27.5042C79.0872 27.0921 78.7957 26.6037 78.5908 26.0389C78.386 25.4818 78.2836 24.8789 78.2836 24.2379C78.2836 23.5968 78.386 23.0016 78.5987 22.4445C78.8114 21.8874 79.1108 21.4066 79.4969 20.9945C79.883 20.5824 80.3399 20.2618 80.8757 20.0253C81.4114 19.7887 81.9945 19.6742 82.6327 19.6742C83.0424 19.6742 83.4127 19.72 83.7357 19.8116C84.0587 19.9032 84.3424 20.01 84.5866 20.1474C84.8308 20.2771 85.0357 20.4221 85.209 20.5824C85.3824 20.7426 85.5242 20.8876 85.6345 21.0326H85.6896V14.9426H87.9272V28.6184ZM80.5527 24.2455C80.5527 24.5813 80.6078 24.9171 80.7102 25.2605C80.8127 25.5963 80.9781 25.9016 81.183 26.161C81.3957 26.4282 81.6636 26.6418 81.9866 26.8097C82.3096 26.9776 82.6878 27.0616 83.129 27.0616C83.5387 27.0616 83.909 26.9776 84.2321 26.8174C84.5551 26.6571 84.8308 26.4434 85.0593 26.1763C85.2878 25.9092 85.4611 25.6116 85.5793 25.2834C85.6975 24.9553 85.7527 24.6195 85.7527 24.2837C85.7527 23.9479 85.6975 23.6121 85.5793 23.2687C85.4611 22.9329 85.2878 22.6276 85.0593 22.3682C84.8308 22.101 84.5551 21.8874 84.2321 21.7195C83.909 21.5516 83.5387 21.4676 83.129 21.4676C82.6957 21.4676 82.3096 21.5516 81.9866 21.7118C81.6636 21.8721 81.3957 22.0858 81.183 22.3529C80.9702 22.62 80.8127 22.9176 80.7102 23.2458C80.6078 23.5663 80.5527 23.9021 80.5527 24.2455Z" fill="white"/>
<path d="M103.567 18.8196C103.22 18.3617 102.763 18.0259 102.204 17.8123C101.644 17.5986 101.093 17.4994 100.557 17.4994C99.8715 17.4994 99.2491 17.6215 98.6897 17.858C98.1303 18.1023 97.6497 18.4304 97.24 18.8501C96.8382 19.2699 96.523 19.7659 96.3024 20.3307C96.0818 20.8954 95.9794 21.5136 95.9794 22.1775C95.9794 22.8796 96.0818 23.513 96.2945 24.093C96.5073 24.673 96.8067 25.1691 97.2006 25.5812C97.5945 26.0009 98.0594 26.3215 98.6109 26.5504C99.1624 26.7794 99.777 26.8938 100.462 26.8938C101.172 26.8938 101.802 26.7565 102.345 26.4894C102.889 26.2146 103.33 25.8636 103.669 25.4133L105.552 26.6954C104.969 27.4051 104.252 27.9546 103.409 28.3515C102.566 28.7483 101.573 28.9391 100.439 28.9391C99.4067 28.9391 98.4533 28.7712 97.5945 28.443C96.7279 28.1149 95.9873 27.6494 95.3648 27.0541C94.7424 26.4588 94.2539 25.7491 93.9073 24.9173C93.5606 24.093 93.3873 23.1773 93.3873 22.1775C93.3873 21.1549 93.5685 20.2238 93.9388 19.3996C94.3091 18.5754 94.8133 17.8733 95.4515 17.2933C96.0897 16.7133 96.8461 16.2707 97.7206 15.9578C98.5951 15.6449 99.5406 15.4846 100.557 15.4846C100.982 15.4846 101.424 15.5228 101.881 15.5991C102.338 15.6754 102.779 15.7975 103.204 15.9578C103.63 16.118 104.024 16.3241 104.402 16.5607C104.772 16.8049 105.095 17.0873 105.355 17.4307L103.567 18.8196Z" fill="white"/>
<path d="M115.054 24.3829C115.054 24.4821 115.054 24.5737 115.054 24.6729C115.054 24.7721 115.046 24.8637 115.038 24.9629H108.223C108.247 25.2758 108.333 25.5658 108.475 25.8252C108.617 26.0847 108.806 26.306 109.042 26.4968C109.279 26.68 109.547 26.8326 109.846 26.9395C110.145 27.0463 110.453 27.0997 110.784 27.0997C111.343 27.0997 111.816 27.0005 112.202 26.8021C112.588 26.6037 112.903 26.3289 113.155 25.9779L114.644 27.1379C113.762 28.2979 112.478 28.8702 110.799 28.8702C110.106 28.8702 109.46 28.7634 108.877 28.5573C108.294 28.3437 107.782 28.046 107.356 27.6645C106.931 27.2752 106.592 26.8021 106.348 26.245C106.104 25.6879 105.985 25.0468 105.985 24.3371C105.985 23.635 106.104 23.0016 106.348 22.4292C106.592 21.8568 106.923 21.3684 107.348 20.9639C107.774 20.5595 108.27 20.2466 108.853 20.0252C109.428 19.8039 110.059 19.6895 110.728 19.6895C111.351 19.6895 111.926 19.7887 112.454 19.9871C112.982 20.1855 113.439 20.4831 113.825 20.8723C114.211 21.2616 114.51 21.75 114.731 22.3376C114.944 22.9176 115.054 23.6045 115.054 24.3829ZM112.808 23.4137C112.808 23.1389 112.769 22.8718 112.69 22.62C112.611 22.3681 112.485 22.1468 112.304 21.9484C112.131 21.7576 111.91 21.605 111.642 21.4905C111.374 21.376 111.059 21.315 110.697 21.315C110.027 21.315 109.46 21.5134 108.987 21.9026C108.522 22.2918 108.262 22.7955 108.215 23.4137H112.808Z" fill="white"/>
<path d="M116.283 19.9413H118.41V21.3302H118.45C118.647 20.8952 118.993 20.5137 119.482 20.1855C119.97 19.8573 120.553 19.6895 121.223 19.6895C121.806 19.6895 122.31 19.7887 122.728 19.9871C123.145 20.1855 123.484 20.445 123.752 20.7731C124.02 21.1013 124.217 21.4752 124.343 21.895C124.469 22.3147 124.532 22.7497 124.532 23.2V28.626H122.294V23.8181C122.294 23.5663 122.279 23.2992 122.239 23.0245C122.2 22.7497 122.121 22.4979 121.995 22.2766C121.869 22.0552 121.696 21.8721 121.483 21.7271C121.262 21.5821 120.971 21.5134 120.616 21.5134C120.254 21.5134 119.947 21.5821 119.687 21.7195C119.427 21.8568 119.214 22.0323 119.041 22.2537C118.875 22.4673 118.741 22.7192 118.654 23.0016C118.568 23.2839 118.521 23.5739 118.521 23.8639V28.6337H116.283V19.9413Z" fill="white"/>
<path d="M125.391 21.6736V19.9336H126.959V17.4229H129.165V19.9336H131.402V21.6736H129.165V25.7031C129.165 26.0923 129.236 26.4052 129.378 26.6647C129.519 26.9165 129.842 27.0463 130.339 27.0463C130.488 27.0463 130.646 27.031 130.827 27.0005C131.001 26.97 131.158 26.9242 131.292 26.8631L131.371 28.565C131.174 28.6336 130.938 28.6947 130.662 28.7329C130.386 28.7786 130.126 28.7939 129.882 28.7939C129.283 28.7939 128.802 28.71 128.424 28.5497C128.054 28.3894 127.755 28.1681 127.534 27.8781C127.313 27.5957 127.164 27.2676 127.085 26.9013C127.006 26.535 126.959 26.1381 126.959 25.7184V21.6736H125.391Z" fill="white"/>
<path d="M141.109 24.3829C141.109 24.4821 141.109 24.5737 141.109 24.6729C141.109 24.7721 141.101 24.8637 141.093 24.9629H134.278C134.302 25.2758 134.388 25.5658 134.53 25.8252C134.672 26.0847 134.861 26.306 135.098 26.4968C135.334 26.68 135.602 26.8326 135.901 26.9395C136.201 27.0463 136.508 27.0997 136.839 27.0997C137.398 27.0997 137.871 27.0005 138.257 26.8021C138.643 26.6037 138.958 26.3289 139.21 25.9779L140.699 27.1379C139.817 28.2979 138.533 28.8702 136.855 28.8702C136.161 28.8702 135.515 28.7634 134.932 28.5573C134.349 28.3437 133.837 28.046 133.412 27.6645C132.986 27.2752 132.647 26.8021 132.403 26.245C132.159 25.6879 132.041 25.0468 132.041 24.3371C132.041 23.635 132.159 23.0016 132.403 22.4292C132.647 21.8568 132.978 21.3684 133.404 20.9639C133.829 20.5595 134.325 20.2466 134.908 20.0252C135.484 19.8039 136.114 19.6895 136.784 19.6895C137.406 19.6895 137.981 19.7887 138.509 19.9871C139.037 20.1855 139.494 20.4831 139.88 20.8723C140.266 21.2616 140.565 21.75 140.786 22.3376C140.999 22.9176 141.109 23.6045 141.109 24.3829ZM138.871 23.4137C138.871 23.1389 138.832 22.8718 138.753 22.62C138.675 22.3681 138.548 22.1468 138.367 21.9484C138.194 21.7576 137.973 21.605 137.705 21.4905C137.438 21.376 137.122 21.315 136.76 21.315C136.09 21.315 135.523 21.5134 135.05 21.9026C134.585 22.2918 134.325 22.7955 134.278 23.4137H138.871Z" fill="white"/>
<path d="M142.811 19.9413H144.954V21.3913H144.993C145.245 20.8876 145.592 20.4755 146.041 20.1626C146.49 19.8497 147.01 19.6895 147.609 19.6895C147.696 19.6895 147.79 19.6895 147.893 19.6971C147.995 19.7047 148.082 19.72 148.153 19.7429V21.7347C148.003 21.6966 147.877 21.6737 147.767 21.666C147.664 21.6508 147.562 21.6508 147.459 21.6508C146.947 21.6508 146.538 21.7423 146.23 21.9255C145.923 22.1087 145.679 22.3224 145.505 22.5742C145.332 22.826 145.214 23.0855 145.151 23.3526C145.088 23.6197 145.056 23.8258 145.056 23.986V28.6337H142.819V19.9413H142.811Z" fill="white"/>
<path d="M154.33 22.2537C154.133 22.0018 153.857 21.7805 153.51 21.5973C153.164 21.4142 152.785 21.315 152.368 21.315C152.005 21.315 151.675 21.3913 151.375 21.5287C151.076 21.6737 150.926 21.9179 150.926 22.2537C150.926 22.5895 151.091 22.826 151.422 22.971C151.753 23.1084 152.234 23.2534 152.872 23.3984C153.211 23.4671 153.55 23.5663 153.888 23.6884C154.227 23.8105 154.542 23.9708 154.818 24.1692C155.102 24.3676 155.322 24.6118 155.496 24.9095C155.669 25.2071 155.756 25.5658 155.756 25.9855C155.756 26.5121 155.653 26.9623 155.448 27.3363C155.244 27.7026 154.968 28.0002 154.629 28.2292C154.29 28.4581 153.888 28.626 153.431 28.7252C152.975 28.8245 152.51 28.8779 152.021 28.8779C151.328 28.8779 150.65 28.7558 149.988 28.5039C149.327 28.2597 148.783 27.901 148.342 27.4431L149.815 26.1076C150.067 26.4205 150.39 26.68 150.784 26.886C151.178 27.0921 151.627 27.1913 152.108 27.1913C152.265 27.1913 152.431 27.176 152.604 27.1379C152.778 27.0997 152.927 27.0463 153.069 26.9624C153.211 26.886 153.329 26.7792 153.416 26.6495C153.502 26.5197 153.55 26.3518 153.55 26.161C153.55 25.8023 153.376 25.5429 153.038 25.3826C152.699 25.23 152.179 25.0697 151.501 24.9095C151.162 24.8331 150.839 24.7416 150.524 24.6271C150.209 24.5126 149.925 24.36 149.673 24.1768C149.421 23.9937 149.224 23.7571 149.075 23.4823C148.925 23.2076 148.854 22.8642 148.854 22.4521C148.854 21.9713 148.956 21.5516 149.161 21.2005C149.366 20.8495 149.634 20.5671 149.973 20.3458C150.311 20.1245 150.69 19.9566 151.115 19.8497C151.541 19.7429 151.974 19.6895 152.423 19.6895C153.069 19.6895 153.699 19.7963 154.314 20.0176C154.928 20.2313 155.417 20.5671 155.779 21.0097L154.33 22.2537Z" fill="white"/>
<path d="M18.003 28.9466C13.3939 24.0395 18.3497 15.248 18.98 10.4324C19.3818 6.43348 17.7666 3.61743 14.7491 1.91559C8.92663 -0.930991 2.22178 0.984536 0.362383 7.47138C-0.669738 11.6382 1.98541 15.2709 4.0339 17.0719C7.64238 20.239 15.2533 26.413 18.003 28.9466Z" fill="#FC1921"/>
<path d="M20.7054 10.5927C20.7054 10.6079 20.7054 10.6232 20.6975 10.6385C20.5084 12.0808 19.9963 13.7598 19.4527 15.5379C18.1054 19.9414 16.5769 24.9324 19.2793 27.8095C19.4054 27.9469 19.5078 28.0614 19.6181 28.1835C23.6521 24.444 33.4139 15.37 34.7848 11.7985C37.7 4.19741 26.4806 -2.67864 19.3187 3.88451C20.4927 5.73899 20.9654 8.00557 20.7054 10.5927Z" fill="#E30513"/>
</svg>
