<svg width="139" height="35" viewBox="0 0 139 35" fill="none" xmlns="http://www.w3.org/2000/svg">
<path d="M31.7489 5.40918H36.219C36.8271 5.40918 37.4116 5.47282 37.9802 5.60009C38.5488 5.72736 39.0543 5.94213 39.4966 6.2285C39.9388 6.51486 40.2942 6.90464 40.5628 7.38191C40.8313 7.85918 40.9655 8.43986 40.9655 9.116C40.9655 10.0546 40.7049 10.8183 40.1758 11.4149C39.6466 12.0035 38.9279 12.4092 38.0197 12.616L41.4552 18.3592H38.691L35.7136 12.8705H34.0392V18.3592H31.7489V5.40918ZM35.9031 10.9933C36.2269 10.9933 36.5586 10.9694 36.8824 10.9217C37.2062 10.874 37.5063 10.7785 37.767 10.6433C38.0276 10.508 38.2408 10.3171 38.4146 10.0705C38.5804 9.82395 38.6673 9.49782 38.6673 9.10804C38.6673 8.75804 38.5883 8.46373 38.4304 8.241C38.2724 8.01827 38.075 7.83532 37.8302 7.70009C37.5853 7.56486 37.3089 7.47736 37.0009 7.42964C36.6929 7.38191 36.3928 7.35804 36.1005 7.35804H34.0313V11.0012H35.9031V10.9933Z" fill="white"/>
<path d="M47.4574 9.32281C48.0261 9.32281 48.5157 9.42622 48.9185 9.62509C49.3213 9.82395 49.6609 10.0944 49.9215 10.4205C50.1821 10.7467 50.3717 11.1285 50.4901 11.558C50.6086 11.9876 50.6718 12.4251 50.6718 12.8785V18.3671H48.492V13.5387C48.492 13.2842 48.4762 13.0137 48.4367 12.7433C48.3972 12.4649 48.3262 12.2183 48.2077 11.9955C48.0892 11.7728 47.9313 11.5819 47.718 11.4387C47.5048 11.2955 47.2284 11.216 46.873 11.216C46.5176 11.216 46.2175 11.2796 45.9647 11.4149C45.712 11.5501 45.4988 11.733 45.3329 11.9558C45.1671 12.1785 45.0328 12.433 44.9538 12.7115C44.867 12.9899 44.8275 13.2762 44.8275 13.5705V18.3671H42.6477V4.53418H44.8275V10.8103H44.867C44.9538 10.6274 45.0723 10.4444 45.2382 10.2694C45.404 10.0944 45.5936 9.93531 45.8068 9.79213C46.0279 9.64895 46.2728 9.53759 46.5492 9.45009C46.8256 9.37054 47.1336 9.32281 47.4574 9.32281Z" fill="white"/>
<path d="M52.2515 13.9365C52.2515 13.2444 52.3778 12.6081 52.6227 12.0433C52.8675 11.4785 53.2071 10.9933 53.6336 10.5876C54.06 10.1819 54.5576 9.87172 55.142 9.65695C55.7265 9.43422 56.3425 9.33081 56.998 9.33081C57.6535 9.33081 58.2695 9.44217 58.854 9.65695C59.4384 9.87967 59.936 10.1899 60.3624 10.5876C60.7889 10.9933 61.1206 11.4785 61.3733 12.0433C61.6182 12.6081 61.7445 13.2444 61.7445 13.9365C61.7445 14.6285 61.6182 15.2649 61.3733 15.8376C61.1285 16.4104 60.7889 16.9035 60.3624 17.3092C59.936 17.7149 59.4384 18.041 58.854 18.2717C58.2695 18.5024 57.6535 18.6217 56.998 18.6217C56.3425 18.6217 55.7265 18.5024 55.142 18.2717C54.5576 18.041 54.06 17.7229 53.6336 17.3092C53.2071 16.9035 52.8754 16.4104 52.6227 15.8376C52.3699 15.2649 52.2515 14.6285 52.2515 13.9365ZM54.4707 13.9365C54.4707 14.2785 54.5181 14.6206 54.6287 14.9626C54.7313 15.3047 54.8893 15.6069 55.0946 15.8774C55.3 16.1479 55.5606 16.3626 55.8765 16.5376C56.1924 16.7126 56.5636 16.7922 57.0059 16.7922C57.4403 16.7922 57.8194 16.7047 58.1353 16.5376C58.4512 16.3706 58.7118 16.1479 58.9171 15.8774C59.1225 15.6069 59.2804 15.3047 59.3831 14.9626C59.4858 14.6206 59.5411 14.2785 59.5411 13.9365C59.5411 13.5944 59.4858 13.2604 59.3831 12.9183C59.2804 12.5763 59.1225 12.2819 58.9171 12.0115C58.7118 11.741 58.4512 11.5263 58.1353 11.3592C57.8194 11.1922 57.4482 11.1126 57.0059 11.1126C56.5715 11.1126 56.1924 11.1922 55.8765 11.3592C55.5606 11.5263 55.3 11.741 55.0946 12.0115C54.8893 12.2819 54.7313 12.5842 54.6287 12.9183C54.5181 13.2604 54.4707 13.5944 54.4707 13.9365Z" fill="white"/>
<path d="M72.2563 18.3671H70.1871V17.0467H70.1476C69.8475 17.5558 69.4211 17.9455 68.884 18.216C68.347 18.4865 67.7704 18.6217 67.1465 18.6217C66.4831 18.6217 65.8829 18.4944 65.3537 18.2478C64.8246 18.0012 64.3823 17.6592 64.0111 17.2376C63.6399 16.816 63.3556 16.3228 63.1581 15.758C62.9607 15.1933 62.858 14.5808 62.858 13.9365C62.858 13.2921 62.9607 12.6876 63.166 12.1228C63.3714 11.558 63.6636 11.0728 64.0348 10.6592C64.4139 10.2455 64.8562 9.91941 65.3774 9.68077C65.8987 9.44213 66.4673 9.32281 67.0833 9.32281C67.4861 9.32281 67.8415 9.37054 68.1574 9.45804C68.4733 9.54554 68.7497 9.66486 68.9867 9.80009C69.2236 9.93531 69.4289 10.0785 69.5948 10.2376C69.7607 10.3967 69.9028 10.5478 70.0134 10.691H70.0687V4.53418H72.2484V18.3671H72.2563ZM65.0773 13.9365C65.0773 14.2785 65.1247 14.6205 65.2353 14.9626C65.3379 15.3046 65.4959 15.6069 65.7012 15.8774C65.9066 16.1478 66.1672 16.3626 66.4831 16.5376C66.799 16.7126 67.1702 16.7921 67.5888 16.7921C67.9916 16.7921 68.347 16.7126 68.6629 16.5455C68.9788 16.3785 69.2473 16.1637 69.4684 15.8933C69.6896 15.6228 69.8633 15.3205 69.9739 14.9865C70.0924 14.6524 70.1476 14.3103 70.1476 13.9683C70.1476 13.6262 70.0924 13.2842 69.9739 12.9421C69.8554 12.6001 69.6896 12.2978 69.4684 12.0274C69.2473 11.7569 68.9788 11.5421 68.6629 11.3671C68.347 11.2001 67.9916 11.1126 67.5888 11.1126C67.1623 11.1126 66.799 11.1921 66.4831 11.3592C66.1672 11.5262 65.9066 11.741 65.7012 12.0115C65.4959 12.2819 65.3379 12.5842 65.2353 12.9183C65.1247 13.2603 65.0773 13.5944 65.0773 13.9365Z" fill="white"/>
<path d="M82.7682 14.0796C82.7682 14.1751 82.7682 14.2785 82.7682 14.3739C82.7682 14.4694 82.7603 14.5728 82.7524 14.6682H76.1183C76.142 14.9864 76.221 15.2728 76.3632 15.5353C76.5053 15.7978 76.687 16.0205 76.916 16.2114C77.145 16.4023 77.4057 16.5535 77.6979 16.6569C77.9901 16.7682 78.2902 16.8239 78.6061 16.8239C79.1511 16.8239 79.6091 16.7205 79.9882 16.5217C80.3594 16.3228 80.6753 16.0444 80.9123 15.6864L82.3654 16.8557C81.5046 18.0251 80.2567 18.6137 78.6219 18.6137C77.9427 18.6137 77.3188 18.5103 76.7502 18.2955C76.1815 18.0807 75.684 17.7785 75.2654 17.3887C74.8468 16.9989 74.523 16.5217 74.2861 15.9489C74.0491 15.3762 73.9307 14.7398 73.9307 14.016C73.9307 13.308 74.0491 12.6637 74.2861 12.083C74.523 11.5023 74.8468 11.0092 75.2575 10.6035C75.6682 10.1978 76.1578 9.87961 76.7186 9.64893C77.2793 9.41825 77.8874 9.30688 78.5429 9.30688C79.1511 9.30688 79.7118 9.41029 80.2252 9.60916C80.7385 9.80802 81.1808 10.1103 81.5599 10.508C81.9311 10.9057 82.2312 11.3989 82.4444 11.9876C82.6656 12.6001 82.7682 13.2921 82.7682 14.0796ZM80.5885 13.0932C80.5885 12.8148 80.549 12.5444 80.47 12.2898C80.391 12.0353 80.2646 11.8046 80.0988 11.6137C79.9329 11.4228 79.7118 11.2637 79.4512 11.1444C79.1906 11.0251 78.8825 10.9694 78.535 10.9694C77.8795 10.9694 77.3267 11.1682 76.8765 11.566C76.4184 11.9637 76.1736 12.4728 76.1183 13.0932H80.5885Z" fill="white"/>
<path d="M88.6205 5.40918H90.9108V18.3592H88.6205V5.40918Z" fill="white"/>
<path d="M97.9555 11.924C97.7581 11.6695 97.4975 11.4468 97.1579 11.2559C96.8183 11.0649 96.4471 10.9695 96.0522 10.9695C95.7047 10.9695 95.3809 11.0411 95.0887 11.1922C94.7965 11.3434 94.6543 11.582 94.6543 11.924C94.6543 12.2661 94.8123 12.5047 95.1361 12.6479C95.4599 12.7911 95.9258 12.9343 96.5419 13.0774C96.8657 13.149 97.1974 13.2445 97.5291 13.3718C97.8608 13.4911 98.1609 13.6581 98.4373 13.857C98.7137 14.0559 98.927 14.3104 99.1007 14.6047C99.2666 14.907 99.3534 15.2649 99.3534 15.6945C99.3534 16.2274 99.2508 16.6888 99.0533 17.0547C98.8559 17.4286 98.5874 17.7309 98.2557 17.9615C97.924 18.1922 97.537 18.3593 97.0947 18.4627C96.6524 18.5661 96.1944 18.6218 95.7205 18.6218C95.0413 18.6218 94.3858 18.4945 93.7382 18.2479C93.0906 18.0013 92.5614 17.6434 92.1428 17.174L93.5802 15.8218C93.825 16.1399 94.1409 16.4024 94.5279 16.6093C94.9149 16.8161 95.3493 16.9195 95.8153 16.9195C95.9732 16.9195 96.1312 16.9036 96.297 16.8638C96.4629 16.824 96.6129 16.7684 96.7551 16.6888C96.8972 16.6093 97.0078 16.5059 97.0947 16.3706C97.1816 16.2354 97.2211 16.0684 97.2211 15.8774C97.2211 15.5115 97.0552 15.249 96.7235 15.0899C96.3918 14.9309 95.8942 14.7718 95.2229 14.6127C94.8991 14.5411 94.5753 14.4456 94.2673 14.3263C93.9593 14.207 93.6829 14.0559 93.438 13.8649C93.1932 13.674 93.0037 13.4434 92.8536 13.157C92.7115 12.8786 92.6325 12.5286 92.6325 12.1149C92.6325 11.6297 92.7352 11.2081 92.9326 10.8502C93.13 10.5002 93.3986 10.2059 93.7224 9.98312C94.0462 9.7604 94.4174 9.59335 94.8281 9.48199C95.2387 9.37062 95.6652 9.31494 96.0996 9.31494C96.7314 9.31494 97.3474 9.42631 97.9397 9.64108C98.54 9.86381 99.0138 10.1979 99.3692 10.6513L97.9555 11.924Z" fill="white"/>
<path d="M100.822 4.53418H103.002V18.3671H100.822V4.53418Z" fill="white"/>
<path d="M110.616 17.2456H110.56C110.339 17.6354 109.992 17.9536 109.51 18.2081C109.028 18.4547 108.475 18.582 107.859 18.582C107.512 18.582 107.141 18.5343 106.762 18.4468C106.382 18.3513 106.027 18.2002 105.711 17.9854C105.387 17.7706 105.127 17.4922 104.913 17.1422C104.7 16.7922 104.598 16.3627 104.598 15.8536C104.598 15.1934 104.779 14.6684 105.15 14.2786C105.522 13.8888 105.995 13.5865 106.58 13.3797C107.164 13.1729 107.804 13.0377 108.515 12.9661C109.226 12.9024 109.913 12.8627 110.592 12.8627V12.6399C110.592 12.0911 110.394 11.6854 110 11.4229C109.605 11.1604 109.139 11.0331 108.594 11.0331C108.136 11.0331 107.693 11.1286 107.267 11.3274C106.84 11.5263 106.493 11.757 106.217 12.0434L105.087 10.707C105.585 10.2456 106.153 9.89562 106.801 9.66494C107.449 9.43426 108.104 9.31494 108.775 9.31494C109.549 9.31494 110.189 9.42631 110.695 9.64108C111.2 9.86381 111.595 10.1502 111.887 10.5002C112.179 10.8581 112.377 11.2479 112.495 11.6934C112.614 12.1309 112.669 12.5684 112.669 13.0138V18.3593H110.631V17.2456H110.616ZM110.576 14.3581H110.086C109.731 14.3581 109.368 14.374 108.981 14.4059C108.594 14.4377 108.238 14.5013 107.907 14.6047C107.583 14.7081 107.306 14.8513 107.085 15.0422C106.864 15.2331 106.762 15.4877 106.762 15.8218C106.762 16.0286 106.809 16.2036 106.896 16.3468C106.983 16.4899 107.101 16.6013 107.251 16.6888C107.393 16.7763 107.559 16.832 107.741 16.8718C107.922 16.9115 108.104 16.9274 108.286 16.9274C109.036 16.9274 109.605 16.7286 109.992 16.3229C110.379 15.9172 110.576 15.3684 110.576 14.6763V14.3581Z" fill="white"/>
<path d="M114.738 9.58536H116.807V10.9933H116.847C117.044 10.5558 117.376 10.166 117.858 9.83195C118.34 9.49786 118.9 9.33081 119.556 9.33081C120.124 9.33081 120.614 9.43422 121.017 9.63308C121.42 9.83195 121.759 10.1024 122.02 10.4285C122.28 10.7547 122.47 11.1365 122.589 11.566C122.707 11.9956 122.77 12.4331 122.77 12.8865V18.3751H120.59V13.5069C120.59 13.2524 120.575 12.9819 120.535 12.7035C120.496 12.4251 120.417 12.1706 120.298 11.9479C120.18 11.7251 120.014 11.5342 119.801 11.391C119.587 11.2479 119.311 11.1683 118.956 11.1683C118.6 11.1683 118.3 11.2399 118.047 11.3751C117.795 11.5183 117.581 11.6933 117.423 11.916C117.258 12.1388 117.139 12.3854 117.052 12.6717C116.965 12.9581 116.926 13.2444 116.926 13.5388V18.3672H114.746V9.58536H114.738Z" fill="white"/>
<path d="M133.716 18.3671H131.647V17.0467H131.608C131.308 17.5558 130.881 17.9455 130.344 18.216C129.807 18.4865 129.23 18.6217 128.607 18.6217C127.943 18.6217 127.343 18.4944 126.814 18.2478C126.285 18.0012 125.842 17.6592 125.471 17.2376C125.1 16.816 124.816 16.3228 124.618 15.758C124.421 15.1933 124.318 14.5808 124.318 13.9365C124.318 13.2921 124.421 12.6876 124.626 12.1228C124.831 11.558 125.124 11.0728 125.495 10.6592C125.866 10.2455 126.316 9.91941 126.837 9.68077C127.359 9.44213 127.927 9.32281 128.543 9.32281C128.946 9.32281 129.302 9.37054 129.617 9.45804C129.933 9.54554 130.21 9.66486 130.447 9.80009C130.684 9.93531 130.889 10.0785 131.055 10.2376C131.221 10.3967 131.363 10.5478 131.473 10.691H131.529V4.53418H133.709V18.3671H133.716ZM126.545 13.9365C126.545 14.2785 126.601 14.6205 126.703 14.9626C126.806 15.3046 126.964 15.6069 127.169 15.8774C127.375 16.1478 127.635 16.3626 127.951 16.5376C128.267 16.7046 128.638 16.7921 129.057 16.7921C129.46 16.7921 129.815 16.7126 130.131 16.5455C130.447 16.3785 130.715 16.1637 130.936 15.8933C131.158 15.6228 131.331 15.3205 131.442 14.9865C131.56 14.6524 131.616 14.3103 131.616 13.9683C131.616 13.6262 131.56 13.2842 131.442 12.9421C131.323 12.6001 131.158 12.2978 130.936 12.0274C130.715 11.7569 130.447 11.5421 130.131 11.3671C129.815 11.2001 129.46 11.1126 129.057 11.1126C128.63 11.1126 128.267 11.1921 127.951 11.3592C127.635 11.5262 127.375 11.741 127.169 12.0115C126.964 12.2819 126.806 12.5842 126.703 12.9183C126.601 13.2603 126.545 13.5944 126.545 13.9365Z" fill="white"/>
<path d="M31.7489 21.3184H36.764C37.2457 21.3184 37.7275 21.374 38.2013 21.4934C38.6752 21.6127 39.0938 21.7956 39.465 22.0581C39.8362 22.3206 40.1363 22.6627 40.3653 23.0763C40.5944 23.4899 40.7128 23.9911 40.7128 24.5797C40.7128 25.3115 40.5075 25.9161 40.0968 26.3934C39.6861 26.8706 39.1491 27.2127 38.4778 27.4195V27.4593C39.2912 27.5706 39.9546 27.8888 40.4759 28.4138C40.9971 28.9388 41.2578 29.6388 41.2578 30.5218C41.2578 31.2297 41.1156 31.8263 40.8392 32.3036C40.5628 32.7888 40.1916 33.1706 39.7414 33.4649C39.2912 33.7593 38.77 33.9661 38.1776 34.0934C37.5932 34.2206 36.993 34.2843 36.3849 34.2843H31.7489V21.3184ZM34.0313 26.5922H36.069C36.835 26.5922 37.4116 26.4411 37.8144 26.1388C38.2171 25.8365 38.4146 25.399 38.4146 24.8422C38.4146 24.2536 38.2092 23.8399 37.7986 23.6013C37.3879 23.3547 36.7482 23.2354 35.8715 23.2354H34.0392V26.5922H34.0313ZM34.0313 32.3354H36.0848C36.377 32.3354 36.6929 32.3115 37.0325 32.2718C37.3721 32.232 37.6801 32.1445 37.9644 32.0093C38.2487 31.874 38.4857 31.6831 38.6752 31.4206C38.8648 31.1661 38.9595 30.824 38.9595 30.3945C38.9595 29.7104 38.7305 29.2331 38.2724 28.9706C37.8144 28.7002 37.1194 28.5649 36.1874 28.5649H34.0471V32.3354H34.0313Z" fill="white"/>
<path d="M42.9716 20.4434H45.1513V34.2763H42.9716V20.4434Z" fill="white"/>
<path d="M46.8414 29.8454C46.8414 29.1534 46.9678 28.517 47.2126 27.9522C47.4575 27.3875 47.7971 26.9022 48.2235 26.4966C48.65 26.0909 49.1476 25.7807 49.732 25.5659C50.3164 25.3432 50.9325 25.2397 51.588 25.2397C52.2435 25.2397 52.8595 25.3511 53.4439 25.5659C54.0284 25.7886 54.5259 26.0988 54.9524 26.4966C55.3789 26.9022 55.7106 27.3875 55.9633 27.9522C56.2081 28.517 56.3345 29.1534 56.3345 29.8454C56.3345 30.5375 56.2081 31.1738 55.9633 31.7466C55.7185 32.3193 55.3789 32.8125 54.9524 33.2182C54.5259 33.6238 54.0284 33.95 53.4439 34.1807C52.8595 34.4113 52.2435 34.5307 51.588 34.5307C50.9325 34.5307 50.3164 34.4113 49.732 34.1807C49.1476 33.95 48.65 33.6318 48.2235 33.2182C47.7971 32.8125 47.4654 32.3193 47.2126 31.7466C46.9599 31.1738 46.8414 30.5375 46.8414 29.8454ZM49.0528 29.8454C49.0528 30.1875 49.1002 30.5295 49.2107 30.8716C49.3134 31.2136 49.4714 31.5159 49.6767 31.7863C49.8821 32.0568 50.1427 32.2716 50.4586 32.4466C50.7745 32.6216 51.1457 32.7011 51.588 32.7011C52.0223 32.7011 52.4014 32.6136 52.7173 32.4466C53.0332 32.2795 53.2939 32.0568 53.4992 31.7863C53.7046 31.5159 53.8625 31.2136 53.9652 30.8716C54.0679 30.5295 54.1231 30.1875 54.1231 29.8454C54.1231 29.5034 54.0679 29.1693 53.9652 28.8272C53.8625 28.4852 53.7046 28.1909 53.4992 27.9204C53.2939 27.65 53.0332 27.4352 52.7173 27.2682C52.4014 27.1011 52.0302 27.0216 51.588 27.0216C51.1536 27.0216 50.7745 27.1011 50.4586 27.2682C50.1427 27.4352 49.8821 27.65 49.6767 27.9204C49.4714 28.1909 49.3134 28.4932 49.2107 28.8272C49.1081 29.1693 49.0528 29.5034 49.0528 29.8454Z" fill="white"/>
<path d="M57.4639 29.8454C57.4639 29.1534 57.5902 28.517 57.8351 27.9522C58.0799 27.3875 58.4195 26.9022 58.846 26.4966C59.2724 26.0909 59.77 25.7807 60.3544 25.5659C60.9389 25.3432 61.5549 25.2397 62.2104 25.2397C62.8659 25.2397 63.4819 25.3511 64.0664 25.5659C64.6508 25.7886 65.1484 26.0988 65.5748 26.4966C66.0013 26.8943 66.333 27.3875 66.5857 27.9522C66.8306 28.517 66.9569 29.1534 66.9569 29.8454C66.9569 30.5375 66.8306 31.1738 66.5857 31.7466C66.3409 32.3193 66.0013 32.8125 65.5748 33.2182C65.1484 33.6238 64.6508 33.95 64.0664 34.1807C63.4819 34.4113 62.8659 34.5307 62.2104 34.5307C61.5549 34.5307 60.9389 34.4113 60.3544 34.1807C59.77 33.95 59.2724 33.6318 58.846 33.2182C58.4195 32.8125 58.0878 32.3193 57.8351 31.7466C57.5902 31.1738 57.4639 30.5375 57.4639 29.8454ZM59.6831 29.8454C59.6831 30.1875 59.7384 30.5295 59.8411 30.8716C59.9438 31.2136 60.1017 31.5159 60.307 31.7863C60.5124 32.0568 60.773 32.2716 61.0889 32.4466C61.4048 32.6136 61.776 32.7011 62.2183 32.7011C62.6606 32.7011 63.0318 32.6136 63.3477 32.4466C63.6636 32.2795 63.9242 32.0568 64.1295 31.7863C64.3349 31.5159 64.4928 31.2136 64.5955 30.8716C64.6982 30.5295 64.7535 30.1875 64.7535 29.8454C64.7535 29.5034 64.6982 29.1693 64.5955 28.8272C64.4928 28.4932 64.3349 28.1909 64.1295 27.9204C63.9242 27.65 63.6636 27.4352 63.3477 27.2682C63.0318 27.1011 62.6606 27.0216 62.2183 27.0216C61.776 27.0216 61.4048 27.1011 61.0889 27.2682C60.773 27.4352 60.5124 27.65 60.307 27.9204C60.1017 28.1909 59.9438 28.4932 59.8411 28.8272C59.7305 29.1693 59.6831 29.5034 59.6831 29.8454Z" fill="white"/>
<path d="M77.4688 34.2763H75.3996V32.9559H75.3602C75.06 33.465 74.6336 33.8547 74.0965 34.1252C73.5595 34.3956 72.9829 34.5309 72.359 34.5309C71.6956 34.5309 71.0954 34.4036 70.5662 34.157C70.0371 33.9104 69.5948 33.5684 69.2236 33.1468C68.8524 32.7252 68.5681 32.232 68.3707 31.6672C68.1732 31.1025 68.0706 30.49 68.0706 29.8456C68.0706 29.2013 68.1732 28.5968 68.3786 28.032C68.5839 27.4672 68.8761 26.982 69.2473 26.5684C69.6264 26.1547 70.0687 25.8286 70.5899 25.5899C71.1112 25.3513 71.6798 25.232 72.2958 25.232C72.6986 25.232 73.054 25.2797 73.3699 25.3672C73.6858 25.4547 73.9623 25.574 74.1992 25.7093C74.4361 25.8445 74.6415 25.9877 74.8073 26.1468C74.9732 26.3059 75.1153 26.457 75.2259 26.6002H75.2812V20.4434H77.461V34.2763H77.4688ZM70.2898 29.8456C70.2898 30.1877 70.3372 30.5297 70.4478 30.8718C70.5504 31.2138 70.7084 31.5161 70.9137 31.7865C71.1191 32.057 71.3797 32.2718 71.6956 32.4468C72.0115 32.6218 72.3827 32.7013 72.8013 32.7013C73.2041 32.7013 73.5595 32.6218 73.8754 32.4547C74.1913 32.2877 74.4598 32.0729 74.681 31.8024C74.9021 31.532 75.0758 31.2297 75.1864 30.8956C75.3049 30.5615 75.3602 30.2195 75.3602 29.8775C75.3602 29.5354 75.3049 29.1934 75.1864 28.8513C75.0679 28.5093 74.9021 28.207 74.681 27.9365C74.4598 27.6661 74.1913 27.4513 73.8754 27.2763C73.5595 27.1093 73.2041 27.0218 72.8013 27.0218C72.3748 27.0218 72.0115 27.1013 71.6956 27.2684C71.3797 27.4354 71.1191 27.6502 70.9137 27.9206C70.7084 28.1911 70.5504 28.4934 70.4478 28.8275C70.3451 29.1695 70.2898 29.5036 70.2898 29.8456Z" fill="white"/>
<path d="M93.3432 24.3569C93.0036 23.8956 92.5614 23.5535 92.0164 23.3387C91.4715 23.124 90.9344 23.0206 90.4211 23.0206C89.7577 23.0206 89.1495 23.1399 88.6046 23.3865C88.0597 23.6331 87.5937 23.9671 87.1988 24.3967C86.8039 24.8262 86.5038 25.3274 86.2906 25.9001C86.0773 26.4728 85.9747 27.0933 85.9747 27.7694C85.9747 28.4774 86.0773 29.1217 86.2827 29.7103C86.488 30.299 86.7802 30.8001 87.1672 31.2217C87.5463 31.6433 88.0044 31.9694 88.5414 32.2001C89.0706 32.4308 89.6708 32.5501 90.3421 32.5501C91.0292 32.5501 91.6452 32.4149 92.1744 32.1365C92.7035 31.866 93.1379 31.5001 93.4617 31.0467L95.294 32.3433C94.7253 33.0592 94.0303 33.624 93.2011 34.0137C92.3797 34.4115 91.4162 34.6103 90.3105 34.6103C89.3075 34.6103 88.3835 34.4433 87.5384 34.1092C86.6933 33.7751 85.9747 33.3058 85.3665 32.7012C84.7584 32.0967 84.2845 31.3808 83.9528 30.5456C83.6132 29.7103 83.4474 28.7876 83.4474 27.7774C83.4474 26.7433 83.629 25.8046 83.9844 24.9694C84.3398 24.1342 84.8295 23.4262 85.4534 22.8376C86.0773 22.249 86.8118 21.8035 87.6569 21.4853C88.5019 21.1671 89.426 21.0081 90.4211 21.0081C90.8318 21.0081 91.2661 21.0478 91.7084 21.1274C92.1507 21.2069 92.5851 21.3262 92.9957 21.4933C93.4064 21.6603 93.7934 21.8592 94.1567 22.1058C94.52 22.3524 94.828 22.6387 95.0807 22.9808L93.3432 24.3569Z" fill="white"/>
<path d="M104.605 29.9888C104.605 30.0842 104.605 30.1877 104.605 30.2831C104.605 30.3786 104.598 30.482 104.59 30.5774H97.9635C97.9872 30.8956 98.0661 31.182 98.2083 31.4445C98.3505 31.707 98.5321 31.9297 98.7611 32.1206C98.9902 32.3115 99.2508 32.4627 99.543 32.5661C99.8352 32.6774 100.135 32.7331 100.451 32.7331C100.996 32.7331 101.454 32.6297 101.833 32.4308C102.212 32.232 102.52 31.9536 102.757 31.5956L104.211 32.7649C103.35 33.9342 102.102 34.5229 100.467 34.5229C99.7878 34.5229 99.1639 34.4195 98.5953 34.2047C98.0266 33.9899 97.5291 33.6877 97.1184 33.2979C96.6998 32.9081 96.376 32.4308 96.1391 31.8581C95.9022 31.2854 95.7837 30.649 95.7837 29.9252C95.7837 29.2172 95.9022 28.5729 96.1391 27.9922C96.376 27.4115 96.6998 26.9183 97.1105 26.5127C97.5212 26.107 98.0109 25.7888 98.5716 25.5581C99.1323 25.3274 99.7405 25.2161 100.396 25.2161C101.004 25.2161 101.565 25.3195 102.078 25.5183C102.592 25.7172 103.042 26.0195 103.413 26.4172C103.792 26.8149 104.084 27.3081 104.297 27.8967C104.495 28.5092 104.605 29.2013 104.605 29.9888ZM102.426 29.0024C102.426 28.724 102.386 28.4536 102.307 28.199C102.228 27.9445 102.102 27.7138 101.936 27.5229C101.77 27.324 101.549 27.1729 101.288 27.0536C101.028 26.9342 100.72 26.8786 100.372 26.8786C99.7168 26.8786 99.1639 27.0774 98.7138 27.4752C98.2557 27.8729 98.0108 28.382 97.9635 29.0024H102.426Z" fill="white"/>
<path d="M106.256 25.4943H108.325V26.9022H108.365C108.562 26.4647 108.894 26.075 109.376 25.7409C109.857 25.4068 110.418 25.2397 111.074 25.2397C111.642 25.2397 112.132 25.3432 112.535 25.542C112.937 25.7409 113.269 26.0113 113.53 26.3375C113.79 26.6636 113.98 27.0454 114.098 27.475C114.217 27.9045 114.28 28.342 114.28 28.7954V34.2841H112.1V29.4159C112.1 29.1613 112.085 28.8909 112.045 28.6125C112.006 28.3341 111.927 28.0795 111.808 27.8568C111.69 27.6341 111.524 27.4432 111.311 27.3C111.097 27.1568 110.821 27.0772 110.465 27.0772C110.11 27.0772 109.81 27.1488 109.557 27.2841C109.305 27.4193 109.091 27.6022 108.933 27.825C108.767 28.0477 108.649 28.2943 108.562 28.5807C108.475 28.867 108.436 29.1534 108.436 29.4477V34.2761H106.256V25.4943Z" fill="white"/>
<path d="M115.481 27.2443V25.4864H117.005V22.9409H119.145V25.4864H121.325V27.2443H119.145V31.325C119.145 31.7148 119.216 32.0409 119.35 32.2955C119.493 32.55 119.801 32.6773 120.282 32.6773C120.425 32.6773 120.583 32.6614 120.756 32.6296C120.922 32.5977 121.08 32.55 121.206 32.4943L121.278 34.2125C121.08 34.2841 120.851 34.3398 120.59 34.3875C120.322 34.4273 120.069 34.4511 119.824 34.4511C119.24 34.4511 118.774 34.3716 118.411 34.2046C118.047 34.0375 117.763 33.8148 117.55 33.5284C117.337 33.2421 117.194 32.9159 117.115 32.5421C117.036 32.1682 116.997 31.7705 116.997 31.3409V27.2443H115.481Z" fill="white"/>
<path d="M131.142 29.9888C131.142 30.0842 131.142 30.1877 131.142 30.2831C131.142 30.3786 131.134 30.482 131.126 30.5774H124.492C124.516 30.8956 124.595 31.182 124.737 31.4445C124.879 31.707 125.061 31.9297 125.29 32.1206C125.519 32.3115 125.779 32.4627 126.072 32.5661C126.364 32.6774 126.664 32.7331 126.98 32.7331C127.525 32.7331 127.983 32.6297 128.362 32.4308C128.733 32.232 129.049 31.9536 129.286 31.5956L130.739 32.7649C129.878 33.9342 128.63 34.5229 126.996 34.5229C126.316 34.5229 125.692 34.4195 125.124 34.2047C124.555 33.9899 124.058 33.6877 123.639 33.2979C123.22 32.9081 122.897 32.4308 122.66 31.8581C122.423 31.2854 122.304 30.649 122.304 29.9252C122.304 29.2172 122.423 28.5729 122.66 27.9922C122.897 27.4115 123.22 26.9183 123.631 26.5127C124.042 26.107 124.531 25.7888 125.092 25.5581C125.653 25.3274 126.261 25.2161 126.917 25.2161C127.525 25.2161 128.085 25.3195 128.599 25.5183C129.112 25.7172 129.554 26.0195 129.934 26.4172C130.305 26.8149 130.605 27.3081 130.818 27.8967C131.039 28.5092 131.142 29.2013 131.142 29.9888ZM128.962 29.0024C128.962 28.724 128.923 28.4536 128.844 28.199C128.765 27.9445 128.638 27.7138 128.472 27.5229C128.307 27.332 128.085 27.1729 127.825 27.0536C127.564 26.9342 127.256 26.8786 126.909 26.8786C126.253 26.8786 125.7 27.0774 125.25 27.4752C124.792 27.8729 124.547 28.382 124.492 29.0024H128.962Z" fill="white"/>
<path d="M133.156 25.4943H135.249V26.9579H135.288C135.533 26.4488 135.873 26.0272 136.307 25.717C136.741 25.3988 137.255 25.2397 137.831 25.2397C137.918 25.2397 138.005 25.2397 138.108 25.2477C138.202 25.2557 138.289 25.2716 138.36 25.2954V27.3079C138.218 27.2682 138.092 27.2443 137.989 27.2363C137.887 27.2204 137.784 27.2204 137.689 27.2204C137.191 27.2204 136.797 27.3079 136.489 27.4909C136.188 27.6738 135.952 27.8966 135.778 28.1511C135.612 28.4057 135.493 28.6682 135.43 28.9386C135.367 29.2091 135.343 29.4238 135.343 29.575V34.2761H133.164V25.4943H133.156Z" fill="white"/>
<path d="M1.56372 27.4114C2.40878 29.5034 3.83037 31.333 5.76531 32.6216C5.8048 32.6455 5.84429 32.6773 5.88378 32.7011C7.71605 33.8864 9.9906 34.6023 12.6679 34.6023C12.7706 34.6023 12.8654 34.5943 12.968 34.5864C13.0628 34.5943 13.1655 34.6023 13.2682 34.6023C15.9455 34.6023 18.22 33.8943 20.0523 32.7011C20.0918 32.6773 20.1313 32.6455 20.1708 32.6216C22.1057 31.333 23.5194 29.5034 24.3724 27.4114H1.56372Z" fill="#FC1921"/>
<path d="M24.5619 26.8785C25.0279 25.5501 25.2727 24.1262 25.2727 22.6785C25.2727 22.4001 25.2648 22.1217 25.2411 21.8433H0.679175C0.663379 22.1217 0.647583 22.4001 0.647583 22.6785C0.647583 24.1262 0.892412 25.5501 1.35838 26.8785H24.5619Z" fill="#FC1921"/>
<path d="M23.5115 16.45H2.4088C1.56375 17.8261 0.987213 19.3852 0.758179 21.0556H25.1622C24.9331 19.3852 24.3566 17.8261 23.5115 16.45Z" fill="#FC1921"/>
<path d="M20.005 11.0569H5.91544L3.63299 14.5092L3.17493 15.233H22.7455L20.005 11.0569Z" fill="#FC1921"/>
<path d="M22.2873 14.5092L20.0049 11.0569L22.7454 15.233L22.2873 14.5092Z" fill="#FC1921"/>
<path d="M16.443 5.66357H9.47724L7.00525 9.41016H18.915L16.443 5.66357Z" fill="#FC1921"/>
<path d="M12.9601 0.397705L10.8514 3.58748H15.0688L12.9601 0.397705Z" fill="#FC1921"/>
</svg>
