<svg width="142" height="31" viewBox="0 0 142 31" fill="none" xmlns="http://www.w3.org/2000/svg">
<g clip-path="url(#clip0_2440_20192)">
<path d="M34.6875 0.897461H37.7562L43.7281 10.8419V0.897461H46.008V14.1867H43.1049L37.0147 3.92404V14.1867H34.7269L34.6875 0.897461Z" fill="white"/>
<path d="M56.9499 9.79756V10.0912C56.958 10.1917 56.958 10.2926 56.9499 10.3931H50.3153C50.3339 10.7043 50.4173 11.0076 50.5599 11.2823C50.6962 11.5524 50.884 11.7911 51.1121 11.9839C51.3504 12.1778 51.6166 12.332 51.901 12.4407C52.1905 12.5555 52.4982 12.6136 52.8082 12.612C53.2835 12.6268 53.7549 12.5203 54.1809 12.302C54.5475 12.1074 54.866 11.8283 55.1118 11.4862L56.5633 12.6855C56.1318 13.2811 55.5647 13.7574 54.9123 14.0719C54.26 14.3864 53.5427 14.5295 52.824 14.4883C52.1868 14.497 51.5534 14.3865 50.9543 14.162C50.4076 13.9568 49.906 13.6406 49.4791 13.232C49.0504 12.8199 48.7139 12.316 48.493 11.7555C48.2544 11.127 48.1365 10.4564 48.1459 9.78124C48.1386 9.10364 48.2564 8.43082 48.493 7.79887C48.7127 7.22977 49.0429 6.71333 49.4633 6.28151C49.8821 5.85428 50.3816 5.52102 50.9307 5.30256C51.5066 5.0572 52.1223 4.92709 52.7451 4.91914C53.3166 4.91102 53.8843 5.01626 54.4176 5.22914C54.9274 5.43245 55.384 5.75657 55.7508 6.17545C56.1447 6.61176 56.4457 7.12869 56.6343 7.69282C56.8543 8.37079 56.961 9.08254 56.9499 9.79756ZM54.7726 8.77782C54.7729 8.50129 54.733 8.22629 54.6542 7.96203C54.58 7.70614 54.4536 7.46968 54.2834 7.26861C54.1062 7.06272 53.8883 6.89858 53.6444 6.7873C53.3588 6.66748 53.0533 6.60652 52.7451 6.60782C52.14 6.59227 51.5504 6.8071 51.0884 7.21151C50.8596 7.40217 50.6713 7.63976 50.5355 7.90932C50.3998 8.17889 50.3194 8.47459 50.2996 8.77782H54.7726Z" fill="white"/>
<path d="M57.731 5.18018H60.0976L61.9121 11.6331L63.7896 5.18018H66.1563L68.0417 11.6331L69.8956 5.18018H72.1597L69.1462 14.1539H66.9452L64.9651 7.84781L63.0007 14.1865H60.7603L57.731 5.18018Z" fill="white"/>
<path d="M80.6875 8.4272L75.8595 0.897461H78.6522L81.8866 6.49378L85.1447 0.897461H87.7954L82.9674 8.4272V14.1867H80.6875V8.4272Z" fill="white"/>
<path d="M86.4701 9.64259C86.4613 8.9749 86.5904 8.31295 86.8488 7.70101C87.0804 7.12811 87.4211 6.6093 87.8507 6.17548C88.2892 5.76042 88.8007 5.43639 89.3575 5.22101C90.5531 4.77496 91.8618 4.77496 93.0574 5.22101C93.617 5.42812 94.1293 5.75236 94.5623 6.17345C94.9953 6.59455 95.3397 7.10345 95.5739 7.66838C96.068 8.91517 96.068 10.3129 95.5739 11.5597C95.3376 12.1411 94.9917 12.6681 94.5563 13.1097C94.1216 13.5359 93.6094 13.8686 93.0495 14.0886C91.8596 14.5671 90.5395 14.5671 89.3496 14.0886C88.792 13.8638 88.2807 13.5316 87.8428 13.1097C87.3997 12.657 87.0492 12.1168 86.812 11.5211C86.5748 10.9255 86.4559 10.2867 86.4622 9.64259H86.4701ZM88.6869 9.64259C88.6852 9.99981 88.7385 10.355 88.8447 10.695C88.9408 11.0338 89.0958 11.3518 89.3022 11.6331C89.5158 11.9141 89.7847 12.1449 90.0911 12.3102C90.4425 12.4823 90.8265 12.5715 91.2153 12.5715C91.6041 12.5715 91.9881 12.4823 92.3395 12.3102C92.6459 12.1449 92.9148 11.9141 93.1284 11.6331C93.3373 11.3522 93.495 11.0343 93.5938 10.695C93.6937 10.3537 93.7442 9.9991 93.7437 9.64259C93.7448 9.29138 93.6942 8.94204 93.5938 8.60653C93.4966 8.26901 93.3387 7.95348 93.1284 7.67653C92.9167 7.39577 92.6472 7.16726 92.3395 7.00759C91.9866 6.84093 91.6032 6.75467 91.2153 6.75467C90.8274 6.75467 90.444 6.84093 90.0911 7.00759C89.7834 7.16726 89.5139 7.39577 89.3022 7.67653C89.0944 7.95391 88.9391 8.26946 88.8447 8.60653C88.7384 8.94083 88.6851 9.2907 88.6869 9.64259Z" fill="white"/>
<path d="M97.9563 5.18014H100.078V6.68119C100.307 6.17196 100.657 5.73123 101.096 5.4004C101.542 5.07797 102.075 4.90951 102.619 4.91909H102.895C102.98 4.91841 103.066 4.93219 103.147 4.95988V7.02383L102.776 6.95041H102.477C102.06 6.92929 101.646 7.02514 101.277 7.22777C101.012 7.38617 100.782 7.60003 100.601 7.85569C100.421 8.11134 100.294 8.40317 100.228 8.71251C100.173 8.92854 100.142 9.15012 100.134 9.3733V14.1946H97.9563V5.18014Z" fill="white"/>
<path d="M104.512 0H106.689V8.97368H106.737L110.042 5.18842H112.835L109.064 9.26737L113.071 14.2029H110.184L106.737 9.58553H106.689V14.2029H104.512V0Z" fill="white"/>
<path d="M34.6875 17.2131H39.6969C40.1806 17.2159 40.6623 17.2761 41.1327 17.3926C41.585 17.5058 42.013 17.705 42.3949 17.98C42.7601 18.2532 43.062 18.6072 43.2785 19.016C43.524 19.4892 43.6438 20.0212 43.6256 20.5579C43.6518 21.233 43.4322 21.8938 43.0102 22.4097C42.5905 22.907 42.0437 23.2718 41.4325 23.4621V23.5029C42.1834 23.5887 42.8855 23.9302 43.4284 24.4737C43.6948 24.7598 43.9021 25.0991 44.0377 25.4707C44.1733 25.8424 44.2344 26.2387 44.2172 26.6355C44.2411 27.2726 44.0965 27.9044 43.7991 28.4629C43.5341 28.9473 43.1574 29.3564 42.7026 29.6539C42.2203 29.9708 41.6853 30.1921 41.1248 30.3066C40.5389 30.437 39.9412 30.5027 39.3419 30.5023H34.6875V17.2131ZM36.9674 22.6218H39.0027C39.6158 22.6659 40.2258 22.4996 40.7382 22.1487C40.9324 22.0003 41.089 21.8056 41.1948 21.5812C41.3005 21.3568 41.3523 21.1093 41.3457 20.8597C41.3683 20.6093 41.3227 20.3574 41.2139 20.1325C41.1052 19.9075 40.9376 19.7186 40.7304 19.5871C40.1303 19.2939 39.4676 19.1647 38.8055 19.2118H36.9674V22.6218ZM36.9674 28.5118H39.0185C39.335 28.5088 39.651 28.487 39.9651 28.4466C40.2908 28.4147 40.61 28.3322 40.9118 28.2018C41.193 28.0642 41.4369 27.8568 41.6218 27.5981C41.8186 27.2861 41.9152 26.9179 41.8979 26.5458C41.9262 26.2604 41.8769 25.9726 41.7557 25.7146C41.6344 25.4567 41.446 25.2388 41.2116 25.0855C40.56 24.7661 39.8407 24.6229 39.121 24.6694H36.9674V28.5118Z" fill="white"/>
<path d="M45.9055 16.3157H48.0828V30.5023H45.9055V16.3157Z" fill="white"/>
<path d="M49.771 25.9583C49.7597 25.2912 49.8861 24.6293 50.1418 24.0167C50.3804 23.4417 50.7292 22.9227 51.1674 22.4912C51.6058 22.0761 52.1174 21.7521 52.6741 21.5367C53.2672 21.3092 53.8955 21.1958 54.528 21.2022C55.158 21.1949 55.7839 21.3084 56.374 21.5367C56.9337 21.7438 57.446 22.0681 57.879 22.4892C58.312 22.9102 58.6563 23.4192 58.8906 23.9841C59.3846 25.2309 59.3846 26.6286 58.8906 27.8754C58.653 28.4445 58.3099 28.96 57.8808 29.3928C57.4461 29.8189 56.9339 30.1517 56.374 30.3717C55.7864 30.612 55.1599 30.7338 54.528 30.7307C53.8937 30.7331 53.2647 30.6113 52.6741 30.3717C52.119 30.1566 51.6079 29.8356 51.1674 29.4254C50.7235 28.9737 50.3729 28.4335 50.137 27.8375C49.901 27.2415 49.7846 26.6022 49.7947 25.9583H49.771ZM51.9799 25.9583C51.9822 26.3152 52.0354 26.6698 52.1377 27.0107C52.2338 27.3495 52.3888 27.6675 52.5952 27.9488C52.8088 28.2298 53.0777 28.4606 53.3841 28.6259C53.7335 28.808 54.1211 28.8977 54.5122 28.887C54.9007 28.8964 55.2854 28.8067 55.6325 28.6259C55.9389 28.4606 56.2078 28.2298 56.4214 27.9488C56.6303 27.6679 56.788 27.35 56.8868 27.0107C56.9891 26.6698 57.0423 26.3152 57.0446 25.9583C57.043 25.6067 56.9898 25.2573 56.8868 24.9222C56.7896 24.5847 56.6317 24.2692 56.4214 23.9922C56.2097 23.7115 55.9402 23.483 55.6325 23.3233C55.2848 23.1453 54.9 23.0585 54.5122 23.0704C54.1205 23.0507 53.7301 23.132 53.3762 23.307C53.0685 23.4666 52.799 23.6952 52.5874 23.9759C52.3787 24.2637 52.226 24.5906 52.1377 24.9386C52.0282 25.2672 51.9671 25.6109 51.9562 25.9583H51.9799Z" fill="white"/>
<path d="M60.3816 25.9583C60.374 25.2916 60.5002 24.6305 60.7523 24.0168C60.9866 23.4518 61.331 22.9429 61.7639 22.5218C62.1969 22.1007 62.7093 21.7765 63.2689 21.5694C64.4645 21.1234 65.7732 21.1234 66.9688 21.5694C67.5239 21.7731 68.0356 22.0862 68.4756 22.4912C68.9017 22.9155 69.2422 23.4229 69.4775 23.9841C69.8545 24.8856 69.9605 25.8834 69.7818 26.848C69.6032 27.8126 69.148 28.6993 68.4756 29.3928C68.0353 29.8315 67.515 30.1754 66.9451 30.4044C65.7552 30.8829 64.4351 30.8829 63.2452 30.4044C62.6853 30.1844 62.1732 29.8516 61.7385 29.4254C61.3093 28.9927 60.9663 28.4772 60.7287 27.9081C60.4856 27.2895 60.3674 26.6259 60.3816 25.9583ZM62.5983 25.9583C62.5978 26.3149 62.6483 26.6695 62.7482 27.0107C62.8471 27.35 63.0048 27.6679 63.2137 27.9489C63.4272 28.2298 63.6962 28.4607 64.0026 28.626C64.3496 28.8068 64.7343 28.8964 65.1228 28.887C65.5139 28.8978 65.9015 28.8081 66.2509 28.626C66.5573 28.4607 66.8262 28.2298 67.0398 27.9489C67.2462 27.6675 67.4013 27.3496 67.4973 27.0107C67.5997 26.6699 67.6528 26.3152 67.6551 25.9583C67.6535 25.6067 67.6003 25.2574 67.4973 24.9223C67.4029 24.5852 67.2477 24.2697 67.0398 23.9923C66.8281 23.7115 66.5586 23.483 66.2509 23.3233C65.9008 23.1441 65.5132 23.0572 65.1228 23.0704C64.735 23.0585 64.3503 23.1454 64.0026 23.3233C63.6948 23.483 63.4254 23.7115 63.2137 23.9923C63.0015 24.2741 62.8436 24.5953 62.7482 24.9386C62.6494 25.2689 62.5989 25.6126 62.5983 25.9583Z" fill="white"/>
<path d="M80.3563 30.5023H78.2894V29.148C77.9982 29.6698 77.5608 30.0879 77.035 30.3473C76.4957 30.6238 75.9014 30.7663 75.2995 30.7633C74.7049 30.7816 74.1137 30.6638 73.5682 30.4185C73.0227 30.1731 72.5364 29.8061 72.1439 29.3438C71.767 28.9003 71.4775 28.3849 71.2919 27.8265C71.0904 27.2258 70.989 26.5941 70.9921 25.9583C70.9854 25.3336 71.0842 24.7124 71.284 24.1228C71.4798 23.5688 71.7772 23.0592 72.1597 22.6217C72.535 22.1951 72.9916 21.8534 73.5008 21.6183C74.0383 21.3767 74.6188 21.2544 75.2048 21.2594C75.5671 21.2515 75.9285 21.2982 76.2777 21.398C76.5524 21.481 76.817 21.5959 77.0666 21.7407C77.2874 21.8689 77.4938 22.0221 77.6819 22.1975C77.8336 22.3377 77.9711 22.4935 78.0921 22.6625H78.1474V16.3157H80.3563V30.5023ZM73.1931 25.9583C73.1926 26.3148 73.2431 26.6694 73.343 27.0107C73.4419 27.35 73.5996 27.6679 73.8085 27.9488C74.0221 28.2298 74.291 28.4606 74.5974 28.6259C74.9396 28.8041 75.3187 28.8937 75.7018 28.887C76.0741 28.8952 76.4426 28.8083 76.7747 28.6341C77.0781 28.4676 77.3463 28.2402 77.5636 27.9651C77.7915 27.6926 77.9656 27.3767 78.0764 27.0351C78.1853 26.7013 78.2413 26.3514 78.242 25.9991C78.2409 25.6415 78.185 25.2863 78.0764 24.9467C77.9641 24.6034 77.7901 24.2851 77.5636 24.0086C77.3445 23.7332 77.0768 23.5034 76.7747 23.3315C76.4433 23.1544 76.0748 23.0647 75.7018 23.0704C75.3193 23.0611 74.9403 23.1479 74.5974 23.3233C74.2896 23.483 74.0202 23.7115 73.8085 23.9923C73.5981 24.2692 73.4402 24.5847 73.343 24.9223C73.2426 25.2578 73.1921 25.6071 73.1931 25.9583Z" fill="white"/>
<path d="M96.7414 20.3295C96.4055 19.8573 95.9455 19.4949 95.4161 19.2853C94.8728 19.0614 94.2921 18.9505 93.7073 18.9589C93.1226 18.9673 92.5451 19.0949 92.0081 19.3343C91.4784 19.5761 91.0029 19.9289 90.6117 20.3703C90.2102 20.8113 89.9013 21.3335 89.7045 21.904C89.4862 22.5177 89.3766 23.1672 89.3811 23.8211C89.3735 24.4979 89.4775 25.171 89.6887 25.8116C89.8814 26.3836 90.1817 26.9104 90.5723 27.3616C90.9576 27.7909 91.4251 28.1326 91.9449 28.365C92.5123 28.6078 93.1218 28.7272 93.7357 28.7158C94.3716 28.7287 95.0013 28.5862 95.5738 28.2998C96.08 28.0346 96.52 27.6521 96.8597 27.1821L98.6899 28.5119C98.1327 29.2413 97.4199 29.8277 96.6073 30.225C95.7015 30.6508 94.7146 30.8599 93.7199 30.8369C92.7739 30.8475 91.8344 30.6731 90.9509 30.3229C90.1401 30.0042 89.4026 29.5137 88.7858 28.8829C88.1691 28.2521 87.6866 27.495 87.3694 26.66C87.0231 25.757 86.8516 24.7925 86.8645 23.8211C86.8493 22.834 87.0292 21.8541 87.3931 20.9414C87.7341 20.1154 88.2363 19.3711 88.8683 18.755C89.5051 18.1455 90.2535 17.6739 91.0693 17.3682C91.954 17.036 92.8892 16.8702 93.8304 16.8787C94.2616 16.8808 94.6919 16.9218 95.1163 17.0011C95.5565 17.0788 95.9876 17.2046 96.4022 17.3764C96.8122 17.5413 97.2037 17.752 97.5697 18.0045C97.9275 18.2462 98.2424 18.5497 98.5006 18.9019L96.7414 20.3295Z" fill="white"/>
<path d="M107.967 26.1136V26.4072C107.967 26.5133 107.967 26.6112 107.967 26.7091H101.341C101.359 27.0161 101.439 27.3159 101.575 27.5896C101.71 27.8633 101.899 28.1051 102.13 28.2999C102.369 28.4927 102.635 28.6468 102.919 28.7567C103.208 28.8708 103.516 28.9288 103.826 28.928C104.303 28.9428 104.777 28.8364 105.206 28.618C105.573 28.4234 105.891 28.1443 106.137 27.8022L107.581 29.0014C107.151 29.5976 106.586 30.0743 105.935 30.3889C105.284 30.7036 104.567 30.8463 103.849 30.8043C103.212 30.813 102.579 30.7025 101.98 30.478C101.431 30.2711 100.928 29.9551 100.497 29.548C100.07 29.1354 99.7366 28.6315 99.5184 28.0714C99.2732 27.4447 99.1525 26.7733 99.1634 26.0972C99.1548 25.4188 99.2755 24.7452 99.5184 24.1149C99.7381 23.5458 100.068 23.0293 100.489 22.5975C100.905 22.1705 101.402 21.8372 101.948 21.6186C102.53 21.3876 103.148 21.2714 103.77 21.2759C104.345 21.267 104.915 21.3722 105.451 21.5859C105.959 21.7784 106.417 22.0881 106.792 22.4914C107.186 22.9278 107.487 23.4447 107.676 24.0088C107.887 24.6882 107.986 25.3999 107.967 26.1136ZM105.79 25.0938C105.79 24.8173 105.75 24.5423 105.672 24.278C105.594 24.0235 105.468 23.7877 105.301 23.5846C105.121 23.3785 104.9 23.2145 104.654 23.1033C104.363 22.9827 104.052 22.9244 103.739 22.932C103.134 22.9149 102.544 23.1299 102.082 23.5357C101.854 23.7267 101.666 23.9643 101.53 24.2338C101.394 24.5033 101.314 24.7988 101.293 25.102L105.79 25.0938Z" fill="white"/>
<path d="M109.64 21.496H111.715V22.94C111.939 22.4544 112.288 22.0422 112.724 21.7489C113.224 21.3985 113.817 21.2188 114.42 21.235C114.924 21.2164 115.424 21.3227 115.88 21.545C116.269 21.7349 116.612 22.0138 116.882 22.3608C117.143 22.7043 117.336 23.098 117.45 23.5192C117.57 23.96 117.631 24.4156 117.631 24.8734V30.5024H115.454V25.5097C115.454 25.2368 115.436 24.9642 115.399 24.6939C115.366 24.4098 115.286 24.1337 115.162 23.8782C115.043 23.6496 114.872 23.4538 114.665 23.3071C114.411 23.1494 114.117 23.0728 113.821 23.0868C113.506 23.0748 113.193 23.1479 112.914 23.2989C112.669 23.434 112.456 23.6234 112.29 23.8537C112.12 24.0859 111.991 24.3486 111.912 24.6287C111.831 24.9205 111.788 25.2224 111.786 25.526V30.4779H109.608L109.64 21.496Z" fill="white"/>
<path d="M118.862 23.3071V21.496H120.384V18.8855H122.522V21.496H124.7V23.3071H122.522V27.4839C122.509 27.8291 122.582 28.172 122.735 28.4792C122.869 28.7484 123.185 28.8789 123.666 28.8789C123.825 28.878 123.984 28.8616 124.14 28.83C124.296 28.8007 124.45 28.7542 124.597 28.6913L124.668 30.4534C124.442 30.5334 124.21 30.5934 123.974 30.6329C123.713 30.6755 123.449 30.6973 123.185 30.6981C122.7 30.714 122.217 30.6279 121.765 30.4452C121.426 30.2936 121.13 30.0549 120.905 29.7518C120.69 29.4488 120.542 29.1007 120.471 28.7321C120.39 28.3297 120.35 27.9195 120.353 27.5084V23.3071H118.862Z" fill="white"/>
<path d="M134.498 26.1135V26.4071C134.506 26.5076 134.506 26.6085 134.498 26.709H127.879C127.898 27.0202 127.981 27.3235 128.124 27.5982C128.26 27.8683 128.448 28.107 128.676 28.2998C128.914 28.4937 129.18 28.6479 129.465 28.7566C129.754 28.8714 130.062 28.9295 130.372 28.9279C130.847 28.9427 131.319 28.8362 131.745 28.6179C132.111 28.4233 132.43 28.1442 132.675 27.8021L134.127 29.0014C133.695 29.597 133.128 30.0733 132.476 30.3878C131.824 30.7023 131.106 30.8454 130.388 30.8042C129.75 30.8129 129.117 30.7024 128.518 30.4779C127.971 30.2727 127.47 29.9565 127.043 29.5479C126.614 29.1358 126.278 28.6319 126.057 28.0714C125.818 27.4429 125.7 26.7723 125.71 26.0971C125.702 25.4195 125.82 24.7467 126.057 24.1148C126.276 23.5457 126.607 23.0292 127.027 22.5974C127.444 22.1683 127.944 21.8348 128.494 21.6185C129.075 21.386 129.694 21.2698 130.317 21.2758C130.888 21.2677 131.456 21.3729 131.989 21.5858C132.487 21.7807 132.934 22.0904 133.299 22.4914C133.693 22.9277 133.994 23.4446 134.182 24.0087C134.402 24.6867 134.509 25.3984 134.498 26.1135ZM132.32 25.0937C132.321 24.8172 132.281 24.5422 132.202 24.2779C132.128 24.022 132.001 23.7856 131.831 23.5845C131.654 23.3786 131.436 23.2145 131.192 23.1032C130.899 22.983 130.585 22.9248 130.269 22.9319C129.664 22.9163 129.075 23.1312 128.613 23.5356C128.391 23.73 128.21 23.9692 128.081 24.2386C127.952 24.5079 127.878 24.8017 127.863 25.1019L132.32 25.0937Z" fill="white"/>
<path d="M136.517 21.4961H138.6V22.9971C138.825 22.4877 139.172 22.0466 139.61 21.7163C140.058 21.3938 140.594 21.2254 141.14 21.235H141.408C141.494 21.2343 141.579 21.2481 141.661 21.2758V23.3397L141.29 23.2663H140.99C140.576 23.2451 140.164 23.341 139.799 23.5437C139.515 23.71 139.272 23.9417 139.089 24.2208C138.924 24.4675 138.807 24.7444 138.742 25.0366C138.689 25.2528 138.66 25.4744 138.655 25.6974V30.5187H136.478L136.517 21.4961Z" fill="white"/>
<path d="M14.129 15.4265L16.4957 19.5055L16.827 20.101C17.0894 20.6025 17.2302 21.1624 17.2372 21.7326C17.2372 23.617 15.904 24.7591 14.0817 24.7591C13.6711 24.7706 13.2627 24.6929 12.8829 24.5308C12.5032 24.3688 12.1606 24.1262 11.8773 23.8186C11.594 23.511 11.3763 23.1453 11.2382 22.7452C11.1002 22.3452 11.0449 21.9196 11.076 21.496C11.0717 20.8446 11.2528 20.2062 11.5967 19.6605L14.129 15.4265Z" fill="#FC1921"/>
<path d="M27.8793 24.588L27.5006 23.8945L18.5388 8.19874L15.1387 14.0561L20.2823 22.9645L20.4874 23.4295C21.3946 24.7674 20.8108 25.673 19.454 25.518H14.3893H14.0501H8.99329C7.7784 25.6811 7.3524 24.6043 7.95196 23.4377L8.15707 22.9564L18.2943 5.21295C18.6493 5.21295 18.9017 5.1069 18.957 5.00901C19.1305 4.72348 17.9472 3.94032 16.4167 2.96138C14.8863 1.98243 13.4347 1.18296 13.2612 1.47664C13.206 1.56638 13.2612 1.81927 13.4032 2.14559L0.836178 24.123L0.607399 24.5961C0.253946 25.1786 0.0533864 25.8462 0.0254934 26.5332C-0.00239957 27.2203 0.143337 27.9029 0.448336 28.514C0.753334 29.125 1.20706 29.6433 1.76479 30.0177C2.32252 30.3922 2.96498 30.6098 3.62884 30.6493H14.2236H24.8105C25.2867 30.6514 25.7586 30.5564 26.1992 30.3697C26.6399 30.183 27.0406 29.9083 27.3784 29.5612C27.7162 29.2141 27.9845 28.8016 28.1679 28.3472C28.3513 27.8927 28.4463 27.4054 28.4473 26.913C28.4394 26.1023 28.2447 25.3052 27.8793 24.588Z" fill="#FC1921"/>
</g>
<defs>
<clipPath id="clip0_2440_20192">
<rect width="141.708" height="30.8368" fill="white"/>
</clipPath>
</defs>
</svg>
