<svg width="138" height="47" viewBox="0 0 138 47" fill="none" xmlns="http://www.w3.org/2000/svg">
<path d="M41.3608 1.02612H44.4894L50.6523 10.951H50.6915V1.02612H53.0516V14.2801H50.0564L43.7602 4.04196H43.721V14.2801H41.3608V1.02612Z" fill="white"/>
<path d="M63.9819 9.89333C63.9819 9.99516 63.9819 10.097 63.9819 10.191C63.9819 10.2928 63.974 10.3947 63.9662 10.4887H57.1289C57.1524 10.8098 57.2387 11.1075 57.3798 11.3817C57.521 11.648 57.717 11.883 57.9522 12.071C58.1874 12.2668 58.4619 12.4157 58.7598 12.5332C59.0578 12.6428 59.3714 12.6977 59.7007 12.6977C60.2653 12.6977 60.7357 12.5958 61.1278 12.3922C61.512 12.1885 61.8335 11.8987 62.0844 11.5383L63.582 12.7368C62.696 13.9353 61.41 14.5307 59.7243 14.5307C59.0264 14.5307 58.3835 14.421 57.7954 14.2017C57.2073 13.9823 56.6977 13.6768 56.2664 13.2773C55.8352 12.8778 55.498 12.3843 55.2549 11.8047C55.0119 11.225 54.8864 10.567 54.8864 9.83066C54.8864 9.11 55.0119 8.452 55.2549 7.85666C55.498 7.26133 55.8352 6.76 56.2586 6.337C56.682 5.92183 57.1838 5.59283 57.764 5.36566C58.3443 5.1385 58.9715 5.021 59.6458 5.021C60.2731 5.021 60.8455 5.12283 61.3787 5.3265C61.9119 5.53016 62.3666 5.83566 62.7587 6.243C63.1429 6.65033 63.4487 7.15166 63.6682 7.76266C63.8721 8.37366 63.9819 9.0865 63.9819 9.89333ZM61.7315 8.88283C61.7315 8.593 61.6923 8.31883 61.6061 8.06033C61.5277 7.80183 61.3944 7.56683 61.2219 7.371C61.0494 7.17516 60.822 7.01066 60.5554 6.89316C60.2888 6.77566 59.9752 6.713 59.6066 6.713C58.9323 6.713 58.3599 6.91666 57.8895 7.324C57.419 7.73133 57.1603 8.24833 57.1132 8.89066H61.7315V8.88283Z" fill="white"/>
<path d="M67.9729 0.125244V6.43108H68.0278C68.1376 6.28224 68.2866 6.12558 68.4591 5.96108C68.6316 5.79658 68.8433 5.64774 69.0864 5.51458C69.3294 5.37358 69.6117 5.26391 69.941 5.16991C70.2625 5.07591 70.631 5.02891 71.0466 5.02891C71.6817 5.02891 72.2698 5.15424 72.8108 5.39708C73.3518 5.63991 73.8144 5.97674 74.1986 6.39974C74.5828 6.82274 74.8886 7.32408 75.1003 7.89591C75.312 8.46774 75.4218 9.08658 75.4218 9.75241C75.4218 10.4182 75.3199 11.0371 75.116 11.6167C74.9121 12.1964 74.6142 12.7056 74.2378 13.1364C73.8536 13.5672 73.391 13.9119 72.85 14.1626C72.309 14.4211 71.6895 14.5464 71.0074 14.5464C70.3723 14.5464 69.7764 14.4054 69.2196 14.1312C68.6629 13.8571 68.2317 13.4576 67.9181 12.9327H67.8789V14.2801H65.7383V0.125244H67.9729ZM73.1244 9.74458C73.1244 9.39208 73.0695 9.04741 72.9676 8.70274C72.8657 8.35808 72.701 8.05258 72.4893 7.77841C72.2776 7.50424 72.011 7.28491 71.6817 7.11258C71.3602 6.94808 70.976 6.86191 70.5369 6.86191C70.1214 6.86191 69.7528 6.94808 69.4314 7.12041C69.1099 7.29274 68.8276 7.51991 68.6002 7.79408C68.365 8.06824 68.1925 8.38158 68.0749 8.72624C67.9573 9.07874 67.8945 9.42341 67.8945 9.77591C67.8945 10.1284 67.9494 10.4731 68.0749 10.8177C68.1925 11.1624 68.365 11.4679 68.6002 11.7421C68.8354 12.0162 69.1099 12.2356 69.4314 12.4079C69.7528 12.5724 70.1214 12.6586 70.5369 12.6586C70.976 12.6586 71.3524 12.5724 71.6817 12.4001C72.0032 12.2277 72.2776 12.0006 72.4893 11.7264C72.701 11.4522 72.8657 11.1389 72.9676 10.7864C73.0695 10.4496 73.1244 10.0971 73.1244 9.74458Z" fill="white"/>
<path d="M77.1154 5.28733H79.2717V6.7835H79.3109C79.5618 6.25866 79.9068 5.83566 80.3616 5.50666C80.8085 5.1855 81.3338 5.021 81.9376 5.021C82.0238 5.021 82.1179 5.021 82.2199 5.02883C82.3218 5.03666 82.408 5.05233 82.4786 5.07583V7.136C82.3296 7.09683 82.2042 7.07333 82.0944 7.05766C81.9846 7.042 81.8827 7.042 81.7886 7.042C81.2789 7.042 80.8634 7.136 80.5497 7.324C80.2361 7.512 79.993 7.73916 79.8205 7.99766C79.648 8.25616 79.5304 8.53033 79.4677 8.8045C79.405 9.07866 79.3736 9.298 79.3736 9.4625V14.2722H77.1233V5.28733H77.1154Z" fill="white"/>
<path d="M88.8062 13.1363H88.7513C88.5239 13.5358 88.1632 13.8648 87.6614 14.1155C87.1596 14.374 86.5951 14.4993 85.9599 14.4993C85.5993 14.4993 85.2229 14.4523 84.823 14.3583C84.431 14.2643 84.0624 14.1077 83.7331 13.8883C83.4038 13.669 83.1294 13.3792 82.9098 13.0267C82.6903 12.6742 82.5805 12.2277 82.5805 11.7028C82.5805 11.0292 82.7687 10.4887 83.1529 10.0892C83.5371 9.68966 84.0232 9.38416 84.627 9.17266C85.2229 8.96116 85.8894 8.82016 86.6264 8.74966C87.3556 8.67916 88.0691 8.64783 88.7748 8.64783V8.42066C88.7748 7.85666 88.571 7.4415 88.1632 7.17516C87.7555 6.90883 87.2772 6.77566 86.7127 6.77566C86.2344 6.77566 85.7796 6.8775 85.3484 7.07333C84.9093 7.26916 84.5486 7.51983 84.2585 7.80183L83.098 6.43883C83.6077 5.961 84.2036 5.6085 84.8701 5.3735C85.5365 5.1385 86.2187 5.021 86.9008 5.021C87.7006 5.021 88.3593 5.13066 88.8768 5.35783C89.3943 5.585 89.802 5.87483 90.1078 6.23516C90.4057 6.5955 90.6174 7.00283 90.7351 7.44933C90.8527 7.89583 90.9154 8.35016 90.9154 8.79666V14.2643H88.814V13.1363H88.8062ZM88.7748 10.1753H88.2652C87.9045 10.1753 87.5203 10.191 87.1204 10.2223C86.7205 10.2537 86.352 10.3242 86.0148 10.426C85.6777 10.5357 85.3954 10.6845 85.1759 10.8725C84.9485 11.0683 84.8387 11.3347 84.8387 11.6715C84.8387 11.883 84.8857 12.0632 84.9798 12.2042C85.0739 12.3452 85.1915 12.4627 85.3484 12.5488C85.4973 12.635 85.6698 12.6977 85.858 12.7368C86.0462 12.776 86.2344 12.7917 86.4226 12.7917C87.1988 12.7917 87.7869 12.588 88.1868 12.1728C88.5866 11.7577 88.7827 11.2015 88.7827 10.4887V10.1753H88.7748Z" fill="white"/>
<path d="M97.9958 7.68433C97.7919 7.42583 97.5175 7.19083 97.1725 7.00283C96.8196 6.807 96.4433 6.713 96.0277 6.713C95.667 6.713 95.3377 6.79133 95.0319 6.94016C94.7339 7.089 94.585 7.33966 94.585 7.69216C94.585 8.04466 94.7496 8.2875 95.0789 8.4285C95.4083 8.5695 95.8944 8.71833 96.5295 8.86716C96.8667 8.9455 97.2038 9.0395 97.5488 9.16483C97.8938 9.29016 98.2075 9.45466 98.4819 9.65833C98.7563 9.862 98.9916 10.1205 99.1641 10.426C99.3366 10.7315 99.4228 11.0997 99.4228 11.5383C99.4228 12.0867 99.3209 12.5488 99.117 12.9327C98.9131 13.3165 98.6387 13.622 98.2937 13.857C97.9487 14.092 97.5488 14.2643 97.0941 14.374C96.6393 14.4837 96.1688 14.5307 95.6748 14.5307C94.977 14.5307 94.2948 14.4053 93.6362 14.1468C92.9776 13.8883 92.4209 13.528 91.9896 13.0502L93.4716 11.6637C93.7225 11.9848 94.0439 12.259 94.4438 12.4705C94.8437 12.682 95.2828 12.7917 95.7768 12.7917C95.9414 12.7917 96.1061 12.776 96.2708 12.7368C96.4433 12.6977 96.5922 12.6428 96.7412 12.5567C96.8824 12.4783 97 12.3687 97.0862 12.2277C97.1725 12.0867 97.2195 11.9222 97.2195 11.7185C97.2195 11.3425 97.047 11.0762 96.702 10.9117C96.357 10.7472 95.8395 10.5905 95.1573 10.426C94.8202 10.3477 94.4909 10.2537 94.1772 10.1362C93.8558 10.0187 93.5735 9.862 93.3226 9.66616C93.0717 9.47033 92.8756 9.23533 92.7267 8.9455C92.5777 8.65566 92.4993 8.30316 92.4993 7.88016C92.4993 7.37883 92.6012 6.948 92.8051 6.58766C93.0089 6.22733 93.2834 5.92966 93.6205 5.7025C93.9577 5.4675 94.3419 5.303 94.7653 5.1855C95.1887 5.07583 95.6278 5.021 96.0747 5.021C96.7255 5.021 97.3606 5.13066 97.9801 5.35783C98.5995 5.585 99.0856 5.92183 99.4542 6.384L97.9958 7.68433Z" fill="white"/>
<path d="M100.952 0.125244H103.202V9.07091H103.257L106.668 5.28741H109.553L105.656 9.35291L109.796 14.2801H106.817L103.257 9.67408H103.202V14.2801H100.952V0.125244Z" fill="white"/>
<path d="M116.093 13.1363H116.038C115.81 13.5358 115.45 13.8648 114.948 14.1155C114.446 14.374 113.881 14.4993 113.246 14.4993C112.886 14.4993 112.509 14.4523 112.109 14.3583C111.717 14.2643 111.349 14.1077 111.019 13.8883C110.69 13.669 110.416 13.3792 110.196 13.0267C109.977 12.6742 109.867 12.2277 109.867 11.7028C109.867 11.0292 110.055 10.4887 110.439 10.0892C110.823 9.68966 111.31 9.38416 111.913 9.17266C112.509 8.96116 113.176 8.82016 113.913 8.74966C114.642 8.67916 115.356 8.64783 116.061 8.64783V8.42066C116.061 7.85666 115.857 7.4415 115.45 7.17516C115.042 6.90883 114.564 6.77566 113.999 6.77566C113.521 6.77566 113.066 6.8775 112.635 7.07333C112.196 7.26916 111.835 7.51983 111.545 7.80183L110.384 6.43883C110.894 5.961 111.49 5.6085 112.156 5.3735C112.823 5.1385 113.505 5.021 114.187 5.021C114.987 5.021 115.646 5.13066 116.163 5.35783C116.681 5.585 117.088 5.87483 117.394 6.23516C117.692 6.5955 117.904 7.00283 118.021 7.44933C118.139 7.89583 118.202 8.35016 118.202 8.79666V14.2643H116.1V13.1363H116.093ZM116.061 10.1753H115.552C115.191 10.1753 114.807 10.191 114.407 10.2223C114.007 10.2537 113.638 10.3242 113.301 10.426C112.964 10.5357 112.682 10.6845 112.462 10.8725C112.235 11.0683 112.125 11.3347 112.125 11.6715C112.125 11.883 112.172 12.0632 112.266 12.2042C112.36 12.3452 112.478 12.4627 112.635 12.5488C112.784 12.635 112.956 12.6977 113.144 12.7368C113.333 12.776 113.521 12.7917 113.709 12.7917C114.485 12.7917 115.073 12.588 115.473 12.1728C115.873 11.7577 116.069 11.2015 116.069 10.4887V10.1753H116.061Z" fill="white"/>
<path d="M50.9346 19.5441C50.5818 19.0662 50.127 18.7216 49.5703 18.5022C49.0057 18.2829 48.4569 18.1732 47.9237 18.1732C47.2337 18.1732 46.6143 18.2986 46.0497 18.5492C45.4852 18.7999 45.0069 19.1446 44.5991 19.5754C44.1914 20.0141 43.8778 20.5232 43.6582 21.1107C43.4387 21.6982 43.3289 22.3327 43.3289 23.0221C43.3289 23.7427 43.4308 24.4086 43.6504 25.0039C43.8621 25.5992 44.1679 26.1162 44.5599 26.5471C44.952 26.9779 45.4224 27.3147 45.9713 27.5497C46.5202 27.7847 47.1396 27.9022 47.8296 27.9022C48.5431 27.9022 49.1704 27.7612 49.7193 27.4792C50.2681 27.1972 50.7151 26.8291 51.0522 26.3669L52.9419 27.6986C52.3538 28.4349 51.6324 29.0067 50.7856 29.4141C49.9388 29.8214 48.943 30.0251 47.8061 30.0251C46.7711 30.0251 45.8145 29.8527 44.9441 29.5081C44.0738 29.1634 43.3289 28.6856 42.7016 28.0667C42.0744 27.4479 41.5882 26.7116 41.2432 25.8577C40.8904 25.0039 40.7179 24.0561 40.7179 23.0221C40.7179 21.9646 40.8982 21.0011 41.2668 20.1472C41.6353 19.2934 42.1449 18.5649 42.7879 17.9696C43.4308 17.3742 44.1914 16.9121 45.0618 16.5831C45.9321 16.2619 46.8887 16.0974 47.908 16.0974C48.3314 16.0974 48.7784 16.1366 49.241 16.2227C49.7036 16.3011 50.1427 16.4264 50.5739 16.5987C50.9973 16.7711 51.3972 16.9747 51.7736 17.2254C52.1499 17.4761 52.4636 17.7737 52.7302 18.1262L50.9346 19.5441Z" fill="white"/>
<path d="M53.0752 25.1605C53.0752 24.4477 53.2006 23.8053 53.4594 23.2257C53.7181 22.646 54.0631 22.1525 54.5022 21.7373C54.9413 21.3222 55.4588 21.0088 56.0547 20.7817C56.6506 20.5545 57.2936 20.4448 57.9679 20.4448C58.6422 20.4448 59.2774 20.5545 59.8811 20.7817C60.477 21.0088 61.0024 21.3222 61.4336 21.7373C61.8727 22.1525 62.2177 22.646 62.4764 23.2257C62.7352 23.8053 62.8606 24.4555 62.8606 25.1605C62.8606 25.8655 62.7352 26.5235 62.4764 27.1032C62.2177 27.6907 61.8727 28.192 61.4336 28.6072C60.9945 29.0223 60.477 29.3513 59.8811 29.5863C59.2852 29.8213 58.6422 29.9388 57.9679 29.9388C57.2936 29.9388 56.6585 29.8213 56.0547 29.5863C55.451 29.3513 54.9335 29.0223 54.5022 28.6072C54.0631 28.192 53.7181 27.6907 53.4594 27.1032C53.2006 26.5235 53.0752 25.8733 53.0752 25.1605ZM55.3647 25.1605C55.3647 25.513 55.4196 25.8577 55.5216 26.2102C55.6235 26.5627 55.7881 26.876 55.9999 27.1502C56.2116 27.4243 56.4781 27.6515 56.8075 27.8238C57.1289 27.9962 57.521 28.0823 57.9679 28.0823C58.4149 28.0823 58.8069 27.9962 59.1284 27.8238C59.4499 27.6515 59.7243 27.4243 59.936 27.1502C60.1477 26.876 60.3045 26.5627 60.4143 26.2102C60.5241 25.8577 60.5711 25.513 60.5711 25.1605C60.5711 24.808 60.5162 24.4633 60.4143 24.1187C60.3045 23.774 60.1477 23.4685 59.936 23.1943C59.7243 22.9202 59.4577 22.7008 59.1284 22.5285C58.8069 22.364 58.4149 22.2778 57.9679 22.2778C57.521 22.2778 57.1289 22.364 56.8075 22.5285C56.486 22.693 56.2116 22.9202 55.9999 23.1943C55.7881 23.4685 55.6235 23.774 55.5216 24.1187C55.4118 24.4712 55.3647 24.8158 55.3647 25.1605Z" fill="white"/>
<path d="M75.2963 20.4448C75.8844 20.4448 76.3862 20.5467 76.8018 20.7503C77.2173 20.954 77.5623 21.2282 77.8289 21.565C78.0955 21.9018 78.2915 22.2857 78.417 22.7243C78.5424 23.163 78.6052 23.6095 78.6052 24.0717V29.6882H76.3548V24.7062C76.3548 24.4477 76.3391 24.1657 76.2999 23.8837C76.2607 23.6017 76.1823 23.3353 76.0569 23.1082C75.9314 22.881 75.7589 22.6852 75.5394 22.5363C75.3198 22.3875 75.0297 22.3092 74.669 22.3092C74.3162 22.3092 74.0182 22.3875 73.7673 22.5363C73.5164 22.6852 73.3126 22.881 73.1479 23.116C72.9832 23.351 72.8656 23.6173 72.795 23.915C72.7166 24.2048 72.6853 24.5025 72.6853 24.7845V29.6882H70.4349V24.2597C70.4349 23.6957 70.3016 23.2335 70.0351 22.8653C69.7685 22.4972 69.3451 22.3092 68.7727 22.3092C68.4355 22.3092 68.1454 22.3797 67.8945 22.5285C67.6436 22.6695 67.4397 22.8575 67.2829 23.0768C67.1261 23.304 67.0085 23.5625 66.9301 23.8523C66.8516 24.1422 66.8046 24.4398 66.8046 24.7453V29.6882H64.5543V20.7112H66.6948V22.1525H66.734C66.836 21.9253 66.9693 21.7138 67.1339 21.518C67.3064 21.3222 67.5024 21.1342 67.7298 20.9775C67.9651 20.813 68.2238 20.6877 68.5296 20.5937C68.8276 20.4997 69.1569 20.4527 69.5254 20.4527C70.2232 20.4527 70.8035 20.6093 71.2661 20.9227C71.7287 21.236 72.0815 21.6433 72.3324 22.1603C72.6304 21.612 73.0303 21.189 73.5321 20.8992C74.0418 20.5937 74.622 20.4448 75.2963 20.4448Z" fill="white"/>
<path d="M91.5113 20.4448C92.0993 20.4448 92.6012 20.5467 93.0167 20.7503C93.4323 20.954 93.7773 21.2282 94.0439 21.565C94.3105 21.9018 94.5065 22.2857 94.632 22.7243C94.7574 23.163 94.8201 23.6095 94.8201 24.0717V29.6882H92.5698V24.7062C92.5698 24.4477 92.5541 24.1657 92.5149 23.8837C92.4757 23.6017 92.3973 23.3353 92.2718 23.1082C92.1464 22.881 91.9739 22.6852 91.7543 22.5363C91.5348 22.3875 91.2447 22.3092 90.884 22.3092C90.5312 22.3092 90.2332 22.3875 89.9823 22.5363C89.7314 22.6852 89.5275 22.881 89.3629 23.116C89.1982 23.351 89.0806 23.6173 89.01 23.915C88.9316 24.2048 88.9003 24.5025 88.9003 24.7845V29.6882H86.6499V24.2597C86.6499 23.6957 86.5166 23.2335 86.25 22.8653C85.9834 22.4972 85.56 22.3092 84.9876 22.3092C84.6505 22.3092 84.3604 22.3797 84.1094 22.5285C83.8585 22.6773 83.6547 22.8575 83.4979 23.0768C83.341 23.304 83.2234 23.5625 83.145 23.8523C83.0666 24.1422 83.0196 24.4398 83.0196 24.7453V29.6882H80.7692V20.7112H82.9098V22.1525H82.949C83.0509 21.9253 83.1842 21.7138 83.3489 21.518C83.5214 21.3222 83.7174 21.1342 83.9448 20.9775C84.1722 20.8208 84.4388 20.6877 84.7446 20.5937C85.0425 20.4997 85.3718 20.4527 85.7404 20.4527C86.4382 20.4527 87.0184 20.6093 87.481 20.9227C87.9437 21.236 88.2965 21.6433 88.5474 22.1603C88.8454 21.612 89.2453 21.189 89.7471 20.8992C90.2489 20.5937 90.837 20.4448 91.5113 20.4448Z" fill="white"/>
<path d="M105.186 29.696H103.053V28.2547H103.014C102.81 28.7012 102.465 29.1007 101.971 29.4453C101.477 29.79 100.897 29.9623 100.215 29.9623C99.6266 29.9623 99.1248 29.8605 98.7093 29.6568C98.2937 29.4532 97.9487 29.179 97.6743 28.8422C97.4077 28.5053 97.2117 28.1215 97.0862 27.6828C96.9607 27.2442 96.898 26.7977 96.898 26.3355V20.719H99.1483V25.701C99.1483 25.9595 99.164 26.2415 99.2032 26.5235C99.2424 26.8133 99.3208 27.0718 99.4463 27.299C99.5718 27.534 99.7443 27.722 99.9638 27.8708C100.183 28.0197 100.473 28.098 100.834 28.098C101.187 28.098 101.493 28.0275 101.759 27.8787C102.026 27.7377 102.246 27.5497 102.418 27.3303C102.59 27.1032 102.716 26.8447 102.802 26.5548C102.888 26.265 102.936 25.9673 102.936 25.6618V20.719H105.186V29.696Z" fill="white"/>
<path d="M107.42 20.7112H109.561V22.1525H109.6C109.796 21.706 110.149 21.3065 110.643 20.9618C111.137 20.6172 111.717 20.4448 112.392 20.4448C112.98 20.4448 113.481 20.5467 113.897 20.7503C114.313 20.954 114.658 21.2282 114.924 21.565C115.191 21.9018 115.387 22.2857 115.512 22.7243C115.638 23.163 115.7 23.6095 115.7 24.0717V29.6882H113.45V24.7062C113.45 24.4477 113.434 24.1657 113.395 23.8837C113.356 23.5938 113.278 23.3353 113.152 23.1082C113.027 22.881 112.854 22.6852 112.635 22.5363C112.415 22.3875 112.125 22.3092 111.764 22.3092C111.404 22.3092 111.09 22.3797 110.831 22.5285C110.573 22.6695 110.353 22.8575 110.18 23.0768C110.008 23.2962 109.883 23.5625 109.796 23.8523C109.71 24.1422 109.663 24.4398 109.663 24.7453V29.6882H107.42V20.7112Z" fill="white"/>
<path d="M117.574 17.6562C117.574 17.2958 117.708 16.9825 117.974 16.7083C118.241 16.442 118.586 16.3088 118.994 16.3088C119.401 16.3088 119.754 16.4342 120.037 16.6927C120.319 16.9512 120.46 17.2723 120.46 17.6562C120.46 18.04 120.319 18.3612 120.037 18.6197C119.754 18.8782 119.409 19.0035 118.994 19.0035C118.578 19.0035 118.241 18.8703 117.974 18.604C117.708 18.3377 117.574 18.0165 117.574 17.6562ZM117.896 20.7112H120.146V29.696H117.896V20.7112Z" fill="white"/>
<path d="M121.119 22.5051V20.7113H122.695V18.1106H124.906V20.7113H127.156V22.5051H124.906V26.6803C124.906 27.0798 124.976 27.4088 125.117 27.6751C125.259 27.9336 125.58 28.0668 126.082 28.0668C126.231 28.0668 126.396 28.0511 126.568 28.0198C126.741 27.9884 126.897 27.9414 127.038 27.8788L127.117 29.6413C126.913 29.7196 126.678 29.7744 126.403 29.8214C126.129 29.8684 125.862 29.8841 125.619 29.8841C125.023 29.8841 124.529 29.7979 124.161 29.6334C123.792 29.4689 123.487 29.2339 123.267 28.9441C123.047 28.6543 122.898 28.3174 122.82 27.9336C122.742 27.5498 122.695 27.1424 122.695 26.7038V22.5129H121.119V22.5051Z" fill="white"/>
<path d="M127.619 20.7112H130.112L132.621 27.2442H132.66L134.887 20.7112H137.232L132.982 31.623C132.817 32.0382 132.645 32.3985 132.456 32.7197C132.268 33.0409 132.041 33.3072 131.782 33.5265C131.523 33.7459 131.21 33.9104 130.857 34.02C130.504 34.1297 130.073 34.1924 129.571 34.1924C129.383 34.1924 129.195 34.1845 128.999 34.161C128.803 34.1454 128.607 34.1062 128.411 34.0592L128.599 32.1087C128.748 32.1557 128.897 32.1948 129.038 32.2105C129.179 32.2262 129.312 32.2419 129.438 32.2419C129.673 32.2419 129.877 32.2105 130.034 32.1557C130.198 32.1009 130.332 32.0147 130.449 31.8972C130.559 31.7797 130.661 31.6309 130.747 31.4585C130.833 31.2862 130.928 31.0747 131.029 30.8397L131.476 29.696L127.619 20.7112Z" fill="white"/>
<path d="M41.3608 32.9548H46.5358C47.0377 32.9548 47.5316 33.0175 48.0178 33.135C48.5039 33.2525 48.9352 33.4483 49.3194 33.7147C49.6957 33.981 50.0094 34.3335 50.2446 34.7565C50.4798 35.1795 50.5974 35.6887 50.5974 36.2918C50.5974 37.0438 50.3857 37.6548 49.9623 38.1483C49.5389 38.634 48.9822 38.9865 48.2922 39.198V39.2372C49.1312 39.3468 49.8133 39.6758 50.3544 40.2085C50.8954 40.7412 51.162 41.4618 51.162 42.3627C51.162 43.0833 51.0208 43.6943 50.7307 44.1878C50.4406 44.6813 50.0642 45.0808 49.5938 45.3785C49.1233 45.6762 48.5902 45.8955 47.9786 46.0208C47.3827 46.1462 46.7632 46.2167 46.1438 46.2167H41.3687V32.9548H41.3608ZM43.721 38.352H45.8223C46.6064 38.352 47.2102 38.1953 47.6179 37.882C48.0335 37.5687 48.2373 37.13 48.2373 36.5503C48.2373 35.955 48.0256 35.5242 47.6022 35.2735C47.1788 35.0228 46.5123 34.8975 45.6185 34.8975H43.7288V38.352H43.721ZM43.721 44.227H45.838C46.136 44.227 46.4653 44.2035 46.8103 44.1643C47.1553 44.1173 47.4846 44.0312 47.7747 43.8902C48.0648 43.7492 48.3157 43.5533 48.5039 43.2948C48.6999 43.0363 48.794 42.6838 48.794 42.2452C48.794 41.548 48.5588 41.0623 48.0805 40.7882C47.6022 40.514 46.8887 40.373 45.9242 40.373H43.7131V44.227H43.721Z" fill="white"/>
<path d="M52.9418 32.0618H55.1922V46.2166H52.9418V32.0618Z" fill="white"/>
<path d="M56.4624 41.681C56.4624 40.9682 56.5879 40.3258 56.8466 39.7462C57.1054 39.1665 57.4504 38.673 57.8894 38.2578C58.3285 37.8427 58.846 37.5293 59.4419 37.3022C60.0379 37.075 60.6808 36.9653 61.3551 36.9653C62.0294 36.9653 62.6646 37.075 63.2683 37.3022C63.8642 37.5293 64.3896 37.8427 64.8208 38.2578C65.2521 38.673 65.6049 39.1665 65.8637 39.7462C66.1224 40.3258 66.2479 40.976 66.2479 41.681C66.2479 42.386 66.1224 43.044 65.8637 43.6237C65.6049 44.2112 65.2599 44.7125 64.8208 45.1277C64.3817 45.5428 63.8642 45.8718 63.2683 46.1068C62.6724 46.3418 62.0294 46.4593 61.3551 46.4593C60.6808 46.4593 60.0457 46.3418 59.4419 46.1068C58.8382 45.8718 58.3207 45.5428 57.8894 45.1277C57.4504 44.7125 57.1054 44.2112 56.8466 43.6237C56.5957 43.044 56.4624 42.3938 56.4624 41.681ZM58.7519 41.681C58.7519 42.0335 58.8068 42.3782 58.9088 42.7307C59.0107 43.0832 59.1754 43.3965 59.3871 43.6707C59.5988 43.9448 59.8654 44.172 60.1947 44.3443C60.5162 44.5167 60.9082 44.6028 61.3551 44.6028C61.8021 44.6028 62.1941 44.5167 62.5156 44.3443C62.8371 44.172 63.1115 43.9448 63.3232 43.6707C63.5349 43.3965 63.6917 43.0832 63.8015 42.7307C63.9113 42.3782 63.9583 42.0335 63.9583 41.681C63.9583 41.3285 63.9034 40.9838 63.8015 40.6392C63.6917 40.2945 63.5349 39.989 63.3232 39.7148C63.1115 39.4407 62.8449 39.2213 62.5156 39.049C62.1941 38.8845 61.8021 38.7983 61.3551 38.7983C60.9082 38.7983 60.5162 38.8845 60.1947 39.049C59.8732 39.2135 59.5988 39.4407 59.3871 39.7148C59.1754 39.989 59.0107 40.2945 58.9088 40.6392C58.8068 40.9838 58.7519 41.3363 58.7519 41.681Z" fill="white"/>
<path d="M67.0398 41.681C67.0398 40.9682 67.1652 40.3258 67.424 39.7462C67.6827 39.1665 68.0277 38.673 68.4668 38.2578C68.9059 37.8427 69.4234 37.5293 70.0193 37.3022C70.6153 37.075 71.2582 36.9653 71.9325 36.9653C72.6068 36.9653 73.242 37.075 73.8457 37.3022C74.4416 37.5293 74.967 37.8427 75.3982 38.2578C75.8295 38.673 76.1823 39.1665 76.441 39.7462C76.6998 40.3258 76.8253 40.976 76.8253 41.681C76.8253 42.386 76.6998 43.044 76.441 43.6237C76.1823 44.2112 75.8373 44.7125 75.3982 45.1277C74.9591 45.5428 74.4416 45.8718 73.8457 46.1068C73.2498 46.3418 72.6068 46.4593 71.9325 46.4593C71.2582 46.4593 70.6231 46.3418 70.0193 46.1068C69.4234 45.8718 68.8981 45.5428 68.4668 45.1277C68.0277 44.7125 67.6827 44.2112 67.424 43.6237C67.1652 43.044 67.0398 42.3938 67.0398 41.681ZM69.3215 41.681C69.3215 42.0335 69.3764 42.3782 69.4783 42.7307C69.5803 43.0832 69.7449 43.3965 69.9566 43.6707C70.1683 43.9448 70.4349 44.172 70.7642 44.3443C71.0857 44.5167 71.4778 44.6028 71.9247 44.6028C72.3716 44.6028 72.7637 44.5167 73.0851 44.3443C73.4066 44.172 73.681 43.9448 73.8928 43.6707C74.1045 43.3965 74.2613 43.0832 74.371 42.7307C74.4808 42.3782 74.5279 42.0335 74.5279 41.681C74.5279 41.3285 74.473 40.9838 74.371 40.6392C74.2613 40.2945 74.1045 39.989 73.8928 39.7148C73.681 39.4407 73.4145 39.2213 73.0851 39.049C72.7637 38.8845 72.3716 38.7983 71.9247 38.7983C71.4778 38.7983 71.0857 38.8845 70.7642 39.049C70.4428 39.2135 70.1683 39.4407 69.9566 39.7148C69.7449 39.989 69.5803 40.2945 69.4783 40.6392C69.3764 40.9838 69.3215 41.3363 69.3215 41.681Z" fill="white"/>
<path d="M87.6693 46.2166H85.5365V44.8693H85.4973C85.1837 45.3941 84.7525 45.7936 84.1957 46.0678C83.639 46.3419 83.0431 46.4829 82.408 46.4829C81.718 46.4829 81.1064 46.3576 80.5654 46.0991C80.0244 45.8406 79.5618 45.5038 79.1776 45.0729C78.7934 44.6421 78.5033 44.1329 78.2994 43.5533C78.0955 42.9736 77.9936 42.3548 77.9936 41.6889C77.9936 41.0231 78.0955 40.4121 78.3151 39.8324C78.5268 39.2606 78.8247 38.7593 79.2168 38.3363C79.601 37.9133 80.0636 37.5764 80.6046 37.3336C81.1456 37.0908 81.7259 36.9654 82.3688 36.9654C82.7844 36.9654 83.1529 37.0124 83.4744 37.1064C83.7959 37.2004 84.086 37.3179 84.329 37.4511C84.5721 37.5921 84.7838 37.7409 84.9563 37.8976C85.1288 38.0621 85.2778 38.2188 85.3876 38.3676H85.4425V32.0618H87.6928V46.2166H87.6693ZM80.2675 41.6811C80.2675 42.0336 80.3223 42.3783 80.4243 42.7308C80.534 43.0833 80.6909 43.3966 80.9026 43.6708C81.1143 43.9449 81.3809 44.1721 81.7102 44.3444C82.0317 44.5168 82.4159 44.6029 82.855 44.6029C83.2705 44.6029 83.639 44.5168 83.9605 44.3523C84.282 44.1799 84.5643 43.9606 84.7917 43.6864C85.0269 43.4123 85.1994 43.1068 85.317 42.7621C85.4346 42.4174 85.4973 42.0728 85.4973 41.7203C85.4973 41.3678 85.4346 41.0231 85.317 40.6706C85.1994 40.3181 85.0269 40.0126 84.7917 39.7384C84.5564 39.4643 84.282 39.2371 83.9605 39.0648C83.639 38.8924 83.2705 38.8063 82.855 38.8063C82.4159 38.8063 82.0395 38.8924 81.7102 39.0569C81.3887 39.2214 81.1143 39.4486 80.9026 39.7228C80.6909 39.9969 80.534 40.3024 80.4243 40.6471C80.3223 40.9839 80.2675 41.3364 80.2675 41.6811Z" fill="white"/>
<path d="M93.793 32.9548H98.968C99.4699 32.9548 99.9638 33.0175 100.45 33.135C100.936 33.2525 101.367 33.4483 101.752 33.7147C102.128 33.981 102.442 34.3335 102.677 34.7565C102.912 35.1795 103.03 35.6887 103.03 36.2918C103.03 37.0438 102.818 37.6548 102.395 38.1483C101.971 38.634 101.414 38.9865 100.724 39.198V39.2372C101.563 39.3468 102.246 39.6758 102.787 40.2085C103.328 40.749 103.594 41.4618 103.594 42.3627C103.594 43.0833 103.453 43.6943 103.163 44.1878C102.873 44.6813 102.496 45.0808 102.026 45.3785C101.556 45.6762 101.022 45.8955 100.411 46.0208C99.807 46.154 99.1876 46.2167 98.5682 46.2167H93.793V32.9548ZM96.1532 38.352H98.2545C99.0386 38.352 99.6424 38.1953 100.05 37.882C100.466 37.5687 100.67 37.13 100.67 36.5503C100.67 35.955 100.458 35.5242 100.034 35.2735C99.611 35.0228 98.9445 34.8975 98.0507 34.8975H96.161V38.352H96.1532ZM96.1532 44.227H98.2702C98.5682 44.227 98.8975 44.2035 99.2425 44.1643C99.5875 44.1173 99.9168 44.0312 100.207 43.8902C100.497 43.7492 100.748 43.5533 100.936 43.2948C101.132 43.0363 101.226 42.6838 101.226 42.2452C101.226 41.548 100.991 41.0623 100.513 40.7882C100.034 40.514 99.3209 40.373 98.3564 40.373H96.1453V44.227H96.1532Z" fill="white"/>
<path d="M110.925 45.0729H110.87C110.643 45.4724 110.282 45.8014 109.781 46.052C109.279 46.3105 108.714 46.4359 108.079 46.4359C107.718 46.4359 107.342 46.3889 106.942 46.2949C106.55 46.2009 106.182 46.0442 105.852 45.8249C105.523 45.6055 105.249 45.3157 105.029 44.9632C104.809 44.6107 104.7 44.1642 104.7 43.6394C104.7 42.9657 104.888 42.4252 105.272 42.0257C105.656 41.6262 106.142 41.3207 106.746 41.1092C107.342 40.8977 108.009 40.7567 108.746 40.6862C109.483 40.6157 110.188 40.5844 110.894 40.5844V40.3572C110.894 39.7932 110.69 39.378 110.282 39.1117C109.875 38.8454 109.396 38.7122 108.832 38.7122C108.354 38.7122 107.899 38.814 107.468 39.0099C107.028 39.2057 106.668 39.4564 106.378 39.7384L105.217 38.3754C105.727 37.8975 106.323 37.545 106.989 37.31C107.656 37.075 108.338 36.9575 109.02 36.9575C109.82 36.9575 110.478 37.0672 110.996 37.2944C111.513 37.5215 111.921 37.8114 112.227 38.1717C112.525 38.532 112.737 38.9394 112.854 39.3859C112.972 39.8324 113.035 40.2867 113.035 40.7332V46.2165H110.933V45.0729H110.925ZM110.886 42.1119H110.377C110.016 42.1119 109.632 42.1275 109.232 42.1589C108.832 42.1902 108.463 42.2607 108.126 42.3625C107.789 42.4722 107.507 42.621 107.287 42.809C107.06 43.0049 106.95 43.2712 106.95 43.608C106.95 43.8195 106.997 43.9997 107.091 44.1407C107.185 44.2817 107.303 44.3992 107.46 44.4854C107.609 44.5715 107.781 44.6342 107.969 44.6734C108.158 44.7125 108.346 44.7282 108.534 44.7282C109.31 44.7282 109.898 44.5245 110.298 44.1094C110.698 43.6942 110.894 43.138 110.894 42.4252V42.1119H110.886Z" fill="white"/>
<path d="M114.705 37.2239H116.845V38.6652H116.884C117.08 38.2187 117.433 37.8192 117.927 37.4745C118.421 37.1299 119.002 36.9575 119.676 36.9575C120.264 36.9575 120.766 37.0594 121.181 37.263C121.597 37.4667 121.942 37.7409 122.208 38.0777C122.475 38.4145 122.671 38.7984 122.797 39.237C122.922 39.6757 122.985 40.1222 122.985 40.5844V46.2165H120.734V41.2345C120.734 40.976 120.719 40.694 120.679 40.412C120.64 40.1222 120.562 39.8637 120.436 39.6365C120.311 39.4094 120.138 39.2135 119.919 39.0647C119.699 38.9159 119.409 38.8375 119.049 38.8375C118.688 38.8375 118.374 38.908 118.115 39.0569C117.857 39.1979 117.637 39.3859 117.465 39.6052C117.292 39.8324 117.167 40.0909 117.08 40.3807C116.994 40.6705 116.947 40.9682 116.947 41.2737V46.2165H114.697V37.2239H114.705Z" fill="white"/>
<path d="M124.71 32.0618H126.96V41.0074H127.015L130.426 37.2239H133.311L129.414 41.2894L133.554 46.2166H130.575L127.015 41.6106H126.96V46.2166H124.71V32.0618Z" fill="white"/>
<path d="M18.4418 29.9076C13.8863 24.9099 18.7868 15.9329 19.4063 11.0214C19.8061 6.94027 18.2066 4.07327 15.2192 2.33427C9.46399 -0.571895 2.82274 1.3786 0.987966 8.0056C-0.0313517 12.2513 2.59535 15.9643 4.61831 17.7973C8.2016 21.0324 15.7289 27.3304 18.4418 29.9076Z" fill="#FC1921"/>
<path d="M21.1156 11.186C21.1156 11.2017 21.1156 11.2174 21.1077 11.233C20.9195 12.7057 20.4099 14.4212 19.8767 16.2307C18.5437 20.727 17.0383 25.8187 19.712 28.7484C19.8375 28.8894 19.9394 29.0069 20.0414 29.1244C24.0324 25.3095 33.6845 16.0505 35.041 12.408C37.9265 4.65302 26.8316 -2.35781 19.7434 4.33185C20.9039 6.24319 21.3743 8.54619 21.1156 11.186Z" fill="#E30513"/>
</svg>
