<svg width="129" height="35" viewBox="0 0 129 35" fill="none" xmlns="http://www.w3.org/2000/svg">
<g clip-path="url(#clip0_2440_20241)">
<path d="M31.5779 3.03638H36.5549C37.0328 3.03934 37.5088 3.10178 37.9735 3.22246C38.4224 3.33688 38.8477 3.54053 39.2275 3.82299C39.5959 4.10811 39.901 4.47788 40.121 4.90564C40.3483 5.40137 40.4536 5.95189 40.4267 6.50424C40.4508 7.20652 40.233 7.89356 39.8153 8.4327C39.3978 8.94762 38.8547 9.32567 38.2478 9.52381C38.9876 9.62623 39.6744 9.99239 40.1994 10.5642C40.4638 10.8593 40.6697 11.2096 40.8045 11.5935C40.9392 11.9774 41 12.387 40.9831 12.7971C41.0068 13.4577 40.8632 14.1127 40.5677 14.6918C40.3044 15.194 39.9302 15.6182 39.4783 15.9267C38.9985 16.2518 38.467 16.4784 37.9108 16.5949C37.326 16.7302 36.7296 16.7982 36.1316 16.7979H31.5779V3.03638ZM33.8509 8.6357H35.8651C36.4608 8.68486 37.0556 8.53102 37.5659 8.19587C37.7609 8.03503 37.917 7.82561 38.0207 7.58552C38.1245 7.34544 38.1728 7.08182 38.1616 6.81719C38.1828 6.55656 38.137 6.29466 38.0291 6.06034C37.9213 5.82603 37.7555 5.62841 37.5502 5.48925C36.9523 5.19118 36.2953 5.05752 35.6378 5.10018H33.8195L33.8509 8.6357ZM33.8509 14.7425H35.8808C36.1953 14.7394 36.5093 14.7168 36.8213 14.6748C37.1415 14.6309 37.4535 14.5339 37.7462 14.3873C38.0267 14.2505 38.2696 14.0378 38.4516 13.7698C38.6534 13.4491 38.7525 13.0659 38.7337 12.6787C38.7601 12.3822 38.7096 12.0835 38.5878 11.8162C38.466 11.5488 38.2777 11.3233 38.044 11.1647C37.39 10.8278 36.6664 10.6792 35.9435 10.7333H33.8195L33.8509 14.7425Z" fill="white"/>
<path d="M42.6761 2.1062H44.8393V16.7981H42.6761V2.1062Z" fill="white"/>
<path d="M46.5165 12.0953C46.511 11.4043 46.6363 10.7192 46.8849 10.0823C47.1187 9.49874 47.4603 8.97276 47.8888 8.53648C48.3174 8.1002 48.8238 7.76278 49.3772 7.54483C49.9659 7.30602 50.5902 7.18562 51.2191 7.18958C51.8455 7.18493 52.4673 7.30537 53.0531 7.54483C53.61 7.75973 54.1197 8.09666 54.5501 8.53444C54.9775 8.96907 55.3188 9.49276 55.5533 10.0738C56.0441 11.3665 56.0441 12.8157 55.5533 14.1084C55.3188 14.6987 54.9765 15.2321 54.547 15.6768C54.1175 16.1214 53.6094 16.4683 53.0531 16.6966C52.4693 16.9457 51.8468 17.072 51.2191 17.0688C50.5889 17.0713 49.9639 16.945 49.3772 16.6966C48.8224 16.4664 48.316 16.1183 47.8881 15.6732C47.4586 15.2339 47.1171 14.7042 46.8849 14.1168C46.6353 13.4773 46.5099 12.7893 46.5165 12.0953ZM48.711 12.0953C48.7133 12.4654 48.7661 12.833 48.8678 13.1864C48.9627 13.5397 49.1197 13.8699 49.3302 14.1591C49.5408 14.4521 49.8083 14.6918 50.114 14.8612C50.4611 15.05 50.8462 15.143 51.2348 15.1318C51.6207 15.1416 52.0029 15.0486 52.3477 14.8612C52.6521 14.6898 52.9193 14.4505 53.1315 14.1591C53.339 13.8679 53.4957 13.5383 53.5939 13.1864C53.6931 12.8327 53.7433 12.465 53.7428 12.0953C53.7439 11.7312 53.6937 11.369 53.5939 11.0211C53.4939 10.6727 53.3373 10.3462 53.1315 10.0569C52.9211 9.76581 52.6534 9.52889 52.3477 9.36334C52.0009 9.18291 51.6197 9.09308 51.2348 9.10113C50.8473 9.09302 50.4635 9.18281 50.114 9.36334C49.8063 9.52563 49.5379 9.76311 49.3302 10.0569C49.1214 10.3442 48.9645 10.6713 48.8678 11.0211C48.7655 11.3686 48.7126 11.7308 48.711 12.0953Z" fill="white"/>
<path d="M57.0503 12.0952C57.0472 11.4018 57.1808 10.7156 57.4422 10.0821C57.671 9.4998 58.0101 8.97547 58.4376 8.54274C58.868 8.10496 59.3777 7.76803 59.9346 7.55313C60.5204 7.31367 61.1422 7.19323 61.7686 7.19788C62.3975 7.19392 63.0217 7.31433 63.6104 7.55313C64.165 7.76797 64.6722 8.10498 65.0996 8.54274C65.5129 8.98128 65.8407 9.5047 66.0636 10.0821C66.5545 11.3748 66.5545 12.824 66.0636 14.1167C65.8288 14.7055 65.4874 15.2377 65.0594 15.6822C64.6314 16.1266 64.1255 16.4743 63.5712 16.7049C62.9846 16.9533 62.3596 17.0796 61.7294 17.0771C61.1017 17.0803 60.4791 16.954 59.8954 16.7049C59.3382 16.4748 58.8292 16.1269 58.3984 15.6814C57.9846 15.2353 57.6592 14.7029 57.4422 14.1167C57.1801 13.4805 57.0465 12.7914 57.0503 12.0952ZM59.2527 12.0952C59.2522 12.4648 59.3024 12.8325 59.4016 13.1863C59.4998 13.5381 59.6565 13.8677 59.864 14.159C60.0762 14.4503 60.3434 14.6896 60.6478 14.861C60.9926 15.0485 61.3748 15.1414 61.7607 15.1317C62.1493 15.1428 62.5344 15.0498 62.8815 14.861C63.1831 14.685 63.4494 14.4464 63.6653 14.159C63.8704 13.8673 64.0244 13.5376 64.1199 13.1863C64.2215 12.8329 64.2744 12.4652 64.2766 12.0952C64.275 11.7306 64.2222 11.3684 64.1199 11.021C64.0227 10.6729 63.8688 10.3464 63.6653 10.0568C63.3032 9.60156 62.8126 9.28719 62.2689 9.1619C61.7252 9.03661 61.1585 9.10732 60.6556 9.36318C60.3499 9.52873 60.0822 9.76565 59.8719 10.0568C59.666 10.3461 59.5094 10.6726 59.4094 11.021C59.307 11.3684 59.2542 11.7306 59.2527 12.0952Z" fill="white"/>
<path d="M76.8874 16.7981H74.8339V15.4025C74.5395 15.942 74.103 16.3749 73.5799 16.6458C73.0471 16.9334 72.4591 17.0811 71.8634 17.0772C71.273 17.0938 70.6863 16.9707 70.1447 16.7164C69.6031 16.4622 69.1196 16.083 68.7284 15.6055C68.3593 15.1415 68.0724 14.6082 67.8819 14.0323C67.6836 13.4092 67.5855 12.7541 67.5919 12.0953C67.5867 11.4408 67.6903 10.7905 67.8976 10.1753C68.0857 9.59958 68.3789 9.07039 68.7597 8.61901C69.2722 8.03412 69.9205 7.60799 70.6372 7.38488C71.3539 7.16177 72.1129 7.14982 72.8353 7.35028C73.1076 7.44182 73.3702 7.56371 73.6191 7.71398C73.837 7.84204 74.0396 7.99826 74.2226 8.17918C74.3737 8.32658 74.5127 8.48789 74.638 8.6613H74.6928V2.1062H76.856L76.8874 16.7981ZM69.7708 12.0953C69.7703 12.465 69.8205 12.8326 69.9197 13.1864C70.0179 13.5383 70.1746 13.8679 70.3821 14.1591C70.5943 14.4504 70.8615 14.6898 71.1659 14.8612C71.5059 15.0459 71.8825 15.1388 72.2632 15.1318C72.6326 15.136 72.9978 15.0462 73.3291 14.8696C73.6305 14.697 73.897 14.4612 74.1128 14.176C74.3369 13.8932 74.5074 13.5656 74.6145 13.2118C74.7293 12.8673 74.7876 12.5038 74.7869 12.1376C74.7869 11.766 74.7286 11.3971 74.6145 11.0465C74.5056 10.691 74.3354 10.361 74.1128 10.0738C73.8948 9.79094 73.6288 9.55554 73.3291 9.38025C73.0018 9.19028 72.6347 9.09418 72.2632 9.10113C71.8833 9.09383 71.5073 9.18368 71.1659 9.36333C70.8602 9.52888 70.5924 9.7658 70.3821 10.0569C70.1763 10.3462 70.0197 10.6727 69.9197 11.0211C69.8199 11.369 69.7697 11.7312 69.7708 12.0953Z" fill="white"/>
<path d="M83.2281 3.03638H88.1972C88.6751 3.0388 89.1512 3.10125 89.6158 3.22246C90.0647 3.33688 90.49 3.54053 90.8698 3.82299C91.2675 4.12252 91.5893 4.5249 91.8056 4.99331C92.0219 5.46173 92.126 5.98122 92.1082 6.50424C92.1323 7.20652 91.9145 7.89356 91.4968 8.4327C91.0771 8.9449 90.5348 9.32241 89.9293 9.52381C90.6772 9.61199 91.3757 9.96955 91.9122 10.5388C92.1767 10.8339 92.3826 11.1842 92.5173 11.5681C92.6521 11.9521 92.7129 12.3616 92.696 12.7718C92.7161 13.4319 92.5727 14.086 92.2806 14.6664C92.0025 15.1801 91.6124 15.6127 91.1441 15.9267C90.6632 16.2494 90.1321 16.4758 89.5766 16.5949C88.9945 16.7301 88.4007 16.7982 87.8053 16.7979H83.2281V3.03638ZM85.4932 8.6357H87.5153C88.1232 8.67952 88.7279 8.51043 89.2396 8.15358C89.4356 7.99372 89.5924 7.78449 89.6962 7.54416C89.8001 7.30383 89.8478 7.03972 89.8352 6.7749C89.8565 6.51427 89.8107 6.25237 89.7028 6.01805C89.5949 5.78374 89.4292 5.58612 89.2239 5.44696C88.6269 5.1458 87.9692 5.01199 87.3115 5.05789H85.4932V8.6357ZM85.4932 14.7425H87.531C87.8428 14.7394 88.1542 14.7168 88.4636 14.6748C88.7862 14.6303 89.1007 14.5334 89.3963 14.3873C89.6759 14.2526 89.9168 14.0394 90.0939 13.7698C90.2902 13.447 90.3838 13.064 90.3604 12.6787C90.3884 12.3829 90.3395 12.0845 90.219 11.817C90.0986 11.5495 89.9114 11.3236 89.6785 11.1647C89.0356 10.8374 88.3269 10.6891 87.6172 10.7333H85.4932V14.7425Z" fill="white"/>
<path d="M99.6872 15.6137H99.6323C99.3925 16.0681 99.0284 16.4315 98.5899 16.6541C98.0809 16.9251 97.5194 17.0613 96.9518 17.0516C96.5848 17.0482 96.2194 16.9999 95.8624 16.9078C95.4891 16.8096 95.134 16.6437 94.8122 16.4172C94.4944 16.1859 94.227 15.8829 94.0284 15.5291C93.8113 15.1113 93.703 14.6378 93.7149 14.1589C93.6837 13.539 93.8809 12.9309 94.2635 12.4673C94.6595 12.0318 95.1457 11.7042 95.6821 11.5115C96.3003 11.2817 96.9428 11.1367 97.5945 11.0801C98.2999 11.004 98.9896 10.9702 99.6637 10.9702V10.7333C99.6793 10.4822 99.6331 10.231 99.5299 10.0052C99.4267 9.77948 99.27 9.58715 99.0758 9.44769C98.6605 9.15929 98.1745 9.01198 97.6807 9.02478C97.226 9.0248 96.7767 9.13159 96.364 9.33773C95.9745 9.51695 95.6206 9.77539 95.3216 10.099L94.2008 8.67799C94.6917 8.18716 95.2705 7.81007 95.9016 7.56997C96.5302 7.3257 97.1929 7.19982 97.861 7.19781C98.5092 7.17381 99.155 7.29476 99.7577 7.55305C100.194 7.7367 100.583 8.02956 100.894 8.40749C101.205 8.78542 101.428 9.23761 101.545 9.72681C101.656 10.1824 101.714 10.6513 101.717 11.1224V16.7979H99.6872V15.6137ZM99.6872 12.5434H99.2012C98.8459 12.5434 98.4776 12.5603 98.0961 12.5941C97.7372 12.6215 97.3823 12.6924 97.0381 12.8056C96.7516 12.9051 96.4856 13.063 96.2543 13.2708C96.1455 13.3768 96.0601 13.5079 96.0045 13.6543C95.9489 13.8007 95.9245 13.9587 95.9329 14.1166C95.9271 14.3099 95.9733 14.5009 96.0662 14.6664C96.1574 14.8143 96.2778 14.9385 96.4189 15.0301C96.5697 15.1236 96.734 15.1893 96.9048 15.2246C97.0826 15.2653 97.2639 15.2851 97.4456 15.2838C97.7478 15.3217 98.0541 15.2863 98.342 15.1803C98.6299 15.0742 98.8923 14.9002 99.1101 14.6709C99.3278 14.4416 99.4954 14.1628 99.6007 13.8547C99.7059 13.5467 99.7462 13.2171 99.7185 12.8902L99.6872 12.5434Z" fill="white"/>
<path d="M103.778 7.46857H105.832V8.96567C106.079 8.42624 106.462 7.97362 106.938 7.66062C107.414 7.34762 107.963 7.18714 108.52 7.19791C109.02 7.18427 109.516 7.29421 109.97 7.51932C110.353 7.71922 110.69 8.00806 110.958 8.36514C111.218 8.72187 111.413 9.12974 111.53 9.5662C111.649 10.0232 111.71 10.4956 111.71 10.9703V16.798H109.547V11.63C109.547 11.347 109.529 11.0644 109.492 10.7842C109.458 10.5036 109.378 10.2316 109.257 9.98065C109.137 9.71363 108.946 9.49088 108.709 9.34039C108.472 9.18989 108.199 9.11838 107.925 9.13484C107.612 9.12752 107.302 9.20303 107.023 9.35475C106.783 9.49959 106.572 9.69521 106.404 9.9299C106.232 10.1834 106.107 10.4707 106.036 10.7757C105.951 11.0745 105.909 11.3853 105.91 11.6977V16.8233H103.747L103.778 7.46857Z" fill="white"/>
<path d="M113.873 2.1062H116.029V11.4102H116.084L119.36 7.4687H122.134L118.388 11.6978L122.369 16.7727H119.509L116.084 11.9938H116.029V16.7727H113.873V2.1062Z" fill="white"/>
<path d="M30.9353 29.0031C30.927 28.3117 31.0525 27.6261 31.3036 26.9901C31.5363 26.4057 31.8775 25.879 32.3062 25.4426C32.7348 25.0062 33.2419 24.6692 33.796 24.4526C34.3852 24.2167 35.0094 24.0991 35.6378 24.1058C36.2638 24.0983 36.8856 24.2158 37.4719 24.4526C38.0259 24.674 38.5344 25.0102 38.9689 25.4422C39.3947 25.8816 39.7357 26.4077 39.9721 26.9901C40.2232 27.6261 40.3486 28.3117 40.3404 29.0031C40.3481 29.6999 40.2227 30.3909 39.9721 31.0331C39.7359 31.6205 39.395 32.1522 38.9689 32.5978C38.5322 33.0226 38.024 33.3529 37.4719 33.5705C36.8881 33.8197 36.2656 33.946 35.6378 33.9427C35.0076 33.9452 34.3827 33.8189 33.796 33.5705C33.2448 33.3483 32.7403 33.0093 32.3123 32.5735C31.8842 32.1378 31.5413 31.614 31.3036 31.0331C31.053 30.3909 30.9276 29.6999 30.9353 29.0031ZM33.1298 29.0031C33.1314 29.3704 33.1843 29.7354 33.2866 30.0858C33.3826 30.4308 33.5396 30.7525 33.749 31.0331C33.9596 31.3261 34.2271 31.5657 34.5327 31.7351C34.8791 31.9263 35.2647 32.0194 35.6535 32.0058C36.0399 32.0203 36.4232 31.927 36.7665 31.7351C37.0721 31.5657 37.3397 31.3261 37.5502 31.0331C37.7593 30.7428 37.9162 30.4129 38.0127 30.0604C38.211 29.3545 38.211 28.601 38.0127 27.8951C37.9127 27.5466 37.7561 27.2202 37.5502 26.9308C37.338 26.644 37.0706 26.4102 36.7665 26.2457C36.421 26.0612 36.0388 25.9712 35.6535 25.9835C35.2656 25.9698 34.8805 26.0598 34.5327 26.2457C34.2301 26.4126 33.9631 26.646 33.749 26.9308C33.5401 27.2181 33.3833 27.5452 33.2866 27.8951C33.1872 28.2544 33.1397 28.6281 33.1455 29.0031H33.1298Z" fill="white"/>
<path d="M42.3234 26.2374H40.6775V24.3766H42.3234V22.9979C42.3218 22.4573 42.377 21.9181 42.488 21.3909C42.5922 20.9012 42.7897 20.4404 43.068 20.0376C43.3424 19.6416 43.7031 19.3249 44.1182 19.1156C44.6446 18.8709 45.2148 18.7553 45.7876 18.7773C46.0306 18.7773 46.2344 18.7773 46.3911 18.7773C46.5603 18.8025 46.7279 18.8393 46.8928 18.8873L46.7674 20.8834L46.3833 20.7903C46.2346 20.777 46.0852 20.777 45.9366 20.7903C45.6634 20.7727 45.3914 20.8403 45.1528 20.9849C44.9681 21.11 44.8168 21.2849 44.7139 21.4924C44.6109 21.7046 44.5395 21.9329 44.5023 22.169C44.469 22.4099 44.4507 22.6529 44.4474 22.8964V24.4105H46.4695V26.2713H44.4788V33.7398H42.3234V26.2374Z" fill="white"/>
<path d="M51.9558 19.9443H56.4781C57.3216 19.9478 58.1615 20.0643 58.9783 20.2911C59.7989 20.5132 60.5712 20.9069 61.2513 21.4499C61.941 22.0091 62.5016 22.7328 62.8893 23.5644C63.3376 24.5798 63.5527 25.6968 63.5163 26.8208C63.5457 27.898 63.3305 28.9667 62.8893 29.9335C62.4957 30.7681 61.9364 31.4987 61.2513 32.0734C60.5712 32.6336 59.8004 33.0523 58.9783 33.3083C58.1666 33.5678 57.3248 33.7017 56.4781 33.7058H51.9558V19.9443ZM56.1176 31.5659C56.7112 31.5638 57.3027 31.49 57.8811 31.346C58.4422 31.1974 58.9734 30.9394 59.4486 30.5847C59.9353 30.2078 60.3327 29.7122 60.6086 29.1384C60.9297 28.4165 61.083 27.621 61.0553 26.8208C61.0846 25.9905 60.9315 25.1645 60.6086 24.4103C60.337 23.8309 59.9389 23.3316 59.4486 22.9555C58.9747 22.6075 58.4421 22.3632 57.8811 22.2365C57.3006 22.109 56.7099 22.0438 56.1176 22.042H54.2287V31.5659H56.1176Z" fill="white"/>
<path d="M73.768 29.1555V29.4684C73.768 29.5699 73.768 29.6714 73.768 29.7814H67.1922C67.2107 30.104 67.2936 30.4185 67.4352 30.7033C67.5734 30.9789 67.7597 31.2231 67.9838 31.4223C68.2186 31.6265 68.4836 31.7866 68.7676 31.8959C69.0554 32.0142 69.3609 32.0744 69.6689 32.0735C70.1435 32.0878 70.6142 31.9776 71.0405 31.7521C71.4086 31.541 71.7233 31.2361 71.9575 30.864L73.3997 32.1074C72.9719 32.7261 72.4086 33.2207 71.7603 33.5469C71.112 33.8732 70.3988 34.0208 69.6846 33.9766C69.0516 33.9856 68.4223 33.871 67.8271 33.6383C67.2848 33.4235 66.7868 33.0959 66.3614 32.6741C65.9399 32.2478 65.6084 31.7285 65.3896 31.1516C64.9194 29.8313 64.9194 28.3697 65.3896 27.0494C65.6078 26.4593 65.9359 25.9239 66.3536 25.4762C66.7668 25.0334 67.2605 24.6878 67.8036 24.4612C68.3808 24.2202 68.9952 24.0996 69.6141 24.1059C70.1844 24.0975 70.751 24.2066 71.2835 24.4273C71.7836 24.6306 72.234 24.9546 72.6002 25.3747C72.9916 25.827 73.2906 26.363 73.478 26.9479C73.6916 27.6603 73.7897 28.4071 73.768 29.1555ZM71.6048 28.1066C71.6052 27.8199 71.5655 27.5348 71.4873 27.2608C71.4126 26.9911 71.284 26.7423 71.1107 26.5319C70.9374 26.3214 70.7235 26.1545 70.4841 26.0428C70.1954 25.9164 69.8864 25.8532 69.5749 25.8568C68.9699 25.8401 68.3807 26.0661 67.9211 26.4911C67.6951 26.6902 67.5091 26.9368 67.3743 27.216C67.2396 27.4953 67.159 27.8012 67.1374 28.1151L71.6048 28.1066Z" fill="white"/>
<path d="M75.4688 19.0056H77.632V33.706H75.4688V19.0056Z" fill="white"/>
<path d="M90.1095 24.1059C90.6095 24.0889 91.1062 24.199 91.5595 24.4273C91.9428 24.6265 92.2802 24.9155 92.547 25.2732C92.8087 25.6312 93.0007 26.0426 93.1113 26.4827C93.2336 26.936 93.2944 27.4061 93.2916 27.8783V33.7144H91.1441V28.538C91.1428 28.2554 91.1271 27.973 91.097 27.6922C91.0674 27.3971 90.9877 27.1104 90.8619 26.8464C90.7405 26.6116 90.5718 26.4092 90.3681 26.2543C90.1164 26.0878 89.8246 26.0054 89.5295 26.0175C89.2251 26.0114 88.9248 26.0931 88.6595 26.2543C88.4234 26.4062 88.2203 26.611 88.0639 26.8548C87.9077 27.114 87.7937 27.4001 87.7268 27.7007C87.6562 27.9964 87.6194 28.3003 87.6171 28.6057V33.6806H85.4539V28.0644C85.4744 27.5501 85.3397 27.0425 85.0699 26.618C84.9266 26.422 84.7409 26.267 84.529 26.1667C84.3172 26.0664 84.0857 26.0239 83.855 26.0429C83.5588 26.0337 83.266 26.1127 83.0086 26.2712C82.7728 26.4094 82.5712 26.6067 82.4208 26.8464C82.26 27.1039 82.1432 27.3903 82.0759 27.6922C81.9975 27.9922 81.958 28.3025 81.9583 28.6141V33.7483H79.803V24.4443H81.8564V25.8737C81.9546 25.6332 82.0868 25.4106 82.2483 25.214C82.414 24.9976 82.6065 24.8069 82.8205 24.6473C83.0592 24.4681 83.3241 24.3338 83.6042 24.2497C83.9139 24.1476 84.2367 24.099 84.5604 24.1059C85.1172 24.0807 85.6683 24.2355 86.1431 24.5504C86.6179 24.8654 86.9947 25.3261 87.2252 25.8737C87.4897 25.3303 87.8885 24.8765 88.3774 24.5627C88.9054 24.243 89.5043 24.0851 90.1095 24.1059Z" fill="white"/>
<path d="M101.09 32.5217H101.043C100.794 32.9646 100.428 33.3178 99.9928 33.5367C99.4851 33.8115 98.9227 33.948 98.3548 33.9343C97.9875 33.9345 97.6217 33.8862 97.2653 33.7905C96.8933 33.7006 96.5398 33.5371 96.2229 33.3083C95.9014 33.0783 95.6333 32.7715 95.4391 32.4118C95.2139 31.9971 95.1025 31.5219 95.1178 31.0416C95.1017 30.7338 95.1426 30.4257 95.2381 30.1352C95.3337 29.8448 95.4819 29.5778 95.6743 29.3499C96.0664 28.9153 96.5506 28.5902 97.0851 28.4026C97.7066 28.1738 98.3512 28.0262 99.0053 27.9628C99.7028 27.8951 100.393 27.8528 101.067 27.8528V27.6498C101.083 27.3974 101.037 27.1448 100.934 26.9175C100.831 26.6903 100.674 26.4965 100.479 26.3557C100.063 26.0703 99.5766 25.9259 99.0837 25.9413C98.6297 25.941 98.1809 26.0448 97.7669 26.2458C97.3816 26.4332 97.0291 26.6907 96.7245 27.007L95.6116 25.586C96.1012 25.0934 96.6804 24.7161 97.3123 24.478C97.9388 24.2371 98.5989 24.1141 99.2639 24.1143C99.9116 24.0876 100.557 24.2057 101.161 24.4611C101.616 24.6612 102.021 24.9741 102.344 25.3746C102.628 25.7418 102.834 26.1721 102.948 26.6348C103.062 27.0926 103.12 27.5647 103.12 28.0389V33.7143H101.098L101.09 32.5217ZM101.09 29.4514H100.549C100.197 29.4514 99.8361 29.4514 99.452 29.4514C99.0902 29.4815 98.7327 29.5552 98.3861 29.6713C98.0981 29.7669 97.8314 29.9252 97.6024 30.1365C97.4903 30.2401 97.4022 30.3706 97.345 30.5174C97.2879 30.6642 97.2633 30.8234 97.2732 30.9823C97.2675 31.1783 97.3138 31.3719 97.4064 31.5406C97.4957 31.688 97.6167 31.8099 97.7591 31.8958C97.9089 31.9916 98.0735 32.0575 98.245 32.0904C98.4228 32.131 98.6041 32.1508 98.7858 32.1496C99.0876 32.1888 99.3937 32.1547 99.6817 32.0497C99.9697 31.9447 100.232 31.7715 100.45 31.5428C100.668 31.3142 100.836 31.0357 100.941 30.728C101.046 30.4203 101.087 30.091 101.059 29.7644L101.09 29.4514Z" fill="white"/>
<path d="M105.456 24.3764H107.525V25.9581C107.752 25.4302 108.1 24.9732 108.536 24.6302C108.977 24.2921 109.508 24.1171 110.049 24.1312H110.323C110.408 24.1332 110.493 24.1503 110.574 24.1819V26.2965L110.205 26.2203H109.907C109.494 26.1984 109.082 26.2978 108.716 26.5079C108.438 26.6828 108.2 26.9226 108.019 27.2099C107.855 27.4658 107.738 27.7528 107.674 28.0558C107.619 28.2769 107.588 28.5038 107.58 28.7324V33.7312H105.424L105.456 24.3764Z" fill="white"/>
<path d="M111.161 24.3765H113.513L115.786 31.143L118.074 24.3765H120.363L116.922 33.6805H114.657L111.161 24.3765Z" fill="white"/>
<path d="M126.978 32.5217H126.923C126.677 32.9644 126.314 33.3177 125.881 33.5367C125.373 33.8106 124.81 33.947 124.243 33.9343C123.875 33.935 123.509 33.8867 123.153 33.7905C122.779 33.7005 122.423 33.537 122.103 33.3083C121.785 33.0737 121.518 32.7679 121.319 32.4118C121.097 31.9962 120.988 31.5211 121.006 31.0416C120.988 30.7344 121.028 30.4266 121.122 30.1362C121.216 29.8457 121.363 29.5785 121.554 29.3499C121.949 28.9189 122.432 28.5944 122.965 28.4026C123.587 28.1748 124.231 28.0271 124.885 27.9628C125.591 27.8951 126.273 27.8528 126.947 27.8528V27.6498C126.962 27.3984 126.917 27.1469 126.815 26.9201C126.713 26.6932 126.559 26.4987 126.367 26.3557C125.95 26.0703 125.464 25.9259 124.971 25.9413C124.517 25.9386 124.068 26.0425 123.655 26.2458C123.267 26.4331 122.912 26.6906 122.604 27.007L121.492 25.586C121.982 25.0952 122.561 24.7181 123.192 24.478C123.821 24.2364 124.484 24.1134 125.152 24.1143C125.799 24.0876 126.445 24.2057 127.048 24.4611C127.502 24.6601 127.905 24.9733 128.224 25.3746C128.511 25.7398 128.718 26.1707 128.828 26.6348C128.942 27.0926 129 27.5647 129 28.0389V33.7143H126.986L126.978 32.5217ZM126.939 29.4514H126.453C126.108 29.4514 125.74 29.4514 125.356 29.4514C124.996 29.4815 124.641 29.5552 124.297 29.6713C124.01 29.768 123.743 29.9262 123.514 30.1365C123.403 30.2406 123.316 30.3713 123.26 30.5182C123.204 30.6651 123.181 30.8241 123.192 30.9823C123.184 31.1687 123.226 31.3536 123.312 31.5154C123.398 31.6772 123.525 31.8092 123.678 31.8958C123.827 31.993 123.992 32.059 124.164 32.0904C124.342 32.131 124.523 32.1508 124.705 32.1496C125.012 32.1737 125.321 32.1298 125.612 32.0208C125.903 31.9117 126.171 31.7397 126.398 31.5152C126.595 31.2784 126.748 31.0018 126.846 30.7014C126.944 30.4009 126.986 30.0825 126.97 29.7644L126.939 29.4514Z" fill="white"/>
<path d="M4.54585 10.3613H12.1014L7.17146 17.8383C6.51089 18.8916 6.14105 20.1257 6.10498 21.397C6.0689 22.6682 6.36807 23.9244 6.96768 25.0193C7.59487 26.0435 8.44757 26.884 9.44946 27.4654C10.4513 28.0469 11.5712 28.3512 12.7088 28.3512C13.8463 28.3512 14.9662 28.0469 15.9681 27.4654C16.97 26.884 17.8227 26.0435 18.4499 25.0193C19.0452 23.9232 19.3425 22.6684 19.3079 21.3984C19.2732 20.1285 18.908 18.8947 18.2539 17.8383L6.64634 0H14.1548L23.4816 14.3789L23.6697 14.7088C26.021 19.3354 26.021 24.3427 23.7403 28.4534C22.5675 30.4664 20.9407 32.1254 19.0121 33.2753C17.0834 34.4252 14.9161 35.0284 12.7127 35.0284C10.5093 35.0284 8.34193 34.4252 6.41332 33.2753C4.48471 32.1254 2.85791 30.4664 1.6851 28.4534C-0.556467 24.3173 -0.556468 19.3101 1.79483 14.6834L1.98293 14.3451L4.58504 10.3613" fill="#FC1921"/>
<path d="M16.9763 18.8195L12.7675 12.332L8.44896 18.8195C7.93071 19.627 7.64078 20.5796 7.61435 21.5615C7.58792 22.5434 7.82611 23.5124 8.30004 24.3511C8.61138 24.9139 9.02776 25.4007 9.52272 25.7806C10.0003 26.1506 10.5294 26.4361 11.0903 26.6264C11.8567 26.9542 12.6896 27.0587 13.5054 26.9296C14.3211 26.8004 15.091 26.4421 15.738 25.8905L16.0672 25.6283C16.9805 24.8189 17.578 23.6681 17.7406 22.4048C17.9033 21.1415 17.6192 19.8585 16.945 18.811L16.9763 18.8195Z" fill="#E30513"/>
</g>
<defs>
<clipPath id="clip0_2440_20241">
<rect width="129" height="35" fill="white"/>
</clipPath>
</defs>
</svg>
